<svg width="131" height="222" viewBox="0 0 131 222" fill="none" xmlns="http://www.w3.org/2000/svg">
<path d="M-69.1451 -77.7085C-68.6456 -77.3565 -69.2749 -76.8066 -69.1205 -76.3556C-64.4526 -63.0485 -61.2874 -56.3593 -60.7359 -53.5207C-63.2126 -56.3347 -63.5076 -55.7063 -67.7813 -69.5615C-68.0572 -70.4368 -69.1456 -71.1491 -68.2171 -72.2367C-68.9279 -72.0729 -69.5238 -72.5845 -70.069 -71.8676C-70.1302 -71.8171 -70.2048 -71.7847 -70.2826 -71.7748C-70.3604 -71.765 -70.4378 -71.7781 -70.5044 -71.8124C-70.571 -71.8467 -70.6237 -71.9005 -70.6553 -71.9667C-70.687 -72.0329 -70.696 -72.1083 -70.6813 -72.1828C-70.6484 -72.3349 -70.6485 -72.4897 -70.6817 -72.6373C-70.7148 -72.7849 -70.7801 -72.922 -70.8736 -73.0399C-70.967 -73.1577 -71.0865 -73.2537 -71.2244 -73.3217C-71.3622 -73.3896 -71.5153 -73.4281 -71.674 -73.4346C-72.0825 -73.4684 -71.9992 -74.1402 -72.2909 -74.2599C-72.8647 -74.4704 -73.3608 -74.8253 -73.7302 -75.2897C-74.0996 -75.7542 -74.3296 -76.312 -74.3974 -76.9082C-74.9112 -74.9668 -72.9278 -71.6848 -73.8336 -71.2016C-74.1675 -71.0005 -73.9191 -71.5386 -74.1502 -71.586C-74.6355 -71.4958 -74.4936 -71.1771 -74.4988 -70.8787C-74.4943 -70.7638 -74.5231 -70.6477 -74.582 -70.5432C-74.641 -70.4388 -74.7278 -70.35 -74.8328 -70.2868C-74.9378 -70.2235 -75.0569 -70.1883 -75.1769 -70.185C-75.297 -70.1817 -75.4133 -70.2104 -75.513 -70.2679C-78.3218 -72.4312 -76.9533 -77.8715 -79.1844 -77.0409C-79.7095 -76.849 -79.9533 -77.1685 -80.2807 -77.3755C-79.4904 -67.8884 -77.3003 -68.3679 -80.3048 -68.1752C-82.0731 -68.0584 -82.0416 -69.5695 -82.8456 -70.593C-82.8496 -70.4041 -81.6297 -66.0407 -82.2235 -67.1907C-82.8173 -68.3408 -84.2567 -67.9869 -85.0867 -68.7461C-87.0293 -70.9122 -88.1161 -73.6931 -88.1747 -76.6475C-89.5909 -73.6031 -86.225 -69.8481 -87.1019 -69.4288C-87.5817 -69.2176 -87.7789 -69.9071 -88.3687 -71.1062C-88.6214 -70.7986 -87.9899 -70.4794 -88.4532 -70.3248C-88.9165 -70.1702 -89.1939 -72.7231 -90.5868 -75.3349C-91.7686 -74.4989 -91.6169 -75.4761 -92.4031 -76.5259C-93.6079 -78.1007 -85.4943 -58.0869 -83.8319 -51.1767C-84.4347 -53.0674 -95.4555 -80.2367 -92.0878 -70.421C-76.6456 -26.0815 -89.3036 -62.492 -83.1326 -42.0079C-83.5284 -41.7695 -84.4666 -43.4894 -83.1261 -39.5405C-82.5083 -37.7365 -82.6424 -35.6973 -81.5118 -34.0778C-81.4571 -33.9622 -81.4302 -33.8347 -81.4329 -33.7042C-81.4356 -33.5738 -81.468 -33.4434 -81.5276 -33.3222C-82.8368 -36.1865 -82.592 -36.1163 -82.9463 -35.6698C-83.0576 -35.6027 -83.1814 -35.668 -83.1636 -35.6943C-82.4151 -36.689 -83.6732 -36.5376 -83.9349 -36.9707C-85.8406 -42.2734 -87.5985 -44.2612 -88.9229 -52.7894C-89.3726 -55.6272 -89.1323 -57.435 -89.6506 -57.3715C-90.169 -57.3081 -89.32 -55.3169 -89.9814 -53.8151C-92.2147 -56.729 -93.2026 -64.3097 -93.625 -64.5061C-94.8383 -65.0344 -94.8658 -65.0799 -95.2205 -66.4206C-95.981 -69.2422 -95.9777 -67.2547 -96.54 -67.1803C-97.4143 -68.2082 -98.0082 -70.8659 -99.0873 -70.558C-100.167 -70.25 -99.9104 -72.6736 -100.657 -72.4572C-106.376 -70.7542 -89.4207 -31.7554 -91.6652 -32.0358C-92.8741 -32.1938 -93.494 -31.8516 -93.1302 -32.5059C-92.4796 -33.6904 -96.2341 -32.6729 -96.4463 -30.2604C-97.4486 -31.4443 -97.1933 -33.3388 -98.5681 -34.4693C-99.943 -35.5998 -99.7829 -37.9032 -100.761 -39.2418C-100.798 -38.1313 -95.0263 -23.7792 -95.9326 -18.2442C-96.0052 -18.2983 -96.0645 -18.3668 -96.1072 -18.4455C-96.1499 -18.5242 -96.175 -18.6115 -96.181 -18.7022C-96.187 -18.7929 -96.1738 -18.8851 -96.1421 -18.9734C-96.1105 -19.0616 -96.0611 -19.1441 -95.9968 -19.2158C-97.3149 -20.0351 -98.2456 -21.3075 -98.6172 -22.7981C-98.4887 -21.7033 -98.2962 -20.6205 -98.0406 -19.5549C-102.819 -19.0868 -99.066 -26.1649 -101.725 -24.0043C-102.632 -23.2716 -102.237 -24.6284 -102.363 -25.8424C-102.438 -26.4967 -100.83 -26.0972 -100.42 -25.8934C-100.358 -27.2984 -100.491 -27.4054 -102.006 -27.5962C-103.522 -27.7871 -102.483 -29.1118 -102.905 -29.6974C-103.448 -29.619 -103.045 -28.0588 -104.49 -26.7377C-105.742 -25.6265 -104.444 -21.916 -104.533 -19.9973C-105.964 -21.1094 -106.295 -14.5378 -107.596 -14.7646C-107.832 -14.7931 -109.186 -13.9624 -109.132 -14.8499C-109.047 -16.0205 -110.043 -15.8554 -110.603 -16.1399C-110.853 -15.7718 -110.711 -15.4532 -110.722 -15.1359C-110.786 -13.6515 -112 -14.4594 -112.185 -13.5089C-112.37 -12.5583 -112.952 -13.0471 -113.069 -13.2408C-113.725 -14.4935 -115.937 -12.9901 -115.877 -14.4254L-115.918 -14.4938C-117.166 -14.7995 -116.701 -16.8509 -117.364 -16.8869C-117.676 -16.4816 -116.832 -15.42 -117.716 -15.4315C-119.058 -15.4471 -119.058 -13.3803 -116.351 1.65145C-116.901 1.57861 -116.839 1.12193 -117.146 0.949203C-117.34 1.1591 -117.022 1.57374 -117.437 1.66834C-117.852 1.76293 -117.995 0.1861 -118.788 1.05196C-119.92 2.27758 -120.565 -1.88815 -117.677 -1.85525C-117.655 -2.48984 -122.401 -4.34133 -120.936 3.66671C-120.861 4.04143 -120.673 4.40955 -121.016 4.81839C-121.24 4.78242 -122.765 1.92387 -121.269 6.2142C-120.895 5.91142 -121.268 5.54546 -121.054 5.09015C-120.048 7.17334 -120.421 6.13853 -121.416 8.26084C-120.26 10.0053 -121.845 9.70043 -121.578 7.09943C-122.705 8.69538 -120.06 12.4026 -125.569 3.28597C-126.611 4.79953 -49.7409 148.552 -49.6431 148.742C-49.8068 148.639 -86.4664 91.2436 -49.8832 150.69C-0.468829 230.977 -101.505 73.1149 -91.5272 78.2353C-91.0264 78.4777 -91.0176 79.0786 -90.8714 79.4879C-90.641 80.3439 -89.7344 80.6995 -89.6043 81.5848C-89.5393 81.8876 -88.3986 81.2628 -88.8103 80.7491C-90.0072 78.8246 -91.0506 76.8089 -91.9323 74.7178C-91.1283 74.2337 -85.9793 85.992 -85.1725 85.5684C-85.913 83.7793 -86.7835 82.0498 -87.7779 80.3917C-88.3358 79.4687 -86.6465 78.6069 -88.7046 79.0535C-87.8636 78.547 -88.0334 77.9033 -88.3309 77.383C-88.6285 76.8628 -88.8217 77.492 -89.1489 77.5647C-88.0842 76.535 -93.5162 67.8536 -94.0044 67.8833C-93.6783 69.4278 -92.5317 70.5714 -92.0036 72.0874C-94.9056 71.6123 -133.395 -6.14568 -111.906 39.5731C-111.886 38.7685 -112.486 38.1662 -112.647 37.1748C-112.063 37.6938 -106.304 47.6703 -106.804 49.6345C-109.628 44.9622 -108.302 46.8215 -108.178 45.7986C-108.754 45.6652 -109.263 45.3652 -109.639 44.9375C-110.014 44.5098 -110.24 43.9741 -110.285 43.3997C-110.001 43.2284 -109.907 43.7469 -109.617 43.5568C-109.962 42.0084 -111.529 41.3976 -112.196 40.0428C-112.278 39.9061 -123.245 19.9164 -123.679 19.478C-125.067 20.3916 -92.0305 74.1086 -93.9197 77.0959C-94.4113 77.8737 -131.649 8.29949 -132.286 8.27879C-131.579 19.9453 -122.017 30.0723 -123.378 31.84C-128.716 23.0083 -131.46 14.4185 -132.232 14.7895C-111.507 63.906 -48.5553 175.582 -15.0578 216.774C-13.7967 218.331 -14.1469 215.992 -12.5615 215.768C-5.40082 214.72 -12.8728 213.857 -9.93534 212.633C-8.73809 212.129 -5.879 219.345 -9.58292 210.229C-10.5768 207.719 -11.2463 207.951 -12.5999 206.046C-22.9346 191.457 -21.7901 189.136 -22.7426 189.57C-24.8099 190.504 -26.3975 186.984 -27.6621 184.668C-27.9307 184.223 -26.582 182.463 -28.3313 182.304C-28.5486 182.279 -32.431 174.934 -32.5013 174.79C-30.743 175.689 -6.5404 213.728 -3.43568 213.366C-8.08727 206.841 -11.419 205.739 -10.7805 201.966C-10.5866 202.04 -10.4159 202.157 -10.2812 202.307C-10.1465 202.457 -10.0512 202.638 -10.0026 202.834C-9.85748 203.633 -9.15392 203.178 -8.74815 203.291C-8.34236 203.404 -8.49817 202.923 -8.40076 202.694C-7.02886 199.381 -1.74598 211.695 -1.1641 207.661C-0.593579 207.489 -0.588644 208.279 -0.0951393 208.09C0.388382 207.55 -3.90172 199.502 -3.69032 199.126C-3.4789 198.751 -2.01567 198.771 -1.78839 199.147C-0.335272 201.551 0.970184 202.009 -0.424971 202.631C0.100056 202.549 0.628146 202.608 1.09991 202.802C1.57169 202.995 1.9684 203.316 2.24524 203.728C3.35094 205.222 3.1411 203.033 3.70501 203.129C4.73105 203.319 5.74435 207.34 6.89412 206.089C7.82547 205.061 7.66268 205.937 9.9767 208.398C10.7531 209.236 10.9786 207.795 11.127 207.705C12.6081 206.331 11.7174 208.235 13.4933 208.829C12.2537 206.778 11.8204 206.619 13.2323 206.22C14.6442 205.82 12.5068 205.382 13.4093 204.419C13.8695 203.924 12.5796 203.939 13.1222 203.302C13.3818 203.006 13.9014 202.833 14.0433 203.011C14.5058 203.526 14.9833 202.445 15.2946 202.988C18.1997 208.047 18.5817 207.786 15.7027 202.743C13.8073 199.439 12.7229 198.677 13.9826 198.696C17.4068 198.779 9.50043 191.028 11.0123 190.18C12.175 189.48 11.7761 192.253 13.7087 192.799C13.9535 192.869 14.2766 192.706 14.3636 193.073C14.5113 193.653 15.3594 193.297 15.0012 192.565C12.1448 186.778 10.5128 185.724 11.8882 185.906C12.5015 185.972 12.9181 185.908 12.4774 185.179C11.6854 183.868 13.8871 184.05 13.2358 183.168C12.9142 183.361 13.1349 184.005 12.4954 183.924C11.4144 183.783 6.97749 173.258 17.6413 188.364C18.2817 189.284 16.8315 189.815 16.6272 188.974C16.3208 187.853 15.4505 189.512 16.145 189.545C16.8395 189.577 17.0575 190.301 17.4526 190.731C17.9721 190.418 16.811 189.921 17.6604 189.456C18.5098 188.991 18.3776 190.252 19.9608 190.666C21.1767 190.975 20.6184 192.369 22.5515 191.966C21.8293 191.748 21.8203 191.008 21.3496 190.592C21.0908 190.359 21.3946 190.191 21.5911 190.042C22.6259 189.326 22.8558 190.99 24.35 191.816C24.6054 191.429 23.5499 190.743 24.7324 190.606C25.1435 190.561 24.1884 189.706 25.166 189.537C25.4753 189.49 29.1331 193.645 24.8066 187.686C24.2572 186.944 24.4682 186.149 25.4012 185.432C27.0405 184.18 30.0252 189.035 30.6779 188.58C31.3307 188.125 27.6966 185.713 28.1141 185.119C28.7528 184.362 27.7534 183.378 28.7002 182.684C28.7002 182.684 28.645 182.453 28.5694 182.467C27.318 182.49 27.3623 181.391 27.1581 180.69C26.8628 179.671 24.8145 178.822 26.2482 178.207C26.4337 178.096 26.2821 177.845 26.1665 177.681C25.8497 177.157 25.5843 178.56 25.0653 178.065C24.8942 177.94 24.759 177.776 24.6706 177.586C24.5823 177.396 24.5434 177.186 24.5569 176.972C25.1213 174.751 22.3258 174.927 22.1589 171.608C22.1196 170.762 20.4369 169.848 20.9398 169.451C21.9594 168.682 26.526 175.569 27.0139 175.259C27.5018 174.95 15.3977 159.36 15.2587 159.241C14.0269 158.18 16.1651 157.949 15.3931 157.482C14.1095 156.809 14.0403 154.908 15.1647 155.847C18.7939 158.838 8.85817 147.366 9.5888 146.398C9.84011 146.06 53.4871 199.496 54.8914 198.386C56.958 196.753 34.6649 174.911 26.8956 163.953C21.6588 156.6 25.0837 161.625 26.6887 161.824C17.3253 149.122 43.4756 180.78 45.2032 182.662C48.8609 186.677 51.3722 186.952 52.299 188.29C53.2258 189.628 54.8745 188.169 55.8781 189.243C56.0502 189.528 56.647 189.511 56.8455 189.951C56.9763 190.167 57.1347 190.43 57.4837 190.142C58.359 189.413 56.8283 190.676 53.3152 184.026C52.9433 183.41 53.6869 182.994 54.1837 183.425C55.5339 184.57 58.2917 188.101 61.1271 189.331C62.0888 189.778 61.4918 192.531 67.0044 195.009C68.1215 195.517 67.8515 196.41 70.0801 197.307C69.3511 195.709 65.4894 192.502 67.5791 193.419C68.0592 193.627 68.503 194.697 68.9029 194.409C69.3028 194.122 30.6644 149.42 21.8184 134.168C20.744 132.391 32.4681 147.464 32.328 147.595C31.3868 148.41 32.7075 148.921 32.5988 147.541C37.5015 152.08 45.9561 166.433 11.5587 114.763C-4.16159 91.1233 4.01564 100.188 -0.861731 94.8248C-1.00636 94.5855 -1.47142 94.2905 -1.02909 93.8221C-0.586746 93.3536 -1.61343 93.9719 -1.6442 93.4464C-1.67497 92.9209 -10.8158 77.2093 -10.8901 77.1142C-11.7549 75.8786 -10.6246 75.8507 -10.4712 76.5511C-10.2558 77.4938 -2.00896 90.2466 -1.8892 90.361L-1.71308 90.457C-2.02022 91.3725 -1.12086 91.4371 -0.720289 91.8487C0.141564 92.884 -0.798432 93.45 -0.0340948 93.2073C0.0114666 93.1875 0.0612471 93.181 0.108693 93.1887C0.156131 93.1965 0.198999 93.2181 0.231546 93.2508C0.264102 93.2834 0.284837 93.3256 0.290989 93.3716C0.297134 93.4176 0.288408 93.4654 0.265983 93.5085C-0.612215 94.0373 0.0770378 94.3683 0.362073 94.7562C0.733959 95.3716 0.792688 96.3621 1.31626 96.0001C1.83983 95.6382 0.349815 94.9035 0.709374 94.1585C1.63132 95.2897 2.49028 96.4687 3.28299 97.6913C2.38372 97.7665 3.1424 98.7706 2.33533 98.9147C2.66589 99.4617 3.13933 98.4306 3.6886 99.0324C3.75747 99.1463 3.84011 99.2831 3.67931 99.3799C3.30824 99.6034 3.23757 99.0397 2.91036 99.1124C2.38579 99.8635 3.76685 100.306 4.30443 101.615C4.39396 101.763 4.49037 101.922 4.70064 101.796C5.14592 101.528 4.39328 101.064 4.24109 100.114C6.60105 103.154 8.20097 106.667 10.7165 109.908C8.2882 108.681 8.72117 107.053 8.02149 107.319C6.81594 107.78 9.17114 110.17 11.2032 112.584C21.2443 125.095 37.3507 152.528 39.8139 152.863C40.167 152.989 40.4708 153.208 40.6925 153.497C40.9143 153.785 41.0456 154.131 41.0723 154.499C41.2302 155.57 41.8485 155.058 41.791 155.325C41.2364 157.758 46.2905 161.04 47.239 162.023C50.3293 165.183 39.1594 150.133 39.1656 149.446C39.1718 148.758 37.5311 148.612 38.2152 149.241C38.3047 149.389 41.2178 154.21 36.1298 147.186C26.5017 133.711 8.17417 105.952 19.1598 119.636C19.4215 120.069 19.1528 123.728 20.5814 122.184C21.1323 121.588 20.8018 122.548 21.0726 122.494C21.4677 122.722 21.7791 123.058 21.9701 123.463C22.1612 123.868 22.2241 124.326 22.1516 124.782C22.1094 125.243 22.7483 124.625 22.9687 124.989C43.0199 159.062 37.4601 144.893 33.7395 141.165C33.2123 140.628 33.6778 139.974 34.3085 140.822C62.8383 180.047 51.2986 162.237 52.6176 162.437C52.8348 162.462 52.7307 161.452 52.1508 161.832C51.5709 162.212 51.3846 161.625 51.7749 161.406C52.1653 161.186 51.8405 160.9 51.7165 160.695C51.1449 159.749 50.8807 161.043 50.5473 160.435C50.4647 160.298 50.3201 160.059 50.514 159.989C51.8117 159.596 50.1789 159.072 50.8686 158.454C53.5391 162.706 91.6569 205.094 92.9991 199.499C93.1059 199.062 93.8204 198.569 93.1049 198.083C88.2845 194.769 65.3191 168.855 65.2296 168.707C64.814 168.382 65.4849 168.18 65.541 167.882C65.2532 167.573 64.8112 168.321 64.6552 167.7C65.0195 167.605 65.2252 166.968 65.7316 167.332C78.3174 176.322 57.2644 157.09 47.3621 141.681C40.3313 130.745 13.2189 91.2418 -22.369 25.8496C-73.1974 -67.4969 -60.5901 -54.8985 -59.9328 -52.108C-59.4454 -50.1012 -50.3112 -31.246 -50.4218 -30.48C-50.8581 -30.839 -50.9068 -31.4779 -51.5604 -31.8615C-51.1996 -30.4743 -50.4079 -29.2518 -49.2867 -28.3503C-46.4869 -26.9277 -55.9298 -32.4477 -12.0469 40.166C-14.2512 45.8143 48.6201 140.022 48.7028 140.159C50.1904 142.62 50.8143 140.861 50.9965 141.498C51.5907 143.067 53.0406 143.624 51.9285 144.045C51.8772 143.617 51.7065 143.219 51.4342 142.891C51.1618 142.563 50.7977 142.318 50.3797 142.18C51.8052 144.539 52.081 145.274 52.7749 144.748C53.2449 144.465 53.6823 145.942 53.105 146.243C53.6222 146.584 54.0592 147.023 54.3921 147.535C54.7492 147.149 54.115 146.909 54.3566 146.5C55.451 147.613 56.5283 149.591 54.6439 147.757C54.6934 149.095 55.8536 148.753 56.686 149.154C49.2736 136.163 13.6875 85.1777 12.7403 79.8418C12.1769 80.3054 12.8868 80.6705 12.4224 81.0745C11.513 79.1509 10.1101 77.5554 9.30102 75.6024C9.02119 74.9161 8.80858 74.0338 7.74008 74.0245C8.03813 74.0912 8.28935 74.2687 8.44091 74.5195C8.59247 74.7702 8.63257 75.0748 8.55272 75.3691C7.87007 74.7699 6.5928 70.814 6.49513 70.7641C5.12209 68.7523 3.89047 66.649 2.80774 64.4671C4.39488 64.6926 10.6391 78.4026 12.0464 79.0006C12.2199 77.8082 5.03533 65.7524 4.24125 63.7126C2.2905 58.6702 11.6661 76.836 13.0084 76.9914C12.9997 76.5303 0.706581 56.0491 1.26939 55.0263C1.30898 54.9346 1.31298 54.8345 1.28069 54.745C1.24839 54.6555 1.18198 54.5829 1.0942 54.5412C-0.765771 55.1483 -38.3012 -13.4386 -25.9244 6.79018C-15.8436 23.3035 -8.77494 39.2993 -6.97164 39.7987C-6.97414 38.6501 -10.0001 33.7266 -3.43699 44.5868C-5.47426 42.4719 -10.025 34.9695 -3.54666 46.3315C15.4368 79.994 37.0394 112.111 61.0909 142.429C60.8192 141.644 61.0424 140.702 60.2621 140.053C59.779 139.644 59.5034 139.048 60.1548 138.563C60.4393 138.392 60.2659 138.356 60.1668 138.276C59.6618 137.943 59.6694 137.285 59.3129 136.863C59.7467 137.581 60.7523 137.877 60.6145 139.017C60.5421 139.511 60.7587 138.837 60.899 138.845C61.6225 139.093 60.9882 140.082 61.211 140.087C61.4338 140.093 74.3471 157.776 74.6584 158.319C70.7235 156.275 70.8082 154.265 70.073 154.863C69.7391 155.064 70.02 155.501 70.2774 155.704C74.611 159.078 76.6932 163.529 80.9566 165.391C81.9965 166.081 82.8416 167.002 83.4276 168.084C83.2857 166.398 70.9575 152.279 70.7979 152.126C69.7629 151.195 70.5543 150.579 67.4423 146.267C66.444 144.894 68.7799 147.28 69.117 147.419C66.0079 143.307 66.4662 143.731 66.2593 144.477C67.3361 144.528 66.5731 146.169 66.2593 144.477C65.5383 144.01 66.131 144.041 66.4981 144.007C66.2252 143.332 64.9369 143.657 65.0789 142.608C65.398 142.633 65.3544 143.063 65.6653 143.187C65.5565 141.527 63.6571 142.655 63.7826 141.663C64.9118 134.766 30.3273 97.1352 78.5121 157.522C79.1661 158.325 85.6634 165.028 85.3853 167.527C85.3362 167.976 86.8221 168.76 86.6227 167.341C86.1035 163.691 83.0638 160.252 86.6794 164.867C90.4974 169.733 80.5587 155.046 76.1479 147.273C76.9509 148.189 77.8233 149.045 78.7591 149.835C78.7877 149.631 56.0714 115.532 45.8462 97.5509C24.0306 59.1632 79.7636 153.395 91.0332 166.349C91.194 166.252 43.5224 89.2671 39.7905 81.054C124.769 179.544 54.0457 105.452 54.6072 96.0522C54.814 92.4305 97.0885 148.62 102.052 151.585C74.4161 115.738 32.8559 53.1649 7.20401 3.90704C7.08005 3.70192 6.6418 -0.121957 5.33285 -1.33877C5.202 -1.55529 5.13121 -2.2587 5.06321 -2.90163C7.7569 -1.71046 29.4898 43.5193 33.425 44.4758C33.5859 44.5187 33.6671 44.6252 33.604 44.772C32.9659 46.0889 37.7715 49.7697 31.3197 40.3501C32.5926 38.4645 -11.9081 -38.6888 -16.1583 -48.2062C-16.7895 -49.6135 -20.0421 -54.214 -20.5247 -55.5709C-23.1708 -62.9923 -31.8851 -70.0702 -31.4161 -71.3319C-34.1355 -72.119 -34.2449 -77.0734 -37.8438 -75.8544C-37.579 -75.0812 -36.774 -74.5868 -36.7017 -73.7134C-37.0604 -73.4974 -39.1369 -74.9514 -34.6509 -70.4875C-35.1704 -70.1746 -35.2152 -71.0025 -36.1065 -71.1653C-40.4375 -71.8834 -45.703 -79.033 -35.3462 -65.7478C-28.7606 -57.2792 -30.4588 -58.5259 -32.4678 -61.264C-31.5975 -59.6381 -30.4932 -58.1489 -29.1852 -56.8371C-28.526 -56.3325 -27.8895 -53.7161 -28.7818 -54.9972C-41.7952 -73.7391 -38.7333 -67.2209 -42.3536 -69.6104C-42.6876 -69.4093 -42.0506 -69.109 -42.522 -68.8563C-45.7352 -71.1024 -45.3775 -75.1724 -46.9945 -74.9448C-47.3478 -74.8874 -47.4735 -76.91 -48.9228 -78.1355C-47.6371 -75.366 -47.3245 -74.9326 -47.8137 -74.6535C-48.303 -74.3744 -48.225 -74.7477 -48.3875 -74.9607C-48.55 -75.1738 -48.7338 -74.7522 -48.9992 -74.7168C-54.4819 -73.4047 -46.0829 -63.8054 -44.9476 -58.8004C-45.7676 -59.2081 -51.6849 -69.1672 -53.8134 -78.8586C-54.1684 -80.4789 -56.279 -78.8349 -56.506 -78.9314C-57.3755 -79.3093 -55.9791 -77.166 -56.3156 -76.7457C-59.3619 -72.9373 -43.7619 -40.1169 -62.7796 -84.6503C-61.0571 -75.3515 -57.7674 -69.4056 -57.9506 -68.285C-58.4046 -68.4779 -58.8811 -70.6623 -59.1835 -69.0969C-59.3613 -68.1349 -54.2537 -53.7094 -53.5207 -52.3012C-47.5894 -40.672 -56.6251 -55.763 -59.283 -56.867C-59.5233 -56.5668 -59.2079 -56.0728 -59.5321 -55.7998C-60.7074 -56.7396 -64.9829 -66.8014 -64.995 -69.2499C-65.3538 -69.1737 -64.9986 -68.7814 -65.4605 -68.5965C-65.7522 -70.2238 -66.8935 -71.5261 -66.8045 -73.305C-66.7731 -73.5881 -67.4169 -73.7599 -67.5466 -74.2258C-69.6709 -80.9512 -69.4933 -77.9496 -69.1451 -77.7085ZM-55.2629 -59.1478C-54.8375 -57.2436 -55.8834 -59.5047 -55.8 -60.0367C-55.4533 -59.8259 -55.534 -59.3732 -55.2629 -59.1478ZM13.9903 154.518C12.9076 154.067 14.0568 153.624 13.9903 154.518C14.7577 154.616 14.0669 155.483 13.8481 155.288C13.6292 155.093 13.9713 154.794 13.9903 154.518ZM50.804 120.522C51.0193 121.325 52.0018 120.578 51.5891 121.821C51.5179 122.066 51.9375 122.202 51.7976 122.613C51.4517 121.873 50.4998 121.638 50.4838 120.746C49.6006 120.345 48.7239 118.169 49.0199 118.519C49.6614 119.189 51.2914 119.653 50.8412 120.5L50.804 120.522ZM69.7239 118.33C69.1684 118.004 68.7779 117.478 68.6319 116.858C68.5026 116.812 60.2379 105.453 69.7981 118.286L69.7239 118.33ZM-46.2824 -24.5794C-46.4966 -24.2639 -45.8968 -23.9413 -46.4066 -23.5566C-47.0953 -24.6962 -47.3284 -25.4728 -46.2933 -24.5418C-44.5533 -24.0353 -44.7194 -22.2723 -44.1516 -20.9977C-47.7168 -26.1715 -43.2814 -18.4132 -41.6829 -16.4381C-42.5065 -16.3773 -45.9301 -21.512 -46.2824 -24.5794ZM51.3345 125.782C50.5983 125.262 35.3777 103.622 35.2518 101.459C35.4087 101.551 51.2551 124.758 51.3221 125.79L51.3345 125.782ZM-31.0838 4.11509C-31.0356 4.19486 -13.9444 34.7651 -14.0833 34.7865C-13.2362 36.1882 -13.4219 34.6525 -12.8812 34.9331C-11.2028 44.103 -31.0875 4.58359 -31.0962 4.12254L-31.0838 4.11509ZM-91.3142 -31.5945C-90.4162 -31.5601 -90.5199 -30.7827 -90.298 -30.248C-89.7701 -29.0116 -89.0377 -28.1626 -90.1575 -27.224C-90.9174 -26.611 -90.2322 -23.4954 -90.3537 -22.5518C-89.5147 -23.7876 -89.8854 -31.6311 -88.486 -25.0443C-87.7883 -21.7963 -89.9298 -23.5531 -91.261 -20.8708C-91.4587 -20.472 -91.1706 -19.744 -91.7398 -19.681C-91.975 -19.6793 -100.078 -31.9434 -91.3266 -31.587L-91.3142 -31.5945ZM-22.7714 -18.6715C-22.6818 -18.5234 17.6963 50.3568 16.2756 51.5232C17.3217 51.1885 16.9975 51.4615 19.0437 55.6848C23.8112 65.3881 -22.7826 -17.5456 -22.759 -18.6789L-22.7714 -18.6715ZM-35.8689 167.85C-34.9907 167.321 -33.8953 170.92 -33.2698 170.699C-32.6444 170.477 -33.4311 170.236 -33.0726 169.88C-19.5758 192.186 -15.0468 198.536 -35.8565 167.842L-35.8689 167.85ZM-47.6505 -30.0816C-47.2373 -29.3978 -47.4523 -28.4135 -46.9277 -27.7968C-46.2494 -26.854 -45.7823 -25.7775 -45.5536 -24.6297C-46.4423 -25.0116 -46.266 -26.1436 -47.1628 -26.2875C-47.3494 -25.9264 -46.6506 -25.6634 -47.1673 -25.29C-47.3077 -25.4386 -57.0042 -46.955 -47.6505 -30.0816ZM-12.3129 36.7668C-12.7257 37.8703 -2.49227 53.0172 -3.66692 54.1442C-14.3411 35.5324 -13.6039 37.0313 -12.3376 36.7818L-12.3129 36.7668ZM-59.1956 -53.3447C-56.4015 -47.9397 -53.1003 -42.84 -50.2568 -37.4648C-54.2144 -42.1492 -57.2471 -47.5169 -59.2203 -53.3298L-59.1956 -53.3447ZM-19.1797 190.859C-19.0902 191.007 -11.2415 201.622 -11.9218 202.032C-12.6021 202.441 -25.0479 183.327 -19.1797 190.859ZM19.3081 94.0875C16.2249 89.8327 13.5374 85.3108 11.2737 80.5695C13.8799 85.0773 16.8901 89.3885 19.3067 94.0572L19.3081 94.0875ZM-115.447 14.8159C-112.738 18.8905 -110.359 23.1723 -108.329 27.6268C-110.957 23.5041 -113.333 19.2271 -115.447 14.8159ZM-39.454 -11.0192C-38.5544 -10.8148 -37.2215 -7.57632 -37.0918 -7.11043C-36.6769 -4.74904 -35.7282 -6.22188 -35.4183 -4.34127C-34.9981 -2.13854 -32.4433 0.44189 -32.3285 1.13436C-32.1045 2.39832 -28.6055 11.4822 -39.454 -11.0192ZM-98.8996 -14.9188C-99.7692 -14.0687 -101.283 -19.7005 -99.474 -18.6607C-98.8273 -18.2885 -97.9268 -19.9809 -97.8101 -18.699C-97.9169 -17.3999 -98.2871 -16.1155 -98.8996 -14.9188ZM-54.2816 -55.5422C-53.9353 -55.7508 -47.943 -42.262 -48.4736 -42.0513C-50.6748 -46.4264 -52.6017 -50.9383 -54.2445 -55.5645L-54.2816 -55.5422ZM-41.3923 -53.9781C-39.1557 -50.6227 -37.226 -47.0747 -35.6228 -43.3706C-37.3742 -46.9943 -40.3033 -49.971 -41.3483 -53.9891L-41.3923 -53.9781ZM1.06747 60.9454C1.15012 61.0822 2.65837 63.5778 2.16221 63.8455C1.42007 64.2924 2.57216 64.0494 -3.11302 55.2562C-3.31963 54.9143 -3.27449 54.654 -2.68192 54.5458C-2.08933 54.4377 -3.53167 54.5912 1.12387 60.927L1.06747 60.9454ZM73.9191 158.827C74.6235 159.211 75.5022 159.101 76.0887 159.82C78.7445 163.071 78.6508 162.832 78.3898 163.098C77.8608 163.618 75.7013 160.24 73.9754 158.808L73.9191 158.827ZM59.3879 160.101C57.8181 158.572 56.4539 156.858 55.3234 154.995C56.6934 156.703 58.6844 157.96 59.4442 160.082L59.3879 160.101ZM-81.793 -41.7731C-82.059 -43.8045 -83.3025 -45.527 -83.5657 -47.4979C-82.197 -45.6798 -81.2656 -42.4637 -81.793 -41.7731ZM59.5423 160.552C60.4995 160.628 63.0794 163.613 63.2401 164.744L59.5423 160.552ZM42.1955 106.277C40.9214 104.169 39.165 102.351 38.1314 100.083C38.4585 99.8703 37.9325 99.2233 42.1886 106.266L42.1955 106.277ZM22.8322 186.652C25.1105 189.166 25.1022 188.985 24.8095 189.254C23.9069 190.077 22.8347 187.801 22.8253 186.641L22.8322 186.652ZM7.8982 144.354C6.29551 142.288 9.66507 144.207 9.43436 145.947C9.3756 146.324 8.27927 145.99 8.40957 145.647C8.62478 144.942 7.88624 144.781 7.86377 144.297L7.8982 144.354ZM24.3296 180.839C24.1437 180.531 24.6384 180.234 24.7625 180.578C25.1914 181.874 26.8955 182.154 26.2141 182.813C25.5326 183.472 24.634 181.371 24.2952 180.782L24.3296 180.839ZM-49.4543 149.11C-48.5717 150.319 -47.3537 151.358 -47.2641 153.014C-47.9516 151.625 -48.9896 150.493 -49.5011 149.061L-49.4543 149.11ZM44.9747 110.541C46.2082 112.044 47.28 113.668 48.1753 115.39C46.8959 113.893 45.8105 112.247 44.9403 110.484L44.9747 110.541ZM-119.701 10.9586C-121.719 7.61962 -120.195 6.76397 -120.162 7.59929C-119.904 8.69671 -119.75 9.82085 -119.701 10.9586ZM-112.837 28.7095C-111.873 30.0109 -111.121 31.453 -110.603 32.9912C-113.365 28.4215 -113.149 28.975 -112.837 28.7095ZM54.5157 130.488C53.4912 129.1 52.7388 127.548 51.7089 126.179C52.7017 127.57 54.133 128.682 54.5157 130.488ZM-103.779 52.3513C-104.249 52.6343 -104.059 53.0328 -105.811 48.9896L-103.779 52.3513ZM-81.6752 -38.005C-82.4369 -39.0488 -82.9104 -40.273 -83.0552 -41.5727C-82.3893 -40.4782 -81.9231 -39.2729 -81.6752 -38.005ZM58.7317 135.985C58.5586 136.089 56.4564 133.671 56.9154 133.426C57.3745 133.181 57.2442 133.523 58.7317 135.985ZM-2.31242 47.0337C-1.61103 47.8035 -1.06972 48.6992 -0.714669 49.6775C-1.45696 48.9379 -2.00319 48.0341 -2.31242 47.0337ZM34.9078 78.7252C34.3498 78.1678 34.0313 77.4228 34.0092 76.624C34.3618 77.2354 35.3247 77.5726 34.9009 78.7138L34.9078 78.7252ZM-115.564 14.6222C-116.223 13.9778 -116.111 13.1022 -116.869 12.7971C-117.627 12.4919 -115.503 11.6793 -115.564 14.6222ZM-49.8878 -37.0497C-49.7809 -35.9795 -48.4562 -35.5182 -48.5417 -34.3477C-49.2325 -35.1027 -49.7076 -36.0229 -49.925 -37.0274L-49.8878 -37.0497ZM-40.3961 -14.0578C-41.2192 -13.4378 -40.0386 -14.0244 -41.9212 -15.4087C-42.1826 -15.5621 -42.3547 -17.2148 -40.4333 -14.0354L-40.3961 -14.0578ZM-80.6536 -39.5528C-80.7243 -40.1164 -80.5585 -40.7913 -81.2849 -41.0999C-81.3331 -41.1797 -81.3321 -41.5689 -81.331 -41.8182C-81.2989 -42.7701 -79.6939 -39.6955 -80.6494 -39.4621L-80.6536 -39.5528ZM-100.807 58.302C-100.502 58.5174 -100.255 58.7974 -100.082 59.1225C-99.9087 59.4476 -99.8139 59.81 -99.804 60.1849C-100.126 59.9906 -100.388 59.7184 -100.564 59.3929C-100.74 59.0674 -100.825 58.6989 -100.812 58.3208L-100.807 58.302ZM40.3185 88.0412C39.9688 87.8174 39.6785 87.5205 39.4671 87.1706C39.2556 86.8207 39.1279 86.4259 39.0926 86.0127C39.6918 86.5616 40.1246 87.2585 40.3501 88.0377L40.3185 88.0412ZM56.2659 132.993C55.9792 132.296 55.2404 131.855 55.0745 131.022C56.6532 132.434 56.6532 132.434 56.2659 132.993ZM-28.8867 -15.9215C-28.2549 -15.3228 -29.5165 -14.5631 -29.3658 -15.1512C-29.2151 -15.7393 -29.8066 -15.8805 -29.3903 -16.2245C-29.1429 -16.3734 -28.9749 -16.1793 -28.866 -15.8874L-28.8867 -15.9215ZM-118.065 9.36709L-116.826 11.9473C-117.568 11.2867 -118.009 10.3677 -118.065 9.36709ZM21.5715 132.001L22.5356 133.597C22.2415 133.437 21.9986 133.207 21.8291 132.926C21.6595 132.646 21.5686 132.324 21.5646 131.99L21.5715 132.001ZM-28.6257 -55.6042C-28.403 -55.7383 -28.6508 -56.0087 -26.9773 -53.2396C-27.1876 -53.1129 -26.959 -52.8464 -28.6257 -55.6042ZM-81.5015 -46.0364C-80.8579 -46.0043 -81.2766 -45.3015 -81.1005 -45.2054C-80.9244 -45.1094 -80.5503 -44.9928 -80.9461 -44.7544C-81.3419 -44.5161 -81.9471 -46.0479 -81.5015 -46.0364ZM-47.1381 -32.0532L-45.7608 -29.7741C-46.4041 -30.409 -46.8755 -31.189 -47.1381 -32.0532ZM13.3565 82.8435C13.2119 82.6042 12.7001 82.3994 13.2348 82.1396C13.5193 81.9683 13.7329 82.4614 13.6822 82.6007C13.0044 84.159 15.1242 83.5353 13.3812 82.8286L13.3565 82.8435ZM20.1931 131.479L21.171 133.097C20.7113 132.644 19.9011 132.448 20.1931 131.479ZM-21.3832 -44.7645L-20.1023 -42.6449C-20.697 -43.2381 -21.1349 -43.9627 -21.3832 -44.7645ZM43.6169 108.545C43.0566 108.12 42.6858 107.506 42.5701 106.813C42.8966 107.409 43.3151 107.934 43.6169 108.545ZM11.7769 152.308C11.7355 152.099 11.3434 151.869 11.7392 151.631C12.135 151.393 12.1465 151.914 12.3927 152.014C13.093 152.308 11.9163 152.845 11.7769 152.308ZM-39.98 -11.806L-40.8409 -13.2304C-39.6762 -13.3411 -40.4836 -12.1089 -39.98 -11.806ZM-13.2282 72.4915C-12.9607 72.6954 -12.7476 72.9569 -12.604 73.2573C-12.4604 73.5577 -12.3898 73.8895 -12.3973 74.2294C-12.8333 73.741 -13.1198 73.1417 -13.2282 72.4915ZM13.1874 153.246C13.182 153.404 13.515 153.592 13.2512 153.798C12.4295 154.448 12.5468 152.046 13.1874 153.246ZM52.8684 143.339C53.1852 143.863 53.7134 144.012 53.6879 144.695C53.2338 144.363 52.7496 144.203 52.8684 143.339ZM-58.165 131.71L-58.4495 131.881C-58.3897 131.114 -59.7921 128.571 -58.165 131.71ZM-3.36332 45.3507C-2.81535 45.7388 -2.46002 46.3268 -2.37161 46.9917C-2.88041 46.5704 -3.22727 45.9964 -3.36332 45.3507ZM-54.2409 -56.033C-54.8105 -56.3894 -54.6007 -57.0753 -54.8776 -57.5613C-54.6535 -57.3786 -54.4795 -57.1459 -54.3692 -56.881C-54.2588 -56.6161 -54.2149 -56.326 -54.2409 -56.033ZM-80.7726 -34.725C-80.5178 -34.3033 -80.0073 -33.9891 -80.2144 -33.3825L-80.7726 -34.725ZM13.6895 112.594C14.1843 112.296 14.573 113.274 14.2198 113.472C13.8666 113.669 13.3996 112.784 13.6964 112.605L13.6895 112.594ZM40.0246 103.885C40.7702 104.198 40.4752 104.826 40.789 105.15C40.5716 105.016 40.3916 104.836 40.2617 104.621C40.1319 104.406 40.0555 104.162 40.0383 103.908L40.0246 103.885ZM-52.6839 -38.801C-53.314 -39.0899 -53.3558 -39.7175 -53.5585 -40.2483L-52.6839 -38.801ZM-20.2793 15.4054C-19.8016 15.9726 -19.8203 16.5279 -19.4047 16.8527C-19.6807 16.7252 -19.9084 16.523 -20.0618 16.2692C-20.2152 16.0153 -20.2881 15.72 -20.2724 15.4168L-20.2793 15.4054ZM-20.4859 15.0636C-21.1907 14.2601 -21.1908 14.2601 -21.2297 13.8328C-20.8798 14.1788 -20.6192 14.6004 -20.4666 15.0675L-20.4859 15.0636ZM-23.755 20.3738C-23.4892 20.477 -23.2694 20.6597 -23.1262 20.8967C-22.983 21.1336 -22.9236 21.4129 -22.9561 21.6958C-23.3104 21.3184 -23.5756 20.8699 -23.7357 20.3778L-23.755 20.3738ZM19.8272 170.821C18.6544 171.03 18.7568 170.222 19.1432 170.191C19.5296 170.161 19.4791 170.58 19.8272 170.821ZM-110.83 28.7913C-111.065 28.6958 -111.249 28.5199 -111.351 28.2957C-111.452 28.0715 -111.463 27.8138 -111.383 27.5698L-110.83 28.7913ZM34.5779 101.321L33.9305 100.25C34.6515 100.717 34.6516 100.717 34.5848 101.333L34.5779 101.321ZM-92.5539 73.2425C-91.708 73.386 -91.6631 74.3537 -92.0167 74.1314C-92.1799 74.0473 -92.3146 73.9222 -92.4075 73.7684C-92.5005 73.6146 -92.5485 73.4373 -92.547 73.2539L-92.5539 73.2425ZM0.189117 51.4802C0.629322 51.6504 1.08879 51.8244 0.877803 52.6198L0.189117 51.4802ZM-35.7046 174.123C-35.4358 174.296 -35.2126 174.524 -35.0499 174.794C-34.8872 175.063 -34.7887 175.367 -34.7611 175.684L-35.7046 174.123ZM52.8518 123.548C52.3388 123.452 51.874 123.437 52.1168 122.778C52.3068 122.832 52.4755 122.933 52.6067 123.072C52.7379 123.211 52.8271 123.382 52.8656 123.57L52.8518 123.548ZM-51.9878 -37.2306C-52.1996 -37.3479 -52.3669 -37.5244 -52.4694 -37.7386C-52.5718 -37.9528 -52.6052 -38.1955 -52.5653 -38.4372L-51.9878 -37.2306ZM19.9005 99.4505C20.1219 99.5306 20.3001 99.6873 20.4019 99.8917C20.5037 100.096 20.5224 100.334 20.4545 100.562C20.4733 100.147 20.0357 99.8975 19.9143 99.4733L19.9005 99.4505ZM70.6212 119.173C70.9155 119.432 71.1004 119.787 71.1448 120.179C71.0166 119.883 70.3414 119.855 70.6722 119.174L70.6212 119.173ZM-14.4432 70.2856C-14.2366 70.6275 -13.7937 70.7182 -14.159 71.2024C-14.4411 71.0148 -14.5225 70.7685 -14.4432 70.2856ZM35.6194 153.99C35.256 153.556 35.0069 153.396 34.9307 152.851C35.144 152.959 35.3199 153.121 35.4408 153.321C35.5617 153.521 35.6233 153.752 35.6194 153.99ZM11.3604 151.004C9.93012 150.871 11.2057 150.274 11.378 150.698C11.4207 150.797 11.37 150.936 11.3604 151.004ZM-44.8013 -56.8835C-44.9666 -57.157 -45.5648 -57.1698 -45.3385 -57.7723C-45.1759 -57.6841 -45.0416 -57.5566 -44.9478 -57.4014C-44.854 -57.2462 -44.8037 -57.0682 -44.8013 -56.8835ZM-103.619 71.124C-102.772 71.018 -102.853 71.6106 -103.049 71.6202C-103.246 71.6298 -103.427 71.4128 -103.619 71.124ZM38.9103 151.34C39.7561 151.344 39.6247 152.076 39.3235 152.024C39.0223 151.972 39.0207 151.662 38.9103 151.34ZM-18.3837 18.8491C-18.4827 18.9087 -18.3699 19.0118 -19.1343 17.7468C-19.0078 17.7328 -19.1206 17.6298 -18.3837 18.8491ZM-13.3413 72.1089C-13.9145 72.3608 -14.0491 71.1052 -13.2124 71.736C-13.149 71.8688 -13.1503 71.9783 -13.3413 72.1089ZM-27.9224 182.897L-27.6836 183.795C-28.2477 183.559 -28.1792 183.254 -27.9842 182.934L-27.9224 182.897ZM-109.158 31.5302C-109.746 31.3399 -109.754 31.0187 -109.785 30.4932C-109.606 30.6103 -109.461 30.7687 -109.363 30.9555C-109.264 31.1423 -109.216 31.352 -109.22 31.5675L-109.158 31.5302ZM52.7637 143.138C52.5118 142.917 52.003 142.912 52.1166 142.346C52.4299 142.522 52.6492 142.814 52.7266 143.16L52.7637 143.138ZM-2.72083 54.1185C-2.93237 54.3547 -3.07513 54.565 -3.34191 54.5702C-3.60868 54.5755 -3.55306 53.858 -2.73321 54.126L-2.72083 54.1185ZM-0.799726 54.1429C-1.39384 54.081 -1.60045 53.7392 -1.21294 53.4592L-0.799726 54.1429ZM14.6963 84.7256C14.4033 84.5757 14.1227 84.5581 14.1032 84.2745C14.0837 83.991 14.477 83.9717 14.684 84.733L14.6963 84.7256ZM-90.1553 75.0621C-90.7235 74.736 -90.8255 74.4555 -90.6733 74.0374L-90.1553 75.0621ZM-5.88836 83.1016C-5.34371 83.1933 -4.88957 83.526 -5.29353 83.8625L-5.88836 83.1016ZM-92.5036 76.7872C-92.8128 76.9734 -92.7585 76.3656 -92.6995 76.2678C-92.6404 76.1701 -92.1958 76.5707 -92.5036 76.7872ZM27.3416 184.092C26.6914 184.328 26.7418 183.909 27.0346 183.78C27.5143 183.569 27.421 183.749 27.3416 184.092ZM48.8514 116.398C49.1407 116.876 49.409 117.041 49.1689 117.621L48.8514 116.398ZM-99.0407 63.067C-99.2336 62.7479 -98.6863 62.6204 -98.6202 62.8137C-98.554 63.007 -98.8823 63.3291 -99.0531 63.0744L-99.0407 63.067ZM19.5918 131.126C19.7769 130.595 19.7151 130.632 20.0441 131.009C20.1529 131.161 20.171 131.415 19.5794 131.134L19.5918 131.126ZM50.6617 140.86C50.2535 141.106 49.9518 140.635 50.2116 140.478C50.4713 140.322 50.8403 140.737 50.6493 140.868L50.6617 140.86ZM-42.0142 -55.733C-41.6549 -55.3898 -41.1789 -55.1325 -41.601 -55.0493C-42.023 -54.9661 -41.8625 -55.3425 -42.0142 -55.733ZM-16.1727 22.9266C-16.2716 22.9862 -16.1794 23.055 -16.7097 22.1775C-16.5736 22.0956 -16.703 22.0491 -16.1727 22.9266ZM1.36413 53.5082C1.43681 53.2935 1.52717 52.9127 1.72281 53.2922C1.79309 53.4364 1.7879 53.7349 1.36413 53.5082ZM-56.3148 133.766C-56.3716 133.849 -56.4563 133.911 -56.5533 133.941C-56.6502 133.97 -56.7526 133.966 -56.8413 133.928C-56.7826 133.847 -56.6978 133.787 -56.6017 133.757C-56.5055 133.728 -56.404 133.731 -56.3148 133.766ZM35.5894 79.5737C35.4162 79.678 35.0639 79.3462 35.3415 79.1635C35.6191 78.9808 35.9028 79.4783 35.5894 79.5737ZM-99.3535 60.9861C-100.254 61.3107 -99.2761 60.0535 -99.2356 60.6508C-99.1681 60.7345 -99.2643 60.8546 -99.3535 60.9861ZM-101.922 56.7354C-101.922 56.7354 -101.918 56.5466 -101.869 56.5168C-100.997 56.1164 -101.479 57.1058 -101.922 56.7354ZM-113.727 24.0541C-113.947 23.6895 -114.315 23.4445 -113.954 23.3985C-113.594 23.3526 -113.639 23.6129 -113.69 24.0318L-113.727 24.0541ZM-46.7309 51.1667C-47.1133 51.1483 -47.4103 51.1872 -47.5165 50.816C-47.1522 50.721 -46.9363 50.7153 -46.7309 51.1667ZM-81.635 -37.6873C-80.8979 -37.6959 -81.7345 -36.8191 -81.7255 -37.4463C-81.7098 -37.5301 -81.6793 -37.6116 -81.635 -37.6873ZM20.0846 130.239C20.8466 130.355 20.7934 130.853 20.5761 130.829C20.3588 130.804 20.2829 130.539 20.097 130.231L20.0846 130.239ZM-81.5076 -46.5768C-81.7012 -46.3669 -81.9106 -46.7693 -81.8173 -46.9498C-81.724 -47.1304 -81.3222 -46.8284 -81.5076 -46.5768ZM51.0927 161.226C50.8104 160.759 50.7897 160.724 51.0015 160.768C51.0461 160.783 51.0853 160.809 51.1156 160.844C51.146 160.878 51.1665 160.92 51.1755 160.965C51.1845 161.01 51.1817 161.058 51.1673 161.103C51.1529 161.149 51.1272 161.191 51.0927 161.226ZM14.2476 113.797C14.8837 113.258 14.7301 113.646 14.3906 113.866C14.3659 113.881 14.293 113.816 14.2476 113.797ZM-51.9493 -58.2989C-52.4116 -58.5334 -52.4709 -58.7153 -52.4107 -59.0624L-51.9493 -58.2989ZM-50.357 -61.2472C-50.4928 -60.8857 -50.6852 -60.7853 -51.0361 -60.9471C-50.7832 -61.1149 -50.6266 -61.3024 -50.313 -61.2581L-50.357 -61.2472ZM-6.10209 82.4687C-6.33583 82.5006 -6.27525 82.573 -6.36772 82.2245C-6.03911 82.1821 -6.09972 82.1098 -6.05813 82.4577L-6.10209 82.4687ZM-48.16 -33.5206C-48.4723 -33.6745 -48.651 -33.6912 -48.3803 -33.8853C-48.1096 -34.0794 -47.9295 -34.0324 -48.116 -33.5315L-48.16 -33.5206ZM-47.9258 -33.1332C-47.5997 -32.9565 -47.4703 -32.7702 -47.5264 -32.4722C-47.6348 -32.5498 -47.722 -32.6512 -47.7813 -32.7687C-47.8407 -32.8863 -47.8708 -33.0171 -47.8695 -33.1515L-47.9258 -33.1332ZM49.4109 140.075C49.4851 140.03 49.4683 139.807 49.5426 139.762C49.915 139.569 50.0027 140.635 49.4672 140.056L49.4109 140.075ZM20.3967 168.162C20.2545 168.931 19.7603 168.421 19.9953 168.279C20.2303 168.138 20.284 168.199 20.4531 168.144L20.3967 168.162ZM12.5066 81.3813C13.1185 81.2771 13.1682 81.5269 13.2414 81.8714L12.5066 81.3813ZM19.7096 167.192C19.597 167.369 19.6919 167.358 19.3535 167.329C19.4234 167.054 19.3285 167.064 19.6669 167.234L19.7096 167.192ZM11.3924 185.226C11.2291 185.542 11.3349 185.493 10.9719 185.479C11.1228 185.17 10.9827 185.301 11.3498 185.267L11.3924 185.226ZM63.6611 166.418C63.1977 166.433 63.3762 166.17 63.5302 166.202C63.6842 166.233 63.6816 166.313 63.6185 166.459L63.6611 166.418ZM-116.243 16.2901C-116.35 16.2474 -116.438 16.1732 -116.496 16.0774C-116.554 15.9816 -116.579 15.8689 -116.566 15.7545C-116.457 15.7935 -116.366 15.867 -116.307 15.9636C-116.249 16.0603 -116.226 16.1749 -116.243 16.2901ZM-112.216 26.6103C-112.078 26.8382 -111.839 26.9272 -111.889 27.3462C-112.086 27.0762 -112.295 26.9535 -112.216 26.6103ZM-114.348 25.8737C-114.23 25.9504 -114.14 26.0599 -114.089 26.189C-114.038 26.3182 -114.028 26.4615 -114.06 26.6017C-114.225 26.3282 -114.488 26.2843 -114.384 25.9263L-114.348 25.8737ZM62.955 165.724C62.7966 165.462 63.2569 165.107 63.2163 165.738L62.955 165.724ZM-89.7375 76.1162C-90.0332 76.0456 -89.7957 75.685 -89.647 75.8752C-89.4983 76.0654 -89.6069 76.0531 -89.7375 76.1162ZM20.0281 94.8041C19.6251 94.7515 19.2357 94.5818 19.5958 94.396C19.9559 94.2103 19.9191 94.5122 20.0281 94.8041ZM-106.3 50.217L-106.177 50.1425C-106.089 50.6496 -106.052 50.6273 -106.3 50.217ZM-11.8 31.1113C-12.1167 30.7269 -11.8377 30.4346 -11.6119 30.7804C-11.386 31.1262 -12.0159 31.1169 -11.8 31.1113ZM-8.38576 36.4537C-8.46377 36.8271 -8.75021 36.4089 -8.53727 36.203L-8.38576 36.4537ZM-17.3737 21.0231C-17.7632 20.7136 -17.5312 20.232 -17.2861 20.5817C-17.2117 20.6768 -17.1305 20.7834 -17.3737 21.0231ZM-15.2594 24.5216C-15.5471 24.213 -15.7452 24.0525 -15.6452 23.7436C-15.3714 23.8895 -15.3409 24.1354 -15.2841 24.5364L-15.2594 24.5216ZM-28.6704 -78.876C-28.5392 -79.7477 -26.28 -78.4658 -26.5041 -79.8696C-26.563 -79.6321 -24.0709 -79.221 -23.8743 -79.2306C-25.0847 -80.9264 -26.3524 -80.8469 -26.0012 -81.6335C-20.8189 -76.6874 -22.5154 -80.3598 -21.6011 -79.154C-19.007 -75.7269 -17.3367 -76.313 -18.3357 -77.017C-19.0651 -77.5259 -19.0976 -78.5011 -19.772 -79.0587C-20.4464 -79.6162 -19.5703 -79.5065 -19.4068 -79.6827C-20.6796 -80.7931 -21.8519 -82.0049 -22.9129 -83.3067C-21.7655 -84.1997 -13.7897 -72.9002 -13.6136 -72.8042C-18.051 -91.0061 40.9511 20.4996 41.1327 20.5767C41.5916 20.1916 40.623 19.7335 41.47 19.6275C41.6914 19.603 42.5659 20.9105 41.899 20.9235C38.7939 20.866 86.6879 98.9446 128.586 147.03C131.715 150.617 132.698 156.988 102.664 119.462C102.245 118.937 100.874 118.566 103.787 122.158C90.4379 118.633 -28.7486 -78.6424 -28.6704 -78.876ZM21.7056 14.4477C21.7903 13.9459 2.06051 -23.3353 2.14147 -23.5084C2.78782 -26.2912 -29.0839 -69.9852 -29.7775 -71.9145C-29.4409 -69.4593 -18.3339 -55.3514 -18.2196 -55.2182C-13.4176 -49.5612 21.8734 14.502 21.6561 14.4774L21.7056 14.4477ZM1.43349 -23.2841C0.153362 -24.5649 0.338786 -24.8165 -4.0006 -32.6948C-1.90233 -29.7304 -0.100158 -26.5708 1.38404 -23.2544L1.43349 -23.2841ZM35.8514 47.9883C35.584 48.8021 42.8863 57.5075 41.5812 57.4696C40.653 57.469 43.7331 58.6296 44.3198 60.9962C43.881 60.8564 43.7994 60.3304 43.1035 60.2676C53.4484 77.3889 65.023 93.7437 77.7499 109.223C77.5706 108.647 49.6976 69.0575 47.6183 64.6676C46.724 62.797 48.4404 64.4367 47.6594 63.0885C47.5285 62.872 47.3288 62.5416 47.0513 62.8641C46.6049 63.3816 46.5358 62.988 46.3774 62.7259C29.0394 34.3715 35.7965 48.0369 35.8019 48.0181L35.8514 47.9883ZM44.7473 62.1222C45.1205 62.2663 45.4506 62.4897 45.7143 62.7766C45.978 63.0634 46.169 63.407 46.2739 63.783C45.9332 64.1125 45.9124 63.9385 44.7349 62.1296L44.7473 62.1222ZM47.1844 65.3174C47.7639 65.8855 48.2442 66.2336 47.8007 66.9513C47.2805 66.5652 47.2759 66.055 47.1212 65.3244L47.1844 65.3174ZM49.9596 69.7701C49.5412 69.3848 49.5412 69.3848 49.6041 68.9584C49.8793 69.1347 49.8383 69.4857 49.8964 69.7771L49.9596 69.7701ZM-75.6999 127.037C-54.4512 160.746 -56.387 161.227 -57.4276 158.807C-58.2669 156.888 -76.7045 127.58 -75.715 126.984L-75.6999 127.037ZM-22.234 209.003C-22.0485 208.891 -21.8545 208.961 -21.8969 209.142C-23.1136 213.745 -0.32598 235.01 -23.8355 208.195C-25.2945 206.311 -26.5414 204.276 -27.5571 202.121C-27.029 202.13 -22.3605 209.017 -22.2354 208.973L-22.234 209.003ZM-116.835 52.2707C-116.551 52.908 -117.106 53.1336 -117.342 52.5761C-117.577 52.0186 -123.207 42.2284 -123.255 42.1486C-146.028 3.68451 -122.016 41.1846 -116.835 52.2707ZM-37.1875 189.145C-36.2924 187.611 -42.9152 183.268 -30.6229 198.667C-21.9957 209.481 -36.316 188.744 -37.1806 189.156L-37.1875 189.145ZM-30.1549 197.655C-30.1722 198.24 -30.7627 197.71 -30.5332 197.587C-30.3037 197.465 -30.2376 197.518 -30.148 197.666L-30.1549 197.655ZM-73.5679 110.661C-74.5891 108.385 -79.9661 99.7945 -79.417 98.7489C-79.3375 99.9134 -78.5656 98.8735 -78.4593 99.3846C-78.3195 100.082 -77.992 100.72 -77.5086 101.237C-77.2677 101.496 -78.0922 102.086 -77.3633 102.175C-76.6344 102.265 -77.3072 103.245 -76.6264 103.394C-76.5301 103.406 -76.4392 103.439 -76.3598 103.489C-76.2805 103.539 -76.2147 103.606 -76.1669 103.685C-76.1192 103.764 -76.0905 103.853 -76.0831 103.947C-76.0756 104.04 -76.0894 104.136 -76.1236 104.226C-76.5539 105.775 -74.6863 104.651 -74.9283 106.009C-75.1704 107.367 -73.3375 108.641 -73.3496 108.928C-73.3649 109.342 -73.2935 109.748 -73.1396 110.122C-72.9856 110.497 -72.7523 110.833 -72.4536 111.109C-73.1887 111.707 -73.3846 111.048 -73.561 110.672L-73.5679 110.661ZM-47.9917 172.523C-47.2831 172.998 -39.2312 186.07 -37.8825 185.677C-38.9946 186.098 -38.1138 186.858 -38.6124 187.485C-41.9352 181.372 -48.8727 172.991 -48.0467 172.572L-47.9917 172.523ZM-72.5171 107.961C-75.4987 103.319 -78.1711 98.4867 -80.5195 93.491C-79.3449 95.0996 -72.4217 107.142 -72.5171 107.961ZM55.6656 149.084C58.7424 152.501 57.0781 150.752 57.9224 150.725C69.3615 169.653 55.5048 149.181 55.6587 149.073L55.6656 149.084ZM-86.1135 86.5236C-86.6948 86.8737 -87.7201 84.6467 -88.304 83.8481C-90.0239 81.4488 -88.3702 80.7795 -88.0459 82.0141C-87.5642 83.7602 -85.2628 85.9492 -86.1135 86.5236ZM-74.1502 -71.586C-75.1875 -72.0183 -76.3564 -79.1169 -77.1312 -81.1527C-76.3226 -81.1267 -73.9232 -71.4895 -74.1502 -71.586ZM27.6886 25.5483C24.6004 21.6105 25.9761 20.8442 25.0932 20.7232C24.2102 20.6021 24.416 20.1051 24.3055 19.6432C24.086 18.7495 25.3166 20.0601 25.4611 20.1596C26.6582 20.8843 25.6962 22.8935 27.3688 23.3162C27.5036 23.3439 27.1977 24.1498 27.3724 24.2156C28.1304 24.5207 27.9435 25.9699 27.6886 25.5483ZM-72.1986 111.67C-71.3602 111.243 -71.2665 114.218 -69.5572 115.706C-69.4745 115.843 -68.9674 116.905 -69.3261 117.121C-69.6848 117.337 -73.0178 112.101 -72.2234 111.685L-72.1986 111.67ZM-92.762 -69.4709C-91.4046 -66.9657 -90.3594 -64.2996 -89.6464 -61.524C-91.1794 -64.0047 -91.7309 -66.8434 -92.762 -69.4709ZM-84.8686 85.5408C-82.0174 90.2587 -83.4089 87.6771 -82.6555 87.4721C-82.3792 87.399 -82.0976 88.3952 -82.4166 88.5095C-83.6771 89.0199 -82.3075 88.9412 -81.737 91.5042C-85.6488 85.0314 -85.3524 85.801 -84.8824 85.518L-84.8686 85.5408ZM-132.786 18.7293C-131.182 22.1931 -129.582 25.4264 -127.901 28.6264C-129.781 26.0746 -132.794 19.9157 -132.8 18.7065L-132.786 18.7293ZM-24.7626 -82.0685C-23.542 -81.2492 -18.0444 -75.8091 -27.7774 -84.0144C-26.155 -84.2609 -25.7864 -82.7576 -24.7833 -82.1027L-24.7626 -82.0685ZM-81.4576 94.6465C-79.3732 95.7228 -78.8181 100.829 -80.9402 96.34C-81.8841 94.3594 -83.7979 93.398 -81.445 93.4111C-82.8498 94.1016 -80.9301 94.0957 -81.4782 94.6124L-81.4576 94.6465ZM-54.1272 163.068C-53.6208 163.432 -53.7452 164.175 -53.1179 164.403C-52.9309 164.462 -52.9827 164.85 -53.4337 164.858C-53.3066 164.035 -54.2775 164.076 -54.5201 163.507C-54.9057 162.31 -55.561 161.226 -56.4415 160.328C-57.1888 159.705 -55.4767 159.747 -54.8957 161.852C-54.7205 162.477 -54.4475 161.785 -54.1587 161.844C-54.2566 161.919 -54.336 162.015 -54.3904 162.122C-54.4449 162.23 -54.4727 162.347 -54.4716 162.463C-54.4706 162.58 -54.4407 162.692 -54.3844 162.791C-54.3281 162.891 -54.247 162.974 -54.1479 163.034L-54.1272 163.068ZM-16.7861 -58.848C-14.5666 -55.8964 -12.5898 -52.7747 -10.8721 -49.5087C-12.8168 -52.643 -14.7452 -55.8338 -16.7861 -58.848ZM-114.503 30.3347C-115.923 28.1076 -117.194 25.7899 -118.309 23.3943C-116.865 25.6068 -115.593 27.926 -114.503 30.3347ZM-51.8971 166.87C-50.3089 168.214 -48.3565 172.059 -49.6022 170.835C-50.4212 170.038 -52.3123 166.965 -51.9095 166.878L-51.8971 166.87ZM-125.233 33.5164C-121.287 40.0462 -121.586 39.3559 -121.87 39.5272C-125.817 32.9974 -125.524 33.6763 -125.233 33.5164ZM7.66321 106.586C8.07303 108.018 5.37818 104.201 5.6281 103.833C6.03727 103.198 7.25748 105.105 7.66321 106.586ZM-72.4422 108.615C-72.5249 108.478 -72.8773 106.639 -69.9208 112.257C-71.2226 111.331 -71.6283 109.85 -72.4422 108.615ZM66.1584 152.433C65.3197 152.581 65.6118 151.752 65.2595 151.42C61.8503 148.375 63.3616 148.476 63.5145 148.756C64.6455 150.795 67.1963 152.057 66.0993 152.391L66.1584 152.433ZM-121.465 39.7802C-116.917 48.1704 -117.785 46.7346 -121.848 40.0111L-121.465 39.7802ZM-123.97 16.0938C-122.709 17.9788 -121.714 20.0279 -121.01 22.1917C-121.772 20.1484 -123.244 18.439 -123.955 16.1468L-123.97 16.0938ZM18.3596 159.208C17.6767 159.697 17.7191 158.148 15.8735 156.602C15.9773 156.458 16.1107 156.336 16.2644 156.244C16.4182 156.151 16.5887 156.09 16.7641 156.065C17.1204 157.576 18.7664 158.932 18.3473 159.215L18.3596 159.208ZM-25.8504 -73.7353C-27.1264 -74.9253 -27.7745 -76.6955 -29.9667 -76.9453C-28.6415 -77.4324 -25.3469 -74.9399 -25.849 -73.705L-25.8504 -73.7353ZM-83.0839 90.8387C-82.3382 91.2911 -83.5225 92.3462 -83.501 91.8514C-83.4795 91.3567 -84.5702 91.143 -84.1897 90.7119C-83.2087 89.7948 -84.2439 90.0917 -84.6511 89.9483C-83.3982 88.7276 -83.2587 90.773 -83.0825 90.869L-83.0839 90.8387ZM27.8793 98.2207C28.6219 99.4628 29.4565 100.648 30.3772 101.768C29.4517 101.688 27.919 99.4868 27.8807 98.2509L27.8793 98.2207ZM45.3936 163.492C45.0343 163.149 45.5593 162.817 45.8512 163.216C46.6389 164.296 48.4299 164.943 47.9231 165.528C47.5765 165.457 48.0307 165.93 45.4568 163.485L45.3936 163.492ZM24.2637 19.0156C23.6396 19.267 24.1574 18.6444 23.6757 18.2661C22.8445 17.6164 22.8347 17.4047 23.7416 16.6721C23.8016 17.553 24.9812 18.7234 24.2637 19.0156ZM-66.1883 122.537C-66.8067 122.909 -66.779 121.727 -67.3532 121C-67.9273 120.274 -67.4268 120.236 -66.9264 120.059C-66.8096 121.341 -65.699 122.258 -66.1883 122.537ZM-10.7379 -38.8183C-9.69436 -37.5623 -8.79975 -36.1943 -8.06888 -34.7369C-8.9667 -35.9992 -10.3017 -37.0915 -10.7379 -38.8183ZM41.8219 158.866C42.0903 157.663 40.8096 157.191 40.418 156.152C40.9284 156.327 43.2832 158.297 41.8219 158.866ZM-11.6147 205.22L-9.02457 208.836C-10.2004 207.875 -11.0901 206.633 -11.6147 205.22ZM-22.7373 -65.4294L-25.5047 -68.892C-24.29 -67.9885 -23.3407 -66.8008 -22.7373 -65.4294ZM-69.2569 117.655C-68.9566 116.728 -67.8508 118.362 -67.933 118.645C-68.2981 119.409 -67.5655 119.03 -67.3521 119.243C-67.9966 119.74 -69.4008 118.114 -69.2569 117.655ZM59.0478 144.296C63.6229 148.489 61.4061 148.394 59.0478 144.296V144.296ZM-75.7026 126.976C-76.5286 126.522 -77.1528 125.804 -77.4758 124.935C-77.403 123.493 -75.5074 126.936 -75.7026 126.976ZM59.0205 144.391C58.0341 143.625 57.2345 142.663 56.6703 141.563C57.0502 141.94 59.3634 143.562 59.0205 144.391ZM-59.0619 -58.6787C-60.0507 -59.9671 -60.7036 -61.4771 -60.9708 -63.0935C-60.4124 -61.6113 -59.7097 -60.1693 -59.0619 -58.6787ZM39.7255 156.709C38.9066 157.42 36.3871 151.492 39.4499 156.113C39.3896 156.321 40.1583 156.309 39.7118 156.686L39.7255 156.709ZM-78.9987 121.578C-78.5368 121.897 -78.1701 122.325 -77.9299 122.824C-77.6897 123.324 -77.5832 123.88 -77.6193 124.447C-78.2346 123.565 -78.7041 122.59 -79.0124 121.555L-78.9987 121.578ZM-28.9771 -73.2979C-28.0312 -72.0957 -26.6814 -71.2299 -26.1092 -69.7248C-29.5866 -73.5526 -29.2849 -73.0815 -28.9909 -73.3207L-28.9771 -73.2979ZM-71.3126 133.208C-70.4052 134.402 -70.1108 135.95 -69.0055 137.025C-70.041 135.919 -70.8292 134.615 -71.3264 133.185L-71.3126 133.208ZM44.9127 25.9942C44.469 25.0646 43.3326 24.5521 43.367 23.1014C44.1607 23.8798 44.6919 24.875 44.8989 25.9714L44.9127 25.9942ZM28.9531 172.662C27.9974 171.248 30.6789 172.726 30.2991 173.856C29.9548 173.286 29.1943 173.2 28.8775 172.676L28.9531 172.662ZM20.2371 161.031C20.4781 161.43 20.1719 161.816 19.7768 161.386C17.0773 158.426 19.5304 159.778 20.1615 161.045L20.2371 161.031ZM-26.5399 -79.817C-27.1614 -79.7847 -26.4686 -78.6942 -28.8081 -81.9793C-28.8839 -82.1047 -28.8869 -82.3049 -28.5061 -82.4565C-28.1305 -81.4011 -27.4499 -80.4874 -26.5399 -79.817ZM21.6699 14.5002C22.3343 14.7063 22.9025 16.4003 22.6399 16.4962C22.0584 16.7065 21.4106 15.2159 21.7083 14.5082L21.6699 14.5002ZM-117.365 -20.4613C-117.251 -19.2906 -117.213 -18.1092 -117.251 -16.9237C-117.016 -16.9254 -118.254 -18.527 -117.365 -20.4613ZM45.6198 27.6667C45.7524 26.8252 46.6959 28.3864 47.1187 29.0023C46.7446 28.9541 46.4014 28.7995 46.1323 28.5578C45.8632 28.3162 45.6802 27.9982 45.606 27.6439L45.6198 27.6667ZM66.9724 169.273C67.3384 169.488 67.3015 171.018 65.5522 168.124C66.3266 168.372 66.4633 168.989 66.9587 169.251L66.9724 169.273ZM-3.30424 210.038C-4.16379 209.336 -4.78596 208.403 -5.10139 207.344C-4.49817 208.286 -3.80429 209.127 -3.28356 210.072L-3.30424 210.038ZM-122.595 14.6285C-124.295 11.1449 -124.158 11.6222 -123.86 11.4737C-122.075 15.0147 -122.202 14.4694 -122.574 14.6626L-122.595 14.6285ZM-115.469 55.5359C-114.723 56.1702 -114.209 57.02 -113.995 57.9746L-115.469 55.5359ZM-34.8046 -75.8504C-35.7004 -76.5093 -36.7967 -76.8868 -37.9576 -76.936C-37.3494 -77.1521 -36.6962 -77.1582 -36.1149 -76.953C-35.5335 -76.7479 -35.0617 -76.345 -34.784 -75.8162L-34.8046 -75.8504ZM-84.072 85.8538C-84.2442 85.5689 -83.9826 84.4944 -83.2383 86.2843C-82.5446 86.9857 -82.6689 87.7289 -84.0514 85.888L-84.072 85.8538ZM-47.7522 171.384C-49.5931 168.98 -49.7017 168.968 -49.3637 168.717C-49.0257 168.467 -47.4827 171.299 -47.781 171.448L-47.7522 171.384ZM-20.1481 -61.4242L-21.9869 -64.4668C-21.0375 -63.6906 -20.3932 -62.6245 -20.1481 -61.4242ZM32.2777 190.446C31.8943 190.677 29.2594 187.74 32.196 189.78C32.265 190.034 32.5608 190.244 32.2777 190.446ZM32.4174 42.0827C32.0568 41.7092 32.4937 41.3995 32.9245 41.7773C33.0483 41.8426 34.7823 44.5443 32.4174 42.0827ZM64.0561 147.14C63.9942 147.038 64.0488 146.709 64.1507 146.85C64.5362 147.348 64.9988 146.495 64.8794 146.66C64.4962 147.171 66.0059 149.696 64.0561 147.14ZM-14.9026 -53.6097C-14.0131 -52.7824 -13.3013 -51.7938 -12.8026 -50.6932L-14.9026 -53.6097ZM-49.9155 168.335C-50.5039 167.655 -50.9383 166.86 -51.1939 165.996C-50.782 166.789 -49.8587 167.368 -49.9155 168.335ZM-78.9565 119.61C-76.8905 123.029 -78.4401 120.465 -79.4256 120.872C-79.0451 120.44 -78.6728 120.107 -78.9565 119.61ZM-120.498 22.9557C-120.246 24.1254 -119.218 24.9052 -119.023 26.0934C-119.733 25.1611 -120.215 24.0783 -120.436 22.9184L-120.498 22.9557ZM-59.2892 -57.687C-58.2327 -57.2507 -57.2078 -55.4432 -58.1558 -56.0069C-58.3874 -56.6135 -59.0946 -56.9182 -59.2274 -57.7242L-59.2892 -57.687ZM47.4493 31.0569C47.222 30.6808 47.3042 30.2583 47.0204 29.7609C48.2761 29.9684 48.2326 31.9064 47.4493 31.0569ZM-124.964 7.69319C-125.564 6.88148 -126.013 5.96965 -126.291 4.99504C-125.675 5.77616 -125.233 6.67749 -124.992 7.6476L-124.964 7.69319ZM38.8795 153.55L40.4053 155.74C39.6016 155.227 39.0477 154.43 38.852 153.505L38.8795 153.55ZM66.1475 152.471C66.5995 153.442 67.7344 153.925 68.0517 155.008C67.9099 154.829 65.3881 152.136 66.1199 152.425L66.1475 152.471ZM-118.957 22.0435C-119.266 21.2813 -120.152 20.8201 -119.988 19.8354C-119.707 20.552 -118.981 21.11 -119.009 22.0128L-118.957 22.0435ZM-84.1364 111.43C-83.1877 112.692 -83.1876 112.832 -84.3494 113.003C-83.5937 112.439 -84.5306 111.978 -84.175 111.422L-84.1364 111.43ZM27.2294 132.542C27.5949 132.717 27.9032 132.979 28.1269 133.305C28.3506 133.632 28.4827 134.012 28.5114 134.412L27.2294 132.542ZM52.8986 136.187C53.3275 137.483 55.7548 140.466 52.6017 136.366L52.8986 136.187ZM-81.4332 91.4766L-80.4728 93.4007C-81.4952 92.7418 -81.673 92.336 -81.4717 91.4688L-81.4332 91.4766ZM34.8545 193.091C35.8062 193.186 35.7232 193.997 36.0619 194.446C35.7435 194.347 35.4622 194.17 35.2443 193.932C35.0264 193.693 34.8791 193.401 34.816 193.083L34.8545 193.091ZM24.8276 166.924C25.3226 167.427 25.7176 168.014 25.9953 168.661C25.6303 168.527 25.3217 168.291 25.1074 167.981C24.893 167.671 24.7824 167.301 24.7891 166.916L24.8276 166.924ZM51.3299 133.759C51.4106 134.674 52.1701 135.149 52.516 135.889C52.1462 135.66 51.843 135.348 51.6305 134.977C51.418 134.606 51.3018 134.186 51.2914 133.751L51.3299 133.759ZM62.1585 144.335L60.8739 142.684C61.4421 143.01 62.1259 143.36 62.0855 144.27L62.1585 144.335ZM-129.728 11.0595C-129.987 10.1664 -130.346 9.30951 -130.801 8.50343C-130.464 8.82022 -130.201 9.20297 -130.027 9.62941C-129.853 10.0559 -129.772 10.5175 -129.789 10.9872L-129.728 11.0595ZM-51.8173 166.946C-52.6854 166.599 -52.2725 165.495 -52.9674 165.043C-52.0165 165.807 -51.6482 166.891 -51.8778 166.874L-51.8173 166.946ZM-85.7681 88.2118C-86.4567 87.0723 -83.8285 87.4014 -85.0792 88.1234C-85.3763 88.0226 -85.6083 88.5042 -85.8287 88.1395L-85.7681 88.2118ZM49.4298 131.312C50.0754 131.902 50.5636 132.633 50.858 133.452C50.6293 133.046 49.2364 131.802 49.4298 131.312ZM-115.652 54.8693C-115.868 54.7682 -116.051 54.6165 -116.186 54.4271C-116.321 54.2377 -116.404 54.0163 -116.427 53.7819C-115.832 53.874 -115.819 54.4258 -115.652 54.8693ZM-125.402 33.1522C-125.91 32.6577 -126.222 32.0044 -126.29 31.293C-125.796 31.8041 -125.506 32.4714 -125.464 33.1895L-125.402 33.1522ZM68.1069 152.364C68.6505 152.705 69.2791 152.963 69.3432 153.795C68.5138 153.595 68.601 152.734 68.0698 152.386L68.1069 152.364ZM31.675 40.8822C31.2205 40.1301 32.0576 39.8125 32.2176 40.2446C32.5569 41.2527 31.8804 41.3336 31.638 40.9045L31.675 40.8822ZM36.7675 111.644C36.1028 111.026 35.6283 110.24 35.3902 109.365L36.7675 111.644ZM20.9607 162.647C20.602 162.863 20.6783 162.179 20.311 162.074C19.9437 161.969 20.7268 161.171 20.9132 161.898C20.9822 162.152 21.384 162.454 20.9607 162.647ZM-127.146 29.57C-126.282 31.3346 -126.363 31.0883 -126.518 31.1663C-127.538 29.4797 -127.486 29.7598 -127.159 29.5473L-127.146 29.57ZM-108.047 -17.7724L-107.659 -15.9856C-107.921 -16.1933 -108.101 -16.4807 -108.173 -16.806C-108.245 -17.1314 -108.206 -17.4779 -108.061 -17.7952L-108.047 -17.7724ZM24.213 92.3773C25.0783 92.8043 25.1189 93.5414 25.5154 94.0021C24.6888 93.8626 24.6675 93.1294 24.213 92.3773ZM-12.2288 -48.8783L-11.0253 -47.1938C-11.3769 -47.3438 -11.6754 -47.5821 -11.8912 -47.8854C-12.1071 -48.1887 -12.2329 -48.5466 -12.2563 -48.9238L-12.2288 -48.8783ZM-7.90267 -41.9711C-7.7305 -41.6862 -7.07299 -41.4915 -7.44814 -41.219C-8.35515 -40.6262 -8.63173 -43.5682 -7.97975 -41.9869L-7.90267 -41.9711ZM102.397 140.963C102.966 141.37 103.39 141.935 103.617 142.591C103.048 142.183 102.625 141.618 102.397 140.963ZM-23.3053 189.225C-23.703 189.014 -23.0866 189.28 -23.4027 188.087C-22.5997 187.992 -22.623 189.544 -23.3398 189.168L-23.3053 189.225ZM-54.3681 -37.1495C-54.1291 -36.9223 -53.9457 -36.6461 -53.8296 -36.3387C-53.7135 -36.0312 -53.6673 -35.6993 -53.694 -35.364L-54.3681 -37.1495ZM36.3964 194.804C36.8335 195.003 37.1605 195.364 37.3077 195.81C37.0393 195.505 36.2501 195.623 36.3964 194.804ZM20.3296 88.1567C20.1559 87.7018 19.3459 87.7854 19.4482 86.8379C19.8365 87.3967 20.3785 87.5677 20.3296 88.1567ZM1.93466 98.3633C1.60268 97.8813 1.39821 97.3231 1.33762 96.7334C1.58694 97.1738 2.25965 97.4216 1.93466 98.3633ZM-32.1571 6.33122L-31.2973 8.00504C-32.1171 7.73713 -31.876 6.90801 -32.1571 6.33122ZM8.10398 3.16303C8.12648 3.18787 8.14263 3.2176 8.15124 3.25007C8.15984 3.28255 8.1607 3.31698 8.15376 3.35087C8.14684 3.38475 8.13227 3.41726 8.11112 3.44608C8.08998 3.4749 8.06279 3.49933 8.03148 3.51756C8.03148 3.51756 7.78803 3.47764 7.78114 3.46625C8.11741 1.39861 6.30929 1.61701 8.10398 3.16303ZM49.4161 131.29C48.7392 130.905 48.1612 130.386 47.7176 129.763C49.1549 130.048 49.2926 131.644 49.4161 131.29ZM-9.75225 -47.5719C-9.50762 -47.4227 -9.31004 -47.2144 -9.17748 -46.9658C-9.04491 -46.7172 -8.98157 -46.4362 -8.99316 -46.1483C-9.23574 -46.7172 -9.77096 -47.0166 -9.7798 -47.6175L-9.75225 -47.5719ZM61.7726 147.661C62.9229 146.968 63.4453 149.591 61.7726 147.661V147.661ZM39.0928 38.3893L39.6384 39.4596C38.7168 39.1908 38.681 39.1036 39.0158 38.3735L39.0928 38.3893ZM42.5714 122.309C43.0246 122.877 43.4015 123.501 43.694 124.166L42.5714 122.309ZM49.4652 143.57C49.8362 143.347 50.8527 144.973 50.3188 144.703C49.785 144.434 49.325 143.701 49.4253 143.532L49.4652 143.57ZM27.0915 132.174C26.7747 131.65 26.1253 131.357 26.1549 130.625C26.5716 131.028 26.8703 131.532 27.024 132.091L27.0915 132.174ZM-5.80262 -40.2826C-5.94778 -41.0811 -6.60837 -41.6159 -6.85684 -42.5854C-5.42297 -40.1848 -5.51687 -40.5634 -5.87008 -40.3663L-5.80262 -40.2826ZM-73.6651 129.371L-74.4915 128.003C-74.0738 128.311 -73.7957 128.762 -73.7078 129.272L-73.6651 129.371ZM27.2797 170.032C27.0448 170 26.83 169.901 26.6622 169.748C26.4945 169.594 26.3813 169.393 26.3369 169.17C26.6392 168.972 26.4054 168.865 27.2797 170.032ZM100.439 138.505C100.709 138.616 100.939 138.795 101.105 139.026C101.27 139.256 101.367 139.529 101.384 139.816C100.944 139.48 100.599 139.044 100.378 138.542L100.439 138.505ZM-120.044 22.5894C-120.574 22.2711 -120.568 21.7233 -120.675 21.182C-120.477 21.358 -120.325 21.5765 -120.229 21.8221C-120.133 22.0678 -120.095 22.3347 -120.12 22.6038L-120.044 22.5894ZM-58.1931 -58.9998C-58.216 -59.903 -59.1914 -60.3726 -59.1332 -61.3091C-59.5471 -61.3241 -58.2644 -60.1226 -58.2687 -58.9854L-58.1931 -58.9998ZM-9.72988 -44.3524C-10.061 -44.7325 -10.3025 -45.1796 -10.4394 -45.666C-10.3038 -45.6253 -10.1797 -45.5586 -10.0745 -45.4697C-9.96919 -45.3809 -9.88466 -45.2717 -9.82578 -45.1484C-9.76689 -45.025 -9.73484 -44.8899 -9.73136 -44.7509C-9.72786 -44.6118 -9.75304 -44.4715 -9.80548 -44.338L-9.72988 -44.3524ZM32.4643 175.987C32.763 176.258 31.3947 176.227 31.5683 175.175C32.0978 175.213 32.0969 175.742 32.3887 176.002L32.4643 175.987ZM-4.81494 -38.5925L-5.60693 -39.903C-4.81435 -39.4011 -4.81436 -39.4011 -4.81494 -38.5925ZM35.1808 108.963C34.7061 108.736 34.1477 108.621 34.2691 107.678L35.1808 108.963ZM48.1569 31.781C48.2266 31.3659 49.0876 31.5624 48.7009 32.6812C48.4956 32.2298 48.138 32.1964 48.1569 31.781ZM37.876 37.1015C37.0014 35.6542 37.1116 35.8366 37.2545 35.766C38.1236 37.2321 38.0065 37.0384 37.8265 37.1313L37.876 37.1015ZM-60.484 -64.5213L-61.191 -66.054C-60.9434 -65.8862 -60.7487 -65.6576 -60.6251 -65.3895C-60.5014 -65.1215 -60.4529 -64.8227 -60.484 -64.5213ZM48.9267 65.3251C48.6995 64.9491 48.1204 64.8004 48.1156 64.1505C48.3272 64.2822 48.5052 64.4565 48.6383 64.6624C48.7715 64.8684 48.857 65.1016 48.8896 65.3475L48.9267 65.3251ZM8.3157 -12.3985L7.57362 -13.3194C8.46333 -13.3267 8.37718 -12.8552 8.27864 -12.3762L8.3157 -12.3985ZM-40.456 -76.6594C-39.8739 -76.2837 -39.4486 -75.727 -39.2443 -75.0732C-39.5625 -75.6277 -40.2489 -75.8982 -40.493 -76.6371L-40.456 -76.6594ZM98.9623 136.814C99.2447 137.281 99.9571 137.427 100.054 138.146C99.5136 137.868 99.122 137.39 98.9623 136.814ZM-84.8185 88.9456C-84.4598 88.7296 -83.9508 88.8739 -84.9359 89.84C-84.8715 89.5837 -85.2762 89.2212 -84.8185 88.9456ZM-123.713 42.4242C-123.446 42.6986 -123.048 42.9099 -123.218 43.4941C-123.396 43.3815 -123.536 43.2228 -123.623 43.0347C-123.71 42.8465 -123.741 42.6357 -123.713 42.4242ZM-12.9691 -49.3495C-13.7338 -50.894 -13.7473 -50.6373 -13.4559 -50.7972C-12.6265 -49.2294 -12.6076 -49.505 -12.9484 -49.3153L-12.9691 -49.3495ZM84.2713 159.012C83.9163 158.759 83.4212 158.638 83.3558 157.916C83.6006 158.011 83.8134 158.164 83.9764 158.361C84.1394 158.557 84.2476 158.792 84.292 159.046L84.2713 159.012ZM25.2485 129.041C25.5442 129.112 25.4795 130.456 24.4668 128.362C25.1323 128.318 24.8647 128.992 25.2691 129.075L25.2485 129.041ZM-3.46912 -26.3159C-3.67689 -26.4529 -3.8496 -26.632 -3.97645 -26.8419C-4.1033 -27.0518 -4.18149 -27.2879 -4.20599 -27.5352C-3.53739 -27.2384 -3.62076 -26.7064 -3.46912 -26.3159ZM-10.1386 -46.1735C-11.3163 -48.1221 -11.1992 -47.9284 -11.1126 -47.9806C-9.91432 -45.9977 -10.0026 -46.2554 -10.1386 -46.1735ZM68.0643 153.773C68.5405 154.17 69.158 154.186 69.0816 154.87C68.9326 154.4 68.2835 154.387 68.0643 153.773ZM71.5808 172.405C71.5808 172.405 71.6371 172.246 71.688 172.247C72.2558 172.154 72.1341 172.818 72.4794 172.998C72.1835 172.788 71.6844 172.855 71.6056 172.39L71.5808 172.405ZM-98.8322 -24.6892C-98.9148 -24.826 -98.1687 -28.1974 -98.8322 -24.6892V-24.6892ZM33.9279 44.0797C33.6114 43.8351 34.2256 43.3719 34.4833 43.9938C34.566 44.1306 34.6624 44.2901 34.4274 44.4316C34.1924 44.5732 34.0807 44.2208 33.9155 44.0871L33.9279 44.0797ZM33.0757 176.831C33.502 176.839 33.4461 177.277 33.6485 177.528C32.6859 177.47 32.7278 176.87 33.0757 176.831ZM-27.4999 -82.8293C-28.2671 -82.6471 -28.0084 -83.922 -29.2614 -84.2088C-27.9748 -84.7038 -27.9507 -82.5423 -27.4999 -82.8293ZM75.2717 125.947C75.5816 126.46 76.0578 126.857 76.3513 127.426C76.0583 127.285 75.8082 127.078 75.6209 126.822C75.4335 126.565 75.314 126.266 75.2717 125.947ZM-81.8229 116.207C-81.5288 116.107 -81.1593 117.082 -81.3074 117.451C-81.941 116.402 -82.0924 116.291 -81.8229 116.207ZM38.5644 37.9615C38.4876 38.2253 37.9981 38.2248 38.011 37.4087C38.282 37.4942 38.7248 37.4452 38.5644 37.9615ZM30.2643 29.8103C30.7344 29.5273 30.2224 29.0429 30.5892 28.7288C30.8278 29.4865 30.8278 29.4866 30.2643 29.8103ZM-2.41723 -34.8762C-2.50027 -35.4323 -3.50005 -35.4676 -3.25055 -36.2551L-2.41723 -34.8762ZM-1.44293 -32.7895C-1.69775 -33.2111 -1.64883 -33.8001 -2.12628 -34.0877C-1.7409 -33.7291 -1.34311 -33.3781 -1.47862 -32.7369L-1.44293 -32.7895ZM68.2778 111.974C67.4595 111.876 67.5921 111.034 67.105 110.675C67.5331 111.075 67.9253 111.509 68.2778 111.974ZM-26.0535 -81.6642C-27.4344 -81.9672 -28.5381 -84.2402 -26.0535 -81.6642V-81.6642ZM-115.752 -19.5517L-115.999 -18.1445C-116.175 -18.9395 -116.175 -18.9395 -115.732 -19.5175L-115.752 -19.5517ZM-51.9338 -32.5071C-52.001 -32.3112 -52.8777 -33.1199 -52.6776 -33.7378C-52.0355 -32.508 -51.6456 -33.1469 -51.9131 -32.4729L-51.9338 -32.5071ZM9.66537 -10.3047C9.9922 -9.98187 10.1947 -9.55885 10.2428 -9.09816C10.0576 -9.23134 9.9108 -9.40687 9.8141 -9.61052C9.7174 -9.81416 9.67349 -10.0402 9.68602 -10.2705L9.66537 -10.3047ZM72.82 159.939C73.6533 159.81 73.4063 160.379 73.558 160.769L72.82 159.939ZM19.949 126.497L20.8368 127.408C20.24 127.425 20.1419 126.956 19.9696 126.531L19.949 126.497ZM-122.995 -0.689034C-122.97 -1.12334 -123.518 -1.4153 -123.168 -1.95254C-123.286 -1.47749 -122.738 -1.18554 -122.995 -0.689034ZM38.6755 116.448C38.1623 116.213 38.2554 115.753 38.0694 115.445C38.2596 115.542 38.4203 115.681 38.5387 115.853C38.6571 116.025 38.7298 116.224 38.7511 116.434L38.6755 116.448ZM53.1321 162.702L53.869 163.922C53.1684 163.209 53.1684 163.209 53.2077 162.688L53.1321 162.702ZM46.0375 127.262L47.3302 128.676C47.0205 128.551 46.7472 128.361 46.5286 128.12C46.3101 127.879 46.1516 127.592 46.0637 127.278L46.0375 127.262ZM-8.6848 -45.8055L-8.03997 -44.5152C-8.26968 -44.6391 -8.4526 -44.8266 -8.56695 -45.0554C-8.6813 -45.2843 -8.72222 -45.5447 -8.6848 -45.8055ZM-124.006 42.1345C-124.525 41.9183 -124.419 41.4507 -124.53 41.1286C-124.353 41.2266 -124.209 41.3685 -124.11 41.5407C-124.012 41.7129 -123.964 41.9097 -123.969 42.1122L-124.006 42.1345ZM-3.65987 -28.7811C-3.44638 -28.4278 -2.83975 -28.2336 -3.00408 -27.5285L-3.65987 -28.7811ZM63.5533 146.169C63.2876 145.924 62.8378 145.822 62.9954 145.245C63.154 145.647 63.693 145.618 63.6111 146.18L63.5533 146.169ZM27.6241 170.602C28.3538 170.163 28.0406 171.905 27.6671 170.98C27.5735 170.881 27.308 170.777 27.6241 170.602ZM13.2666 -2.1684C13.4196 -2.08546 13.5303 -1.94787 13.5769 -1.78296C13.6234 -1.61804 13.6023 -1.4379 13.5178 -1.27829C13.3401 -1.54434 12.9068 -1.70303 13.2666 -2.1684ZM-45.7855 174.443C-45.9681 174.361 -46.1113 174.219 -46.1913 174.041C-46.2713 173.863 -46.2832 173.659 -46.2251 173.464C-45.881 173.754 -45.6677 173.968 -45.7855 174.443ZM-82.9292 115.521C-83.0922 115.443 -83.2267 115.323 -83.3178 115.172C-83.409 115.021 -83.4532 114.846 -83.4457 114.666C-83.3476 114.68 -83.2552 114.714 -83.1745 114.766C-83.0939 114.818 -83.027 114.887 -82.9781 114.967C-82.9293 115.048 -82.8996 115.139 -82.8912 115.235C-82.8827 115.33 -82.8957 115.428 -82.9292 115.521ZM-83.1762 92.1377C-83.102 92.093 -82.9232 92.1097 -82.7898 92.1071C-83.0814 93.495 -83.3204 92.3178 -83.1762 92.1377ZM-20.4209 -60.5916C-20.598 -60.6473 -20.7487 -60.7558 -20.8523 -60.9023C-20.9559 -61.0487 -21.0073 -61.2257 -20.9993 -61.409C-20.7037 -61.4782 -20.8386 -61.6456 -20.4209 -60.5916ZM69.0272 113.325C68.601 113 68.3182 112.532 68.2284 112.003C68.5933 112.468 69.0115 112.713 69.0272 113.325ZM47.3178 162.489C47.0783 162.26 47.6899 161.876 47.8993 162.278C48.1087 162.681 47.6372 162.794 47.3178 162.489ZM33.1338 106.776C32.8862 106.645 33.7688 106.487 33.9813 107.229L33.1338 106.776ZM15.761 187.848C15.5814 187.786 15.427 187.675 15.3147 187.529C15.2024 187.382 15.1368 187.206 15.125 187.019C15.3169 187.063 15.4835 187.169 15.5986 187.319C15.7138 187.469 15.7709 187.655 15.761 187.848ZM-129.086 33.3655C-128.848 33.6714 -128.647 34.0038 -128.487 34.3569C-129.284 33.3448 -129.259 33.4697 -129.086 33.3655ZM-123.789 19.1559C-124.451 19.0103 -124.058 18.4319 -124.368 18.1987C-124.046 18.4235 -123.839 18.7672 -123.789 19.1559ZM49.4349 143.464C48.7047 143.484 49.0507 142.996 48.8701 142.53C49.9419 143.019 49.3196 143.72 49.4555 143.498L49.4349 143.464ZM-122.632 44.493C-122.326 44.7372 -122.12 45.0777 -122.046 45.4616C-122.423 45.1447 -122.855 45.0162 -122.632 44.493ZM42.8107 22.3485C42.915 22.1302 43.5202 22.2942 43.1292 23.1825C43.0367 22.8341 42.6612 22.6872 42.8478 22.3261L42.8107 22.3485ZM22.7522 165.22C22.5387 164.867 23.0267 164.698 23.2098 164.945C23.2477 164.967 23.2783 164.999 23.2987 165.037C23.3192 165.075 23.3289 165.118 23.3267 165.162C23.3247 165.206 23.3109 165.249 23.2867 165.288C23.2626 165.327 23.2289 165.36 23.1888 165.385C23.1488 165.409 23.1037 165.423 23.0579 165.426C23.0121 165.429 22.967 165.421 22.927 165.402C22.887 165.384 22.8533 165.355 22.8292 165.319C22.8051 165.284 22.7914 165.242 22.7893 165.198L22.7522 165.22ZM22.0635 164.081C21.9197 163.312 22.6421 163.81 22.2945 164.128C22.2313 164.135 22.0485 164.168 22.0278 164.133L22.0635 164.081ZM-59.5199 -62.9259C-59.6385 -63.2897 -60.1227 -63.4488 -60.2085 -64.0655L-59.5199 -62.9259ZM21.3987 163.455C21.2679 163.239 21.8011 162.809 21.9059 163.15C22.0107 163.491 21.4568 163.747 21.3699 163.519L21.3987 163.455ZM-33.3571 -62.2051C-33.8028 -62.3564 -33.9172 -62.6294 -34.0511 -63.186C-33.6534 -62.8349 -33.3177 -62.7262 -33.3571 -62.2051ZM-17.6125 -60.2155C-17.2671 -59.8951 -16.989 -59.6584 -17.1825 -59.1689C-17.1938 -59.5506 -17.7206 -59.6686 -17.6125 -60.2155ZM70.5428 171.134C70.3293 170.78 70.0378 170.8 70.1418 170.303C70.3854 170.482 70.6921 170.515 70.5428 171.134ZM32.8733 106.233C32.7401 106.144 32.6293 106.028 32.5476 105.893C32.4659 105.758 32.415 105.606 32.3982 105.447C32.5497 105.698 33.1217 105.695 32.8733 106.233ZM-109.81 38.7149C-109.662 38.8024 -109.547 38.9308 -109.478 39.0849C-109.409 39.2389 -109.388 39.412 -109.42 39.5835C-109.559 39.4884 -109.669 39.3585 -109.737 39.2064C-109.805 39.0543 -109.83 38.885 -109.81 38.7149ZM34.946 47.3834C34.0679 48.052 34.5418 46.0725 34.9871 47.1721C35.0132 47.1875 35.1082 47.3168 34.9735 47.429L34.946 47.3834ZM-26.0095 -74.6964C-24.9606 -74.9706 -25.1283 -73.5173 -25.0405 -73.8188C-25.9793 -74.7301 -25.8969 -74.873 -25.982 -74.6508L-26.0095 -74.6964ZM52.6841 147.585C53.0486 147.629 52.939 148.006 53.0836 148.246C52.3574 148.077 52.3568 147.517 52.6841 147.585ZM-124.247 9.15794C-123.559 10.2975 -123.614 10.2063 -123.72 10.2545C-124.429 9.08076 -124.396 9.24732 -124.247 9.15794ZM18.3648 191.208C18.3184 191.578 17.8509 191.642 17.7799 190.798C18.0908 190.922 18.4002 190.876 18.3648 191.208ZM-98.8391 -24.7006C-98.5596 -24.4337 -98.285 -24.8167 -97.9137 -24.7605C-98.6405 -24.1208 -98.9715 -23.7194 -98.8198 -24.6967L-98.8391 -24.7006ZM52.4136 145.183C52.983 145.26 53.081 145.589 52.9439 146.06C53.0498 146.012 52.377 145.625 52.389 145.198L52.4136 145.183ZM-37.9122 -74.1812C-38.0702 -74.2642 -38.2007 -74.3863 -38.2911 -74.5359C-38.3815 -74.6855 -38.4288 -74.8576 -38.4287 -75.0359C-38.4311 -74.6769 -37.6667 -74.7798 -37.9122 -74.1812ZM65.8296 149.461C65.872 149.28 66.2833 149.374 66.3377 150.134C65.947 149.934 65.7433 149.792 65.8296 149.461ZM-38.3941 -76.2069C-38.8685 -76.1543 -39.0214 -76.4353 -39.1704 -76.9051C-38.7535 -76.6899 -38.4371 -76.5851 -38.3941 -76.2069ZM-79.6059 98.241C-79.591 98.0144 -78.829 98.1306 -79.1654 98.6907C-79.3443 98.5342 -79.6372 98.5241 -79.6059 98.241ZM23.8728 166.488C23.7144 166.226 24.0099 166.017 24.2934 166.235C24.5769 166.453 24.0105 166.716 23.8728 166.488ZM-16.4852 -56.3403C-16.6415 -55.8731 -15.9306 -55.8971 -15.9618 -55.4742C-16.8325 -55.7425 -16.6708 -56.2286 -16.4852 -56.3403ZM31.4231 103.889C31.3611 103.787 31.2854 103.661 31.4599 103.587C32.1856 103.197 31.6765 104.281 31.3777 103.87L31.4231 103.889ZM-121.986 5.83761C-121.904 6.22373 -121.793 6.43632 -122.076 6.77768C-122.157 6.63607 -122.192 6.47166 -122.176 6.30466C-122.16 6.13767 -122.094 5.97535 -121.986 5.83761ZM0.822774 -19.1861L1.28033 -18.2337C0.776867 -18.3969 0.967679 -18.6672 0.822774 -19.1861ZM57.3832 153.35C57.0369 153.559 56.8699 152.975 57.1215 152.917C57.1838 152.88 57.2573 152.866 57.326 152.88C57.3946 152.894 57.4527 152.935 57.4874 152.992C57.5221 153.05 57.5306 153.119 57.511 153.187C57.4915 153.254 57.4455 153.313 57.3832 153.35ZM-124.965 40.3804C-125.13 40.1069 -125.436 39.9644 -125.413 39.6397C-125.181 39.8268 -124.892 40.0259 -124.965 40.3804ZM74.7503 128.546C74.4626 128.237 75.2776 127.716 75.156 128.519C74.9471 128.676 74.8261 128.671 74.7503 128.546ZM38.8659 42.536C39.1058 43.1843 38.2969 42.8786 38.6539 42.3528C38.709 42.444 38.7998 42.4825 38.8288 42.5584L38.8659 42.536ZM48.2864 141.871C48.6574 141.647 48.8698 142.25 48.8098 142.737L48.2864 141.871ZM-77.5941 122.116C-77.242 122.168 -77.1827 122.35 -77.3818 122.718C-77.5992 122.554 -77.7905 122.405 -77.5941 122.116ZM52.4293 147.163C52.0785 147.001 51.5422 146.951 51.9197 146.32L52.4293 147.163ZM-72.7315 130.72C-72.7069 130.566 -73.4217 130.778 -73.2077 130.183C-73.0791 130.215 -72.9656 130.282 -72.8809 130.378C-72.7963 130.473 -72.7444 130.592 -72.7315 130.72ZM-48.5194 171.426C-48.3783 171.486 -48.271 171.599 -48.2205 171.74C-48.1701 171.88 -48.1803 172.039 -48.2492 172.181C-48.3236 171.946 -48.816 171.885 -48.5194 171.426ZM21.4023 123.43C21.4849 123.567 21.258 123.61 21.159 123.67C20.597 124.024 20.6742 122.812 21.4023 123.43ZM-110.766 41.1247C-111.183 40.9094 -111.209 40.6145 -111.317 40.213C-111.017 40.5142 -110.724 40.6641 -110.766 41.1247ZM63.4109 159.528C63.0548 159.525 63.06 159.226 62.8452 158.983C63.6386 158.956 63.7438 159.576 63.4109 159.528ZM8.7396 -12.0321C8.87583 -11.9575 8.97464 -11.8347 9.01673 -11.6876C9.05883 -11.5405 9.04124 -11.3798 8.96732 -11.2366C8.87357 -11.4755 8.43613 -11.5851 8.7396 -12.0321ZM-87.4304 -55.1492C-87.5545 -55.4941 -87.7541 -55.6848 -87.6128 -56.0652C-87.3046 -55.8622 -87.413 -55.5949 -87.4442 -55.172L-87.4304 -55.1492ZM53.7631 166.705C53.8509 166.544 54.2071 166.547 54.1074 167.275C53.9559 167.024 53.5682 167.025 53.7493 166.683L53.7631 166.705ZM33.7505 191.906C34.5975 191.8 33.9383 192.663 33.6586 192.117C33.6503 192.075 33.7436 191.894 33.7505 191.906ZM-108.079 46.5476C-108.244 46.2741 -108.049 46.0945 -107.679 46.4C-107.309 46.7056 -107.838 46.9465 -108.079 46.5476ZM-32.5042 5.70094C-32.5819 5.68568 -32.6538 5.65354 -32.7145 5.6069C-32.7753 5.56026 -32.8235 5.50034 -32.8553 5.43151C-32.8872 5.36267 -32.9021 5.28668 -32.8988 5.2092C-32.8955 5.13173 -32.8741 5.05475 -32.8363 4.9839L-32.5042 5.70094ZM13.7727 209.096L14.3936 209.733C14.1171 209.666 13.589 209.657 13.7727 209.096ZM65.7304 149.241L65.386 148.671C65.7326 148.742 65.8457 148.985 65.6685 149.278L65.7304 149.241ZM41.8856 121.23L41.2811 120.397C41.4753 120.44 41.6398 120.554 41.7407 120.715C41.8416 120.877 41.8714 121.075 41.8237 121.267L41.8856 121.23ZM-121.854 15.3793C-121.841 15.1225 -122.182 15.1724 -122.205 14.7982C-121.963 14.9476 -121.804 15.1002 -121.854 15.3793ZM69.0528 171.767C69.4178 172.371 68.3241 171.957 68.7116 171.677C68.9095 171.558 68.9908 171.664 69.0528 171.767ZM47.9823 141.619C47.8586 141.693 47.6936 141.699 47.6618 141.563C47.4601 140.643 48.6832 141.243 47.9823 141.619ZM22.9403 15.7092C23.0405 15.54 23.4985 15.544 23.2502 16.2219C23.2211 16.0063 22.7577 16.0212 22.9403 15.7092ZM-103.295 49.9147C-103.15 50.154 -103.658 50.5689 -103.615 49.5794C-103.498 49.6813 -103.39 49.7935 -103.295 49.9147ZM37.0574 181.661C36.844 181.448 37.252 181.062 37.4314 181.638C37.4131 181.677 37.3844 181.712 37.3485 181.738C37.3125 181.764 37.2706 181.78 37.2271 181.786C37.1837 181.791 37.1404 181.785 37.1018 181.768C37.0631 181.752 37.0307 181.725 37.0079 181.691L37.0574 181.661ZM-119.035 24.0643C-119.052 24.0912 -119.076 24.114 -119.104 24.1309C-119.132 24.1478 -119.164 24.1581 -119.196 24.1611C-119.872 24.2421 -119.062 23.3499 -119.035 24.0643ZM64.856 160.663L64.1116 160.241C64.6409 160.139 64.8322 160.288 64.8698 160.686L64.856 160.663ZM-69.675 -79.5343C-69.5544 -79.9489 -70.194 -80.1699 -69.7628 -80.7404C-69.7406 -80.5362 -69.3505 -79.5277 -69.6612 -79.5116L-69.675 -79.5343ZM-61.7531 -67.2076C-62.0504 -67.4482 -61.7622 -68.088 -61.3927 -67.1137C-61.5592 -67.1378 -61.6733 -67.1313 -61.7393 -67.1848L-61.7531 -67.2076ZM14.0042 77.2155C13.9847 76.9319 13.5184 76.8863 13.6885 76.442C13.8192 76.5252 13.9197 76.6443 13.978 76.7854C14.0364 76.9265 14.0503 77.0837 14.018 77.2383L14.0042 77.2155ZM8.09105 -15.7293C8.20124 -15.547 8.49149 -15.4575 8.42852 -15.1709C8.17256 -15.3431 8.22499 -15.1727 8.10483 -15.7065L8.09105 -15.7293ZM-9.2812 -44.0009C-8.77339 -43.6072 -9.71093 -43.2603 -9.61828 -44.1398C-9.50176 -44.1022 -9.38904 -44.0557 -9.2812 -44.0009ZM3.82205 -23.3236C4.11905 -23.3626 4.11938 -23.083 4.00553 -22.7969C3.75225 -23.0485 3.4866 -23.2926 3.87158 -23.3535L3.82205 -23.3236ZM24.4312 94.7483C24.2735 94.645 24.1424 94.5095 24.0463 94.3506C23.9502 94.1916 23.8913 94.0126 23.8734 93.8252L24.4312 94.7483ZM9.62366 6.04038C9.88381 6.30338 9.19645 6.56185 9.20531 5.79491C9.37777 5.84412 9.54294 5.91141 9.69786 5.99569L9.62366 6.04038ZM50.0835 34.6619C50.7762 34.2448 50.1753 35.6791 49.861 34.9358C50.008 34.8162 50.0711 34.6694 50.1577 34.6173L50.0835 34.6619ZM36.9011 151.198C37.334 150.937 37.3186 152.112 36.8531 151.398C36.9383 151.315 36.9258 151.183 36.9753 151.153L36.9011 151.198ZM35.8019 48.0181C35.5558 48.0575 35.3183 48.4182 35.0924 48.0723L35.0098 47.9356C35.4646 47.5995 35.7114 48.2591 35.8019 48.0181ZM-15.355 -53.6325C-15.2456 -53.548 -15.167 -53.4325 -15.1292 -53.3004C-15.0913 -53.1682 -15.096 -53.0255 -15.1425 -52.8901C-15.4329 -53.1194 -15.6009 -53.3135 -15.355 -53.6325ZM-16.1255 -54.07C-16.3046 -54.1867 -16.4304 -54.3635 -16.4807 -54.5693C-16.531 -54.7751 -16.5025 -54.9966 -16.4003 -55.1946L-16.1255 -54.07ZM-15.1702 -46.0967C-15.3531 -46.0643 -15.583 -46.3611 -15.3768 -46.4386C-14.8339 -46.6568 -14.975 -46.1366 -15.1702 -46.0967ZM-11.8867 -40.831C-12.0012 -40.9098 -12.0967 -41.0108 -12.1676 -41.1282C-12.2385 -41.2455 -12.2835 -41.3769 -12.2999 -41.5147C-11.9712 -41.4174 -11.9091 -41.175 -11.8867 -40.831ZM68.3852 165.47C68.4005 165.663 68.0388 165.678 67.8538 164.981C68.2129 165.185 68.3987 165.213 68.3852 165.47ZM32.4899 104.957L31.8869 104.294C32.298 104.248 32.4343 104.446 32.5269 104.934L32.4899 104.957ZM-19.1605 -54.1231C-19.3533 -54.4422 -19.6257 -54.558 -19.6012 -54.8525C-19.2725 -54.7551 -19.242 -54.5092 -19.1605 -54.1231ZM43.8907 122.789C43.5691 122.982 43.4739 122.713 43.4447 122.358L43.8907 122.789ZM-91.7519 97.4883C-91.7791 97.7223 -92.3748 97.4903 -91.7728 97.1745C-91.7602 97.2828 -91.7615 97.3932 -91.7766 97.5032L-91.7519 97.4883ZM-14.7836 -48.7231C-14.6766 -48.6361 -14.5924 -48.5261 -14.5371 -48.4009C-14.4819 -48.2757 -14.4569 -48.1384 -14.4639 -47.9986C-14.6773 -48.2121 -14.9318 -48.3541 -14.7836 -48.7231ZM68.164 88.3082C67.9672 88.178 68.5484 87.6881 68.5519 88.4476C68.4151 88.4196 68.2844 88.3726 68.164 88.3082ZM-119.152 50.5576C-118.892 50.4012 -118.966 50.8654 -118.883 51.0021C-119.172 50.8031 -119.362 50.6843 -119.152 50.5576ZM13.8381 -2.73015C14.1214 -2.65209 14.2261 -2.45089 14.3682 -1.99245C14.1025 -2.16473 13.9148 -2.42585 13.8381 -2.73015ZM32.6782 28.9474C32.5803 28.6178 33.0864 28.7016 33.0029 29.0938C32.9702 29.1085 32.935 29.1163 32.8999 29.1167C32.8648 29.1171 32.8305 29.1101 32.7995 29.0961C32.7686 29.0822 32.7417 29.0616 32.7207 29.0359C32.6997 29.0102 32.6852 28.98 32.6782 28.9474ZM-82.2472 92.9771C-82.7138 92.512 -81.4432 92.4929 -82.1439 93.148C-82.0765 93.0919 -82.1742 93.042 -82.2472 92.9771ZM-58.4181 -72.4643L-57.9034 -73.4271C-57.8886 -72.4257 -58.546 -72.4806 -58.4181 -72.4643ZM-26.8734 183.991C-26.8902 183.768 -26.3854 183.821 -26.3257 184.422C-26.5967 184.337 -26.8649 184.312 -26.8734 183.991ZM-79.6591 92.9885C-79.2036 93.3514 -79.6558 93.6081 -79.744 93.3504L-79.6591 92.9885ZM-129.029 11.742C-129.387 11.1494 -129.346 11.2178 -129.279 11.1617C-128.867 11.6754 -128.904 11.5579 -129.057 11.6964L-129.029 11.742ZM-29.2174 -75.7334C-29.1018 -75.6784 -29.0013 -75.5999 -28.9224 -75.5029C-28.8434 -75.4059 -28.7877 -75.2925 -28.7589 -75.1701C-28.9035 -75.199 -29.0303 -75.2748 -29.1185 -75.3854C-29.2067 -75.4959 -29.2513 -75.6346 -29.245 -75.7789L-29.2174 -75.7334ZM-18.4947 -58.1299L-18.0815 -57.4462C-18.1688 -57.4592 -18.2509 -57.4901 -18.3225 -57.5367C-18.3941 -57.5833 -18.4537 -57.6446 -18.4972 -57.7166C-18.5407 -57.7886 -18.5672 -57.8698 -18.5751 -57.9548C-18.583 -58.0397 -18.5721 -58.1266 -18.5429 -58.2097L-18.4947 -58.1299ZM-16.8901 -55.4748C-17.1791 -55.6738 -17.1655 -55.9306 -17.0916 -56.2549C-16.9885 -56.1622 -16.9209 -56.0383 -16.8985 -55.901C-16.8762 -55.7637 -16.9002 -55.6201 -16.9671 -55.4906L-16.8901 -55.4748ZM-95.9782 63.1656C-95.7539 63.3414 -96.5098 63.7655 -96.2836 63.0231C-96.2021 63.0567 -96.1256 63.0992 -96.0552 63.1498L-95.9782 63.1656ZM-124.861 14.1439C-124.407 14.896 -124.455 14.8162 -124.586 14.8793C-125.103 14.1342 -125.079 14.2591 -124.938 14.1281L-124.861 14.1439ZM-111.944 34.793L-111.637 34.9658C-111.634 35.3059 -111.95 35.3408 -112.021 34.7772L-111.944 34.793ZM-49.9751 -79.8489C-50.0593 -79.9029 -50.1208 -79.9832 -50.1504 -80.0776C-50.1801 -80.1719 -50.1761 -80.2752 -50.1392 -80.3717C-50.1486 -80.164 -49.6838 -80.1486 -49.9751 -79.8489ZM14.7384 -3.19455C14.6075 -3.41107 15.1297 -3.80324 15.0439 -2.91229C14.9303 -2.99396 14.8277 -3.08866 14.7384 -3.19455ZM-116.324 -15.9747C-116.115 -16.4112 -116.069 -16.6413 -115.779 -16.3025C-115.847 -15.9668 -115.677 -16.022 -116.331 -15.9861L-116.324 -15.9747ZM14.4613 186.144C14.8588 186.216 14.8425 186.412 14.6679 186.486C14.4933 186.56 14.3969 186.401 14.4613 186.144ZM32.9692 191.646C32.6788 191.416 33.1997 191.134 33.3484 191.324C33.4971 191.514 33.1907 191.761 32.9925 191.601L32.9692 191.646ZM15.9975 158.175C16.6283 157.795 16.3257 159.081 16.0116 158.477C15.9729 158.329 15.8546 158.245 16.0209 158.13L15.9975 158.175ZM25.5891 35.641C25.5653 35.6017 25.5595 35.5538 25.5729 35.5078C25.5862 35.4619 25.6177 35.4217 25.6603 35.396C25.703 35.3703 25.7533 35.3613 25.8002 35.3709C25.8472 35.3805 25.8869 35.408 25.9107 35.4473C26.0084 35.4973 25.8039 36.0245 25.6123 35.5959L25.5891 35.641ZM67.9746 153.485C68.2237 153.645 67.7221 153.932 67.5014 153.288C67.6704 153.329 67.8361 153.38 67.998 153.439L67.9746 153.485ZM10.4358 -11.3749C10.9041 -10.6 10.849 -10.6911 10.849 -10.6911C10.3807 -11.466 10.4358 -11.3749 10.4358 -11.3749ZM23.4444 165.752C23.4099 165.555 23.3549 165.603 23.7165 165.588C23.6809 165.78 23.7359 165.732 23.5091 165.775L23.4444 165.752ZM4.62125 -21.7221C4.15983 -22.4856 4.21491 -22.3945 4.28913 -22.4392C4.79046 -21.6375 4.77249 -21.7511 4.66117 -21.684L4.62125 -21.7221ZM1.43057 -27.7276C1.54033 -27.6773 1.63083 -27.5971 1.69175 -27.4963C1.75266 -27.3955 1.78151 -27.2782 1.77492 -27.1578C1.42409 -27.3196 1.14062 -27.5375 1.4705 -27.6895L1.43057 -27.7276ZM43.6275 161.602C43.8474 161.548 43.8006 161.498 43.8892 162.035C43.8204 162.061 43.9401 162.176 43.6673 161.641L43.6275 161.602ZM-0.807651 -31.4312C-1.24166 -32.289 -1.23471 -32.1378 -1.05465 -32.2306C-0.622046 -31.4031 -0.641376 -31.5469 -0.807651 -31.4312ZM20.8882 122.357C20.9355 122.825 20.2922 123.073 20.373 122.76C20.4538 122.447 21.144 122.389 20.8882 122.357ZM23.8912 127.605C23.657 127.217 24.1989 127.248 24.1856 127.785C24.048 127.697 23.9325 127.673 23.8981 127.616L23.8912 127.605ZM-4.06025 -37.3995C-4.37569 -37.6706 -4.59375 -38.0315 -4.68695 -38.4365C-4.35027 -38.1829 -4.12794 -37.815 -4.06025 -37.3995ZM37.4304 148.221C37.1359 148.041 37.5485 148.026 37.9431 148.037C37.744 148.266 37.7853 148.334 37.4097 148.187L37.4304 148.221ZM70.6555 197.784C70.6434 198.071 70.7794 197.989 70.2843 198.007C70.4848 197.669 70.4065 197.763 70.6348 197.75L70.6555 197.784ZM58.345 170.909C58.4778 170.924 58.5965 170.986 58.6776 171.084C58.7587 171.182 58.7963 171.309 58.7829 171.438C58.663 171.184 58.1721 171.293 58.3243 170.875L58.345 170.909ZM27.2939 101.495C26.9583 101.387 26.9085 101.137 26.8325 100.732C26.9653 100.805 27.075 100.91 27.1519 101.037C27.2287 101.164 27.2704 101.31 27.2733 101.461L27.2939 101.495ZM47.5412 134.999L47.9062 135.603C47.6655 135.483 47.4247 135.364 47.5453 134.95L47.5412 134.999ZM-26.6811 -80.8044C-26.8419 -80.7076 -27.0415 -80.8983 -27.0693 -81.2234C-26.6443 -81.1064 -26.3058 -80.9372 -26.6811 -80.8044ZM80.4596 149.355C80.7318 149.191 80.618 149.617 80.7007 149.754C80.4048 149.543 80.2617 149.474 80.4596 149.355ZM13.8579 78.0341C13.9405 78.1709 13.5214 78.4544 13.4744 78.265C13.4275 78.0757 13.4958 77.6304 13.8579 78.0341ZM-23.437 -82.1362C-23.0395 -82.0647 -23.0063 -81.7583 -22.8836 -81.4437C-23.031 -81.5028 -23.1584 -81.5968 -23.2549 -81.7175C-23.3514 -81.8382 -23.4139 -81.982 -23.437 -82.1362ZM15.6312 80.2147C16.0561 80.192 16.0027 80.4107 15.8585 80.5908C15.6864 80.4457 15.7291 80.5443 15.6806 80.185L15.6312 80.2147ZM-31.72 -71.4441C-31.3242 -71.6825 -31.1782 -71.4129 -31.0651 -71.0303C-31.3581 -71.1803 -31.6621 -71.1527 -31.7215 -71.4744L-31.72 -71.4441ZM4.80991 61.5827C4.58377 60.9573 4.51372 61.0928 4.71303 61.0038C5.05048 61.5622 5.04487 61.4413 4.76039 61.6126L4.80991 61.5827ZM54.514 41.4907L54.6035 41.6388C53.6413 42.0007 54.1917 40.9853 54.4645 41.5205L54.514 41.4907ZM-69.1447 -78.6569C-69.8256 -78.8064 -69.874 -80.5336 -69.1447 -78.6569V-78.6569ZM33.3901 108.735C33.1989 108.586 33.0075 108.437 33.175 108.072L33.3901 108.735ZM72.5143 173.475C72.4317 173.338 72.3696 173.235 72.9019 173.334C73.0769 173.68 72.7345 173.7 72.4648 173.504L72.5143 173.475ZM81.444 75.9748C81.6407 75.9652 81.8636 76.1107 81.6231 76.2711C81.3826 76.4314 81.0619 76.0961 81.3946 76.0046L81.444 75.9748ZM-54.7901 -38.2943C-54.7009 -38.2175 -54.6325 -38.1209 -54.59 -38.0119C-54.5475 -37.9029 -54.532 -37.7843 -54.5446 -37.665C-54.7676 -37.8105 -54.9396 -37.9556 -54.8395 -38.2645L-54.7901 -38.2943ZM3.33936 -59.9939L2.71869 -60.4905C3.09678 -60.5628 3.16573 -60.309 3.28983 -59.9641L3.33936 -59.9939ZM-22.1921 -63.4107C-22.4577 -63.515 -22.5321 -63.7499 -22.5985 -64.083C-22.3535 -63.8731 -22.0853 -63.8481 -22.2416 -63.3809L-22.1921 -63.4107ZM-84.8471 110.365C-85.0877 110.386 -85.0193 110.08 -85.1723 109.66C-84.9768 109.899 -84.5858 110.379 -84.8966 110.395L-84.8471 110.365ZM10.9131 71.8495C11.1195 71.9117 11.2035 72.0787 11.2368 72.3851C11.1313 72.3431 11.0413 72.2742 10.9758 72.1854C10.9102 72.0965 10.8716 71.9909 10.8637 71.8792L10.9131 71.8495ZM36.0707 113.478C36.1281 113.471 36.1856 113.476 36.2384 113.494C36.2913 113.512 36.3382 113.543 36.3752 113.582C36.4123 113.622 36.4385 113.67 36.4519 113.723C36.4652 113.775 36.4653 113.831 36.4521 113.886C35.9444 113.632 36.0573 113.735 36.0089 113.515L36.0707 113.478ZM55.6308 140.261C55.505 140.198 55.4012 140.102 55.3299 139.984C55.2586 139.866 55.2222 139.73 55.2245 139.589C55.3719 139.889 55.5385 140.053 55.5071 140.336L55.6308 140.261ZM37.197 152.916C37.3663 153.001 37.3442 152.936 37.3141 153.11C36.991 153.133 37.013 153.198 37.0871 153.013L37.197 152.916ZM37.5982 153.887C37.811 153.541 37.9526 153.58 37.9197 153.693C37.8556 154.229 37.6451 154.076 37.4882 153.984L37.5982 153.887ZM37.6135 196.372C37.4551 196.11 37.8535 195.652 37.9177 196.624C37.7726 196.589 37.6336 196.537 37.5037 196.469L37.6135 196.372ZM7.9829 66.3866C8.203 66.4716 8.16884 66.6942 8.26526 66.8538C8.16627 66.8384 8.07532 66.7973 8.00195 66.7348C7.92857 66.6724 7.87548 66.5908 7.84825 66.4987L7.9829 66.3866ZM15.5114 81.4681C15.2872 81.4322 15.3587 81.4668 15.2871 81.2924C15.3835 81.4519 15.3588 81.4668 15.3767 81.5803L15.5114 81.4681ZM65.4592 161.605C65.2801 161.309 65.7899 160.924 65.7218 161.649C65.4785 161.749 65.3315 161.729 65.3315 161.729L65.4592 161.605ZM33.0274 190.709C32.7266 191.077 32.5259 191.136 32.6421 190.49L33.0274 190.709ZM-14.3892 -51.7273C-14.6202 -51.7746 -14.5613 -52.0122 -14.4378 -52.2265C-14.1831 -51.9446 -14.0026 -51.6181 -14.3892 -51.7273ZM27.4181 38.6118C27.3423 38.4865 27.3626 38.1012 27.4797 38.295C27.5968 38.4887 27.5007 38.7486 27.4181 38.6118ZM19.3604 23.7711C19.7333 23.9973 19.6153 24.1928 19.2067 24.0192L19.3604 23.7711ZM11.2226 9.94244C11.3834 9.84561 11.6433 9.82898 11.381 10.2045C11.1187 10.5801 10.9959 10.1256 11.2226 9.94244ZM-5.6746 -37.391C-5.76708 -37.7394 -5.41487 -37.5474 -5.29513 -37.433C-5.17537 -37.3186 -5.61798 -37.1298 -5.70215 -37.4366L-5.6746 -37.391ZM-0.866503 -29.6861C-0.755171 -29.7531 -0.442952 -29.7391 -0.273597 -29.5147C-0.709461 -29.4542 -1.12612 -29.3899 -0.894054 -29.7317L-0.866503 -29.6861ZM40.9312 119.846C41.0621 120.062 40.5297 119.823 40.6627 119.401L40.9312 119.846ZM8.20618 4.95109C8.09599 4.76876 8.29093 4.44931 8.52902 4.64788C8.76711 4.84645 8.3934 5.14922 8.20618 4.95109ZM-7.73419 203.769C-7.86504 203.552 -7.25177 203.478 -7.25838 203.746C-7.265 204.015 -7.41893 204.123 -7.72731 203.78L-7.73419 203.769ZM-108.281 41.2447C-108.08 41.0462 -107.805 41.0826 -108.136 41.484C-108.467 41.8854 -108.482 41.4432 -108.274 41.2561L-108.281 41.2447ZM-17.2428 -57.5938C-17.3622 -57.6471 -17.4607 -57.7334 -17.5266 -57.8425C-17.5926 -57.9516 -17.6231 -58.0789 -17.6147 -58.2092C-17.4888 -58.1639 -17.3845 -58.0795 -17.3174 -57.9685C-17.2504 -57.8575 -17.2242 -57.7261 -17.2428 -57.5938ZM-16.5059 -56.3745C-17.3313 -56.7633 -16.8526 -57.9531 -16.5059 -56.3745V-56.3745ZM6.45917 -18.1505L6.23725 -18.6852C6.42446 -18.4871 6.70502 -18.4695 6.47155 -18.158L6.45917 -18.1505ZM103.901 143.088C103.4 142.706 104.751 142.903 104.219 143.223C104.135 143.194 104.053 143.16 103.973 143.123L103.901 143.088ZM-109.892 38.189C-109.754 38.4169 -110.192 38.8362 -110.288 38.0079C-110.035 38.1197 -109.914 38.1245 -109.892 38.189ZM-106.808 44.2124C-107.113 44.0699 -107.075 43.938 -106.98 43.9275C-106.885 43.917 -106.755 43.9937 -106.808 44.2124ZM2.80861 -24.7495C2.68465 -24.9546 3.00186 -25.3787 3.08224 -24.7433C2.95995 -24.6385 2.85132 -24.6509 2.80861 -24.7495ZM-94.2856 67.1668C-94.4854 66.8363 -94.1335 66.6089 -94.1013 67.1646C-94.1838 67.1676 -94.2911 67.1856 -94.2856 67.1668ZM104.688 143.609C104.234 143.416 104.762 143.005 105.017 143.846C104.918 143.754 104.808 143.675 104.688 143.609ZM-127.816 11.9907C-128.062 11.8903 -128.28 11.7259 -128.057 11.5918C-127.834 11.4578 -127.8 11.7943 -127.816 11.9907ZM72.4745 159.479C72.3231 159.368 72.3229 159.228 72.7987 159.206C72.7865 159.353 72.7758 159.67 72.4745 159.479ZM-86.3868 81.186C-86.3868 81.186 -86.2204 81.2102 -86.1503 81.2146C-85.9118 81.8325 -86.8515 81.3104 -86.3868 81.186ZM-57.7189 -57.8243C-57.4442 -58.0675 -57.2192 -57.1927 -57.771 -57.5754C-57.7559 -57.6622 -57.7739 -57.7756 -57.7189 -57.8243ZM-77.2883 97.3583C-77.4122 97.1531 -77.0507 96.9976 -77.0256 97.4021C-77.1671 97.5029 -77.2401 97.438 -77.2883 97.3583ZM-75.5607 100.608C-75.5844 100.234 -75.1648 100.369 -75.0096 100.152C-75.1278 100.207 -75.5451 101.08 -75.5607 100.608ZM37.4137 112.825C37.0585 112.433 36.8425 112.298 36.9989 111.971L37.4137 112.825ZM-59.4942 -61.9621C-59.2699 -61.7864 -59.1033 -61.6224 -59.2735 -61.3179C-59.0108 -61.274 -59.7466 -61.3749 -59.4804 -61.9394L-59.4942 -61.9621ZM37.6268 112.899C37.8966 113.094 37.8222 112.999 37.8748 113.309C37.5322 113.189 37.5543 113.253 37.6406 112.921L37.6268 112.899ZM25.7594 98.8445C25.9521 99.0237 26.16 99.256 25.8795 99.2384C25.5989 99.2209 25.6042 99.0622 25.7237 98.897L25.7594 98.8445ZM62.55 174.936C62.55 174.936 62.4993 175.076 62.4552 175.087C62.025 175.268 61.9857 174.421 62.5143 174.989L62.55 174.936ZM-116.892 48.2953C-116.604 47.9351 -116.52 48.9107 -116.907 48.5219C-116.974 48.578 -117.029 48.4868 -116.932 48.397L-116.892 48.2953ZM-133.796 25.1816C-134.052 25.1492 -134.062 24.9375 -134.127 24.6346C-134.023 24.6853 -133.938 24.7628 -133.88 24.859C-133.822 24.9553 -133.793 25.0667 -133.796 25.1816ZM64.2432 141.448C64.2759 141.195 64.4039 141.351 64.4811 141.506C64.5583 141.662 64.1471 141.708 64.2156 141.402L64.2432 141.448ZM-35.5915 -80.3347C-35.406 -80.4465 -35.2436 -80.3733 -35.0882 -80.3115C-35.2488 -80.0748 -35.8004 -80.1779 -35.5915 -80.3347ZM-130.304 31.3787C-130.48 31.2826 -130.444 31.3699 -130.483 31.0824C-130.323 31.2349 -130.352 31.1591 -130.304 31.3787ZM104.236 122.65L104.697 123.413C104.283 123.258 104.224 123.076 104.236 122.65ZM-82.2703 114.378C-82.4149 114.139 -82.0522 113.734 -81.9786 114.498C-82.0584 114.421 -82.1671 114.409 -82.2703 114.378ZM85.0701 118.042C85.3013 118.229 85.2408 118.157 85.2699 118.372C85.1473 118.197 85.2079 118.27 85.1196 118.012L85.0701 118.042ZM3.57301 -57.2902C3.32255 -57.4813 3.33885 -57.6777 3.54618 -58.0046C3.73492 -57.6364 3.74745 -57.504 3.57301 -57.2902ZM-6.00898 -33.3661L-5.82991 -33.0698C-5.82991 -33.0698 -6.18328 -33.0125 -6.00898 -33.3661ZM-61.885 -68.4027C-62.0637 -68.4194 -62.3167 -68.3914 -62.1781 -68.6924C-62.0396 -68.9935 -61.9732 -68.6604 -61.885 -68.4027ZM-92.6812 -21.8808C-92.5208 -22.397 -91.2847 -22.6129 -92.6812 -21.8808V-21.8808ZM38.2186 106.341C37.7002 105.847 37.3264 105.228 37.1305 104.54C37.9249 105.492 38.1921 105.906 38.2186 106.341ZM-48.6358 -30.7628C-48.9782 -30.7431 -49.2945 -30.7081 -49.4159 -31.1323C-49.0831 -31.0841 -48.749 -31.1454 -48.6358 -30.7628ZM-48.494 -29.2162C-48.3632 -28.9996 -48.821 -28.8638 -48.6371 -29.2854C-48.5779 -29.2433 -48.5285 -29.2731 -48.4871 -29.2048L-48.494 -29.2162Z" fill="#01FC99"/>
</svg>
