<svg width="210" height="125" viewBox="0 0 210 125" fill="none" xmlns="http://www.w3.org/2000/svg">
<path d="M-70.4287 10.5177C-69.728 11.0115 -70.6108 11.7829 -70.3941 12.4155C-63.8464 31.0816 -59.4065 40.4647 -58.633 44.4465C-62.107 40.4993 -62.5208 41.3807 -68.5157 21.9457C-68.9027 20.7179 -70.4294 19.7187 -69.1269 18.1931C-70.124 18.4229 -70.9599 17.7053 -71.7247 18.7109C-71.8105 18.7818 -71.9151 18.8271 -72.0242 18.841C-72.1334 18.8548 -72.2419 18.8365 -72.3354 18.7884C-72.4288 18.7402 -72.5028 18.6647 -72.5471 18.5718C-72.5915 18.4789 -72.6041 18.3732 -72.5835 18.2688C-72.5374 18.0554 -72.5376 17.8382 -72.584 17.6312C-72.6305 17.4242 -72.7221 17.2318 -72.8532 17.0665C-72.9843 16.9012 -73.152 16.7666 -73.3453 16.6712C-73.5386 16.5759 -73.7534 16.5219 -73.976 16.5128C-74.5489 16.4654 -74.4322 15.523 -74.8413 15.3551C-75.6462 15.0599 -76.3421 14.562 -76.8603 13.9106C-77.3784 13.2591 -77.701 12.4766 -77.7962 11.6403C-78.5169 14.3635 -75.7348 18.9673 -77.0053 19.6451C-77.4737 19.9272 -77.1253 19.1724 -77.4494 19.1059C-78.1302 19.2324 -77.9311 19.6794 -77.9384 20.0981C-77.9321 20.2592 -77.9725 20.422 -78.0552 20.5686C-78.1379 20.7151 -78.2596 20.8396 -78.4069 20.9283C-78.5541 21.017 -78.7212 21.0664 -78.8897 21.0711C-79.0581 21.0758 -79.2212 21.0355 -79.3611 20.9547C-83.301 17.9203 -81.3814 10.2891 -84.511 11.4542C-85.2476 11.7233 -85.5895 11.2751 -86.0489 10.9849C-84.9402 24.2926 -81.8681 23.6199 -86.0825 23.8903C-88.563 24.0541 -88.5188 21.9344 -89.6467 20.4988C-89.6522 20.7638 -87.941 26.8844 -88.774 25.2712C-89.6069 23.658 -91.6261 24.1544 -92.7902 23.0895C-95.5152 20.051 -97.0397 16.1502 -97.1219 12.006C-99.1084 16.2764 -94.387 21.5437 -95.6171 22.1318C-96.29 22.428 -96.5667 21.4609 -97.394 19.7789C-97.7485 20.2104 -96.8627 20.6581 -97.5125 20.875C-98.1624 21.0919 -98.5516 17.5109 -100.505 13.8473C-102.163 15.0199 -101.95 13.6491 -103.053 12.1766C-104.743 9.96753 -93.362 38.0413 -91.0301 47.7344C-91.8756 45.0823 -107.335 6.97141 -102.611 20.7401C-80.9498 82.936 -98.7054 31.8622 -90.0492 60.5958C-90.6044 60.9301 -91.9204 58.5176 -90.0401 64.0568C-89.1734 66.5872 -89.3616 69.4477 -87.7757 71.7194C-87.6989 71.8815 -87.6612 72.0604 -87.665 72.2434C-87.6688 72.4264 -87.7142 72.6093 -87.7979 72.7792C-89.6343 68.7616 -89.2909 68.86 -89.7879 69.4863C-89.9441 69.5804 -90.1177 69.4888 -90.0927 69.4519C-89.0428 68.0566 -90.8076 68.269 -91.1747 67.6615C-93.8477 60.2232 -96.3136 57.4349 -98.1713 45.4722C-98.8021 41.4916 -98.4651 38.9558 -99.1922 39.0448C-99.9193 39.1338 -98.7284 41.9269 -99.6561 44.0335C-102.789 39.9461 -104.175 29.3126 -104.767 29.0371C-106.469 28.296 -106.508 28.2321 -107.005 26.3515C-108.072 22.3935 -108.067 25.1814 -108.856 25.2858C-110.082 23.844 -110.915 20.116 -112.429 20.5479C-113.943 20.9799 -113.584 17.5803 -114.631 17.8838C-122.653 20.2727 -98.8697 74.977 -102.018 74.5837C-103.714 74.3621 -104.583 74.8421 -104.073 73.9244C-103.16 72.2629 -108.427 73.69 -108.725 77.0742C-110.131 75.4135 -109.772 72.756 -111.701 71.1703C-113.63 69.5845 -113.405 66.3534 -114.776 64.4758C-114.829 66.0335 -106.733 86.1655 -108.004 93.9296C-108.106 93.8536 -108.189 93.7575 -108.249 93.6471C-108.309 93.5368 -108.344 93.4143 -108.352 93.2871C-108.361 93.1599 -108.342 93.0305 -108.298 92.9067C-108.254 92.7829 -108.184 92.6672 -108.094 92.5666C-109.943 91.4173 -111.249 89.6325 -111.77 87.5417C-111.59 89.0774 -111.32 90.5962 -110.961 92.0909C-117.663 92.7476 -112.399 82.8191 -116.129 85.8498C-117.401 86.8774 -116.847 84.9742 -117.025 83.2714C-117.13 82.3535 -114.874 82.9139 -114.299 83.1999C-114.212 81.229 -114.398 81.079 -116.524 80.8112C-118.649 80.5435 -117.193 78.6853 -117.784 77.8639C-118.546 77.9738 -117.98 80.1624 -120.008 82.0156C-121.764 83.5743 -119.943 88.779 -120.068 91.4704C-122.076 89.9104 -122.539 99.1286 -124.364 98.8104C-124.696 98.7704 -126.595 99.9357 -126.519 98.6908C-126.399 97.0488 -127.797 97.2803 -128.583 96.8812C-128.933 97.3976 -128.734 97.8445 -128.749 98.2896C-128.84 100.372 -130.542 99.2385 -130.801 100.572C-131.061 101.905 -131.877 101.22 -132.041 100.948C-132.961 99.1908 -136.065 101.3 -135.98 99.2862L-136.038 99.1903C-137.788 98.7615 -137.137 95.884 -138.067 95.8334C-138.504 96.402 -137.32 97.8911 -138.56 97.875C-140.443 97.8531 -140.442 100.752 -136.645 121.838C-137.416 121.735 -137.33 121.095 -137.761 120.853C-138.032 121.147 -137.586 121.729 -138.168 121.861C-138.751 121.994 -138.952 119.782 -140.064 120.997C-141.651 122.716 -142.556 116.873 -138.505 116.919C-138.475 116.028 -145.132 113.431 -143.077 124.664C-142.972 125.19 -142.707 125.706 -143.189 126.28C-143.503 126.229 -145.643 122.22 -143.544 128.238C-143.02 127.813 -143.543 127.3 -143.243 126.661C-141.832 129.583 -142.354 128.132 -143.75 131.109C-142.129 133.556 -144.351 133.128 -143.977 129.48C-145.558 131.718 -141.848 136.918 -149.576 124.13C-151.038 126.253 -43.2099 327.898 -43.0727 328.165C-43.3024 328.019 -94.7256 247.51 -43.4096 330.896C25.905 443.517 -115.82 222.081 -101.825 229.263C-101.122 229.603 -101.11 230.446 -100.905 231.02C-100.581 232.221 -99.3097 232.72 -99.1272 233.962C-99.0361 234.386 -97.436 233.51 -98.0135 232.79C-99.6924 230.09 -101.156 227.262 -102.393 224.329C-101.265 223.65 -94.0423 240.144 -92.9106 239.55C-93.9493 237.04 -95.1704 234.614 -96.5653 232.288C-97.3478 230.993 -94.9782 229.785 -97.8652 230.411C-96.6854 229.701 -96.9237 228.798 -97.341 228.068C-97.7584 227.338 -98.0295 228.221 -98.4885 228.323C-96.995 226.878 -104.615 214.701 -105.299 214.742C-104.842 216.909 -103.234 218.513 -102.493 220.64C-106.563 219.973 -160.553 110.9 -130.41 175.031C-130.383 173.902 -131.224 173.058 -131.45 171.667C-130.631 172.395 -122.552 186.389 -123.254 189.144C-127.214 182.59 -125.354 185.199 -125.18 183.764C-125.989 183.577 -126.703 183.156 -127.23 182.556C-127.757 181.956 -128.073 181.204 -128.137 180.399C-127.738 180.158 -127.606 180.886 -127.199 180.619C-127.683 178.447 -129.881 177.59 -130.817 175.69C-130.933 175.498 -146.316 147.458 -146.925 146.843C-148.872 148.125 -102.53 223.475 -105.181 227.665C-105.87 228.756 -158.105 131.163 -158.998 131.134C-158.006 147.499 -144.593 161.704 -146.503 164.184C-153.989 151.795 -157.84 139.746 -158.921 140.267C-129.85 209.163 -41.5469 365.814 5.44065 423.595C7.20969 425.778 6.71851 422.498 8.94228 422.184C18.9868 420.714 8.50563 419.503 12.6261 417.785C14.3055 417.079 18.316 427.2 13.1204 414.413C11.7262 410.892 10.7872 411.218 8.88846 408.546C-5.60822 388.082 -4.00277 384.826 -5.33893 385.435C-8.23879 386.745 -10.4657 381.807 -12.2396 378.558C-12.6164 377.935 -10.7245 375.466 -13.1784 375.243C-13.4832 375.208 -18.929 364.905 -19.0276 364.702C-16.5612 365.964 17.3883 419.321 21.7433 418.814C15.2184 409.662 10.545 408.115 11.4406 402.823C11.7125 402.927 11.9519 403.09 12.1409 403.301C12.3299 403.512 12.4635 403.765 12.5317 404.041C12.7353 405.161 13.7222 404.523 14.2914 404.682C14.8606 404.841 14.642 404.166 14.7787 403.843C16.7031 399.196 24.1135 416.471 24.9297 410.812C25.73 410.57 25.7369 411.678 26.4291 411.414C27.1074 410.656 21.0896 399.367 21.3861 398.84C21.6827 398.313 23.7352 398.341 24.054 398.869C26.0923 402.241 27.9235 402.883 25.9665 403.756C26.703 403.641 27.4437 403.724 28.1055 403.995C28.7672 404.267 29.3237 404.717 29.7121 405.294C31.263 407.391 30.9687 404.32 31.7597 404.454C33.1989 404.721 34.6203 410.362 36.2331 408.606C37.5396 407.165 37.3112 408.393 40.5571 411.845C41.6462 413.021 41.9625 410.999 42.1707 410.873C44.2482 408.946 42.9989 411.617 45.49 412.45C43.7511 409.573 43.1433 409.35 45.1238 408.79C47.1043 408.229 44.1061 407.615 45.3721 406.264C46.0176 405.57 44.2083 405.591 44.9693 404.697C45.3335 404.281 46.0624 404.039 46.2614 404.289C46.9102 405.011 47.58 403.495 48.0166 404.257C52.0917 411.353 52.6275 410.986 48.5891 403.912C45.9304 399.278 44.4094 398.21 46.1763 398.236C50.9795 398.352 39.8891 387.48 42.0097 386.29C43.6407 385.308 43.0811 389.199 45.7921 389.964C46.1355 390.063 46.5886 389.834 46.7107 390.349C46.9179 391.161 48.1076 390.663 47.605 389.636C43.5984 381.518 41.3092 380.04 43.2384 380.296C44.0988 380.388 44.6831 380.298 44.0649 379.275C42.9539 377.437 46.0424 377.692 45.1288 376.454C44.6777 376.726 44.9873 377.629 44.0902 377.515C42.5739 377.317 36.3501 362.554 51.3085 383.743C52.2067 385.033 50.1725 385.779 49.8859 384.599C49.4561 383.027 48.2354 385.354 49.2095 385.399C50.1837 385.445 50.4895 386.46 51.0437 387.064C51.7724 386.625 50.1437 385.927 51.3352 385.275C52.5266 384.623 52.3412 386.391 54.562 386.973C56.2676 387.406 55.4845 389.36 58.196 388.796C57.183 388.49 57.1704 387.451 56.5101 386.868C56.1472 386.541 56.5733 386.307 56.8489 386.097C58.3004 385.092 58.6229 387.427 60.7188 388.585C61.0771 388.042 59.5966 387.08 61.2553 386.888C61.832 386.824 60.4922 385.625 61.8634 385.388C62.2974 385.323 67.4283 391.151 61.3594 382.792C60.5887 381.752 60.8847 380.636 62.1934 379.63C64.4929 377.875 68.6796 384.685 69.5952 384.046C70.5108 383.408 65.4133 380.024 65.9988 379.192C66.8948 378.129 65.4929 376.749 66.821 375.775C66.821 375.775 66.7435 375.451 66.6375 375.471C64.8822 375.504 64.9443 373.962 64.6578 372.979C64.2437 371.549 61.3704 370.358 63.3814 369.496C63.6417 369.339 63.4291 368.988 63.2668 368.758C62.8225 368.023 62.4502 369.991 61.7223 369.296C61.4822 369.121 61.2925 368.891 61.1686 368.625C61.0447 368.359 60.9901 368.063 61.0091 367.763C61.8008 364.649 57.8795 364.895 57.6454 360.239C57.5902 359.052 55.2298 357.77 55.9353 357.214C57.3655 356.135 63.7712 365.795 64.4556 365.361C65.1399 364.927 48.1613 343.058 47.9663 342.892C46.2384 341.404 49.2377 341.08 48.1549 340.424C46.3543 339.481 46.2572 336.814 47.8344 338.132C52.9251 342.326 38.9881 326.235 40.013 324.876C40.3655 324.402 101.59 399.358 103.56 397.801C106.459 395.511 75.1878 364.872 64.2897 349.501C56.9438 339.187 61.7481 346.236 63.9994 346.515C50.8652 328.697 87.5467 373.106 89.9701 375.745C95.1008 381.376 98.6235 381.762 99.9235 383.639C101.223 385.516 103.536 383.47 104.944 384.977C105.185 385.376 106.023 385.352 106.301 385.969C106.485 386.273 106.707 386.64 107.196 386.237C108.424 385.214 106.277 386.987 101.349 377.658C100.827 376.794 101.87 376.21 102.567 376.815C104.461 378.422 108.33 383.374 112.307 385.1C113.656 385.726 112.818 389.588 120.551 393.064C122.118 393.777 121.739 395.03 124.865 396.287C123.843 394.047 118.426 389.547 121.357 390.834C122.031 391.126 122.653 392.626 123.214 392.223C123.775 391.82 69.5762 329.116 57.1677 307.722C55.6607 305.228 72.1063 326.372 71.9098 326.555C70.5896 327.699 72.442 328.415 72.2897 326.479C79.1668 332.847 91.0262 352.98 42.7763 280.502C20.7251 247.342 32.1954 260.056 25.3538 252.534C25.151 252.198 24.4986 251.784 25.1191 251.127C25.7396 250.47 24.2994 251.337 24.2563 250.6C24.2131 249.863 11.3911 227.824 11.2868 227.691C10.0738 225.958 11.6593 225.918 11.8744 226.901C12.1766 228.223 23.7446 246.112 23.9126 246.272L24.1596 246.407C23.7288 247.691 24.9904 247.782 25.5522 248.359C26.7612 249.811 25.4426 250.605 26.5148 250.265C26.5787 250.237 26.6485 250.228 26.7151 250.239C26.7816 250.25 26.8418 250.28 26.8874 250.326C26.9331 250.372 26.9621 250.431 26.9708 250.495C26.9794 250.56 26.9672 250.627 26.9357 250.687C25.7039 251.429 26.6707 251.893 27.0705 252.438C27.5921 253.301 27.6745 254.69 28.409 254.182C29.1434 253.675 27.0533 252.644 27.5577 251.599C28.8509 253.186 30.0558 254.84 31.1677 256.555C29.9063 256.66 30.9705 258.069 29.8384 258.271C30.3021 259.038 30.9662 257.592 31.7367 258.436C31.8333 258.596 31.9492 258.787 31.7237 258.923C31.2031 259.237 31.104 258.446 30.645 258.548C29.9092 259.602 31.8464 260.223 32.6005 262.058C32.7261 262.266 32.8613 262.49 33.1563 262.312C33.7809 261.936 32.7252 261.285 32.5117 259.953C35.822 264.217 38.0663 269.145 41.5949 273.691C38.1886 271.971 38.796 269.686 37.8145 270.059C36.1235 270.707 39.4272 274.059 42.2776 277.444C56.3625 294.995 78.9552 333.475 82.4104 333.946C82.9057 334.122 83.3318 334.43 83.6429 334.834C83.9539 335.238 84.1382 335.724 84.1757 336.24C84.397 337.742 85.2643 337.024 85.1837 337.399C84.4058 340.811 91.4953 345.415 92.8257 346.794C97.1605 351.226 81.4923 330.116 81.501 329.152C81.5097 328.187 79.2083 327.982 80.1678 328.865C80.2934 329.072 84.3797 335.834 77.2427 325.982C63.7371 307.08 38.0287 268.143 53.4384 287.337C53.8055 287.944 53.4286 293.077 55.4326 290.911C56.2053 290.075 55.7417 291.422 56.1216 291.346C56.6758 291.666 57.1126 292.137 57.3806 292.705C57.6486 293.274 57.7369 293.915 57.6351 294.555C57.576 295.201 58.4721 294.335 58.7813 294.846C86.9075 342.64 79.1087 322.765 73.8896 317.536C73.1501 316.782 73.8032 315.866 74.6878 317.056C114.707 372.077 98.5202 347.094 100.37 347.375C100.675 347.409 100.529 345.993 99.7156 346.526C98.9021 347.06 98.6409 346.236 99.1884 345.928C99.7359 345.62 99.2803 345.219 99.1065 344.931C98.3047 343.604 97.9341 345.419 97.4664 344.567C97.3505 344.375 97.1477 344.039 97.4196 343.941C99.24 343.39 96.9496 342.654 97.9171 341.788C101.663 347.752 155.132 407.211 157.014 399.362C157.164 398.749 158.166 398.058 157.163 397.376C150.401 392.727 118.187 356.377 118.061 356.169C117.479 355.714 118.42 355.43 118.498 355.012C118.095 354.579 117.475 355.629 117.256 354.758C117.767 354.624 118.055 353.731 118.766 354.241C136.42 366.851 106.889 339.874 92.9984 318.26C83.1362 302.92 45.1051 247.508 -4.81483 155.781C-76.1129 24.8418 -58.4284 42.5137 -57.5064 46.428C-56.8227 49.2431 -44.01 75.6916 -44.1652 76.7662C-44.7771 76.2626 -44.8455 75.3663 -45.7622 74.8282C-45.2561 76.7741 -44.1456 78.489 -42.5728 79.7535C-38.6455 81.749 -51.8913 74.0059 9.6642 175.863C6.57213 183.786 94.7631 315.933 94.879 316.125C96.9657 319.578 97.8409 317.11 98.0964 318.003C98.9299 320.204 100.964 320.986 99.4038 321.576C99.3318 320.976 99.0924 320.417 98.7104 319.957C98.3283 319.497 97.8176 319.153 97.2312 318.96C99.2309 322.269 99.6177 323.3 100.591 322.562C101.25 322.165 101.864 324.237 101.054 324.659C101.78 325.138 102.393 325.754 102.859 326.472C103.36 325.93 102.471 325.594 102.81 325.019C104.345 326.58 105.856 329.355 103.213 326.782C103.282 328.659 104.91 328.181 106.077 328.742C95.6798 310.519 45.7623 239.002 44.4337 231.517C43.6434 232.167 44.6392 232.679 43.9878 233.246C42.7121 230.548 40.7443 228.31 39.6093 225.57C39.2168 224.607 38.9186 223.37 37.4198 223.357C37.8379 223.45 38.1902 223.699 38.4028 224.051C38.6154 224.403 38.6717 224.83 38.5597 225.243C37.6021 224.402 35.8105 218.853 35.6735 218.783C33.7475 215.961 32.0198 213.011 30.5011 209.95C32.7274 210.267 41.4862 229.498 43.4604 230.337C43.7037 228.664 33.6258 211.753 32.5119 208.892C29.7755 201.819 42.9269 227.301 44.8097 227.518C44.7975 226.872 27.5537 198.142 28.3432 196.708C28.3987 196.579 28.4044 196.438 28.3591 196.313C28.3138 196.187 28.2206 196.086 28.0975 196.027C25.4885 196.879 -27.1633 100.67 -9.80214 129.046C4.3384 152.209 14.2538 174.647 16.7833 175.348C16.7798 173.736 12.5352 166.83 21.7415 182.064C18.8838 179.097 12.5003 168.574 21.5876 184.511C48.2161 231.73 78.5185 276.781 112.256 319.309C111.875 318.209 112.188 316.886 111.093 315.976C110.416 315.403 110.029 314.567 110.943 313.886C111.342 313.646 111.099 313.596 110.96 313.483C110.251 313.016 110.262 312.094 109.762 311.501C110.371 312.508 111.781 312.924 111.588 314.523C111.486 315.216 111.79 314.27 111.987 314.282C113.002 314.63 112.112 316.016 112.425 316.024C112.737 316.032 130.851 340.837 131.288 341.599C125.768 338.731 125.887 335.912 124.856 336.751C124.387 337.033 124.781 337.646 125.142 337.93C131.221 342.663 134.142 348.906 140.122 351.518C141.581 352.487 142.766 353.779 143.588 355.296C143.389 352.93 126.096 333.126 125.872 332.912C124.42 331.606 125.531 330.741 121.165 324.693C119.765 322.767 123.042 326.114 123.514 326.309C119.153 320.541 119.796 321.135 119.506 322.182C121.016 322.253 119.946 324.555 119.506 322.182C118.495 321.526 119.326 321.571 119.841 321.522C119.458 320.575 117.651 321.031 117.85 319.56C118.298 319.595 118.237 320.199 118.673 320.372C118.52 318.044 115.856 319.627 116.032 318.235C117.616 308.56 69.1034 255.775 136.693 340.48C137.611 341.607 146.724 351.009 146.334 354.515C146.266 355.145 148.35 356.244 148.07 354.254C147.342 349.133 143.078 344.31 148.15 350.783C153.505 357.609 139.564 337.007 133.377 326.104C134.503 327.388 135.727 328.589 137.04 329.697C137.08 329.412 105.215 281.58 90.872 256.358C60.2708 202.511 138.449 334.692 154.257 352.862C154.482 352.726 87.6123 244.738 82.3775 233.217C201.578 371.371 102.374 267.44 103.161 254.255C103.451 249.175 162.751 327.994 169.712 332.152C130.948 281.869 72.6503 194.097 36.6678 125.002C36.4939 124.714 35.8792 119.35 34.0431 117.643C33.8596 117.339 33.7603 116.353 33.6649 115.451C37.4434 117.122 67.9285 180.566 73.4485 181.908C73.6743 181.968 73.7882 182.118 73.6997 182.324C72.8045 184.171 79.5454 189.334 70.4954 176.121C72.281 173.476 9.85893 65.2515 3.89704 51.9012C3.01166 49.9271 -1.55082 43.474 -2.2278 41.5706C-5.93961 31.1605 -18.1633 21.2321 -17.5054 19.4624C-21.32 18.3583 -21.4733 11.4085 -26.5216 13.1185C-26.1502 14.203 -25.0211 14.8966 -24.9196 16.1218C-25.4227 16.4248 -28.3355 14.3852 -22.043 20.6468C-22.7717 21.0856 -22.8345 19.9243 -24.0847 19.6961C-30.1599 18.6887 -37.5459 8.65977 -23.0183 27.2952C-13.7805 39.1743 -16.1626 37.4256 -18.9807 33.5848C-17.7598 35.8655 -16.2109 37.9544 -14.376 39.7945C-13.4514 40.5022 -12.5585 44.1724 -13.8102 42.3753C-32.0644 16.0856 -27.7694 25.2289 -32.8477 21.877C-33.3161 22.1591 -32.4226 22.5803 -33.0839 22.935C-37.5911 19.7842 -37.0894 14.0752 -39.3575 14.3945C-39.8532 14.4749 -40.0295 11.6379 -42.0624 9.91869C-40.2589 13.8036 -39.8204 14.4116 -40.5067 14.8031C-41.193 15.1945 -41.0836 14.6709 -41.3115 14.3721C-41.5395 14.0733 -41.7973 14.6645 -42.1695 14.7143C-49.8603 16.5548 -38.0788 30.0198 -36.4863 37.0405C-37.6365 36.4686 -45.9368 22.4988 -48.9226 8.90439C-49.4206 6.63159 -52.3812 8.93766 -52.6996 8.80236C-53.9192 8.27225 -51.9604 11.2788 -52.4324 11.8682C-56.7056 17.2103 -34.8231 63.2482 -61.4996 0.780368C-59.0834 13.8239 -54.4689 22.1643 -54.7259 23.7362C-55.3627 23.4656 -56.0312 20.4016 -56.4553 22.5974C-56.7048 23.9467 -49.5402 44.1818 -48.512 46.1571C-40.192 62.4696 -52.8666 41.3011 -56.5948 39.7526C-56.932 40.1736 -56.4895 40.8665 -56.9444 41.2494C-58.593 39.9312 -64.5903 25.8173 -64.6072 22.3827C-65.1105 22.4896 -64.6123 23.0399 -65.2602 23.2992C-65.6694 21.0166 -67.2703 19.1899 -67.1454 16.6946C-67.1014 16.2975 -68.0045 16.0564 -68.1865 15.4029C-71.1662 5.96911 -70.9171 10.1795 -70.4287 10.5177ZM-50.9558 36.5531C-50.359 39.2243 -51.8262 36.0526 -51.7093 35.3063C-51.2229 35.6021 -51.3361 36.2371 -50.9558 36.5531ZM46.1871 336.267C44.6684 335.634 46.2804 335.012 46.1871 336.267C47.2636 336.404 46.2945 337.62 45.9876 337.347C45.6806 337.074 46.1605 336.654 46.1871 336.267ZM97.8265 288.58C98.1285 289.706 99.5067 288.658 98.9278 290.402C98.8278 290.746 99.4164 290.936 99.2202 291.512C98.735 290.475 97.3998 290.145 97.3773 288.894C96.1384 288.332 94.9087 285.279 95.3239 285.77C96.2237 286.711 98.5101 287.361 97.8786 288.548L97.8265 288.58ZM124.366 285.505C123.587 285.048 123.039 284.31 122.834 283.441C122.653 283.376 111.06 267.443 124.47 285.443L124.366 285.505ZM-38.3587 85.0429C-38.6592 85.4855 -37.8178 85.9381 -38.5329 86.4777C-39.4989 84.8792 -39.8259 83.7898 -38.374 85.0958C-35.9332 85.8062 -36.1662 88.2793 -35.3697 90.0671C-40.3708 82.8098 -34.149 93.6925 -31.9068 96.463C-33.0622 96.5482 -37.8646 89.3457 -38.3587 85.0429ZM98.5706 295.959C97.5379 295.229 76.1876 264.873 76.011 261.84C76.2311 261.969 98.4592 294.521 98.5532 295.969L98.5706 295.959ZM-17.0393 125.293C-16.9717 125.405 7.00252 168.287 6.80773 168.317C7.99595 170.283 7.73543 168.129 8.49389 168.522C10.8482 181.385 -17.0444 125.951 -17.0566 125.304L-17.0393 125.293ZM-101.526 75.2028C-100.266 75.251 -100.412 76.3415 -100.1 77.0916C-99.3598 78.8259 -98.3324 80.0169 -99.9032 81.3334C-100.969 82.1933 -100.008 86.5636 -100.178 87.8872C-99.0015 86.1538 -99.5215 75.1515 -97.5585 84.3909C-96.5799 88.9469 -99.5838 86.4826 -101.451 90.2452C-101.728 90.8045 -101.324 91.8257 -102.123 91.9141C-102.453 91.9165 -113.819 74.7133 -101.543 75.2133L-101.526 75.2028ZM-5.37926 93.3301C-5.25368 93.538 51.3856 190.158 49.3927 191.794C50.8602 191.324 50.4054 191.707 53.2756 197.631C59.9631 211.242 -5.39507 94.9094 -5.3619 93.3197L-5.37926 93.3301ZM-23.7515 354.967C-22.5196 354.225 -20.9831 359.274 -20.1057 358.964C-19.2283 358.653 -20.332 358.315 -19.829 357.816C-0.896745 389.104 5.45614 398.011 -23.7341 354.957L-23.7515 354.967ZM-40.2778 77.325C-39.6982 78.2841 -39.9997 79.6648 -39.2639 80.5299C-38.3124 81.8524 -37.6572 83.3624 -37.3364 84.9724C-38.583 84.4368 -38.3357 82.8489 -39.5936 82.647C-39.8554 83.1536 -38.8752 83.5225 -39.5999 84.0462C-39.7969 83.8377 -53.3984 53.6563 -40.2778 77.325ZM9.29111 171.095C8.71201 172.642 23.0667 193.889 21.419 195.47C6.44609 169.363 7.48015 171.466 9.25637 171.116L9.29111 171.095ZM-56.4723 44.6933C-52.553 52.2751 -47.9223 59.4284 -43.9336 66.9684C-49.485 60.3975 -53.7391 52.8681 -56.507 44.7142L-56.4723 44.6933ZM-0.341143 387.243C-0.215563 387.451 10.7939 402.34 9.83965 402.915C8.88538 403.49 -8.57262 376.677 -0.341143 387.243ZM53.6465 251.499C49.3216 245.531 45.5518 239.188 42.3765 232.538C46.0322 238.861 50.2548 244.908 53.6445 251.457L53.6465 251.499ZM-135.377 140.304C-131.578 146.019 -128.241 152.025 -125.392 158.274C-129.079 152.491 -132.412 146.491 -135.377 140.304ZM-28.7803 104.064C-27.5185 104.351 -25.6488 108.894 -25.4668 109.547C-24.8849 112.859 -23.554 110.793 -23.1194 113.431C-22.53 116.521 -18.9463 120.141 -18.7853 121.112C-18.471 122.885 -13.5629 135.627 -28.7803 104.064ZM-112.166 98.5941C-113.386 99.7866 -115.51 91.8867 -112.972 93.3453C-112.064 93.8673 -110.801 91.4934 -110.638 93.2915C-110.787 95.1138 -111.307 96.9155 -112.166 98.5941ZM-49.5793 41.6108C-49.0935 41.3183 -40.688 60.2392 -41.4323 60.5348C-44.52 54.3978 -47.2228 48.0689 -49.5273 41.5795L-49.5793 41.6108ZM-31.4992 43.8048C-28.3619 48.5115 -25.6551 53.4883 -23.4063 58.6843C-25.8629 53.6011 -29.9717 49.4257 -31.4374 43.7894L-31.4992 43.8048ZM28.06 205.01C28.1759 205.202 30.2916 208.703 29.5956 209.078C28.5546 209.705 30.1706 209.364 22.1959 197.03C21.9061 196.55 21.9694 196.185 22.8006 196.034C23.6319 195.882 21.6087 196.097 28.1391 204.985L28.06 205.01ZM130.25 342.31C131.239 342.849 132.471 342.696 133.294 343.705C137.019 348.263 136.888 347.928 136.522 348.302C135.78 349.032 132.75 344.293 130.33 342.285L130.25 342.31ZM109.867 344.098C107.665 341.954 105.752 339.549 104.166 336.935C106.088 339.332 108.88 341.095 109.946 344.072L109.867 344.098ZM-88.1702 60.925C-88.5433 58.0756 -90.2875 55.6593 -90.6567 52.8948C-88.7368 55.445 -87.4304 59.9563 -88.1702 60.925ZM110.084 344.73C111.427 344.838 115.045 349.025 115.271 350.611L110.084 344.73ZM85.7511 268.598C83.9639 265.641 81.5001 263.091 80.0503 259.909C80.5091 259.611 79.7714 258.704 85.7414 268.582L85.7511 268.598ZM58.5899 381.342C61.7857 384.868 61.774 384.614 61.3635 384.992C60.0973 386.147 58.5934 382.953 58.5802 381.326L58.5899 381.342ZM37.6416 322.009C35.3935 319.112 40.12 321.803 39.7964 324.244C39.714 324.773 38.1761 324.304 38.3589 323.823C38.6608 322.834 37.6248 322.608 37.5933 321.929L37.6416 322.009ZM60.6902 373.188C60.4294 372.756 61.1234 372.338 61.2975 372.822C61.8991 374.64 64.2895 375.032 63.3336 375.956C62.3778 376.881 61.1173 373.934 60.642 373.108L60.6902 373.188ZM-42.808 328.681C-41.5699 330.377 -39.8614 331.834 -39.7357 334.156C-40.7002 332.208 -42.1561 330.621 -42.8737 328.612L-42.808 328.681ZM89.6495 274.579C91.3799 276.687 92.8833 278.965 94.1391 281.382C92.3445 279.281 90.8219 276.972 89.6012 274.499L89.6495 274.579ZM-141.344 134.893C-144.175 130.209 -142.037 129.009 -141.991 130.181C-141.63 131.72 -141.413 133.297 -141.344 134.893ZM-131.716 159.792C-130.365 161.618 -129.31 163.641 -128.583 165.798C-132.457 159.388 -132.153 160.165 -131.716 159.792ZM103.033 302.559C101.596 300.612 100.54 298.435 99.0958 296.514C100.488 298.467 102.496 300.027 103.033 302.559ZM-119.01 192.955C-119.67 193.352 -119.403 193.911 -121.86 188.24L-119.01 192.955ZM-88.0048 66.2106C-89.0733 64.7465 -89.7375 63.0293 -89.9406 61.2062C-89.0066 62.7415 -88.3527 64.4322 -88.0048 66.2106ZM108.947 310.27C108.704 310.416 105.755 307.025 106.399 306.681C107.043 306.336 106.86 306.817 108.947 310.27ZM23.3189 185.496C24.3028 186.576 25.0621 187.832 25.5601 189.205C24.5189 188.167 23.7527 186.899 23.3189 185.496ZM75.5285 229.951C74.7459 229.169 74.299 228.124 74.268 227.003C74.7627 227.861 76.1133 228.334 75.5188 229.935L75.5285 229.951ZM-135.541 140.032C-136.466 139.128 -136.309 137.9 -137.372 137.472C-138.435 137.044 -135.456 135.904 -135.541 140.032ZM-43.4161 67.5506C-43.2661 69.0519 -41.4079 69.6989 -41.5278 71.3409C-42.4968 70.2817 -43.1632 68.991 -43.4682 67.582L-43.4161 67.5506ZM-30.1019 99.8019C-31.2565 100.672 -29.6004 99.8488 -32.2411 97.907C-32.6078 97.6917 -32.8492 95.3735 -30.154 99.8333L-30.1019 99.8019ZM-86.5719 64.0396C-86.671 63.249 -86.4385 62.3023 -87.4574 61.8693C-87.525 61.7574 -87.5236 61.2115 -87.522 60.8617C-87.4771 59.5265 -85.2256 63.8393 -86.5659 64.1668L-86.5719 64.0396ZM-114.841 201.302C-114.414 201.605 -114.067 201.997 -113.824 202.453C-113.581 202.909 -113.448 203.418 -113.435 203.944C-113.887 203.671 -114.253 203.289 -114.5 202.833C-114.747 202.376 -114.867 201.859 -114.849 201.329L-114.841 201.302ZM83.1182 243.018C82.6276 242.704 82.2205 242.288 81.9239 241.797C81.6273 241.306 81.4481 240.752 81.3986 240.173C82.2392 240.943 82.8462 241.92 83.1626 243.013L83.1182 243.018ZM105.488 306.074C105.086 305.095 104.049 304.476 103.817 303.308C106.031 305.289 106.031 305.289 105.488 306.074ZM-13.9573 97.1876C-13.0711 98.0275 -14.8408 99.0931 -14.6294 98.2682C-14.4181 97.4432 -15.2477 97.2451 -14.6637 96.7626C-14.3167 96.5537 -14.0811 96.8261 -13.9283 97.2355L-13.9573 97.1876ZM-139.049 132.66L-137.311 136.28C-138.352 135.353 -138.971 134.064 -139.049 132.66ZM56.8214 304.682L58.1738 306.92C57.7612 306.696 57.4205 306.373 57.1827 305.98C56.9449 305.586 56.8173 305.135 56.8117 304.666L56.8214 304.682ZM-13.5912 41.5239C-13.2789 41.3358 -13.6265 40.9564 -11.279 44.8408C-11.574 45.0184 -11.2534 45.3922 -13.5912 41.5239ZM-87.7613 54.9448C-86.8585 54.9898 -87.4458 55.9758 -87.1988 56.1104C-86.9518 56.2451 -86.4269 56.4087 -86.9822 56.7431C-87.5374 57.0774 -88.3863 54.9287 -87.7613 54.9448ZM-39.559 74.5594L-37.627 77.7564C-38.5294 76.8657 -39.1906 75.7716 -39.559 74.5594ZM45.298 235.727C45.0952 235.392 44.3773 235.104 45.1273 234.74C45.5264 234.5 45.8261 235.191 45.7549 235.387C44.8041 237.573 47.7777 236.698 45.3328 235.706L45.298 235.727ZM54.8879 303.95L56.2596 306.219C55.6147 305.583 54.4783 305.308 54.8879 303.95ZM-3.4321 56.7289L-1.63526 59.7021C-2.46953 58.87 -3.08376 57.8536 -3.4321 56.7289ZM87.7449 271.78C86.959 271.183 86.4388 270.323 86.2766 269.35C86.7346 270.186 87.3217 270.923 87.7449 271.78ZM43.0823 333.166C43.0242 332.874 42.4742 332.551 43.0294 332.217C43.5846 331.882 43.6007 332.614 43.9462 332.755C44.9284 333.166 43.2779 333.92 43.0823 333.166ZM-29.5182 102.961L-30.7257 100.962C-29.0921 100.807 -30.2246 102.536 -29.5182 102.961ZM8.00711 221.206C8.38231 221.492 8.68128 221.859 8.88274 222.281C9.08419 222.702 9.18317 223.167 9.17263 223.644C8.56111 222.959 8.1592 222.118 8.00711 221.206ZM45.0608 334.482C45.0533 334.705 45.5204 334.968 45.1503 335.256C43.9977 336.169 44.1622 332.799 45.0608 334.482ZM100.722 320.586C101.167 321.321 101.908 321.529 101.872 322.488C101.235 322.022 100.556 321.798 100.722 320.586ZM-55.0266 304.273L-55.4257 304.513C-55.3419 303.438 -57.309 299.87 -55.0266 304.273ZM21.8448 183.135C22.6135 183.68 23.1119 184.505 23.2359 185.437C22.5222 184.846 22.0356 184.041 21.8448 183.135ZM-49.5222 40.9224C-50.3212 40.4225 -50.027 39.4604 -50.4154 38.7786C-50.1009 39.0348 -49.857 39.3613 -49.7021 39.7329C-49.5473 40.1045 -49.4858 40.5114 -49.5222 40.9224ZM-86.7389 70.8116C-86.3814 71.4031 -85.6653 71.8439 -85.9557 72.6947L-86.7389 70.8116ZM45.7652 277.459C46.4592 277.041 47.0045 278.413 46.509 278.69C46.0135 278.966 45.3584 277.726 45.7748 277.475L45.7652 277.459ZM82.7059 265.243C83.7518 265.682 83.338 266.563 83.7782 267.018C83.4733 266.83 83.2207 266.576 83.0385 266.275C82.8564 265.973 82.7494 265.632 82.7252 265.275L82.7059 265.243ZM-47.3381 65.0941C-48.222 64.6888 -48.2807 63.8085 -48.565 63.064L-47.3381 65.0941ZM-1.88358 141.131C-1.21346 141.926 -1.23971 142.705 -0.656724 143.161C-1.04389 142.982 -1.36329 142.698 -1.57847 142.342C-1.79366 141.986 -1.89597 141.572 -1.87391 141.147L-1.88358 141.131ZM-2.17338 140.651C-3.16209 139.524 -3.16211 139.524 -3.2167 138.925C-2.72589 139.41 -2.3604 140.001 -2.14637 140.657L-2.17338 140.651ZM-6.75896 148.1C-6.38613 148.245 -6.0778 148.501 -5.87696 148.833C-5.67612 149.166 -5.59275 149.557 -5.63836 149.954C-6.13534 149.425 -6.50745 148.796 -6.73195 148.105L-6.75896 148.1ZM54.3746 359.135C52.7295 359.428 52.8731 358.295 53.4151 358.252C53.9571 358.209 53.8863 358.797 54.3746 359.135ZM-128.901 159.907C-129.23 159.773 -129.489 159.527 -129.631 159.212C-129.773 158.897 -129.79 158.536 -129.676 158.194L-128.901 159.907ZM75.0657 261.646L74.1577 260.144C75.1691 260.799 75.1691 260.799 75.0754 261.662L75.0657 261.646ZM-103.265 222.26C-102.078 222.461 -102.015 223.818 -102.511 223.507C-102.74 223.389 -102.929 223.213 -103.059 222.997C-103.19 222.782 -103.257 222.533 -103.255 222.276L-103.265 222.26ZM26.8279 191.733C27.4454 191.972 28.0899 192.216 27.7939 193.332L26.8279 191.733ZM-23.521 363.767C-23.1439 364.009 -22.8309 364.33 -22.6026 364.708C-22.3744 365.085 -22.2363 365.511 -22.1975 365.957L-23.521 363.767ZM100.699 292.824C99.9793 292.69 99.3274 292.669 99.6679 291.744C99.9344 291.82 100.171 291.962 100.355 292.157C100.539 292.351 100.664 292.592 100.718 292.856L100.699 292.824ZM-46.3618 67.2969C-46.6588 67.1324 -46.8935 66.8848 -47.0372 66.5843C-47.181 66.2839 -47.2278 65.9434 -47.1718 65.6044L-46.3618 67.2969ZM54.4775 259.022C54.7881 259.135 55.038 259.354 55.1808 259.641C55.3236 259.928 55.3498 260.262 55.2545 260.582C55.281 259.999 54.6671 259.649 54.4968 259.054L54.4775 259.022ZM125.624 286.688C126.037 287.051 126.297 287.549 126.359 288.099C126.179 287.684 125.232 287.644 125.696 286.688L125.624 286.688ZM6.30279 218.112C6.5926 218.592 7.21387 218.719 6.70144 219.398C6.30575 219.135 6.19157 218.79 6.30279 218.112ZM76.5267 335.527C76.0169 334.918 75.6675 334.692 75.5607 333.928C75.8598 334.079 76.1066 334.307 76.2762 334.587C76.4457 334.868 76.5321 335.192 76.5267 335.527ZM42.4981 331.338C40.4918 331.15 42.281 330.313 42.5227 330.909C42.5827 331.047 42.5115 331.242 42.4981 331.338ZM-36.2811 39.7294C-36.513 39.3458 -37.3521 39.3278 -37.0346 38.4826C-36.8065 38.6064 -36.6182 38.7852 -36.4866 39.0029C-36.3551 39.2206 -36.2845 39.4703 -36.2811 39.7294ZM-118.786 219.288C-117.598 219.14 -117.711 219.971 -117.987 219.984C-118.262 219.998 -118.517 219.693 -118.786 219.288ZM81.143 331.809C82.3293 331.814 82.1451 332.841 81.7225 332.768C81.3 332.696 81.2977 332.261 81.143 331.809ZM0.775393 145.961C0.636597 146.045 0.794825 146.189 -0.277474 144.415C-0.100026 144.395 -0.258259 144.251 0.775393 145.961ZM7.84842 220.67C7.0444 221.023 6.85563 219.262 8.0293 220.147C8.1182 220.333 8.11636 220.487 7.84842 220.67ZM-12.6047 376.075L-12.2698 377.334C-13.061 377.003 -12.9649 376.575 -12.6915 376.127L-12.6047 376.075ZM-126.556 163.749C-127.38 163.482 -127.392 163.032 -127.435 162.295C-127.183 162.459 -126.98 162.681 -126.843 162.943C-126.705 163.205 -126.636 163.499 -126.643 163.801L-126.556 163.749ZM100.575 320.304C100.222 319.993 99.5084 319.987 99.6677 319.193C100.107 319.439 100.415 319.85 100.523 320.335L100.575 320.304ZM22.746 195.434C22.4493 195.765 22.2491 196.061 21.8748 196.068C21.5006 196.075 21.5787 195.069 22.7287 195.445L22.746 195.434ZM25.4408 195.468C24.6074 195.382 24.3176 194.902 24.8612 194.509L25.4408 195.468ZM47.1775 238.367C46.7664 238.157 46.3729 238.132 46.3455 237.735C46.3181 237.337 46.8698 237.31 47.1602 238.378L47.1775 238.367ZM-99.9001 224.812C-100.697 224.355 -100.84 223.961 -100.627 223.375L-99.9001 224.812ZM18.3029 236.089C19.0669 236.218 19.7039 236.685 19.1373 237.157L18.3029 236.089ZM-103.194 227.232C-103.628 227.493 -103.552 226.641 -103.469 226.504C-103.386 226.366 -102.762 226.928 -103.194 227.232ZM64.9152 377.751C64.0032 378.082 64.0739 377.495 64.4846 377.313C65.1575 377.017 65.0266 377.27 64.9152 377.751ZM95.0876 282.795C95.4933 283.466 95.8696 283.697 95.5329 284.51L95.0876 282.795ZM-112.364 207.986C-112.634 207.539 -111.867 207.36 -111.774 207.631C-111.681 207.902 -112.142 208.354 -112.381 207.997L-112.364 207.986ZM54.0445 303.454C54.3041 302.709 54.2174 302.762 54.6789 303.29C54.8315 303.504 54.8569 303.859 54.0271 303.465L54.0445 303.454ZM97.6268 317.108C97.0542 317.453 96.6311 316.792 96.9954 316.573C97.3598 316.353 97.8773 316.936 97.6094 317.119L97.6268 317.108ZM-32.3715 41.3432C-31.8676 41.8246 -31.1998 42.1856 -31.7919 42.3023C-32.384 42.419 -32.1588 41.891 -32.3715 41.3432ZM3.87687 151.681C3.73808 151.764 3.86742 151.861 3.12358 150.63C3.31444 150.515 3.13303 150.45 3.87687 151.681ZM28.4761 194.578C28.5781 194.277 28.7048 193.743 28.9792 194.275C29.0778 194.477 29.0705 194.896 28.4761 194.578ZM-52.4313 307.158C-52.511 307.274 -52.6299 307.361 -52.7658 307.402C-52.9018 307.444 -53.0454 307.438 -53.1699 307.384C-53.0875 307.271 -52.9686 307.187 -52.8338 307.145C-52.6989 307.104 -52.5565 307.108 -52.4313 307.158ZM76.4846 231.141C76.2417 231.287 75.7474 230.822 76.1368 230.565C76.5262 230.309 76.9242 231.007 76.4846 231.141ZM-112.803 205.067C-114.066 205.523 -112.694 203.759 -112.637 204.597C-112.543 204.715 -112.677 204.883 -112.803 205.067ZM-116.406 199.105C-116.406 199.105 -116.4 198.84 -116.331 198.798C-115.109 198.237 -115.784 199.625 -116.406 199.105ZM-132.964 153.262C-133.274 152.751 -133.789 152.407 -133.284 152.343C-132.778 152.278 -132.842 152.643 -132.912 153.231L-132.964 153.262ZM-38.9879 191.294C-39.5241 191.268 -39.9408 191.322 -40.0898 190.802C-39.5788 190.668 -39.2759 190.66 -38.9879 191.294ZM-87.9485 66.6564C-86.9146 66.6442 -88.0881 67.8741 -88.0754 66.9944C-88.0535 66.8768 -88.0106 66.7624 -87.9485 66.6564ZM54.7357 302.21C55.8045 302.373 55.73 303.072 55.4252 303.037C55.1204 303.003 55.0139 302.631 54.7531 302.199L54.7357 302.21ZM-87.7697 54.1868C-88.0414 54.4812 -88.3351 53.9168 -88.2042 53.6636C-88.0733 53.4103 -87.5097 53.8339 -87.7697 54.1868ZM98.2314 345.676C97.8353 345.02 97.8064 344.973 98.1035 345.033C98.166 345.055 98.221 345.092 98.2636 345.14C98.3061 345.188 98.335 345.246 98.3476 345.31C98.3602 345.373 98.3563 345.44 98.336 345.504C98.3158 345.567 98.2798 345.626 98.2314 345.676ZM46.548 279.146C47.4403 278.391 47.2248 278.935 46.7487 279.243C46.714 279.264 46.6116 279.173 46.548 279.146ZM-46.3077 37.744C-46.9562 37.415 -47.0394 37.1598 -46.955 36.673L-46.3077 37.744ZM-44.0742 33.6083C-44.2647 34.1155 -44.5346 34.2562 -45.0267 34.0293C-44.672 33.7939 -44.4524 33.5308 -44.0125 33.593L-44.0742 33.6083ZM18.0031 235.202C17.6752 235.246 17.7602 235.348 17.6305 234.859C18.0914 234.8 18.0064 234.698 18.0647 235.186L18.0031 235.202ZM-40.9924 72.501C-41.4304 72.2851 -41.6812 72.2617 -41.3015 71.9894C-40.9218 71.7172 -40.669 71.783 -40.9307 72.4857L-40.9924 72.501ZM-40.6639 73.0444C-40.2065 73.2923 -40.0249 73.5535 -40.1036 73.9716C-40.2557 73.8627 -40.378 73.7206 -40.4613 73.5557C-40.5446 73.3907 -40.5868 73.2072 -40.5849 73.0187L-40.6639 73.0444ZM95.8723 316.007C95.9764 315.944 95.9529 315.631 96.057 315.568C96.5795 315.297 96.7025 316.793 95.9513 315.981L95.8723 316.007ZM55.1735 355.405C54.974 356.485 54.2808 355.769 54.6104 355.57C54.9401 355.372 55.0154 355.457 55.2525 355.379L55.1735 355.405ZM44.1059 233.676C44.9641 233.53 45.034 233.881 45.1367 234.364L44.1059 233.676ZM54.2097 354.045C54.0518 354.293 54.1848 354.278 53.7102 354.237C53.8082 353.851 53.6751 353.866 54.1498 354.103L54.2097 354.045ZM42.543 379.341C42.3139 379.784 42.4623 379.717 41.9531 379.696C42.1648 379.263 41.9682 379.447 42.4832 379.399L42.543 379.341ZM115.861 352.959C115.211 352.98 115.462 352.611 115.678 352.656C115.894 352.7 115.89 352.811 115.802 353.017L115.861 352.959ZM-136.493 142.371C-136.644 142.312 -136.768 142.208 -136.849 142.073C-136.93 141.939 -136.965 141.781 -136.947 141.62C-136.793 141.675 -136.666 141.778 -136.584 141.914C-136.502 142.049 -136.47 142.21 -136.493 142.371ZM-130.845 156.848C-130.652 157.168 -130.316 157.292 -130.387 157.88C-130.663 157.501 -130.956 157.329 -130.845 156.848ZM-133.836 155.815C-133.67 155.922 -133.544 156.076 -133.472 156.257C-133.4 156.438 -133.386 156.639 -133.432 156.836C-133.663 156.452 -134.032 156.391 -133.886 155.888L-133.836 155.815ZM114.871 351.986C114.649 351.618 115.294 351.12 115.237 352.005L114.871 351.986ZM-99.314 226.291C-99.7289 226.192 -99.3957 225.686 -99.1871 225.953C-98.9786 226.22 -99.1309 226.202 -99.314 226.291ZM54.6564 252.505C54.0911 252.431 53.5449 252.193 54.05 251.932C54.5551 251.672 54.5036 252.095 54.6564 252.505ZM-122.547 189.962L-122.373 189.857C-122.251 190.568 -122.199 190.537 -122.547 189.962ZM10.0105 163.161C9.5663 162.622 9.95757 162.212 10.2744 162.697C10.5912 163.182 9.70765 163.169 10.0105 163.161ZM14.7997 170.655C14.6903 171.179 14.2885 170.593 14.5872 170.304L14.7997 170.655ZM2.19218 149.011C1.64586 148.576 1.97122 147.901 2.31506 148.391C2.41935 148.525 2.53327 148.674 2.19218 149.011ZM5.15791 153.918C4.75433 153.485 4.47642 153.26 4.61683 152.827C5.00088 153.031 5.04363 153.376 5.12327 153.939L5.15791 153.918ZM-13.6539 8.88003C-13.47 7.65733 -10.3009 9.45538 -10.6153 7.48628C-10.6979 7.81946 -7.20217 8.39609 -6.92634 8.3826C-8.62419 6.00386 -10.4025 6.11543 -9.90977 5.01203C-2.64054 11.95 -5.02015 6.79868 -3.73769 8.49007C-0.0988688 13.2974 2.24408 12.4752 0.842697 11.4877C-0.180327 10.7738 -0.226057 9.40594 -1.172 8.62382C-2.11794 7.8417 -0.889035 7.99562 -0.659732 7.74853C-2.44505 6.19082 -4.08954 4.49106 -5.57776 2.66501C-3.96832 1.41241 7.21957 17.2625 7.46661 17.3971C1.24205 -8.13506 84.0055 148.276 84.2603 148.384C84.904 147.844 83.5454 147.202 84.7334 147.053C85.044 147.019 86.2707 148.853 85.3352 148.871C80.9796 148.79 148.161 258.313 206.933 325.763C211.322 330.795 212.7 339.732 170.571 287.093C169.984 286.356 168.06 285.836 172.147 290.875C153.422 285.93 -13.7636 9.20768 -13.6539 8.88003ZM57.0095 139.787C57.1284 139.083 29.4529 86.7881 29.5665 86.5453C30.4731 82.6418 -14.234 21.3514 -15.2069 18.6451C-14.7348 22.089 0.845272 41.8785 1.00556 42.0654C7.74145 50.0004 57.2449 139.863 56.9401 139.829L57.0095 139.787ZM28.5734 86.8599C26.7777 85.0633 27.0378 84.7104 20.9509 73.6593C23.8942 77.8176 26.4221 82.2496 28.504 86.9017L28.5734 86.8599ZM76.8521 186.835C76.4771 187.977 86.7201 200.188 84.8895 200.135C83.5875 200.134 87.9079 201.762 88.7309 205.082C88.1154 204.886 88.001 204.148 87.0248 204.06C101.536 228.076 117.772 251.017 135.624 272.73C135.373 271.922 96.2745 216.389 93.3578 210.232C92.1033 207.608 94.511 209.908 93.4154 208.017C93.2319 207.713 92.9517 207.249 92.5625 207.702C91.9363 208.428 91.8393 207.876 91.6172 207.508C67.2968 167.735 76.7751 186.903 76.7827 186.877L76.8521 186.835ZM89.3305 206.661C89.8541 206.863 90.3171 207.177 90.687 207.579C91.057 207.981 91.3249 208.463 91.472 208.991C90.9941 209.453 90.9649 209.209 89.3132 206.672L89.3305 206.661ZM92.7491 211.143C93.562 211.94 94.2357 212.428 93.6136 213.435C92.884 212.893 92.8775 212.178 92.6604 211.153L92.7491 211.143ZM96.642 217.389C96.0551 216.849 96.0551 216.849 96.1433 216.25C96.5293 216.498 96.4719 216.99 96.5533 217.399L96.642 217.389ZM-79.6232 297.718C-49.8173 345.002 -52.5326 345.678 -53.9922 342.284C-55.1696 339.591 -81.0325 298.48 -79.6445 297.644L-79.6232 297.718ZM-4.62554 412.694C-4.36528 412.537 -4.09314 412.635 -4.15269 412.889C-5.85928 419.345 26.1053 449.174 -6.87191 411.561C-8.91857 408.918 -10.6675 406.063 -12.0923 403.041C-11.3515 403.052 -4.80299 412.714 -4.62752 412.651L-4.62554 412.694ZM-137.324 192.842C-136.925 193.736 -137.705 194.053 -138.035 193.271C-138.366 192.489 -146.263 178.756 -146.33 178.644C-178.274 124.689 -144.592 177.292 -137.324 192.842ZM-25.601 384.838C-24.3455 382.687 -33.6354 376.595 -16.3927 398.196C-4.29117 413.365 -24.3786 384.276 -25.5914 384.854L-25.601 384.838ZM-15.7364 396.776C-15.7606 397.597 -16.5889 396.853 -16.2669 396.681C-15.945 396.509 -15.8523 396.584 -15.7267 396.792L-15.7364 396.776ZM-76.6326 274.747C-78.0651 271.555 -85.6074 259.505 -84.8373 258.038C-84.7258 259.672 -83.6431 258.213 -83.4938 258.93C-83.2978 259.908 -82.8385 260.803 -82.1603 261.528C-81.8224 261.891 -82.9789 262.719 -81.9565 262.844C-80.934 262.97 -81.8778 264.345 -80.9228 264.555C-80.7877 264.571 -80.6602 264.617 -80.5489 264.687C-80.4377 264.757 -80.3454 264.851 -80.2784 264.962C-80.2113 265.073 -80.1712 265.198 -80.1607 265.33C-80.1502 265.461 -80.1696 265.594 -80.2176 265.721C-80.8212 267.895 -78.2014 266.317 -78.5409 268.222C-78.8805 270.127 -76.3094 271.915 -76.3264 272.317C-76.3479 272.897 -76.2477 273.466 -76.0318 273.992C-75.8158 274.518 -75.4886 274.988 -75.0696 275.376C-76.1007 276.215 -76.3755 275.29 -76.6229 274.763L-76.6326 274.747ZM-40.7564 361.522C-39.7623 362.188 -28.4678 380.525 -26.576 379.975C-28.136 380.565 -26.9004 381.631 -27.5998 382.51C-32.2608 373.936 -41.9922 362.179 -40.8334 361.591L-40.7564 361.522ZM-75.1587 270.96C-79.341 264.449 -83.0896 257.67 -86.3837 250.663C-84.7361 252.919 -75.0248 269.811 -75.1587 270.96ZM104.646 328.645C108.962 333.437 106.627 330.983 107.812 330.946C123.857 357.497 104.42 328.78 104.636 328.629L104.646 328.645ZM-94.2306 240.889C-95.046 241.381 -96.4843 238.257 -97.3032 237.137C-99.7158 233.771 -97.3961 232.832 -96.9412 234.564C-96.2656 237.013 -93.0373 240.084 -94.2306 240.889ZM-77.4494 19.1059C-78.9044 18.4995 -80.5441 8.54213 -81.6309 5.68645C-80.4967 5.7229 -77.131 19.2412 -77.4494 19.1059ZM65.402 155.358C61.07 149.835 62.9999 148.76 61.7613 148.59C60.5228 148.42 60.8114 147.723 60.6565 147.075C60.3485 145.821 62.0748 147.66 62.2775 147.799C63.9566 148.816 62.6072 151.634 64.9534 152.227C65.1425 152.266 64.7134 153.396 64.9585 153.489C66.0217 153.917 65.7595 155.95 65.402 155.358ZM-74.7119 276.163C-73.5358 275.564 -73.4044 279.736 -71.0067 281.825C-70.8907 282.016 -70.1794 283.507 -70.6826 283.81C-71.1857 284.113 -75.861 276.768 -74.7466 276.184L-74.7119 276.163ZM-103.557 22.0727C-101.653 25.5869 -100.186 29.3267 -99.1863 33.2201C-101.337 29.7403 -102.11 25.7584 -103.557 22.0727ZM-92.4843 239.511C-88.485 246.129 -90.4367 242.508 -89.38 242.22C-88.9923 242.117 -88.5975 243.515 -89.0448 243.675C-90.813 244.391 -88.8918 244.281 -88.0916 247.876C-93.5787 238.796 -93.163 239.876 -92.5037 239.479L-92.4843 239.511ZM-159.699 145.793C-157.449 150.652 -155.205 155.187 -152.847 159.676C-155.484 156.096 -159.711 147.457 -159.718 145.761L-159.699 145.793ZM-8.17239 4.40183C-6.46029 5.55106 1.25132 13.182 -12.4014 1.67232C-10.1256 1.32659 -9.60846 3.43521 -8.20137 4.35387L-8.17239 4.40183ZM-87.6997 252.284C-84.7758 253.793 -83.9972 260.955 -86.9739 254.659C-88.298 251.881 -90.9825 250.532 -87.682 250.551C-89.6525 251.519 -86.9597 251.511 -87.7286 252.236L-87.6997 252.284ZM-49.3627 348.26C-48.6524 348.77 -48.8269 349.813 -47.947 350.133C-47.6846 350.215 -47.7573 350.76 -48.39 350.771C-48.2117 349.617 -49.5736 349.674 -49.9139 348.876C-50.4548 347.197 -51.3739 345.676 -52.6091 344.416C-53.6573 343.543 -51.2558 343.601 -50.4408 346.555C-50.195 347.432 -49.812 346.46 -49.4069 346.543C-49.5442 346.649 -49.6556 346.782 -49.732 346.934C-49.8083 347.085 -49.8474 347.249 -49.8459 347.412C-49.8444 347.575 -49.8025 347.733 -49.7235 347.872C-49.6445 348.011 -49.5308 348.128 -49.3917 348.212L-49.3627 348.26ZM3.01637 36.9737C6.1297 41.114 8.90259 45.4928 11.3121 50.0741C8.58416 45.6776 5.87919 41.2018 3.01637 36.9737ZM-134.053 162.072C-136.045 158.948 -137.828 155.697 -139.393 152.337C-137.367 155.44 -135.583 158.693 -134.053 162.072ZM-46.2345 353.593C-44.0067 355.478 -41.2681 360.871 -43.0155 359.155C-44.1643 358.037 -46.8169 353.726 -46.2519 353.604L-46.2345 353.593ZM-149.104 166.535C-143.569 175.695 -143.988 174.726 -144.388 174.967C-149.923 165.807 -149.513 166.76 -149.104 166.535ZM37.312 269.032C37.8868 271.04 34.1067 265.686 34.4573 265.17C35.0312 264.279 36.7428 266.955 37.312 269.032ZM-75.0536 271.878C-75.1695 271.686 -75.664 269.106 -71.5168 276.986C-73.3428 275.688 -73.9119 273.61 -75.0536 271.878ZM119.364 333.343C118.188 333.55 118.598 332.387 118.103 331.922C113.321 327.65 115.441 327.791 115.656 328.185C117.242 331.045 120.82 332.815 119.281 333.283L119.364 333.343ZM-143.818 175.322C-137.439 187.091 -138.656 185.077 -144.356 175.645L-143.818 175.322ZM-147.332 142.096C-145.563 144.74 -144.168 147.615 -143.181 150.65C-144.25 147.784 -146.315 145.386 -147.311 142.171L-147.332 142.096ZM52.3161 342.845C51.3581 343.531 51.4176 341.359 48.8288 339.19C48.9743 338.989 49.1614 338.817 49.377 338.687C49.5927 338.557 49.8319 338.472 50.078 338.437C50.5778 340.556 52.8867 342.458 52.2987 342.856L52.3161 342.845ZM-9.69833 16.091C-11.4881 14.4217 -12.3972 11.9386 -15.4723 11.5883C-13.6134 10.905 -8.99207 14.4013 -9.69637 16.1335L-9.69833 16.091ZM-89.981 246.942C-88.9349 247.577 -90.5961 249.057 -90.566 248.363C-90.5358 247.669 -92.0657 247.369 -91.532 246.764C-90.156 245.478 -91.6081 245.895 -92.1792 245.693C-90.4217 243.981 -90.2261 246.85 -89.979 246.985L-89.981 246.942ZM65.6695 257.297C66.7112 259.04 67.8819 260.702 69.1734 262.273C67.8751 262.161 65.7252 259.073 65.6714 257.34L65.6695 257.297ZM90.2371 348.855C89.7332 348.373 90.4696 347.908 90.8791 348.468C91.9839 349.983 94.4963 350.89 93.7853 351.711C93.2991 351.611 93.9363 352.274 90.3258 348.845L90.2371 348.855ZM60.5978 146.195C59.7224 146.547 60.4487 145.674 59.773 145.143C58.6071 144.232 58.5934 143.935 59.8655 142.907C59.9496 144.143 61.6043 145.785 60.5978 146.195ZM-66.2811 291.406C-67.1486 291.929 -67.1097 290.27 -67.9151 289.251C-68.7204 288.231 -68.0183 288.179 -67.3164 287.931C-67.1526 289.729 -65.5948 291.015 -66.2811 291.406ZM11.5004 65.0698C12.9641 66.8316 14.219 68.7506 15.2442 70.7949C13.9848 69.0242 12.1123 67.492 11.5004 65.0698ZM85.2271 342.366C85.6035 340.678 83.8071 340.016 83.2579 338.559C83.9737 338.804 87.2768 341.568 85.2271 342.366ZM10.2704 407.387L13.9037 412.459C12.2543 411.112 11.0063 409.37 10.2704 407.387ZM-5.3314 27.7419L-9.21338 22.8848C-7.50947 24.1521 -6.1779 25.8182 -5.3314 27.7419ZM-70.5855 284.558C-70.1643 283.258 -68.6131 285.55 -68.7285 285.947C-69.2405 287.018 -68.2129 286.487 -67.9136 286.786C-68.8176 287.483 -70.7874 285.203 -70.5855 284.558ZM109.39 321.929C115.808 327.81 112.698 327.677 109.39 321.929V321.929ZM-79.6271 297.633C-80.7856 296.996 -81.6612 295.988 -82.1144 294.771C-82.0122 292.747 -79.3532 297.577 -79.6271 297.633ZM109.352 322.061C107.968 320.987 106.847 319.637 106.055 318.094C106.588 318.623 109.833 320.899 109.352 322.061ZM-56.2848 37.2112C-57.6718 35.404 -58.5876 33.2858 -58.9624 31.0184C-58.1791 33.0977 -57.1934 35.1203 -56.2848 37.2112ZM82.2864 339.34C81.1377 340.337 77.6035 332.022 81.8998 338.505C81.8152 338.795 82.8935 338.778 82.2671 339.308L82.2864 339.34ZM-84.2505 290.061C-83.6026 290.509 -83.0882 291.109 -82.7513 291.809C-82.4144 292.51 -82.2649 293.291 -82.3156 294.085C-83.1787 292.848 -83.8372 291.481 -84.2698 290.029L-84.2505 290.061ZM-14.0842 16.7045C-12.7573 18.391 -10.8639 19.6054 -10.0613 21.7166C-14.9391 16.3472 -14.5159 17.0081 -14.1035 16.6725L-14.0842 16.7045ZM-73.4691 306.374C-72.1963 308.05 -71.7833 310.221 -70.2329 311.729C-71.6854 310.178 -72.791 308.348 -73.4884 306.342L-73.4691 306.374ZM89.5626 155.984C88.9402 154.68 87.3462 153.961 87.3944 151.926C88.5078 153.018 89.2529 154.414 89.5433 155.952L89.5626 155.984ZM67.1757 361.717C65.8351 359.734 69.5966 361.807 69.0638 363.393C68.5808 362.593 67.514 362.473 67.0696 361.737L67.1757 361.717ZM54.9496 345.402C55.2877 345.962 54.8581 346.504 54.3039 345.9C50.5172 341.748 53.9583 343.644 54.8435 345.422L54.9496 345.402ZM-10.6654 7.56007C-11.5373 7.60542 -10.5654 9.13504 -13.8472 4.52695C-13.9534 4.35111 -13.9576 4.0702 -13.4235 3.85758C-12.8966 5.33803 -11.9419 6.61963 -10.6654 7.56007ZM56.9594 139.861C57.8914 140.15 58.6884 142.526 58.3201 142.661C57.5044 142.956 56.5958 140.865 57.0134 139.872L56.9594 139.861ZM-138.068 90.8195C-137.908 92.4617 -137.855 94.1189 -137.909 95.7818C-137.579 95.7794 -139.315 93.5328 -138.068 90.8195ZM90.5545 158.33C90.7404 157.149 92.0639 159.339 92.657 160.203C92.1322 160.136 91.6508 159.919 91.2734 159.58C90.8959 159.241 90.6391 158.795 90.5352 158.298L90.5545 158.33ZM120.506 356.964C121.02 357.266 120.968 359.412 118.514 355.352C119.6 355.7 119.792 356.566 120.487 356.932L120.506 356.964ZM21.9277 414.146C20.722 413.16 19.8492 411.852 19.4068 410.366C20.2529 411.688 21.2263 412.868 21.9567 414.194L21.9277 414.146ZM-145.404 140.041C-147.789 135.154 -147.597 135.824 -147.179 135.615C-144.674 140.582 -144.852 139.818 -145.375 140.089L-145.404 140.041ZM-135.408 197.422C-134.361 198.312 -133.641 199.504 -133.34 200.843L-135.408 197.422ZM-22.2586 13.1241C-23.5151 12.1998 -25.0529 11.6704 -26.6813 11.6013C-25.8282 11.2981 -24.9119 11.2897 -24.0964 11.5774C-23.281 11.8652 -22.6192 12.4304 -22.2296 13.172L-22.2586 13.1241ZM-91.367 239.95C-91.6085 239.55 -91.2416 238.043 -90.1975 240.554C-89.2244 241.538 -89.3988 242.58 -91.338 239.998L-91.367 239.95ZM-40.4204 359.925C-43.0027 356.553 -43.1551 356.535 -42.6809 356.184C-42.2067 355.833 -40.0424 359.806 -40.4608 360.015L-40.4204 359.925ZM-1.69956 33.3601L-4.27885 29.0921C-2.94711 30.1809 -2.04336 31.6764 -1.69956 33.3601ZM71.8392 386.663C71.3014 386.987 67.6054 382.868 71.7245 385.729C71.8213 386.085 72.2363 386.38 71.8392 386.663ZM72.0352 178.551C71.5293 178.027 72.1422 177.593 72.7465 178.123C72.9202 178.215 75.3525 182.004 72.0352 178.551ZM116.416 325.918C116.329 325.774 116.405 325.313 116.548 325.511C117.089 326.21 117.738 325.012 117.57 325.244C117.033 325.96 119.15 329.503 116.416 325.918ZM5.65847 44.3217C6.90616 45.482 7.90465 46.8687 8.60412 48.4127L5.65847 44.3217ZM-43.4549 355.648C-44.2802 354.694 -44.8896 353.579 -45.2481 352.367C-44.6703 353.48 -43.3752 354.291 -43.4549 355.648ZM-84.1914 287.3C-81.2933 292.096 -83.4669 288.499 -84.8494 289.07C-84.3157 288.465 -83.7933 287.998 -84.1914 287.3ZM-142.462 151.721C-142.109 153.362 -140.667 154.456 -140.394 156.123C-141.39 154.815 -142.065 153.296 -142.375 151.669L-142.462 151.721ZM-56.6036 38.6023C-55.1216 39.2143 -53.6839 41.7497 -55.0138 40.959C-55.3386 40.1081 -56.3306 39.6807 -56.5169 38.5501L-56.6036 38.6023ZM93.1207 163.085C92.802 162.558 92.9171 161.965 92.5191 161.267C94.2805 161.558 94.2195 164.277 93.1207 163.085ZM-148.727 130.312C-149.569 129.174 -150.198 127.895 -150.588 126.528C-149.724 127.623 -149.104 128.888 -148.766 130.248L-148.727 130.312ZM81.0997 334.909L83.2399 337.981C82.1126 337.262 81.3356 336.144 81.061 334.846L81.0997 334.909ZM119.349 333.395C119.983 334.758 121.575 335.434 122.02 336.954C121.821 336.703 118.284 332.925 119.31 333.331L119.349 333.395ZM-140.301 150.442C-140.734 149.373 -141.977 148.726 -141.747 147.345C-141.352 148.35 -140.335 149.132 -140.374 150.399L-140.301 150.442ZM-91.4573 275.826C-90.1266 277.597 -90.1264 277.793 -91.7561 278.033C-90.6959 277.242 -92.0102 276.595 -91.5114 275.814L-91.4573 275.826ZM64.7579 305.441C65.2706 305.686 65.7031 306.053 66.0168 306.511C66.3306 306.969 66.5159 307.502 66.5562 308.064L64.7579 305.441ZM100.765 310.553C101.366 312.371 104.771 316.556 100.348 310.804L100.765 310.553ZM-87.6654 247.837L-86.3183 250.536C-87.7524 249.612 -88.0018 249.043 -87.7194 247.826L-87.6654 247.837ZM75.4538 390.373C76.7887 390.507 76.6723 391.645 77.1474 392.275C76.7008 392.136 76.3061 391.888 76.0005 391.553C75.6949 391.219 75.4882 390.809 75.3998 390.362L75.4538 390.373ZM61.3887 353.668C62.0831 354.374 62.6372 355.198 63.0268 356.105C62.5148 355.918 62.0819 355.586 61.7812 355.151C61.4806 354.716 61.3253 354.197 61.3348 353.657L61.3887 353.668ZM98.5642 307.147C98.6773 308.431 99.7427 309.097 100.228 310.135C99.7092 309.814 99.2839 309.377 98.9858 308.856C98.6877 308.336 98.5248 307.747 98.5101 307.136L98.5642 307.147ZM113.754 321.983L111.952 319.667C112.749 320.124 113.708 320.615 113.651 321.892L113.754 321.983ZM-155.41 135.034C-155.772 133.782 -156.277 132.58 -156.914 131.449C-156.442 131.893 -156.073 132.43 -155.829 133.028C-155.585 133.627 -155.472 134.274 -155.495 134.933L-155.41 135.034ZM-46.1226 353.7C-47.3403 353.213 -46.7612 351.665 -47.7359 351.031C-46.402 352.102 -45.8854 353.623 -46.2075 353.599L-46.1226 353.7ZM-93.746 243.258C-94.7121 241.659 -91.0254 242.121 -92.7798 243.134C-93.1966 242.992 -93.5219 243.668 -93.831 243.156L-93.746 243.258ZM95.8989 303.716C96.8044 304.542 97.4892 305.568 97.9021 306.717C97.5814 306.147 95.6276 304.402 95.8989 303.716ZM-135.665 196.487C-135.968 196.346 -136.225 196.133 -136.414 195.867C-136.603 195.601 -136.72 195.291 -136.753 194.962C-135.917 195.091 -135.899 195.865 -135.665 196.487ZM-149.342 166.024C-150.054 165.331 -150.492 164.414 -150.587 163.416C-149.894 164.133 -149.487 165.069 -149.429 166.077L-149.342 166.024ZM122.098 333.245C122.86 333.723 123.742 334.086 123.832 335.253C122.668 334.972 122.791 333.765 122.046 333.276L122.098 333.245ZM70.9938 176.867C70.3562 175.812 71.5305 175.367 71.7549 175.973C72.2308 177.387 71.2819 177.501 70.9418 176.899L70.9938 176.867ZM78.1372 276.127C77.2047 275.259 76.5391 274.158 76.2051 272.93L78.1372 276.127ZM55.9646 347.669C55.4614 347.972 55.5684 347.014 55.0532 346.866C54.5381 346.718 55.6366 345.599 55.8979 346.619C55.9947 346.975 56.5584 347.398 55.9646 347.669ZM-151.787 161C-150.575 163.475 -150.689 163.129 -150.907 163.239C-152.337 160.873 -152.265 161.266 -151.806 160.968L-151.787 161ZM-124.997 94.5913L-124.453 97.0977C-124.82 96.8063 -125.073 96.4033 -125.174 95.9469C-125.275 95.4905 -125.22 95.0045 -125.017 94.5593L-124.997 94.5913ZM60.5266 249.101C61.7405 249.7 61.7975 250.734 62.3536 251.38C61.1941 251.184 61.1642 250.156 60.5266 249.101ZM9.40907 50.9585L11.0972 53.3213C10.6039 53.111 10.1853 52.7767 9.88255 52.3512C9.57977 51.9257 9.40332 51.4237 9.37042 50.8945L9.40907 50.9585ZM15.4774 60.6473C15.7189 61.0469 16.6412 61.32 16.115 61.7023C14.8427 62.5339 14.4547 58.407 15.3692 60.6252L15.4774 60.6473ZM170.197 317.252C170.996 317.824 171.59 318.617 171.909 319.536C171.11 318.964 170.516 318.171 170.197 317.252ZM-6.12827 384.951C-6.68603 384.654 -5.8215 385.028 -6.26486 383.354C-5.1385 383.221 -5.17108 385.399 -6.17657 384.871L-6.12827 384.951ZM-49.7007 67.4107C-49.3654 67.7294 -49.1082 68.1168 -48.9453 68.5481C-48.7825 68.9793 -48.7176 69.445 -48.755 69.9153L-49.7007 67.4107ZM77.6166 392.777C78.2298 393.056 78.6884 393.562 78.8949 394.188C78.5184 393.76 77.4113 393.925 77.6166 392.777ZM55.0793 243.18C54.8357 242.542 53.6996 242.659 53.8429 241.33C54.3877 242.114 55.148 242.354 55.0793 243.18ZM29.2764 257.497C28.8107 256.821 28.5239 256.038 28.4389 255.211C28.7887 255.829 29.7323 256.176 29.2764 257.497ZM-18.5448 128.402L-17.3387 130.75C-18.4888 130.374 -18.1505 129.211 -18.5448 128.402ZM37.9302 123.958C37.9618 123.993 37.9845 124.034 37.9965 124.08C38.0086 124.126 38.0098 124.174 38.0001 124.221C37.9903 124.269 37.9699 124.315 37.9403 124.355C37.9106 124.395 37.8724 124.43 37.8285 124.455C37.8285 124.455 37.487 124.399 37.4774 124.383C37.9491 121.483 35.4128 121.789 37.9302 123.958ZM95.8795 303.684C94.9301 303.144 94.1193 302.416 93.4971 301.543C95.5132 301.942 95.7064 304.18 95.8795 303.684ZM12.8829 52.791C13.2261 53.0002 13.5032 53.2924 13.6892 53.6411C13.8751 53.9899 13.964 54.384 13.9477 54.7879C13.6075 53.9899 12.8567 53.5699 12.8443 52.727L12.8829 52.791ZM113.212 326.648C114.826 325.676 115.559 329.355 113.212 326.648V326.648ZM81.399 173.371L82.1643 174.872C80.8715 174.495 80.8213 174.372 81.291 173.348L81.399 173.371ZM86.2784 291.086C86.9141 291.884 87.4428 292.758 87.8531 293.692L86.2784 291.086ZM95.9484 320.91C96.4689 320.596 97.8947 322.877 97.1459 322.5C96.3971 322.122 95.7519 321.094 95.8924 320.856L95.9484 320.91ZM64.5644 304.925C64.12 304.189 63.2092 303.779 63.2506 302.751C63.8352 303.317 64.2541 304.023 64.4698 304.807L64.5644 304.925ZM18.4232 63.0158C18.2195 61.8957 17.2929 61.1455 16.9444 59.7857C18.9557 63.153 18.824 62.6219 18.3285 62.8984L18.4232 63.0158ZM-76.769 300.992L-77.9282 299.074C-77.3422 299.506 -76.9521 300.138 -76.8289 300.854L-76.769 300.992ZM64.8284 358.029C64.499 357.984 64.1976 357.845 63.9623 357.63C63.727 357.415 63.5682 357.133 63.5059 356.819C63.93 356.542 63.602 356.391 64.8284 358.029ZM167.451 313.804C167.83 313.96 168.151 314.212 168.384 314.535C168.617 314.858 168.752 315.241 168.776 315.645C168.158 315.173 167.675 314.561 167.364 313.857L167.451 313.804ZM-141.826 151.208C-142.569 150.761 -142.56 149.993 -142.711 149.234C-142.433 149.48 -142.219 149.787 -142.084 150.131C-141.95 150.476 -141.898 150.85 -141.932 151.228L-141.826 151.208ZM-55.0661 36.7608C-55.0982 35.4938 -56.4664 34.8352 -56.3848 33.5215C-56.9654 33.5005 -55.166 35.1858 -55.1722 36.7811L-55.0661 36.7608ZM12.9143 57.307C12.4498 56.7738 12.1111 56.1467 11.9191 55.4644C12.1093 55.5215 12.2833 55.6151 12.4309 55.7397C12.5786 55.8643 12.6972 56.0175 12.7798 56.1905C12.8624 56.3636 12.9074 56.553 12.9123 56.7481C12.9171 56.9432 12.8818 57.1399 12.8083 57.3272L12.9143 57.307ZM72.101 366.382C72.52 366.762 70.6007 366.719 70.8442 365.242C71.5869 365.296 71.5856 366.038 71.9949 366.402L72.101 366.382ZM19.8086 65.3865L18.6977 63.5482C19.8094 64.2523 19.8094 64.2523 19.8086 65.3865ZM75.9114 272.365C75.2456 272.047 74.4623 271.886 74.6327 270.563L75.9114 272.365ZM94.1133 164.101C94.2111 163.519 95.4189 163.794 94.8764 165.364C94.5884 164.73 94.0868 164.684 94.1133 164.101ZM79.6921 171.564C78.4652 169.534 78.6198 169.79 78.8203 169.691C80.0394 171.747 79.8752 171.476 79.6226 171.606L79.6921 171.564ZM-58.2796 29.0157L-59.2712 26.8657C-58.924 27.1011 -58.6509 27.4218 -58.4774 27.7978C-58.304 28.1738 -58.2359 28.5928 -58.2796 29.0157ZM95.1931 211.154C94.8743 210.626 94.0621 210.418 94.0554 209.506C94.3522 209.691 94.6018 209.935 94.7886 210.224C94.9754 210.513 95.0954 210.84 95.141 211.185L95.1931 211.154ZM38.2272 102.129L37.1863 100.838C38.4343 100.827 38.3135 101.489 38.1752 102.161L38.2272 102.129ZM-30.1858 11.9893C-29.3694 12.5163 -28.7727 13.2972 -28.4861 14.2143C-28.9325 13.4366 -29.8954 13.0571 -30.2378 12.0206L-30.1858 11.9893ZM165.379 311.433C165.775 312.088 166.775 312.293 166.911 313.301C166.152 312.911 165.603 312.241 165.379 311.433ZM-92.4141 244.287C-91.9109 243.984 -91.197 244.186 -92.5787 245.542C-92.4884 245.182 -93.0561 244.674 -92.4141 244.287ZM-146.972 179.03C-146.598 179.415 -146.04 179.712 -146.278 180.531C-146.528 180.373 -146.724 180.151 -146.846 179.887C-146.968 179.623 -147.011 179.327 -146.972 179.03ZM8.3706 50.2974C7.29792 48.1309 7.27905 48.4911 7.68777 48.2668C8.85114 50.4659 8.87772 50.0793 8.39961 50.3455L8.3706 50.2974ZM144.772 342.57C144.274 342.216 143.579 342.046 143.488 341.033C143.831 341.166 144.129 341.381 144.358 341.657C144.587 341.933 144.739 342.263 144.801 342.618L144.772 342.57ZM61.9792 300.53C62.394 300.629 62.3033 302.515 60.8826 299.577C61.8162 299.516 61.4409 300.461 62.0081 300.577L61.9792 300.53ZM21.6964 82.6072C21.405 82.415 21.1627 82.1638 20.9848 81.8693C20.8068 81.5749 20.6971 81.2438 20.6628 80.8968C21.6007 81.3131 21.4837 82.0594 21.6964 82.6072ZM12.3409 54.7526C10.689 52.0191 10.8532 52.2908 10.9747 52.2177C12.6556 54.9991 12.5318 54.6376 12.3409 54.7526ZM122.038 335.221C122.706 335.778 123.572 335.802 123.465 336.76C123.256 336.101 122.345 336.082 122.038 335.221ZM126.971 361.357C126.971 361.357 127.049 361.135 127.121 361.135C127.917 361.004 127.747 361.936 128.231 362.189C127.816 361.894 127.116 361.989 127.005 361.336L126.971 361.357ZM-112.071 84.8889C-112.187 84.6971 -111.141 79.968 -112.071 84.8889V84.8889ZM74.154 181.352C73.71 181.009 74.5715 180.36 74.9331 181.232C75.049 181.424 75.1843 181.648 74.8546 181.846C74.525 182.045 74.3683 181.55 74.1366 181.363L74.154 181.352ZM72.9586 367.566C73.5566 367.577 73.4782 368.191 73.7621 368.543C72.4117 368.462 72.4706 367.62 72.9586 367.566ZM-12.0121 3.33467C-13.0882 3.59023 -12.7253 1.80195 -14.483 1.39962C-12.6782 0.705253 -12.6444 3.73722 -12.0121 3.33467ZM132.148 296.19C132.583 296.909 133.25 297.466 133.662 298.265C133.251 298.067 132.9 297.777 132.638 297.417C132.375 297.056 132.207 296.636 132.148 296.19ZM-88.2121 282.527C-87.7995 282.387 -87.2812 283.754 -87.489 284.272C-88.3778 282.801 -88.5901 282.645 -88.2121 282.527ZM80.6577 172.77C80.55 173.14 79.8633 173.14 79.8815 171.995C80.2616 172.115 80.8827 172.046 80.6577 172.77ZM69.015 161.337C69.6743 160.94 68.9561 160.26 69.4707 159.819C69.8055 160.882 69.8054 160.882 69.015 161.337ZM23.1719 70.5995C23.0554 69.8194 21.653 69.77 22.003 68.6653L23.1719 70.5995ZM24.5386 73.5266C24.1811 72.9351 24.2498 72.1089 23.58 71.7055C24.1206 72.2085 24.6786 72.7009 24.4885 73.6003L24.5386 73.5266ZM122.337 276.589C121.19 276.451 121.376 275.271 120.692 274.767C121.293 275.328 121.843 275.937 122.337 276.589ZM-9.98316 4.969C-11.9202 4.54389 -13.4684 1.35555 -9.98316 4.969V4.969ZM-135.806 92.0955L-136.151 94.0694C-136.399 92.9542 -136.399 92.9542 -135.777 92.1434L-135.806 92.0955ZM-46.286 73.9227C-46.3802 74.1975 -47.6101 73.063 -47.3293 72.1963C-46.4287 73.9214 -45.8818 73.0252 -46.257 73.9706L-46.286 73.9227ZM40.1204 105.066C40.5789 105.519 40.8629 106.113 40.9304 106.759C40.6706 106.572 40.4647 106.326 40.3291 106.04C40.1934 105.755 40.1318 105.437 40.1494 105.114L40.1204 105.066ZM128.709 343.871C129.878 343.69 129.531 344.488 129.744 345.036L128.709 343.871ZM54.5454 296.961L55.7909 298.239C54.9537 298.263 54.8161 297.605 54.5744 297.009L54.5454 296.961ZM-145.965 118.555C-145.93 117.945 -146.699 117.536 -146.208 116.782C-146.373 117.449 -145.605 117.858 -145.965 118.555ZM80.8135 282.865C80.0937 282.536 80.2242 281.89 79.9634 281.459C80.2301 281.594 80.4555 281.79 80.6216 282.03C80.7877 282.271 80.8897 282.55 80.9195 282.845L80.8135 282.865ZM101.092 347.747L102.126 349.457C101.143 348.457 101.143 348.457 101.198 347.727L101.092 347.747ZM91.1404 298.035L92.9536 300.017C92.5193 299.842 92.1358 299.576 91.8293 299.238C91.5228 298.9 91.3004 298.497 91.1771 298.056L91.1404 298.035ZM14.3803 55.2687L15.2848 57.0787C14.9626 56.9049 14.706 56.6418 14.5456 56.3208C14.3852 55.9999 14.3278 55.6346 14.3803 55.2687ZM-147.383 178.624C-148.111 178.321 -147.963 177.665 -148.118 177.213C-147.87 177.35 -147.667 177.55 -147.53 177.791C-147.392 178.033 -147.324 178.309 -147.331 178.593L-147.383 178.624ZM21.4288 79.1492C21.7283 79.6447 22.5792 79.9172 22.3487 80.9063L21.4288 79.1492ZM115.71 324.555C115.337 324.212 114.707 324.069 114.928 323.26C115.15 323.824 115.906 323.783 115.791 324.571L115.71 324.555ZM65.3115 358.828C66.3351 358.212 65.8958 360.656 65.3718 359.359C65.2405 359.22 64.868 359.073 65.3115 358.828ZM45.172 116.479C45.3865 116.596 45.5419 116.789 45.6072 117.02C45.6724 117.251 45.6428 117.504 45.5243 117.728C45.2751 117.355 44.6672 117.132 45.172 116.479ZM-37.6616 364.216C-37.9177 364.101 -38.1186 363.901 -38.2309 363.652C-38.3431 363.402 -38.3598 363.116 -38.2783 362.843C-37.7956 363.25 -37.4964 363.549 -37.6616 364.216ZM-89.7639 281.564C-89.9926 281.456 -90.1813 281.287 -90.3091 281.075C-90.4369 280.864 -90.4989 280.618 -90.4884 280.366C-90.3508 280.385 -90.2211 280.433 -90.108 280.506C-89.9949 280.578 -89.9011 280.675 -89.8325 280.788C-89.764 280.902 -89.7224 281.029 -89.7106 281.163C-89.6987 281.297 -89.7169 281.434 -89.7639 281.564ZM-90.1104 248.765C-90.0063 248.702 -89.7555 248.725 -89.5684 248.722C-89.9774 250.668 -90.3127 249.017 -90.1104 248.765ZM-2.08221 34.528C-2.33057 34.4499 -2.54201 34.2976 -2.68734 34.0922C-2.83267 33.8868 -2.90478 33.6384 -2.89357 33.3814C-2.47895 33.2843 -2.66813 33.0494 -2.08221 34.528ZM123.389 278.485C122.791 278.028 122.394 277.372 122.268 276.631C122.78 277.282 123.367 277.626 123.389 278.485ZM92.9363 347.447C92.6004 347.126 93.4582 346.588 93.7519 347.152C94.0457 347.717 93.3843 347.875 92.9363 347.447ZM73.0401 269.298C72.6927 269.115 73.9308 268.892 74.2289 269.934L73.0401 269.298ZM48.6709 383.02C48.419 382.932 48.2023 382.777 48.0448 382.571C47.8874 382.366 47.7953 382.119 47.7787 381.857C48.0479 381.919 48.2816 382.067 48.4431 382.277C48.6046 382.488 48.6848 382.749 48.6709 383.02ZM-154.509 166.323C-154.175 166.753 -153.893 167.219 -153.669 167.714C-154.787 166.295 -154.752 166.47 -154.509 166.323ZM-147.079 146.391C-148.007 146.187 -147.457 145.376 -147.891 145.049C-147.44 145.364 -147.149 145.846 -147.079 146.391ZM95.9059 320.761C94.8817 320.789 95.3671 320.104 95.1138 319.45C96.6171 320.136 95.7442 321.12 95.9349 320.809L95.9059 320.761ZM-145.455 181.932C-145.026 182.275 -144.738 182.753 -144.634 183.291C-145.163 182.846 -145.769 182.666 -145.455 181.932ZM86.6141 150.87C86.7604 150.564 87.6093 150.794 87.0608 152.04C86.9311 151.551 86.4043 151.345 86.6662 150.838L86.6141 150.87ZM58.4775 351.279C58.1781 350.784 58.8626 350.546 59.1195 350.892C59.1726 350.924 59.2156 350.968 59.2443 351.021C59.2729 351.074 59.2865 351.135 59.2835 351.197C59.2806 351.258 59.2612 351.32 59.2274 351.374C59.1936 351.429 59.1463 351.476 59.0901 351.509C59.0339 351.543 58.9707 351.563 58.9064 351.568C58.8421 351.572 58.7789 351.561 58.7228 351.534C58.6667 351.508 58.6194 351.468 58.5856 351.418C58.5518 351.368 58.5326 351.309 58.5297 351.248L58.4775 351.279ZM57.5115 349.681C57.3099 348.603 58.3232 349.301 57.8356 349.747C57.7469 349.757 57.4905 349.802 57.4615 349.754L57.5115 349.681ZM-56.9271 31.2536C-57.0935 30.7433 -57.7727 30.5201 -57.8932 29.6551L-56.9271 31.2536ZM56.579 348.803C56.3955 348.499 57.1434 347.896 57.2905 348.375C57.4375 348.853 56.6605 349.212 56.5386 348.893L56.579 348.803ZM-20.2281 32.2647C-20.8533 32.0525 -21.0137 31.6695 -21.2016 30.8887C-20.6437 31.3812 -20.1728 31.5337 -20.2281 32.2647ZM1.85715 35.0555C2.34176 35.505 2.73173 35.837 2.46042 36.5236C2.44447 35.9882 1.70552 35.8227 1.85715 35.0555ZM125.514 359.574C125.215 359.078 124.806 359.106 124.952 358.408C125.294 358.66 125.724 358.706 125.514 359.574ZM72.6747 268.537C72.4879 268.412 72.3324 268.249 72.2178 268.06C72.1032 267.87 72.0318 267.657 72.0082 267.434C72.2207 267.785 73.0231 267.782 72.6747 268.537ZM-127.47 173.827C-127.263 173.95 -127.101 174.13 -127.004 174.346C-126.907 174.562 -126.879 174.805 -126.923 175.046C-127.119 174.912 -127.272 174.73 -127.368 174.517C-127.463 174.303 -127.499 174.066 -127.47 173.827ZM75.582 185.987C74.3504 186.925 75.0151 184.148 75.6397 185.69C75.6764 185.712 75.8096 185.893 75.6207 186.051L75.582 185.987ZM-9.92148 14.7429C-8.45007 14.3583 -8.68532 16.3967 -8.56228 15.9738C-9.87906 14.6955 -9.76354 14.4952 -9.88283 14.8068L-9.92148 14.7429ZM100.464 326.541C100.975 326.604 100.821 327.132 101.024 327.468C100.005 327.231 100.005 326.447 100.464 326.541ZM-147.722 132.367C-146.756 133.966 -146.833 133.838 -146.982 133.905C-147.977 132.259 -147.93 132.492 -147.722 132.367ZM52.3233 387.732C52.2582 388.251 51.6024 388.341 51.5029 387.158C51.939 387.331 52.3729 387.266 52.3233 387.732ZM-112.081 84.873C-111.689 85.2474 -111.304 84.7102 -110.783 84.7889C-111.802 85.6863 -112.267 86.2493 -112.054 84.8785L-112.081 84.873ZM100.084 323.172C100.883 323.28 101.02 323.742 100.828 324.403C100.977 324.335 100.033 323.792 100.05 323.193L100.084 323.172ZM-26.6176 15.4656C-26.8393 15.3491 -27.0223 15.1779 -27.1491 14.968C-27.2759 14.7582 -27.3423 14.5167 -27.3422 14.2667C-27.3455 14.7702 -26.2732 14.6259 -26.6176 15.4656ZM118.903 329.173C118.963 328.919 119.54 329.051 119.616 330.117C119.068 329.837 118.782 329.638 118.903 329.173ZM-27.2936 12.6241C-27.959 12.6978 -28.1736 12.3037 -28.3825 11.6447C-27.7978 11.9466 -27.3539 12.0936 -27.2936 12.6241ZM-85.1022 257.326C-85.0813 257.008 -84.0125 257.171 -84.4843 257.956C-84.7353 257.737 -85.1462 257.723 -85.1022 257.326ZM60.0495 353.058C59.8273 352.69 60.2418 352.397 60.6394 352.702C61.0371 353.008 60.2427 353.377 60.0495 353.058ZM3.43844 40.4914C3.21919 41.1467 4.21643 41.113 4.17264 41.7063C2.95125 41.3298 3.1782 40.6481 3.43844 40.4914ZM70.6404 265.249C70.5535 265.105 70.4472 264.929 70.6921 264.825C71.7101 264.277 70.9958 265.798 70.5767 265.222L70.6404 265.249ZM-144.549 127.71C-144.435 128.251 -144.279 128.549 -144.675 129.028C-144.79 128.83 -144.839 128.599 -144.816 128.365C-144.794 128.13 -144.701 127.903 -144.549 127.71ZM27.7167 92.6083L28.3586 93.9442C27.6523 93.7154 27.92 93.3362 27.7167 92.6083ZM107.055 334.628C106.569 334.921 106.335 334.103 106.688 334.021C106.776 333.968 106.879 333.95 106.975 333.97C107.071 333.989 107.153 334.046 107.201 334.126C107.25 334.207 107.262 334.305 107.235 334.399C107.207 334.493 107.143 334.576 107.055 334.628ZM-148.728 176.164C-148.96 175.78 -149.389 175.58 -149.356 175.124C-149.032 175.387 -148.627 175.666 -148.728 176.164ZM131.416 299.835C131.013 299.402 132.156 298.67 131.985 299.798C131.693 300.018 131.523 300.011 131.416 299.835ZM81.0806 179.187C81.4171 180.097 80.2824 179.668 80.7833 178.93C80.8605 179.058 80.988 179.112 81.0286 179.219L81.0806 179.187ZM94.2949 318.526C94.8154 318.213 95.1133 319.058 95.0291 319.741L94.2949 318.526ZM-82.2802 290.815C-81.7864 290.889 -81.7032 291.144 -81.9824 291.661C-82.2874 291.43 -82.5557 291.221 -82.2802 290.815ZM100.106 325.95C99.6142 325.723 98.8619 325.652 99.3915 324.767L100.106 325.95ZM-75.4593 302.885C-75.4248 302.668 -76.4275 302.967 -76.1274 302.132C-75.947 302.176 -75.7877 302.271 -75.669 302.404C-75.5503 302.538 -75.4774 302.705 -75.4593 302.885ZM-41.4966 359.984C-41.2986 360.068 -41.1482 360.226 -41.0774 360.424C-41.0065 360.621 -41.0209 360.843 -41.1175 361.042C-41.222 360.713 -41.9126 360.627 -41.4966 359.984ZM56.584 292.659C56.6999 292.851 56.3816 292.912 56.2428 292.996C55.4544 293.492 55.5627 291.792 56.584 292.659ZM-128.811 177.208C-129.396 176.906 -129.433 176.492 -129.584 175.929C-129.163 176.351 -128.752 176.561 -128.811 177.208ZM115.51 343.294C115.011 343.29 115.018 342.871 114.717 342.529C115.83 342.491 115.977 343.362 115.51 343.294ZM38.8218 102.643C39.0129 102.748 39.1515 102.92 39.2106 103.127C39.2696 103.333 39.2449 103.558 39.1413 103.759C39.0098 103.424 38.3961 103.27 38.8218 102.643ZM-96.0778 42.1622C-96.2519 41.6783 -96.5318 41.4108 -96.3337 40.8772C-95.9013 41.1619 -96.0534 41.537 -96.0972 42.1302L-96.0778 42.1622ZM101.977 353.362C102.1 353.135 102.6 353.14 102.46 354.161C102.248 353.81 101.704 353.81 101.958 353.33L101.977 353.362ZM73.9052 388.711C75.0932 388.563 74.1686 389.774 73.7762 389.007C73.7646 388.949 73.8955 388.695 73.9052 388.711ZM-125.042 184.814C-125.274 184.431 -125.001 184.179 -124.481 184.607C-123.962 185.036 -124.704 185.374 -125.042 184.814ZM-19.0317 127.518C-19.1407 127.496 -19.2415 127.451 -19.3268 127.386C-19.412 127.321 -19.4795 127.236 -19.5243 127.14C-19.569 127.043 -19.5898 126.937 -19.5852 126.828C-19.5805 126.719 -19.5506 126.611 -19.4976 126.512L-19.0317 127.518ZM45.8819 412.825L46.7528 413.717C46.365 413.624 45.6242 413.612 45.8819 412.825ZM118.764 328.864L118.281 328.065C118.767 328.164 118.926 328.505 118.677 328.916L118.764 328.864ZM85.3164 289.572L84.4685 288.404C84.7409 288.464 84.9716 288.624 85.1132 288.851C85.2548 289.078 85.2965 289.355 85.2297 289.625L85.3164 289.572ZM-144.365 141.094C-144.346 140.734 -144.824 140.804 -144.857 140.279C-144.518 140.488 -144.294 140.702 -144.365 141.094ZM123.424 360.462C123.936 361.309 122.402 360.728 122.946 360.336C123.223 360.168 123.337 360.318 123.424 360.462ZM93.8683 318.173C93.6948 318.277 93.4634 318.286 93.4188 318.094C93.1359 316.804 94.8516 317.646 93.8683 318.173ZM58.7415 141.557C58.8821 141.319 59.5244 141.325 59.1762 142.276C59.1354 141.973 58.4854 141.994 58.7415 141.557ZM-118.331 189.537C-118.128 189.873 -118.841 190.455 -118.781 189.067C-118.616 189.21 -118.465 189.367 -118.331 189.537ZM78.5437 374.341C78.2444 374.041 78.8168 373.501 79.0683 374.308C79.0427 374.363 79.0025 374.412 78.9521 374.448C78.9016 374.485 78.8429 374.508 78.7819 374.515C78.7209 374.523 78.6602 374.515 78.606 374.491C78.5518 374.468 78.5064 374.43 78.4744 374.383L78.5437 374.341ZM-140.41 153.276C-140.435 153.314 -140.468 153.346 -140.507 153.37C-140.547 153.394 -140.591 153.408 -140.636 153.412C-141.585 153.526 -140.448 152.274 -140.41 153.276ZM117.537 344.886L116.493 344.294C117.236 344.152 117.504 344.361 117.557 344.918L117.537 344.886ZM-71.172 7.95659C-71.0028 7.37507 -71.9001 7.06509 -71.2951 6.26478C-71.264 6.55126 -70.7167 7.96587 -71.1527 7.98855L-71.172 7.95659ZM-60.0598 25.2476C-60.4768 24.91 -60.0725 24.0126 -59.5543 25.3793C-59.7877 25.3454 -59.9478 25.3546 -60.0405 25.2795L-60.0598 25.2476ZM46.2066 227.833C46.1792 227.435 45.5252 227.371 45.7638 226.748C45.947 226.864 46.088 227.032 46.1699 227.23C46.2518 227.428 46.2712 227.648 46.226 227.865L46.2066 227.833ZM37.9121 97.4572C38.0667 97.713 38.4738 97.8385 38.3855 98.2405C38.0264 97.9989 38.1 98.238 37.9314 97.4892L37.9121 97.4572ZM13.5437 57.8001C14.256 58.3523 12.9409 58.839 13.0709 57.6052C13.2343 57.658 13.3924 57.7232 13.5437 57.8001ZM31.9239 86.8045C32.3405 86.7498 32.3409 87.142 32.1812 87.5434C31.826 87.1905 31.4533 86.848 31.9934 86.7627L31.9239 86.8045ZM60.8328 252.426C60.6115 252.282 60.4276 252.092 60.2928 251.869C60.1581 251.646 60.0755 251.395 60.0503 251.132L60.8328 252.426ZM40.0619 127.994C40.4268 128.363 39.4627 128.726 39.4751 127.65C39.717 127.719 39.9487 127.813 40.166 127.931L40.0619 127.994ZM96.8158 168.142C97.7874 167.557 96.9445 169.569 96.5037 168.526C96.7099 168.358 96.7984 168.153 96.9199 168.079L96.8158 168.142ZM78.3246 331.61C78.9318 331.244 78.9102 332.892 78.2572 331.89C78.3767 331.774 78.3593 331.589 78.4287 331.547L78.3246 331.61ZM76.7827 186.877C76.4375 186.932 76.1043 187.438 75.7875 186.953L75.6716 186.761C76.3096 186.29 76.6558 187.215 76.7827 186.877ZM5.0238 44.2896C5.17726 44.4081 5.28756 44.5702 5.34061 44.7555C5.39366 44.9409 5.38716 45.1411 5.32194 45.331C4.91463 45.0094 4.67896 44.7371 5.0238 44.2896ZM3.94303 43.6759C3.69184 43.5123 3.51533 43.2642 3.44479 42.9755C3.37426 42.6868 3.41423 42.3761 3.55759 42.0984L3.94303 43.6759ZM5.28303 54.8602C5.02653 54.9057 4.70397 54.4894 4.99321 54.3807C5.75483 54.0746 5.55689 54.8043 5.28303 54.8602ZM9.88883 62.2466C9.72829 62.136 9.5944 61.9943 9.49492 61.8297C9.39544 61.6651 9.33232 61.4808 9.30921 61.2875C9.77036 61.424 9.85751 61.764 9.88883 62.2466ZM122.488 351.629C122.509 351.899 122.002 351.921 121.743 350.944C122.246 351.229 122.507 351.269 122.488 351.629ZM72.1368 266.746L71.291 265.816C71.8677 265.752 72.0589 266.03 72.1888 266.714L72.1368 266.746ZM-0.314152 43.6014C-0.58464 43.1538 -0.966746 42.9915 -0.932423 42.5784C-0.471275 42.7149 -0.428485 43.0598 -0.314152 43.6014ZM88.129 291.759C87.6779 292.031 87.5444 291.654 87.5034 291.155L88.129 291.759ZM-102.14 256.27C-102.178 256.598 -103.013 256.273 -102.169 255.83C-102.151 255.982 -102.153 256.137 -102.174 256.291L-102.14 256.27ZM5.82529 51.1761C5.9755 51.2982 6.09355 51.4525 6.17106 51.6281C6.24857 51.8037 6.28363 51.9964 6.27378 52.1924C5.97449 51.893 5.61746 51.6937 5.82529 51.1761ZM122.178 243.393C121.902 243.21 122.717 242.523 122.722 243.588C122.53 243.549 122.347 243.483 122.178 243.393ZM-140.574 190.439C-140.21 190.22 -140.314 190.871 -140.198 191.063C-140.603 190.784 -140.869 190.617 -140.574 190.439ZM45.9736 115.691C46.371 115.801 46.5179 116.083 46.7172 116.726C46.3444 116.485 46.0812 116.118 45.9736 115.691ZM72.4011 160.126C72.2636 159.664 72.9736 159.781 72.8565 160.332C72.8106 160.352 72.7613 160.363 72.712 160.364C72.6627 160.364 72.6146 160.354 72.5712 160.335C72.5278 160.315 72.49 160.286 72.4606 160.25C72.4312 160.214 72.4109 160.172 72.4011 160.126ZM-88.8072 249.942C-89.4618 249.29 -87.6795 249.263 -88.6623 250.182C-88.5679 250.103 -88.7049 250.033 -88.8072 249.942ZM-55.3816 17.8738L-54.6597 16.5234C-54.639 17.9281 -55.561 17.851 -55.3816 17.8738ZM-11.1333 377.608C-11.1568 377.296 -10.4488 377.371 -10.365 378.214C-10.7451 378.094 -11.1213 378.059 -11.1333 377.608ZM-85.1769 249.958C-84.5379 250.467 -85.1722 250.827 -85.296 250.466L-85.1769 249.958ZM-154.429 135.992C-154.932 135.161 -154.874 135.256 -154.779 135.178C-154.202 135.898 -154.254 135.734 -154.468 135.928L-154.429 135.992ZM-14.4212 13.2883C-14.2592 13.3653 -14.1181 13.4754 -14.0074 13.6115C-13.8966 13.7476 -13.8185 13.9067 -13.7781 14.0784C-13.981 14.0379 -14.1587 13.9315 -14.2825 13.7764C-14.4063 13.6214 -14.4688 13.4268 -14.4599 13.2243L-14.4212 13.2883ZM0.619667 37.981L1.1993 38.9401C1.07688 38.9218 0.961761 38.8785 0.861294 38.8131C0.76083 38.7478 0.677267 38.6618 0.616206 38.5608C0.55514 38.4597 0.517961 38.3459 0.506904 38.2267C0.495852 38.1075 0.511164 37.9857 0.552039 37.869L0.619667 37.981ZM2.87051 41.7054C2.46516 41.4263 2.48416 41.066 2.58788 40.6111C2.73255 40.7412 2.8273 40.9149 2.85868 41.1075C2.89005 41.3001 2.85639 41.5016 2.7625 41.6833L2.87051 41.7054ZM-108.068 208.125C-107.753 208.371 -108.814 208.966 -108.496 207.925C-108.382 207.972 -108.275 208.032 -108.176 208.103L-108.068 208.125ZM-148.583 139.361C-147.946 140.416 -148.013 140.304 -148.196 140.393C-148.923 139.347 -148.888 139.523 -148.691 139.339L-148.583 139.361ZM-130.463 168.326L-130.033 168.568C-130.029 169.045 -130.472 169.094 -130.571 168.304L-130.463 168.326ZM-43.5385 7.51539C-43.6566 7.43961 -43.7429 7.32696 -43.7845 7.19459C-43.826 7.06223 -43.8205 6.91736 -43.7687 6.78194C-43.7819 7.07333 -43.1299 7.09496 -43.5385 7.51539ZM47.2364 115.04C47.0529 114.736 47.7854 114.186 47.6651 115.436C47.5056 115.321 47.3618 115.189 47.2364 115.04ZM-136.607 97.113C-136.314 96.5007 -136.249 96.178 -135.844 96.6533C-135.938 97.1241 -135.701 97.0467 -136.617 97.097L-136.607 97.113ZM46.8478 380.63C47.4053 380.73 47.3824 381.005 47.1376 381.109C46.8927 381.213 46.7574 380.989 46.8478 380.63ZM72.8092 388.347C72.4019 388.025 73.1325 387.629 73.3411 387.895C73.5497 388.162 73.1198 388.508 72.8418 388.283L72.8092 388.347ZM49.0026 341.396C49.8875 340.863 49.463 342.667 49.0224 341.82C48.9681 341.613 48.8022 341.495 49.0354 341.333L49.0026 341.396ZM62.4569 169.515C62.4236 169.46 62.4154 169.393 62.4342 169.329C62.4529 169.264 62.4971 169.208 62.5569 169.172C62.6167 169.136 62.6873 169.123 62.7531 169.137C62.819 169.15 62.8747 169.189 62.908 169.244C63.0451 169.314 62.7583 170.053 62.4896 169.452L62.4569 169.515ZM121.912 334.817C122.261 335.043 121.558 335.445 121.248 334.541C121.485 334.599 121.718 334.67 121.945 334.754L121.912 334.817ZM41.2011 103.565C41.858 104.652 41.7808 104.524 41.7808 104.524C41.1239 103.437 41.2011 103.565 41.2011 103.565ZM59.4486 352.024C59.4001 351.748 59.3229 351.816 59.8302 351.794C59.7803 352.064 59.8575 351.996 59.5393 352.057L59.4486 352.024ZM33.0449 89.051C32.3977 87.98 32.475 88.1078 32.579 88.0451C33.2823 89.1696 33.2571 89.0104 33.1009 89.1044L33.0449 89.051ZM28.5693 80.6269C28.7233 80.6975 28.8502 80.81 28.9357 80.9514C29.0211 81.0928 29.0616 81.2573 29.0523 81.4262C28.5602 81.1993 28.1626 80.8937 28.6253 80.6804L28.5693 80.6269ZM87.7598 346.204C88.0683 346.127 88.0027 346.058 88.1269 346.812C88.0305 346.848 88.1983 347.008 87.8157 346.258L87.7598 346.204ZM25.4297 75.4318C24.8209 74.2286 24.8307 74.4407 25.0832 74.3105C25.69 75.4712 25.6629 75.2695 25.4297 75.4318ZM55.863 291.153C55.9292 291.811 55.0269 292.158 55.1403 291.719C55.2536 291.28 56.2218 291.199 55.863 291.153ZM60.0753 298.515C59.7468 297.971 60.5069 298.015 60.4883 298.767C60.2953 298.644 60.1332 298.611 60.0849 298.531L60.0753 298.515ZM20.8672 67.06C20.4248 66.6797 20.1189 66.1735 19.9881 65.6054C20.4604 65.9611 20.7723 66.4771 20.8672 67.06ZM79.067 327.434C78.6539 327.182 79.2326 327.16 79.7862 327.176C79.5068 327.497 79.5648 327.592 79.038 327.386L79.067 327.434ZM125.672 396.957C125.656 397.359 125.846 397.244 125.152 397.27C125.433 396.796 125.323 396.927 125.643 396.909L125.672 396.957ZM108.404 359.259C108.591 359.279 108.757 359.367 108.871 359.504C108.985 359.642 109.037 359.819 109.019 360.001C108.85 359.645 108.162 359.798 108.375 359.211L108.404 359.259ZM64.8484 261.891C64.3776 261.738 64.3078 261.388 64.2011 260.82C64.3874 260.922 64.5412 261.069 64.6491 261.247C64.7569 261.426 64.8154 261.63 64.8194 261.843L64.8484 261.891ZM93.2497 308.887L93.7617 309.734C93.4239 309.567 93.0862 309.399 93.2554 308.818L93.2497 308.887ZM-10.8635 6.17498C-11.089 6.3108 -11.369 6.04339 -11.408 5.58724C-10.8118 5.75147 -10.3371 5.98879 -10.8635 6.17498ZM139.425 329.024C139.807 328.794 139.647 329.392 139.763 329.584C139.348 329.288 139.147 329.191 139.425 329.024ZM46.0013 228.981C46.1173 229.173 45.5293 229.571 45.4635 229.305C45.3976 229.039 45.4935 228.415 46.0013 228.981ZM-6.31298 4.30684C-5.75542 4.40713 -5.70878 4.83691 -5.53667 5.27832C-5.7434 5.19541 -5.9222 5.06355 -6.05753 4.89422C-6.19287 4.72489 -6.28055 4.52318 -6.31298 4.30684ZM48.4888 232.04C49.0848 232.008 49.0099 232.315 48.8076 232.567C48.5663 232.364 48.6262 232.502 48.5582 231.998L48.4888 232.04ZM-17.9317 19.3049C-17.3765 18.9705 -17.1717 19.3486 -17.013 19.8853C-17.4241 19.675 -17.8504 19.7137 -17.9338 19.2625L-17.9317 19.3049ZM33.3096 205.904C32.9924 205.027 32.8941 205.217 33.1737 205.092C33.647 205.876 33.6392 205.706 33.2401 205.946L33.3096 205.904ZM103.031 177.721L103.156 177.929C101.806 178.436 102.579 177.012 102.961 177.763L103.031 177.721ZM-70.4281 9.18742C-71.3832 8.97764 -71.4511 6.5549 -70.4281 9.18742V9.18742ZM73.3997 272.046C73.1313 271.837 72.863 271.628 73.0978 271.116L73.3997 272.046ZM128.28 362.858C128.164 362.666 128.077 362.522 128.824 362.661C129.069 363.145 128.589 363.173 128.21 362.899L128.28 362.858ZM140.806 226.092C141.082 226.079 141.394 226.283 141.057 226.508C140.72 226.733 140.27 226.263 140.737 226.134L140.806 226.092ZM-50.2926 65.8048C-50.1675 65.9126 -50.0715 66.048 -50.0119 66.201C-49.9523 66.3539 -49.9305 66.5202 -49.9483 66.6876C-50.261 66.4835 -50.5023 66.28 -50.362 65.8466L-50.2926 65.8048ZM31.2468 35.3664L30.3762 34.6697C30.9065 34.5684 31.0033 34.9244 31.1773 35.4082L31.2468 35.3664ZM-4.56677 30.5736C-4.9392 30.4272 -5.04367 30.0977 -5.13673 29.6305C-4.79309 29.925 -4.41687 29.96 -4.63613 30.6153L-4.56677 30.5736ZM-92.4542 274.333C-92.7917 274.362 -92.6957 273.933 -92.9104 273.343C-92.6362 273.679 -92.0876 274.352 -92.5236 274.375L-92.4542 274.333ZM41.8707 220.306C42.1601 220.393 42.278 220.627 42.3247 221.057C42.1767 220.998 42.0505 220.902 41.9585 220.777C41.8666 220.652 41.8124 220.504 41.8013 220.348L41.8707 220.306ZM77.1598 278.699C77.2403 278.689 77.3209 278.697 77.395 278.722C77.4692 278.747 77.5349 278.789 77.5869 278.845C77.6389 278.901 77.6757 278.968 77.6944 279.042C77.7132 279.116 77.7132 279.194 77.6947 279.271C76.9826 278.915 77.1409 279.059 77.0731 278.751L77.1598 278.699ZM104.597 316.269C104.421 316.179 104.275 316.045 104.175 315.88C104.075 315.714 104.024 315.523 104.027 315.325C104.234 315.746 104.468 315.976 104.424 316.373L104.597 316.269ZM78.7397 334.02C78.9771 334.138 78.9461 334.048 78.9039 334.291C78.4506 334.324 78.4815 334.415 78.5854 334.156L78.7397 334.02ZM79.3024 335.381C79.6009 334.896 79.7995 334.951 79.7534 335.11C79.6635 335.862 79.3681 335.647 79.1481 335.518L79.3024 335.381ZM79.3239 394.976C79.1017 394.608 79.6605 393.966 79.7506 395.329C79.547 395.28 79.352 395.207 79.1698 395.112L79.3239 394.976ZM37.7604 212.643C38.0691 212.762 38.0212 213.074 38.1565 213.298C38.0176 213.277 37.89 213.219 37.7871 213.131C37.6842 213.044 37.6097 212.929 37.5715 212.8L37.7604 212.643ZM48.3208 233.798C48.0063 233.748 48.1066 233.796 48.0061 233.552C48.1413 233.775 48.1066 233.796 48.1319 233.955L48.3208 233.798ZM118.384 346.208C118.132 345.792 118.847 345.253 118.752 346.269C118.411 346.409 118.204 346.381 118.204 346.381L118.384 346.208ZM72.8908 387.033C72.4689 387.548 72.1873 387.631 72.3504 386.726L72.8908 387.033ZM6.37862 46.9621C6.05449 46.8957 6.13716 46.5625 6.31047 46.2619C6.66772 46.6572 6.92081 47.1153 6.37862 46.9621ZM65.0226 173.683C64.9163 173.507 64.9448 172.966 65.109 173.238C65.2732 173.51 65.1385 173.874 65.0226 173.683ZM53.7199 152.865C54.243 153.183 54.0774 153.457 53.5042 153.213L53.7199 152.865ZM42.3048 133.468C42.5304 133.332 42.8949 133.308 42.527 133.835C42.1591 134.362 41.9868 133.724 42.3048 133.468ZM18.6027 67.0719C18.473 66.5832 18.9671 66.8525 19.135 67.013C19.303 67.1735 18.6822 67.4383 18.5641 67.008L18.6027 67.0719ZM25.3472 77.8798C25.5033 77.7857 25.9413 77.8054 26.1788 78.1202C25.5674 78.2049 24.983 78.2953 25.3085 77.8158L25.3472 77.8798ZM83.9777 287.631C84.1613 287.935 83.4145 287.6 83.601 287.008L83.9777 287.631ZM38.0736 126.466C37.919 126.21 38.1925 125.762 38.5265 126.041C38.8604 126.319 38.3362 126.744 38.0736 126.466ZM15.7137 405.352C15.5301 405.048 16.3904 404.944 16.3811 405.32C16.3718 405.697 16.1559 405.848 15.7234 405.368L15.7137 405.352ZM-125.325 177.376C-125.044 177.097 -124.658 177.148 -125.122 177.712C-125.587 178.275 -125.607 177.654 -125.316 177.392L-125.325 177.376ZM2.3758 38.733C2.2083 38.6582 2.07011 38.5372 1.97764 38.3841C1.88517 38.2311 1.8423 38.0526 1.85414 37.8698C2.03076 37.9333 2.17703 38.0518 2.27109 38.2074C2.36515 38.3631 2.40193 38.5475 2.3758 38.733ZM3.40946 40.4434C2.25158 39.8979 2.92315 38.229 3.40946 40.4434V40.4434ZM35.623 94.061L35.3117 93.3109C35.5743 93.5889 35.9679 93.6135 35.6404 94.0505L35.623 94.061ZM172.307 320.234C171.604 319.697 173.499 319.974 172.753 320.423C172.635 320.382 172.519 320.335 172.407 320.282L172.307 320.234ZM-127.585 173.09C-127.391 173.409 -128.006 173.997 -128.14 172.835C-127.785 172.992 -127.615 172.999 -127.585 173.09ZM-123.259 181.539C-123.688 181.339 -123.634 181.154 -123.501 181.139C-123.368 181.124 -123.184 181.232 -123.259 181.539ZM30.5023 84.8044C30.3284 84.5167 30.7734 83.9218 30.8861 84.8132C30.7146 84.9601 30.5622 84.9428 30.5023 84.8044ZM-105.694 213.737C-105.974 213.274 -105.48 212.955 -105.435 213.734C-105.551 213.738 -105.702 213.764 -105.694 213.737ZM173.411 320.964C172.774 320.694 173.514 320.117 173.872 321.297C173.734 321.168 173.579 321.057 173.411 320.964ZM-152.728 136.341C-153.073 136.2 -153.378 135.969 -153.066 135.781C-152.753 135.593 -152.705 136.065 -152.728 136.341ZM128.224 343.225C128.012 343.07 128.011 342.874 128.679 342.843C128.662 343.049 128.647 343.494 128.224 343.225ZM-94.614 233.402C-94.614 233.402 -94.3806 233.436 -94.2822 233.442C-93.9476 234.309 -95.2658 233.577 -94.614 233.402ZM-54.401 38.4097C-54.0155 38.0686 -53.6999 39.2957 -54.4739 38.7589C-54.4528 38.6371 -54.478 38.4779 -54.401 38.4097ZM-81.8513 256.087C-82.0251 255.8 -81.518 255.582 -81.4827 256.149C-81.6813 256.29 -81.7836 256.199 -81.8513 256.087ZM-79.4279 260.646C-79.4612 260.121 -78.8726 260.311 -78.655 260.006C-78.8208 260.084 -79.4061 261.308 -79.4279 260.646ZM79.0435 277.783C78.5453 277.233 78.2423 277.044 78.4617 276.585L79.0435 277.783ZM-56.8911 32.6055C-56.5765 32.852 -56.3428 33.082 -56.5816 33.5092C-56.2131 33.5707 -57.2452 33.4291 -56.8718 32.6374L-56.8911 32.6055ZM79.3426 277.886C79.7209 278.16 79.6166 278.026 79.6903 278.462C79.2099 278.293 79.2408 278.384 79.3619 277.918L79.3426 277.886ZM62.6958 258.172C62.9661 258.424 63.2578 258.75 62.8643 258.725C62.4708 258.7 62.4782 258.478 62.6458 258.246L62.6958 258.172ZM114.303 364.908C114.303 364.908 114.232 365.103 114.17 365.119C113.566 365.373 113.511 364.185 114.253 364.982L114.303 364.908ZM-137.404 187.266C-137 186.761 -136.883 188.129 -137.425 187.584C-137.52 187.662 -137.597 187.534 -137.46 187.408L-137.404 187.266ZM-161.116 154.844C-161.475 154.798 -161.488 154.501 -161.579 154.077C-161.434 154.148 -161.315 154.256 -161.233 154.391C-161.152 154.526 -161.111 154.683 -161.116 154.844ZM116.678 317.933C116.724 317.578 116.903 317.797 117.012 318.015C117.12 318.233 116.543 318.297 116.639 317.869L116.678 317.933ZM-23.3624 6.83383C-23.1021 6.67711 -22.8744 6.77976 -22.6563 6.86648C-22.8817 7.1984 -23.6554 7.05387 -23.3624 6.83383ZM-156.217 163.537C-156.464 163.402 -156.414 163.524 -156.469 163.121C-156.245 163.335 -156.285 163.229 -156.217 163.537ZM172.776 291.564L173.424 292.635C172.843 292.418 172.76 292.163 172.776 291.564ZM-88.8396 279.961C-89.0425 279.626 -88.5338 279.058 -88.4305 280.129C-88.5425 280.022 -88.6949 280.005 -88.8396 279.961ZM145.892 285.101C146.217 285.363 146.132 285.262 146.172 285.564C146.001 285.319 146.085 285.42 145.962 285.059L145.892 285.101ZM31.5746 39.1589C31.2232 38.8908 31.2461 38.6154 31.5369 38.1568C31.8017 38.6733 31.8192 38.8589 31.5746 39.1589ZM18.1337 72.7177L18.3849 73.1333C18.3849 73.1333 17.8892 73.2138 18.1337 72.7177ZM-60.2447 23.5711C-60.4955 23.5477 -60.8504 23.5871 -60.656 23.1648C-60.4616 22.7425 -60.3685 23.2096 -60.2447 23.5711ZM-103.443 88.8284C-103.218 88.1043 -101.484 87.8015 -103.443 88.8284V88.8284ZM80.1727 268.687C79.4455 267.994 78.9211 267.127 78.6464 266.162C79.7607 267.496 80.1354 268.077 80.1727 268.687ZM-41.6599 76.3695C-42.1402 76.3971 -42.5838 76.4462 -42.7541 75.8511C-42.2873 75.9188 -41.8186 75.8328 -41.6599 76.3695ZM-41.461 78.5389C-41.2774 78.8426 -41.9196 79.0331 -41.6616 78.4418C-41.5787 78.5008 -41.5093 78.459 -41.4513 78.5549L-41.461 78.5389Z" fill="#01FC99"/>
</svg>
