<svg width="169" height="166" viewBox="0 0 169 166" fill="none" xmlns="http://www.w3.org/2000/svg">
<path d="M91.9053 10.6164C92.606 11.1101 91.7232 11.8815 91.9399 12.5141C98.4876 31.1802 102.927 40.5633 103.701 44.5451C100.227 40.5979 99.8131 41.4793 93.8183 22.0443C93.4313 20.8166 91.9046 19.8174 93.2071 18.2918C92.21 18.5215 91.3741 17.8039 90.6093 18.8095C90.5235 18.8804 90.4189 18.9258 90.3098 18.9396C90.2006 18.9535 90.0921 18.9351 89.9986 18.887C89.9052 18.8389 89.8312 18.7633 89.7869 18.6704C89.7425 18.5776 89.7299 18.4718 89.7505 18.3674C89.7966 18.154 89.7964 17.9369 89.75 17.7298C89.7035 17.5228 89.6118 17.3304 89.4808 17.1651C89.3497 16.9998 89.182 16.8652 88.9887 16.7699C88.7954 16.6745 88.5805 16.6206 88.358 16.6115C87.785 16.564 87.9018 15.6217 87.4927 15.4538C86.6878 15.1585 85.9919 14.6606 85.4737 14.0092C84.9555 13.3578 84.633 12.5752 84.5378 11.7389C83.8171 14.4622 86.5992 19.0659 85.3287 19.7438C84.8603 20.0258 85.2087 19.271 84.8846 19.2045C84.2038 19.3311 84.4029 19.7781 84.3955 20.1967C84.4019 20.3579 84.3615 20.5207 84.2788 20.6672C84.1961 20.8138 84.0744 20.9383 83.9271 21.027C83.7799 21.1156 83.6128 21.165 83.4443 21.1697C83.2759 21.1744 83.1128 21.1341 82.9729 21.0534C79.033 18.019 80.9526 10.3878 77.823 11.5528C77.0864 11.822 76.7445 11.3738 76.2851 11.0835C77.3938 24.3912 80.4659 23.7185 76.2514 23.989C73.771 24.1527 73.8152 22.033 72.6873 20.5974C72.6817 20.8624 74.393 26.9831 73.56 25.3698C72.727 23.7566 70.7079 24.253 69.5437 23.1881C66.8188 20.1496 65.2943 16.2488 65.2121 12.1047C63.2256 16.375 67.947 21.6424 66.7169 22.2305C66.044 22.5267 65.7673 21.5596 64.94 19.8775C64.5855 20.309 65.4713 20.7567 64.8215 20.9736C64.1716 21.1905 63.7824 17.6095 61.8287 13.9459C60.1709 15.1186 60.3836 13.7477 59.2808 12.2752C57.5908 10.0662 68.972 38.1399 71.3039 47.8331C70.4583 45.1809 54.9992 7.07004 59.7231 20.8387C81.3842 83.0346 63.6285 31.9608 72.2848 60.6944C71.7296 61.0287 70.4136 58.6162 72.2939 64.1554C73.1606 66.6859 72.9724 69.5463 74.5583 71.8181C74.635 71.9802 74.6728 72.159 74.669 72.342C74.6652 72.5251 74.6198 72.7079 74.5361 72.8779C72.6997 68.8602 73.0431 68.9586 72.5461 69.585C72.3899 69.679 72.2163 69.5874 72.2413 69.5505C73.2912 68.1552 71.5264 68.3676 71.1593 67.7602C68.4863 60.3219 66.0203 57.5336 64.1627 45.5709C63.5319 41.5903 63.8689 39.0544 63.1418 39.1434C62.4147 39.2325 63.6056 42.0255 62.6779 44.1321C59.5451 40.0447 58.1594 29.4112 57.5669 29.1357C55.8649 28.3946 55.8263 28.3307 55.3288 26.4501C54.2621 22.4922 54.2667 25.2801 53.4779 25.3844C52.2516 23.9426 51.4185 20.2146 49.9047 20.6466C48.3909 21.0785 48.7502 17.679 47.7031 17.9825C39.681 20.3713 63.4643 75.0757 60.3159 74.6823C58.6201 74.4607 57.7506 74.9407 58.2609 74.023C59.1736 72.3615 53.907 73.7887 53.6094 77.1728C52.2035 75.5122 52.5616 72.8547 50.633 71.2689C48.7045 69.6831 48.929 66.4521 47.5576 64.5744C47.5051 66.1322 55.6012 86.2641 54.3299 94.0282C54.2281 93.9523 54.1449 93.8562 54.085 93.7458C54.0251 93.6354 53.9899 93.513 53.9815 93.3857C53.9731 93.2585 53.9916 93.1291 54.036 93.0053C54.0804 92.8815 54.1497 92.7659 54.2398 92.6652C52.3909 91.516 51.0855 89.7312 50.5642 87.6403C50.7444 89.176 51.0144 90.6948 51.373 92.1896C44.6706 92.8463 49.9346 82.9177 46.205 85.9484C44.9329 86.9761 45.4867 85.0729 45.3095 83.37C45.2044 82.4522 47.4599 83.0126 48.035 83.2985C48.1218 81.3277 47.9364 81.1776 45.8105 80.9099C43.6845 80.6421 45.141 78.7839 44.55 77.9625C43.7882 78.0724 44.3536 80.2611 42.3261 82.1142C40.5704 83.6729 42.3906 88.8777 42.2659 91.569C40.2583 90.0091 39.7947 99.2272 37.9696 98.9091C37.6378 98.8691 35.7389 100.034 35.8148 98.7894C35.9348 97.1475 34.5366 97.379 33.7511 96.9799C33.4005 97.4962 33.5997 97.9432 33.5847 98.3882C33.4941 100.47 31.7917 99.3372 31.5326 100.671C31.2735 102.004 30.4568 101.318 30.2926 101.047C29.3727 99.2894 26.2691 101.398 26.3539 99.3849L26.296 99.2889C24.546 98.8602 25.1971 95.9826 24.2673 95.9321C23.83 96.5006 25.0139 97.9898 23.7736 97.9736C21.8909 97.9518 21.8918 100.851 25.6893 121.936C24.9176 121.834 25.0038 121.193 24.5735 120.951C24.3018 121.246 24.7479 121.827 24.1655 121.96C23.5831 122.093 23.3823 119.881 22.2705 121.095C20.6827 122.814 19.7781 116.971 23.8289 117.017C23.8589 116.127 17.2015 113.53 19.2571 124.763C19.3618 125.289 19.6266 125.805 19.145 126.379C18.8305 126.328 16.6912 122.318 18.79 128.336C19.3142 127.912 18.7909 127.398 19.0912 126.76C20.5022 129.682 19.98 128.23 18.5844 131.207C20.2052 133.654 17.9827 133.227 18.3572 129.578C16.7757 131.817 20.4863 137.017 12.758 124.229C11.296 126.352 119.124 327.997 119.261 328.263C119.032 328.118 67.6084 247.609 118.924 330.995C188.239 443.616 46.5137 222.179 60.5094 229.362C61.2119 229.702 61.2243 230.545 61.4293 231.119C61.7526 232.32 63.0243 232.818 63.2068 234.06C63.2979 234.485 64.898 233.609 64.3205 232.888C62.6416 230.189 61.178 227.361 59.9413 224.428C61.069 223.749 68.2917 240.243 69.4234 239.648C68.3847 237.139 67.1636 234.713 65.7687 232.387C64.9862 231.092 67.3558 229.883 64.4687 230.51C65.6486 229.799 65.4103 228.896 64.993 228.166C64.5756 227.437 64.3045 228.319 63.8455 228.421C65.339 226.977 57.7195 214.799 57.0347 214.841C57.4921 217.008 59.1004 218.612 59.8413 220.738C55.7706 220.072 1.78096 110.999 31.9235 175.13C31.9513 174.001 31.1096 173.156 30.8845 171.766C31.703 172.494 39.7816 186.488 39.0802 189.243C35.1195 182.689 36.9796 185.297 37.1537 183.862C36.3454 183.675 35.6314 183.254 35.1043 182.654C34.5772 182.055 34.2612 181.303 34.1972 180.497C34.5963 180.257 34.7281 180.984 35.1348 180.718C34.6505 178.546 32.4527 177.689 31.5172 175.789C31.4013 175.597 16.0176 147.557 15.4094 146.942C13.4624 148.223 59.8036 223.573 57.1534 227.764C56.4639 228.855 4.2293 131.262 3.33618 131.233C4.3282 147.597 17.7406 161.803 15.8314 164.282C8.34466 151.894 4.49428 139.845 3.41265 140.365C32.4835 209.262 120.787 365.913 167.775 423.693C169.544 425.876 169.052 422.597 171.276 422.282C181.321 420.812 170.84 419.602 174.96 417.884C176.639 417.178 180.65 427.299 175.454 414.512C174.06 410.991 173.121 411.317 171.222 408.645C156.726 388.181 158.331 384.925 156.995 385.533C154.095 386.843 151.868 381.905 150.094 378.657C149.718 378.033 151.609 375.564 149.156 375.341C148.851 375.307 143.405 365.003 143.306 364.801C145.773 366.063 179.722 419.42 184.077 418.912C177.552 409.76 172.879 408.214 173.775 402.922C174.046 403.026 174.286 403.189 174.475 403.4C174.664 403.611 174.798 403.864 174.866 404.14C175.069 405.26 176.056 404.622 176.625 404.781C177.195 404.939 176.976 404.264 177.113 403.942C179.037 399.295 186.447 416.569 187.264 410.911C188.064 410.669 188.071 411.776 188.763 411.512C189.441 410.755 183.424 399.466 183.72 398.939C184.017 398.411 186.069 398.44 186.388 398.967C188.426 402.34 190.258 402.982 188.3 403.855C189.037 403.739 189.778 403.822 190.439 404.094C191.101 404.366 191.658 404.816 192.046 405.393C193.597 407.489 193.303 404.418 194.094 404.552C195.533 404.819 196.954 410.461 198.567 408.704C199.874 407.264 199.645 408.491 202.891 411.944C203.98 413.119 204.296 411.097 204.505 410.972C206.582 409.045 205.333 411.716 207.824 412.549C206.085 409.671 205.477 409.449 207.458 408.888C209.438 408.328 206.44 407.713 207.706 406.362C208.352 405.668 206.542 405.69 207.303 404.795C207.667 404.38 208.396 404.137 208.595 404.388C209.244 405.109 209.914 403.594 210.351 404.356C214.426 411.451 214.961 411.085 210.923 404.011C208.264 399.377 206.743 398.309 208.51 398.335C213.313 398.451 202.223 387.578 204.344 386.389C205.975 385.407 205.415 389.297 208.126 390.063C208.469 390.161 208.923 389.932 209.045 390.447C209.252 391.26 210.442 390.762 209.939 389.734C205.932 381.617 203.643 380.139 205.572 380.394C206.433 380.487 207.017 380.397 206.399 379.374C205.288 377.535 208.376 377.79 207.463 376.553C207.012 376.824 207.321 377.728 206.424 377.614C204.908 377.415 198.684 362.653 213.642 383.841C214.541 385.132 212.506 385.877 212.22 384.698C211.79 383.126 210.569 385.452 211.544 385.498C212.518 385.544 212.823 386.558 213.378 387.162C214.106 386.723 212.478 386.025 213.669 385.373C214.861 384.721 214.675 386.49 216.896 387.071C218.602 387.505 217.818 389.459 220.53 388.895C219.517 388.589 219.504 387.55 218.844 386.967C218.481 386.64 218.907 386.405 219.183 386.196C220.634 385.191 220.957 387.526 223.053 388.683C223.411 388.141 221.931 387.179 223.589 386.987C224.166 386.923 222.826 385.724 224.197 385.487C224.631 385.422 229.762 391.249 223.693 382.891C222.923 381.851 223.219 380.735 224.527 379.729C226.827 377.973 231.014 384.784 231.929 384.145C232.845 383.506 227.747 380.123 228.333 379.29C229.229 378.228 227.827 376.848 229.155 375.874C229.155 375.874 229.078 375.55 228.971 375.57C227.216 375.602 227.278 374.06 226.992 373.077C226.578 371.648 223.704 370.457 225.715 369.595C225.976 369.438 225.763 369.086 225.601 368.857C225.156 368.122 224.784 370.09 224.056 369.395C223.816 369.22 223.627 368.99 223.503 368.723C223.379 368.457 223.324 368.162 223.343 367.862C224.135 364.747 220.213 364.994 219.979 360.338C219.924 359.15 217.564 357.868 218.269 357.313C219.699 356.233 226.105 365.893 226.79 365.459C227.474 365.026 210.495 343.157 210.3 342.991C208.572 341.502 211.572 341.179 210.489 340.523C208.688 339.579 208.591 336.912 210.168 338.23C215.259 342.425 201.322 326.333 202.347 324.975C202.7 324.501 263.924 399.457 265.894 397.9C268.793 395.609 237.522 364.971 226.624 349.6C219.278 339.285 224.082 346.334 226.333 346.614C213.199 328.796 249.881 373.204 252.304 375.844C257.435 381.475 260.957 381.861 262.257 383.738C263.557 385.615 265.87 383.568 267.278 385.075C267.519 385.475 268.357 385.45 268.635 386.068C268.818 386.371 269.041 386.739 269.53 386.335C270.758 385.313 268.611 387.085 263.683 377.756C263.161 376.893 264.204 376.309 264.901 376.914C266.795 378.52 270.664 383.473 274.641 385.198C275.99 385.825 275.152 389.687 282.885 393.162C284.452 393.876 284.073 395.129 287.199 396.386C286.177 394.145 280.76 389.646 283.691 390.933C284.365 391.225 284.987 392.725 285.548 392.322C286.109 391.919 231.91 329.215 219.502 307.821C217.995 305.327 234.44 326.47 234.244 326.654C232.924 327.798 234.776 328.514 234.624 326.578C241.501 332.945 253.36 353.078 205.11 280.6C183.059 247.44 194.529 260.155 187.688 252.632C187.485 252.297 186.833 251.883 187.453 251.226C188.074 250.569 186.633 251.436 186.59 250.699C186.547 249.962 173.725 227.923 173.621 227.789C172.408 226.056 173.993 226.017 174.208 226.999C174.511 228.322 186.079 246.211 186.247 246.371L186.494 246.506C186.063 247.79 187.324 247.88 187.886 248.458C189.095 249.91 187.777 250.704 188.849 250.364C188.913 250.336 188.983 250.327 189.049 250.337C189.116 250.348 189.176 250.379 189.221 250.424C189.267 250.47 189.296 250.529 189.305 250.594C189.313 250.659 189.301 250.725 189.27 250.786C188.038 251.528 189.005 251.992 189.404 252.536C189.926 253.399 190.009 254.789 190.743 254.281C191.477 253.773 189.387 252.743 189.892 251.698C191.185 253.284 192.39 254.938 193.502 256.653C192.24 256.759 193.304 258.167 192.172 258.369C192.636 259.137 193.3 257.69 194.071 258.534C194.167 258.694 194.283 258.886 194.058 259.022C193.537 259.335 193.438 258.545 192.979 258.647C192.243 259.7 194.18 260.322 194.935 262.157C195.06 262.364 195.195 262.588 195.49 262.411C196.115 262.035 195.059 261.384 194.846 260.052C198.156 264.316 200.4 269.243 203.929 273.79C200.523 272.069 201.13 269.785 200.149 270.158C198.457 270.806 201.761 274.158 204.612 277.543C218.696 295.093 241.289 333.574 244.744 334.044C245.24 334.221 245.666 334.528 245.977 334.933C246.288 335.337 246.472 335.823 246.51 336.339C246.731 337.841 247.598 337.122 247.518 337.498C246.74 340.91 253.829 345.514 255.16 346.893C259.494 351.325 243.826 330.215 243.835 329.25C243.844 328.286 241.542 328.08 242.502 328.963C242.627 329.171 246.714 335.933 239.577 326.081C226.071 307.179 200.363 268.241 215.772 287.436C216.14 288.043 215.763 293.175 217.767 291.009C218.539 290.173 218.076 291.521 218.456 291.445C219.01 291.764 219.447 292.236 219.715 292.804C219.983 293.372 220.071 294.014 219.969 294.654C219.91 295.3 220.806 294.433 221.115 294.945C249.242 342.739 241.443 322.864 236.224 317.635C235.484 316.881 236.137 315.964 237.022 317.154C277.041 372.176 260.854 347.192 262.704 347.473C263.009 347.508 262.863 346.092 262.05 346.625C261.236 347.158 260.975 346.335 261.522 346.027C262.07 345.719 261.614 345.317 261.44 345.03C260.639 343.703 260.268 345.518 259.8 344.665C259.684 344.474 259.482 344.138 259.754 344.04C261.574 343.488 259.284 342.753 260.251 341.887C263.997 347.85 317.466 407.31 319.348 399.461C319.498 398.847 320.5 398.157 319.497 397.475C312.735 392.826 280.521 356.476 280.395 356.268C279.812 355.812 280.754 355.529 280.832 355.111C280.429 354.678 279.809 355.727 279.59 354.856C280.101 354.723 280.389 353.83 281.1 354.339C298.754 366.95 269.223 339.973 255.332 318.359C245.47 303.019 207.439 247.606 157.519 155.88C86.2211 24.9404 103.906 42.6124 104.828 46.5266C105.511 49.3417 118.324 75.7902 118.169 76.8648C117.557 76.3612 117.489 75.4649 116.572 74.9269C117.078 76.8727 118.188 78.5876 119.761 79.8522C123.688 81.8477 110.443 74.1046 171.998 175.961C168.906 183.884 257.097 316.032 257.213 316.224C259.3 319.676 260.175 317.209 260.43 318.102C261.264 320.303 263.298 321.084 261.738 321.675C261.666 321.075 261.426 320.516 261.044 320.056C260.662 319.596 260.152 319.251 259.565 319.059C261.565 322.367 261.952 323.399 262.925 322.66C263.584 322.263 264.198 324.336 263.388 324.758C264.114 325.237 264.727 325.852 265.193 326.57C265.694 326.029 264.805 325.693 265.144 325.118C266.679 326.679 268.19 329.454 265.547 326.881C265.616 328.758 267.244 328.279 268.411 328.841C258.014 310.618 208.096 239.1 206.768 231.615C205.977 232.266 206.973 232.778 206.322 233.345C205.046 230.646 203.078 228.408 201.943 225.669C201.551 224.706 201.253 223.468 199.754 223.455C200.172 223.549 200.524 223.798 200.737 224.15C200.949 224.501 201.006 224.929 200.894 225.342C199.936 224.501 198.144 218.952 198.007 218.882C196.081 216.06 194.354 213.11 192.835 210.049C195.061 210.365 203.82 229.597 205.794 230.436C206.038 228.763 195.96 211.852 194.846 208.991C192.11 201.918 205.261 227.399 207.144 227.617C207.132 226.97 189.888 198.241 190.677 196.806C190.733 196.678 190.738 196.537 190.693 196.412C190.648 196.286 190.555 196.184 190.431 196.126C187.822 196.977 135.171 100.769 152.532 129.144C166.672 152.308 176.588 174.746 179.117 175.446C179.114 173.835 174.869 166.929 184.075 182.162C181.218 179.196 174.834 168.672 183.922 184.61C210.55 231.829 240.852 276.88 274.59 319.408C274.209 318.307 274.522 316.985 273.427 316.074C272.75 315.501 272.363 314.666 273.277 313.985C273.676 313.745 273.433 313.695 273.294 313.582C272.585 313.115 272.596 312.193 272.096 311.6C272.705 312.607 274.115 313.022 273.922 314.621C273.82 315.315 274.124 314.369 274.321 314.381C275.336 314.729 274.446 316.115 274.759 316.123C275.071 316.131 293.185 340.936 293.622 341.697C288.102 338.829 288.221 336.011 287.19 336.85C286.721 337.132 287.115 337.745 287.476 338.029C293.555 342.762 296.476 349.005 302.456 351.617C303.915 352.585 305.1 353.877 305.922 355.395C305.723 353.029 288.43 333.225 288.206 333.011C286.754 331.705 287.865 330.84 283.499 324.791C282.099 322.866 285.376 326.212 285.848 326.407C281.487 320.64 282.13 321.234 281.84 322.28C283.35 322.352 282.28 324.653 281.84 322.28C280.828 321.625 281.66 321.669 282.175 321.621C281.792 320.674 279.985 321.13 280.184 319.658C280.632 319.694 280.571 320.298 281.007 320.471C280.854 318.143 278.19 319.726 278.366 318.333C279.95 308.658 231.437 255.873 299.027 340.579C299.945 341.705 309.058 351.108 308.668 354.613C308.6 355.243 310.684 356.343 310.404 354.353C309.676 349.232 305.412 344.408 310.484 350.882C315.839 357.708 301.898 337.106 295.711 326.202C296.837 327.487 298.061 328.688 299.374 329.796C299.414 329.51 267.549 281.678 253.206 256.456C222.605 202.609 300.783 334.791 316.591 352.96C316.816 352.824 249.946 244.836 244.712 233.316C363.912 371.47 264.708 267.539 265.495 254.354C265.785 249.274 325.085 328.093 332.046 332.251C293.282 281.968 234.984 194.195 199.002 125.1C198.828 124.812 198.213 119.449 196.377 117.742C196.194 117.438 196.094 116.451 195.999 115.549C199.777 117.22 230.263 180.665 235.783 182.007C236.008 182.067 236.122 182.216 236.034 182.422C235.139 184.27 241.879 189.433 232.829 176.22C234.615 173.575 172.193 65.3501 166.231 51.9998C165.346 50.0257 160.783 43.5726 160.106 41.6692C156.394 31.2591 144.171 21.3308 144.829 19.561C141.014 18.4569 140.861 11.5071 135.812 13.2172C136.184 14.3016 137.313 14.9952 137.414 16.2204C136.911 16.5234 133.998 14.4838 140.291 20.7454C139.562 21.1842 139.499 20.023 138.249 19.7947C132.174 18.7874 124.788 8.7584 139.316 27.3938C148.553 39.2729 146.171 37.5242 143.353 33.6834C144.574 35.9641 146.123 38.053 147.958 39.8931C148.883 40.6008 149.775 44.271 148.524 42.4739C130.27 16.1843 134.565 25.3275 129.486 21.9757C129.018 22.2578 129.911 22.679 129.25 23.0336C124.743 19.8829 125.245 14.1738 122.976 14.4931C122.481 14.5736 122.304 11.7365 120.272 10.0173C122.075 13.9022 122.514 14.5102 121.827 14.9017C121.141 15.2932 121.25 14.7695 121.022 14.4707C120.795 14.1719 120.537 14.7632 120.164 14.8129C112.474 16.6534 124.255 30.1185 125.848 37.1392C124.697 36.5673 116.397 22.5975 113.411 9.00303C112.913 6.73022 109.953 9.03629 109.634 8.901C108.415 8.37088 110.374 11.3774 109.902 11.9669C105.628 17.309 127.511 63.3468 100.834 0.879001C103.251 13.9225 107.865 22.263 107.608 23.8348C106.971 23.5642 106.303 20.5002 105.879 22.696C105.629 24.0454 112.794 44.2804 113.822 46.2557C122.142 62.5683 109.467 41.3998 105.739 39.8512C105.402 40.2723 105.844 40.9652 105.39 41.3481C103.741 40.0298 97.7437 25.916 97.7268 22.4813C97.2235 22.5882 97.7217 23.1386 97.0738 23.3979C96.6646 21.1152 95.0637 19.2885 95.1886 16.7933C95.2326 16.3961 94.3295 16.1551 94.1475 15.5016C91.1677 6.06774 91.4169 10.2782 91.9053 10.6164ZM111.378 36.6518C111.975 39.323 110.508 36.1512 110.625 35.4049C111.111 35.7007 110.998 36.3357 111.378 36.6518ZM208.521 336.366C207.002 335.732 208.614 335.111 208.521 336.366C209.598 336.503 208.629 337.718 208.322 337.445C208.015 337.172 208.494 336.753 208.521 336.366ZM260.16 288.678C260.462 289.805 261.841 288.757 261.262 290.501C261.162 290.844 261.75 291.035 261.554 291.611C261.069 290.573 259.734 290.243 259.711 288.992C258.472 288.43 257.243 285.377 257.658 285.869C258.558 286.809 260.844 287.46 260.213 288.647L260.16 288.678ZM286.7 285.604C285.92 285.147 285.373 284.409 285.168 283.539C284.987 283.474 273.394 267.541 286.804 285.541L286.7 285.604ZM123.975 85.1416C123.675 85.5841 124.516 86.0367 123.801 86.5764C122.835 84.9779 122.508 83.8884 123.96 85.1944C126.401 85.9048 126.168 88.3779 126.964 90.1657C121.963 82.9084 128.185 93.7912 130.427 96.5616C129.272 96.6469 124.469 89.4443 123.975 85.1416ZM260.905 296.057C259.872 295.327 238.522 264.972 238.345 261.939C238.565 262.068 260.793 294.62 260.887 296.068L260.905 296.057ZM145.295 125.392C145.362 125.504 169.337 168.385 169.142 168.415C170.33 170.382 170.069 168.227 170.828 168.621C173.182 181.484 145.29 126.049 145.277 125.402L145.295 125.392ZM60.8083 75.3014C62.068 75.3496 61.9224 76.4402 62.2337 77.1902C62.9742 78.9245 64.0016 80.1155 62.4308 81.432C61.3649 82.2919 62.3259 86.6623 62.1556 87.9858C63.3325 86.2524 62.8125 75.2501 64.7755 84.4895C65.7541 89.0456 62.7502 86.5812 60.8828 90.3438C60.6056 90.9032 61.0097 91.9243 60.2112 92.0127C59.8814 92.0151 48.5147 74.812 60.7909 75.3119L60.8083 75.3014ZM156.955 93.4288C157.08 93.6366 213.72 190.256 211.727 191.892C213.194 191.423 212.739 191.806 215.61 197.73C222.297 211.341 156.939 95.0081 156.972 93.4183L156.955 93.4288ZM138.582 355.066C139.814 354.324 141.351 359.373 142.228 359.062C143.106 358.752 142.002 358.414 142.505 357.914C161.437 389.203 167.79 398.11 138.6 355.055L138.582 355.066ZM122.056 77.4237C122.636 78.3828 122.334 79.7635 123.07 80.6285C124.022 81.951 124.677 83.461 124.998 85.071C123.751 84.5354 123.998 82.9475 122.74 82.7457C122.479 83.2522 123.459 83.6211 122.734 84.1448C122.537 83.9364 108.936 53.7549 122.056 77.4237ZM171.625 171.193C171.046 172.741 185.401 193.988 183.753 195.569C168.78 169.462 169.814 171.564 171.59 171.214L171.625 171.193ZM105.862 44.792C109.781 52.3737 114.412 59.5271 118.4 67.067C112.849 60.4961 108.595 52.9667 105.827 44.8129L105.862 44.792ZM161.993 387.342C162.118 387.55 173.128 402.439 172.174 403.014C171.219 403.588 153.761 376.776 161.993 387.342ZM215.98 251.598C211.656 245.63 207.886 239.287 204.71 232.636C208.366 238.959 212.589 245.007 215.979 251.556L215.98 251.598ZM26.9573 140.402C30.7563 146.118 34.0933 152.124 36.9417 158.372C33.2553 152.589 29.922 146.59 26.9573 140.402ZM133.554 104.163C134.815 104.45 136.685 108.992 136.867 109.646C137.449 112.958 138.78 110.892 139.215 113.53C139.804 116.62 143.388 120.24 143.549 121.211C143.863 122.984 148.771 135.726 133.554 104.163ZM50.168 98.6928C48.9482 99.8852 46.8244 91.9853 49.3624 93.4439C50.2695 93.966 51.5326 91.592 51.6964 93.3902C51.5465 95.2125 51.0273 97.0141 50.168 98.6928ZM112.755 41.7095C113.24 41.4169 121.646 60.3378 120.902 60.6334C117.814 54.4965 115.111 48.1675 112.807 41.6782L112.755 41.7095ZM130.835 43.9034C133.972 48.6101 136.679 53.5869 138.928 58.7829C136.471 53.6998 132.362 49.5243 130.897 43.888L130.835 43.9034ZM190.394 205.109C190.51 205.301 192.626 208.802 191.93 209.177C190.889 209.804 192.505 209.463 184.53 197.129C184.24 196.649 184.303 196.284 185.135 196.132C185.966 195.981 183.943 196.196 190.473 205.083L190.394 205.109ZM292.584 342.409C293.573 342.948 294.805 342.794 295.628 343.803C299.353 348.362 299.222 348.027 298.856 348.4C298.114 349.13 295.084 344.392 292.663 342.383L292.584 342.409ZM272.201 344.197C269.999 342.052 268.086 339.648 266.5 337.034C268.422 339.43 271.214 341.193 272.28 344.171L272.201 344.197ZM74.1638 61.0236C73.7907 58.1742 72.0465 55.758 71.6773 52.9934C73.5971 55.5437 74.9036 60.0549 74.1638 61.0236ZM272.418 344.829C273.76 344.936 277.379 349.123 277.605 350.71L272.418 344.829ZM248.085 268.697C246.298 265.74 243.834 263.19 242.384 260.008C242.843 259.71 242.105 258.802 248.075 268.681L248.085 268.697ZM220.924 381.441C224.12 384.967 224.108 384.712 223.697 385.09C222.431 386.245 220.927 383.052 220.914 381.425L220.924 381.441ZM199.976 322.108C197.727 319.21 202.454 321.902 202.13 324.342C202.048 324.872 200.51 324.402 200.693 323.922C200.995 322.933 199.959 322.707 199.927 322.028L199.976 322.108ZM223.024 373.286C222.763 372.855 223.457 372.437 223.631 372.921C224.233 374.739 226.623 375.131 225.668 376.055C224.712 376.98 223.451 374.032 222.976 373.207L223.024 373.286ZM119.526 328.78C120.764 330.476 122.473 331.933 122.598 334.255C121.634 332.307 120.178 330.72 119.46 328.71L119.526 328.78ZM251.984 274.678C253.714 276.786 255.217 279.064 256.473 281.48C254.679 279.38 253.156 277.071 251.935 274.598L251.984 274.678ZM20.9896 134.992C18.1592 130.308 20.2972 129.108 20.3427 130.279C20.7042 131.819 20.9207 133.396 20.9896 134.992ZM30.6182 159.891C31.9693 161.717 33.0244 163.739 33.7509 165.897C29.8771 159.487 30.1807 160.264 30.6182 159.891ZM265.367 302.658C263.93 300.711 262.874 298.534 261.43 296.613C262.822 298.565 264.83 300.125 265.367 302.658ZM43.3237 193.054C42.6643 193.451 42.9311 194.01 40.4739 188.338L43.3237 193.054ZM74.3291 66.3093C73.2607 64.8452 72.5965 63.128 72.3934 61.3048C73.3274 62.8401 73.9813 64.5308 74.3291 66.3093ZM271.281 310.369C271.038 310.515 268.089 307.123 268.733 306.779C269.377 306.435 269.194 306.916 271.281 310.369ZM185.653 185.595C186.637 186.675 187.396 187.931 187.894 189.303C186.853 188.266 186.087 186.998 185.653 185.595ZM237.863 230.049C237.08 229.267 236.633 228.222 236.602 227.102C237.097 227.959 238.447 228.432 237.853 230.033L237.863 230.049ZM26.7931 140.13C25.8682 139.227 26.0252 137.998 24.962 137.57C23.8987 137.142 26.8778 136.002 26.7931 140.13ZM118.918 67.6492C119.068 69.1505 120.926 69.7975 120.806 71.4395C119.837 70.3804 119.171 69.0897 118.866 67.6806L118.918 67.6492ZM132.232 99.9005C131.078 100.77 132.734 99.9474 130.093 98.0056C129.726 97.7904 129.485 95.4721 132.18 99.9319L132.232 99.9005ZM75.7621 64.1382C75.663 63.3476 75.8955 62.4009 74.8766 61.968C74.809 61.8561 74.8104 61.3102 74.8119 60.9604C74.8569 59.6251 77.1084 63.938 75.7681 64.2654L75.7621 64.1382ZM47.4925 201.401C47.9197 201.703 48.2667 202.096 48.5096 202.552C48.7525 203.008 48.8856 203.516 48.8995 204.042C48.4471 203.77 48.0808 203.388 47.8338 202.931C47.5868 202.475 47.4669 201.958 47.485 201.427L47.4925 201.401ZM245.452 243.117C244.962 242.803 244.554 242.386 244.258 241.896C243.961 241.405 243.782 240.851 243.733 240.272C244.573 241.041 245.18 242.019 245.497 243.112L245.452 243.117ZM267.822 306.172C267.42 305.194 266.383 304.575 266.151 303.407C268.365 305.387 268.365 305.387 267.822 306.172ZM148.377 97.2862C149.263 98.1261 147.493 99.1918 147.705 98.3668C147.916 97.5419 147.086 97.3438 147.67 96.8613C148.017 96.6523 148.253 96.9247 148.406 97.3342L148.377 97.2862ZM23.2849 132.759L25.0225 136.378C23.9822 135.452 23.3633 134.163 23.2849 132.759ZM219.155 304.781L220.508 307.019C220.095 306.795 219.755 306.472 219.517 306.078C219.279 305.685 219.151 305.233 219.146 304.765L219.155 304.781ZM148.743 41.6225C149.055 41.4344 148.708 41.0551 151.055 44.9394C150.76 45.1171 151.081 45.4909 148.743 41.6225ZM74.5727 55.0434C75.4755 55.0884 74.8881 56.0744 75.1352 56.2091C75.3822 56.3437 75.907 56.5074 75.3518 56.8417C74.7966 57.176 73.9477 55.0273 74.5727 55.0434ZM122.775 74.658L124.707 77.855C123.805 76.9643 123.143 75.8702 122.775 74.658ZM207.632 235.826C207.429 235.49 206.711 235.203 207.461 234.839C207.86 234.598 208.16 235.29 208.089 235.485C207.138 237.671 210.112 236.796 207.667 235.805L207.632 235.826ZM217.222 304.048L218.594 306.318C217.949 305.682 216.812 305.407 217.222 304.048ZM158.902 56.8275L160.699 59.8008C159.864 58.9687 159.25 57.9523 158.902 56.8275ZM250.079 271.879C249.293 271.282 248.773 270.421 248.611 269.449C249.069 270.285 249.656 271.022 250.079 271.879ZM205.416 333.265C205.358 332.973 204.808 332.65 205.363 332.315C205.919 331.981 205.935 332.713 206.28 332.854C207.262 333.265 205.612 334.019 205.416 333.265ZM132.816 103.059L131.608 101.061C133.242 100.906 132.109 102.634 132.816 103.059ZM170.341 221.305C170.716 221.591 171.015 221.958 171.217 222.379C171.418 222.801 171.517 223.266 171.507 223.743C170.895 223.058 170.493 222.217 170.341 221.305ZM207.395 334.581C207.387 334.803 207.854 335.067 207.484 335.355C206.332 336.267 206.496 332.898 207.395 334.581ZM263.056 320.685C263.501 321.42 264.242 321.628 264.206 322.587C263.569 322.12 262.89 321.897 263.056 320.685ZM107.307 304.371L106.908 304.612C106.992 303.537 105.025 299.968 107.307 304.371ZM184.179 183.234C184.947 183.778 185.446 184.603 185.57 185.536C184.856 184.945 184.37 184.14 184.179 183.234ZM112.812 41.021C112.013 40.5211 112.307 39.559 111.919 38.8772C112.233 39.1335 112.477 39.46 112.632 39.8316C112.787 40.2031 112.848 40.6101 112.812 41.021ZM75.5951 70.9103C75.9526 71.5017 76.6687 71.9425 76.3782 72.7933L75.5951 70.9103ZM208.099 277.558C208.793 277.14 209.338 278.512 208.843 278.789C208.348 279.065 207.692 277.824 208.109 277.574L208.099 277.558ZM245.04 265.342C246.086 265.78 245.672 266.662 246.112 267.116C245.807 266.928 245.555 266.675 245.373 266.373C245.19 266.072 245.083 265.731 245.059 265.374L245.04 265.342ZM114.996 65.1927C114.112 64.7875 114.053 63.9071 113.769 63.1626L114.996 65.1927ZM160.45 141.229C161.121 142.025 161.094 142.804 161.677 143.259C161.29 143.08 160.971 142.797 160.756 142.441C160.54 142.085 160.438 141.67 160.46 141.245L160.45 141.229ZM160.161 140.75C159.172 139.623 159.172 139.623 159.117 139.023C159.608 139.509 159.974 140.1 160.188 140.755L160.161 140.75ZM155.575 148.198C155.948 148.343 156.256 148.6 156.457 148.932C156.658 149.264 156.741 149.656 156.696 150.053C156.199 149.523 155.827 148.894 155.602 148.204L155.575 148.198ZM216.709 359.233C215.064 359.526 215.207 358.394 215.749 358.351C216.291 358.308 216.22 358.895 216.709 359.233ZM33.4326 160.006C33.1041 159.872 32.8451 159.625 32.7028 159.311C32.5605 158.996 32.5444 158.635 32.6575 158.292L33.4326 160.006ZM237.4 261.745L236.492 260.242C237.503 260.898 237.503 260.898 237.409 261.761L237.4 261.745ZM59.0694 222.358C60.2559 222.56 60.3189 223.917 59.8229 223.605C59.5939 223.487 59.405 223.312 59.2746 223.096C59.1443 222.88 59.0768 222.632 59.079 222.375L59.0694 222.358ZM189.162 191.832C189.779 192.071 190.424 192.315 190.128 193.431L189.162 191.832ZM138.813 363.866C139.19 364.108 139.503 364.429 139.731 364.806C139.96 365.184 140.098 365.61 140.136 366.056L138.813 363.866ZM263.033 292.922C262.313 292.789 261.661 292.767 262.002 291.843C262.268 291.918 262.505 292.06 262.689 292.255C262.873 292.45 262.998 292.691 263.052 292.954L263.033 292.922ZM115.972 67.3955C115.675 67.231 115.441 66.9834 115.297 66.683C115.153 66.3825 115.106 66.0421 115.162 65.703L115.972 67.3955ZM216.811 259.121C217.122 259.233 217.372 259.453 217.515 259.74C217.658 260.026 217.684 260.361 217.589 260.681C217.615 260.098 217.001 259.748 216.831 259.153L216.811 259.121ZM287.958 286.786C288.371 287.15 288.631 287.648 288.693 288.197C288.513 287.782 287.566 287.742 288.03 286.787L287.958 286.786ZM168.637 218.211C168.927 218.69 169.548 218.818 169.035 219.497C168.64 219.234 168.526 218.888 168.637 218.211ZM238.861 335.625C238.351 335.017 238.002 334.791 237.895 334.027C238.194 334.178 238.441 334.405 238.61 334.686C238.78 334.967 238.866 335.29 238.861 335.625ZM204.832 331.436C202.826 331.249 204.615 330.411 204.857 331.007C204.917 331.146 204.845 331.341 204.832 331.436ZM126.053 39.8281C125.821 39.4444 124.982 39.4265 125.299 38.5812C125.527 38.705 125.716 38.8839 125.847 39.1015C125.979 39.3192 126.049 39.5689 126.053 39.8281ZM43.5482 219.387C44.7363 219.238 44.6232 220.069 44.3474 220.083C44.0716 220.096 43.8167 219.792 43.5482 219.387ZM243.477 331.908C244.663 331.913 244.479 332.94 244.057 332.867C243.634 332.794 243.632 332.36 243.477 331.908ZM163.109 146.06C162.971 146.143 163.129 146.288 162.057 144.514C162.234 144.494 162.076 144.349 163.109 146.06ZM170.182 220.768C169.378 221.122 169.19 219.36 170.363 220.245C170.452 220.432 170.45 220.585 170.182 220.768ZM149.729 376.173L150.064 377.432C149.273 377.102 149.369 376.673 149.643 376.225L149.729 376.173ZM35.7781 163.848C34.9542 163.581 34.9422 163.13 34.899 162.393C35.1505 162.557 35.3536 162.78 35.4914 163.042C35.6291 163.304 35.6977 163.598 35.6914 163.9L35.7781 163.848ZM262.909 320.402C262.556 320.092 261.842 320.086 262.002 319.292C262.441 319.538 262.749 319.948 262.857 320.434L262.909 320.402ZM185.08 195.533C184.783 195.864 184.583 196.159 184.209 196.166C183.835 196.174 183.913 195.167 185.063 195.543L185.08 195.533ZM187.775 195.567C186.941 195.48 186.652 195.001 187.195 194.608L187.775 195.567ZM209.511 238.466C209.1 238.256 208.707 238.231 208.679 237.833C208.652 237.436 209.204 237.409 209.494 238.476L209.511 238.466ZM62.4339 224.911C61.6368 224.453 61.4937 224.06 61.7073 223.474L62.4339 224.911ZM180.637 236.188C181.401 236.317 182.038 236.783 181.471 237.255L180.637 236.188ZM59.1398 227.331C58.7061 227.592 58.7823 226.739 58.8651 226.602C58.9479 226.465 59.5716 227.027 59.1398 227.331ZM227.249 377.85C226.337 378.181 226.408 377.593 226.819 377.411C227.492 377.115 227.361 377.368 227.249 377.85ZM257.422 282.893C257.827 283.565 258.204 283.796 257.867 284.609L257.422 282.893ZM49.9701 208.085C49.6996 207.637 50.4672 207.459 50.5601 207.73C50.6529 208.001 50.1923 208.453 49.9527 208.095L49.9701 208.085ZM216.378 303.553C216.638 302.808 216.551 302.86 217.013 303.389C217.166 303.602 217.191 303.958 216.361 303.564L216.378 303.553ZM259.961 317.207C259.388 317.552 258.965 316.891 259.329 316.671C259.694 316.452 260.211 317.034 259.943 317.217L259.961 317.207ZM129.962 41.4418C130.466 41.9232 131.134 42.2842 130.542 42.4009C129.95 42.5176 130.175 41.9896 129.962 41.4418ZM166.211 151.779C166.072 151.863 166.201 151.959 165.458 150.729C165.648 150.614 165.467 150.548 166.211 151.779ZM190.81 194.677C190.912 194.376 191.039 193.841 191.313 194.374C191.412 194.576 191.405 194.995 190.81 194.677ZM109.903 307.256C109.823 307.372 109.704 307.459 109.568 307.501C109.432 307.543 109.289 307.536 109.164 307.483C109.246 307.37 109.365 307.285 109.5 307.244C109.635 307.203 109.777 307.207 109.903 307.256ZM238.819 231.239C238.576 231.386 238.081 230.92 238.471 230.664C238.86 230.408 239.258 231.105 238.819 231.239ZM49.5313 205.166C48.2683 205.621 49.64 203.858 49.6967 204.696C49.7914 204.813 49.6565 204.982 49.5313 205.166ZM45.928 199.204C45.928 199.204 45.9335 198.939 46.0029 198.897C47.2253 198.335 46.5496 199.723 45.928 199.204ZM29.3696 153.361C29.0605 152.849 28.5451 152.506 29.0504 152.441C29.5557 152.377 29.4924 152.742 29.4216 153.33L29.3696 153.361ZM123.346 191.392C122.81 191.366 122.393 191.421 122.244 190.9C122.755 190.767 123.058 190.759 123.346 191.392ZM74.3855 66.755C75.4194 66.7429 74.2459 67.9727 74.2586 67.093C74.2805 66.9754 74.3234 66.8611 74.3855 66.755ZM217.07 302.308C218.138 302.471 218.064 303.17 217.759 303.136C217.454 303.101 217.348 302.73 217.087 302.298L217.07 302.308ZM74.5643 54.2854C74.2926 54.5798 73.9988 54.0154 74.1298 53.7622C74.2607 53.5089 74.8243 53.9326 74.5643 54.2854ZM260.565 345.774C260.169 345.119 260.14 345.071 260.437 345.132C260.5 345.154 260.555 345.19 260.598 345.239C260.64 345.287 260.669 345.345 260.682 345.408C260.694 345.472 260.69 345.538 260.67 345.602C260.65 345.666 260.614 345.725 260.565 345.774ZM208.882 279.245C209.774 278.489 209.559 279.033 209.083 279.342C209.048 279.363 208.946 279.272 208.882 279.245ZM116.026 37.8426C115.378 37.5136 115.295 37.2585 115.379 36.7716L116.026 37.8426ZM118.26 33.7069C118.069 34.2141 117.799 34.3548 117.307 34.1279C117.662 33.8925 117.882 33.6295 118.321 33.6916L118.26 33.7069ZM180.337 235.3C180.009 235.345 180.094 235.446 179.964 234.958C180.425 234.898 180.34 234.797 180.399 235.285L180.337 235.3ZM121.342 72.5996C120.904 72.3838 120.653 72.3603 121.032 72.0881C121.412 71.8158 121.665 71.8817 121.403 72.5843L121.342 72.5996ZM121.67 73.1431C122.127 73.3909 122.309 73.6522 122.23 74.0702C122.078 73.9613 121.956 73.8192 121.873 73.6543C121.789 73.4893 121.747 73.3058 121.749 73.1173L121.67 73.1431ZM258.206 316.105C258.31 316.042 258.287 315.73 258.391 315.667C258.913 315.396 259.036 316.891 258.285 316.079L258.206 316.105ZM217.508 355.504C217.308 356.583 216.615 355.867 216.944 355.669C217.274 355.47 217.349 355.556 217.587 355.478L217.508 355.504ZM206.44 233.775C207.298 233.629 207.368 233.979 207.471 234.462L206.44 233.775ZM216.544 354.144C216.386 354.392 216.519 354.377 216.044 354.336C216.142 353.95 216.009 353.964 216.484 354.202L216.544 354.144ZM204.877 379.44C204.648 379.883 204.796 379.815 204.287 379.795C204.499 379.362 204.302 379.546 204.817 379.497L204.877 379.44ZM278.195 353.058C277.545 353.079 277.796 352.71 278.012 352.754C278.228 352.798 278.224 352.91 278.136 353.116L278.195 353.058ZM25.8405 142.47C25.6904 142.41 25.5663 142.306 25.4851 142.172C25.4039 142.037 25.3694 141.879 25.3865 141.719C25.5406 141.774 25.6682 141.877 25.7501 142.012C25.8321 142.148 25.8638 142.308 25.8405 142.47ZM31.4891 156.947C31.6823 157.266 32.0181 157.391 31.9473 157.979C31.6711 157.6 31.3777 157.428 31.4891 156.947ZM28.4983 155.913C28.6639 156.021 28.7901 156.174 28.8618 156.356C28.9335 156.537 28.9476 156.738 28.9024 156.934C28.6705 156.551 28.3021 156.489 28.4482 155.987L28.4983 155.913ZM277.205 352.085C276.983 351.717 277.628 351.219 277.571 352.104L277.205 352.085ZM63.0199 226.389C62.6051 226.29 62.9383 225.785 63.1468 226.051C63.3554 226.318 63.2031 226.301 63.0199 226.389ZM216.99 252.603C216.425 252.53 215.879 252.292 216.384 252.031C216.889 251.77 216.838 252.194 216.99 252.603ZM39.787 190.06L39.9605 189.956C40.0827 190.667 40.1347 190.636 39.787 190.06ZM172.344 163.26C171.9 162.721 172.292 162.311 172.608 162.796C172.925 163.281 172.042 163.268 172.344 163.26ZM177.134 170.754C177.024 171.278 176.622 170.691 176.921 170.402L177.134 170.754ZM164.526 149.109C163.98 148.675 164.305 147.999 164.649 148.49C164.753 148.624 164.867 148.773 164.526 149.109ZM167.492 154.017C167.088 153.584 166.81 153.359 166.951 152.925C167.335 153.13 167.378 153.475 167.457 154.037L167.492 154.017ZM148.68 8.97867C148.864 7.75596 152.033 9.55401 151.719 7.58491C151.636 7.91809 155.132 8.49472 155.408 8.48124C153.71 6.10249 151.931 6.21406 152.424 5.11066C159.693 12.0487 157.314 6.89732 158.596 8.5887C162.235 13.396 164.578 12.5738 163.177 11.5863C162.154 10.8724 162.108 9.50457 161.162 8.72245C160.216 7.94033 161.445 8.09425 161.674 7.84716C159.889 6.28945 158.244 4.58969 156.756 2.76364C158.366 1.51104 169.554 17.3611 169.801 17.4957C163.576 -8.03643 246.34 148.375 246.594 148.483C247.238 147.943 245.879 147.3 247.067 147.152C247.378 147.117 248.605 148.951 247.669 148.97C243.314 148.889 310.495 258.411 369.267 325.862C373.656 330.893 375.034 339.831 332.905 287.191C332.318 286.455 330.394 285.934 334.481 290.974C315.756 286.029 148.57 9.30631 148.68 8.97867ZM219.343 139.886C219.462 139.182 191.787 86.8867 191.9 86.6439C192.807 82.7404 148.1 21.45 147.127 18.7437C147.599 22.1876 163.179 41.9771 163.34 42.164C170.075 50.0991 219.579 139.962 219.274 139.927L219.343 139.886ZM190.907 86.9585C189.112 85.1619 189.372 84.8091 183.285 73.758C186.228 77.9162 188.756 82.3482 190.838 87.0003L190.907 86.9585ZM239.186 186.934C238.811 188.075 249.054 200.287 247.223 200.233C245.921 200.233 250.242 201.861 251.065 205.18C250.449 204.984 250.335 204.246 249.359 204.158C263.87 228.175 280.106 251.116 297.958 272.829C297.707 272.021 258.609 216.488 255.692 210.33C254.437 207.706 256.845 210.006 255.749 208.115C255.566 207.812 255.286 207.348 254.896 207.8C254.27 208.526 254.173 207.974 253.951 207.607C229.631 167.833 239.109 187.002 239.117 186.976L239.186 186.934ZM251.665 206.76C252.188 206.962 252.651 207.275 253.021 207.678C253.391 208.08 253.659 208.562 253.806 209.089C253.328 209.552 253.299 209.308 251.647 206.77L251.665 206.76ZM255.083 211.242C255.896 212.039 256.57 212.527 255.948 213.534C255.218 212.992 255.211 212.276 254.994 211.252L255.083 211.242ZM258.976 217.488C258.389 216.947 258.389 216.947 258.477 216.349C258.863 216.596 258.806 217.089 258.887 217.497L258.976 217.488ZM82.7108 297.817C112.517 345.101 109.801 345.777 108.342 342.382C107.164 339.69 81.3015 298.578 82.6895 297.742L82.7108 297.817ZM157.708 412.793C157.969 412.636 158.241 412.734 158.181 412.988C156.475 419.444 188.439 449.272 155.462 411.66C153.415 409.016 151.666 406.162 150.242 403.139C150.982 403.151 157.531 412.812 157.706 412.75L157.708 412.793ZM25.0103 192.941C25.4085 193.835 24.6295 194.151 24.2989 193.369C23.9682 192.587 16.0713 178.854 16.0037 178.742C-15.9402 124.788 17.7423 177.39 25.0103 192.941ZM136.733 384.937C137.989 382.785 128.699 376.694 145.941 398.294C158.043 413.463 137.955 384.375 136.743 384.953L136.733 384.937ZM146.598 396.874C146.573 397.696 145.745 396.952 146.067 396.78C146.389 396.608 146.482 396.683 146.607 396.89L146.598 396.874ZM85.7014 274.846C84.2689 271.653 76.7265 259.604 77.4967 258.137C77.6082 259.77 78.6909 258.312 78.8401 259.028C79.0362 260.007 79.4955 260.901 80.1737 261.627C80.5116 261.99 79.3551 262.817 80.3775 262.943C81.4 263.068 80.4562 264.443 81.4112 264.653C81.5463 264.67 81.6738 264.715 81.785 264.786C81.8963 264.856 81.9886 264.95 82.0556 265.061C82.1227 265.172 82.1628 265.297 82.1733 265.428C82.1838 265.559 82.1644 265.693 82.1164 265.82C81.5128 267.993 84.1326 266.416 83.7931 268.321C83.4535 270.226 86.0246 272.013 86.0076 272.416C85.9861 272.995 86.0863 273.565 86.3022 274.091C86.5182 274.616 86.8454 275.087 87.2644 275.474C86.2333 276.313 85.9585 275.389 85.711 274.862L85.7014 274.846ZM121.578 361.621C122.572 362.287 133.866 380.624 135.758 380.073C134.198 380.664 135.434 381.729 134.734 382.608C130.073 374.034 120.342 362.278 121.501 361.689L121.578 361.621ZM87.1753 271.059C82.993 264.547 79.2444 257.769 75.9503 250.761C77.5979 253.018 87.3092 269.91 87.1753 271.059ZM266.98 328.743C271.296 333.535 268.961 331.082 270.146 331.045C286.191 357.596 266.754 328.879 266.97 328.727L266.98 328.743ZM68.1034 240.988C67.288 241.479 65.8497 238.355 65.0308 237.235C62.6182 233.87 64.9378 232.931 65.3928 234.663C66.0684 237.112 69.2967 240.182 68.1034 240.988ZM84.8846 19.2045C83.4296 18.5982 81.7899 8.64077 80.7031 5.78508C81.8373 5.82153 85.203 19.3398 84.8846 19.2045ZM227.736 155.457C223.404 149.933 225.334 148.858 224.095 148.688C222.857 148.519 223.145 147.822 222.99 147.174C222.683 145.92 224.409 147.758 224.611 147.898C226.291 148.914 224.941 151.733 227.287 152.326C227.476 152.365 227.047 153.495 227.292 153.587C228.356 154.015 228.093 156.048 227.736 155.457ZM87.6221 276.262C88.7982 275.663 88.9295 279.835 91.3273 281.923C91.4432 282.115 92.1546 283.605 91.6514 283.908C91.1482 284.211 86.473 276.867 87.5874 276.283L87.6221 276.262ZM58.7774 22.1714C60.6814 25.6856 62.1476 29.4253 63.1477 33.3187C60.9974 29.8389 60.2238 25.857 58.7774 22.1714ZM69.8496 239.61C73.849 246.227 71.8972 242.606 72.954 242.319C73.3416 242.216 73.7365 243.613 73.2892 243.774C71.521 244.49 73.4422 244.379 74.2423 247.975C68.7553 238.895 69.171 239.975 69.8303 239.578L69.8496 239.61ZM2.6349 145.892C4.88493 150.75 7.12882 155.286 9.48651 159.775C6.85002 156.195 2.62303 147.556 2.61558 145.86L2.6349 145.892ZM154.162 4.50046C155.874 5.6497 163.585 13.2807 149.933 1.77095C152.208 1.42522 152.726 3.53384 154.133 4.45251L154.162 4.50046ZM74.6343 252.382C77.5581 253.892 78.3368 261.054 75.36 254.758C74.036 251.98 71.3515 250.631 74.6519 250.649C72.6815 251.618 75.3743 251.61 74.6053 252.334L74.6343 252.382ZM112.971 348.359C113.682 348.869 113.507 349.911 114.387 350.232C114.649 350.314 114.577 350.859 113.944 350.869C114.122 349.715 112.76 349.772 112.42 348.974C111.879 347.296 110.96 345.775 109.725 344.514C108.677 343.641 111.078 343.7 111.893 346.654C112.139 347.53 112.522 346.558 112.927 346.641C112.79 346.747 112.678 346.881 112.602 347.032C112.526 347.183 112.487 347.347 112.488 347.51C112.49 347.673 112.531 347.831 112.61 347.97C112.689 348.11 112.803 348.226 112.942 348.311L112.971 348.359ZM165.35 37.0723C168.464 41.2126 171.237 45.5914 173.646 50.1728C170.918 45.7763 168.213 41.3005 165.35 37.0723ZM28.2806 162.171C26.2895 159.047 24.5064 155.796 22.9414 152.435C24.967 155.539 26.7513 158.792 28.2806 162.171ZM116.099 353.692C118.327 355.577 121.066 360.97 119.318 359.253C118.17 358.136 115.517 353.825 116.082 353.702L116.099 353.692ZM13.2296 166.634C18.765 175.793 18.3455 174.825 17.9464 175.065C12.4111 165.906 12.8209 166.858 13.2296 166.634ZM199.646 269.131C200.221 271.139 196.441 265.785 196.791 265.268C197.365 264.378 199.077 267.053 199.646 269.131ZM87.2804 271.976C87.1644 271.785 86.67 269.204 90.8172 277.085C88.9912 275.786 88.4221 273.709 87.2804 271.976ZM281.698 333.441C280.522 333.648 280.932 332.486 280.437 332.02C275.655 327.749 277.775 327.889 277.99 328.283C279.576 331.144 283.154 332.913 281.615 333.382L281.698 333.441ZM18.5158 175.42C24.8947 187.189 23.6775 185.175 17.9779 175.744L18.5158 175.42ZM15.0015 142.195C16.7707 144.839 18.1658 147.713 19.1533 150.748C18.0838 147.882 16.0194 145.484 15.0228 142.269L15.0015 142.195ZM214.65 342.944C213.692 343.63 213.752 341.458 211.163 339.288C211.308 339.087 211.495 338.916 211.711 338.786C211.927 338.656 212.166 338.571 212.412 338.536C212.912 340.655 215.221 342.557 214.633 342.955L214.65 342.944ZM152.636 16.1897C150.846 14.5204 149.937 12.0373 146.862 11.687C148.721 11.0037 153.342 14.4999 152.638 16.2321L152.636 16.1897ZM72.353 247.041C73.3991 247.676 71.7378 249.156 71.768 248.462C71.7982 247.768 70.2683 247.468 70.802 246.863C72.178 245.577 70.7259 245.993 70.1547 245.792C71.9123 244.08 72.1079 246.949 72.355 247.083L72.353 247.041ZM228.003 257.396C229.045 259.138 230.216 260.801 231.507 262.372C230.209 262.26 228.059 259.172 228.005 257.438L228.003 257.396ZM252.571 348.953C252.067 348.472 252.804 348.007 253.213 348.567C254.318 350.082 256.83 350.989 256.119 351.809C255.633 351.71 256.27 352.373 252.66 348.944L252.571 348.953ZM222.932 146.293C222.056 146.646 222.783 145.773 222.107 145.242C220.941 144.331 220.927 144.034 222.199 143.006C222.284 144.242 223.938 145.883 222.932 146.293ZM96.0529 291.505C95.1854 292.027 95.2243 290.369 94.4189 289.349C93.6135 288.33 94.3157 288.278 95.0176 288.029C95.1814 289.828 96.7392 291.113 96.0529 291.505ZM173.834 65.1684C175.298 66.9302 176.553 68.8492 177.578 70.8936C176.319 69.1229 174.446 67.5906 173.834 65.1684ZM247.561 342.464C247.938 340.777 246.141 340.115 245.592 338.658C246.308 338.902 249.611 341.666 247.561 342.464ZM172.604 407.485L176.238 412.558C174.588 411.211 173.34 409.468 172.604 407.485ZM157.003 27.8405L153.121 22.9834C154.825 24.2508 156.156 25.9168 157.003 27.8405ZM91.7485 284.656C92.1697 283.356 93.7209 285.649 93.6055 286.045C93.0935 287.117 94.1211 286.585 94.4204 286.885C93.5164 287.582 91.5466 285.301 91.7485 284.656ZM271.724 322.027C278.142 327.908 275.032 327.775 271.724 322.027V322.027ZM82.7069 297.732C81.5483 297.095 80.6728 296.087 80.2196 294.869C80.3218 292.845 82.9808 297.676 82.7069 297.732ZM271.686 322.16C270.302 321.085 269.181 319.736 268.389 318.193C268.922 318.722 272.167 320.998 271.686 322.16ZM106.049 37.3099C104.662 35.5026 103.746 33.3845 103.372 31.1171C104.155 33.1963 105.141 35.219 106.049 37.3099ZM244.62 339.439C243.472 340.436 239.937 332.121 244.234 338.603C244.149 338.894 245.228 338.877 244.601 339.407L244.62 339.439ZM78.0835 290.16C78.7314 290.607 79.2458 291.207 79.5827 291.908C79.9196 292.608 80.0691 293.389 80.0184 294.184C79.1553 292.946 78.4968 291.58 78.0642 290.128L78.0835 290.16ZM148.25 16.8031C149.577 18.4896 151.47 19.7041 152.273 21.8152C147.395 16.4458 147.818 17.1068 148.231 16.7712L148.25 16.8031ZM88.8649 306.473C90.1377 308.148 90.5507 310.32 92.1011 311.828C90.6486 310.276 89.543 308.447 88.8456 306.441L88.8649 306.473ZM251.897 156.082C251.274 154.778 249.68 154.059 249.728 152.025C250.842 153.116 251.587 154.512 251.877 156.05L251.897 156.082ZM229.51 361.816C228.169 359.832 231.931 361.906 231.398 363.491C230.915 362.692 229.848 362.571 229.404 361.836L229.51 361.816ZM217.284 345.501C217.622 346.06 217.192 346.602 216.638 345.999C212.851 341.847 216.292 343.743 217.178 345.521L217.284 345.501ZM151.669 7.6587C150.797 7.70405 151.769 9.23367 148.487 4.62558C148.381 4.44975 148.376 4.16883 148.91 3.95622C149.437 5.43667 150.392 6.71827 151.669 7.6587ZM219.293 139.959C220.225 140.249 221.022 142.625 220.654 142.759C219.838 143.054 218.93 140.963 219.347 139.971L219.293 139.959ZM24.2663 90.9182C24.4257 92.5603 24.4789 94.2176 24.4255 95.8805C24.7553 95.8781 23.019 93.6315 24.2663 90.9182ZM252.888 158.428C253.074 157.248 254.398 159.438 254.991 160.302C254.466 160.234 253.985 160.017 253.607 159.678C253.23 159.339 252.973 158.893 252.869 158.396L252.888 158.428ZM282.84 357.063C283.354 357.364 283.302 359.511 280.848 355.45C281.934 355.799 282.126 356.665 282.821 357.031L282.84 357.063ZM184.262 414.245C183.056 413.259 182.183 411.95 181.741 410.465C182.587 411.787 183.56 412.967 184.291 414.293L184.262 414.245ZM16.9304 140.139C14.5454 135.253 14.737 135.922 15.1554 135.714C17.6601 140.681 17.4819 139.916 16.9594 140.187L16.9304 140.139ZM26.9264 197.521C27.9729 198.411 28.6933 199.603 28.9936 200.942L26.9264 197.521ZM140.075 13.2227C138.819 12.2985 137.281 11.769 135.653 11.6999C136.506 11.3968 137.422 11.3883 138.238 11.6761C139.053 11.9638 139.715 12.529 140.104 13.2707L140.075 13.2227ZM70.967 240.049C70.7255 239.649 71.0924 238.142 72.1365 240.653C73.1096 241.636 72.9351 242.679 70.996 240.097L70.967 240.049ZM121.914 360.023C119.331 356.651 119.179 356.634 119.653 356.283C120.127 355.932 122.292 359.905 121.873 360.113L121.914 360.023ZM160.634 33.4587L158.055 29.1907C159.387 30.2796 160.291 31.775 160.634 33.4587ZM234.173 386.762C233.635 387.086 229.939 382.967 234.059 385.828C234.155 386.184 234.57 386.479 234.173 386.762ZM234.369 178.65C233.863 178.126 234.476 177.692 235.08 178.222C235.254 178.313 237.686 182.103 234.369 178.65ZM278.749 326.016C278.663 325.872 278.739 325.412 278.882 325.609C279.423 326.308 280.072 325.111 279.904 325.343C279.367 326.059 281.484 329.602 278.749 326.016ZM167.992 44.4203C169.24 45.5807 170.239 46.9674 170.938 48.5113L167.992 44.4203ZM118.879 355.746C118.054 354.792 117.444 353.678 117.086 352.466C117.664 353.578 118.959 354.39 118.879 355.746ZM78.1426 287.399C81.0407 292.195 78.8671 288.598 77.4846 289.169C78.0183 288.564 78.5407 288.097 78.1426 287.399ZM19.8719 151.82C20.2246 153.461 21.6666 154.555 21.9402 156.221C20.9443 154.914 20.2685 153.395 19.9587 151.768L19.8719 151.82ZM105.73 38.701C107.212 39.3129 108.65 41.8484 107.32 41.0576C106.995 40.2067 106.003 39.7793 105.817 38.6487L105.73 38.701ZM255.455 163.184C255.136 162.656 255.251 162.064 254.853 161.366C256.614 161.657 256.553 164.375 255.455 163.184ZM13.607 130.411C12.765 129.272 12.1361 127.993 11.7458 126.626C12.6103 127.722 13.2295 128.986 13.5683 130.347L13.607 130.411ZM243.434 335.008L245.574 338.08C244.447 337.36 243.67 336.242 243.395 334.944L243.434 335.008ZM281.683 333.494C282.317 334.856 283.909 335.533 284.354 337.053C284.155 336.802 280.618 333.024 281.644 333.43L281.683 333.494ZM22.033 150.541C21.5999 149.471 20.357 148.824 20.5871 147.443C20.9816 148.448 21.9989 149.231 21.9596 150.497L22.033 150.541ZM70.8767 275.924C72.2074 277.696 72.2076 277.892 70.5779 278.132C71.638 277.341 70.3237 276.693 70.8226 275.913L70.8767 275.924ZM227.092 305.539C227.605 305.784 228.037 306.152 228.351 306.61C228.665 307.067 228.85 307.601 228.89 308.163L227.092 305.539ZM263.099 310.652C263.7 312.47 267.105 316.655 262.682 310.903L263.099 310.652ZM74.6686 247.936L76.0157 250.635C74.5816 249.711 74.3322 249.141 74.6146 247.925L74.6686 247.936ZM237.788 390.472C239.123 390.605 239.006 391.744 239.481 392.373C239.035 392.235 238.64 391.986 238.334 391.652C238.029 391.317 237.822 390.907 237.734 390.461L237.788 390.472ZM223.723 353.767C224.417 354.473 224.971 355.297 225.361 356.204C224.849 356.016 224.416 355.685 224.115 355.25C223.815 354.815 223.659 354.296 223.669 353.756L223.723 353.767ZM260.898 307.246C261.011 308.529 262.077 309.196 262.562 310.234C262.043 309.913 261.618 309.475 261.32 308.955C261.022 308.434 260.859 307.845 260.844 307.235L260.898 307.246ZM276.088 322.082L274.286 319.765C275.083 320.223 276.042 320.714 275.985 321.991L276.088 322.082ZM6.92399 135.133C6.56161 133.88 6.05727 132.678 5.41972 131.548C5.89229 131.992 6.26126 132.529 6.50494 133.127C6.74861 133.725 6.86216 134.373 6.83902 135.032L6.92399 135.133ZM116.211 353.799C114.994 353.311 115.573 351.763 114.598 351.129C115.932 352.201 116.449 353.721 116.126 353.697L116.211 353.799ZM68.5879 243.356C67.6219 241.758 71.3086 242.219 69.5542 243.232C69.1374 243.091 68.8121 243.766 68.5029 243.255L68.5879 243.356ZM258.233 303.814C259.138 304.641 259.823 305.667 260.236 306.816C259.915 306.246 257.962 304.501 258.233 303.814ZM26.6689 196.586C26.3664 196.444 26.1093 196.231 25.9199 195.966C25.7305 195.7 25.6144 195.389 25.5814 195.061C26.4168 195.19 26.4349 195.964 26.6689 196.586ZM12.9919 166.123C12.2799 165.429 11.8423 164.513 11.747 163.515C12.4399 164.232 12.8474 165.168 12.9051 166.175L12.9919 166.123ZM284.432 333.343C285.194 333.822 286.076 334.185 286.166 335.351C285.002 335.071 285.125 333.863 284.38 333.375L284.432 333.343ZM233.328 176.966C232.69 175.911 233.865 175.466 234.089 176.072C234.565 177.486 233.616 177.599 233.276 176.997L233.328 176.966ZM240.471 276.225C239.539 275.358 238.873 274.256 238.539 273.028L240.471 276.225ZM218.299 347.767C217.795 348.07 217.902 347.112 217.387 346.965C216.872 346.817 217.971 345.698 218.232 346.717C218.329 347.073 218.892 347.497 218.299 347.767ZM10.5469 161.098C11.7587 163.573 11.6446 163.228 11.4267 163.337C9.997 160.972 10.0688 161.364 10.5276 161.066L10.5469 161.098ZM37.3366 94.6899L37.8812 97.1964C37.5141 96.905 37.2615 96.5019 37.1601 96.0455C37.0587 95.5891 37.1138 95.1031 37.3173 94.658L37.3366 94.6899ZM222.861 249.199C224.075 249.798 224.131 250.832 224.688 251.478C223.528 251.283 223.498 250.254 222.861 249.199ZM171.743 51.0571L173.431 53.4199C172.938 53.2096 172.519 52.8753 172.217 52.4498C171.914 52.0243 171.737 51.5223 171.704 50.9932L171.743 51.0571ZM177.811 60.7459C178.053 61.1455 178.975 61.4186 178.449 61.8009C177.177 62.6325 176.789 58.5056 177.703 60.7238L177.811 60.7459ZM332.531 317.351C333.33 317.923 333.924 318.715 334.243 319.634C333.444 319.063 332.85 318.27 332.531 317.351ZM156.206 385.049C155.648 384.753 156.512 385.126 156.069 383.453C157.195 383.32 157.163 385.498 156.157 384.969L156.206 385.049ZM112.633 67.5093C112.969 67.828 113.226 68.2154 113.389 68.6467C113.552 69.078 113.616 69.5436 113.579 70.0139L112.633 67.5093ZM239.951 392.876C240.564 393.154 241.022 393.66 241.229 394.286C240.852 393.859 239.745 394.024 239.951 392.876ZM217.413 243.279C217.17 242.641 216.034 242.758 216.177 241.429C216.722 242.213 217.482 242.453 217.413 243.279ZM191.61 257.596C191.145 256.92 190.858 256.137 190.773 255.31C191.123 255.927 192.066 256.275 191.61 257.596ZM143.789 128.501L144.995 130.849C143.845 130.473 144.184 129.31 143.789 128.501ZM200.264 124.057C200.296 124.091 200.318 124.133 200.331 124.179C200.343 124.224 200.344 124.272 200.334 124.32C200.324 124.368 200.304 124.413 200.274 124.454C200.245 124.494 200.206 124.528 200.163 124.554C200.163 124.554 199.821 124.498 199.811 124.482C200.283 121.582 197.747 121.888 200.264 124.057ZM258.214 303.782C257.264 303.243 256.453 302.515 255.831 301.641C257.847 302.041 258.04 304.279 258.214 303.782ZM175.217 52.8896C175.56 53.0988 175.837 53.391 176.023 53.7398C176.209 54.0885 176.298 54.4827 176.282 54.8865C175.941 54.0885 175.191 53.6685 175.178 52.8257L175.217 52.8896ZM275.546 326.746C277.16 325.774 277.893 329.454 275.546 326.746V326.746ZM243.733 173.469L244.498 174.971C243.206 174.593 243.155 174.471 243.625 173.447L243.733 173.469ZM248.612 291.185C249.248 291.982 249.777 292.857 250.187 293.79L248.612 291.185ZM258.282 321.008C258.803 320.695 260.229 322.976 259.48 322.598C258.731 322.221 258.086 321.192 258.226 320.955L258.282 321.008ZM226.898 305.023C226.454 304.288 225.543 303.877 225.585 302.849C226.169 303.415 226.588 304.122 226.804 304.906L226.898 305.023ZM180.757 63.1145C180.554 61.9943 179.627 61.2442 179.278 59.8843C181.29 63.2516 181.158 62.7205 180.663 62.9971L180.757 63.1145ZM85.565 301.091L84.4057 299.173C84.9918 299.605 85.3818 300.236 85.5051 300.952L85.565 301.091ZM227.162 358.127C226.833 358.082 226.532 357.944 226.296 357.729C226.061 357.513 225.902 357.231 225.84 356.918C226.264 356.641 225.936 356.489 227.162 358.127ZM329.785 313.903C330.164 314.059 330.485 314.311 330.718 314.634C330.951 314.957 331.086 315.34 331.11 315.743C330.492 315.272 330.009 314.659 329.698 313.955L329.785 313.903ZM20.5079 151.306C19.7649 150.86 19.7738 150.091 19.6226 149.332C19.9008 149.579 20.1149 149.885 20.2495 150.23C20.3842 150.575 20.4362 150.949 20.4019 151.327L20.5079 151.306ZM107.268 36.8595C107.236 35.5925 105.868 34.9338 105.949 33.6201C105.369 33.5991 107.168 35.2844 107.162 36.8797L107.268 36.8595ZM175.248 57.4056C174.784 56.8724 174.445 56.2453 174.253 55.563C174.443 55.6202 174.617 55.7137 174.765 55.8383C174.913 55.9629 175.031 56.1161 175.114 56.2891C175.196 56.4622 175.241 56.6517 175.246 56.8467C175.251 57.0418 175.216 57.2386 175.142 57.4259L175.248 57.4056ZM234.435 366.481C234.854 366.861 232.935 366.817 233.178 365.341C233.921 365.395 233.92 366.137 234.329 366.501L234.435 366.481ZM182.143 65.4851L181.032 63.6468C182.143 64.3509 182.143 64.3509 182.143 65.4851ZM238.245 272.464C237.58 272.145 236.796 271.985 236.967 270.661L238.245 272.464ZM256.447 164.2C256.545 163.617 257.753 163.893 257.21 165.462C256.922 164.829 256.421 164.782 256.447 164.2ZM242.026 171.663C240.799 169.633 240.954 169.888 241.154 169.789C242.373 171.846 242.209 171.574 241.957 171.705L242.026 171.663ZM104.054 29.1143L103.063 26.9644C103.41 27.1998 103.683 27.5205 103.857 27.8964C104.03 28.2724 104.098 28.6915 104.054 29.1143ZM257.527 211.253C257.208 210.725 256.396 210.517 256.389 209.605C256.686 209.79 256.936 210.034 257.123 210.323C257.309 210.612 257.429 210.939 257.475 211.284L257.527 211.253ZM200.561 102.228L199.52 100.936C200.768 100.926 200.647 101.587 200.509 102.259L200.561 102.228ZM132.148 12.0879C132.965 12.6149 133.561 13.3959 133.848 14.3129C133.401 13.5352 132.439 13.1557 132.096 12.1192L132.148 12.0879ZM327.713 311.532C328.109 312.187 329.109 312.392 329.245 313.4C328.486 313.01 327.937 312.34 327.713 311.532ZM69.9199 244.386C70.423 244.083 71.137 244.285 69.7553 245.64C69.8456 245.281 69.2779 244.772 69.9199 244.386ZM15.3618 179.129C15.7363 179.514 16.2941 179.81 16.0557 180.63C15.8063 180.472 15.6103 180.249 15.4883 179.985C15.3662 179.721 15.3226 179.426 15.3618 179.129ZM170.705 50.3961C169.632 48.2295 169.613 48.5897 170.022 48.3654C171.185 50.5646 171.212 50.178 170.734 50.4441L170.705 50.3961ZM307.106 342.669C306.608 342.315 305.913 342.144 305.822 341.131C306.165 341.265 306.463 341.479 306.692 341.755C306.921 342.031 307.073 342.361 307.135 342.717L307.106 342.669ZM224.313 300.628C224.728 300.727 224.637 302.613 223.217 299.675C224.15 299.614 223.775 300.56 224.342 300.676L224.313 300.628ZM184.03 82.7058C183.739 82.5136 183.497 82.2624 183.319 81.968C183.141 81.6735 183.031 81.3424 182.997 80.9954C183.935 81.4118 183.818 82.158 184.03 82.7058ZM174.675 54.8512C173.023 52.1177 173.187 52.3895 173.309 52.3163C174.99 55.0977 174.866 54.7363 174.675 54.8512ZM284.372 335.32C285.04 335.877 285.906 335.9 285.799 336.859C285.59 336.199 284.679 336.181 284.372 335.32ZM289.304 361.455C289.304 361.455 289.383 361.233 289.455 361.234C290.251 361.103 290.081 362.035 290.565 362.288C290.15 361.993 289.45 362.087 289.339 361.434L289.304 361.455ZM50.2626 84.9876C50.1467 84.7958 51.1934 80.0667 50.2626 84.9876V84.9876ZM236.488 181.451C236.044 181.108 236.906 180.458 237.267 181.331C237.383 181.523 237.518 181.746 237.189 181.945C236.859 182.143 236.702 181.649 236.471 181.462L236.488 181.451ZM235.293 367.665C235.891 367.675 235.812 368.289 236.096 368.642C234.746 368.561 234.805 367.719 235.293 367.665ZM150.322 3.4333C149.246 3.68886 149.609 1.90059 147.851 1.49826C149.656 0.803885 149.69 3.83586 150.322 3.4333ZM294.482 296.288C294.917 297.008 295.584 297.565 295.996 298.363C295.585 298.166 295.234 297.875 294.972 297.515C294.709 297.155 294.541 296.735 294.482 296.288ZM74.1219 282.626C74.5345 282.486 75.0528 283.853 74.845 284.37C73.9562 282.9 73.7439 282.744 74.1219 282.626ZM242.992 172.869C242.884 173.239 242.197 173.238 242.215 172.094C242.596 172.214 243.217 172.145 242.992 172.869ZM231.349 161.435C232.008 161.038 231.29 160.359 231.805 159.918C232.139 160.981 232.139 160.981 231.349 161.435ZM185.506 70.6982C185.389 69.918 183.987 69.8686 184.337 68.7639L185.506 70.6982ZM186.873 73.6252C186.515 73.0337 186.584 72.2075 185.914 71.8041C186.455 72.3071 187.013 72.7996 186.822 73.6989L186.873 73.6252ZM284.671 276.687C283.523 276.55 283.71 275.37 283.026 274.866C283.627 275.427 284.177 276.036 284.671 276.687ZM152.351 5.06763C150.414 4.64252 148.866 1.45418 152.351 5.06763V5.06763ZM26.5283 92.1941L26.183 94.168C25.935 93.0528 25.935 93.0528 26.5573 92.2421L26.5283 92.1941ZM116.048 74.0213C115.954 74.2961 114.724 73.1617 115.005 72.2949C115.905 74.02 116.452 73.1238 116.077 74.0693L116.048 74.0213ZM202.454 105.165C202.913 105.618 203.197 106.211 203.264 106.858C203.005 106.671 202.799 106.424 202.663 106.139C202.527 105.853 202.466 105.536 202.483 105.213L202.454 105.165ZM291.043 343.97C292.212 343.789 291.865 344.586 292.078 345.134L291.043 343.97ZM216.879 297.06L218.125 298.337C217.288 298.362 217.15 297.703 216.908 297.108L216.879 297.06ZM16.3694 118.653C16.4035 118.044 15.6353 117.634 16.1265 116.881C15.9612 117.547 16.7294 117.957 16.3694 118.653ZM243.147 282.964C242.428 282.634 242.558 281.989 242.297 281.557C242.564 281.692 242.789 281.888 242.956 282.129C243.122 282.37 243.224 282.649 243.254 282.944L243.147 282.964ZM263.426 347.845L264.46 349.556C263.477 348.556 263.477 348.556 263.532 347.825L263.426 347.845ZM253.474 298.133L255.288 300.116C254.853 299.941 254.47 299.675 254.163 299.337C253.857 298.998 253.634 298.595 253.511 298.155L253.474 298.133ZM176.714 55.3673L177.619 57.1773C177.297 57.0035 177.04 56.7404 176.88 56.4195C176.719 56.0985 176.662 55.7332 176.714 55.3673ZM14.9505 178.723C14.223 178.419 14.3708 177.763 14.2161 177.312C14.464 177.449 14.6665 177.648 14.8042 177.89C14.9419 178.131 15.0102 178.407 15.0025 178.691L14.9505 178.723ZM183.763 79.2478C184.062 79.7433 184.913 80.0158 184.683 81.0049L183.763 79.2478ZM278.044 324.653C277.671 324.311 277.041 324.167 277.262 323.359C277.484 323.922 278.24 323.881 278.125 324.67L278.044 324.653ZM227.645 358.927C228.669 358.31 228.23 360.755 227.706 359.457C227.574 359.318 227.202 359.172 227.645 358.927ZM207.506 116.578C207.721 116.694 207.876 116.887 207.941 117.119C208.006 117.35 207.977 117.603 207.858 117.827C207.609 117.453 207.001 117.231 207.506 116.578ZM124.672 364.314C124.416 364.199 124.215 364 124.103 363.75C123.991 363.5 123.974 363.215 124.056 362.941C124.538 363.348 124.838 363.648 124.672 364.314ZM72.5701 281.663C72.3414 281.555 72.1527 281.385 72.0249 281.174C71.8971 280.962 71.8351 280.717 71.8455 280.464C71.9832 280.484 72.1129 280.531 72.226 280.604C72.339 280.677 72.4329 280.773 72.5015 280.887C72.57 281 72.6116 281.128 72.6234 281.262C72.6352 281.396 72.617 281.533 72.5701 281.663ZM72.2236 248.863C72.3277 248.8 72.5785 248.824 72.7656 248.82C72.3566 250.767 72.0213 249.116 72.2236 248.863ZM160.252 34.6266C160.003 34.5485 159.792 34.3962 159.647 34.1908C159.501 33.9854 159.429 33.7371 159.44 33.48C159.855 33.383 159.666 33.1481 160.252 34.6266ZM285.723 278.583C285.125 278.126 284.728 277.47 284.602 276.729C285.114 277.38 285.7 277.725 285.723 278.583ZM255.27 347.546C254.934 347.225 255.792 346.687 256.086 347.251C256.38 347.815 255.718 347.974 255.27 347.546ZM235.374 269.396C235.027 269.213 236.265 268.991 236.563 270.032L235.374 269.396ZM211.005 383.119C210.753 383.031 210.536 382.875 210.379 382.67C210.221 382.465 210.129 382.217 210.113 381.955C210.382 382.017 210.616 382.165 210.777 382.376C210.939 382.586 211.019 382.848 211.005 383.119ZM7.82454 166.422C8.15873 166.851 8.44054 167.318 8.66498 167.813C7.54674 166.393 7.58163 166.568 7.82454 166.422ZM15.2546 146.49C14.3266 146.286 14.8775 145.474 14.4431 145.147C14.8941 145.463 15.1855 145.945 15.2546 146.49ZM258.24 320.86C257.216 320.888 257.701 320.203 257.448 319.549C258.951 320.235 258.078 321.219 258.269 320.908L258.24 320.86ZM16.8787 182.031C17.3076 182.373 17.5963 182.851 17.6999 183.39C17.1709 182.945 16.565 182.765 16.8787 182.031ZM248.948 150.968C249.094 150.662 249.943 150.892 249.395 152.138C249.265 151.65 248.738 151.443 249 150.937L248.948 150.968ZM220.812 351.378C220.512 350.882 221.197 350.644 221.453 350.991C221.507 351.022 221.55 351.067 221.578 351.12C221.607 351.173 221.62 351.233 221.618 351.295C221.615 351.357 221.595 351.418 221.561 351.473C221.528 351.528 221.48 351.574 221.424 351.608C221.368 351.642 221.305 351.662 221.24 351.666C221.176 351.671 221.113 351.659 221.057 351.633C221.001 351.607 220.953 351.567 220.92 351.517C220.886 351.466 220.867 351.408 220.864 351.346L220.812 351.378ZM219.845 349.779C219.644 348.702 220.657 349.399 220.17 349.846C220.081 349.855 219.824 349.901 219.795 349.853L219.845 349.779ZM105.407 31.3522C105.24 30.842 104.561 30.6187 104.441 29.7537L105.407 31.3522ZM218.913 348.902C218.729 348.598 219.477 347.995 219.624 348.473C219.772 348.952 218.994 349.311 218.873 348.992L218.913 348.902ZM142.106 32.3633C141.481 32.1511 141.32 31.7681 141.132 30.9873C141.69 31.4799 142.161 31.6324 142.106 32.3633ZM164.191 35.1542C164.676 35.6036 165.066 35.9356 164.794 36.6223C164.778 36.0868 164.04 35.9214 164.191 35.1542ZM287.848 359.672C287.549 359.177 287.14 359.205 287.286 358.507C287.628 358.759 288.058 358.805 287.848 359.672ZM235.009 268.635C234.822 268.51 234.666 268.348 234.552 268.158C234.437 267.969 234.366 267.756 234.342 267.532C234.555 267.884 235.357 267.88 235.009 268.635ZM34.864 173.926C35.0713 174.049 35.233 174.229 35.33 174.445C35.427 174.661 35.4552 174.904 35.4111 175.144C35.2153 175.011 35.0623 174.829 34.9665 174.615C34.8706 174.402 34.8354 174.165 34.864 173.926ZM237.916 186.085C236.684 187.023 237.349 184.247 237.974 185.789C238.01 185.811 238.144 185.992 237.955 186.149L237.916 186.085ZM152.413 14.8415C153.884 14.4569 153.649 16.4954 153.772 16.0725C152.455 14.7942 152.57 14.5938 152.451 14.9055L152.413 14.8415ZM262.798 326.64C263.309 326.702 263.155 327.231 263.358 327.567C262.339 327.33 262.339 326.545 262.798 326.64ZM14.6121 132.466C15.5781 134.064 15.5008 133.936 15.3523 134.004C14.3573 132.357 14.4039 132.591 14.6121 132.466ZM214.657 387.831C214.592 388.35 213.936 388.439 213.837 387.256C214.273 387.43 214.707 387.365 214.657 387.831ZM50.253 84.9716C50.6449 85.3461 51.0302 84.8088 51.5511 84.8876C50.5315 85.7849 50.0672 86.348 50.28 84.9771L50.253 84.9716ZM262.418 323.271C263.217 323.378 263.354 323.841 263.162 324.502C263.311 324.434 262.367 323.89 262.384 323.292L262.418 323.271ZM135.716 15.5642C135.495 15.4477 135.312 15.2765 135.185 15.0667C135.058 14.8568 134.992 14.6154 134.992 14.3653C134.988 14.8688 136.061 14.7245 135.716 15.5642ZM281.237 329.271C281.297 329.017 281.874 329.15 281.95 330.216C281.402 329.935 281.116 329.737 281.237 329.271ZM135.04 12.7227C134.375 12.7964 134.16 12.4023 133.951 11.7433C134.536 12.0452 134.98 12.1922 135.04 12.7227ZM77.2317 257.424C77.2527 257.107 78.3215 257.27 77.8497 258.055C77.5987 257.836 77.1878 257.821 77.2317 257.424ZM222.383 353.156C222.161 352.789 222.576 352.496 222.973 352.801C223.371 353.107 222.577 353.476 222.383 353.156ZM165.772 40.59C165.553 41.2453 166.55 41.2117 166.507 41.8049C165.285 41.4285 165.512 40.7467 165.772 40.59ZM232.974 265.347C232.887 265.203 232.781 265.028 233.026 264.924C234.044 264.376 233.33 265.896 232.911 265.32L232.974 265.347ZM17.7845 127.808C17.8989 128.35 18.0554 128.648 17.6585 129.127C17.5442 128.928 17.4952 128.698 17.5176 128.463C17.54 128.229 17.6328 128.001 17.7845 127.808ZM190.051 92.7069L190.693 94.0428C189.986 93.814 190.254 93.4348 190.051 92.7069ZM269.389 334.727C268.903 335.02 268.669 334.201 269.022 334.12C269.11 334.067 269.213 334.048 269.309 334.068C269.405 334.088 269.487 334.144 269.535 334.225C269.584 334.305 269.596 334.404 269.568 334.498C269.541 334.592 269.477 334.674 269.389 334.727ZM13.6055 176.262C13.3737 175.879 12.9452 175.679 12.9776 175.223C13.3019 175.486 13.7073 175.765 13.6055 176.262ZM293.75 299.934C293.347 299.501 294.49 298.769 294.319 299.896C294.026 300.116 293.857 300.11 293.75 299.934ZM243.415 179.286C243.751 180.195 242.616 179.766 243.117 179.029C243.195 179.157 243.322 179.211 243.363 179.317L243.415 179.286ZM256.629 318.625C257.149 318.311 257.447 319.157 257.363 319.84L256.629 318.625ZM80.0538 290.914C80.5476 290.987 80.6307 291.242 80.3516 291.759C80.0466 291.529 79.7783 291.32 80.0538 290.914ZM262.44 326.048C261.948 325.821 261.196 325.751 261.725 324.865L262.44 326.048ZM86.8747 302.984C86.9092 302.767 85.9065 303.065 86.2066 302.231C86.387 302.274 86.5463 302.369 86.665 302.503C86.7837 302.637 86.8566 302.804 86.8747 302.984ZM120.837 360.083C121.035 360.167 121.186 360.325 121.257 360.522C121.327 360.72 121.313 360.942 121.217 361.141C121.112 360.811 120.421 360.726 120.837 360.083ZM218.918 292.758C219.034 292.95 218.716 293.011 218.577 293.094C217.788 293.591 217.897 291.89 218.918 292.758ZM33.5228 177.306C32.938 177.004 32.901 176.591 32.75 176.027C33.1709 176.45 33.5819 176.66 33.5228 177.306ZM277.844 343.393C277.345 343.388 277.352 342.97 277.051 342.628C278.164 342.59 278.311 343.46 277.844 343.393ZM201.156 102.742C201.347 102.847 201.486 103.019 201.545 103.225C201.604 103.432 201.579 103.657 201.475 103.858C201.344 103.523 200.73 103.369 201.156 102.742ZM66.2561 42.2608C66.0821 41.777 65.8022 41.5094 66.0003 40.9759C66.4327 41.2606 66.2806 41.6356 66.2368 42.2288L66.2561 42.2608ZM264.311 353.461C264.434 353.234 264.934 353.238 264.794 354.26C264.582 353.908 264.038 353.909 264.292 353.429L264.311 353.461ZM236.239 388.81C237.427 388.661 236.503 389.872 236.11 389.106C236.099 389.047 236.229 388.794 236.239 388.81ZM37.2917 184.913C37.0598 184.529 37.3335 184.277 37.8528 184.706C38.3721 185.135 37.6298 185.473 37.2917 184.913ZM143.302 127.617C143.193 127.595 143.092 127.55 143.007 127.485C142.922 127.419 142.854 127.335 142.81 127.239C142.765 127.142 142.744 127.035 142.749 126.927C142.753 126.818 142.783 126.71 142.836 126.611L143.302 127.617ZM208.216 412.923L209.087 413.816C208.699 413.722 207.958 413.711 208.216 412.923ZM281.098 328.963L280.615 328.163C281.101 328.263 281.26 328.604 281.011 329.015L281.098 328.963ZM247.65 289.671L246.802 288.503C247.075 288.563 247.306 288.723 247.447 288.95C247.589 289.177 247.63 289.453 247.564 289.723L247.65 289.671ZM17.9692 141.193C17.9882 140.832 17.5099 140.902 17.4765 140.377C17.8163 140.587 18.0402 140.801 17.9692 141.193ZM285.758 360.56C286.27 361.407 284.736 360.827 285.28 360.434C285.557 360.267 285.671 360.416 285.758 360.56ZM256.202 318.271C256.029 318.376 255.797 318.384 255.753 318.193C255.47 316.903 257.186 317.744 256.202 318.271ZM221.075 141.655C221.216 141.418 221.858 141.424 221.51 142.375C221.469 142.072 220.819 142.093 221.075 141.655ZM44.0032 189.636C44.2061 189.972 43.493 190.554 43.5533 189.166C43.7182 189.309 43.8687 189.466 44.0032 189.636ZM240.878 374.44C240.578 374.14 241.151 373.599 241.402 374.407C241.377 374.462 241.337 374.51 241.286 374.547C241.236 374.583 241.177 374.606 241.116 374.614C241.055 374.622 240.994 374.613 240.94 374.59C240.886 374.567 240.84 374.529 240.808 374.481L240.878 374.44ZM21.9239 153.375C21.8992 153.413 21.8658 153.445 21.8265 153.469C21.7873 153.492 21.7433 153.507 21.6983 153.511C20.7494 153.625 21.8863 152.373 21.9239 153.375ZM279.871 344.985L278.827 344.392C279.57 344.251 279.838 344.46 279.891 345.017L279.871 344.985ZM91.162 8.05523C91.3312 7.4737 90.4339 7.16372 91.0388 6.36341C91.07 6.64989 91.6172 8.0645 91.1813 8.08718L91.162 8.05523ZM102.274 25.3462C101.857 25.0087 102.261 24.1112 102.78 25.4779C102.546 25.444 102.386 25.4532 102.294 25.3782L102.274 25.3462ZM208.541 227.931C208.513 227.534 207.859 227.47 208.098 226.846C208.281 226.963 208.422 227.13 208.504 227.328C208.586 227.526 208.605 227.747 208.56 227.963L208.541 227.931ZM200.246 97.5559C200.401 97.8116 200.808 97.9371 200.719 98.3392C200.36 98.0975 200.434 98.3367 200.265 97.5879L200.246 97.5559ZM175.878 57.8987C176.59 58.4509 175.275 58.9376 175.405 57.7038C175.568 57.7566 175.726 57.8218 175.878 57.8987ZM194.258 86.9031C194.674 86.8485 194.675 87.2406 194.515 87.6421C194.16 87.2891 193.787 86.9467 194.327 86.8613L194.258 86.9031ZM223.167 252.525C222.946 252.38 222.762 252.19 222.627 251.967C222.492 251.744 222.409 251.493 222.384 251.23L223.167 252.525ZM202.396 128.093C202.761 128.462 201.797 128.824 201.809 127.748C202.051 127.817 202.283 127.912 202.5 128.03L202.396 128.093ZM259.15 168.241C260.121 167.656 259.278 169.668 258.838 168.625C259.044 168.457 259.132 168.251 259.254 168.178L259.15 168.241ZM240.659 331.708C241.266 331.343 241.244 332.991 240.591 331.989C240.711 331.873 240.693 331.687 240.763 331.646L240.659 331.708ZM239.117 186.976C238.772 187.031 238.438 187.537 238.121 187.052L238.006 186.86C238.644 186.389 238.99 187.314 239.117 186.976ZM167.358 44.3882C167.511 44.5067 167.622 44.6688 167.675 44.8542C167.728 45.0395 167.721 45.2397 167.656 45.4296C167.249 45.108 167.013 44.8357 167.358 44.3882ZM166.277 43.7745C166.026 43.6109 165.849 43.3628 165.779 43.0741C165.708 42.7855 165.748 42.4747 165.892 42.197L166.277 43.7745ZM167.617 54.9589C167.361 55.0043 167.038 54.5881 167.327 54.4793C168.089 54.1733 167.891 54.903 167.617 54.9589ZM172.223 62.3452C172.062 62.2347 171.928 62.0929 171.829 61.9283C171.729 61.7637 171.666 61.5795 171.643 61.3861C172.104 61.5227 172.191 61.8626 172.223 62.3452ZM284.822 351.727C284.843 351.998 284.336 352.02 284.077 351.042C284.58 351.328 284.841 351.367 284.822 351.727ZM234.471 266.844L233.625 265.915C234.202 265.851 234.393 266.128 234.523 266.813L234.471 266.844ZM162.02 43.7001C161.749 43.2525 161.367 43.0901 161.402 42.677C161.863 42.8135 161.905 43.1584 162.02 43.7001ZM250.463 291.858C250.012 292.13 249.878 291.752 249.837 291.254L250.463 291.858ZM60.1943 256.369C60.1561 256.697 59.3206 256.371 60.165 255.928C60.1827 256.08 60.1808 256.235 60.1596 256.389L60.1943 256.369ZM168.159 51.2748C168.309 51.3968 168.428 51.5511 168.505 51.7267C168.583 51.9023 168.618 52.095 168.608 52.291C168.308 51.9916 167.951 51.7924 168.159 51.2748ZM284.512 243.491C284.236 243.309 285.051 242.622 285.056 243.687C284.864 243.648 284.681 243.582 284.512 243.491ZM21.7596 190.538C22.1239 190.319 22.0204 190.97 22.1363 191.161C21.731 190.882 21.4646 190.716 21.7596 190.538ZM208.308 115.79C208.705 115.9 208.852 116.182 209.051 116.825C208.678 116.583 208.415 116.217 208.308 115.79ZM234.735 160.225C234.598 159.762 235.308 159.88 235.19 160.43C235.145 160.451 235.095 160.462 235.046 160.462C234.997 160.463 234.949 160.453 234.905 160.433C234.862 160.414 234.824 160.385 234.795 160.349C234.765 160.313 234.745 160.271 234.735 160.225ZM73.5268 250.041C72.8722 249.388 74.6545 249.361 73.6717 250.28C73.7661 250.202 73.6291 250.132 73.5268 250.041ZM106.952 17.9725L107.674 16.622C107.695 18.0267 106.773 17.9497 106.952 17.9725ZM151.201 377.707C151.177 377.394 151.885 377.469 151.969 378.313C151.589 378.193 151.213 378.158 151.201 377.707ZM77.1571 250.057C77.7961 250.566 77.1618 250.926 77.038 250.564L77.1571 250.057ZM7.90482 136.09C7.40248 135.259 7.46043 135.355 7.55488 135.276C8.13233 135.997 8.08009 135.832 7.86617 136.026L7.90482 136.09ZM147.913 13.3869C148.075 13.4639 148.216 13.5741 148.327 13.7102C148.437 13.8463 148.516 14.0053 148.556 14.177C148.353 14.1365 148.175 14.0301 148.051 13.8751C147.928 13.72 147.865 13.5254 147.874 13.323L147.913 13.3869ZM162.954 38.0796L163.533 39.0387C163.411 39.0204 163.296 38.9771 163.195 38.9118C163.095 38.8464 163.011 38.7604 162.95 38.6594C162.889 38.5584 162.852 38.4445 162.841 38.3253C162.83 38.2062 162.845 38.0843 162.886 37.9677L162.954 38.0796ZM165.204 41.8041C164.799 41.5249 164.818 41.1647 164.922 40.7098C165.067 40.8398 165.161 41.0135 165.193 41.2061C165.224 41.3987 165.19 41.6003 165.096 41.7819L165.204 41.8041ZM54.2659 208.223C54.5806 208.47 53.5204 209.065 53.8376 208.024C53.9518 208.071 54.0592 208.13 54.1579 208.201L54.2659 208.223ZM13.7508 139.46C14.3884 140.515 14.3208 140.403 14.1377 140.491C13.4114 139.446 13.4463 139.621 13.6428 139.437L13.7508 139.46ZM31.8707 168.425L32.301 168.667C32.3054 169.144 31.8618 169.193 31.7626 168.402L31.8707 168.425ZM118.796 7.61402C118.677 7.53824 118.591 7.42559 118.55 7.29323C118.508 7.16086 118.513 7.01599 118.565 6.88057C118.552 7.17196 119.204 7.1936 118.796 7.61402ZM209.57 115.139C209.387 114.835 210.119 114.285 209.999 115.535C209.84 115.42 209.696 115.287 209.57 115.139ZM25.7269 97.2116C26.0195 96.5994 26.0848 96.2766 26.4903 96.7519C26.3963 97.2228 26.6334 97.1453 25.7172 97.1956L25.7269 97.2116ZM209.182 380.728C209.739 380.829 209.716 381.104 209.472 381.208C209.227 381.312 209.091 381.088 209.182 380.728ZM235.143 388.445C234.736 388.124 235.466 387.727 235.675 387.994C235.884 388.261 235.454 388.607 235.176 388.382L235.143 388.445ZM211.337 341.495C212.221 340.962 211.797 342.765 211.356 341.919C211.302 341.712 211.136 341.594 211.369 341.431L211.337 341.495ZM224.791 169.614C224.758 169.559 224.749 169.492 224.768 169.427C224.787 169.363 224.831 169.306 224.891 169.27C224.951 169.234 225.021 169.222 225.087 169.235C225.153 169.249 225.209 169.287 225.242 169.342C225.379 169.412 225.092 170.152 224.824 169.551L224.791 169.614ZM284.246 334.916C284.595 335.141 283.892 335.543 283.582 334.64C283.819 334.698 284.052 334.769 284.279 334.852L284.246 334.916ZM203.535 103.664C204.192 104.751 204.115 104.623 204.115 104.623C203.458 103.536 203.535 103.664 203.535 103.664ZM221.783 352.123C221.734 351.847 221.657 351.915 222.164 351.893C222.114 352.163 222.191 352.095 221.873 352.156L221.783 352.123ZM195.379 89.1496C194.732 88.0786 194.809 88.2065 194.913 88.1438C195.616 89.2683 195.591 89.109 195.435 89.2031L195.379 89.1496ZM190.903 80.7256C191.057 80.7961 191.184 80.9086 191.27 81.05C191.355 81.1914 191.396 81.3559 191.386 81.5248C190.894 81.2979 190.497 80.9923 190.959 80.7791L190.903 80.7256ZM250.094 346.303C250.402 346.226 250.337 346.156 250.461 346.91C250.364 346.946 250.532 347.107 250.15 346.356L250.094 346.303ZM187.764 75.5304C187.155 74.3273 187.165 74.5394 187.417 74.4091C188.024 75.5698 187.997 75.3682 187.764 75.5304ZM218.197 291.252C218.263 291.91 217.361 292.257 217.474 291.818C217.588 291.379 218.556 291.297 218.197 291.252ZM222.409 298.613C222.081 298.07 222.841 298.114 222.822 298.866C222.629 298.743 222.467 298.709 222.419 298.629L222.409 298.613ZM183.201 67.1587C182.759 66.7783 182.453 66.2721 182.322 65.704C182.794 66.0597 183.106 66.5758 183.201 67.1587ZM241.401 327.533C240.988 327.28 241.567 327.259 242.12 327.274C241.841 327.595 241.899 327.691 241.372 327.485L241.401 327.533ZM288.006 397.055C287.99 397.458 288.18 397.343 287.486 397.369C287.767 396.894 287.657 397.026 287.977 397.007L288.006 397.055ZM270.738 359.358C270.925 359.378 271.091 359.466 271.205 359.603C271.319 359.741 271.371 359.918 271.353 360.1C271.184 359.743 270.496 359.896 270.709 359.31L270.738 359.358ZM227.182 261.989C226.712 261.837 226.642 261.486 226.535 260.918C226.721 261.021 226.875 261.168 226.983 261.346C227.091 261.525 227.149 261.729 227.153 261.941L227.182 261.989ZM255.584 308.985L256.096 309.832C255.758 309.665 255.42 309.498 255.589 308.916L255.584 308.985ZM151.47 6.27361C151.245 6.40944 150.965 6.14202 150.926 5.68587C151.522 5.8501 151.997 6.08742 151.47 6.27361ZM301.759 329.123C302.141 328.893 301.981 329.49 302.097 329.682C301.682 329.387 301.481 329.29 301.759 329.123ZM208.335 229.08C208.451 229.272 207.863 229.669 207.797 229.404C207.732 229.138 207.827 228.514 208.335 229.08ZM156.021 4.40548C156.579 4.50577 156.625 4.93554 156.797 5.37696C156.591 5.29404 156.412 5.16218 156.276 4.99285C156.141 4.82352 156.053 4.62181 156.021 4.40548ZM210.823 232.139C211.419 232.107 211.344 232.413 211.142 232.666C210.9 232.463 210.96 232.601 210.892 232.097L210.823 232.139ZM144.402 19.4035C144.957 19.0692 145.162 19.4473 145.321 19.984C144.91 19.7736 144.484 19.8123 144.4 19.3611L144.402 19.4035ZM195.644 206.003C195.326 205.126 195.228 205.316 195.508 205.191C195.981 205.974 195.973 205.805 195.574 206.045L195.644 206.003ZM265.365 177.82L265.49 178.027C264.14 178.535 264.912 177.111 265.295 177.861L265.365 177.82ZM91.9058 9.28606C90.9508 9.07627 90.8829 6.65353 91.9058 9.28606V9.28606ZM235.734 272.145C235.465 271.936 235.197 271.727 235.432 271.215L235.734 272.145ZM290.614 362.956C290.498 362.764 290.411 362.62 291.158 362.76C291.403 363.244 290.923 363.272 290.544 362.998L290.614 362.956ZM303.14 226.191C303.416 226.178 303.728 226.382 303.391 226.607C303.054 226.832 302.604 226.361 303.07 226.233L303.14 226.191ZM112.041 65.9035C112.166 66.0112 112.262 66.1467 112.322 66.2996C112.382 66.4525 112.403 66.6189 112.386 66.7863C112.073 66.5821 111.832 66.3786 111.972 65.9453L112.041 65.9035ZM193.581 35.465L192.71 34.7684C193.241 34.667 193.337 35.023 193.511 35.5069L193.581 35.465ZM157.767 30.6722C157.395 30.5258 157.29 30.1963 157.197 29.7291C157.541 30.0236 157.917 30.0587 157.698 30.714L157.767 30.6722ZM69.8798 274.431C69.5422 274.46 69.6383 274.032 69.4236 273.442C69.6978 273.778 70.2463 274.451 69.8104 274.473L69.8798 274.431ZM204.205 220.404C204.494 220.492 204.612 220.726 204.659 221.156C204.511 221.097 204.384 221 204.293 220.876C204.201 220.751 204.146 220.603 204.135 220.446L204.205 220.404ZM239.494 278.798C239.574 278.788 239.655 278.795 239.729 278.821C239.803 278.846 239.869 278.888 239.921 278.944C239.973 278.999 240.01 279.067 240.028 279.141C240.047 279.215 240.047 279.293 240.029 279.37C239.317 279.014 239.475 279.158 239.407 278.85L239.494 278.798ZM266.931 316.367C266.755 316.278 266.609 316.144 266.509 315.978C266.409 315.813 266.358 315.622 266.361 315.424C266.568 315.845 266.802 316.075 266.758 316.472L266.931 316.367ZM241.074 334.118C241.311 334.237 241.28 334.146 241.238 334.39C240.785 334.423 240.816 334.513 240.919 334.255L241.074 334.118ZM241.636 335.48C241.935 334.995 242.134 335.05 242.087 335.208C241.997 335.96 241.702 335.745 241.482 335.616L241.636 335.48ZM241.658 395.074C241.436 394.707 241.995 394.065 242.085 395.428C241.881 395.379 241.686 395.306 241.504 395.211L241.658 395.074ZM200.094 212.741C200.403 212.861 200.355 213.173 200.49 213.397C200.352 213.375 200.224 213.318 200.121 213.23C200.018 213.142 199.944 213.028 199.905 212.899L200.094 212.741ZM210.655 233.897C210.34 233.846 210.441 233.895 210.34 233.65C210.475 233.874 210.441 233.895 210.466 234.054L210.655 233.897ZM280.718 346.306C280.466 345.891 281.181 345.351 281.086 346.368C280.745 346.508 280.538 346.48 280.538 346.48L280.718 346.306ZM235.225 387.131C234.803 387.647 234.521 387.73 234.684 386.825L235.225 387.131ZM168.713 47.0608C168.388 46.9943 168.471 46.6611 168.644 46.3605C169.002 46.7559 169.255 47.2139 168.713 47.0608ZM227.357 173.781C227.25 173.605 227.279 173.065 227.443 173.337C227.607 173.609 227.472 173.973 227.357 173.781ZM216.054 152.964C216.577 153.281 216.411 153.555 215.838 153.312L216.054 152.964ZM204.639 133.566C204.864 133.43 205.229 133.407 204.861 133.934C204.493 134.461 204.321 133.823 204.639 133.566ZM180.937 67.1706C180.807 66.6818 181.301 66.9512 181.469 67.1116C181.637 67.2721 181.016 67.537 180.898 67.1066L180.937 67.1706ZM187.681 77.9784C187.837 77.8844 188.275 77.9041 188.513 78.2188C187.901 78.3036 187.317 78.3939 187.642 77.9144L187.681 77.9784ZM246.312 287.73C246.495 288.034 245.748 287.699 245.935 287.107L246.312 287.73ZM200.408 126.565C200.253 126.309 200.526 125.861 200.86 126.139C201.194 126.418 200.67 126.843 200.408 126.565ZM178.048 405.45C177.864 405.147 178.724 405.043 178.715 405.419C178.706 405.795 178.49 405.947 178.057 405.466L178.048 405.45ZM37.0086 177.474C37.29 177.196 37.6758 177.247 37.2115 177.81C36.7472 178.373 36.7273 177.753 37.0183 177.49L37.0086 177.474ZM164.71 38.8316C164.542 38.7569 164.404 38.6358 164.312 38.4828C164.219 38.3298 164.176 38.1512 164.188 37.9684C164.365 38.0319 164.511 38.1504 164.605 38.3061C164.699 38.4617 164.736 38.6461 164.71 38.8316ZM165.743 40.5421C164.586 39.9966 165.257 38.3276 165.743 40.5421V40.5421ZM197.957 94.1596L197.646 93.4096C197.908 93.6875 198.302 93.7121 197.974 94.1491L197.957 94.1596ZM334.641 320.332C333.938 319.796 335.833 320.072 335.087 320.522C334.969 320.48 334.853 320.434 334.741 320.381L334.641 320.332ZM34.7494 173.188C34.9426 173.508 34.3279 174.096 34.1937 172.934C34.5487 173.091 34.7185 173.098 34.7494 173.188ZM39.0747 181.637C38.6463 181.437 38.7002 181.252 38.8332 181.238C38.9663 181.223 39.1497 181.331 39.0747 181.637ZM192.836 84.9031C192.662 84.6153 193.107 84.0204 193.22 84.9118C193.049 85.0587 192.896 85.0414 192.836 84.9031ZM56.6402 213.836C56.36 213.372 56.8536 213.053 56.8987 213.833C56.783 213.837 56.6325 213.862 56.6402 213.836ZM335.745 321.063C335.108 320.792 335.848 320.216 336.206 321.395C336.068 321.267 335.913 321.155 335.745 321.063ZM9.60646 136.439C9.26105 136.298 8.95607 136.068 9.26838 135.88C9.58068 135.692 9.62934 136.164 9.60646 136.439ZM290.558 343.324C290.346 343.169 290.345 342.972 291.013 342.941C290.996 343.148 290.981 343.593 290.558 343.324ZM67.72 233.501C67.72 233.501 67.9534 233.535 68.0518 233.541C68.3864 234.408 67.0682 233.676 67.72 233.501ZM107.933 38.5084C108.318 38.1672 108.634 39.3943 107.86 38.8575C107.881 38.7358 107.856 38.5766 107.933 38.5084ZM80.4827 256.186C80.3088 255.898 80.816 255.68 80.8512 256.248C80.6527 256.389 80.5503 256.298 80.4827 256.186ZM82.906 260.744C82.8727 260.219 83.4614 260.41 83.679 260.104C83.5132 260.182 82.9279 261.407 82.906 260.744ZM241.378 277.882C240.879 277.331 240.576 277.143 240.796 276.684L241.378 277.882ZM105.443 32.7041C105.758 32.9507 105.991 33.1806 105.752 33.6078C106.121 33.6693 105.089 33.5278 105.462 32.736L105.443 32.7041ZM241.677 277.985C242.055 278.259 241.951 278.125 242.024 278.56C241.544 278.392 241.575 278.482 241.696 278.017L241.677 277.985ZM225.03 258.271C225.3 258.522 225.592 258.848 225.198 258.823C224.805 258.799 224.812 258.576 224.98 258.345L225.03 258.271ZM276.637 365.006C276.637 365.006 276.566 365.202 276.504 365.217C275.9 365.472 275.845 364.284 276.587 365.08L276.637 365.006ZM24.9296 187.364C25.3342 186.859 25.4512 188.228 24.9087 187.682C24.8142 187.761 24.737 187.633 24.8738 187.507L24.9296 187.364ZM1.2182 154.942C0.859374 154.897 0.84557 154.6 0.754494 154.175C0.899491 154.246 1.01913 154.355 1.10073 154.49C1.18233 154.625 1.22288 154.781 1.2182 154.942ZM279.012 318.031C279.058 317.677 279.237 317.896 279.346 318.114C279.454 318.332 278.877 318.396 278.973 317.967L279.012 318.031ZM138.972 6.93247C139.232 6.77574 139.46 6.87839 139.678 6.96511C139.452 7.29703 138.679 7.1525 138.972 6.93247ZM6.11661 163.635C5.86958 163.501 5.91984 163.623 5.86544 163.22C6.0894 163.434 6.0488 163.327 6.11661 163.635ZM335.11 291.663L335.758 292.734C335.177 292.517 335.094 292.262 335.11 291.663ZM73.4944 280.06C73.2915 279.724 73.8002 279.156 73.9035 280.228C73.7915 280.121 73.6391 280.104 73.4944 280.06ZM308.226 285.199C308.551 285.462 308.466 285.36 308.506 285.663C308.335 285.418 308.419 285.519 308.296 285.157L308.226 285.199ZM193.909 39.2575C193.557 38.9894 193.58 38.714 193.871 38.2555C194.136 38.7719 194.153 38.9575 193.909 39.2575ZM180.468 72.8164L180.719 73.232C180.719 73.232 180.223 73.3124 180.468 72.8164ZM102.089 23.6698C101.838 23.6464 101.484 23.6857 101.678 23.2634C101.872 22.8411 101.965 23.3083 102.089 23.6698ZM58.8908 88.927C59.1158 88.2029 60.8496 87.9001 58.8908 88.927V88.927ZM242.507 268.786C241.779 268.093 241.255 267.225 240.98 266.26C242.095 267.595 242.469 268.176 242.507 268.786ZM120.674 76.4681C120.194 76.4957 119.75 76.5448 119.58 75.9497C120.047 76.0174 120.515 75.9314 120.674 76.4681ZM120.873 78.6376C121.057 78.9413 120.414 79.1318 120.672 78.5404C120.755 78.5995 120.825 78.5577 120.883 78.6536L120.873 78.6376Z" fill="#01FC99"/>
</svg>
