<svg width="105" height="252" viewBox="0 0 105 252" fill="none" xmlns="http://www.w3.org/2000/svg">
<path d="M65.5751 -47.8613C66.0746 -47.5093 65.4453 -46.9594 65.5998 -46.5084C70.2676 -33.2013 73.4328 -26.5122 73.9843 -23.6735C71.5077 -26.4875 71.2126 -25.8591 66.9389 -39.7144C66.663 -40.5896 65.5746 -41.3019 66.5031 -42.3895C65.7923 -42.2257 65.1964 -42.7373 64.6512 -42.0204C64.59 -41.9699 64.5155 -41.9375 64.4377 -41.9277C64.3598 -41.9178 64.2825 -41.9309 64.2158 -41.9652C64.1492 -41.9995 64.0965 -42.0534 64.0649 -42.1196C64.0333 -42.1858 64.0242 -42.2612 64.0389 -42.3356C64.0718 -42.4877 64.0717 -42.6425 64.0386 -42.7901C64.0055 -42.9377 63.9401 -43.0749 63.8467 -43.1927C63.7532 -43.3106 63.6337 -43.4065 63.4959 -43.4745C63.358 -43.5425 63.2049 -43.5809 63.0462 -43.5874C62.6378 -43.6212 62.721 -44.293 62.4294 -44.4127C61.8555 -44.6232 61.3594 -44.9782 60.99 -45.4426C60.6206 -45.907 60.3907 -46.4648 60.3228 -47.061C59.809 -45.1197 61.7924 -41.8377 60.8867 -41.3544C60.5527 -41.1533 60.8011 -41.6914 60.57 -41.7388C60.0847 -41.6486 60.2266 -41.3299 60.2214 -41.0315C60.2259 -40.9166 60.1971 -40.8005 60.1382 -40.6961C60.0792 -40.5916 59.9925 -40.5028 59.8875 -40.4396C59.7825 -40.3764 59.6634 -40.3412 59.5433 -40.3378C59.4232 -40.3345 59.3069 -40.3632 59.2072 -40.4208C56.3984 -42.584 57.7669 -48.0243 55.5359 -47.1937C55.0107 -47.0019 54.767 -47.3214 54.4395 -47.5283C55.2298 -38.0412 57.42 -38.5208 54.4155 -38.328C52.6472 -38.2113 52.6787 -39.7224 51.8746 -40.7458C51.8706 -40.5569 53.0906 -36.1935 52.4967 -37.3436C51.9029 -38.4936 50.4635 -38.1397 49.6335 -38.8989C47.6909 -41.0651 46.6041 -43.8459 46.5455 -46.8003C45.1293 -43.756 48.4952 -40.0009 47.6183 -39.5816C47.1386 -39.3705 46.9413 -40.0599 46.3516 -41.2591C46.0988 -40.9514 46.7303 -40.6323 46.267 -40.4777C45.8038 -40.323 45.5263 -42.8759 44.1335 -45.4877C42.9517 -44.6517 43.1033 -45.629 42.3171 -46.6787C41.1123 -48.2536 49.2259 -28.2398 50.8884 -21.3295C50.2856 -23.2202 39.2648 -50.3895 42.6324 -40.5738C58.0746 3.76568 45.4166 -32.6449 51.5876 -12.1607C51.1918 -11.9223 50.2537 -13.6422 51.5942 -9.69331C52.212 -7.88935 52.0778 -5.85016 53.2084 -4.23062C53.2631 -4.11505 53.2901 -3.98757 53.2873 -3.85707C53.2846 -3.72658 53.2523 -3.59623 53.1926 -3.47507C51.8834 -6.33928 52.1283 -6.26912 51.7739 -5.8226C51.6626 -5.75556 51.5388 -5.82086 51.5566 -5.84715C52.3051 -6.84187 51.047 -6.69046 50.7853 -7.1235C48.8797 -12.4263 47.1217 -14.414 45.7974 -22.9423C45.3477 -25.78 45.588 -27.5878 45.0696 -27.5244C44.5512 -27.4609 45.4002 -25.4697 44.7389 -23.9679C42.5055 -26.8818 41.5176 -34.4625 41.0953 -34.6589C39.8819 -35.1872 39.8544 -35.2328 39.4997 -36.5735C38.7392 -39.3951 38.7425 -37.4076 38.1802 -37.3332C37.306 -38.361 36.7121 -41.0187 35.6329 -40.7108C34.5537 -40.4029 34.8098 -42.8264 34.0634 -42.61C28.3444 -40.907 45.2995 -1.90827 43.055 -2.18868C41.8461 -2.34665 41.2262 -2.00446 41.59 -2.65871C42.2407 -3.84321 38.4861 -2.82577 38.2739 -0.41321C37.2717 -1.5971 37.527 -3.49163 36.1521 -4.62212C34.7772 -5.7526 34.9373 -8.05605 33.9597 -9.39464C33.9222 -8.28411 39.6939 6.06797 38.7876 11.603C38.7151 11.5489 38.6557 11.4804 38.613 11.4017C38.5703 11.323 38.5452 11.2357 38.5392 11.145C38.5333 11.0543 38.5465 10.962 38.5781 10.8738C38.6098 10.7855 38.6592 10.7031 38.7234 10.6313C37.4053 9.81202 36.4747 8.53963 36.1031 7.04905C36.2315 8.14388 36.424 9.22662 36.6797 10.2922C31.9015 10.7604 35.6542 3.68231 32.9954 5.84292C32.0885 6.57553 32.4833 5.21874 32.3569 4.00476C32.2821 3.35043 33.89 3.74995 34.3 3.95381C34.3618 2.54877 34.2297 2.4418 32.7141 2.25092C31.1985 2.06003 32.2369 0.73535 31.8155 0.149774C31.2724 0.228133 31.6755 1.7884 30.2301 3.1095C28.9784 4.22072 30.2761 7.93117 30.1872 9.84984C28.7559 8.73775 28.4255 15.3094 27.1244 15.0826C26.8878 15.0541 25.5341 15.8847 25.5882 14.9973C25.6737 13.8267 24.6769 13.9918 24.117 13.7072C23.867 14.0753 24.009 14.394 23.9983 14.7113C23.9338 16.1956 22.7201 15.3878 22.5354 16.3383C22.3507 17.2888 21.7685 16.8001 21.6514 16.6063C20.9956 15.3537 18.7831 16.857 18.8435 15.4218L18.8022 15.3534C17.5547 15.0477 18.0188 12.9963 17.356 12.9603C17.0442 13.3656 17.8882 14.4272 17.004 14.4157C15.6619 14.4001 15.6625 16.4669 18.3697 31.4986C17.8196 31.4258 17.8811 30.9691 17.5742 30.7964C17.3805 31.0063 17.6986 31.4209 17.2834 31.5155C16.8682 31.6101 16.725 30.0333 15.9324 30.8991C14.8005 32.1247 14.1556 27.959 17.0435 27.9919C17.0648 27.3573 12.3188 25.5058 13.7842 33.5139C13.8588 33.8886 14.0476 34.2567 13.7043 34.6656C13.4801 34.6296 11.955 31.771 13.4512 36.0614C13.8249 35.7586 13.4519 35.3926 13.666 34.9373C14.6718 37.0205 14.2996 35.9857 13.3047 38.108C14.4601 39.8525 12.8757 39.5476 13.1426 36.9466C12.0152 38.5425 14.6605 42.2497 9.15102 33.1331C8.10876 34.6467 84.9794 178.399 85.0772 178.589C84.9134 178.486 48.2538 121.091 84.837 180.537C134.251 260.824 33.2155 102.962 43.193 108.082C43.6938 108.325 43.7026 108.926 43.8488 109.335C44.0793 110.191 44.9858 110.547 45.116 111.432C45.1809 111.735 46.3216 111.11 45.9099 110.596C44.713 108.672 43.6696 106.656 42.788 104.565C43.5919 104.081 48.741 115.839 49.5478 115.416C48.8073 113.626 47.9368 111.897 46.9423 110.239C46.3845 109.316 48.0737 108.454 46.0156 108.901C46.8567 108.394 46.6868 107.75 46.3893 107.23C46.0918 106.71 45.8985 107.339 45.5713 107.412C46.636 106.382 41.204 97.7008 40.7159 97.7305C41.0419 99.275 42.1885 100.419 42.7167 101.935C39.8146 101.459 1.32545 23.7015 22.8141 69.4203C22.8339 68.6156 22.2338 68.0133 22.0733 67.022C22.6569 67.541 28.4161 77.5175 27.9161 79.4816C25.0925 74.8094 26.4186 76.6687 26.5427 75.6458C25.9664 75.5124 25.4575 75.2124 25.0817 74.7847C24.7059 74.357 24.4806 73.8213 24.435 73.2469C24.7195 73.0756 24.8135 73.5941 25.1034 73.4039C24.7582 71.8555 23.1913 71.2447 22.5244 69.89C22.4418 69.7532 11.4748 49.7635 11.0412 49.3252C9.65315 50.2387 42.6898 103.956 40.8005 106.943C40.309 107.721 3.07088 38.1467 2.43417 38.126C3.14138 49.7924 12.7031 59.9194 11.342 61.6871C6.00472 52.8554 3.25978 44.2656 2.48869 44.6367C23.2133 93.7531 86.165 205.429 119.662 246.621C120.924 248.178 120.573 245.84 122.159 245.615C129.319 244.567 121.847 243.705 124.785 242.48C125.982 241.976 128.841 249.192 125.137 240.076C124.143 237.566 123.474 237.798 122.12 235.893C111.786 221.305 112.93 218.983 111.978 219.417C109.91 220.351 108.323 216.831 107.058 214.515C106.79 214.07 108.138 212.31 106.389 212.151C106.172 212.127 102.289 204.781 102.219 204.637C103.977 205.537 128.18 243.575 131.285 243.213C126.633 236.688 123.301 235.586 123.94 231.813C124.134 231.887 124.304 232.004 124.439 232.154C124.574 232.305 124.669 232.485 124.718 232.682C124.863 233.48 125.566 233.025 125.972 233.138C126.378 233.252 126.222 232.77 126.319 232.541C127.691 229.228 132.974 241.543 133.556 237.509C134.127 237.336 134.132 238.126 134.625 237.937C135.109 237.398 130.819 229.35 131.03 228.974C131.241 228.598 132.705 228.618 132.932 228.994C134.385 231.399 135.69 231.856 134.295 232.478C134.82 232.396 135.348 232.455 135.82 232.649C136.292 232.843 136.689 233.163 136.965 233.575C138.071 235.07 137.861 232.88 138.425 232.976C139.451 233.166 140.465 237.188 141.614 235.936C142.546 234.909 142.383 235.784 144.697 238.245C145.473 239.083 145.699 237.642 145.847 237.552C147.328 236.179 146.438 238.083 148.214 238.676C146.974 236.625 146.541 236.466 147.953 236.067C149.364 235.667 147.227 235.229 148.13 234.266C148.59 233.771 147.3 233.787 147.842 233.149C148.102 232.853 148.622 232.68 148.763 232.859C149.226 233.373 149.703 232.292 150.015 232.836C152.92 237.894 153.302 237.633 150.423 232.59C148.528 229.286 147.443 228.524 148.703 228.543C152.127 228.626 144.221 220.875 145.733 220.027C146.895 219.327 146.496 222.1 148.429 222.646C148.674 222.716 148.997 222.553 149.084 222.92C149.231 223.5 150.08 223.144 149.721 222.412C146.865 216.625 145.233 215.571 146.608 215.754C147.222 215.819 147.638 215.755 147.198 215.026C146.406 213.715 148.607 213.897 147.956 213.015C147.634 213.208 147.855 213.853 147.216 213.771C146.135 213.63 141.698 203.106 152.362 218.211C153.002 219.131 151.552 219.662 151.347 218.822C151.041 217.701 150.171 219.359 150.865 219.392C151.56 219.424 151.778 220.148 152.173 220.578C152.692 220.266 151.531 219.768 152.381 219.303C153.23 218.838 153.098 220.099 154.681 220.513C155.897 220.823 155.339 222.216 157.272 221.813C156.55 221.595 156.541 220.855 156.07 220.439C155.811 220.206 156.115 220.039 156.311 219.889C157.346 219.173 157.576 220.837 159.07 221.663C159.326 221.276 158.27 220.59 159.453 220.453C159.864 220.408 158.909 219.553 159.886 219.384C160.196 219.338 163.853 223.492 159.527 217.533C158.977 216.792 159.188 215.996 160.121 215.279C161.761 214.028 164.745 218.883 165.398 218.427C166.051 217.972 162.417 215.56 162.834 214.966C163.473 214.209 162.474 213.225 163.42 212.531C163.42 212.531 163.365 212.3 163.29 212.314C162.038 212.337 162.083 211.238 161.878 210.537C161.583 209.518 159.535 208.669 160.968 208.054C161.154 207.943 161.002 207.692 160.887 207.529C160.57 207.004 160.304 208.408 159.786 207.912C159.614 207.787 159.479 207.623 159.391 207.433C159.303 207.243 159.264 207.033 159.277 206.819C159.842 204.599 157.046 204.774 156.879 201.455C156.84 200.609 155.157 199.695 155.66 199.299C156.68 198.529 161.246 205.416 161.734 205.106C162.222 204.797 150.118 189.207 149.979 189.088C148.747 188.027 150.885 187.797 150.113 187.329C148.83 186.656 148.761 184.755 149.885 185.695C153.514 188.685 143.578 177.213 144.309 176.245C144.56 175.907 188.207 229.343 189.612 228.233C191.678 226.6 169.385 204.758 161.616 193.8C156.379 186.447 159.804 191.472 161.409 191.671C152.046 178.969 178.196 210.628 179.923 212.509C183.581 216.524 186.092 216.799 187.019 218.137C187.946 219.475 189.595 218.016 190.598 219.091C190.77 219.375 191.367 219.358 191.566 219.798C191.697 220.015 191.855 220.277 192.204 219.989C193.079 219.26 191.549 220.523 188.035 213.873C187.664 213.257 188.407 212.841 188.904 213.272C190.254 214.417 193.012 217.948 195.847 219.178C196.809 219.625 196.212 222.378 201.725 224.856C202.842 225.364 202.572 226.258 204.8 227.154C204.071 225.557 200.21 222.349 202.299 223.266C202.779 223.475 203.223 224.544 203.623 224.257C204.023 223.969 165.385 179.267 156.539 164.016C155.464 162.238 167.188 177.311 167.048 177.442C166.107 178.257 167.428 178.768 167.319 177.388C172.222 181.927 180.676 196.28 146.279 144.61C130.559 120.97 138.736 130.035 133.858 124.672C133.714 124.433 133.249 124.138 133.691 123.669C134.133 123.201 133.107 123.819 133.076 123.294C133.045 122.768 123.904 107.056 123.83 106.961C122.965 105.726 124.096 105.698 124.249 106.398C124.464 107.341 132.711 120.094 132.831 120.208L133.007 120.304C132.7 121.22 133.599 121.284 134 121.696C134.862 122.731 133.922 123.297 134.686 123.055C134.732 123.035 134.781 123.028 134.829 123.036C134.876 123.044 134.919 123.065 134.952 123.098C134.984 123.131 135.005 123.173 135.011 123.219C135.017 123.265 135.009 123.313 134.986 123.356C134.108 123.884 134.797 124.215 135.082 124.603C135.454 125.219 135.513 126.209 136.036 125.847C136.56 125.485 135.07 124.751 135.43 124.006C136.352 125.137 137.211 126.316 138.003 127.538C137.104 127.614 137.863 128.618 137.056 128.762C137.386 129.309 137.86 128.278 138.409 128.88C138.478 128.993 138.56 129.13 138.4 129.227C138.028 129.451 137.958 128.887 137.631 128.96C137.106 129.711 138.487 130.154 139.025 131.462C139.114 131.61 139.211 131.77 139.421 131.643C139.866 131.375 139.114 130.911 138.961 129.961C141.321 133.001 142.921 136.514 145.437 139.755C143.008 138.528 143.441 136.9 142.742 137.166C141.536 137.628 143.891 140.017 145.923 142.431C155.965 154.942 172.071 182.375 174.534 182.711C174.887 182.837 175.191 183.056 175.413 183.344C175.635 183.632 175.766 183.979 175.793 184.346C175.95 185.417 176.569 184.905 176.511 185.173C175.957 187.605 181.011 190.887 181.959 191.87C185.049 195.03 173.88 179.981 173.886 179.293C173.892 178.605 172.251 178.459 172.935 179.088C173.025 179.236 175.938 184.057 170.85 177.033C161.222 163.558 142.894 135.799 153.88 149.483C154.142 149.916 153.873 153.575 155.302 152.031C155.852 151.435 155.522 152.396 155.793 152.341C156.188 152.569 156.499 152.905 156.69 153.31C156.881 153.715 156.944 154.173 156.872 154.629C156.83 155.09 157.469 154.472 157.689 154.837C177.74 188.909 172.18 174.74 168.46 171.012C167.932 170.475 168.398 169.821 169.029 170.67C197.559 209.895 186.019 192.084 187.338 192.284C187.555 192.309 187.451 191.299 186.871 191.679C186.291 192.06 186.105 191.472 186.495 191.253C186.885 191.033 186.561 190.747 186.437 190.542C185.865 189.596 185.601 190.89 185.268 190.282C185.185 190.146 185.04 189.906 185.234 189.836C186.532 189.443 184.899 188.919 185.589 188.301C188.259 192.553 226.377 234.941 227.719 229.346C227.826 228.909 228.541 228.416 227.825 227.93C223.005 224.616 200.039 198.702 199.95 198.554C199.534 198.229 200.205 198.027 200.261 197.729C199.973 197.42 199.531 198.168 199.375 197.547C199.74 197.452 199.945 196.816 200.452 197.179C213.038 206.169 191.985 186.937 182.082 171.528C175.052 160.592 147.939 121.089 112.351 55.6968C61.5228 -37.6497 74.1301 -25.0514 74.7874 -22.2609C75.2748 -20.254 84.409 -1.39885 84.2984 -0.632793C83.8621 -0.991793 83.8134 -1.63077 83.1598 -2.01435C83.5207 -0.627132 84.3123 0.595406 85.4336 1.49689C88.2334 2.91948 78.7904 -2.60057 122.673 70.0132C120.469 75.6615 183.34 169.869 183.423 170.006C184.911 172.468 185.535 170.709 185.717 171.345C186.311 172.914 187.761 173.471 186.649 173.892C186.597 173.465 186.427 173.066 186.154 172.738C185.882 172.41 185.518 172.165 185.1 172.027C186.525 174.386 186.801 175.122 187.495 174.595C187.965 174.312 188.403 175.789 187.825 176.09C188.342 176.432 188.779 176.87 189.112 177.382C189.469 176.996 188.835 176.757 189.077 176.347C190.171 177.46 191.249 179.438 189.364 177.604C189.414 178.942 190.574 178.601 191.406 179.001C183.994 166.01 148.408 115.025 147.461 109.689C146.897 110.153 147.607 110.518 147.143 110.922C146.233 108.998 144.83 107.403 144.021 105.45C143.741 104.763 143.529 103.881 142.46 103.872C142.758 103.938 143.01 104.116 143.161 104.367C143.313 104.617 143.353 104.922 143.273 105.216C142.59 104.617 141.313 100.661 141.215 100.611C139.842 98.5994 138.611 96.4962 137.528 94.3142C139.115 94.5397 145.359 108.25 146.767 108.848C146.94 107.655 139.756 95.5995 138.961 93.5598C137.011 88.5173 146.386 106.683 147.729 106.839C147.72 106.378 135.427 85.8963 135.99 84.8735C136.029 84.7818 136.033 84.6816 136.001 84.5921C135.969 84.5026 135.902 84.4301 135.814 84.3883C133.954 84.9955 96.419 16.4085 108.796 36.6373C118.877 53.1507 125.945 69.1464 127.749 69.6459C127.746 68.4972 124.72 63.5738 131.283 74.4339C129.246 72.319 124.695 64.8167 131.174 76.1786C150.157 109.841 171.76 141.958 195.811 172.276C195.539 171.492 195.763 170.549 194.982 169.9C194.499 169.491 194.224 168.896 194.875 168.41C195.16 168.239 194.986 168.203 194.887 168.123C194.382 167.79 194.39 167.133 194.033 166.71C194.467 167.428 195.472 167.724 195.335 168.864C195.262 169.358 195.479 168.684 195.619 168.692C196.343 168.941 195.708 169.929 195.931 169.935C196.154 169.94 209.067 187.623 209.379 188.166C205.444 186.122 205.528 184.112 204.793 184.71C204.459 184.912 204.74 185.348 204.998 185.551C209.331 188.925 211.413 193.376 215.677 195.238C216.717 195.928 217.562 196.849 218.148 197.931C218.006 196.245 205.678 182.126 205.518 181.974C204.483 181.043 205.275 180.426 202.163 176.114C201.164 174.741 203.5 177.127 203.837 177.266C200.728 173.154 201.186 173.578 200.98 174.324C202.056 174.375 201.293 176.016 200.98 174.324C200.259 173.857 200.851 173.888 201.218 173.854C200.945 173.179 199.657 173.504 199.799 172.455C200.118 172.48 200.075 172.911 200.386 173.034C200.277 171.374 198.377 172.503 198.503 171.51C199.632 164.613 165.048 126.982 213.232 187.369C213.886 188.172 220.384 194.875 220.106 197.374C220.056 197.823 221.542 198.607 221.343 197.188C220.824 193.538 217.784 190.099 221.4 194.714C225.218 199.58 215.279 184.893 210.868 177.12C211.671 178.036 212.544 178.892 213.479 179.682C213.508 179.478 190.792 145.379 180.566 127.398C158.751 89.0104 214.484 183.243 225.753 196.196C225.914 196.099 178.243 119.114 174.511 110.901C259.489 209.391 188.766 135.299 189.327 125.899C189.534 122.278 231.809 178.467 236.772 181.432C209.136 145.585 167.576 83.0121 141.924 33.7542C141.8 33.5491 141.362 29.7252 140.053 28.5084C139.922 28.2919 139.851 27.5885 139.783 26.9455C142.477 28.1367 164.21 73.3664 168.145 74.3229C168.306 74.3659 168.387 74.4724 168.324 74.6192C167.686 75.936 172.492 79.6169 166.04 70.1973C167.313 68.3117 122.812 -8.84162 118.562 -18.359C117.931 -19.7664 114.678 -24.3668 114.196 -25.7237C111.549 -33.1451 102.835 -40.223 103.304 -41.4847C100.585 -42.2718 100.475 -47.2263 96.8765 -46.0072C97.1412 -45.2341 97.9462 -44.7396 98.0186 -43.8662C97.6599 -43.6502 95.5834 -45.1042 100.069 -40.6403C99.5498 -40.3275 99.505 -41.1554 98.6137 -41.3181C94.2827 -42.0362 89.0172 -49.1859 99.374 -35.9007C105.96 -27.4321 104.261 -28.6787 102.252 -31.4168C103.123 -29.7909 104.227 -28.3017 105.535 -26.9899C106.194 -26.4854 106.831 -23.8689 105.938 -25.1501C92.925 -43.892 95.9869 -37.3738 92.3666 -39.7633C92.0327 -39.5622 92.6696 -39.2619 92.1982 -39.0091C88.985 -41.2552 89.3427 -45.3252 87.7258 -45.0976C87.3724 -45.0402 87.2467 -47.0628 85.7975 -48.2884C87.0832 -45.5188 87.3958 -45.0854 86.9065 -44.8063C86.4172 -44.5272 86.4952 -44.9005 86.3327 -45.1136C86.1703 -45.3266 85.9864 -44.9051 85.7211 -44.8696C80.2383 -43.5575 88.6374 -33.9583 89.7726 -28.9532C88.9526 -29.3609 83.0354 -39.32 80.9068 -49.0115C80.5518 -50.6318 78.4412 -48.9878 78.2142 -49.0842C77.3447 -49.4621 78.7412 -47.3188 78.4047 -46.8986C75.3583 -43.0902 90.9584 -10.2698 71.9407 -54.8031C73.6632 -45.5044 76.9528 -39.5585 76.7696 -38.4379C76.3157 -38.6308 75.8391 -40.8151 75.5367 -39.2497C75.3589 -38.2878 80.4665 -23.8622 81.1995 -22.454C87.1308 -10.8248 78.0951 -25.9158 75.4373 -27.0198C75.1969 -26.7196 75.5124 -26.2257 75.1881 -25.9527C74.0128 -26.8925 69.7373 -36.9542 69.7253 -39.4028C69.3664 -39.3266 69.7216 -38.9342 69.2597 -38.7494C68.968 -40.3767 67.8267 -41.6789 67.9158 -43.4578C67.9471 -43.7409 67.3033 -43.9128 67.1736 -44.3787C65.0493 -51.104 65.227 -48.1024 65.5751 -47.8613ZM79.4574 -29.3007C79.8828 -27.3964 78.8368 -29.6575 78.9202 -30.1895C79.2669 -29.9787 79.1862 -29.526 79.4574 -29.3007ZM148.711 184.366C147.628 183.914 148.777 183.471 148.711 184.366C149.478 184.463 148.787 185.33 148.568 185.135C148.349 184.941 148.692 184.641 148.711 184.366ZM185.524 150.369C185.74 151.172 186.722 150.425 186.309 151.668C186.238 151.913 186.658 152.049 186.518 152.46C186.172 151.72 185.22 151.485 185.204 150.593C184.321 150.192 183.444 148.016 183.74 148.366C184.382 149.037 186.012 149.501 185.561 150.347L185.524 150.369ZM204.444 148.177C203.889 147.852 203.498 147.325 203.352 146.706C203.223 146.659 194.958 135.3 204.518 148.133L204.444 148.177ZM88.4378 5.26772C88.2236 5.58323 88.8235 5.90587 88.3137 6.29058C87.625 5.151 87.3919 4.37435 88.4269 5.30537C90.1669 5.81183 90.0009 7.57489 90.5687 8.84943C87.0034 3.67569 91.4389 11.434 93.0373 13.409C92.2137 13.4698 88.7901 8.33513 88.4378 5.26772ZM186.055 155.63C185.319 155.109 170.098 133.469 169.972 131.306C170.129 131.399 185.975 154.605 186.042 155.637L186.055 155.63ZM103.636 33.9623C103.685 34.042 120.776 64.6123 120.637 64.6337C121.484 66.0354 121.298 64.4997 121.839 64.7803C123.517 73.9501 103.633 34.4308 103.624 33.9697L103.636 33.9623ZM43.4061 -1.74731C44.3041 -1.71298 44.2003 -0.935517 44.4222 -0.40081C44.9501 0.835592 45.6825 1.68461 44.5627 2.62318C43.8028 3.23617 44.488 6.35182 44.3665 7.29536C45.2055 6.05961 44.8348 -1.78391 46.2343 4.80286C46.9319 8.05088 44.7904 6.29404 43.4592 8.97638C43.2616 9.37516 43.5496 10.1032 42.9804 10.1662C42.7452 10.1679 34.6419 -2.09626 43.3937 -1.73985L43.4061 -1.74731ZM111.949 11.1757C112.038 11.3238 152.417 80.2039 150.996 81.3703C152.042 81.0357 151.718 81.3086 153.764 85.532C158.531 95.2353 111.938 12.3015 111.961 11.1682L111.949 11.1757ZM98.8513 197.697C99.7295 197.168 100.825 200.767 101.45 200.546C102.076 200.325 101.289 200.083 101.648 199.728C115.144 222.033 119.673 228.383 98.8637 197.689L98.8513 197.697ZM87.0697 -0.234391C87.4829 0.449356 87.268 1.43365 87.7925 2.05036C88.4709 2.99316 88.9379 4.06964 89.1666 5.21744C88.2779 4.83557 88.4542 3.70357 87.5575 3.55968C87.3708 3.92077 88.0696 4.1838 87.5529 4.55712C87.4125 4.40852 77.716 -17.1079 87.0697 -0.234391ZM122.407 66.614C121.995 67.7175 132.228 82.8644 131.053 83.9914C120.379 65.3796 121.116 66.8785 122.383 66.6289L122.407 66.614ZM75.5246 -23.4975C78.3187 -18.0925 81.6199 -12.9929 84.4634 -7.61765C80.5058 -12.302 77.4731 -17.6698 75.4999 -23.4826L75.5246 -23.4975ZM115.541 220.707C115.63 220.855 123.479 231.469 122.798 231.879C122.118 232.288 109.672 213.174 115.541 220.707ZM154.028 123.935C150.945 119.68 148.258 115.158 145.994 110.417C148.6 114.925 151.61 119.236 154.027 123.904L154.028 123.935ZM19.2737 44.6631C21.9819 48.7377 24.361 53.0194 26.3916 57.474C23.7635 53.3512 21.3872 49.0743 19.2737 44.6631ZM95.2663 18.828C96.1658 19.0324 97.4987 22.2709 97.6284 22.7367C98.0433 25.0981 98.9921 23.6253 99.3019 25.5059C99.7221 27.7086 102.277 30.2891 102.392 30.9815C102.616 32.2455 106.115 41.3293 95.2663 18.828ZM35.8206 14.9284C34.951 15.7785 33.4369 10.1466 35.2463 11.1865C35.893 11.5586 36.7934 9.86623 36.9102 11.1482C36.8033 12.4473 36.4332 13.7316 35.8206 14.9284ZM80.4386 -25.695C80.785 -25.9036 86.7772 -12.4149 86.2466 -12.2042C84.0454 -16.5792 82.1186 -21.0911 80.4757 -25.7174L80.4386 -25.695ZM93.3279 -24.131C95.5645 -20.7756 97.4942 -17.2276 99.0974 -13.5234C97.346 -17.1472 94.4169 -20.1238 93.372 -24.1419L93.3279 -24.131ZM135.788 90.7926C135.87 90.9293 137.379 93.4249 136.882 93.6926C136.14 94.1395 137.292 93.8965 131.607 85.1034C131.401 84.7615 131.446 84.5011 132.038 84.393C132.631 84.2848 131.189 84.4384 135.844 90.7741L135.788 90.7926ZM208.639 188.674C209.344 189.058 210.222 188.948 210.809 189.668C213.465 192.918 213.371 192.679 213.11 192.945C212.581 193.465 210.422 190.087 208.696 188.655L208.639 188.674ZM194.108 189.948C192.538 188.419 191.174 186.705 190.044 184.842C191.414 186.55 193.405 187.807 194.164 189.93L194.108 189.948ZM52.9272 -11.926C52.6612 -13.9573 51.4178 -15.6799 51.1546 -17.6507C52.5232 -15.8326 53.4546 -12.6166 52.9272 -11.926ZM194.263 190.399C195.22 190.475 197.8 193.46 197.96 194.592L194.263 190.399ZM176.916 136.124C175.642 134.016 173.885 132.199 172.852 129.93C173.179 129.717 172.653 129.07 176.909 136.113L176.916 136.124ZM157.552 216.5C159.831 219.013 159.822 218.832 159.53 219.101C158.627 219.925 157.555 217.648 157.546 216.488L157.552 216.5ZM142.618 174.201C141.016 172.135 144.385 174.054 144.155 175.794C144.096 176.171 142.999 175.837 143.13 175.494C143.345 174.789 142.606 174.628 142.584 174.144L142.618 174.201ZM159.05 210.686C158.864 210.379 159.359 210.081 159.483 210.426C159.912 211.722 161.616 212.001 160.934 212.66C160.253 213.319 159.354 211.218 159.015 210.629L159.05 210.686ZM85.2659 178.957C86.1486 180.167 87.3665 181.205 87.4561 182.861C86.7686 181.472 85.7307 180.341 85.2191 178.908L85.2659 178.957ZM179.695 140.388C180.928 141.891 182 143.515 182.896 145.238C181.616 143.74 180.531 142.094 179.66 140.331L179.695 140.388ZM15.0193 40.8057C13.0015 37.4668 14.5257 36.6111 14.5581 37.4465C14.8159 38.5439 14.9702 39.668 15.0193 40.8057ZM21.8835 58.5566C22.8468 59.858 23.5989 61.3002 24.1168 62.8383C21.3552 58.2686 21.5716 58.8222 21.8835 58.5566ZM189.236 160.335C188.211 158.947 187.459 157.395 186.429 156.026C187.422 157.417 188.853 158.53 189.236 160.335ZM30.9412 82.1985C30.4712 82.4815 30.6614 82.8799 28.9096 78.8367L30.9412 82.1985ZM53.0451 -8.15785C52.2833 -9.2016 51.8098 -10.4258 51.6651 -11.7255C52.3309 -10.631 52.7971 -9.42572 53.0451 -8.15785ZM193.452 165.832C193.279 165.936 191.177 163.519 191.636 163.273C192.095 163.028 191.964 163.371 193.452 165.832ZM132.408 76.8809C133.109 77.6507 133.651 78.5464 134.006 79.5247C133.263 78.7851 132.717 77.8813 132.408 76.8809ZM169.628 108.572C169.07 108.015 168.752 107.27 168.729 106.471C169.082 107.083 170.045 107.42 169.621 108.561L169.628 108.572ZM19.1566 44.4693C18.4973 43.825 18.6092 42.9494 17.8512 42.6442C17.0932 42.3391 19.217 41.5265 19.1566 44.4693ZM84.8324 -7.20257C84.9393 -6.13233 86.2641 -5.67107 86.1786 -4.50051C85.4877 -5.25555 85.0127 -6.1757 84.7952 -7.1802L84.8324 -7.20257ZM94.3241 15.7894C93.501 16.4094 94.6816 15.8228 92.7991 14.4385C92.5376 14.2851 92.3655 12.6323 94.2869 15.8118L94.3241 15.7894ZM54.0666 -9.70559C53.9959 -10.2692 54.1617 -10.9441 53.4354 -11.2528C53.3872 -11.3325 53.3881 -11.7217 53.3893 -11.9711C53.4213 -12.9229 55.0264 -9.84833 54.0709 -9.61489L54.0666 -9.70559ZM33.9133 88.1491C34.2177 88.3646 34.4652 88.6445 34.6383 88.9696C34.8115 89.2947 34.9063 89.6572 34.9163 90.032C34.5938 89.8378 34.3326 89.5656 34.1565 89.2401C33.9805 88.9146 33.895 88.546 33.9078 88.168L33.9133 88.1491ZM175.039 117.888C174.689 117.665 174.399 117.368 174.187 117.018C173.976 116.668 173.848 116.273 173.813 115.86C174.412 116.409 174.845 117.106 175.07 117.885L175.039 117.888ZM190.986 162.841C190.699 162.143 189.961 161.702 189.795 160.869C191.373 162.281 191.373 162.281 190.986 162.841ZM105.834 13.9256C106.465 14.5244 105.204 15.2841 105.354 14.696C105.505 14.1079 104.914 13.9667 105.33 13.6227C105.577 13.4737 105.745 13.6679 105.854 13.9598L105.834 13.9256ZM16.6556 39.2143L17.8944 41.7945C17.1527 41.1339 16.7115 40.2149 16.6556 39.2143ZM156.292 161.848L157.256 163.444C156.962 163.285 156.719 163.054 156.549 162.774C156.38 162.493 156.289 162.171 156.285 161.837L156.292 161.848ZM106.095 -25.757C106.317 -25.8911 106.069 -26.1616 107.743 -23.3924C107.533 -23.2658 107.761 -22.9993 106.095 -25.757ZM53.2187 -16.1893C53.8623 -16.1572 53.4436 -15.4543 53.6197 -15.3583C53.7958 -15.2623 54.17 -15.1456 53.7741 -14.9073C53.3783 -14.6689 52.7732 -16.2007 53.2187 -16.1893ZM87.5821 -2.20603L88.9595 0.0731172C88.3161 -0.561861 87.8448 -1.34182 87.5821 -2.20603ZM148.077 112.691C147.932 112.451 147.42 112.247 147.955 111.987C148.239 111.815 148.453 112.309 148.402 112.448C147.725 114.006 149.844 113.382 148.101 112.676L148.077 112.691ZM154.913 161.326L155.891 162.944C155.431 162.491 154.621 162.295 154.913 161.326ZM113.337 -14.9174L114.618 -12.7977C114.023 -13.391 113.585 -14.1155 113.337 -14.9174ZM178.337 138.393C177.777 137.967 177.406 137.354 177.29 136.66C177.617 137.257 178.035 137.782 178.337 138.393ZM146.497 182.155C146.456 181.947 146.064 181.716 146.459 181.478C146.855 181.24 146.867 181.761 147.113 181.862C147.813 182.155 146.637 182.693 146.497 182.155ZM94.7402 18.0412L93.8794 16.6167C95.044 16.506 94.2366 17.7383 94.7402 18.0412ZM121.492 102.339C121.759 102.543 121.973 102.804 122.116 103.104C122.26 103.405 122.33 103.737 122.323 104.077C121.887 103.588 121.6 102.989 121.492 102.339ZM147.908 183.093C147.902 183.252 148.235 183.439 147.971 183.645C147.15 184.295 147.267 181.893 147.908 183.093ZM187.589 173.186C187.905 173.711 188.434 173.859 188.408 174.542C187.954 174.21 187.47 174.051 187.589 173.186ZM76.5553 161.557L76.2707 161.728C76.3305 160.962 74.9282 158.418 76.5553 161.557ZM131.357 75.1978C131.905 75.586 132.26 76.174 132.349 76.8388C131.84 76.4176 131.493 75.8436 131.357 75.1978ZM80.4794 -26.1858C79.9097 -26.5422 80.1195 -27.2281 79.8426 -27.7142C80.0668 -27.5315 80.2407 -27.2987 80.3511 -27.0338C80.4615 -26.7689 80.5053 -26.4788 80.4794 -26.1858ZM53.9476 -4.8778C54.2024 -4.45615 54.7129 -4.14189 54.5059 -3.53537L53.9476 -4.8778ZM148.41 142.441C148.905 142.143 149.293 143.122 148.94 143.319C148.587 143.516 148.12 142.631 148.417 142.453L148.41 142.441ZM174.745 133.733C175.49 134.045 175.195 134.674 175.509 134.997C175.292 134.864 175.112 134.683 174.982 134.468C174.852 134.253 174.776 134.01 174.759 133.755L174.745 133.733ZM82.0364 -8.95382C81.4063 -9.24273 81.3644 -9.87034 81.1617 -10.4011L82.0364 -8.95382ZM114.441 45.2526C114.919 45.8198 114.9 46.375 115.316 46.6999C115.04 46.5723 114.812 46.3702 114.658 46.1164C114.505 45.8625 114.432 45.5672 114.448 45.264L114.441 45.2526ZM114.234 44.9108C113.529 44.1073 113.529 44.1073 113.491 43.68C113.84 44.026 114.101 44.4476 114.254 44.9147L114.234 44.9108ZM110.965 50.221C111.231 50.3242 111.451 50.5069 111.594 50.7438C111.737 50.9808 111.797 51.2601 111.764 51.5429C111.41 51.1656 111.145 50.7171 110.985 50.2249L110.965 50.221ZM154.547 200.668C153.375 200.877 153.477 200.069 153.863 200.038C154.25 200.008 154.199 200.427 154.547 200.668ZM23.8899 58.6385C23.6557 58.543 23.4711 58.3671 23.3696 58.1429C23.2682 57.9186 23.2567 57.661 23.3373 57.4169L23.8899 58.6385ZM169.298 131.168L168.651 130.097C169.372 130.564 169.372 130.564 169.305 131.18L169.298 131.168ZM42.1664 103.09C43.0122 103.233 43.0572 104.201 42.7035 103.979C42.5403 103.894 42.4057 103.769 42.3127 103.616C42.2198 103.462 42.1717 103.284 42.1733 103.101L42.1664 103.09ZM134.909 81.3274C135.35 81.4975 135.809 81.6716 135.598 82.467L134.909 81.3274ZM99.0156 203.97C99.2844 204.143 99.5076 204.372 99.6703 204.641C99.833 204.91 99.9315 205.214 99.9591 205.532L99.0156 203.97ZM187.572 153.395C187.059 153.3 186.594 153.284 186.837 152.625C187.027 152.679 187.196 152.78 187.327 152.919C187.458 153.058 187.547 153.23 187.586 153.418L187.572 153.395ZM82.7324 -7.38346C82.5207 -7.50075 82.3534 -7.67722 82.2509 -7.89143C82.1484 -8.10563 82.1151 -8.34833 82.155 -8.59005L82.7324 -7.38346ZM154.621 129.298C154.842 129.378 155.02 129.534 155.122 129.739C155.224 129.943 155.243 130.181 155.175 130.41C155.194 129.994 154.756 129.745 154.635 129.32L154.621 129.298ZM205.341 149.02C205.636 149.279 205.821 149.635 205.865 150.026C205.737 149.73 205.062 149.702 205.392 149.021L205.341 149.02ZM120.277 100.133C120.484 100.475 120.927 100.565 120.561 101.05C120.279 100.862 120.198 100.616 120.277 100.133ZM170.34 183.838C169.976 183.404 169.727 183.243 169.651 182.698C169.864 182.806 170.04 182.968 170.161 183.168C170.282 183.368 170.344 183.599 170.34 183.838ZM146.081 180.851C144.65 180.718 145.926 180.121 146.098 180.545C146.141 180.644 146.09 180.783 146.081 180.851ZM89.9189 -27.0363C89.7536 -27.3098 89.1554 -27.3226 89.3817 -27.9252C89.5443 -27.8369 89.6786 -27.7094 89.7724 -27.5542C89.8662 -27.399 89.9165 -27.2211 89.9189 -27.0363ZM31.1013 100.971C31.9483 100.865 31.8677 101.458 31.6711 101.467C31.4744 101.477 31.2927 101.26 31.1013 100.971ZM173.631 181.188C174.476 181.191 174.345 181.923 174.044 181.871C173.743 181.819 173.741 181.51 173.631 181.188ZM116.337 48.6963C116.238 48.7559 116.35 48.8589 115.586 47.594C115.712 47.58 115.6 47.477 116.337 48.6963ZM121.379 101.956C120.806 102.208 120.671 100.952 121.508 101.583C121.571 101.716 121.57 101.825 121.379 101.956ZM106.798 212.744L107.037 213.642C106.473 213.406 106.541 213.101 106.736 212.781L106.798 212.744ZM25.562 61.3774C24.9746 61.1871 24.9661 60.8659 24.9353 60.3404C25.1146 60.4575 25.2594 60.6159 25.3576 60.8027C25.4558 60.9894 25.5047 61.1992 25.5002 61.4146L25.562 61.3774ZM187.484 172.985C187.232 172.764 186.723 172.759 186.837 172.194C187.15 172.369 187.369 172.661 187.447 173.007L187.484 172.985ZM131.999 83.9657C131.788 84.2019 131.645 84.4122 131.378 84.4174C131.112 84.4226 131.167 83.7052 131.987 83.9731L131.999 83.9657ZM133.921 83.9901C133.326 83.9282 133.12 83.5863 133.507 83.3063L133.921 83.9901ZM149.417 114.573C149.124 114.423 148.843 114.405 148.823 114.122C148.804 113.838 149.197 113.819 149.404 114.58L149.417 114.573ZM44.565 104.909C43.9967 104.583 43.8947 104.303 44.0469 103.885L44.565 104.909ZM128.832 112.949C129.377 113.04 129.831 113.373 129.427 113.71L128.832 112.949ZM42.2166 106.634C41.9074 106.821 41.9617 106.213 42.0208 106.115C42.0798 106.017 42.5244 106.418 42.2166 106.634ZM162.062 213.939C161.412 214.176 161.462 213.757 161.755 213.627C162.235 213.416 162.141 213.596 162.062 213.939ZM183.572 146.245C183.861 146.723 184.129 146.888 183.889 147.468L183.572 146.245ZM35.6795 92.9141C35.4867 92.595 36.0339 92.4676 36.1001 92.6609C36.1663 92.8541 35.8379 93.1762 35.6671 92.9216L35.6795 92.9141ZM154.312 160.973C154.497 160.442 154.435 160.479 154.764 160.856C154.873 161.009 154.891 161.262 154.3 160.981L154.312 160.973ZM185.382 170.707C184.974 170.953 184.672 170.482 184.932 170.325C185.192 170.169 185.561 170.584 185.37 170.715L185.382 170.707ZM92.7061 -25.8859C93.0653 -25.5426 93.5414 -25.2853 93.1193 -25.2021C92.6972 -25.1189 92.8577 -25.4953 92.7061 -25.8859ZM118.548 52.7737C118.449 52.8333 118.541 52.9021 118.011 52.0247C118.147 51.9427 118.017 51.8963 118.548 52.7737ZM136.084 83.3554C136.157 83.1407 136.247 82.7599 136.443 83.1394C136.513 83.2836 136.508 83.5821 136.084 83.3554ZM78.4055 163.613C78.3487 163.696 78.2639 163.758 78.167 163.788C78.07 163.818 77.9676 163.813 77.8789 163.775C77.9376 163.694 78.0224 163.634 78.1186 163.605C78.2147 163.575 78.3162 163.578 78.4055 163.613ZM170.31 109.421C170.136 109.525 169.784 109.193 170.062 109.011C170.339 108.828 170.623 109.325 170.31 109.421ZM35.3667 90.8332C34.4663 91.1578 35.4442 89.9006 35.4846 90.498C35.5521 90.5817 35.4559 90.7018 35.3667 90.8332ZM32.7979 86.5826C32.7979 86.5826 32.8018 86.3937 32.8513 86.364C33.7227 85.9635 33.241 86.953 32.7979 86.5826ZM20.9934 53.9013C20.773 53.5366 20.4056 53.2916 20.7658 53.2457C21.1261 53.1997 21.0809 53.46 21.0305 53.879L20.9934 53.9013ZM87.9893 81.0139C87.607 80.9954 87.31 81.0344 87.2037 80.6632C87.568 80.5681 87.7839 80.5625 87.9893 81.0139ZM53.0852 -7.84009C53.8223 -7.84873 52.9857 -6.97196 52.9948 -7.5991C53.0104 -7.68293 53.041 -7.76446 53.0852 -7.84009ZM154.805 160.086C155.567 160.202 155.514 160.701 155.296 160.676C155.079 160.651 155.003 160.386 154.817 160.079L154.805 160.086ZM53.2127 -16.7297C53.019 -16.5198 52.8096 -16.9221 52.9029 -17.1027C52.9963 -17.2832 53.3981 -16.9812 53.2127 -16.7297ZM185.813 191.073C185.531 190.606 185.51 190.572 185.722 190.615C185.766 190.631 185.806 190.657 185.836 190.691C185.866 190.725 185.887 190.767 185.896 190.812C185.905 190.857 185.902 190.905 185.888 190.95C185.873 190.996 185.847 191.038 185.813 191.073ZM148.968 143.644C149.604 143.105 149.45 143.493 149.111 143.713C149.086 143.728 149.013 143.663 148.968 143.644ZM82.7709 -28.4517C82.3087 -28.6863 82.2493 -28.8682 82.3095 -29.2152L82.7709 -28.4517ZM84.3632 -31.4C84.2274 -31.0385 84.035 -30.9382 83.6842 -31.0999C83.937 -31.2678 84.0936 -31.4553 84.4072 -31.411L84.3632 -31.4ZM128.618 112.316C128.384 112.348 128.445 112.42 128.353 112.072C128.681 112.029 128.621 111.957 128.662 112.305L128.618 112.316ZM86.5603 -3.67346C86.248 -3.82734 86.0692 -3.84403 86.3399 -4.03813C86.6106 -4.23223 86.7908 -4.18527 86.6042 -3.68437L86.5603 -3.67346ZM86.7944 -3.28601C87.1205 -3.10934 87.2499 -2.92307 87.1939 -2.62507C87.0854 -2.70268 86.9983 -2.80399 86.9389 -2.92158C86.8795 -3.03917 86.8494 -3.16998 86.8508 -3.30438L86.7944 -3.28601ZM184.131 169.922C184.205 169.877 184.189 169.654 184.263 169.609C184.635 169.416 184.723 170.482 184.187 169.903L184.131 169.922ZM155.117 198.009C154.975 198.779 154.481 198.268 154.716 198.127C154.951 197.985 155.004 198.046 155.173 197.991L155.117 198.009ZM147.227 111.228C147.839 111.124 147.888 111.374 147.962 111.719L147.227 111.228ZM154.43 197.04C154.317 197.216 154.412 197.206 154.074 197.176C154.144 196.901 154.049 196.912 154.387 197.081L154.43 197.04ZM146.113 215.073C145.949 215.389 146.055 215.341 145.692 215.326C145.843 215.018 145.703 215.149 146.07 215.114L146.113 215.073ZM198.381 196.265C197.918 196.28 198.096 196.017 198.25 196.049C198.404 196.08 198.402 196.16 198.339 196.307L198.381 196.265ZM18.4775 46.1372C18.3705 46.0946 18.282 46.0204 18.2241 45.9246C18.1662 45.8288 18.1417 45.716 18.1538 45.6016C18.2637 45.6407 18.3547 45.7141 18.4131 45.8108C18.4715 45.9074 18.4941 46.022 18.4775 46.1372ZM22.5044 56.4575C22.6421 56.6854 22.8815 56.7744 22.831 57.1934C22.6341 56.9234 22.425 56.8006 22.5044 56.4575ZM20.3722 55.7209C20.4903 55.7975 20.5803 55.9071 20.6314 56.0362C20.6825 56.1654 20.6925 56.3087 20.6603 56.4489C20.495 56.1754 20.2324 56.1315 20.3365 55.7734L20.3722 55.7209ZM197.675 195.571C197.517 195.309 197.977 194.954 197.937 195.585L197.675 195.571ZM44.9827 105.963C44.687 105.893 44.9245 105.532 45.0732 105.722C45.2219 105.913 45.1133 105.9 44.9827 105.963ZM154.748 124.651C154.345 124.599 153.956 124.429 154.316 124.243C154.676 124.057 154.639 124.359 154.748 124.651ZM28.4199 80.0642L28.5437 79.9897C28.6308 80.4968 28.6679 80.4744 28.4199 80.0642ZM122.92 60.9584C122.604 60.574 122.882 60.2817 123.108 60.6276C123.334 60.9734 122.704 60.9641 122.92 60.9584ZM126.334 66.3009C126.256 66.6742 125.97 66.2561 126.183 66.0501L126.334 66.3009ZM117.347 50.8702C116.957 50.5607 117.189 50.0791 117.434 50.4289C117.508 50.524 117.59 50.6305 117.347 50.8702ZM119.461 54.3687C119.173 54.0601 118.975 53.8997 119.075 53.5907C119.349 53.7367 119.379 53.9826 119.436 54.3836L119.461 54.3687ZM106.05 -49.0288C106.181 -49.9005 108.44 -48.6187 108.216 -50.0224C108.157 -49.7849 110.649 -49.3738 110.846 -49.3835C109.636 -51.0793 108.368 -50.9997 108.719 -51.7863C113.901 -46.8402 112.205 -50.5126 113.119 -49.3068C115.713 -45.8797 117.384 -46.4658 116.384 -47.1698C115.655 -47.6788 115.623 -48.6539 114.948 -49.2115C114.274 -49.7691 115.15 -49.6593 115.313 -49.8355C114.041 -50.946 112.868 -52.1577 111.807 -53.4595C112.955 -54.3525 120.931 -43.053 121.107 -42.957C116.669 -61.1589 175.671 50.3467 175.853 50.4239C176.312 50.0388 175.343 49.5806 176.19 49.4747C176.412 49.4502 177.286 50.7576 176.619 50.7707C173.514 50.7132 221.408 128.792 263.306 176.877C266.435 180.464 267.418 186.836 237.384 149.309C236.965 148.784 235.594 148.413 238.507 152.005C225.158 148.48 105.972 -48.7953 106.05 -49.0288ZM156.426 44.2948C156.511 43.793 136.781 6.51186 136.862 6.33876C137.508 3.55594 105.636 -40.138 104.943 -42.0673C105.279 -39.6122 116.386 -25.5042 116.501 -25.371C121.303 -19.7141 156.594 44.3492 156.376 44.3246L156.426 44.2948ZM136.154 6.56302C134.874 5.28223 135.059 5.03068 130.72 -2.84766C132.818 0.116749 134.62 3.27634 136.104 6.5928L136.154 6.56302ZM170.572 77.8355C170.304 78.6493 177.607 87.3547 176.301 87.3168C175.373 87.3162 178.453 88.4767 179.04 90.8434C178.601 90.7035 178.52 90.1776 177.824 90.1148C188.169 107.236 199.743 123.591 212.47 139.07C212.291 138.494 184.418 98.9047 182.339 94.5148C181.444 92.6441 183.161 94.2839 182.38 92.9357C182.249 92.7192 182.049 92.3887 181.772 92.7112C181.325 93.2287 181.256 92.8352 181.098 92.5731C163.76 64.2186 170.517 77.8841 170.522 77.8653L170.572 77.8355ZM179.467 91.9693C179.841 92.1135 180.171 92.3368 180.435 92.6237C180.698 92.9106 180.889 93.2541 180.994 93.6301C180.653 93.9596 180.633 93.7857 179.455 91.9768L179.467 91.9693ZM181.905 95.1646C182.484 95.7327 182.964 96.0807 182.521 96.7985C182.001 96.4123 181.996 95.9022 181.841 95.1716L181.905 95.1646ZM184.68 99.6173C184.261 99.232 184.261 99.232 184.324 98.8056C184.599 98.9818 184.559 99.3328 184.617 99.6243L184.68 99.6173ZM59.0204 156.884C80.269 190.593 78.3333 191.074 77.2927 188.655C76.4533 186.735 58.0157 157.427 59.0052 156.831L59.0204 156.884ZM112.486 238.85C112.672 238.738 112.866 238.808 112.823 238.989C111.607 243.592 134.394 264.857 110.885 238.043C109.426 236.158 108.179 234.123 107.163 231.968C107.691 231.977 112.36 238.864 112.485 238.82L112.486 238.85ZM17.8856 82.1179C18.1695 82.7552 17.6142 82.9808 17.3785 82.4233C17.1428 81.8658 11.5131 72.0755 11.4648 71.9958C-11.3079 33.5317 12.7043 71.0318 17.8856 82.1179ZM97.5328 218.992C98.4278 217.458 91.8051 213.115 104.097 228.514C112.725 239.328 98.4042 218.591 97.5396 219.003L97.5328 218.992ZM104.565 227.502C104.548 228.088 103.958 227.557 104.187 227.435C104.417 227.312 104.483 227.365 104.572 227.513L104.565 227.502ZM61.1523 140.508C60.1311 138.232 54.7542 129.642 55.3032 128.596C55.3827 129.761 56.1546 128.721 56.261 129.232C56.4007 129.929 56.7282 130.567 57.2117 131.084C57.4526 131.343 56.628 131.933 57.357 132.022C58.0859 132.112 57.413 133.092 58.0939 133.242C58.1902 133.254 58.2811 133.286 58.3604 133.336C58.4397 133.386 58.5055 133.453 58.5533 133.532C58.6011 133.611 58.6297 133.701 58.6372 133.794C58.6446 133.888 58.6308 133.983 58.5966 134.074C58.1663 135.623 60.034 134.498 59.7919 135.856C59.5498 137.214 61.3828 138.489 61.3707 138.776C61.3553 139.189 61.4267 139.595 61.5807 139.97C61.7346 140.344 61.9679 140.68 62.2666 140.956C61.5315 141.554 61.3356 140.895 61.1592 140.519L61.1523 140.508ZM86.7285 202.37C87.4372 202.845 95.4891 215.917 96.8377 215.525C95.7256 215.946 96.6064 216.705 96.1079 217.332C92.7851 211.219 85.8475 202.838 86.6736 202.419L86.7285 202.37ZM62.2031 137.808C59.2215 133.166 56.5492 128.334 54.2008 123.338C55.3753 124.947 62.2986 136.989 62.2031 137.808ZM190.386 178.931C193.463 182.348 191.798 180.599 192.643 180.572C204.082 199.501 190.225 179.028 190.379 178.92L190.386 178.931ZM48.6068 116.371C48.0254 116.721 47.0001 114.494 46.4163 113.695C44.6964 111.296 46.35 110.627 46.6744 111.861C47.156 113.607 49.4574 115.796 48.6068 116.371ZM60.57 -41.7388C59.5327 -42.1711 58.3639 -49.2697 57.589 -51.3055C58.3977 -51.2796 60.797 -41.6424 60.57 -41.7388ZM162.409 55.3955C159.321 51.4577 160.696 50.6914 159.813 50.5703C158.93 50.4492 159.136 49.9523 159.026 49.4903C158.806 48.5967 160.037 49.9073 160.181 50.0068C161.378 50.7314 160.416 52.7407 162.089 53.1634C162.224 53.191 161.918 53.997 162.093 54.0627C162.851 54.3679 162.664 55.8171 162.409 55.3955ZM62.5216 141.517C63.36 141.09 63.4537 144.065 65.1631 145.553C65.2457 145.69 65.7528 146.753 65.3941 146.969C65.0354 147.185 61.7024 141.949 62.4969 141.532L62.5216 141.517ZM41.9582 -39.6238C43.3156 -37.1185 44.3609 -34.4524 45.0738 -31.6768C43.5408 -34.1576 42.9894 -36.9962 41.9582 -39.6238ZM49.8516 115.388C52.7028 120.106 51.3114 117.524 52.0648 117.319C52.3411 117.246 52.6226 118.242 52.3037 118.357C51.0432 118.867 52.4128 118.788 52.9832 121.351C49.0715 114.879 49.3678 115.648 49.8378 115.365L49.8516 115.388ZM1.93422 48.5765C3.53827 52.0403 5.13795 55.2736 6.81875 58.4736C4.93918 55.9217 1.92577 49.7629 1.92046 48.5537L1.93422 48.5765ZM109.958 -52.2213C111.178 -51.4021 116.676 -45.9619 106.943 -54.1672C108.565 -54.4137 108.934 -52.9105 109.937 -52.2555L109.958 -52.2213ZM53.2626 124.494C55.347 125.57 55.9021 130.676 53.78 126.187C52.8361 124.207 50.9223 123.245 53.2752 123.258C51.8705 123.949 53.7902 123.943 53.242 124.46L53.2626 124.494ZM80.593 192.915C81.0994 193.279 80.975 194.022 81.6023 194.251C81.7894 194.309 81.7375 194.698 81.2865 194.705C81.4136 193.882 80.4427 193.923 80.2001 193.354C79.8145 192.158 79.1593 191.073 78.2787 190.175C77.5314 189.552 79.2435 189.594 79.8245 191.7C79.9997 192.325 80.2727 191.632 80.5616 191.691C80.4636 191.766 80.3842 191.862 80.3298 191.97C80.2754 192.077 80.2475 192.194 80.2486 192.31C80.2497 192.427 80.2795 192.539 80.3358 192.638C80.3921 192.738 80.4732 192.821 80.5724 192.881L80.593 192.915ZM117.934 -29.0008C120.154 -26.0492 122.13 -22.9276 123.848 -19.6615C121.903 -22.7958 119.975 -25.9866 117.934 -29.0008ZM20.2171 60.1819C18.7976 57.9548 17.5264 55.637 16.4107 53.2415C17.8548 55.454 19.1268 57.7732 20.2171 60.1819ZM82.8231 196.717C84.4114 198.061 86.3637 201.906 85.118 200.682C84.299 199.885 82.4079 196.812 82.8108 196.725L82.8231 196.717ZM9.48719 63.3636C13.4333 69.8934 13.1343 69.203 12.8498 69.3744C8.90367 62.8446 9.19581 63.5235 9.48719 63.3636ZM142.383 136.434C142.793 137.865 140.098 134.048 140.348 133.68C140.758 133.045 141.978 134.953 142.383 136.434ZM62.278 138.462C62.1954 138.326 61.8429 136.486 64.7994 142.104C63.4976 141.178 63.0919 139.697 62.278 138.462ZM200.879 182.281C200.04 182.428 200.332 181.599 199.98 181.268C196.571 178.223 198.082 178.323 198.235 178.604C199.366 180.643 201.917 181.904 200.819 182.238L200.879 182.281ZM13.2557 69.6273C17.8032 78.0176 16.9355 76.5817 12.8723 69.8582L13.2557 69.6273ZM10.7504 45.941C12.0116 47.8259 13.0062 49.8751 13.7102 52.0389C12.9477 49.9956 11.476 48.2862 10.7656 45.994L10.7504 45.941ZM153.08 189.055C152.397 189.544 152.439 187.995 150.594 186.449C150.698 186.306 150.831 186.183 150.985 186.091C151.138 185.998 151.309 185.937 151.484 185.913C151.841 187.423 153.487 188.779 153.067 189.063L153.08 189.055ZM108.87 -43.8881C107.594 -45.0782 106.946 -46.8484 104.754 -47.0981C106.079 -47.5852 109.373 -45.0928 108.871 -43.8578L108.87 -43.8881ZM51.6363 120.686C52.3821 121.138 51.1977 122.193 51.2193 121.699C51.2408 121.204 50.1501 120.99 50.5306 120.559C51.5115 119.642 50.4763 119.939 50.0691 119.795C51.3221 118.575 51.4616 120.62 51.6377 120.716L51.6363 120.686ZM162.6 128.068C163.342 129.31 164.177 130.495 165.097 131.615C164.172 131.535 162.639 129.334 162.601 128.098L162.6 128.068ZM180.114 193.339C179.755 192.996 180.28 192.664 180.571 193.064C181.359 194.144 183.15 194.79 182.643 195.375C182.297 195.304 182.751 195.777 180.177 193.332L180.114 193.339ZM158.984 48.8627C158.36 49.1142 158.878 48.4915 158.396 48.1132C157.565 47.4636 157.555 47.2519 158.462 46.5193C158.522 47.4002 159.701 48.5705 158.984 48.8627ZM68.5319 152.384C67.9135 152.757 67.9412 151.574 67.3671 150.847C66.7929 150.121 67.2935 150.084 67.7939 149.907C67.9106 151.188 69.0212 152.105 68.5319 152.384ZM123.982 -8.97118C125.026 -7.71517 125.92 -6.3471 126.651 -4.8897C125.754 -6.15202 124.419 -7.24438 123.982 -8.97118ZM176.542 188.713C176.811 187.51 175.53 187.038 175.138 185.999C175.649 186.174 178.003 188.144 176.542 188.713ZM123.105 235.067L125.696 238.683C124.52 237.723 123.63 236.48 123.105 235.067ZM111.983 -35.5822L109.216 -39.0449C110.43 -38.1413 111.38 -36.9536 111.983 -35.5822ZM65.4634 147.502C65.7636 146.575 66.8694 148.209 66.7872 148.492C66.4222 149.256 67.1547 148.877 67.3681 149.09C66.7236 149.587 65.3194 147.962 65.4634 147.502ZM193.768 174.144C198.343 178.336 196.126 178.241 193.768 174.144V174.144ZM59.0176 156.823C58.1916 156.369 57.5675 155.651 57.2444 154.783C57.3172 153.34 59.2128 156.784 59.0176 156.823ZM193.741 174.238C192.754 173.472 191.955 172.51 191.391 171.41C191.77 171.787 194.084 173.41 193.741 174.238ZM75.6583 -28.8315C74.6695 -30.1199 74.0166 -31.6299 73.7495 -33.2464C74.3078 -31.7641 75.0105 -30.3221 75.6583 -28.8315ZM174.446 186.556C173.627 187.267 171.107 181.339 174.17 185.961C174.11 186.168 174.879 186.156 174.432 186.533L174.446 186.556ZM55.7216 151.425C56.1835 151.744 56.5501 152.172 56.7903 152.671C57.0305 153.171 57.1371 153.728 57.1009 154.294C56.4856 153.412 56.0162 152.437 55.7078 151.403L55.7216 151.425ZM105.743 -43.4508C106.689 -42.2485 108.039 -41.3827 108.611 -39.8776C105.134 -43.7055 105.435 -43.2343 105.729 -43.4736L105.743 -43.4508ZM63.4076 163.055C64.315 164.249 64.6094 165.797 65.7147 166.872C64.6792 165.766 63.8911 164.462 63.3938 163.032L63.4076 163.055ZM179.633 55.8414C179.189 54.9118 178.053 54.3992 178.087 52.9486C178.881 53.727 179.412 54.7222 179.619 55.8186L179.633 55.8414ZM163.673 202.509C162.718 201.095 165.399 202.573 165.019 203.703C164.675 203.133 163.915 203.047 163.598 202.523L163.673 202.509ZM154.957 190.878C155.198 191.277 154.892 191.663 154.497 191.233C151.797 188.273 154.251 189.625 154.882 190.892L154.957 190.878ZM108.18 -49.9698C107.559 -49.9375 108.252 -48.847 105.912 -52.1322C105.836 -52.2575 105.833 -52.4578 106.214 -52.6093C106.59 -51.5539 107.27 -50.6403 108.18 -49.9698ZM156.39 44.3474C157.055 44.5535 157.623 46.2474 157.36 46.3434C156.779 46.5536 156.131 45.0631 156.429 44.3553L156.39 44.3474ZM17.3553 9.38585C17.4689 10.5565 17.5068 11.738 17.4687 12.9235C17.7039 12.9218 16.4661 11.3202 17.3553 9.38585ZM180.34 57.5138C180.473 56.6724 181.416 58.2336 181.839 58.8494C181.465 58.8012 181.122 58.6466 180.853 58.405C180.583 58.1633 180.4 57.8454 180.326 57.4911L180.34 57.5138ZM201.693 199.121C202.059 199.335 202.022 200.865 200.272 197.971C201.047 198.219 201.184 198.837 201.679 199.098L201.693 199.121ZM131.416 239.885C130.556 239.183 129.934 238.25 129.619 237.191C130.222 238.133 130.916 238.974 131.437 239.92L131.416 239.885ZM12.1255 44.4756C10.4252 40.9921 10.5618 41.4694 10.8601 41.3209C12.6457 44.8618 12.5187 44.3166 12.1462 44.5098L12.1255 44.4756ZM19.2516 85.3831C19.9977 86.0174 20.5113 86.8672 20.7254 87.8218L19.2516 85.3831ZM99.9156 -46.0033C99.0198 -46.6622 97.9236 -47.0396 96.7626 -47.0889C97.3708 -47.305 98.024 -47.311 98.6054 -47.1059C99.1867 -46.9007 99.6585 -46.4978 99.9362 -45.9691L99.9156 -46.0033ZM50.6482 115.701C50.476 115.416 50.7376 114.342 51.4819 116.132C52.1757 116.833 52.0513 117.576 50.6689 115.735L50.6482 115.701ZM86.968 201.231C85.1271 198.827 85.0185 198.815 85.3565 198.564C85.6946 198.314 87.2375 201.147 86.9393 201.295L86.968 201.231ZM114.572 -31.577L112.733 -34.6196C113.683 -33.8434 114.327 -32.7773 114.572 -31.577ZM166.998 220.293C166.614 220.524 163.98 217.587 166.916 219.627C166.985 219.881 167.281 220.091 166.998 220.293ZM167.138 71.9299C166.777 71.5564 167.214 71.2467 167.645 71.6245C167.769 71.6898 169.503 74.3915 167.138 71.9299ZM198.776 176.987C198.714 176.885 198.769 176.557 198.871 176.697C199.256 177.196 199.719 176.342 199.6 176.507C199.216 177.018 200.726 179.544 198.776 176.987ZM119.818 -23.7625C120.707 -22.9353 121.419 -21.9467 121.918 -20.846L119.818 -23.7625ZM84.8047 198.182C84.2164 197.502 83.7819 196.707 83.5263 195.843C83.9383 196.636 84.8615 197.215 84.8047 198.182ZM55.7637 149.457C57.8298 152.876 56.2802 150.312 55.2946 150.719C55.6751 150.288 56.0475 149.955 55.7637 149.457ZM14.2225 52.8028C14.4739 53.9726 15.5019 54.7524 15.697 55.9405C14.987 55.0083 14.5052 53.9255 14.2844 52.7656L14.2225 52.8028ZM75.431 -27.8398C76.4875 -27.4036 77.5124 -25.596 76.5644 -26.1598C76.3328 -26.7663 75.6256 -27.0711 75.4928 -27.877L75.431 -27.8398ZM182.17 60.9041C181.942 60.528 182.024 60.1055 181.741 59.6081C182.996 59.8156 182.953 61.7535 182.17 60.9041ZM9.75622 37.5404C9.15599 36.7286 8.70765 35.8168 8.42939 34.8422C9.0457 35.6233 9.48713 36.5247 9.72867 37.4948L9.75622 37.5404ZM173.6 183.398L175.126 185.587C174.322 185.075 173.768 184.277 173.572 183.352L173.6 183.398ZM200.868 182.318C201.32 183.289 202.455 183.772 202.772 184.855C202.63 184.676 200.108 181.983 200.84 182.273L200.868 182.318ZM15.7632 51.8907C15.4544 51.1285 14.5683 50.6673 14.7324 49.6826C15.0136 50.3991 15.7388 50.9572 15.7108 51.86L15.7632 51.8907ZM50.5838 141.277C51.5325 142.539 51.5326 142.679 50.3708 142.85C51.1266 142.287 50.1896 141.825 50.5452 141.269L50.5838 141.277ZM161.95 162.389C162.315 162.564 162.623 162.826 162.847 163.152C163.071 163.479 163.203 163.859 163.232 164.26L161.95 162.389ZM187.619 166.034C188.048 167.33 190.475 170.314 187.322 166.213L187.619 166.034ZM53.2871 121.324L54.2474 123.248C53.2251 122.589 53.0473 122.183 53.2486 121.316L53.2871 121.324ZM169.575 222.938C170.526 223.033 170.443 223.845 170.782 224.293C170.464 224.194 170.182 224.017 169.965 223.779C169.747 223.54 169.599 223.248 169.536 222.93L169.575 222.938ZM159.548 196.771C160.043 197.274 160.438 197.862 160.716 198.508C160.351 198.374 160.042 198.138 159.828 197.828C159.613 197.518 159.503 197.148 159.509 196.763L159.548 196.771ZM186.05 163.606C186.131 164.521 186.89 164.996 187.236 165.736C186.866 165.507 186.563 165.195 186.351 164.824C186.138 164.453 186.022 164.033 186.012 163.598L186.05 163.606ZM196.879 174.182L195.594 172.531C196.162 172.857 196.846 173.207 196.806 174.117L196.879 174.182ZM4.99192 40.9067C4.73358 40.0136 4.37403 39.1567 3.91953 38.3506C4.25642 38.6674 4.51946 39.0501 4.69318 39.4766C4.86689 39.903 4.94785 40.3646 4.93135 40.8344L4.99192 40.9067ZM82.9029 196.794C82.0349 196.446 82.4477 195.342 81.7528 194.89C82.7038 195.654 83.0721 196.738 82.8424 196.721L82.9029 196.794ZM48.9522 118.059C48.2635 116.919 50.8917 117.249 49.641 117.971C49.3439 117.87 49.1119 118.351 48.8916 117.987L48.9522 118.059ZM184.15 161.16C184.796 161.749 185.284 162.48 185.578 163.299C185.35 162.893 183.957 161.649 184.15 161.16ZM19.0681 84.7165C18.8524 84.6154 18.6692 84.4636 18.5341 84.2742C18.3991 84.0849 18.3163 83.8635 18.2928 83.6291C18.8883 83.7212 18.9012 84.2729 19.0681 84.7165ZM9.31773 62.9994C8.81014 62.5049 8.49821 61.8515 8.43026 61.1402C8.9242 61.6512 9.2147 62.3186 9.25583 63.0366L9.31773 62.9994ZM202.827 182.211C203.371 182.552 203.999 182.81 204.063 183.642C203.234 183.442 203.321 182.582 202.79 182.233L202.827 182.211ZM166.395 70.7294C165.941 69.9772 166.778 69.6597 166.938 70.0918C167.277 71.0999 166.601 71.1808 166.358 70.7517L166.395 70.7294ZM171.488 141.491C170.823 140.873 170.348 140.088 170.11 139.212L171.488 141.491ZM155.681 192.494C155.322 192.71 155.398 192.027 155.031 191.921C154.664 191.816 155.447 191.018 155.633 191.745C155.702 191.999 156.104 192.301 155.681 192.494ZM7.57467 59.4172C8.43861 61.1818 8.35724 60.9355 8.20192 61.0135C7.18267 59.3269 7.23383 59.6069 7.56091 59.3944L7.57467 59.4172ZM26.6731 12.0747L27.0613 13.8616C26.7996 13.6538 26.6195 13.3665 26.5473 13.0411C26.475 12.7158 26.5143 12.3693 26.6593 12.052L26.6731 12.0747ZM158.933 122.224C159.799 122.651 159.839 123.389 160.236 123.849C159.409 123.71 159.388 122.977 158.933 122.224ZM122.491 -19.0311L123.695 -17.3467C123.343 -17.4966 123.045 -17.7349 122.829 -18.0382C122.613 -18.3416 122.487 -18.6995 122.464 -19.0767L122.491 -19.0311ZM126.818 -12.1239C126.99 -11.8391 127.647 -11.6444 127.272 -11.3718C126.365 -10.779 126.088 -13.7211 126.74 -12.1397L126.818 -12.1239ZM237.118 170.81C237.687 171.217 238.11 171.783 238.338 172.438C237.768 172.03 237.345 171.465 237.118 170.81ZM111.415 219.072C111.017 218.861 111.634 219.127 111.318 217.934C112.121 217.839 112.097 219.392 111.38 219.015L111.415 219.072ZM80.3521 -7.30233C80.5911 -7.07512 80.7745 -6.79895 80.8906 -6.49149C81.0067 -6.18403 81.0529 -5.85209 81.0263 -5.5168L80.3521 -7.30233ZM171.117 224.651C171.554 224.85 171.881 225.211 172.028 225.657C171.76 225.352 170.97 225.47 171.117 224.651ZM155.05 118.004C154.876 117.549 154.066 117.633 154.168 116.685C154.557 117.244 155.099 117.415 155.05 118.004ZM136.655 128.21C136.323 127.728 136.118 127.17 136.058 126.581C136.307 127.021 136.98 127.269 136.655 128.21ZM102.563 36.1784L103.423 37.8522C102.603 37.5843 102.844 36.7552 102.563 36.1784ZM142.824 33.0102C142.847 33.035 142.863 33.0648 142.871 33.0972C142.88 33.1297 142.881 33.1641 142.874 33.198C142.867 33.2319 142.852 33.2644 142.831 33.2932C142.81 33.3221 142.783 33.3465 142.752 33.3647C142.752 33.3647 142.508 33.3248 142.501 33.3134C142.838 31.2458 141.03 31.4642 142.824 33.0102ZM184.136 161.137C183.459 160.752 182.881 160.233 182.438 159.611C183.875 159.895 184.013 161.491 184.136 161.137ZM124.968 -17.7247C125.213 -17.5756 125.41 -17.3673 125.543 -17.1186C125.675 -16.87 125.739 -16.589 125.727 -16.3011C125.484 -16.87 124.949 -17.1694 124.94 -17.7703L124.968 -17.7247ZM196.493 177.508C197.643 176.815 198.165 179.438 196.493 177.508V177.508ZM173.813 68.2365L174.359 69.3068C173.437 69.038 173.401 68.9508 173.736 68.2207L173.813 68.2365ZM177.292 152.156C177.745 152.724 178.122 153.348 178.414 154.013L177.292 152.156ZM184.185 173.417C184.556 173.194 185.573 174.82 185.039 174.551C184.505 174.281 184.045 173.548 184.145 173.379L184.185 173.417ZM161.812 162.022C161.495 161.497 160.846 161.204 160.875 160.472C161.292 160.875 161.59 161.379 161.744 161.938L161.812 162.022ZM128.918 -10.4354C128.772 -11.2339 128.112 -11.7688 127.863 -12.7382C129.297 -10.3377 129.203 -10.7163 128.85 -10.5191L128.918 -10.4354ZM61.0551 159.218L60.2287 157.85C60.6465 158.159 60.9245 158.609 61.0124 159.119L61.0551 159.218ZM162 199.879C161.765 199.847 161.55 199.748 161.382 199.595C161.215 199.442 161.102 199.241 161.057 199.017C161.359 198.82 161.126 198.712 162 199.879ZM235.16 168.352C235.429 168.463 235.659 168.642 235.825 168.873C235.991 169.103 236.087 169.376 236.104 169.664C235.664 169.328 235.319 168.891 235.098 168.389L235.16 168.352ZM14.6759 52.4366C14.1462 52.1183 14.1525 51.5705 14.0447 51.0292C14.2431 51.2051 14.3957 51.4236 14.4917 51.6693C14.5877 51.915 14.6248 52.1819 14.6003 52.451L14.6759 52.4366ZM76.5271 -29.1526C76.5042 -30.0559 75.5288 -30.5254 75.587 -31.4619C75.1731 -31.4769 76.4559 -30.2755 76.4515 -29.1382L76.5271 -29.1526ZM124.99 -14.5053C124.659 -14.8854 124.418 -15.3324 124.281 -15.8188C124.416 -15.7781 124.54 -15.7114 124.646 -15.6226C124.751 -15.5337 124.836 -15.4245 124.894 -15.3012C124.953 -15.1778 124.985 -15.0427 124.989 -14.9037C124.992 -14.7646 124.967 -14.6243 124.915 -14.4908L124.99 -14.5053ZM167.185 205.834C167.483 206.105 166.115 206.074 166.289 205.022C166.818 205.06 166.817 205.589 167.109 205.849L167.185 205.834ZM129.905 -8.74538L129.113 -10.0559C129.906 -9.55395 129.906 -9.55396 129.905 -8.74538ZM169.901 138.81C169.426 138.583 168.868 138.468 168.989 137.525L169.901 138.81ZM182.877 61.6281C182.947 61.2131 183.808 61.4096 183.421 62.5284C183.216 62.077 182.858 62.0436 182.877 61.6281ZM172.596 66.9486C171.722 65.5014 171.832 65.6837 171.975 65.6132C172.844 67.0793 172.727 66.8856 172.547 66.9785L172.596 66.9486ZM74.2362 -34.6741L73.5293 -36.2068C73.7768 -36.039 73.9715 -35.8104 74.0952 -35.5424C74.2188 -35.2743 74.2673 -34.9756 74.2362 -34.6741ZM183.647 95.1723C183.42 94.7963 182.841 94.6476 182.836 93.9976C183.047 94.1293 183.225 94.3036 183.359 94.5096C183.492 94.7155 183.577 94.9488 183.61 95.1947L183.647 95.1723ZM143.036 17.4487L142.294 16.5278C143.184 16.5204 143.097 16.992 142.999 17.471L143.036 17.4487ZM94.2643 -46.8123C94.8463 -46.4366 95.2716 -45.8798 95.476 -45.226C95.1578 -45.7805 94.4713 -46.051 94.2272 -46.7899L94.2643 -46.8123ZM233.683 166.661C233.965 167.128 234.677 167.275 234.774 167.993C234.234 167.715 233.842 167.237 233.683 166.661ZM49.9017 118.793C50.2604 118.577 50.7694 118.721 49.7844 119.687C49.8488 119.431 49.4441 119.068 49.9017 118.793ZM11.0072 72.2714C11.2742 72.5457 11.6718 72.7571 11.5019 73.3412C11.3241 73.2286 11.1844 73.07 11.0974 72.8818C11.0104 72.6937 10.9793 72.4828 11.0072 72.2714ZM121.751 -19.5024C120.986 -21.0469 120.973 -20.7901 121.264 -20.95C122.094 -19.3822 122.113 -19.6578 121.772 -19.4681L121.751 -19.5024ZM218.992 188.859C218.637 188.607 218.141 188.485 218.076 187.763C218.321 187.858 218.534 188.011 218.697 188.208C218.86 188.404 218.968 188.64 219.012 188.893L218.992 188.859ZM159.969 158.888C160.264 158.959 160.2 160.303 159.187 158.209C159.853 158.165 159.585 158.839 159.989 158.922L159.969 158.888ZM131.251 3.53126C131.043 3.39427 130.871 3.21515 130.744 3.00525C130.617 2.79536 130.539 2.55928 130.514 2.31194C131.183 2.60874 131.099 3.14074 131.251 3.53126ZM124.582 -16.3263C123.404 -18.275 123.521 -18.0813 123.608 -18.1334C124.806 -16.1505 124.718 -16.4082 124.582 -16.3263ZM202.785 183.62C203.261 184.017 203.878 184.034 203.802 184.717C203.653 184.247 203.004 184.234 202.785 183.62ZM206.301 202.252C206.301 202.252 206.357 202.094 206.408 202.094C206.976 202.001 206.854 202.665 207.2 202.845C206.904 202.635 206.405 202.702 206.326 202.237L206.301 202.252ZM35.888 5.15793C35.8054 5.02118 36.5516 1.6498 35.888 5.15793V5.15793ZM168.648 73.9268C168.332 73.6822 168.946 73.2191 169.204 73.841C169.286 73.9777 169.383 74.1373 169.148 74.2788C168.913 74.4203 168.801 74.068 168.636 73.9343L168.648 73.9268ZM167.796 206.679C168.222 206.686 168.166 207.124 168.369 207.375C167.406 207.317 167.448 206.717 167.796 206.679ZM107.22 -52.9821C106.453 -52.7999 106.712 -54.0748 105.459 -54.3616C106.745 -54.8566 106.77 -52.6951 107.22 -52.9821ZM209.992 155.794C210.302 156.307 210.778 156.704 211.071 157.274C210.778 157.133 210.528 156.926 210.341 156.669C210.154 156.412 210.034 156.113 209.992 155.794ZM52.8973 146.054C53.1915 145.955 53.561 146.929 53.4128 147.298C52.7792 146.25 52.6278 146.139 52.8973 146.054ZM173.285 67.8086C173.208 68.0725 172.718 68.0719 172.731 67.2559C173.002 67.3414 173.445 67.2924 173.285 67.8086ZM164.985 59.6575C165.455 59.3745 164.943 58.8901 165.309 58.5759C165.548 59.3337 165.548 59.3337 164.985 59.6575ZM132.303 -5.02899C132.22 -5.58515 131.22 -5.6204 131.47 -6.4079L132.303 -5.02899ZM133.277 -2.94231C133.022 -3.36395 133.071 -3.95296 132.594 -4.24054C132.979 -3.88198 133.377 -3.53089 133.242 -2.88976L133.277 -2.94231ZM202.998 141.821C202.18 141.723 202.312 140.881 201.825 140.522C202.253 140.922 202.646 141.356 202.998 141.821ZM108.667 -51.817C107.286 -52.1201 106.182 -54.393 108.667 -51.817V-51.817ZM18.9678 10.2955L18.7216 11.7027C18.5449 10.9077 18.5449 10.9076 18.9885 10.3297L18.9678 10.2955ZM82.7865 -2.65992C82.7193 -2.46403 81.8425 -3.27277 82.0427 -3.89068C82.6847 -2.66083 83.0746 -3.29972 82.8071 -2.62573L82.7865 -2.65992ZM144.386 19.5424C144.712 19.8653 144.915 20.2883 144.963 20.749C144.778 20.6158 144.631 20.4403 144.534 20.2367C144.438 20.033 144.394 19.8069 144.406 19.5766L144.386 19.5424ZM207.54 189.786C208.373 189.658 208.127 190.226 208.278 190.617L207.54 189.786ZM154.669 156.344L155.557 157.255C154.96 157.272 154.862 156.803 154.69 156.378L154.669 156.344ZM11.7255 29.1581C11.7499 28.7238 11.2022 28.4319 11.5524 27.8946C11.4346 28.3697 11.9822 28.6616 11.7255 29.1581ZM173.396 146.295C172.883 146.06 172.976 145.6 172.79 145.293C172.98 145.389 173.14 145.528 173.259 145.7C173.377 145.872 173.45 146.071 173.471 146.281L173.396 146.295ZM187.852 192.549L188.589 193.769C187.889 193.056 187.889 193.056 187.928 192.535L187.852 192.549ZM180.758 157.11L182.05 158.523C181.741 158.398 181.467 158.209 181.249 157.967C181.03 157.726 180.872 157.439 180.784 157.125L180.758 157.11ZM126.035 -15.9584L126.68 -14.668C126.451 -14.7919 126.268 -14.9795 126.153 -15.2083C126.039 -15.4371 125.998 -15.6975 126.035 -15.9584ZM10.714 71.9816C10.1954 71.7655 10.3008 71.2979 10.1905 70.9758C10.3672 71.0738 10.5116 71.2157 10.6097 71.3879C10.7079 71.5601 10.7566 71.7569 10.7511 71.9593L10.714 71.9816ZM131.06 1.06605C131.274 1.41932 131.88 1.61356 131.716 2.31868L131.06 1.06605ZM198.273 176.016C198.008 175.772 197.558 175.669 197.716 175.093C197.874 175.495 198.413 175.465 198.331 176.028L198.273 176.016ZM162.344 200.449C163.074 200.01 162.761 201.753 162.387 200.827C162.294 200.728 162.028 200.624 162.344 200.449ZM147.987 27.6788C148.14 27.7617 148.251 27.8993 148.297 28.0642C148.344 28.2291 148.323 28.4093 148.238 28.5689C148.06 28.3028 147.627 28.1441 147.987 27.6788ZM88.9347 204.29C88.7522 204.208 88.6089 204.066 88.5289 203.888C88.4489 203.71 88.437 203.506 88.4952 203.311C88.8392 203.601 89.0525 203.815 88.9347 204.29ZM51.791 145.368C51.628 145.291 51.4935 145.17 51.4024 145.019C51.3113 144.868 51.2671 144.693 51.2745 144.513C51.3726 144.527 51.4651 144.561 51.5457 144.613C51.6263 144.665 51.6933 144.734 51.7421 144.815C51.791 144.895 51.8206 144.987 51.8291 145.082C51.8375 145.177 51.8245 145.275 51.791 145.368ZM51.544 121.985C51.6182 121.94 51.797 121.957 51.9304 121.954C51.6388 123.342 51.3998 122.165 51.544 121.985ZM114.299 -30.7444C114.122 -30.8001 113.972 -30.9087 113.868 -31.0551C113.764 -31.2015 113.713 -31.3786 113.721 -31.5618C114.016 -31.631 113.882 -31.7985 114.299 -30.7444ZM203.747 143.172C203.321 142.847 203.038 142.379 202.949 141.851C203.313 142.315 203.732 142.56 203.747 143.172ZM182.038 192.336C181.799 192.107 182.41 191.723 182.619 192.126C182.829 192.528 182.357 192.641 182.038 192.336ZM167.854 136.623C167.606 136.492 168.489 136.334 168.702 137.076L167.854 136.623ZM150.481 217.696C150.302 217.633 150.147 217.522 150.035 217.376C149.923 217.23 149.857 217.053 149.845 216.866C150.037 216.91 150.204 217.016 150.319 217.166C150.434 217.316 150.491 217.502 150.481 217.696ZM5.63392 63.2126C5.87217 63.5186 6.07307 63.851 6.23307 64.204C5.43588 63.192 5.46075 63.3169 5.63392 63.2126ZM10.9308 49.0031C10.2692 48.8575 10.662 48.279 10.3523 48.0458C10.6738 48.2706 10.8815 48.6144 10.9308 49.0031ZM184.155 173.311C183.425 173.331 183.771 172.843 183.59 172.377C184.662 172.866 184.04 173.567 184.176 173.345L184.155 173.311ZM12.0887 74.3401C12.3944 74.5844 12.6002 74.9249 12.674 75.3088C12.297 74.9919 11.865 74.8634 12.0887 74.3401ZM177.531 52.1956C177.635 51.9774 178.24 52.1414 177.849 53.0297C177.757 52.6812 177.381 52.5344 177.568 52.1733L177.531 52.1956ZM157.472 195.068C157.259 194.714 157.747 194.545 157.93 194.792C157.968 194.814 157.999 194.846 158.019 194.884C158.039 194.922 158.049 194.965 158.047 195.009C158.045 195.053 158.031 195.096 158.007 195.135C157.983 195.174 157.949 195.208 157.909 195.232C157.869 195.256 157.824 195.27 157.778 195.273C157.732 195.276 157.687 195.268 157.647 195.249C157.607 195.231 157.574 195.202 157.549 195.166C157.525 195.131 157.512 195.089 157.51 195.045L157.472 195.068ZM156.784 193.928C156.64 193.16 157.362 193.657 157.015 193.975C156.952 193.982 156.769 194.015 156.748 193.981L156.784 193.928ZM75.2004 -33.0787C75.0817 -33.4425 74.5975 -33.6017 74.5117 -34.2183L75.2004 -33.0787ZM156.119 193.302C155.988 193.086 156.521 192.656 156.626 192.997C156.731 193.338 156.177 193.594 156.09 193.366L156.119 193.302ZM101.363 -32.3579C100.917 -32.5092 100.803 -32.7822 100.669 -33.3388C101.067 -32.9877 101.403 -32.879 101.363 -32.3579ZM117.108 -30.3683C117.453 -30.0479 117.731 -29.8112 117.538 -29.3217C117.526 -29.7034 117 -29.8214 117.108 -30.3683ZM205.263 200.981C205.05 200.627 204.758 200.648 204.862 200.15C205.106 200.329 205.412 200.362 205.263 200.981ZM167.594 136.08C167.46 135.991 167.35 135.876 167.268 135.74C167.186 135.605 167.135 135.453 167.118 135.294C167.27 135.545 167.842 135.542 167.594 136.08ZM24.9104 68.562C25.0581 68.6495 25.1734 68.778 25.2425 68.9321C25.3117 69.0861 25.3318 69.2592 25.3004 69.4307C25.1608 69.3356 25.0517 69.2057 24.9834 69.0536C24.9151 68.9015 24.89 68.7322 24.9104 68.562ZM169.666 77.2305C168.788 77.8992 169.262 75.9196 169.707 77.0193C169.733 77.0346 169.828 77.164 169.694 77.2762L169.666 77.2305ZM108.711 -44.8492C109.76 -45.1234 109.592 -43.6702 109.68 -43.9717C108.741 -44.883 108.823 -45.0258 108.738 -44.8036L108.711 -44.8492ZM187.404 177.432C187.769 177.476 187.659 177.853 187.804 178.093C187.078 177.924 187.077 177.365 187.404 177.432ZM10.4728 39.0051C11.1614 40.1447 11.1063 40.0535 11.0005 40.1017C10.2911 38.9279 10.3243 39.0945 10.4728 39.0051ZM153.085 221.055C153.039 221.425 152.571 221.489 152.5 220.645C152.811 220.769 153.12 220.723 153.085 221.055ZM35.8812 5.14656C36.1606 5.4135 36.4352 5.03048 36.8066 5.08663C36.0798 5.72637 35.7487 6.12776 35.9004 5.15047L35.8812 5.14656ZM187.134 175.03C187.703 175.107 187.801 175.436 187.664 175.907C187.77 175.859 187.097 175.472 187.109 175.045L187.134 175.03ZM96.808 -44.334C96.65 -44.417 96.5195 -44.5391 96.4291 -44.6887C96.3387 -44.8383 96.2914 -45.0104 96.2915 -45.1887C96.2891 -44.8298 97.0536 -44.9326 96.808 -44.334ZM200.55 179.308C200.592 179.127 201.004 179.221 201.058 179.981C200.667 179.781 200.463 179.64 200.55 179.308ZM96.3261 -46.3597C95.8517 -46.3072 95.6988 -46.5881 95.5498 -47.0579C95.9667 -46.8427 96.2831 -46.7379 96.3261 -46.3597ZM55.1143 128.088C55.1292 127.862 55.8912 127.978 55.5549 128.538C55.3759 128.381 55.083 128.371 55.1143 128.088ZM158.593 196.336C158.435 196.073 158.73 195.864 159.014 196.082C159.297 196.3 158.731 196.563 158.593 196.336ZM118.235 -26.4931C118.079 -26.026 118.79 -26.0499 118.758 -25.627C117.888 -25.8954 118.049 -26.3814 118.235 -26.4931ZM166.143 133.736C166.081 133.634 166.006 133.508 166.18 133.434C166.906 133.044 166.397 134.128 166.098 133.717L166.143 133.736ZM12.7344 35.6848C12.8159 36.0709 12.9275 36.2835 12.6445 36.6248C12.5631 36.4832 12.5282 36.3188 12.5441 36.1518C12.5601 35.9848 12.6262 35.8225 12.7344 35.6848ZM135.543 10.6611L136.001 11.6134C135.497 11.4503 135.688 11.18 135.543 10.6611ZM192.103 183.197C191.757 183.406 191.59 182.823 191.842 182.764C191.904 182.727 191.978 182.713 192.046 182.728C192.115 182.742 192.173 182.782 192.208 182.839C192.242 182.897 192.251 182.967 192.231 183.034C192.212 183.101 192.166 183.16 192.103 183.197ZM9.7552 70.2276C9.58992 69.9541 9.28448 69.8116 9.30754 69.4868C9.53874 69.674 9.82774 69.8731 9.7552 70.2276ZM209.471 158.393C209.183 158.085 209.998 157.563 209.876 158.366C209.667 158.523 209.546 158.518 209.471 158.393ZM173.586 72.3832C173.826 73.0314 173.017 72.7258 173.374 72.2C173.429 72.2911 173.52 72.3297 173.549 72.4055L173.586 72.3832ZM183.007 171.718C183.378 171.494 183.59 172.097 183.53 172.584L183.007 171.718ZM57.1261 151.963C57.4782 152.015 57.5375 152.197 57.3385 152.565C57.121 152.401 56.9298 152.252 57.1261 151.963ZM187.15 177.01C186.799 176.848 186.262 176.798 186.64 176.167L187.15 177.01ZM61.9888 160.567C62.0134 160.413 61.2985 160.626 61.5125 160.031C61.6411 160.062 61.7547 160.129 61.8393 160.225C61.9239 160.32 61.9759 160.439 61.9888 160.567ZM86.2008 201.273C86.342 201.333 86.4492 201.446 86.4997 201.587C86.5502 201.728 86.5399 201.886 86.4711 202.028C86.3966 201.793 85.9042 201.732 86.2008 201.273ZM156.122 153.277C156.205 153.414 155.978 153.458 155.879 153.517C155.317 153.871 155.394 152.659 156.122 153.277ZM23.9542 70.9719C23.5373 70.7566 23.5109 70.4617 23.4033 70.0602C23.7033 70.3614 23.9964 70.5113 23.9542 70.9719ZM198.131 189.375C197.775 189.372 197.78 189.073 197.565 188.83C198.359 188.803 198.464 189.423 198.131 189.375ZM143.46 17.8151C143.596 17.8897 143.695 18.0125 143.737 18.1596C143.779 18.3066 143.761 18.4674 143.688 18.6106C143.594 18.3717 143.156 18.2621 143.46 17.8151ZM47.2898 -25.302C47.1657 -25.6469 46.9662 -25.8376 47.1074 -26.218C47.4157 -26.0151 47.3073 -25.7477 47.2761 -25.3248L47.2898 -25.302ZM188.483 196.552C188.571 196.391 188.927 196.394 188.828 197.122C188.676 196.872 188.288 196.872 188.47 196.53L188.483 196.552ZM168.471 221.753C169.318 221.647 168.659 222.51 168.379 221.964C168.371 221.922 168.464 221.741 168.471 221.753ZM26.6411 76.3948C26.4758 76.1213 26.6708 75.9417 27.041 76.2472C27.4113 76.5527 26.8821 76.7937 26.6411 76.3948ZM102.216 35.5481C102.138 35.5328 102.066 35.5007 102.006 35.4541C101.945 35.4074 101.897 35.3475 101.865 35.2787C101.833 35.2098 101.818 35.1339 101.821 35.0564C101.825 34.9789 101.846 34.9019 101.884 34.8311L102.216 35.5481ZM148.493 238.943L149.114 239.58C148.837 239.513 148.309 239.505 148.493 238.943ZM200.451 179.088L200.106 178.518C200.453 178.589 200.566 178.832 200.389 179.125L200.451 179.088ZM176.606 151.077L176.001 150.244C176.196 150.287 176.36 150.401 176.461 150.563C176.562 150.724 176.592 150.922 176.544 151.114L176.606 151.077ZM12.8661 45.2265C12.8796 44.9697 12.5386 45.0196 12.5148 44.6453C12.757 44.7948 12.9167 44.9474 12.8661 45.2265ZM203.773 201.614C204.138 202.218 203.044 201.804 203.432 201.524C203.63 201.405 203.711 201.511 203.773 201.614ZM182.703 171.466C182.579 171.54 182.414 171.546 182.382 171.41C182.18 170.49 183.403 171.09 182.703 171.466ZM157.661 45.5563C157.761 45.3872 158.219 45.3912 157.97 46.0691C157.941 45.8535 157.478 45.8683 157.661 45.5563ZM31.4257 79.7618C31.5704 80.0012 31.0619 80.4161 31.105 79.4265C31.2225 79.5285 31.3298 79.6406 31.4257 79.7618ZM171.778 211.508C171.564 211.295 171.972 210.909 172.152 211.485C172.133 211.524 172.105 211.559 172.069 211.585C172.033 211.611 171.991 211.627 171.947 211.633C171.904 211.638 171.861 211.632 171.822 211.616C171.783 211.599 171.751 211.572 171.728 211.538L171.778 211.508ZM15.6853 53.9114C15.6678 53.9383 15.644 53.9612 15.616 53.9781C15.588 53.9949 15.5566 54.0053 15.5245 54.0083C14.8481 54.0892 15.6585 53.1971 15.6853 53.9114ZM199.576 190.51L198.832 190.088C199.361 189.987 199.552 190.136 199.59 190.533L199.576 190.51ZM65.0452 -49.6872C65.1658 -50.1017 64.5262 -50.3227 64.9574 -50.8933C64.9796 -50.689 65.3698 -49.6805 65.059 -49.6644L65.0452 -49.6872ZM72.9671 -37.3604C72.6698 -37.6011 72.958 -38.2408 73.3275 -37.2665C73.1611 -37.2907 73.0469 -37.2842 72.9809 -37.3376L72.9671 -37.3604ZM148.724 107.063C148.705 106.779 148.239 106.733 148.409 106.289C148.539 106.372 148.64 106.491 148.698 106.633C148.757 106.774 148.771 106.931 148.738 107.085L148.724 107.063ZM142.811 14.1179C142.921 14.3002 143.212 14.3897 143.149 14.6763C142.893 14.504 142.945 14.6745 142.825 14.1407L142.811 14.1179ZM125.439 -14.1537C125.947 -13.7601 125.009 -13.4131 125.102 -14.2927C125.218 -14.255 125.331 -14.2086 125.439 -14.1537ZM138.542 6.52353C138.839 6.48457 138.84 6.76415 138.726 7.05031C138.472 6.79871 138.207 6.55456 138.592 6.49371L138.542 6.52353ZM159.151 124.595C158.994 124.492 158.863 124.357 158.767 124.198C158.67 124.039 158.612 123.86 158.594 123.672L159.151 124.595ZM144.344 35.8875C144.604 36.1505 143.917 36.409 143.926 35.6421C144.098 35.6913 144.263 35.7586 144.418 35.8429L144.344 35.8875ZM184.804 64.5091C185.496 64.092 184.895 65.5263 184.581 64.783C184.728 64.6633 184.791 64.5166 184.878 64.4644L184.804 64.5091ZM171.621 181.045C172.054 180.785 172.039 181.959 171.573 181.245C171.659 181.163 171.646 181.03 171.696 181.001L171.621 181.045ZM170.522 77.8653C170.276 77.9047 170.039 78.2653 169.813 77.9195L169.73 77.7828C170.185 77.4467 170.432 78.1063 170.522 77.8653ZM119.365 -23.7853C119.475 -23.7009 119.553 -23.5853 119.591 -23.4532C119.629 -23.3211 119.624 -23.1783 119.578 -23.0429C119.287 -23.2722 119.119 -23.4663 119.365 -23.7853ZM118.595 -24.2228C118.416 -24.3395 118.29 -24.5164 118.24 -24.7222C118.189 -24.928 118.218 -25.1495 118.32 -25.3475L118.595 -24.2228ZM119.55 -16.2495C119.367 -16.2171 119.137 -16.5139 119.343 -16.5914C119.886 -16.8096 119.745 -16.2894 119.55 -16.2495ZM122.833 -10.9838C122.719 -11.0626 122.624 -11.1636 122.553 -11.281C122.482 -11.3984 122.437 -11.5297 122.42 -11.6676C122.749 -11.5702 122.811 -11.3278 122.833 -10.9838ZM203.105 195.317C203.121 195.51 202.759 195.525 202.574 194.829C202.933 195.032 203.119 195.06 203.105 195.317ZM167.21 134.804L166.607 134.141C167.018 134.095 167.155 134.293 167.247 134.781L167.21 134.804ZM115.56 -24.2759C115.367 -24.595 115.095 -24.7108 115.119 -25.0053C115.448 -24.9079 115.478 -24.6621 115.56 -24.2759ZM178.611 152.636C178.289 152.83 178.194 152.561 178.165 152.205L178.611 152.636ZM42.9684 127.335C42.9411 127.569 42.3455 127.338 42.9475 127.022C42.9601 127.13 42.9587 127.24 42.9436 127.35L42.9684 127.335ZM119.937 -18.8759C120.044 -18.7889 120.128 -18.6789 120.183 -18.5537C120.238 -18.4285 120.263 -18.2912 120.256 -18.1514C120.043 -18.3649 119.788 -18.5069 119.937 -18.8759ZM202.884 118.155C202.687 118.025 203.269 117.535 203.272 118.295C203.135 118.267 203.005 118.22 202.884 118.155ZM15.5682 80.4048C15.828 80.2484 15.7542 80.7125 15.8368 80.8493C15.5478 80.6503 15.3579 80.5314 15.5682 80.4048ZM148.558 27.117C148.842 27.1951 148.946 27.3963 149.088 27.8547C148.823 27.6824 148.635 27.4213 148.558 27.117ZM167.398 58.7945C167.301 58.465 167.807 58.5487 167.723 58.941C167.69 58.9557 167.655 58.9635 167.62 58.9639C167.585 58.9643 167.551 58.9573 167.52 58.9433C167.489 58.9293 167.462 58.9088 167.441 58.8831C167.42 58.8573 167.405 58.8272 167.398 58.7945ZM52.4731 122.824C52.0064 122.359 53.277 122.34 52.5764 122.995C52.6437 122.939 52.546 122.889 52.4731 122.824ZM76.3022 -42.6172L76.8169 -43.5799C76.8316 -42.5785 76.1743 -42.6334 76.3022 -42.6172ZM107.847 213.838C107.83 213.615 108.335 213.668 108.395 214.27C108.124 214.184 107.855 214.159 107.847 213.838ZM55.0611 122.836C55.5166 123.199 55.0645 123.455 54.9762 123.198L55.0611 122.836ZM5.69115 41.5892C5.33304 40.9966 5.37435 41.065 5.44168 41.0089C5.85335 41.5226 5.8161 41.4051 5.6636 41.5436L5.69115 41.5892ZM105.503 -45.8862C105.618 -45.8313 105.719 -45.7528 105.798 -45.6557C105.877 -45.5587 105.933 -45.4453 105.961 -45.323C105.817 -45.3518 105.69 -45.4277 105.602 -45.5382C105.513 -45.6487 105.469 -45.7874 105.475 -45.9318L105.503 -45.8862ZM116.225 -28.2828L116.639 -27.599C116.551 -27.6121 116.469 -27.6429 116.398 -27.6895C116.326 -27.7361 116.267 -27.7974 116.223 -27.8694C116.18 -27.9415 116.153 -28.0226 116.145 -28.1076C116.137 -28.1926 116.148 -28.2794 116.177 -28.3626L116.225 -28.2828ZM117.83 -25.6276C117.541 -25.8266 117.555 -26.0834 117.629 -26.4077C117.732 -26.315 117.799 -26.1912 117.822 -26.0539C117.844 -25.9166 117.82 -25.7729 117.753 -25.6434L117.83 -25.6276ZM38.742 93.0128C38.9663 93.1886 38.2105 93.6127 38.4367 92.8703C38.5181 92.9038 38.5946 92.9463 38.665 92.997L38.742 93.0128ZM9.85876 43.991C10.3133 44.7431 10.2651 44.6634 10.1346 44.7265C9.61677 43.9813 9.64165 44.1063 9.78178 43.9752L9.85876 43.991ZM22.7764 64.6402L23.0832 64.8129C23.0863 65.153 22.7701 65.188 22.6994 64.6244L22.7764 64.6402ZM84.7451 -50.0017C84.6609 -50.0557 84.5994 -50.136 84.5698 -50.2304C84.5401 -50.3247 84.5441 -50.428 84.581 -50.5246C84.5716 -50.3168 85.0364 -50.3014 84.7451 -50.0017ZM149.459 26.6526C149.328 26.4361 149.85 26.0439 149.764 26.9349C149.65 26.8532 149.548 26.7585 149.459 26.6526ZM18.3965 13.8724C18.6051 13.436 18.6517 13.2059 18.9408 13.5447C18.8737 13.8804 19.0428 13.8252 18.3896 13.861L18.3965 13.8724ZM149.182 215.992C149.579 216.063 149.563 216.259 149.388 216.333C149.214 216.407 149.117 216.248 149.182 215.992ZM167.689 221.493C167.399 221.264 167.92 220.981 168.069 221.171C168.217 221.362 167.911 221.608 167.713 221.448L167.689 221.493ZM150.718 188.022C151.349 187.642 151.046 188.928 150.732 188.324C150.693 188.177 150.575 188.092 150.741 187.977L150.718 188.022ZM160.309 65.4882C160.286 65.4489 160.28 65.401 160.293 65.355C160.306 65.3091 160.338 65.2689 160.381 65.2432C160.423 65.2175 160.474 65.2085 160.52 65.2181C160.567 65.2277 160.607 65.2552 160.631 65.2945C160.729 65.3445 160.524 65.8717 160.333 65.443L160.309 65.4882ZM202.695 183.332C202.944 183.493 202.442 183.779 202.222 183.135C202.391 183.176 202.556 183.227 202.718 183.287L202.695 183.332ZM145.156 18.4723C145.624 19.2472 145.569 19.1561 145.569 19.1561C145.101 18.3811 145.156 18.4723 145.156 18.4723ZM158.165 195.599C158.13 195.402 158.075 195.451 158.437 195.435C158.401 195.627 158.456 195.579 158.229 195.622L158.165 195.599ZM139.341 8.12505C138.88 7.36154 138.935 7.45268 139.009 7.40798C139.511 8.20963 139.493 8.09612 139.381 8.16315L139.341 8.12505ZM136.151 2.11955C136.261 2.16986 136.351 2.25005 136.412 2.35084C136.473 2.45163 136.502 2.56894 136.495 2.68933C136.144 2.52756 135.861 2.30971 136.191 2.15768L136.151 2.11955ZM178.348 191.45C178.568 191.395 178.521 191.345 178.609 191.883C178.541 191.908 178.66 192.023 178.388 191.488L178.348 191.45ZM133.913 -1.58408C133.479 -2.44181 133.486 -2.29059 133.666 -2.38348C134.098 -1.55598 134.079 -1.69974 133.913 -1.58408ZM155.608 152.204C155.656 152.673 155.012 152.92 155.093 152.607C155.174 152.294 155.864 152.236 155.608 152.204ZM158.611 157.452C158.377 157.064 158.919 157.096 158.906 157.632C158.768 157.544 158.653 157.52 158.618 157.463L158.611 157.452ZM130.66 -7.5523C130.345 -7.82347 130.126 -8.18431 130.033 -8.58931C130.37 -8.33574 130.592 -7.96785 130.66 -7.5523ZM172.151 178.069C171.856 177.888 172.269 177.873 172.663 177.884C172.464 178.113 172.505 178.181 172.13 178.034L172.151 178.069ZM205.376 227.631C205.364 227.918 205.5 227.836 205.005 227.855C205.205 227.516 205.127 227.61 205.355 227.597L205.376 227.631ZM193.065 200.757C193.198 200.771 193.317 200.833 193.398 200.931C193.479 201.029 193.517 201.156 193.503 201.286C193.383 201.031 192.892 201.14 193.045 200.722L193.065 200.757ZM162.014 131.342C161.679 131.234 161.629 130.984 161.553 130.579C161.686 130.652 161.795 130.757 161.872 130.884C161.949 131.011 161.991 131.157 161.993 131.308L162.014 131.342ZM182.261 164.846L182.626 165.45C182.386 165.331 182.145 165.211 182.266 164.797L182.261 164.846ZM108.039 -50.9573C107.878 -50.8604 107.679 -51.0511 107.651 -51.3763C108.076 -51.2592 108.414 -51.09 108.039 -50.9573ZM215.18 179.202C215.452 179.038 215.338 179.464 215.421 179.601C215.125 179.39 214.982 179.321 215.18 179.202ZM148.578 107.881C148.661 108.018 148.242 108.302 148.195 108.112C148.148 107.923 148.216 107.478 148.578 107.881ZM111.283 -52.2891C111.681 -52.2176 111.714 -51.9112 111.837 -51.5965C111.689 -51.6556 111.562 -51.7496 111.465 -51.8703C111.369 -51.991 111.306 -52.1348 111.283 -52.2891ZM150.351 110.062C150.776 110.039 150.723 110.258 150.579 110.438C150.407 110.293 150.449 110.391 150.401 110.032L150.351 110.062ZM103 -41.597C103.396 -41.8353 103.542 -41.5658 103.655 -41.1832C103.362 -41.3331 103.058 -41.3055 102.999 -41.6272L103 -41.597ZM139.53 91.4299C139.304 90.8045 139.234 90.9399 139.433 90.851C139.771 91.4094 139.765 91.2884 139.481 91.4597L139.53 91.4299ZM189.234 71.3379L189.324 71.486C188.361 71.8478 188.912 70.8325 189.185 71.3676L189.234 71.3379ZM65.5755 -48.8097C64.8947 -48.9593 64.8462 -50.6864 65.5755 -48.8097V-48.8097ZM168.11 138.582C167.919 138.433 167.728 138.284 167.895 137.919L168.11 138.582ZM207.235 203.322C207.152 203.185 207.09 203.083 207.622 203.182C207.797 203.527 207.455 203.547 207.185 203.352L207.235 203.322ZM216.164 105.822C216.361 105.812 216.584 105.958 216.343 106.118C216.103 106.279 215.782 105.943 216.115 105.852L216.164 105.822ZM79.9301 -8.44712C80.0193 -8.37031 80.0877 -8.27374 80.1302 -8.16473C80.1728 -8.05572 80.1883 -7.93713 80.1756 -7.81778C79.9527 -7.96332 79.7806 -8.10839 79.8807 -8.41735L79.9301 -8.44712ZM138.06 -30.1467L137.439 -30.6433C137.817 -30.7156 137.886 -30.4618 138.01 -30.1169L138.06 -30.1467ZM112.528 -33.5635C112.263 -33.6679 112.188 -33.9028 112.122 -34.2359C112.367 -34.0259 112.635 -34.0009 112.479 -33.5337L112.528 -33.5635ZM49.8731 140.212C49.6325 140.233 49.701 139.928 49.5479 139.507C49.7434 139.747 50.1344 140.226 49.8237 140.242L49.8731 140.212ZM145.633 101.697C145.84 101.759 145.924 101.926 145.957 102.232C145.852 102.19 145.762 102.121 145.696 102.033C145.63 101.944 145.592 101.838 145.584 101.726L145.633 101.697ZM170.791 143.325C170.848 143.318 170.906 143.324 170.959 143.342C171.012 143.36 171.058 143.39 171.095 143.429C171.133 143.469 171.159 143.517 171.172 143.57C171.185 143.622 171.186 143.678 171.172 143.733C170.665 143.479 170.777 143.582 170.729 143.363L170.791 143.325ZM190.351 170.109C190.225 170.045 190.121 169.949 190.05 169.831C189.979 169.713 189.942 169.577 189.945 169.436C190.092 169.736 190.259 169.9 190.227 170.183L190.351 170.109ZM171.917 182.763C172.086 182.848 172.064 182.783 172.034 182.957C171.711 182.981 171.733 183.045 171.807 182.861L171.917 182.763ZM172.318 183.734C172.531 183.388 172.673 183.427 172.64 183.54C172.576 184.076 172.365 183.923 172.208 183.831L172.318 183.734ZM172.334 226.219C172.175 225.957 172.574 225.499 172.638 226.471C172.493 226.436 172.354 226.384 172.224 226.316L172.334 226.219ZM142.703 96.2337C142.923 96.3188 142.889 96.5414 142.985 96.701C142.887 96.6856 142.796 96.6445 142.722 96.582C142.649 96.5195 142.596 96.438 142.568 96.3459L142.703 96.2337ZM150.232 111.315C150.007 111.279 150.079 111.314 150.007 111.14C150.104 111.299 150.079 111.314 150.097 111.427L150.232 111.315ZM200.179 191.452C200 191.156 200.51 190.771 200.442 191.496C200.199 191.596 200.052 191.576 200.052 191.576L200.179 191.452ZM167.748 220.556C167.447 220.924 167.246 220.983 167.362 220.338L167.748 220.556ZM120.331 -21.8801C120.1 -21.9275 120.159 -22.165 120.282 -22.3793C120.537 -22.0975 120.718 -21.7709 120.331 -21.8801ZM162.138 68.459C162.063 68.3336 162.083 67.9484 162.2 68.1421C162.317 68.3359 162.221 68.5957 162.138 68.459ZM154.081 53.6183C154.454 53.8445 154.336 54.04 153.927 53.8663L154.081 53.6183ZM145.943 39.7896C146.104 39.6928 146.364 39.6761 146.101 40.0517C145.839 40.4272 145.716 39.9728 145.943 39.7896ZM129.046 -7.54382C128.953 -7.89224 129.305 -7.70023 129.425 -7.58582C129.545 -7.47142 129.102 -7.28262 129.018 -7.58941L129.046 -7.54382ZM133.854 0.161086C133.965 0.0940449 134.277 0.10809 134.447 0.332508C134.011 0.39292 133.594 0.457296 133.826 0.115497L133.854 0.161086ZM175.651 149.693C175.782 149.91 175.25 149.671 175.383 149.249L175.651 149.693ZM142.926 34.7983C142.816 34.6159 143.011 34.2965 143.249 34.495C143.487 34.6936 143.114 34.9964 142.926 34.7983ZM126.986 233.616C126.855 233.399 127.468 233.325 127.462 233.594C127.455 233.862 127.301 233.97 126.993 233.627L126.986 233.616ZM26.4393 71.0919C26.6398 70.8934 26.9149 70.9298 26.5839 71.3312C26.2529 71.7326 26.2387 71.2904 26.4462 71.1033L26.4393 71.0919ZM117.477 -27.7466C117.358 -27.8 117.26 -27.8863 117.194 -27.9954C117.128 -28.1044 117.097 -28.2317 117.106 -28.362C117.231 -28.3168 117.336 -28.2323 117.403 -28.1213C117.47 -28.0104 117.496 -27.8789 117.477 -27.7466ZM118.214 -26.5273C117.389 -26.9162 117.868 -28.1059 118.214 -26.5273V-26.5273ZM141.179 11.6967L140.957 11.162C141.145 11.3601 141.425 11.3777 141.192 11.6892L141.179 11.6967ZM238.621 172.935C238.12 172.553 239.471 172.75 238.939 173.07C238.855 173.041 238.773 173.007 238.693 172.97L238.621 172.935ZM24.8287 68.0361C24.9664 68.2641 24.5282 68.6834 24.4325 67.855C24.6856 67.9668 24.8066 67.9717 24.8287 68.0361ZM27.9122 74.0596C27.6068 73.9171 27.6452 73.7852 27.74 73.7747C27.8349 73.7642 27.9656 73.8409 27.9122 74.0596ZM137.529 5.09769C137.405 4.89257 137.722 4.46843 137.802 5.10391C137.68 5.20864 137.572 5.19631 137.529 5.09769ZM40.4346 97.0139C40.2349 96.6834 40.5868 96.456 40.6189 97.0117C40.5364 97.0148 40.4291 97.0328 40.4346 97.0139ZM239.408 173.456C238.954 173.263 239.482 172.852 239.737 173.693C239.638 173.601 239.528 173.522 239.408 173.456ZM6.90426 41.8378C6.65801 41.7374 6.44059 41.5731 6.66324 41.439C6.88588 41.3049 6.92057 41.6415 6.90426 41.8378ZM207.195 189.326C207.043 189.215 207.043 189.075 207.519 189.053C207.507 189.2 207.496 189.518 207.195 189.326ZM48.3334 111.033C48.3334 111.033 48.4998 111.057 48.57 111.062C48.8085 111.68 47.8687 111.158 48.3334 111.033ZM77.0013 -27.9771C77.2761 -28.2203 77.5011 -27.3455 76.9493 -27.7282C76.9643 -27.815 76.9463 -27.9285 77.0013 -27.9771ZM57.432 127.205C57.308 127 57.6695 126.845 57.6947 127.249C57.5531 127.35 57.4802 127.285 57.432 127.205ZM59.1595 130.455C59.1358 130.081 59.5554 130.217 59.7106 129.999C59.5924 130.054 59.1751 130.927 59.1595 130.455ZM172.134 142.672C171.779 142.28 171.563 142.146 171.719 141.818L172.134 142.672ZM75.226 -32.115C75.4504 -31.9392 75.6169 -31.7753 75.4467 -31.4707C75.7094 -31.4269 74.9736 -31.5278 75.2398 -32.0922L75.226 -32.115ZM172.347 142.746C172.617 142.941 172.542 142.846 172.595 143.156C172.252 143.036 172.275 143.1 172.361 142.769L172.347 142.746ZM160.48 128.692C160.672 128.871 160.88 129.103 160.6 129.086C160.319 129.068 160.324 128.909 160.444 128.744L160.48 128.692ZM197.27 204.783C197.27 204.783 197.219 204.923 197.175 204.934C196.745 205.115 196.706 204.268 197.235 204.836L197.27 204.783ZM17.8282 78.1425C18.1166 77.7823 18.2 78.7578 17.8132 78.369C17.7459 78.4251 17.6908 78.3339 17.7884 78.2441L17.8282 78.1425ZM0.924263 55.0288C0.668455 54.9963 0.658615 54.7846 0.593688 54.4818C0.697052 54.5324 0.782347 54.61 0.84052 54.7062C0.898693 54.8025 0.927597 54.9139 0.924263 55.0288ZM198.963 171.295C198.996 171.042 199.124 171.198 199.201 171.354C199.278 171.509 198.867 171.555 198.936 171.249L198.963 171.295ZM99.1287 -50.4876C99.3142 -50.5993 99.4766 -50.5261 99.632 -50.4643C99.4714 -50.2277 98.9198 -50.3307 99.1287 -50.4876ZM4.41634 61.2258C4.24023 61.1298 4.27606 61.217 4.23728 60.9295C4.39694 61.0821 4.368 61.0062 4.41634 61.2258ZM238.956 152.497L239.418 153.26C239.003 153.105 238.944 152.924 238.956 152.497ZM52.45 144.225C52.3054 143.986 52.668 143.581 52.7416 144.345C52.6618 144.269 52.5531 144.256 52.45 144.225ZM219.79 147.889C220.022 148.076 219.961 148.004 219.99 148.219C219.868 148.045 219.928 148.117 219.84 147.859L219.79 147.889ZM138.293 -27.443C138.043 -27.6342 138.059 -27.8305 138.266 -28.1574C138.455 -27.7892 138.468 -27.6569 138.293 -27.443ZM128.711 -3.51893L128.89 -3.22264C128.89 -3.22264 128.537 -3.16529 128.711 -3.51893ZM72.8353 -38.5555C72.6565 -38.5722 72.4035 -38.5442 72.5421 -38.8453C72.6807 -39.1463 72.747 -38.8133 72.8353 -38.5555ZM42.0391 7.96638C42.1995 7.45014 43.4355 7.23428 42.0391 7.96638V7.96638ZM172.939 136.188C172.42 135.694 172.047 135.075 171.851 134.387C172.645 135.339 172.912 135.753 172.939 136.188ZM86.0844 -0.915584C85.742 -0.89592 85.4257 -0.860905 85.3043 -1.28516C85.6371 -1.2369 85.9713 -1.2982 86.0844 -0.915584ZM86.2262 0.631004C86.357 0.847524 85.8993 0.983334 86.0831 0.561762C86.1423 0.603846 86.1918 0.574037 86.2331 0.642415L86.2262 0.631004Z" fill="#01FC99"/>
</svg>
