<svg width="1101" height="919" viewBox="0 0 1101 919" fill="none" xmlns="http://www.w3.org/2000/svg">
<path d="M1549.95 491.741C1547.39 493.246 1546.22 489.367 1543.92 489.15C1475.8 483.222 1439.92 483.861 1426.28 480.633C1443.65 475.304 1441.47 472.746 1511.22 481.509C1515.64 482.037 1520.96 478.649 1523.91 484.922C1524.61 481.454 1528.06 479.842 1525.98 476.002C1525.88 475.631 1525.88 475.237 1525.99 474.873C1526.11 474.509 1526.32 474.194 1526.6 473.968C1526.89 473.742 1527.23 473.616 1527.59 473.609C1527.94 473.601 1528.29 473.712 1528.59 473.925C1529.2 474.374 1529.88 474.682 1530.6 474.831C1531.32 474.979 1532.06 474.964 1532.76 474.786C1533.47 474.608 1534.13 474.271 1534.71 473.798C1535.29 473.324 1535.76 472.725 1536.11 472.036C1537.07 470.299 1539.87 472.007 1540.98 470.957C1543.06 468.842 1545.62 467.358 1548.41 466.652C1551.2 465.946 1554.12 466.043 1556.89 466.933C1549.34 460.788 1530.88 463.004 1530.55 458.037C1530.33 456.16 1532.21 458.331 1532.88 457.405C1533.45 455.08 1531.76 455.071 1530.45 454.452C1529.93 454.243 1529.48 453.884 1529.13 453.415C1528.79 452.946 1528.57 452.386 1528.5 451.796C1528.43 451.205 1528.51 450.609 1528.74 450.071C1528.96 449.534 1529.32 449.078 1529.77 448.752C1544.94 440.656 1566.25 457.56 1567.03 446.044C1567.23 443.34 1569.13 442.9 1570.7 441.866C1527.2 426.427 1524.94 437.062 1530.09 423.4C1533.1 415.353 1539.72 418.507 1545.84 416.996C1545.02 416.602 1523.3 413.285 1529.57 412.956C1535.83 412.627 1537.14 405.56 1542.15 403.407C1555.6 399.145 1570.06 399.892 1583.23 405.529C1572.61 393.195 1549.29 400.576 1549.19 395.864C1549.22 393.323 1552.66 393.827 1559.13 393.614C1558.28 391.883 1555.61 394.037 1555.85 391.681C1556.09 389.325 1567.92 393.193 1582.25 392.25C1580.91 385.359 1584.93 387.98 1591.13 386.6C1600.5 384.419 1495.86 380.335 1462.01 373.891C1471.57 375 1613.62 380.517 1563.53 375.811C1336.77 355.568 1522.93 372.291 1420.09 358.684C1419.83 356.459 1429.3 355.746 1409.18 353.789C1399.97 352.919 1391.23 348.257 1381.81 350.021C1381.19 350.033 1380.58 349.897 1380.01 349.625C1379.44 349.352 1378.92 348.949 1378.51 348.444C1393.78 348.374 1392.98 349.316 1391.71 346.859C1391.64 346.233 1392.17 345.817 1392.25 345.948C1395.16 351.241 1397 345.379 1399.43 345.086C1426.67 347.247 1438.96 343.445 1479.29 354.612C1492.73 358.287 1500.24 362.957 1501 360.54C1501.75 358.122 1491.26 357.9 1485.94 351.981C1503.27 347.926 1538.74 358.689 1540.45 357.214C1545.21 352.906 1545.47 352.876 1552.1 353.984C1566.09 356.254 1557.3 352.302 1558.09 349.669C1564.38 347.856 1577.31 350.536 1578.1 345.152C1578.89 339.768 1589.09 345.737 1589.62 342.006C1593.51 313.335 1387.34 310.436 1393.05 301.077C1396.16 296.05 1395.89 292.628 1398.05 295.541C1401.99 300.78 1404.99 282.158 1394.75 276.406C1401.98 274.339 1409.84 279.248 1417.58 275.428C1425.32 271.609 1435.18 276.913 1443.05 275.263C1438.22 272.882 1363.27 269.747 1340.62 254.696C1341.01 254.484 1341.43 254.358 1341.86 254.327C1342.29 254.295 1342.73 254.358 1343.14 254.513C1343.55 254.667 1343.94 254.91 1344.26 255.226C1344.59 255.542 1344.86 255.924 1345.04 256.352C1351.29 252.162 1358.78 250.588 1366.1 251.921C1361.01 250.304 1355.84 248.993 1350.62 247.997C1358.09 225.947 1381.88 256.656 1377.64 240.594C1376.21 235.125 1381.42 239.577 1387.03 241.441C1390.07 242.416 1385.1 248.724 1383.38 250.129C1389.47 253.207 1390.2 252.836 1394.07 246.519C1397.94 240.203 1401.72 247.435 1405.15 246.741C1405.89 244.185 1398.19 242.853 1395.23 233.829C1392.82 226.08 1373.83 224.41 1365.53 220.188C1373.3 216.083 1344.92 201.508 1348.52 196.211C1349.12 195.222 1348.15 187.582 1351.96 189.593C1356.96 192.306 1358.22 187.572 1360.6 185.665C1359.47 183.826 1357.78 183.818 1356.4 183.137C1349.97 179.89 1355.96 176.139 1352.13 173.425C1348.3 170.712 1351.62 169.115 1352.71 168.984C1359.55 168.586 1357.32 155.808 1363.55 158.94L1363.93 158.894C1367.77 153.99 1375.91 160.135 1377.39 157.278C1376.22 155.091 1369.85 156.703 1371.66 152.818C1374.41 146.918 1365.28 142.797 1293.45 124.763C1294.87 122.477 1296.76 123.66 1298.14 122.649C1297.6 121.374 1295.13 121.952 1295.54 119.929C1295.95 117.905 1303.2 120.419 1300.96 115.189C1297.8 107.741 1317.5 113.204 1311.59 125.9C1314.35 127.261 1332 109.982 1293.69 100.477C1291.89 100.059 1289.88 100.159 1288.76 97.8257C1289.37 96.9068 1305.04 95.8716 1283.1 93.9219C1283.69 96.1777 1286.05 95.2594 1287.64 97.1141C1276.42 97.4021 1281.74 97.822 1274.35 89.1901C1264.33 90.815 1268.84 84.4214 1279.8 90.7918C1275 82.6247 1253.34 86.9165 1304.62 80.7623C1300.01 73.136 511.344 125.967 510.31 126.021C511.094 125.504 837.888 78.0361 502.182 121.073C48.7702 179.222 948.012 47.7568 905.473 81.6307C903.402 83.36 900.73 82.2 898.629 82.029C894.386 81.3394 891.006 84.6361 886.834 83.4445C885.366 83.127 885.85 89.4147 888.942 88.6206C899.836 87.172 910.826 86.5837 921.826 86.8602C922.361 91.3793 860.123 90.6687 860.386 95.0795C869.769 95.3775 879.15 94.9821 888.462 93.8961C893.654 93.273 894.091 102.458 896.224 92.4713C896.784 97.199 899.968 97.7332 902.861 97.4565C905.754 97.1799 903.359 95.07 903.69 93.4789C906.116 100.239 955.321 93.5587 956.163 91.3422C948.688 89.7009 941.346 92.4858 933.592 91.7945C941.483 79.9181 1361.92 65.0017 1117 68.7272C1120.51 70.4206 1124.37 68.9706 1129.07 70.2397C1125.61 71.7829 1070.03 77.3247 1062.35 71.1954C1088.63 68.0414 1077.77 70.1911 1082.04 72.7809C1083.78 70.5006 1086.12 68.85 1088.76 68.0429C1091.4 67.2358 1094.22 67.3092 1096.85 68.2539C1097.04 69.853 1094.56 69.2336 1094.82 70.8945C1102.35 72.4585 1108.18 66.7533 1115.5 66.5098C1116.27 66.4174 1226.49 57.8438 1229.29 56.8024C1228.03 48.8455 924.714 87.6421 915.283 73.3317C912.826 69.6073 1294.6 43.8883 1295.96 41.1159C1242.99 20.9597 1179.16 43.0048 1174.06 33.4626C1223.74 27.5007 1267.18 32.5121 1267.08 28.3641C1008.67 21.9329 389.528 77.2654 140.648 143.094C131.253 145.561 142.284 148.679 140.111 156.132C130.453 189.868 149.177 158.57 148.727 173.996C148.563 180.291 110.971 178.527 158.647 180.35C171.723 180.967 172.033 177.545 183.152 175.365C268.245 158.807 276.219 168.497 276.203 163.422C276.201 152.422 294.926 152.432 307.684 151.465C310.184 151.165 315.271 160.638 319.465 153.224C320.007 152.313 360.215 149.815 360.992 149.792C353.508 155.767 137.112 186.813 132.516 201.255C170.632 193.72 182.152 181.196 197.55 191.547C196.837 192.256 195.981 192.778 195.048 193.073C194.114 193.368 193.127 193.429 192.161 193.251C188.343 192.299 188.948 196.316 187.639 197.883C186.329 199.451 188.767 199.723 189.587 200.611C201.49 213.285 136.526 212.056 153.192 222.677C152.816 225.543 149.316 223.989 149.164 226.546C150.584 229.76 194.71 226.861 195.95 228.546C197.19 230.23 194.18 236.656 192.064 236.91C178.539 238.533 173.912 243.39 173.946 235.982C173.261 238.466 171.947 240.682 170.149 242.38C168.352 244.079 166.143 245.192 163.771 245.594C154.96 247.497 165.054 250.939 163.507 253.24C160.618 257.395 140.823 253.847 144.061 261.427C146.742 267.592 143.199 265.126 127.705 270.441C122.452 272.199 128.372 276.072 128.471 276.906C131.585 286.193 124.949 278.457 118.781 285.12C130.32 283.736 131.886 282.138 130.833 289.174C129.781 296.211 135.983 287.64 138.438 293.55C139.706 296.571 142.213 290.841 143.948 294.511C144.739 296.249 144.466 298.891 143.393 299.161C140.198 300.179 144.019 304.444 140.998 304.736C112.847 307.48 113.238 309.689 141.27 307.03C159.652 305.247 165.181 301.975 162.585 307.504C155.385 322.471 205.416 302.999 206.147 311.373C206.921 317.908 195.46 310.611 189.19 318.062C188.392 319.004 188.469 320.757 186.673 320.409C183.818 319.905 183.695 324.362 187.646 324.241C218.921 323.167 226.833 318.057 223.284 323.771C221.769 326.351 221.222 328.32 225.324 327.828C232.696 326.943 227.499 336.31 232.698 335.193C232.483 333.385 229.196 333.075 230.831 330.411C233.614 325.916 288.976 327.311 200.943 344.292C195.599 345.286 196.145 337.817 200.268 338.591C205.834 339.475 200.24 332.319 198.71 335.323C197.181 338.327 193.548 337.846 190.858 338.733C191.204 341.653 195.72 337.515 196.079 342.196C196.438 346.878 191.13 343.777 186.139 349.947C182.347 354.703 177.304 349.456 175.225 358.801C177.629 356.045 180.92 357.483 183.698 356.233C185.243 355.554 185.376 357.231 185.644 358.397C186.745 364.4 178.931 362.094 172.301 367.05C173.501 368.951 178.637 365.654 176.883 371.153C176.263 373.061 181.947 370.546 180.743 375.203C180.33 376.663 154.672 384.537 189.639 377.309C194.013 376.361 197.106 378.88 198.414 384.435C200.673 394.176 173.262 397.677 173.971 401.471C174.68 405.264 192.592 394.018 194.381 397.047C196.455 401.382 202.796 398.928 203.976 404.498C203.976 404.498 205.107 404.715 205.194 404.352C207.589 398.776 212.358 401.165 215.862 401.661C220.955 402.39 228.795 395.033 228.65 402.595C228.774 403.638 230.184 403.468 231.137 403.283C234.086 402.929 228.415 398.956 231.641 397.652C232.534 397.145 233.528 396.875 234.543 396.863C235.558 396.851 236.566 397.099 237.484 397.586C246.171 404.511 250.973 391.807 265.973 397.693C269.793 399.209 277.19 393.597 277.937 396.609C279.303 402.651 239.757 409.088 240.15 411.862C240.543 414.635 333.594 392.257 334.394 391.879C341.542 388.553 338.294 398.462 341.902 395.985C347.435 391.654 355.975 395.142 349.58 398.236C329.123 408.307 399.645 387.292 402.467 392.453C403.458 394.238 80.2146 480.484 82.317 488.905C85.4095 501.297 226.422 446.368 290.35 433.902C333.296 425.434 304.254 430.541 300.171 437.236C374.989 421.206 182.9 473.59 171.137 477.47C146.097 485.622 139.869 496.171 132.106 497.596C124.343 499.021 127.501 509.219 120.751 511.51C119.148 511.703 118.034 514.375 115.694 514.374C114.476 514.52 113.001 514.697 113.577 516.813C115.053 522.136 112.523 512.85 148.924 510.597C152.385 510.182 152.743 514.299 149.845 515.634C142.089 519.315 120.983 524.457 109.889 534.532C105.995 537.89 95.0205 529.758 73.0693 549.174C68.5927 553.096 65.1849 550.12 56.7772 558.18C65.2899 558.146 87.1719 547.482 78.9466 554.886C77.0683 556.592 71.4568 556.419 71.929 558.76C72.4012 561.1 347.051 479.558 432.105 470.902C442.105 469.702 352.098 491.433 351.799 490.553C350.073 484.766 345.183 489.584 351.498 491.858C321.654 504.465 241.354 513.184 538.334 464.289C674.173 441.994 617.798 460.041 651.23 449.189C652.576 449.028 654.808 447.561 655.996 450.451C657.183 453.34 656.5 447.57 658.883 448.482C661.267 449.395 748.94 440.354 749.509 440.216C756.695 438.86 754.562 443.911 751.161 443.19C746.565 442.261 673.751 453.256 673.007 453.557L672.231 454.143C668.798 450.959 666.718 454.805 664.1 455.754C657.805 457.496 657.179 452.213 656.727 456.075C656.723 456.316 656.653 456.549 656.524 456.743C656.395 456.937 656.214 457.083 656.004 457.162C655.795 457.241 655.568 457.248 655.352 457.183C655.136 457.119 654.943 456.985 654.797 456.8C654.212 451.864 651.374 454.249 649.091 454.734C645.63 455.15 641.135 453.433 641.69 456.469C642.244 459.505 648.465 454.386 651.04 457.462C644.201 459.279 637.276 460.722 630.292 461.785C631.754 457.661 625.802 459.01 626.776 455.156C623.7 455.525 627.312 459.675 623.556 460.901C622.915 460.978 622.146 461.071 622.039 460.167C621.792 458.081 624.423 458.894 624.755 457.302C622.483 453.485 617.77 458.705 610.915 458.47C610.082 458.57 609.184 458.677 609.324 459.859C609.621 462.362 613.172 459.962 617.673 461.184C599.531 465.547 580.814 465.607 561.47 470.256C571.737 461.972 578.069 467.136 578.29 463.513C578.656 457.264 563.395 462.903 548.675 467.067C473.346 486.472 319.974 502.903 313.577 513.12C312.316 514.429 310.742 515.334 309.026 515.739C307.309 516.144 305.515 516.033 303.837 515.417C298.79 513.977 299.82 517.732 298.751 516.944C289.11 509.639 264.518 525.424 258.281 527.653C238.152 535.004 326.947 515.675 329.974 517.075C333 518.475 336.922 511.517 332.775 513.284C331.942 513.384 304.826 516.638 346.018 508.169C424.781 492.512 584.024 466.915 501.631 488.155C499.195 488.447 483.562 479.958 487.535 489.353C489.069 492.976 485.484 489.599 485.183 490.904C483.389 492.195 481.282 492.901 479.11 492.936C476.938 492.972 474.791 492.337 472.92 491.107C470.968 490.001 472.424 494.057 470.373 494.303C279.788 514.918 353.497 518.624 377.396 509.621C380.823 508.364 382.781 511.725 377.775 512.819C147.5 560.62 249.237 545.168 245.719 550.596C245.177 551.507 249.847 553.062 249.323 549.74C248.8 546.419 251.767 546.768 251.958 548.931C252.149 551.094 254.062 550.23 255.216 550.091C260.537 549.453 255.347 545.703 258.697 545.442C259.466 545.35 260.812 545.189 260.735 546.185C259.881 552.704 265.458 546.535 266.81 550.815C242.692 554.132 -20.6967 637.99 1.35193 655.088C3.07144 656.433 3.82177 660.573 7.39804 658.381C31.6644 643.693 192.011 593.919 192.845 593.819C195.109 592.631 194.663 595.999 195.868 596.841C197.806 596.185 195.382 592.739 198.438 593.289C198.131 595.089 200.534 597.268 197.918 598.781C133.075 636.46 260.076 581.802 347.929 568.792C410.288 559.545 638.965 518.564 998.962 491.792C1512.91 453.455 1432.07 484.027 1418.43 481.363C1408.59 479.512 1307.04 482.251 1303.87 480.233C1306.33 479.021 1309.25 480.081 1312.25 477.958C1305.4 476.785 1298.42 477.843 1292.2 480.999C1280.32 490.533 1323.56 459.819 915.097 508.837C894.535 487.824 352.751 577.662 351.981 577.754C338.135 579.416 344.664 585.684 341.488 585.218C333.366 584.712 328.012 590.008 328.371 584.254C330.363 584.881 332.465 584.922 334.458 584.373C336.451 583.823 338.262 582.704 339.703 581.131C326.434 582.723 322.634 582.474 323.576 586.592C323.889 589.234 316.488 588.219 316.31 585.067C313.769 586.671 310.958 587.727 308.031 588.176C309.024 590.524 311.349 588.2 312.678 590.086C305.576 592.701 294.685 593.514 306.55 588.847C300.538 586.395 299.731 592.204 296.301 595.083C368.503 588.252 664.828 532.736 690.299 539.199C689.374 535.784 686.344 538.193 685.485 535.334C695.801 535.154 705.651 532.138 715.896 532.46C719.488 532.593 723.811 533.414 725.985 528.711C725.095 529.895 723.809 530.651 722.398 530.82C720.988 530.99 719.562 530.559 718.42 529.619C722.431 527.798 742.461 530.048 742.877 529.716C754.507 527.663 766.26 526.417 778.063 525.987C773.899 532.551 700.851 532.785 695.4 537.811C700.324 540.957 767.938 533.266 778.536 533.828C804.713 535.27 705.725 540.45 702.36 546.072C704.415 546.953 819.456 533.5 822.853 538.029C823.179 538.387 823.614 538.604 824.074 538.64C824.534 538.676 824.987 538.527 825.346 538.223C826.375 528.792 1204.38 499.788 1090.28 514.115C997.191 525.709 912.398 525.026 906.592 531.998C911.673 534.28 939.469 530.732 878.379 538.064C891.791 533.281 934.026 528.142 870.888 534.097C684.245 550.811 499.206 582.184 317.228 627.969C321.237 628.334 324.957 631.201 329.384 629.049C332.153 627.729 335.335 627.7 336.181 631.547C336.37 633.146 336.873 632.451 337.425 632.173C339.906 630.606 342.795 631.952 345.374 631.219C341.336 631.704 338.021 635.557 333.259 632.673C331.219 631.367 333.767 633.67 333.448 634.272C330.907 636.975 327.807 632.2 327.337 633.173C326.867 634.146 222.953 655.924 219.932 656.216C236.82 642.907 245.531 647.291 244.355 642.849C244.132 640.972 241.641 641.341 240.232 642.074C216.672 654.491 192.85 654.811 176.112 669.935C170.987 673.154 165.23 675.051 159.28 675.481C167.015 678.219 254.01 651.915 255.002 651.513C261.182 648.797 262.327 653.525 287.593 648.378C295.652 646.706 280.447 652.268 279.16 653.48C303.535 647.946 300.749 649.126 297.864 646.722C295.49 651.379 289.762 644.733 297.864 646.722C301.368 644.468 300.045 647.024 299.466 648.716C302.993 648.857 304.128 642.515 308.481 645.236C307.731 646.596 305.916 645.544 304.75 646.671C312.301 649.502 311.106 638.857 315.242 641.393C343.468 660.147 578.78 582.408 215.765 674.837C210.911 676.125 168.323 691.46 157.835 685.244C155.948 684.131 149.519 689.133 156.186 691.083C173.355 696.074 194.617 689.503 167.007 696.271C137.884 703.433 222.622 688.822 265.775 684.842C260.126 686.563 254.602 688.71 249.242 691.268C250.086 691.802 446.109 659.463 545.973 650.159C759.149 630.358 231.503 688.602 151.772 712.555C151.879 713.459 587.218 656.42 630.96 656.319C26.1357 835.304 494.695 670.626 535.113 691.866C550.705 700.007 218.031 774.692 195.027 790.709C408.589 740.119 768.045 681.329 1036.91 666.268C1038.07 666.129 1055.84 671.824 1063.83 668.467C1065.05 668.321 1068.3 669.412 1071.27 670.395C1060.63 679.921 817.388 685.702 805.308 701.184C804.797 701.809 804.164 701.956 803.642 701.384C799.096 695.936 773.239 709.827 827.741 700.113C833.534 709.501 1263.29 666.813 1313.83 667.023C1321.31 667.042 1348.13 661.849 1355.09 662.424C1393.17 665.541 1441.84 641.155 1446.48 645.746C1455.38 635.299 1477.49 644.703 1479.29 626.366C1475.34 625.993 1471.55 628.564 1467.55 627.141C1467.31 625.124 1477.88 618.85 1449.2 629.766C1448.85 626.846 1452.6 628.3 1455.1 624.686C1466.92 606.979 1509.02 597.978 1429.64 617.235C1379.08 629.437 1387.97 624.421 1404.08 621.007C1395.16 621.608 1386.38 623.516 1377.97 626.679C1374.42 628.585 1361.59 626.177 1369.03 624.79C1477.83 604.683 1442.91 605.206 1460.7 593.976C1460.47 592.099 1457.87 594.315 1457.7 591.727C1474.04 582.01 1491.31 591.712 1493.53 584.113C1493.98 582.437 1503.17 585.917 1511.48 581.959C1496.67 582.113 1494.13 582.63 1493.88 579.911C1493.62 577.192 1495.11 578.281 1496.38 577.988C1497.65 577.696 1496.15 576.042 1496.52 574.799C1501.67 547.951 1442.48 565.912 1418.1 560.94C1421.54 558.13 1477.36 551.855 1524.43 561.789C1532.3 563.454 1529.25 550.846 1530.13 550.035C1533.53 546.947 1521.28 548.841 1520.09 546.515C1509.34 525.453 1333.17 528.896 1567.92 533.724C1523.39 522.78 1490.55 525.451 1485.96 522.406C1487.72 520.784 1498.33 523.037 1492.01 518.577C1488.12 515.872 1414.17 509.656 1406.49 510.085C1343.26 513.089 1427.98 503.274 1438.16 493.732C1437.32 492.071 1434.5 492.479 1433.95 490.501C1440.44 487.183 1493.44 488.368 1504.29 493.201C1504.66 491.463 1502.22 492.25 1502.33 489.84C1510.1 491.798 1518.13 489.354 1525.82 493.297C1527 494 1529.05 491.498 1531.37 491.855C1565.33 495.888 1551.71 490.683 1549.95 491.741ZM1440.22 516.049C1430.96 514.129 1443.04 514.019 1445.22 515.449C1443.6 516.561 1441.76 515.301 1440.22 516.049ZM357.796 395.699C361.953 391.815 361.619 397.778 357.796 395.699C355.835 398.896 353.383 394.113 354.68 393.534C355.976 392.956 356.616 395.065 357.796 395.699ZM434.567 626.227C430.589 625.576 431.93 631.409 427.259 627.104C426.319 626.3 424.881 627.883 423.345 626.446C427.305 626.394 430.243 622.656 434.216 624.365C437.75 621.262 449.118 621.731 446.979 622.34C442.736 623.837 437.433 630.114 434.592 626.436L434.567 626.227ZM406.496 714.21C409.044 712.406 412.149 711.731 415.18 712.322C415.643 711.844 482.332 697.988 406.545 714.628L406.496 714.21ZM1269.54 486.751C1268.57 485.174 1265.95 487.181 1265.26 484.161C1271.67 483.391 1275.57 483.911 1269.39 486.627C1263.68 493.306 1256.22 489.054 1249.46 489.02C1279.43 483.589 1236.3 487.707 1224.38 490.83C1225.76 487.069 1255.28 482.186 1269.54 486.751ZM410.261 618.074C414.03 615.858 540.036 591.782 549.843 595.541C549.124 596.05 414.948 619.767 410.253 618.004L410.261 618.074ZM1112.4 496.653C1111.95 496.707 942.751 511.23 942.933 510.573C935.049 511.52 942.206 513.763 939.887 515.593C896.014 504.711 1110.34 495.702 1112.39 496.583L1112.4 496.653ZM1390.4 301.748C1388.46 305.648 1385.23 303.638 1382.42 303.551C1375.91 303.417 1370.69 304.959 1368.78 298.137C1367.59 293.556 1352.45 290.366 1348.52 287.947C1352.31 294.12 1387.71 308.135 1355.81 301.175C1340.07 297.776 1352.1 291.818 1342.91 280.582C1341.54 278.913 1337.75 278.733 1338.6 276.092C1339.07 275.05 1409.43 263.714 1390.39 301.678L1390.4 301.748ZM1196.51 578.86C1195.68 578.96 810.707 619.94 808.388 611.334C807.779 616.625 807.22 614.648 784.473 615.262C732.078 616.966 1191.56 576.563 1196.52 578.929L1196.51 578.86ZM398.383 148.76C398.967 153.696 380.876 151.354 380.606 154.56C380.335 157.765 382.971 154.77 383.828 157.064C258.323 172.196 221.224 179.539 398.391 148.829L398.383 148.76ZM1296.58 491.685C1292.74 492.146 1288.81 489.232 1285.04 490.319C1279.52 491.436 1273.83 491.352 1268.3 490.072C1271.77 486.906 1276.42 489.944 1278.84 486.269C1277.62 484.723 1275.06 487.287 1274.44 484.258C1275.38 483.934 1389.81 484.022 1296.58 491.685ZM930.649 514.445C926.596 510.419 839.238 525.415 836.602 517.975C940.152 507.946 932.056 508.212 930.633 514.306L930.649 514.445ZM1422.42 487.089C1392.96 488.65 1363.84 493.062 1334.41 494.901C1363.01 486.76 1392.78 484.07 1422.41 486.95L1422.42 487.089ZM263.394 176.594C262.561 176.694 199.991 190.196 199.538 186.372C199.086 182.548 308.394 165.694 263.394 176.594ZM614.238 539.794C639.193 534.66 664.539 531.807 690.009 531.266C664.888 533.787 639.829 538.486 614.374 539.849L614.238 539.794ZM1233.47 102.487C1210.06 106.324 1186.39 108.292 1162.65 108.376C1186.11 104.99 1209.75 103.024 1233.47 102.487ZM1195.99 489.866C1193.29 493.433 1176.32 492.861 1174 492.504C1162.73 489.625 1167.35 496.757 1158.42 494.374C1147.85 491.835 1131.35 497.975 1128.06 497.101C1122.02 495.568 1074.9 492.903 1195.99 489.866ZM1331.85 234.949C1329.83 229.409 1357.74 233.957 1349.53 239.878C1346.59 241.993 1352.28 249.349 1346.38 247.307C1340.85 244.243 1335.91 240.044 1331.85 234.949ZM1422.33 513.19C1422.56 515.137 1350.99 514.7 1351.12 511.934C1374.85 510.938 1398.63 511.426 1422.35 513.398L1422.33 513.19ZM1389.7 567.029C1370.4 570.216 1350.87 571.664 1331.31 571.356C1350.81 570.848 1369.81 563.844 1389.66 567.245L1389.7 567.029ZM797.099 525.324C796.329 525.417 782.291 527.102 782.098 524.375C781.604 520.203 780.379 525.779 830.583 518.203C832.506 517.973 833.566 518.692 832.862 521.526C832.157 524.361 834.357 517.68 797.068 525.61L797.099 525.324ZM219.165 651.936C216.062 654.282 214.792 658.384 210.443 659.54C190.78 664.791 192.023 664.853 191.369 663.169C190.124 659.793 209.361 656.99 219.134 652.222L219.165 651.936ZM242.532 585.177C252.42 581.291 262.716 578.682 273.209 577.406C262.925 580.05 253.397 586.341 242.501 585.463L242.532 585.177ZM1416.38 364.135C1425.89 367.014 1435.98 364.956 1445.22 367.726C1434.45 370.146 1418.38 367.844 1416.38 364.135ZM240.231 584.96C237.983 589.037 219.644 594.482 214.324 592.934L240.231 584.96ZM514.695 616.611C526.555 615.188 538.093 611.054 550.18 611.013C550.467 612.883 554.375 611.85 514.759 616.604L514.695 616.611ZM198.147 370.646C182.492 375.698 183.31 376.023 182.703 374.192C180.866 368.56 193.066 368.365 198.211 370.639L198.147 370.646ZM414.873 389.061C427.2 386.101 411.996 397.162 404.768 392.671C403.218 391.658 406.884 387.481 408.138 388.741C410.823 391.098 413.01 388.156 415.193 389.023L414.873 389.061ZM220.849 388.864C222.579 388.657 222.909 391.437 221.137 391.298C214.554 390.607 209.918 397.58 208.365 393.253C206.813 388.927 217.892 389.149 221.169 388.826L220.849 388.864ZM508.306 126.12C501.201 127.607 494.181 130.917 486.685 128.009C494.195 127.743 501.266 125.413 508.618 126.012L508.306 126.12ZM490.307 620.384C481.204 622.836 471.889 624.332 462.49 624.851C471.66 622.185 481.101 620.674 490.627 620.346L490.307 620.384ZM1259 91.3839C1277.78 89.1299 1278.52 97.5731 1274.77 96.0495C1269.4 94.9985 1264.13 93.4372 1259 91.3839ZM1166.86 86.2943C1159.19 87.9539 1151.31 88.3999 1143.48 87.6189C1169.19 84.5342 1166.31 84.3861 1166.86 86.2943ZM383.118 622.741C391.297 620.984 399.657 620.756 407.763 618.938C399.632 620.548 391.861 624.653 383.118 622.741ZM1044.31 79.1423C1044 76.5004 1041.85 76.5457 1063.22 76.873L1044.31 79.1423ZM1399.5 357.137C1405.63 355.853 1411.98 356.204 1418.02 358.158C1411.85 358.916 1405.59 358.571 1399.5 357.137ZM350.414 630.403C350.298 629.43 365.178 624.965 365.346 627.483C365.514 630.001 364.26 628.742 350.414 630.403ZM865.321 538.15C860.52 539.713 855.481 540.318 850.449 539.935C855.199 538.13 860.283 537.52 865.321 538.15ZM650.996 639.389C654.572 638.035 658.5 638.114 662.074 639.611C658.669 639.949 655.257 643.531 651.06 639.381L650.996 639.389ZM1234.56 102.356C1238.72 100.728 1242.37 102.97 1245.23 100.229C1248.09 97.4887 1247.44 108.496 1234.56 102.356ZM1331.84 495.703C1326.9 494.04 1322.21 498.974 1317.21 496.26C1321.93 494.714 1326.94 494.451 1331.82 495.495L1331.84 495.703ZM1211.29 491.766C1210.2 486.891 1210.43 493.279 1220.31 487.723C1221.51 486.874 1229.15 489.411 1211.27 491.557L1211.29 491.766ZM1404.3 364.74C1406.93 365.552 1409.58 367.632 1412.39 365.038C1412.84 364.984 1414.56 365.765 1415.66 366.267C1419.8 368.309 1403.01 369.266 1403.89 364.578L1404.3 364.74ZM1012.08 80.4009C1010.52 81.3166 1008.79 81.8512 1007.01 81.9677C1005.22 82.0842 1003.43 81.78 1001.76 81.0759C1003.26 80.0385 1004.98 79.4276 1006.77 79.299C1008.56 79.1704 1010.36 79.5282 1012.01 80.3395L1012.08 80.4009ZM599.029 644.708C600.716 643.61 602.607 642.919 604.576 642.683C606.544 642.447 608.543 642.67 610.44 643.339C606.818 644.892 602.875 645.414 598.982 644.855L599.029 644.708ZM368.554 625.476C372.21 625.602 375.633 623.217 379.644 624.145C370.254 628.304 370.254 628.304 368.554 625.476ZM1196.56 546.348C1192.65 547.945 1191.81 540.853 1194.11 542.693C1196.41 544.532 1198.22 542.2 1198.91 544.726C1199.07 546.117 1197.88 546.472 1196.37 546.371L1196.56 546.348ZM1262.77 101.791L1248.9 102.116C1253.29 100.157 1258.24 100.041 1262.77 101.791ZM442.174 474.136L433.2 475.213C434.491 474.231 435.994 473.618 437.572 473.428C439.15 473.239 440.754 473.48 442.239 474.128L442.174 474.136ZM1371.4 626.691C1371.55 627.943 1373.24 627.387 1357.67 629.257C1357.53 628.075 1355.89 628.553 1371.4 626.691ZM1434.64 373.931C1433.22 376.712 1430.94 373.459 1430.17 374.045C1429.39 374.632 1428.13 376.052 1427.87 373.828C1427.6 371.603 1435.58 371.985 1434.64 373.931ZM1304.27 497.884L1291.45 499.422C1295.54 497.846 1299.93 497.32 1304.27 497.884ZM675.804 535.932C677.15 535.77 679.076 533.917 679.157 536.798C679.346 538.397 676.741 538.358 676.227 537.856C670.693 531.75 669.219 542.363 675.82 536.071L675.804 535.932ZM447.233 469.087L438.13 470.179C441.053 469.053 443.535 465.864 447.233 469.087ZM1309.05 637.065L1297.13 638.496C1300.93 637.051 1305.01 636.562 1309.05 637.065ZM501.835 618.366C504.833 616.739 508.285 616.325 511.579 617.197C508.293 617.45 505.138 618.252 501.835 618.366ZM371.984 390.329C372.986 390.562 374.786 389.288 375.05 391.513C375.313 393.738 372.985 392.748 372.05 393.636C369.357 396.145 369.329 389.872 371.984 390.329ZM1200.51 489.111L1208.52 488.15C1206.69 493.517 1202.86 487.49 1200.51 489.111ZM774.603 439.108C773.168 439.883 771.587 440.303 769.973 440.339C768.359 440.374 766.752 440.023 765.265 439.312C768.293 438.36 771.513 438.29 774.603 439.108ZM365.023 394.69C364.333 394.35 362.838 395.446 362.456 393.87C361.222 388.942 371.603 394.253 365.023 394.69ZM329.614 589.816C326.666 590.17 324.957 592.208 321.986 590.732C324.363 589.389 326.032 587.566 329.614 589.816ZM602.585 122.351L602.395 120.751C605.663 122.545 619.704 121.425 602.585 122.351ZM874.856 536.865C872.047 538.512 868.74 538.909 865.625 537.972C868.502 536.565 871.731 536.177 874.856 536.865ZM1424.42 514.35C1427.13 512.543 1429.74 514.839 1432.44 514.586C1431.19 515.211 1429.81 515.516 1428.42 515.475C1427.03 515.434 1425.66 515.049 1424.42 514.35ZM1383.2 354.579C1380.83 354.864 1378.42 356.493 1376.15 354.368L1383.2 354.579ZM543.667 478.033C543.996 480.814 538.898 480.58 538.731 478.626C538.565 476.671 543.405 476.373 543.603 478.041L543.667 478.033ZM529.598 611.791C526.729 614.462 524.54 611.904 522.483 612.645C523.508 611.951 524.666 611.516 525.875 611.371C527.084 611.226 528.312 611.375 529.47 611.806L529.598 611.791ZM1345.16 486.842C1347.69 484.634 1350.55 485.701 1353.3 485.865L1345.16 486.842ZM1040.95 521.869C1037.49 522.848 1035.07 521.657 1032.8 522.846C1033.92 521.881 1035.27 521.278 1036.69 521.106C1038.12 520.935 1039.57 521.202 1040.88 521.877L1040.95 521.869ZM1042.87 521.638C1047.83 520.127 1047.83 520.127 1049.79 520.807C1047.56 521.663 1045.18 521.973 1042.81 521.715L1042.87 521.638ZM1025.93 496.595C1024.94 497.563 1023.69 498.17 1022.36 498.33C1021.03 498.49 1019.67 498.195 1018.49 497.487C1020.86 496.674 1023.38 496.397 1025.87 496.672L1025.93 496.595ZM274.106 388.96C275.524 383.361 278.889 385.425 278.253 387.193C277.617 388.962 275.866 387.903 274.106 388.96ZM1162.49 94.9975C1163.38 94.153 1164.53 93.6881 1165.72 93.6873C1166.92 93.6865 1168.08 94.15 1169 94.9933L1162.49 94.9975ZM551.799 592.838L557.825 592.115C554.321 594.369 554.321 594.369 551.735 592.846L551.799 592.838ZM929.586 87.0574C927.264 90.5091 922.898 88.7767 924.586 87.6575C925.283 87.104 926.105 86.7586 926.97 86.6548C927.835 86.551 928.714 86.6923 929.522 87.0651L929.586 87.0574ZM840.679 540.331C839.049 541.937 837.363 543.62 834.269 541.101L840.679 540.331ZM370.331 136.966C369.031 137.81 367.576 138.34 366.061 138.521C364.547 138.703 363.008 138.532 361.549 138.02L370.331 136.966ZM417.11 629.239C418.554 627.162 419.55 625.139 421.978 627.527C421.361 628.259 420.576 628.802 419.701 629.105C418.826 629.407 417.889 629.459 416.982 629.254L417.11 629.239ZM1336.83 486.784C1337.77 486.083 1338.88 485.695 1340.04 485.67C1341.19 485.644 1342.33 485.981 1343.31 486.64L1336.83 486.784ZM589.356 531.71C588.56 532.529 587.512 533.003 586.406 533.045C585.299 533.087 584.209 532.694 583.337 531.939C585.135 532.851 587.11 531.415 589.227 531.725L589.356 531.71ZM400.98 716.494C399.249 717.277 397.309 717.386 395.49 716.8C397.054 716.824 398.527 713.898 400.877 716.718L400.98 716.494ZM786.776 438.141C784.853 438.372 783.568 440.148 782.157 437.567C783.549 436.695 784.8 436.827 786.776 438.141ZM316.967 492.335C319.61 491.595 320.818 490.815 323.377 491.566C322.475 492.293 321.408 492.747 320.283 492.882C319.157 493.017 318.014 492.828 316.967 492.335ZM378.575 391.09C382.019 385.036 382.112 391.864 379.892 391.778C379.371 391.77 378.856 391.268 378.575 391.09ZM1409.34 557.761C1410.88 557.577 1412.13 554.959 1414.34 557.161C1413.62 557.704 1412.79 558.043 1411.92 558.148C1411.05 558.252 1410.16 558.12 1409.34 557.761ZM961.029 42.3871C959.807 46.3414 957.349 44.8028 957.699 43.9147C958.049 43.0265 959.371 42.6566 961.029 42.3871ZM322.111 512.166C320.407 515.896 317.435 513.856 318.265 512.628C319.095 511.4 320.467 512.011 322.111 512.166ZM1021.94 523.374C1021.88 522.817 1021.2 523.11 1028.31 522.256C1028.12 522.843 1028.8 522.55 1021.94 523.374ZM776.52 439.372C776.55 436.336 782.367 438.247 777.91 440.686C777.197 440.701 776.715 440.476 776.52 439.372ZM316.028 153.848L311.585 153.112C313.751 151.089 314.964 152.001 315.987 153.501L316.028 153.848ZM1147.05 96.921C1149.07 94.7051 1150.5 95.3083 1152.89 96.221C1152.01 96.7798 1151.02 97.1033 1150 97.1646C1148.98 97.2259 1147.96 97.0232 1147.01 96.5735L1147.05 96.921ZM330.713 589.755C332.193 589.084 333.229 586.844 335.502 588.475C334.103 589.51 332.372 589.895 330.688 589.547L330.713 589.755ZM834.828 522.207C834.206 520.801 833.561 519.75 834.071 518.561C834.58 517.372 837.639 519.049 834.819 522.137L834.828 522.207ZM830.886 530.648C832.345 528.146 834.268 527.915 834.732 530.186L830.886 530.648ZM664.813 538.097C666.06 537.101 666.698 535.896 667.99 536.376C669.282 536.855 668.582 538.632 664.805 538.028L664.813 538.097ZM916.758 94.026C919.333 92.1657 920.776 92.2745 922.32 93.7816L916.758 94.026ZM713.068 450.371C711.576 452.595 709.2 453.938 708.519 451.481L713.068 450.371ZM913.821 80.2058C913.615 78.4677 916.193 79.9208 916.507 80.3767C916.821 80.8326 914.163 81.9981 913.821 80.2058ZM200.461 395.683C200.716 392.338 202.466 393.397 202.455 394.95C202.431 397.491 201.819 396.718 200.461 395.683ZM456.689 625.829C453.997 626.152 452.733 627.009 450.65 624.791L456.689 625.829ZM987.498 78.6973C989.293 78.4819 988.764 81.1545 987.778 81.0613C986.792 80.9681 986.024 78.8741 987.49 78.6277L987.498 78.6973ZM449.992 467.134C451.97 469.012 451.929 468.664 449.606 469.366C448.717 469.543 447.561 469.118 449.984 467.064L449.992 467.134ZM344.974 585.011C344.702 582.717 347.387 582.324 347.559 583.784C347.732 585.244 345.161 586.047 344.966 584.942L344.974 585.011ZM1398.69 567.782C1396.46 568.685 1394.37 570.275 1394.85 568.244C1395.32 566.213 1396.66 567.673 1398.69 567.782ZM999.514 525.008C999.448 524.451 998.96 524.722 1003.9 524.129C1003.99 524.894 1004.45 524.415 999.514 525.008ZM829.373 541.477C830.176 542.227 831.679 543.386 829.611 543.493C828.834 543.516 827.525 542.897 829.373 541.477ZM589.804 126.423C589.552 126.007 589.447 125.509 589.509 125.021C589.571 124.533 589.795 124.09 590.14 123.774C590.38 124.194 590.477 124.689 590.415 125.172C590.354 125.656 590.138 126.099 589.804 126.423ZM645.886 640.707C645.77 639.734 647.94 638.839 648.193 640.43C648.447 642.022 645.682 642.283 645.886 640.707ZM997.318 81.4675C997.681 76.8407 1001.28 83.6709 998.564 82.6577C998.06 82.7887 997.721 82.1243 997.318 81.4675ZM1021.23 78.5981C1021.23 78.5981 1022.06 78.9924 1022.09 79.2705C1022.12 83.9206 1018.71 79.8173 1021.23 78.5981ZM1189.21 91.6508C1191.26 91.4047 1193.08 90.2699 1192.56 91.9536C1192.04 93.6373 1190.98 92.9183 1189.23 91.8592L1189.21 91.6508ZM935.698 333.61C936.543 331.957 936.963 330.567 938.816 330.838C938.509 332.638 938.103 333.604 935.698 333.61ZM1398.01 356.68C1396.58 359.954 1394.37 354.508 1397.13 355.799C1397.47 356.036 1397.77 356.334 1398.01 356.68ZM452.93 471.083C450.896 474.218 448.8 472.989 449.342 472.077C449.884 471.166 451.208 471.36 452.938 471.152L452.93 471.083ZM1437.04 374.983C1436.5 373.708 1438.7 373.586 1439.31 374.359C1439.92 375.132 1437.78 376.304 1437.04 374.983ZM254.114 546.275C256.743 545.959 256.935 545.936 256.32 546.786C256.163 546.952 255.969 547.073 255.757 547.138C255.545 547.204 255.32 547.212 255.102 547.161C254.885 547.111 254.681 547.004 254.508 546.849C254.336 546.695 254.201 546.497 254.114 546.275ZM537.239 478.099C538.349 481.985 536.942 480.533 536.647 478.594C536.63 478.455 537.063 478.262 537.239 478.099ZM1429.86 528.998C1431.82 527.423 1432.74 527.524 1434.15 528.483L1429.86 528.998ZM1439.71 541.918C1438.38 540.597 1438.32 539.546 1439.74 538.319C1439.97 539.771 1440.49 540.837 1439.67 542.134L1439.71 541.918ZM716.292 450.689C716.617 449.593 716.176 449.716 717.901 450.003C717.432 451.54 717.873 451.416 716.252 450.905L716.292 450.689ZM1312.8 496.296C1314.1 495.223 1314.53 494.467 1314.85 496.05C1315.16 497.634 1314.6 498.336 1312.76 496.513L1312.8 496.296ZM1310.62 496.558C1309.19 497.646 1308.1 497.847 1306.9 497.004C1307.46 496.68 1308.08 496.497 1308.72 496.469C1309.36 496.441 1309.99 496.569 1310.59 496.844L1310.62 496.558ZM350.941 581.052C350.991 581.469 352.01 581.84 352.059 582.257C352.17 584.289 347.283 582.549 350.91 581.338L350.941 581.052ZM284.719 396.783C281.603 394.618 284.845 393.453 285.001 394.774C285.158 396.095 284.782 396.211 284.688 397.068L284.719 396.783ZM683.961 535.094C683.201 538.006 681.998 537.727 680.329 537.363L683.961 535.094ZM290.375 395.681C289.819 394.831 289.676 395.271 290.482 393.835C291.558 394.693 291.701 394.252 290.278 395.41L290.375 395.681ZM227.281 322.939C226.211 321.587 226.212 322.151 227.001 320.575C228.063 321.858 227.764 320.977 227.184 322.669L227.281 322.939ZM206.087 591.454C206.947 589.377 207.752 590.69 207.305 591.308C206.858 591.926 206.513 591.756 205.99 591.184L206.087 591.454ZM1228.54 96.0267C1228.94 95.6387 1229.45 95.3959 1229.99 95.3313C1230.52 95.2666 1231.07 95.3832 1231.55 95.6652C1231.16 96.0726 1230.66 96.3281 1230.11 96.3934C1229.57 96.4586 1229.02 96.33 1228.54 96.0267ZM1174.9 93.2271C1173.62 93.381 1172.74 94.2611 1170.99 93.202C1172.58 92.8706 1173.54 92.1914 1174.9 93.2271ZM1182.41 85.2747C1181.83 85.6434 1181.17 85.8224 1180.5 85.7906C1179.82 85.7587 1179.17 85.5172 1178.62 85.0949C1180.15 84.9103 1180.87 83.8373 1182.25 85.0121L1182.41 85.2747ZM210.563 589.719C212.037 589.542 212.687 592.284 209.981 590.846L210.563 589.719ZM911.266 93.7688C912.168 92.6028 913.288 94.372 912.151 94.6495C911.013 94.927 911.284 94.4717 911.266 93.7688ZM609.634 541.546C610.671 539.87 612.198 538.488 612.3 540.45C612.403 542.412 611.142 541.647 609.634 541.546ZM1058.77 72.2594L1058.85 72.9549C1056.44 72.328 1056.46 72.5363 1058.77 72.2594ZM954.618 527.998C956.949 527.365 957.684 529.181 955.705 529.489C953.726 529.797 955.024 527.032 954.618 527.998ZM924.196 532.425C922.702 531.335 925.121 530.903 925.606 532.255L924.196 532.425ZM1010.32 523.499C1012.47 522.395 1014.13 524.381 1012.1 524.767C1011.53 524.905 1010.9 525.052 1010.32 523.499ZM990.643 525.86C992.581 525.205 993.685 524.65 994.851 525.708C993.659 526.627 992.512 526.271 990.626 525.722L990.643 525.86ZM1474.34 672.935C1477.93 675.254 1467.75 682.68 1474.4 684.491C1473.47 683.756 1466.68 693.949 1466.33 694.837C1476.24 692.872 1478.42 687.111 1481.19 690.233C1448.99 703.264 1468.61 703.096 1461.46 704.73C1441.13 709.354 1440.39 717.905 1445.5 714.895C1449.2 712.688 1453.57 714.49 1457.38 712.622C1461.19 710.755 1458.96 714.408 1459.41 715.482C1466.86 712.073 1474.56 709.31 1482.43 707.22C1484.08 714.072 1418.23 726.769 1417.46 727.356C1506.75 744.07 896.243 782.289 895.54 782.938C896.326 785.735 900.284 782.368 899.062 786.323C898.728 787.35 891.205 788.606 892.478 785.632C898.929 772.025 458.311 827.863 162.202 917.057C140.107 923.728 109.99 915.355 335.761 857.518C338.916 856.717 343.293 851.397 321.603 857.102C363.822 805.145 1473.46 672.123 1474.34 672.935ZM961.394 709.318C963.442 710.694 1167.57 697.903 1168.17 698.606C1179.18 707.015 1435.87 653.365 1445.78 654.15C1434.26 650.738 1349.75 671.668 1348.93 671.907C1314.35 681.839 960.819 709.951 961.361 709.04L961.394 709.318ZM1168.59 695.03C1176.81 691.928 1177.55 693.25 1221.02 689.795C1203.74 693.152 1186.18 694.811 1168.56 694.752L1168.59 695.03ZM784.943 704.897C781.881 702.091 728.838 716.989 731.61 711.297C733.465 707.196 722.19 718.492 710.56 716.362C712.054 714.701 714.541 715.39 716.207 712.441C619.902 723.989 524.529 742.501 430.726 767.854C433.629 768.21 664.204 724.04 687.753 723.611C697.804 723.392 687.133 727.705 694.649 726.944C695.867 726.798 697.726 726.575 696.855 724.705C695.459 721.699 697.336 722.179 698.81 722.003C858.712 701.967 784.838 704.557 784.911 704.619L784.943 704.897ZM704.731 716.004C703.349 717.365 701.704 718.378 699.91 718.971C698.115 719.564 696.216 719.723 694.345 719.436C693.569 717.273 694.38 717.528 704.723 715.934L704.731 716.004ZM685.747 720.397C682.081 721.824 679.584 723.252 677.297 719.86C680.042 718.332 682.305 719.33 685.843 720.104L685.747 720.397ZM660.532 723.776C663.07 722.695 663.07 722.695 664.829 723.824C663.501 724.689 662.031 723.807 660.627 723.482L660.532 723.776ZM658.227 54.1866C466.86 80.8184 468.594 71.3028 481.363 71.5332C491.52 71.6541 657.833 48.6634 658.492 54.2254L658.227 54.1866ZM189.31 126.889C189.433 127.932 188.738 128.65 188.023 128.101C170.11 113.539 30.6637 171.805 196.074 121.423C207.314 118.736 218.796 117.288 230.344 117.099C229.254 119.416 189.501 126.302 189.446 126.943L189.31 126.889ZM1070.72 21.6084C1067.33 21.5913 1067.45 18.6867 1070.38 18.7576C1073.31 18.8286 1127.81 13.4874 1128.26 13.4335C1343.69 -10.4442 1130.05 20.8344 1070.72 21.6084ZM306.908 100.437C311.9 107.453 344.308 86.8523 251.726 110.443C186.721 126.988 306.939 105.087 306.844 100.444L306.908 100.437ZM255.266 114.531C252.713 113.287 256.235 111.736 256.319 112.995C256.403 114.254 256.035 114.439 255.202 114.539L255.266 114.531ZM726.341 96.2878C738.437 96.3169 787.128 89.6979 790.653 94.2108C785.349 92.2384 788.404 97.7245 785.933 97.1748C782.573 96.401 779.1 96.575 775.851 97.6798C774.225 98.2274 773.264 93.4069 771.414 96.4494C769.564 99.4919 766.575 94.5622 764.555 97.2725C764.31 97.674 763.986 98.0114 763.606 98.2618C763.226 98.5123 762.799 98.6694 762.354 98.7228C761.909 98.7762 761.457 98.7245 761.029 98.571C760.602 98.4175 760.208 98.1663 759.876 97.8341C753.888 92.8411 755.131 103.339 749.613 99.5589C744.094 95.7789 734.805 101.336 733.561 100.71C731.765 99.8173 729.828 99.3225 727.865 99.2551C725.902 99.1878 723.954 99.5493 722.137 100.318C720.961 95.8757 724.264 96.3254 726.276 96.2955L726.341 96.2878ZM401.923 85.8612C398.411 88.0455 324.574 97.5412 323.617 104.284C323.976 98.5296 318.861 100.906 317.087 97.4524C350.73 94.9663 401.611 81.0334 401.818 85.5214L401.923 85.8612ZM736.175 106.319C762.639 102.407 789.326 100.24 816.089 99.8316C806.636 101.812 739.604 108.376 736.175 106.319ZM298.644 590.712C277.407 597.492 288.457 593.627 286.89 597.411C180.415 610.189 298.537 589.809 298.708 590.705L298.644 590.712ZM858.042 89.0149C857.655 85.7473 869.543 85.6603 874.237 84.6739C888.272 81.8614 887.93 90.5049 881.827 89.4745C873.149 88.1184 858.883 93.9204 858.042 89.0149ZM1532.88 457.405C1536.86 453.683 1570.56 462.684 1581.1 463.322C1579.38 466.844 1532 458.215 1532.88 457.405ZM900.399 713.605C923.963 707.816 924.604 715.425 926.901 711.765C929.199 708.104 930.984 710.005 933.246 710.439C937.633 711.252 929.385 714.075 928.657 714.515C923.066 718.359 916.107 710.098 910.901 716.646C910.51 717.187 907.559 714.227 906.919 714.868C904.058 717.608 898.027 713.89 900.399 713.605ZM719.147 100.324C719.361 104.882 706.03 99.3598 696.04 103.943C695.271 104.036 689.564 104.156 689.325 102.14C689.087 100.124 718.876 95.8437 719.13 100.185L719.147 100.324ZM1560.67 370.935C1546.89 371.934 1533.03 371.233 1519.34 368.845C1533.36 367.021 1547 370.249 1560.67 370.935ZM859.901 96.4774C833.362 99.6622 847.547 98.665 846.95 102.403C846.722 103.77 841.758 103.027 841.889 101.389C842.149 94.8002 839.763 101.01 827.299 98.4158C863.709 94.0463 859.717 93.8201 860.029 96.462L859.901 96.4774ZM1250.77 18.0516C1232.27 18.2278 1214.79 18.8447 1197.29 19.8865C1212.32 16.6729 1245.55 15.6467 1250.9 18.0362L1250.77 18.0516ZM1480.64 696.575C1474.59 700.334 1439.58 713.772 1495.26 687.135C1493.11 694.796 1485.73 693.426 1480.84 696.552L1480.64 696.575ZM812.854 93.3799C803.939 100.443 780.268 92.7072 804.338 92.2866C814.975 92.0678 823.042 85.5292 818.289 95.9008C818.041 88.3153 814.236 96.8102 813.047 93.3568L812.854 93.3799ZM455.948 77.6151C453.332 79.1278 450.295 77.0947 448.034 79.411C447.403 80.1213 445.789 79.1165 446.656 77.1086C450.038 79.3117 451.796 74.9403 454.794 75.0036C460.851 75.6873 466.95 74.9553 472.678 72.8573C476.92 70.797 473.32 78.2802 462.855 76.6451C459.743 76.1724 462.26 78.7613 461.422 79.9196C461.284 79.3364 461.021 78.7949 460.653 78.3394C460.286 77.8839 459.825 77.5279 459.309 77.3004C458.793 77.073 458.237 76.9806 457.686 77.0313C457.135 77.0821 456.605 77.2743 456.14 77.592L455.948 77.6151ZM1362.11 685.485C1344.64 689.403 1326.9 691.91 1309.04 692.983C1326.77 690.643 1344.72 688.489 1362.11 685.485ZM1163 75.6867C1175.68 73.8581 1188.46 72.866 1201.27 72.7161C1188.61 74.6825 1175.82 75.6753 1163 75.6867ZM434.697 79.8835C425.589 84.2201 404.702 85.1753 412.596 82.1126C417.752 80.0836 435.108 77.8598 434.689 79.8139L434.697 79.8835ZM1170.36 21.9203C1133.62 26.3282 1137.27 26.3843 1137.08 24.7852C1173.81 20.3773 1170.23 20.3135 1170.36 21.9203ZM582.242 463.391C575.097 462.345 597.343 458.054 598.471 459.893C600.461 462.968 589.596 464.553 582.242 463.391ZM733.134 105.344C733.903 105.252 742.735 107.365 712.008 109.219C718.697 105.314 726.051 106.476 733.134 105.344ZM262.904 630.398C263.926 626.398 267.005 629.342 269.175 628.447C289.435 619.458 285.976 625.937 284.429 626.052C273.162 626.981 262.496 635.736 263.209 630.221L262.904 630.398ZM1135.15 26.074C1089 29.4267 1097.08 28.4575 1134.9 23.9188L1135.15 26.074ZM1244.83 62.2711C1233.98 64.0829 1222.94 64.389 1211.97 63.1818C1222.52 63.89 1233.02 60.7975 1244.56 62.2323L1244.83 62.2711ZM328.353 405.649C327.555 401.655 334.315 404.933 344.832 399.863C345.258 400.608 345.532 401.441 345.634 402.306C345.737 403.17 345.665 404.045 345.424 404.869C338.037 403.429 328.761 407.997 328.345 405.579L328.353 405.649ZM1445.99 675.138C1453.8 671.874 1462.91 672.543 1468.39 663.353C1467.9 670.181 1450.31 679.767 1445.85 675.083L1445.99 675.138ZM832.927 93.7917C829.44 96.1845 827.141 88.8452 829.284 89.9277C831.428 91.0102 834.548 86.6165 835.695 89.1584C837.79 95.3236 838.543 90.1563 839.99 88.643C842.884 96.6161 833.567 93.1508 832.791 93.7374L832.927 93.7917ZM578.868 569.424C571.897 570.227 564.994 571.55 558.207 573.383C560.408 569.453 573.193 567.072 578.732 569.369L578.868 569.424ZM255.473 516.567C257.707 515.664 258.125 518.646 255.778 519.139C249.433 520.465 243.001 527.089 241.427 523.682C242.433 522.292 239.438 523.356 255.378 516.86L255.473 516.567ZM936.103 711.507C936.237 708.247 937.955 711.778 940.588 710.404C945.118 708.027 946.073 708.407 947.501 713.876C943.488 712.383 935.962 715.261 936.103 711.507ZM659.131 105.199C658.72 101.723 663.889 104.205 668.247 103.118C672.604 102.031 671.769 104.317 671.553 106.882C665.655 104.84 659.388 107.919 659.131 105.199ZM1261.53 672.242C1253.9 674.347 1246.06 675.571 1238.17 675.892C1245.54 674.444 1253.03 670.724 1261.53 672.242ZM283.043 510.015C287.824 513.601 292.466 508.884 297.838 509.227C296.048 511.134 282.642 517.608 283.043 510.015ZM184.838 181.367L163.689 185.598C170.279 182.318 177.544 180.865 184.838 181.367ZM1403.07 672.32L1423.9 667C1417.48 670.565 1410.34 672.39 1403.07 672.32ZM686.83 101.382C690.327 104.558 680.897 106.183 679.812 105.256C677.165 102.118 677.378 106.112 676.009 106.629C675.099 102.789 685.086 99.8282 686.83 101.382ZM313.053 615.214C285.395 627.065 290.239 617.458 313.053 615.214V615.214ZM658.5 54.295C662.156 51.5516 666.576 50.2268 671.057 50.5316C677.288 53.7326 658.287 55.2372 658.5 54.295ZM312.691 614.905C318.043 612.074 323.891 610.461 329.878 610.163C327.452 611.088 315.666 618.073 312.691 614.905ZM1445.73 498.324C1453.4 496.526 1461.37 496.654 1469.05 498.699C1461.38 498.209 1453.61 498.436 1445.73 498.324ZM296.759 505.055C295.252 500.018 326.476 500.713 299.941 505.026C299.145 504.345 297.665 507.767 296.887 505.04L296.759 505.055ZM688.933 50.5017C686.601 51.9061 683.98 52.6734 681.293 52.738C678.607 52.8026 675.934 52.1627 673.503 50.8729C678.63 49.9143 683.872 49.7839 689.061 50.4864L688.933 50.5017ZM1450.3 660.448C1443.1 662.229 1436.58 666.466 1428.78 665.991C1452.64 658.263 1449.95 658.655 1450.42 660.432L1450.3 660.448ZM622.202 61.2599C615.113 62.8862 607.685 61.0982 600.728 63.8369C607.682 61.468 615.018 60.5876 622.33 61.2445L622.202 61.2599ZM864.056 788.831C869.05 788.726 873.582 784.727 879.924 787.773C874.901 789.728 869.442 790.089 864.184 788.816L864.056 788.831ZM247.76 425.615C255.915 424.213 244.032 433.114 239.795 429.18C243 428.795 244.898 425.606 247.847 425.252L247.76 425.615ZM316.552 410.308C314.308 410.578 313.212 408.453 315.902 407.566C334.368 401.543 323.5 409.686 316.639 409.945L316.552 410.308ZM1474.24 684.228C1475.34 681.416 1469.14 682.302 1488.32 678.519C1489.03 678.434 1489.92 678.821 1489.83 680.806C1484.42 680.36 1479.02 681.544 1474.24 684.228ZM961.233 709.055C958.996 711.58 950.377 710.71 950.477 709.359C950.708 706.369 958.588 706.481 961.121 709.209L961.233 709.055ZM1393.19 164.408C1387.79 162.574 1382.49 160.384 1377.33 157.85C1376.87 158.892 1386.42 156.618 1393.19 164.408ZM855.254 788.619C858.708 790.884 849.926 791.938 846.361 792.577C847.32 791.02 848.688 789.812 850.293 789.105C851.898 788.398 853.668 788.224 855.382 788.603L855.254 788.619ZM186.861 600.39C185.182 601.578 178.494 598.362 194.776 596.408C192.132 599.334 189.133 598.707 186.989 600.374L186.861 600.39ZM146.959 208.477C151.78 206.08 157.144 205.193 162.454 205.912C157.086 206.698 151.984 208.085 146.767 208.5L146.959 208.477ZM1248.56 71.2721C1267.35 70.7098 1264.96 70.3611 1265.03 71.9755C1245.81 72.8003 1248.48 73.3268 1248.37 71.2952L1248.56 71.2721ZM1053.56 21.1288C1049.27 23.1602 1044.49 23.7338 1039.84 22.775L1053.56 21.1288ZM1473.21 639.789C1477.91 637.145 1481.76 633.054 1484.3 628.022C1484.04 631.141 1482.76 634.039 1480.69 636.199C1478.63 638.359 1475.9 639.639 1473.01 639.812L1473.21 639.789ZM856.928 99.3729C858.531 99.1806 862.757 102.481 853.362 102.198C848.878 103.864 845.842 101.832 856.736 99.396L856.928 99.3729ZM406.478 89.1927C420.776 85.8551 421.047 85.3995 421.478 87.3926C421.909 89.3857 406.314 90.5523 406.253 88.9378L406.478 89.1927ZM1380.21 675.769L1397.32 673.715C1392 676.362 1386 677.081 1380.21 675.769ZM162.535 404.818C162.28 402.662 180.513 396.878 165.64 405.785C164.381 405.583 162.86 406.471 162.535 404.818ZM817.894 701.507C820.264 700.658 820.761 703.207 818.232 704.357C817.696 704.774 802.296 707.045 817.894 701.507ZM290.491 631.671C291.068 631.602 292.409 632.498 291.584 632.668C288.613 633.377 291.462 637.125 290.97 636.267C289.479 633.555 275.304 635.186 290.491 631.671ZM1335.2 683.355C1329.77 685.635 1323.98 686.808 1318.13 686.815L1335.2 683.355ZM424.27 85.7178C428.45 84.4746 432.829 84.1409 437.157 84.7355C432.829 84.9728 428.429 87.8981 424.27 85.7178ZM697.546 54.6157C678.316 56.9235 692.739 55.1924 692.907 50.0248C694.053 52.5667 694.782 54.877 697.546 54.6157ZM1207.58 63.9214C1201.9 62.6981 1196.41 65.6848 1190.77 64.1757C1196.3 62.8986 1202.05 62.9304 1207.62 64.2689L1207.58 63.9214ZM1441.8 495.341C1437.76 499.139 1427.73 500.061 1432.11 496.997C1435.26 497.184 1438.01 494.667 1441.84 495.688L1441.8 495.341ZM836.621 789.938C838.737 789.684 840.44 790.89 843.204 790.629C839.782 795.764 831.304 791.704 836.621 789.938ZM1283.94 74.6418C1288.72 73.6091 1293.64 73.4475 1298.51 74.1628C1293.83 75.3275 1288.96 75.4796 1284.19 74.611L1283.94 74.6418ZM312.406 507.62L299.684 509.992C303.554 507.464 308.182 506.607 312.662 507.589L312.406 507.62ZM262.76 630.275C257.566 630.334 253.17 634.387 247.749 633.627C248.822 633.358 265.757 627.588 263.016 630.244L262.76 630.275ZM1208.53 72.55C1212.52 72.7065 1216.32 69.7112 1220.35 72.4014C1216.62 72.2141 1212.71 74.3054 1208.77 72.3801L1208.53 72.55ZM744.034 48.0497C736.56 49.7222 735.942 49.4438 737.504 43.9679C738.488 48.4331 742.398 45.2138 744.146 47.8951L744.034 48.0497ZM428.493 498.06C426.992 499.327 425.219 500.166 423.33 500.504C421.442 500.841 419.497 500.665 417.67 499.993L428.493 498.06ZM361.162 604.223C354.578 603.532 336.55 608.304 360.964 602.554L361.162 604.223ZM826.814 99.8137L816.395 100.218C821.347 97.0148 823.495 97.0388 826.926 99.6591L826.814 99.8137ZM145.704 410.927C143.384 414.942 139.963 412.956 137.304 413.557C138.377 412.347 139.72 411.457 141.209 410.97C142.697 410.483 144.283 410.416 145.816 410.773L145.704 410.927ZM281.349 418.834C278.138 420.018 274.753 420.591 271.343 420.529C272.661 419.182 274.321 418.29 276.119 417.961C277.917 417.633 279.774 417.883 281.461 418.68L281.349 418.834ZM375.022 602.136C370.818 600.666 367.202 603.075 363.242 603.127C364.991 601.949 366.975 601.232 369.039 601.033C371.103 600.834 373.19 601.159 375.134 601.981L375.022 602.136ZM306.674 628.883L316.534 626.501C313.959 628.361 311.048 630.685 307.107 628.69L306.674 628.883ZM1278.57 46.8699C1283.03 47.5104 1287.53 47.6316 1292 47.2316C1289.93 48.0883 1287.71 48.4869 1285.48 48.4035C1283.25 48.3202 1281.05 47.7568 1279.01 46.7465L1278.57 46.8699ZM434.201 80.0838C437.469 76.9415 441.522 80.968 444.906 78.7991C439.632 81.4768 434.107 80.9415 434.641 79.9607L434.201 80.0838ZM849.892 87.1723C856.303 86.403 849.603 97.3607 848.909 90.3929C849.947 89.2811 848.282 87.295 850.333 87.0488L849.892 87.1723ZM389.624 598.621C385.733 600.298 381.526 600.996 377.318 600.662C379.57 600.462 387.847 596.789 389.624 598.621ZM1056.87 21.648C1057.75 20.8967 1058.79 20.3897 1059.89 20.1709C1061 19.9522 1062.14 20.0282 1063.23 20.392C1061.63 22.8399 1059.17 21.7959 1056.87 21.648ZM1172.3 21.8983C1175.5 20.6419 1179.01 20.5673 1182.29 21.6866C1179.05 22.8495 1175.52 22.8015 1172.26 21.5503L1172.3 21.8983ZM259.325 639.149C256.733 640.87 254.335 643.132 250.531 641.755C253.07 638.489 256.7 640.592 259.3 638.94L259.325 639.149ZM824.681 700.622C828.912 700.114 828.644 704.447 826.415 704.292C821.284 703.779 822.276 700.628 824.656 700.413L824.681 700.622ZM501.81 581.914C505.871 580.211 510.287 579.681 514.631 580.376L501.81 581.914ZM307.967 410.281C307.728 408.265 310.595 409.966 311.793 408.553C312.991 407.14 314.955 412.193 311.37 411.565C310.11 411.364 307.974 412.537 307.967 410.281ZM1191.61 21.344C1182.09 21.6405 1183.34 21.7724 1183.31 20.9304C1192.79 19.7919 1191.45 19.4591 1191.74 21.3286L1191.61 21.344ZM1362.71 200.219L1354.04 198.369C1355.48 197.627 1357.11 197.404 1358.69 197.734C1360.28 198.064 1361.73 198.929 1362.84 200.204L1362.71 200.219ZM612.007 564.882C608.393 567.855 605.055 566.563 602.228 567.396C604.494 564.021 607.777 565.39 612.007 564.882ZM1308.96 685.729L1299.11 687.686C1300.48 686.432 1302.13 685.588 1303.9 685.24C1305.67 684.891 1307.5 685.049 1309.22 685.699L1308.96 685.729ZM1269.8 691.063C1268.2 691.256 1266.03 693.773 1265.57 691.571C1264.76 686.38 1278.32 691.029 1270.03 690.754L1269.8 691.063ZM241.277 813.434C238.34 815.136 234.998 815.88 231.649 815.577C234.586 813.876 237.928 813.132 241.277 813.434ZM278.851 161.624C280.578 160.288 278.172 162.481 284.074 163.465C282.892 167.203 276.076 164.002 279.171 161.585L278.851 161.624ZM1341.22 476.103C1339.74 476.706 1338.15 476.966 1336.56 476.865C1334.97 476.764 1333.41 476.306 1331.99 475.519L1341.22 476.103ZM135.054 414.321C133.303 415.856 131.057 416.581 128.792 416.341C130.674 415.763 131.728 412.04 135.054 414.321ZM638.408 556.144C640.766 556.284 642.012 552.538 645.996 554.88C642.751 555.481 640.914 557.536 638.408 556.144ZM630.013 454.486C632.805 453.981 635.68 454.191 638.407 455.1C635.963 455.323 633.526 457.801 630.013 454.486ZM1104.75 487.488L1095.64 487.947C1098.46 484.858 1101.64 487.579 1104.75 487.488ZM1038.41 671.73C1038.25 671.78 1038.09 671.792 1037.93 671.765C1037.77 671.738 1037.61 671.673 1037.48 671.575C1037.34 671.477 1037.23 671.347 1037.14 671.196C1037.06 671.045 1037 670.877 1036.98 670.702C1036.98 670.702 1037.65 669.706 1037.71 669.698C1046.18 675.31 1048.82 666.884 1038.41 671.73ZM389.753 598.606C392.803 596.382 396.251 594.864 399.887 594.146C395.761 599.929 388.434 597.354 389.753 598.606ZM1298.24 694.067C1297.1 694.85 1295.78 695.307 1294.42 695.397C1293.06 695.487 1291.69 695.206 1290.44 694.58C1293.44 694.643 1295.83 692.876 1298.5 694.036L1298.24 694.067ZM292.749 620.541C293.514 627.007 280.88 624.081 292.749 620.541V620.541ZM820.894 738.377L815.076 738.652C818.103 735.116 818.56 735.132 821.118 738.068L820.894 738.377ZM443.1 586.28C439.683 587.149 436.175 587.569 432.651 587.534L443.1 586.28ZM335.386 574.316C335.633 576.402 326.419 577.648 328.673 575.827C330.928 574.005 335.087 573.435 335.634 574.216L335.386 574.316ZM430.394 498.184C433.342 497.831 435.932 495.545 439.112 497.138C436.498 498.175 433.676 498.489 430.898 498.053L430.394 498.184ZM1258.15 696.974C1261.97 697.926 1265.65 696.074 1270.43 696.911C1256.96 698.457 1258.82 698.797 1258.65 696.843L1258.15 696.974ZM643.852 58.5205L651.545 57.5974C649.349 58.8288 646.805 59.1592 644.373 58.5286L643.852 58.5205ZM262.719 423.467C263.329 422.493 264.195 421.741 265.207 421.306C266.22 420.871 267.334 420.772 268.41 421.022C268.68 422.752 269.624 421.934 262.719 423.467ZM256.047 809.687C255.018 810.658 253.766 811.314 252.417 811.587C251.068 811.861 249.67 811.742 248.365 811.244C250.728 809.968 253.346 809.316 256.006 809.34L256.047 809.687ZM1208.29 66.656C1210.75 64.9501 1213.16 66.0714 1215.77 66.6752C1214.59 67.2008 1213.32 67.439 1212.05 67.373C1210.77 67.307 1209.52 66.9383 1208.38 66.2931L1208.29 66.656ZM1445.41 502.804C1449.45 504.506 1453.47 501.132 1457.5 503.258C1458.39 501.459 1450.52 504.73 1445.5 502.441L1445.41 502.804ZM1283.97 687.741C1286.31 687.036 1288.77 686.861 1291.19 687.227C1290.74 687.745 1290.2 688.16 1289.6 688.448C1289 688.736 1288.34 688.891 1287.68 688.905C1287.02 688.919 1286.36 688.791 1285.74 688.529C1285.11 688.267 1284.55 687.876 1284.06 687.378L1283.97 687.741ZM226.056 434.495C224.263 435.275 227.13 429.29 231.436 432.158C230.208 434.42 227.872 433.361 226.143 434.132L226.056 434.495ZM1248.71 697.966L1256.08 697.081C1252.28 699.582 1252.28 699.582 1248.71 697.966ZM516.827 580.253C518.778 578.609 520.398 576.37 524.325 578.789L516.827 580.253ZM832.009 791.62C833.704 792.756 831.118 796.169 826.945 792.228C829.35 792.221 830.211 790.707 832.009 791.62ZM829.014 735.57C837.155 734.593 836.129 734.716 836.156 735.488C827.942 736.403 829.032 736.272 828.981 735.291L829.014 735.57ZM1474.39 503.699L1482.57 503.634C1481.33 504.393 1479.94 504.797 1478.5 504.809C1477.07 504.82 1475.66 504.438 1474.39 503.699ZM682.236 728.081C684.352 727.828 686.164 725.565 689.046 726.841C688.042 727.513 686.916 727.952 685.741 728.13C684.565 728.307 683.363 728.22 682.212 727.873L682.236 728.081ZM1106.75 703.72L1112.3 702.278C1110.56 706.225 1108.65 704.903 1106.73 703.511L1106.75 703.72ZM1488.06 616.429C1485.24 618.251 1481.93 619.02 1478.63 618.618C1481.72 618.319 1484.28 615.825 1488.03 616.221L1488.06 616.429ZM266.466 806.534C263.837 806.849 261.77 809.706 258.4 808.7C260.708 806.867 263.601 806.09 266.466 806.534ZM844.755 89.9041C844.993 91.9203 843.34 93.8818 841.036 87.6007C842.041 88.3968 844.45 87.3317 844.755 89.9041ZM1127.96 10.8612C1126.21 11.4937 1124.48 12.829 1122.24 10.9122C1123.09 10.3512 1124.07 10.0505 1125.08 10.0415C1126.08 10.0325 1127.08 10.3157 1127.96 10.8612ZM1312.52 683.398C1320.87 683.101 1319.76 682.529 1319.89 684.136C1311.31 684.672 1312.49 685.306 1312.33 683.421L1312.52 683.398ZM197.687 697.314C199.511 696.249 201.036 694.303 204.358 695.456C203.448 696.347 202.349 696.983 201.154 697.311C199.959 697.638 198.704 697.647 197.495 697.337L197.687 697.314ZM447.918 496.293C447.016 497.459 441.203 494.49 452.481 494.194C451.344 497.222 448.899 494.694 447.726 496.316L447.918 496.293ZM1191.77 679.414C1192.79 678.77 1193.93 678.364 1195.11 678.222C1196.29 678.08 1197.49 678.206 1198.63 678.591C1195.99 680.954 1193.8 679.524 1191.77 679.414ZM1292.84 689.568C1303.8 688.253 1302.71 688.384 1302.77 688.87C1291.61 690.209 1292.93 690.333 1292.84 689.568ZM253.183 636.148C250.478 637.46 249.172 640.155 246.305 638.455C248.678 638.734 250.032 635.892 253.183 636.148ZM163.828 614.506C163.828 614.506 164.414 615.071 164.311 615.295C163.59 617.99 160.898 616.127 159.411 617.293C160.931 616.405 161.63 614.065 163.844 614.645L163.828 614.506ZM1374.89 254.744C1375.66 254.652 1389.07 264.677 1374.89 254.744V254.744ZM806.055 704.197C807.767 703.286 808.589 706.925 805.326 706.823C804.556 706.915 803.659 707.022 803.503 705.701C803.346 704.381 805.126 704.59 806.047 704.127L806.055 704.197ZM221.106 435.512C220.222 437.381 218.398 436.261 216.885 436.654C219.06 432.515 221.63 433.898 221.106 435.512ZM1489.47 685.996C1490.2 682.243 1495.31 685.93 1499.08 680.965C1498.7 687.639 1489.1 683.432 1489.47 685.996ZM361.764 723.527C358.88 723.873 356.175 725.185 353.073 725.346C354.281 724.332 355.695 723.64 357.203 723.325C358.711 723.009 360.273 723.079 361.764 723.527ZM718.305 48.7397C718.157 50.2381 713.114 49.9266 711.78 48.5355C717.677 47.8278 718.469 47.3802 718.305 48.7397ZM823.84 736.895C822.827 736.03 823.806 733.867 827.386 735.553C826.468 736.58 825.801 738.634 823.84 736.895ZM876.424 716.483C876.737 719.124 879.899 717.828 880.555 720.077C876.73 719.619 876.73 719.619 876.424 716.483ZM1227.5 701.146C1230.13 701.888 1232.28 697.541 1235.26 700.215L1227.5 701.146ZM1216.34 701.287C1218.71 701.002 1221.21 702.394 1223.44 700.858C1221.08 701.845 1218.74 702.903 1216.18 701.024L1216.34 701.287ZM437.473 720.506C439.538 717.085 442.992 719.35 445.553 717.914C442.93 719.008 440.229 719.874 437.473 720.506ZM1481.43 690.063C1485.53 684.565 1497.78 684.224 1481.43 690.063V690.063ZM1385.95 169.719L1380.22 165.823C1384.09 166.628 1384.09 166.628 1385.76 169.742L1385.95 169.719ZM1315.85 477.597C1315.12 476.909 1320.44 474.648 1322.77 476.766C1316.06 477.149 1318.1 480.147 1315.66 477.62L1315.85 477.597ZM1094.81 705.506C1092.73 706.306 1090.45 706.356 1088.32 705.65C1089.28 705.097 1090.35 704.799 1091.44 704.778C1092.53 704.757 1093.62 705.014 1094.61 705.529L1094.81 705.506ZM216.441 644.859C215.347 648.798 213.329 646.572 211.3 646.463L216.441 644.859ZM469.737 477.95L463.94 480.056C465.054 477.384 467.324 477.887 469.544 477.973L469.737 477.95ZM1317.05 100.072C1318.92 101.046 1321.3 99.2088 1322.98 101.828C1321.11 100.36 1318.73 102.197 1317.05 100.072ZM476.773 580.759C478.836 578.96 480.684 580.29 482.414 580.082C481.609 580.73 480.672 581.162 479.677 581.342C478.682 581.523 477.658 581.447 476.686 581.122L476.773 580.759ZM243.52 552.341L236.661 553.164C241.209 551.49 241.209 551.49 243.433 552.704L243.52 552.341ZM414.292 591.712L405.467 594.604C406.636 593.485 408.019 592.655 409.521 592.171C411.023 591.686 412.609 591.559 414.172 591.797L414.292 591.712ZM1288.31 695.259L1281.32 695.533C1282.33 694.766 1283.52 694.331 1284.76 694.283C1286 694.234 1287.23 694.573 1288.31 695.259ZM1129.82 10.1437C1131.81 8.28308 1133.67 9.68204 1135.31 9.83734C1134.53 10.4229 1133.61 10.7776 1132.65 10.8677C1131.7 10.9579 1130.73 10.7803 1129.85 10.352L1129.82 10.1437ZM1203.05 683.491C1201.06 683.729 1198.99 686.023 1196.2 683.889L1203.05 683.491ZM295.789 631.388C297.398 630.701 298.747 628.918 300.981 630.765C298.888 630.663 297.942 633.104 295.621 631.62L295.789 631.388ZM259.514 423.852C259.999 427.954 252.922 423.092 257.756 423.287C258.381 423.072 259.372 422.106 259.514 423.852ZM1051.66 705.183C1050.99 705.694 1050.16 705.909 1049.34 705.785C1048.52 705.662 1047.77 705.209 1047.23 704.517C1048.76 704.263 1050.33 702.665 1051.66 705.183ZM389.036 91.7795C389.763 91.1364 390.676 90.7868 391.623 90.7887C392.569 90.7905 393.493 91.1439 394.238 91.79C392.269 92.7314 390.9 93.2481 389.036 91.7795ZM723.545 45.2201C724.212 44.6541 725.014 44.3005 725.862 44.1988C726.71 44.097 727.572 44.2509 728.352 44.6431C728.095 45.0491 727.761 45.3897 727.37 45.6424C726.98 45.895 726.543 46.0537 726.088 46.1083C725.633 46.1629 725.171 46.1121 724.733 45.9589C724.294 45.8057 723.889 45.5539 723.545 45.2201ZM827.371 90.7917C827.421 91.2088 826.99 91.9655 826.735 92.5602C821.184 88.5021 826.863 89.795 827.371 90.7917ZM1377.07 672.902C1377.67 672.231 1378.45 671.781 1379.3 671.616C1380.16 671.45 1381.04 671.576 1381.84 671.977C1381.55 673.421 1382.56 673.16 1377.07 672.902ZM430.004 721.12C432.294 719.886 434.926 719.57 437.44 720.228C434.661 720.914 432.741 722.272 430.004 721.12ZM256.067 527.073C257.556 526.471 258.032 529.939 255.836 530.062C253.64 530.184 254.081 527.875 256.067 527.073ZM530.576 575.571C531.647 574.738 530.586 578.955 526.881 578.412L530.576 575.571ZM206.972 337.011C207.608 336.342 208.405 335.88 209.276 335.676C210.147 335.472 211.057 335.534 211.906 335.855C211.328 336.615 210.53 337.14 209.637 337.35C208.744 337.559 207.806 337.44 206.972 337.011ZM1178.71 5.19337C1176.88 5.63571 1175.01 5.86012 1173.14 5.86263C1179.2 4.35936 1178.6 4.22003 1178.71 5.19337ZM1230.94 56.9576C1232.9 54.3245 1234.67 57.2144 1236.32 56.3114C1234.69 57.2835 1232.75 57.5155 1230.94 56.9576ZM335.915 574.394C337.284 571.127 338.75 573.63 341.172 573.763C336.871 577.523 335.014 573.374 335.723 574.417L335.915 574.394ZM1116.66 11.5119C1114.97 12.3755 1113.05 12.6054 1111.21 12.1658C1113.36 11.1318 1114.79 9.47945 1116.66 11.5119ZM884.362 786.818C885.118 787.714 883.186 790.061 880.041 786.561C881.765 786.847 883.163 785.481 884.387 787.026L884.362 786.818ZM293.018 413.062C295.005 412.824 294.781 415.318 293.323 415.634C293.149 415.757 292.948 415.83 292.74 415.844C292.531 415.859 292.322 415.816 292.131 415.718C291.941 415.621 291.776 415.473 291.651 415.289C291.527 415.104 291.448 414.889 291.421 414.664C291.394 414.439 291.421 414.211 291.499 414.003C291.577 413.794 291.703 413.611 291.865 413.472C292.028 413.332 292.221 413.24 292.427 413.205C292.633 413.17 292.845 413.193 293.043 413.271L293.018 413.062ZM299.428 412.293C303.11 413.191 299.47 415.39 298.758 413.219C298.853 412.926 299.075 412.053 299.267 412.03L299.428 412.293ZM1465.41 504.776C1467.26 504.978 1468.93 503.156 1471.82 504.007L1465.41 504.776ZM303.519 410.603C304.737 410.457 305.573 413.671 303.857 413.454C302.141 413.237 302.116 410.278 303.294 410.348L303.519 410.603ZM1410.02 618.955C1411.57 617.287 1413.01 617.327 1415.74 617.846C1413.39 618.903 1412.24 620.169 1410.02 618.955ZM1369.8 684.562C1367.7 685.449 1366.1 686.206 1364.32 684.374C1366.03 685.086 1367.6 682.993 1369.8 684.562ZM171.516 612.456C173.503 612.217 173.996 610.889 175.989 612.342C174.708 613.06 173.951 614.349 171.516 612.456ZM533.493 575.503C534.153 575.092 534.885 574.833 535.646 574.742C536.407 574.651 537.179 574.729 537.916 574.972C536.506 575.142 535.376 577.675 533.493 575.503ZM1116.6 79.7038C1115.92 80.182 1115.13 80.435 1114.31 80.4332C1113.49 80.4314 1112.68 80.1748 1111.99 79.6937C1112.69 79.2669 1113.48 79.0437 1114.29 79.0455C1115.1 79.0472 1115.89 79.274 1116.6 79.7038ZM789.424 702.103C788.221 696.888 796.023 702.933 790.275 702.706C790.155 702.791 789.394 702.952 789.167 702.133L789.424 702.103ZM1450.55 676.353C1449.67 681.535 1443.59 677.894 1444.74 678.883C1450.64 676.554 1451.11 677.203 1450.3 676.383L1450.55 676.353ZM311.221 580.53C310.296 582.051 308.849 580.814 307.503 580.976C309.699 578.104 312.171 579.217 311.221 580.53ZM1276.03 74.8852C1269.62 75.6545 1270.14 75.5928 1270.13 75.0289C1276.74 74.2366 1275.93 74.0509 1276.03 74.8852ZM186.931 341.813C185.389 340.87 186.04 338.677 189.908 340.046C188.741 341.173 188.329 342.633 186.931 341.813ZM1374.95 254.737C1373.22 255.439 1374.36 257.417 1373.37 258.946C1372 254.457 1370.88 252.193 1374.9 254.814L1374.95 254.737ZM322.375 584.127C320.899 586.49 319.247 586.265 317.439 584.72C317.44 585.284 320.496 583.084 322.358 583.989L322.375 584.127ZM1472.03 622.725C1472.71 622.192 1473.51 621.859 1474.35 621.758C1475.2 621.657 1476.05 621.791 1476.84 622.148C1475.26 621.421 1474.19 625.004 1472.03 622.725ZM276.698 634.878C277.413 635.426 276.175 637.056 272.709 635.78C274.372 634.452 275.404 633.834 276.698 634.878ZM1481.94 624.637C1482.66 622.436 1484.21 622.321 1486.58 622.6C1484.8 624.013 1483.7 625.202 1481.94 624.637ZM793.275 94.3898C794.246 94.9078 792.212 98.0432 790.409 95.4391C791.457 94.9607 792.086 93.6863 793.275 94.3898ZM285.178 415.484C286.653 415.307 286.986 417.03 285.458 417.848C283.93 418.666 283.896 415.638 285.178 415.484ZM1350.43 681.811C1348.68 680.188 1347.36 683.377 1345.56 682.395C1348.48 679.083 1350.31 680.768 1350.43 681.811ZM546.746 573.772C547.323 573.703 548.028 573.618 548.007 574.537C548.284 578.523 544.511 574.111 546.922 573.61L546.746 573.772ZM1286.19 91.5058C1284.32 91.0955 1283.16 91.1643 1282.22 89.2327C1283.01 89.1554 1283.8 89.3292 1284.51 89.7329C1285.21 90.1367 1285.8 90.753 1286.19 91.5058ZM1151.7 684.153L1146.58 684.274C1148.3 682.375 1149.12 683.758 1151.7 684.153ZM276.365 589.79C276.134 587.843 279.046 588.269 278.801 589.498C278.842 589.848 278.754 590.199 278.555 590.474C278.356 590.749 278.062 590.926 277.739 590.965C277.416 591.003 277.09 590.901 276.832 590.681C276.575 590.461 276.406 590.14 276.365 589.79ZM1139.49 9.40691C1141.03 9.22229 1142.27 8.1569 1143.65 8.90687C1142.37 9.55508 1140.91 10.435 1139.49 9.40691ZM351.321 716.037C353.259 715.381 353.938 720.024 350.629 717.883C350.353 716.647 350.616 716.122 351.321 716.037ZM803.022 729.099C799.679 728.865 802.644 725.901 804.255 728.528C803.742 728.589 803.39 728.914 802.998 728.89L803.022 729.099ZM345.248 572.498C345.495 574.584 342.408 574.319 340.376 573.082L345.248 572.498ZM683.754 55.6361C682.821 57.0878 681.899 56.9867 680.667 55.3717C681.828 54.7388 682.868 54.1911 683.754 55.6361ZM313.593 580.245C315.008 579.018 316.3 576.747 318.337 579.676L313.593 580.245ZM636.025 59.9535C636.66 60.3709 637.146 56.7872 639.349 58.9203C638.954 59.4262 638.429 59.7933 637.838 59.9769C637.248 60.1605 636.618 60.1523 636.025 59.9535ZM407.822 85.7175C407.275 86.2217 406.565 86.4713 405.841 86.4132C405.118 86.3551 404.439 85.9941 403.949 85.4068C405.136 85.5464 406.388 83.4922 407.822 85.7175ZM480.389 490.493C479.619 490.585 479.881 489.496 479.815 488.939C479.372 485.749 484.575 488.509 480.389 490.493ZM1107.86 70.6692C1109.65 69.2565 1111 69.7284 1112.99 70.0538C1111.06 70.7789 1109.81 71.7747 1107.86 70.6692ZM237.036 604.099C237.76 602.531 239.069 603.15 240.574 602.687C239.11 606.248 236.158 605.474 237.036 604.099ZM1104.29 704.862C1103.69 705.315 1102.95 705.507 1102.21 705.399C1101.48 705.292 1100.8 704.893 1100.32 704.281C1101.56 704.343 1102.92 702.629 1104.29 704.862ZM1486.74 365.916C1488.52 366.056 1489.76 365.555 1491.16 366.938C1489.64 367.895 1488.68 366.883 1486.87 365.901L1486.74 365.916ZM224.571 547.141C225.11 547.852 224.385 549.419 221.366 547.525C222.776 547.356 223.548 545.642 224.699 547.125L224.571 547.141ZM153.143 408.412C151.921 412.367 149.422 407.731 152.395 407.585C152.595 407.632 153.207 408.405 153.143 408.412ZM1078.54 71.7208C1080.08 71.5362 1080.48 72.7567 1078.39 73.783C1076.3 74.8093 1076.29 71.99 1078.54 71.7208ZM1108.23 487.211C1108.45 486.899 1108.74 486.645 1109.06 486.47C1109.39 486.294 1109.75 486.201 1110.12 486.197C1110.49 486.194 1110.85 486.28 1111.19 486.449C1111.52 486.618 1111.82 486.866 1112.06 487.175L1108.23 487.211ZM117.044 285.823L112.992 287.296C113.838 286.207 114.93 283.89 117.044 285.823ZM277.868 634.878L281.073 634.494C280.067 635.883 278.769 635.898 277.827 634.531L277.868 634.878ZM449.237 585.403L454.124 584.394C453.547 585.167 452.715 585.666 451.799 585.789C450.882 585.912 449.951 585.65 449.196 585.056L449.237 585.403ZM1243.76 73.0463C1244.87 73.6185 1245.33 72.012 1247.03 72.654C1245.89 73.4258 1244.9 73.827 1243.76 73.0463ZM171.692 604.608C168.295 605.015 172.306 601.008 172.77 603.279C172.902 604.392 172.269 604.538 171.692 604.608ZM346.968 571.657C346.886 570.962 347.189 570.22 347.854 570.352C352.322 571.297 347.229 575.504 346.968 571.657ZM953.355 712.257C953.903 713.037 952.971 715.053 950.471 712.603C951.482 712.905 952.341 710.827 953.355 712.257ZM1054.11 86.1458C1052.76 86.3073 1051.94 83.2325 1056.23 85.3975C1055.55 85.7134 1054.84 85.9638 1054.11 86.1458ZM191.816 443.47C193.185 442.953 194.075 445.525 191.172 445.169C191.036 445.01 190.941 444.815 190.898 444.604C190.855 444.393 190.865 444.175 190.928 443.972C190.991 443.769 191.103 443.589 191.254 443.452C191.405 443.315 191.588 443.225 191.783 443.192L191.816 443.47ZM1199.76 68.1735C1199.67 68.0422 1199.62 67.8913 1199.6 67.7339C1199.58 67.5765 1199.6 67.4172 1199.65 67.2697C1200.64 64.1186 1202.97 69.4805 1199.76 68.1735ZM229.137 608.22L232.488 605.773C231.879 608.314 230.838 608.862 229.009 608.236L229.137 608.22ZM1559.07 493.043C1560.66 494.403 1562.92 492.017 1564.58 495.062C1563.63 494.752 1558.4 494.464 1558.94 493.058L1559.07 493.043ZM1488.79 503.452C1490.45 502.618 1492.7 505.168 1487.66 504.857C1488.09 504.17 1488.29 503.652 1488.66 503.467L1488.79 503.452ZM699.382 550.025C700.674 550.505 701.806 548.535 703.431 550.174C702.802 550.585 702.075 550.792 701.335 550.768C700.595 550.744 699.873 550.492 699.254 550.041L699.382 550.025ZM1121.92 709.374C1120.89 709.497 1119.92 710.601 1118.78 709.751C1120.05 708.964 1119.19 708.855 1121.79 709.389L1121.92 709.374ZM1281.52 689.022C1278.77 690.48 1279.11 685.645 1282.81 687.81C1282.41 688.249 1281.98 688.655 1281.52 689.022ZM1164 705.664C1163.58 707.054 1162.34 706.498 1161.31 705.423C1162.92 704.806 1164.53 704.119 1164.03 705.942L1164 705.664ZM601.094 561.115C601.865 560.625 602.726 560.315 603.62 560.208C604.514 560.101 605.422 560.198 606.287 560.492L601.094 561.115ZM1022.66 672.703C1020.98 673.328 1021.21 669.775 1024.58 671.345C1024.02 672.008 1023.39 672.604 1022.71 673.12L1022.66 672.703ZM815.433 794.385C815.894 798.278 810.755 792.76 814.667 792.855C814.902 793.743 815.425 794.315 815.483 794.802L815.433 794.385ZM326.749 503.571C327.037 506.005 321.876 503.592 325.962 502.96C326.156 503.501 326.766 503.71 326.799 503.988L326.749 503.571ZM784.911 704.619C785.228 703.453 784.108 701.683 786.087 701.375L786.856 701.283C787.433 703.963 784.026 703.738 784.911 704.619ZM1336.21 681.402C1335.62 681.716 1334.95 681.833 1334.29 681.737C1333.63 681.64 1333.01 681.335 1332.5 680.859C1334.1 680.034 1335.29 679.679 1336.21 681.402ZM1339.68 678.87C1340.55 678.311 1341.58 678.108 1342.59 678.297C1343.6 678.485 1344.53 679.053 1345.2 679.9L1339.68 678.87ZM1302.54 667.18C1302.76 666.307 1304.53 665.883 1304.46 666.949C1304.34 669.784 1302.32 668.122 1302.54 667.18ZM1272.72 671.182C1273.29 670.833 1273.93 670.613 1274.59 670.534C1275.25 670.455 1275.92 670.518 1276.56 670.72C1275.47 671.979 1274.28 671.77 1272.72 671.182ZM200.851 614.224C199.969 613.906 200.621 612.277 204.07 612.85C202.454 614.031 201.959 614.796 200.851 614.224ZM539.901 576.356L544.032 575.014C543.413 576.922 542.268 577.13 539.925 576.565L539.901 576.356ZM1345.97 665.564C1347.77 665.348 1348.82 664.376 1350.07 665.071C1348.99 666.33 1347.84 665.974 1345.97 665.564ZM438.345 591.152C438.131 589.345 439.511 589.461 441.14 590.041L438.345 591.152ZM820.84 42.217C819.86 41.6294 822.074 39.4602 822.268 42.7509C821.764 42.5903 821.279 42.364 820.823 42.0778L820.84 42.217ZM1313.37 674.129C1312.77 674.429 1312.12 674.581 1311.46 674.576C1310.79 674.57 1310.14 674.406 1309.53 674.097C1310.9 673.58 1312.04 672.738 1313.37 674.129ZM542.281 767.229C543.249 766.619 544.254 770.165 540.891 768.665C541.288 768.116 541.756 767.633 542.281 767.229ZM1082.91 14.7859C1083.09 16.2459 1081.18 14.9936 1080.41 15.086C1081.87 14.2061 1082.77 13.604 1082.91 14.7859ZM1053.01 708.83C1052.1 709.926 1051 709.988 1048.69 709.701C1049.98 708.87 1051.51 708.562 1053.01 708.83ZM875.42 728.872C877.072 729.097 875.692 731.166 874.126 730.015C874.126 729.841 874.162 729.67 874.23 729.514C874.298 729.358 874.398 729.22 874.521 729.111C874.645 729.002 874.789 728.924 874.945 728.883C875.1 728.842 875.262 728.838 875.42 728.872ZM821.808 93.2221C824.794 92.0881 822.343 97.7412 820.846 93.3375C820.96 93.7469 821.375 93.415 821.808 93.2221ZM1505.37 528.68L1508.59 532.876C1504.14 530.942 1505.69 528.147 1505.37 528.68ZM309.102 156.301C310.121 156.673 308.877 158.796 306.1 157.86C307.019 156.833 307.665 155.698 309.102 156.301ZM816.593 104.636C814.08 105.925 813.848 103.415 815.163 103.539L816.593 104.636ZM1274.16 48.5979C1277.49 48.1979 1277.1 48.244 1277.22 48.6534C1274.13 49.4475 1274.72 49.5174 1274.41 48.5671L1274.16 48.5979ZM1461.54 664.246C1461.07 664.647 1460.52 664.934 1459.93 665.09C1459.35 665.245 1458.73 665.265 1458.13 665.148C1458.55 664.566 1459.14 664.158 1459.8 663.988C1460.47 663.819 1461.17 663.899 1461.8 664.215L1461.54 664.246ZM1362.35 676.502L1358.5 676.963C1358.73 676.604 1359.03 676.303 1359.38 676.079C1359.73 675.856 1360.12 675.715 1360.53 675.666C1360.93 675.617 1361.34 675.662 1361.73 675.797C1362.13 675.932 1362.49 676.153 1362.8 676.448L1362.35 676.502ZM1347.41 678.294C1348.87 677.414 1349.98 677.987 1351.26 678.961C1350.65 679.231 1349.96 679.283 1349.31 679.108C1348.66 678.932 1348.08 678.54 1347.64 677.985L1347.41 678.294ZM980.951 92.034C979.726 92.6745 979.36 88.488 982.19 90.969C981.879 91.262 981.538 91.5155 981.174 91.7252L980.951 92.034ZM1255.22 62.2221C1250.99 62.7298 1251.44 62.6761 1251.42 61.9732C1255.75 61.172 1255.15 61.0326 1255.45 61.9134L1255.22 62.2221ZM1138.19 78.0998L1136.82 79.111C1135.31 78.4459 1135.79 76.9787 1138.42 77.791L1138.19 78.0998ZM1521.15 580.727C1521.56 580.463 1522.03 580.351 1522.51 580.409C1522.99 580.466 1523.44 580.69 1523.79 581.046C1522.89 580.589 1521.89 582.613 1521.15 580.727ZM1053.26 713.735C1054.48 713.589 1055.17 716.679 1051.4 714.522C1051.99 714.183 1052.61 713.919 1053.26 713.735ZM1371.29 160.056C1372.8 161.849 1373.72 162.514 1371.65 163.115C1370.3 162.149 1370.2 163.006 1371.35 160.048L1371.29 160.056ZM217.097 334.668C215.988 336.282 215.153 335.818 215.174 334.898C215.195 333.979 216.093 333.872 217.097 334.668ZM155.851 405.478C157.444 404.653 157.653 407.518 156.516 407.796C155.378 408.073 154.9 406.227 156.004 405.671L155.851 405.478ZM337.634 397.272C338.053 400.818 332.975 396.915 336.269 396.731C336.999 396.855 337.607 396.5 337.786 397.466L337.634 397.272ZM859.987 684.186C860.208 684.16 860.432 684.23 860.608 684.38C860.785 684.531 860.899 684.75 860.928 684.99C860.956 685.23 860.896 685.47 860.76 685.658C860.623 685.847 860.423 685.967 860.201 685.994C859.786 686.326 857.864 684.37 860.14 684.379L859.987 684.186ZM254.635 636.327C253.427 637.106 253.162 634.318 256.449 634.628C255.928 635.292 255.373 635.924 254.787 636.52L254.635 636.327ZM1098 711.046C1093.64 711.569 1094.15 711.508 1094.15 711.508C1098.51 710.985 1098 711.046 1098 711.046ZM289.289 415.061C290.228 415.301 290.122 414.961 289.47 416.59C288.691 416.049 288.796 416.389 289.057 415.3L289.289 415.061ZM1155.33 706C1159.62 705.484 1159.11 705.546 1159.16 705.963C1154.62 706.579 1155.15 706.726 1155.08 706.1L1155.33 706ZM1188.23 703.884C1187.79 704.269 1187.26 704.509 1186.69 704.577C1186.12 704.645 1185.55 704.538 1185.03 704.269C1186.44 703.041 1187.97 702.223 1187.99 703.984L1188.23 703.884ZM267.348 512.533C267.151 513.614 267.463 513.506 264.912 512.825C264.935 512.47 264.19 512.771 267.1 512.633L267.348 512.533ZM1209.07 701.384C1213.72 701.178 1213.04 700.907 1213.09 701.888C1208.57 702.148 1209.25 702.349 1209.07 701.384ZM486.159 490.364C483.993 489.637 484.183 486.3 485.405 487.282C486.626 488.263 485.505 491.429 486.159 490.364ZM456.975 493.161C459.154 492.9 457.935 495.232 455.591 494.103C456.255 493.671 456.59 493.207 456.91 493.169L456.975 493.161ZM1241.93 698.92C1243.76 698.068 1245.79 697.824 1247.77 698.22C1245.97 699.202 1243.9 699.45 1241.93 698.92ZM338.847 511.85C340.231 510.908 339.475 512.762 338.639 514.484C338.025 513.147 337.641 513.194 339.039 511.827L338.847 511.85ZM53.5195 559.77C52.2751 559.144 52.3657 559.909 53.2725 557.684C54.3676 559.245 54.1095 558.712 53.712 559.747L53.5195 559.77ZM196.848 558.999C196.52 559.557 196.007 559.957 195.412 560.12C194.817 560.283 194.183 560.197 193.637 559.878C194.999 559.856 195.497 557.469 197.041 558.976L196.848 558.999ZM565.565 560.302C566.716 559.036 567.919 559.314 569.86 559.787C569.272 560.228 568.59 560.503 567.875 560.589C567.159 560.675 566.432 560.568 565.758 560.279L565.565 560.302ZM377.103 582.919L373.706 583.326C374.713 582.5 375.72 581.674 377.312 583.035L377.103 582.919ZM1478.89 685.574C1478.78 684.67 1480.02 684.169 1481.51 684.695C1480.15 686.339 1478.72 687.497 1478.89 685.574ZM247.97 699.741C248.151 701.271 246.496 699.918 245.726 700.011C247.247 699.123 247.838 698.629 247.97 699.741ZM696.056 547.745C695.287 547.837 694.871 545.419 695.801 545.59C696.732 545.76 698.563 546.95 696.056 547.745ZM1478.3 702.568C1477.19 704.182 1475.77 703.717 1474.13 703.631C1474.69 703.098 1475.36 702.722 1476.08 702.537C1476.81 702.351 1477.57 702.362 1478.3 702.568ZM682.881 551.23C682.134 553.153 681.274 552.48 680.766 551.484C681.75 551.013 681.229 551.005 682.914 551.508L682.881 551.23ZM1447.58 644.627C1447.84 646.852 1446.36 646.959 1444.44 646.695C1445.69 645.699 1446.17 644.301 1447.71 644.681L1447.58 644.627ZM786.814 540.591C790.029 540.84 789.57 540.26 789.565 541.318C786.424 541.695 786.97 541.911 786.781 540.312L786.814 540.591ZM776.414 800.336L775.581 800.436C775.902 795.462 779.291 799.921 776.381 800.058L776.414 800.336ZM1554.14 493.635C1556.16 490.925 1563.89 494.157 1554.14 493.635V493.635ZM521.405 572.794C522.445 572.246 523.486 571.698 524.765 573.166L521.405 572.794ZM157.236 616.496C158.006 616.404 158.583 616.334 157.082 618.489C155.207 618.573 155.803 617.021 157.203 616.218L157.236 616.496ZM570.283 850.528C569.933 851.416 568.845 852.111 568.616 850.728C568.387 849.345 570.509 848.597 570.25 850.25L570.283 850.528ZM1347.12 476.523C1346.61 476.764 1346.04 476.874 1345.48 476.844C1344.91 476.814 1344.35 476.646 1343.85 476.352C1344.94 475.657 1345.92 475.186 1347.09 476.245L1347.12 476.523ZM1327.01 776.709L1330.45 774.958C1330.01 776.773 1328.75 776.571 1326.98 776.431L1327.01 776.709ZM1393.06 670.7C1394.05 669.735 1395.24 669.875 1396.85 670.247C1395.43 670.91 1394.78 672.046 1393.03 670.423L1393.06 670.7ZM750.155 47.0328C750.544 45.9284 751.757 46.8405 753.922 47.0037C752.473 47.3892 749.573 48.1604 750.122 46.7548L750.155 47.0328ZM729.264 547.074C728.577 547.861 727.671 547.899 726.251 547.435C726.647 547.053 727.131 546.792 727.655 546.68C728.178 546.568 728.722 546.608 729.231 546.796L729.264 547.074ZM495.096 575.175C495.014 575.443 494.875 575.686 494.69 575.884C494.504 576.081 494.278 576.229 494.029 576.313C493.78 576.398 493.515 576.418 493.255 576.372C492.996 576.325 492.749 576.214 492.534 576.047C494.669 574.31 493.988 574.603 495.055 574.828L495.096 575.175ZM337.703 608.166C338.236 607.737 338.865 607.469 339.529 607.389C340.193 607.309 340.868 607.421 341.485 607.712C339.866 607.765 338.81 608.174 337.621 607.471L337.703 608.166ZM318.567 501.451C317.855 502.03 318.184 502.061 317.477 501.581C318.018 500.106 317.689 500.075 318.356 500.77L318.567 501.451ZM313.476 501.286C314.579 502.916 314.124 503.464 313.69 503.093C311.449 501.74 312.546 501.115 313.266 500.606L313.476 501.286ZM125.698 416.571C127.173 416.394 128.399 419.068 123.977 417.413C124.422 416.841 124.929 416.33 125.488 415.892L125.698 416.571ZM759.253 545.026C758.438 545.829 757.522 545.234 756.625 545.342C756.89 544.935 757.253 544.615 757.676 544.415C758.098 544.216 758.565 544.144 759.026 544.207L759.253 545.026ZM677.581 548.199C678.188 547.28 677.892 547.527 678.806 547.559C677.908 547.666 677.892 547.527 677.354 547.38L677.581 548.199ZM223.769 609.006C225.436 608.806 226.118 611.826 223.051 610.079C223.095 608.804 223.478 608.194 223.478 608.194L223.769 609.006ZM159.874 407.605C158.85 405.542 158.991 404.537 161.609 406.338L159.874 407.605ZM1325.86 681.868C1326.53 680.941 1327.46 681.676 1328.16 682.649C1326.41 683.212 1324.61 683.358 1325.86 681.868ZM843.209 686.34C843.914 686.256 845.576 687.114 844.486 687.245C843.397 687.376 842.44 686.433 843.209 686.34ZM924.872 680.348C923.128 681.545 922.5 680.633 924.083 679.174L924.872 680.348ZM1002.22 671.983C1002.33 672.886 1001.88 674.068 1000.75 672.159C999.612 670.251 1001.87 670.615 1002.22 671.983ZM1245.12 691.769C1246.84 692.056 1245.29 693.229 1244.54 693.53C1243.8 693.831 1243.85 691.498 1245.37 691.739L1245.12 691.769ZM1201.47 697.641C1201.55 698.267 1200.86 699.619 1199.53 699.919C1200.13 697.873 1200.68 695.903 1201.73 697.61L1201.47 697.641ZM457.257 583.947C456.039 584.093 458.157 582.217 459.756 583.647L457.257 583.947ZM1030.3 668.613C1031.33 668.49 1032.35 669.989 1031 670.645C1029.64 671.301 1029.05 669.045 1030.3 668.613ZM183.505 201.411C184.723 201.265 183.827 204.123 182.654 203.559C181.482 202.994 181.311 202.098 183.441 201.419L183.505 201.411ZM1102.37 81.4116C1102.85 82.6941 1102.14 83.8369 1101.03 81.5731C1099.91 79.3093 1101.9 80.1291 1102.31 81.4193L1102.37 81.4116ZM1357.48 680.964C1357.95 680.543 1358.53 680.28 1359.15 680.206C1359.76 680.133 1360.38 680.252 1360.94 680.549C1360.49 681.015 1359.91 681.307 1359.29 681.382C1358.66 681.457 1358.03 681.311 1357.48 680.964ZM1350.62 681.788C1353.99 678.916 1358.29 683.406 1350.62 681.788V681.788ZM1135.88 706.994L1138.68 707.08C1137.43 707.512 1136.79 708.717 1135.88 707.064L1135.88 706.994ZM228.884 815.838C231.573 814.388 228.008 819.963 227.654 816.973C227.951 816.66 228.263 816.364 228.588 816.085L228.884 815.838ZM1119.09 80.3922C1117.81 80.546 1116.83 77.7726 1120.68 79.0027C1119.68 79.8982 1119.42 80.4232 1119.09 80.3922ZM1086.32 81.9984C1087.56 80.933 1088.07 81.3659 1087.92 81.8061C1087.78 82.2463 1087.18 82.6709 1086.32 81.9984ZM1172.32 704.031C1173.48 703.892 1174.72 706.14 1171.75 705.227C1171.53 704.478 1171.8 704.023 1172.32 704.031ZM959.891 91.5292C961.75 91.3061 962.053 93.315 959.533 92.3482C959.684 91.9775 959.819 91.4674 959.891 91.5292ZM225.012 818.277C226.77 816.656 227.534 819.808 223.308 819.258C223.91 819.004 224.482 818.675 225.012 818.277ZM1270.64 53.4626C1271.57 52.5747 1272.73 51.9419 1272.88 53.1933C1273.03 54.4448 1271.47 53.9264 1270.64 53.4626ZM219.165 644.25C219.957 643.802 220.575 644.081 219.724 646.228C219.098 645.88 217.717 645.199 219.165 644.25ZM882.175 98.4584C882.175 98.4584 881.736 99.1457 881.577 99.4469C878.37 99.2677 882.553 96.1567 882.175 98.4584ZM1439.27 502.554C1439.8 504.254 1435.48 503.502 1438.28 501.827C1438.63 502.067 1439.17 502.214 1439.27 502.554ZM792.551 106.393C793.705 106.255 793.67 108.163 791.833 107.467C791.67 106.64 792.102 106.447 792.551 106.393ZM774.743 107.543C776.444 108.185 775.006 109.768 775.659 110.889C775.649 110.255 772.624 106.669 774.743 107.543ZM495.303 582.413C497.746 581.627 498.769 580.94 499.904 582.284L495.303 582.413ZM1461.1 502.966C1459.88 503.607 1458.82 504.016 1457.81 502.656C1457.1 503.729 1459.01 500.679 1460.97 502.982L1461.1 502.966ZM494.552 583.208C493.152 584.011 493.721 583.872 492.244 583.485C493.459 582.211 493.13 582.18 494.424 583.224L494.552 583.208ZM580.342 558.811C579.165 559.304 577.724 559.76 578.361 558.555C578.999 557.35 579.689 557.69 580.181 558.548L580.342 558.811ZM170.662 569.546C170.662 569.546 170.147 569.043 170.186 568.827C170.244 566.564 174.064 568.08 170.5 569.283L170.662 569.546ZM1088.4 29.2876C1089.42 31.2811 1084.94 29.7029 1087.43 28.7694C1087.32 28.36 1087.83 28.2986 1088.03 28.909L1088.4 29.2876ZM1224.28 0.712252C1224.93 -0.3534 1225.89 0.0255613 1227.35 0.342993C1226.92 0.698739 1226.41 0.920946 1225.87 0.985924C1225.33 1.0509 1224.78 0.956262 1224.28 0.712252ZM315.274 643.857C316.326 644.507 315.381 644.761 314.539 644.792C313.698 644.822 314.317 642.915 315.53 643.827L315.274 643.857ZM1494.59 645.26C1494.72 646.303 1494.07 646.874 1493.49 647.438C1492.76 646.256 1494.32 644.024 1494.59 645.26ZM1189.92 3.77755C1190.7 3.19088 1190.24 3.17519 1191.59 3.57753C1190.6 3.97871 1190.99 4.00209 1189.92 3.77755ZM318.537 858.105L314.242 858.62C315.752 857.099 316.674 857.2 318.537 858.105ZM727.28 50.4127C728.626 50.2511 729.692 52.6617 726.169 51.4627C726.665 51.2621 726.937 50.8065 727.28 50.4127ZM377.146 782.604C375.858 783.252 376.298 783.129 375.287 782.827C376.305 782.634 375.864 782.758 377.179 782.882L377.146 782.604ZM1314.6 772.347C1315.94 771.621 1316.78 772.085 1317.81 773.654C1315.81 773.753 1315.2 773.544 1314.6 772.347ZM1228 682.26L1226.33 682.46C1226.33 682.46 1226.78 680.784 1228 682.26ZM1494.33 505.254C1494.77 504.497 1495.15 503.323 1496.2 504.536C1497.25 505.75 1495.65 505.378 1494.33 505.254ZM1350.2 276.322C1352.17 278.061 1350.65 283.954 1350.2 276.322V276.322ZM522.352 598.911C525.569 597.605 529.048 597.188 532.48 597.695C526.69 599.307 524.326 599.661 522.352 598.911ZM1301.56 488.69C1302.15 487.138 1302.63 485.67 1304.75 485.98C1303.87 487.355 1303.47 488.953 1301.56 488.69ZM1294.44 486.23C1293.22 486.376 1293.54 484.082 1295.03 485.736C1294.73 485.914 1294.76 486.192 1294.38 486.238L1294.44 486.23Z" fill="black"/>
</svg>
