<svg width="99" height="66" viewBox="0 0 99 66" fill="none" xmlns="http://www.w3.org/2000/svg">
<path d="M92.5817 53.8709C92.4008 53.8985 92.4226 53.6491 92.2956 53.5838C88.5259 51.6782 86.454 50.8903 85.7458 50.3916C86.8647 50.4854 86.7981 50.2885 90.5964 52.3942C90.8377 52.526 91.2206 52.454 91.2457 52.8816C91.3653 52.6987 91.6001 52.6856 91.5691 52.4176C91.5719 52.394 91.5813 52.3715 91.596 52.3532C91.6108 52.3349 91.6302 52.3217 91.6517 52.3153C91.6732 52.3089 91.6958 52.3096 91.7164 52.3173C91.7369 52.325 91.7545 52.3395 91.7668 52.3586C91.7913 52.3983 91.8234 52.4317 91.8612 52.4567C91.899 52.4817 91.9415 52.4978 91.9862 52.5038C92.0308 52.5099 92.0766 52.5058 92.1204 52.4919C92.1643 52.478 92.2054 52.4545 92.241 52.423C92.3362 52.3455 92.4577 52.5079 92.5455 52.4732C92.7131 52.3996 92.8939 52.3733 93.0701 52.397C93.2463 52.4206 93.4117 52.4934 93.5501 52.6081C93.2582 52.0821 92.1487 51.7848 92.244 51.4925C92.2744 51.3797 92.3325 51.5475 92.3922 51.5098C92.4783 51.3896 92.3815 51.3502 92.3207 51.2847C92.2959 51.2608 92.278 51.2298 92.2691 51.195C92.2601 51.1602 92.2605 51.123 92.27 51.0875C92.2796 51.0521 92.298 51.0198 92.3232 50.9941C92.3485 50.9685 92.3796 50.9506 92.413 50.9423C93.4686 50.8267 94.302 52.2857 94.6116 51.6433C94.6852 51.4929 94.8041 51.5113 94.9178 51.4881C92.7783 49.6029 92.4048 50.161 93.0137 49.4959C93.3715 49.1037 93.6782 49.4366 94.0643 49.4908C94.026 49.4492 92.857 48.7599 93.2239 48.8851C93.5908 49.0103 93.8283 48.6351 94.1651 48.6268C95.0342 48.6916 95.846 49.0667 96.4718 49.6927C96.1459 48.7412 94.6396 48.6286 94.742 48.3561C94.8018 48.2109 94.9875 48.3189 95.3638 48.4555C95.3545 48.3366 95.1519 48.3988 95.2198 48.2692C95.2878 48.1397 95.8775 48.6335 96.7204 48.9086C96.8022 48.4828 96.9722 48.7253 97.3599 48.7889C97.9469 48.879 92.0411 46.2399 90.248 45.0924C90.7706 45.3757 98.7892 48.957 96.0248 47.5357C83.488 41.1632 93.7781 46.4009 88.1942 43.2571C88.2303 43.1234 88.7898 43.3002 87.6808 42.7255C87.173 42.464 86.7788 41.9957 86.1985 41.8806C86.1627 41.8669 86.1304 41.845 86.1039 41.8163C86.0774 41.7875 86.0574 41.7526 86.0451 41.7141C86.9223 42.0611 86.8548 42.0967 86.8387 41.9267C86.8488 41.8891 86.8891 41.8776 86.8907 41.8869C86.9355 42.2571 87.1758 41.9633 87.3222 42.0026C88.8342 42.7525 89.6265 42.817 91.6823 44.3842C92.3683 44.9038 92.6916 45.3442 92.7904 45.2229C92.8892 45.1016 92.2926 44.8477 92.1238 44.3861C93.2109 44.552 94.9974 45.9844 95.1294 45.9391C95.5011 45.8014 95.5165 45.8056 95.8713 46.0216C96.6212 46.4732 96.208 46.0446 96.314 45.9118C96.7161 45.9524 97.3959 46.4032 97.5651 46.1127C97.7343 45.8223 98.182 46.3989 98.2983 46.1973C99.1801 44.6426 87.4248 39.7377 87.9678 39.3324C88.2617 39.1157 88.3246 38.9131 88.3818 39.13C88.4871 39.5208 89.0869 38.5219 88.6321 37.9568C89.0942 38.0045 89.4322 38.4667 89.9638 38.4256C90.4954 38.3844 90.9388 38.9152 91.4278 39.0014C91.2054 38.7538 86.9804 36.8516 86.0275 35.468C86.0544 35.4646 86.0814 35.4671 86.107 35.4752C86.1325 35.4833 86.156 35.497 86.1762 35.5153C86.1963 35.5337 86.2126 35.5563 86.2241 35.582C86.2355 35.6076 86.242 35.6357 86.243 35.6645C86.6977 35.5679 87.1628 35.6496 87.5524 35.8945C87.2974 35.6847 87.0311 35.4907 86.7548 35.3136C87.6897 34.2209 88.348 36.5285 88.4739 35.5101C88.5177 35.1636 88.714 35.5386 88.9933 35.7746C89.1452 35.9004 88.715 36.1478 88.5842 36.1888C88.8624 36.5052 88.9131 36.5008 89.2801 36.2276C89.6471 35.9543 89.6977 36.4559 89.9102 36.4949C90.0113 36.3653 89.6004 36.1119 89.6384 35.5266C89.6782 35.0269 88.6279 34.4947 88.2489 34.0618C88.7889 34.005 87.4965 32.517 87.8246 32.296C87.8816 32.2531 88.0016 31.7927 88.1741 31.9956C88.3985 32.2662 88.5796 32.0237 88.7596 31.969C88.7372 31.8376 88.6404 31.7982 88.5768 31.7275C88.2827 31.3935 88.7125 31.3161 88.5552 31.0725C88.3978 30.8288 88.625 30.8136 88.6905 30.8311C89.0921 30.9656 89.258 30.1817 89.5428 30.5043L89.5659 30.5105C89.8988 30.3176 90.2243 30.857 90.3749 30.7272C90.3581 30.575 89.9555 30.5209 90.1489 30.3399C90.442 30.0647 90.013 29.6184 86.3088 26.9334C86.4428 26.835 86.5243 26.9464 86.6264 26.92C86.6247 26.8345 86.4699 26.811 86.54 26.7044C86.61 26.5978 86.9682 26.9086 86.9597 26.5571C86.9498 26.0575 87.9536 26.8235 87.323 27.4156C87.4501 27.5571 88.8594 26.9721 86.8811 25.5466C86.7872 25.4811 86.67 25.4408 86.6593 25.2812C86.7152 25.2425 87.6379 25.5434 86.4243 24.9272C86.4064 25.0702 86.563 25.0718 86.6112 25.2146C85.9616 24.9734 86.2568 25.1196 86.0313 24.4547C85.4197 24.3177 85.8252 24.0548 86.3073 24.672C86.2196 24.0933 84.8789 23.8415 87.9608 24.6673C87.8718 24.1241 41.4364 9.0267 41.3758 9.00601C41.4327 8.99438 61.2617 13.7837 41.0236 8.53551C13.689 1.44852 68.272 14.5786 65.0543 15.5432C64.8958 15.5947 64.7692 15.4668 64.6527 15.4087C64.4253 15.2716 64.1557 15.383 63.9439 15.2188C63.867 15.1668 63.7503 15.5385 63.9458 15.564C64.6037 15.7313 65.2474 15.9502 65.8717 16.2189C65.7986 16.4903 62.2463 15.0191 62.1599 15.278C62.6911 15.5108 63.2381 15.7037 63.797 15.8554C64.109 15.9391 63.923 16.4758 64.2748 15.9522C64.1983 16.2361 64.3686 16.3399 64.5408 16.3906C64.713 16.4412 64.6242 16.2651 64.6798 16.1815C64.6635 16.6249 67.6383 17.3728 67.7376 17.2651C67.3467 16.9991 66.8617 16.9901 66.433 16.7722C67.1584 16.2726 91.6084 25.0805 77.4793 19.6649C77.642 19.8428 77.8966 19.8484 78.137 20.0292C77.9032 20.0382 74.5889 19.0785 74.2893 18.5505C75.8688 18.9737 75.1965 18.8473 75.382 19.094C75.5342 19.0032 75.7063 18.9624 75.8763 18.9768C76.0462 18.9912 76.206 19.0601 76.3351 19.1747C76.3092 19.2708 76.1813 19.1783 76.1581 19.2795C76.554 19.5423 77.0192 19.3491 77.4444 19.5033C77.4906 19.5157 84.0077 21.5575 84.1924 21.5622C84.3026 21.0768 66.0194 16.3301 65.8075 15.2928C65.7523 15.0228 88.2337 22.3227 88.3755 22.195C85.8017 19.8219 81.6349 19.6188 81.562 18.9545C84.5476 19.7545 86.9231 21.0402 87.0126 20.8C72.3435 14.492 35.5709 3.4344 19.7875 1.48867C19.1921 1.4142 19.7529 1.84657 19.457 2.22397C18.1278 3.93634 19.9208 2.5721 19.5405 3.44626C19.3864 3.80344 17.2715 2.83828 19.9632 4.03861C20.6988 4.3745 20.7952 4.18543 21.4829 4.31597C26.7426 5.32234 26.9771 6.06123 27.0928 5.76987C27.3455 5.13912 28.419 5.57003 29.1727 5.80782C29.323 5.84808 29.397 6.50817 29.8078 6.17947C29.8598 6.13968 32.2227 6.92056 32.2678 6.93712C31.7014 7.1077 18.5799 3.91421 17.9844 4.63669C20.3432 5.08066 21.2915 4.62735 21.9366 5.57476C21.8794 5.59901 21.8183 5.60927 21.758 5.60474C21.6977 5.60021 21.6397 5.58103 21.5884 5.54863C21.3913 5.40628 21.3337 5.65052 21.2226 5.71029C21.1115 5.77006 21.245 5.84168 21.2716 5.91149C21.6628 6.91178 17.9661 5.34813 18.6776 6.34021C18.5902 6.49588 18.4252 6.32633 18.3577 6.46943C18.3653 6.68638 20.9621 7.53438 20.9944 7.65947C21.0268 7.78455 20.7065 8.08381 20.5794 8.04974C19.7665 7.83194 19.3897 8.00407 19.5618 7.58008C19.4655 7.70681 19.3392 7.80366 19.1971 7.85971C19.055 7.91577 18.9027 7.92882 18.7575 7.89737C18.2085 7.804 18.7082 8.23338 18.5666 8.32974C18.3055 8.50155 17.252 7.84319 17.2635 8.3522C17.2754 8.76733 17.129 8.54451 16.1184 8.49312C15.7768 8.47323 16.0272 8.83135 16.0137 8.88145C15.9789 9.48552 15.7761 8.88943 15.2693 9.12974C15.9628 9.31554 16.0893 9.25991 15.8672 9.63919C15.6452 10.0185 16.1978 9.66955 16.2027 10.0649C16.206 10.2672 16.4814 9.99627 16.4965 10.2466C16.5019 10.3644 16.4256 10.5097 16.3579 10.5005C16.1513 10.4854 16.2723 10.8178 16.0924 10.7651C14.4152 10.2754 14.3868 10.4111 16.0552 10.9029C17.1503 11.2232 17.5425 11.1626 17.2665 11.42C16.5097 12.1127 19.8259 12.1461 19.6754 12.643C19.5696 13.0355 19.0801 12.3537 18.5494 12.6368C18.482 12.6725 18.4461 12.7748 18.3511 12.7135C18.199 12.619 18.0895 12.8718 18.3189 12.9556C20.1368 13.6129 20.7079 13.5017 20.373 13.7478C20.2269 13.8609 20.1503 13.9612 20.3968 14.0273C20.8398 14.146 20.3265 14.5636 20.6503 14.6191C20.6796 14.5105 20.4982 14.4171 20.6532 14.302C20.9161 14.1082 24.0584 15.4606 18.6204 14.411C18.2912 14.3451 18.4942 13.9294 18.7127 14.0686C19.0116 14.2471 18.8553 13.7083 18.6986 13.8454C18.5418 13.9824 18.3446 13.8714 18.1699 13.8604C18.1226 14.0358 18.4767 13.9023 18.3897 14.179C18.3027 14.4557 18.0696 14.1559 17.6416 14.395C17.3148 14.5805 17.1463 14.1637 16.8123 14.6518C17.0135 14.549 17.1691 14.7071 17.3571 14.6993C17.4613 14.6959 17.4304 14.7951 17.419 14.8681C17.3442 15.2376 16.9491 14.9258 16.4551 15.0576C16.4802 15.1941 16.8504 15.1232 16.6235 15.3982C16.5441 15.4933 16.9278 15.4797 16.7517 15.7191C16.6945 15.7933 15.0423 15.6551 17.2134 16.0443C17.486 16.0905 17.6055 16.306 17.5528 16.6546C17.4584 17.2651 15.8062 16.8358 15.7597 17.0696C15.7132 17.3034 16.9987 17.0703 17.0317 17.2851C17.0509 17.5813 17.4709 17.5863 17.4105 17.9328C17.4105 17.9328 17.4704 17.9712 17.4837 17.9524C17.7492 17.6878 17.9678 17.9344 18.1573 18.0433C18.4325 18.2022 19.0512 17.9605 18.8691 18.3908C18.8522 18.4534 18.937 18.4761 18.9959 18.4874C19.1731 18.5349 18.9392 18.1768 19.1542 18.1761C19.217 18.1676 19.2802 18.1749 19.3387 18.1976C19.3972 18.2203 19.4493 18.2576 19.4907 18.3066C19.8297 18.9034 20.397 18.2853 21.1218 18.9675C21.306 19.1423 21.8591 18.9905 21.8327 19.1804C21.7721 19.5582 19.3567 19.0184 19.3155 19.1865C19.2743 19.3545 25.124 20.2101 25.1786 20.2068C25.6649 20.1804 25.2509 20.6739 25.5147 20.6147C25.9316 20.4936 26.341 20.8899 25.9032 20.9203C24.4988 21.0275 29.0254 21.4435 29.0686 21.8043C29.0844 21.9294 8.56777 19.4452 8.49477 19.9764C8.38728 20.758 17.7352 20.8495 21.6873 21.604C24.3444 22.1055 22.5618 21.7309 22.1738 22.0209C26.8322 22.8214 14.6141 21.4101 13.8504 21.3622C12.2273 21.2541 11.6277 21.7158 11.1499 21.6191C10.672 21.5224 10.6187 22.1797 10.179 22.1559C10.0827 22.1301 9.95737 22.2577 9.82319 22.2039C9.74999 22.1843 9.66139 22.1605 9.64574 22.2951C9.608 22.6342 9.67638 22.0436 11.8153 22.7511C12.0234 22.8068 11.9492 23.0511 11.7524 23.0611C11.2231 23.0939 9.89474 22.9036 9.02702 23.2263C8.7266 23.3294 8.28421 22.6108 6.5793 23.2196C6.23248 23.3416 6.10546 23.0926 5.43813 23.3616C5.92703 23.5553 7.42682 23.4467 6.78502 23.6822C6.6381 23.7368 6.32032 23.598 6.2936 23.743C6.26688 23.8881 23.8891 25.5251 28.9649 26.9836C29.5659 27.1447 23.9056 26.322 23.9087 26.2646C23.9427 25.8932 23.5516 26.057 23.8614 26.3325C21.8604 26.3695 17.0557 25.0238 35.208 29.046C43.5093 30.8897 39.862 30.6288 42.0284 30.775C42.1093 30.7967 42.271 30.7639 42.2726 30.9569C42.2743 31.1499 42.3678 30.8033 42.4834 30.9104C42.5991 31.0175 47.834 32.5142 47.8698 32.5193C48.313 32.6067 48.0746 32.8473 47.8962 32.7279C47.654 32.5689 43.2263 31.5258 43.1766 31.5259L43.1187 31.5418C42.995 31.2803 42.7874 31.453 42.6154 31.4472C42.2144 31.4024 42.3 31.0851 42.1853 31.2961C42.1796 31.3099 42.1702 31.3216 42.1583 31.3298C42.1464 31.338 42.1327 31.3422 42.1189 31.3419C42.1051 31.3416 42.0919 31.3368 42.081 31.3281C42.0701 31.3195 42.0621 31.3073 42.058 31.2934C42.1379 30.9969 41.9204 31.0684 41.7783 31.0438C41.5703 30.9881 41.352 30.7863 41.314 30.9731C41.2761 31.16 41.7504 31.0095 41.8273 31.245C41.3934 31.192 40.9632 31.1156 40.5383 31.016C40.7169 30.8131 40.3447 30.7537 40.4891 30.5551C40.3042 30.5055 40.4159 30.8265 40.1724 30.8105C40.1339 30.8002 40.0876 30.7878 40.1023 30.7335C40.136 30.6082 40.2683 30.7153 40.3239 30.6317C40.2813 30.3606 39.8911 30.5516 39.5035 30.3805C39.4534 30.3671 39.3995 30.3527 39.3803 30.4237C39.3398 30.574 39.5986 30.518 39.8286 30.6915C38.688 30.5247 37.6134 30.098 36.3975 29.9199C37.1765 29.6809 37.4209 30.1225 37.5169 29.9199C37.6815 29.57 36.6768 29.5425 35.7371 29.443C30.9718 28.8243 21.8 26.2414 21.1984 26.6801C21.096 26.7262 20.9849 26.7419 20.8772 26.7257C20.7695 26.7095 20.6692 26.6618 20.5871 26.5879C20.3308 26.3894 20.3036 26.6284 20.2604 26.5586C19.8755 25.9182 18.1026 26.258 17.6937 26.2425C16.3706 26.2014 21.9063 27.1339 22.0476 27.2838C22.189 27.4336 22.5738 27.1248 22.2954 27.1308C22.2453 27.1173 20.6158 26.6807 23.1723 27.1419C28.0483 28.0544 37.7675 30.2467 32.555 29.5709C32.4086 29.5316 31.7073 28.6856 31.7192 29.3156C31.7239 29.5586 31.5959 29.2825 31.5487 29.3505C31.4161 29.3833 31.2791 29.3753 31.1537 29.3274C31.0284 29.2796 30.9199 29.1938 30.8409 29.0802C30.7544 28.972 30.7446 29.238 30.6213 29.205C19.2196 26.0066 23.3608 27.9132 24.9381 27.9463C25.1635 27.953 25.1985 28.1907 24.8863 28.1384C10.584 25.5866 16.7726 27.0389 16.4461 27.2693C16.3941 27.3091 16.6261 27.5056 16.6725 27.3031C16.7188 27.1006 16.8809 27.1888 16.8422 27.3172C16.8034 27.4456 16.933 27.4401 17.0023 27.4586C17.3221 27.5443 17.1106 27.2101 17.3087 27.2721C17.3549 27.2845 17.4358 27.3062 17.4085 27.3615C17.2097 27.7157 17.6713 27.4901 17.6504 27.7666C16.1913 27.4025 -0.838477 26.1571 0.0327978 27.6442C0.100484 27.7609 0.0483428 28.0155 0.303779 27.972C2.03277 27.6876 12.3709 28.519 12.4209 28.5324C12.5781 28.5163 12.4751 28.6992 12.5249 28.7752C12.651 28.7821 12.5913 28.5288 12.7538 28.6306C12.6949 28.7267 12.7826 28.9069 12.5978 28.9335C8.01376 29.6036 16.5521 29.3886 21.8886 30.6618C25.6766 31.5649 39.7306 34.471 60.9877 41.21C91.3378 50.8243 86.0003 50.7194 85.2792 50.2531C84.7575 49.9208 78.8717 47.7437 78.7366 47.5553C78.9053 47.5423 79.0485 47.6702 79.2692 47.6174C78.9034 47.3927 78.4787 47.2929 78.0495 47.3309C77.1495 47.6046 80.3347 46.8373 55.7872 40.2598C55.0912 38.5824 21.9611 31.2812 21.9149 31.2689C21.0828 31.0459 21.313 31.5553 21.1416 31.4557C20.6876 31.24 20.2589 31.4206 20.4117 31.0989C20.5115 31.1806 20.6311 31.2313 20.758 31.2456C20.8849 31.2599 21.0145 31.2373 21.1333 31.1803C20.3358 30.9666 20.1236 30.865 20.0831 31.1227C20.0403 31.2814 19.6392 31.0531 19.7014 30.8683C19.5189 30.9019 19.3335 30.8978 19.1553 30.8563C19.1583 31.0138 19.345 30.9339 19.3778 31.0726C18.9105 31.0593 18.2674 30.8556 19.055 30.8607C18.7666 30.582 18.5868 30.8964 18.324 30.9827C22.6209 32.2505 40.8878 35.878 42.1997 36.834C42.2252 36.617 41.9961 36.6854 42.0126 36.5018C42.6082 36.7285 43.2423 36.782 43.8224 37.0359C44.0252 37.1261 44.2542 37.2726 44.487 37.0528C44.4087 37.1003 44.3177 37.1141 44.2329 37.0914C44.1481 37.0686 44.0762 37.0112 44.0324 36.931C44.3042 36.9188 45.401 37.5082 45.4325 37.4987C46.1465 37.6483 46.849 37.847 47.5357 38.0936C47.1461 38.3743 42.9523 36.7088 42.5242 36.8717C42.7342 37.1652 46.7878 38.2783 47.3826 38.5541C48.8504 39.2384 43.0555 37.2603 42.7334 37.5053C42.8309 37.6031 49.7365 39.4758 49.8271 39.8135C49.8376 39.8415 49.8575 39.864 49.8831 39.8766C49.9086 39.8893 49.938 39.8911 49.9657 39.882C50.2414 39.3648 72.5822 46.3898 65.7109 44.5889C60.1066 43.1141 55.2604 41.1261 54.7672 41.3924C55.0061 41.64 56.6815 42.0755 53.0101 41.0917C53.8891 41.1258 56.4289 41.8018 52.6718 40.6921C41.5857 37.3607 30.2547 34.9067 18.7681 33.3493C18.9895 33.4624 19.1369 33.7123 19.4402 33.6906C19.6293 33.6786 19.8125 33.7501 19.7725 33.9901C19.7466 34.0862 19.7915 34.0579 19.8295 34.0546C20.0077 34.0218 20.1425 34.1654 20.3072 34.1826C20.0645 34.1176 19.7859 34.2623 19.5791 33.9875C19.4921 33.8657 19.5853 34.0563 19.5532 34.0836C19.3454 34.1801 19.2774 33.8351 19.2281 33.88C19.1787 33.925 12.7199 32.7854 12.54 32.7327C13.8142 32.3578 14.2129 32.8093 14.2476 32.5276C14.278 32.4149 14.1266 32.3788 14.029 32.3885C12.3927 32.5589 11.0194 32.0298 9.71205 32.5122C9.34421 32.579 8.97052 32.5554 8.61946 32.4433C9.00009 32.7782 14.5928 33.2693 14.659 33.2692C15.0757 33.2555 15.0327 33.5529 16.5997 33.8384C17.1003 33.9278 16.1006 33.8972 15.9989 33.9371C17.5238 34.1801 17.3369 34.1837 17.2267 33.9796C16.9836 34.192 16.8079 33.6793 17.2267 33.9796C17.4794 33.9309 17.3449 34.047 17.2727 34.1307C17.4718 34.2198 17.6826 33.8823 17.8696 34.1384C17.7954 34.1991 17.7155 34.0971 17.6227 34.1349C17.9906 34.4708 18.1668 33.833 18.3456 34.0734C19.5331 35.7975 34.8123 36.7484 11.8731 33.7047C11.5652 33.6669 8.77073 33.5674 8.31222 32.97C8.2296 32.8628 7.746 33.0018 8.08347 33.2668C8.95323 33.9476 10.3234 34.0595 8.58472 33.8131C6.75022 33.5543 11.9448 34.6641 14.5106 35.4278C14.1472 35.3966 13.7811 35.3928 13.415 35.4163C13.4511 35.4662 25.434 38.1174 31.374 39.8791C44.0524 43.6434 12.4591 34.8557 7.33686 34.3965C7.32222 34.4508 33.595 41.1861 36.1055 42.1857C-2.68821 38.5472 27.9634 39.8742 29.7927 42.021C30.4996 42.8461 9.70793 39.4823 8.02079 39.872C21.4289 41.8797 43.3909 46.7705 59.1537 52.0866C59.223 52.1051 60.1112 52.8401 60.6465 52.8313C60.7197 52.8509 60.8809 52.9882 61.029 53.1129C60.2 53.4146 46.1197 48.1553 45.0712 48.7654C45.0275 48.7895 44.9879 48.7834 44.971 48.7385C44.8356 48.3217 43.0338 48.5239 46.3821 49.2196C46.4984 49.891 72.1214 57.3208 75.0145 58.4945C75.4428 58.6675 77.1001 58.9862 77.4859 59.1791C79.5976 60.233 82.9486 59.9533 83.1091 60.3232C83.8599 59.9289 84.9117 60.9763 85.436 59.9661C85.2184 59.8541 84.9419 59.9144 84.745 59.7407C84.7777 59.6196 85.5279 59.5028 83.6326 59.4695C83.6799 59.2941 83.8614 59.4637 84.0877 59.3138C85.1722 58.5702 87.7932 59.0218 82.7992 58.3015C79.6194 57.839 80.2449 57.7558 81.247 57.9303C80.7216 57.7598 80.1741 57.6673 79.6193 57.6554C79.3722 57.6832 78.6918 57.2501 79.1504 57.3417C85.8505 58.6893 83.8365 57.9168 85.1144 57.6816C85.1448 57.5689 84.9449 57.6362 84.9942 57.4837C86.1544 57.3021 86.9217 58.2554 87.2237 57.8707C87.2882 57.785 87.735 58.1958 88.3024 58.1597C87.45 57.8283 87.2925 57.7996 87.3403 57.6378C87.388 57.476 87.4486 57.5728 87.5279 57.5851C87.6072 57.5974 87.5595 57.4682 87.6094 57.4054C88.5214 55.9842 84.7152 55.6539 83.4313 54.8084C83.693 54.7263 87.0379 55.6494 89.5088 57.301C89.9217 57.5773 90.0365 56.7842 90.1055 56.7579C90.3717 56.6591 89.6253 56.486 89.6108 56.3254C89.4785 54.8706 79.298 51.0189 92.6473 56.6913C90.3456 55.0403 88.4011 54.4387 88.2082 54.1586C88.3463 54.1061 88.9025 54.479 88.6429 54.0781C88.4817 53.8334 84.3849 51.7775 83.9343 51.6255C80.2399 50.3445 85.3233 51.729 86.1264 51.4159C86.1161 51.3012 85.9454 51.2599 85.9588 51.1337C86.4077 51.0928 89.4192 52.3788 89.9299 52.9052C89.9916 52.8142 89.8335 52.8032 89.8949 52.6674C90.2956 52.9584 90.8124 53.0028 91.1623 53.4055C91.2143 53.4732 91.389 53.3767 91.5137 53.4504C93.3682 54.4622 92.7069 53.8507 92.5817 53.8709ZM85.7315 52.7428C85.2444 52.4197 85.9395 52.6911 86.0319 52.8233C85.9133 52.8497 85.8368 52.7352 85.7315 52.7428ZM26.4327 20.9637C26.7602 20.8365 26.604 21.1708 26.4327 20.9637C26.2467 21.1019 26.216 20.7713 26.3037 20.7679C26.3914 20.7646 26.3796 20.9002 26.4327 20.9637ZM25.5362 35.9464C25.323 35.8176 25.2658 36.1829 25.097 35.8287C25.0615 35.761 24.9427 35.8187 24.8877 35.701C25.1159 35.789 25.3703 35.6422 25.5588 35.8316C25.8328 35.7348 26.4738 36.023 26.3372 36.0088C26.0595 35.9971 25.6111 36.2351 25.5328 35.9589L25.5362 35.9464ZM21.9044 40.3461C22.092 40.3011 22.2856 40.3338 22.4457 40.4374C22.4833 40.4206 26.6256 41.1589 21.8976 40.3711L21.9044 40.3461ZM76.618 47.1399C76.5988 47.0272 76.4023 47.082 76.4326 46.8932C76.8178 46.9964 77.0293 47.1158 76.6126 47.1295C76.1316 47.3812 75.8016 46.9659 75.4145 46.8084C77.2582 47.186 74.6902 46.4308 73.935 46.3359C74.1003 46.1518 75.9054 46.5504 76.618 47.1399ZM24.3299 34.9202C24.5969 34.8798 32.3753 36.3954 32.8513 36.8364C32.7983 36.849 24.5597 35.1251 24.331 34.916L24.3299 34.9202ZM67.3805 44.096C67.3535 44.0888 57.3179 41.0326 57.3434 40.9992C56.8696 40.8722 57.2284 41.1654 57.0534 41.217C54.7879 39.5846 67.284 43.9941 67.3816 44.0919L67.3805 44.096ZM87.8004 39.31C87.5993 39.4889 87.4604 39.2995 87.3015 39.23C86.9309 39.0725 86.5965 39.0411 86.6436 38.606C86.6805 38.3159 85.886 37.7851 85.7164 37.5561C85.7916 37.9971 87.4994 39.6144 85.8302 38.4821C85.0055 37.9253 85.8326 37.8604 85.5635 37.0047C85.5235 36.8776 85.3102 36.7801 85.42 36.6484C85.4705 36.5992 89.7658 37.5666 87.8015 39.3058L87.8004 39.31ZM70.3137 50.7428C70.2637 50.7294 47.2481 44.2311 47.3129 43.6843C47.1564 43.9737 47.1697 43.8474 45.8513 43.3599C42.8079 42.2534 70.0825 50.4973 70.3126 50.747L70.3137 50.7428ZM34.4355 7.73733C34.3555 8.0338 33.372 7.48373 33.2828 7.66131C33.1937 7.83889 33.4136 7.72772 33.41 7.87898C25.8659 5.86202 23.57 5.43037 34.4344 7.74151L34.4355 7.73733ZM78.0553 48.0444C77.8242 47.9824 77.6664 47.7252 77.4251 47.7009C77.0829 47.638 76.7586 47.5024 76.471 47.302C76.7422 47.2 76.9391 47.4811 77.1626 47.3261C77.128 47.2094 76.9225 47.2976 76.9566 47.1097C77.0178 47.1127 83.5773 49.7478 78.0553 48.0444ZM56.5501 40.9388C56.4103 40.6148 51.0566 39.4669 51.0764 38.9797C57.2443 40.7846 56.774 40.6138 56.5523 40.9305L56.5501 40.9388ZM85.3766 50.6732C83.6515 50.0856 81.8801 49.6692 80.1505 49.0982C81.9774 49.2888 83.7464 49.8188 85.3789 50.6649L85.3766 50.6732ZM26.0557 6.23073C26.0056 6.21731 22.1076 5.55341 22.1695 5.32375C22.2314 5.09409 28.8864 6.63999 26.0557 6.23073ZM37.8248 35.12C39.3738 35.3992 40.8926 35.8181 42.3655 36.3725C40.8671 35.9396 39.3222 35.6331 37.8314 35.1262L37.8248 35.12ZM83.3817 24.2776C81.9511 23.9595 80.5487 23.5284 79.1857 22.9876C80.6089 23.3327 82.0097 23.7634 83.3817 24.2776ZM72.3291 45.628C72.0924 45.7705 71.1324 45.3476 71.0077 45.2739C70.4281 44.8499 70.5288 45.365 70.0716 45.0231C69.5237 44.6345 68.4364 44.6073 68.2679 44.4816C67.9572 44.255 65.3163 43.0191 72.3291 45.628ZM85.9782 34.134C85.9897 33.7699 87.4854 34.6721 86.8788 34.823C86.6619 34.8768 86.8186 35.4292 86.5274 35.1766C86.2809 34.8738 86.0943 34.5196 85.9782 34.134ZM84.7713 52.1676C84.7397 52.2845 80.6462 50.6146 80.7171 50.459C82.1005 50.9471 83.453 51.5218 84.7679 52.1801L84.7713 52.1676ZM81.6627 54.5046C80.4833 54.244 79.3302 53.8781 78.2152 53.4107C79.3455 53.83 80.5959 53.8651 81.6554 54.5161L81.6627 54.5046ZM48.6424 38.4931C48.5962 38.4807 47.7525 38.2547 47.8041 38.0939C47.8717 37.8434 47.6733 38.1349 50.726 38.8544C50.8416 38.8854 50.8859 38.951 50.7803 39.0973C50.6748 39.2437 50.9544 38.9112 48.6341 38.5088L48.6424 38.4931ZM12.5944 32.4697C12.3625 32.5329 12.1955 32.7389 11.9195 32.7053C10.6714 32.5544 10.7412 32.5865 10.7424 32.4749C10.7486 32.2527 11.9161 32.5342 12.586 32.4854L12.5944 32.4697ZM15.4686 29.1789C16.1249 29.1833 16.7752 29.2704 17.4062 29.4384C16.7557 29.3536 16.0648 29.4954 15.4602 29.1946L15.4686 29.1789ZM87.8562 43.4843C88.3352 43.8679 88.9612 43.9819 89.4271 44.353C88.7542 44.2443 87.8856 43.743 87.8562 43.4843ZM15.3416 29.1135C15.119 29.2957 13.9423 29.1863 13.6729 28.9753L15.3416 29.1135ZM30.3516 37.2367C31.0643 37.4276 31.8209 37.4558 32.515 37.7313C32.4884 37.845 32.7363 37.8756 30.3555 37.2377L30.3516 37.2367ZM17.8544 15.8578C16.8406 15.7877 16.8801 15.8251 16.8874 15.7062C16.9115 15.341 17.6155 15.6102 17.8582 15.8589L17.8544 15.8578ZM29.8579 21.8949C30.6328 22.0085 29.5068 22.2933 29.1955 21.8696C29.1299 21.7759 29.4362 21.6207 29.4791 21.7218C29.5789 21.9186 29.7719 21.8002 29.8772 21.9001L29.8579 21.8949ZM18.7373 17.4242C18.8413 17.4521 18.7963 17.6191 18.6979 17.5703C18.3363 17.3794 17.9103 17.6727 17.9207 17.3889C17.9311 17.1052 18.5612 17.3725 18.7566 17.4294L18.7373 17.4242ZM41.2587 8.96565C40.8171 8.88762 40.3385 8.91608 39.9755 8.57705C40.4123 8.73437 40.8713 8.76334 41.2791 8.96664L41.2587 8.96565ZM28.8665 36.8925C28.2882 36.8238 27.7197 36.6955 27.1689 36.5092C27.7559 36.5672 28.332 36.6975 28.8858 36.8976L28.8665 36.8925ZM85.1011 24.2279C86.2298 24.5303 86.0782 25.0314 85.8978 24.8578C85.6144 24.6742 85.3478 24.4634 85.1011 24.2279ZM79.9347 21.8183C79.4566 21.7371 78.9949 21.5817 78.5638 21.3569C80.1086 21.7708 79.947 21.6962 79.9347 21.8183ZM22.6663 34.564C23.1756 34.6512 23.6602 34.8303 24.1668 34.9123C23.6636 34.8178 23.1236 34.8746 22.6663 34.564ZM73.0721 18.5914C73.1149 18.4328 72.9911 18.3862 74.2086 18.896L73.0721 18.5914ZM87.0488 42.6949C87.4299 42.7623 87.7862 42.9284 88.0872 43.1791C87.7162 43.0809 87.3654 42.9173 87.0488 42.6949ZM20.6149 34.2517C20.6307 34.1932 21.5865 34.2791 21.5382 34.4274C21.49 34.5757 21.447 34.4746 20.6149 34.2517ZM52.2594 40.7966C51.9482 40.7759 51.6454 40.6947 51.3657 40.5571C51.6795 40.5628 51.985 40.6447 52.2594 40.7966ZM37.6434 41.6754C37.8796 41.68 38.103 41.7748 38.2735 41.9428C38.0705 41.8839 37.7925 42.0109 37.6473 41.6765L37.6434 41.6754ZM83.4472 24.2951C83.7233 24.2975 83.8808 24.5098 84.1079 24.4185C84.3349 24.3271 84.0448 24.9433 83.4472 24.2951ZM79.9846 49.0852C79.7394 48.8762 79.3576 49.0515 79.1331 48.7809C79.439 48.8006 79.7326 48.9008 79.988 49.0726L79.9846 49.0852ZM73.1631 46.0888C73.2123 45.784 73.079 46.1557 73.7729 46.0641C73.8612 46.043 74.2413 46.3642 73.1665 46.0762L73.1631 46.0888ZM87.1493 43.2412C87.2815 43.3483 87.3858 43.5285 87.6067 43.4444C87.6337 43.4516 87.7142 43.5359 87.7657 43.59C87.9564 43.8022 86.9716 43.4712 87.1296 43.2225L87.1493 43.2412ZM71.1953 17.9229C71.0848 17.9395 70.9733 17.9304 70.8684 17.8961C70.7635 17.8618 70.6678 17.8032 70.5879 17.7243C70.6979 17.6994 70.8108 17.704 70.9163 17.7377C71.0219 17.7715 71.1169 17.8334 71.1925 17.9177L71.1953 17.9229ZM34.5415 40.786C34.6634 40.7618 34.7877 40.7657 34.906 40.7974C35.0243 40.8291 35.1338 40.8879 35.2272 40.9698C34.9838 40.9756 34.7457 40.9149 34.5353 40.7934L34.5415 40.786ZM21.7683 34.3861C21.975 34.4773 22.2261 34.4192 22.4348 34.5647C21.8008 34.5873 21.8008 34.5873 21.7683 34.3861ZM71.0639 48.8798C70.8032 48.8816 70.9181 48.4557 71.0076 48.614C71.0971 48.7723 71.2541 48.68 71.2356 48.8407C71.2131 48.9242 71.1365 48.9172 71.0524 48.8767L71.0639 48.8798ZM85.0779 24.9112L84.2749 24.611C84.5722 24.5997 84.8582 24.7067 85.0779 24.9112ZM29.468 27.4005L28.9287 27.256C29.0253 27.2294 29.1255 27.2287 29.2204 27.2541C29.3152 27.2796 29.4017 27.3302 29.4719 27.4015L29.468 27.4005ZM79.2426 57.5052C79.2223 57.5804 79.332 57.5873 78.3958 57.3365C78.415 57.2655 78.3103 57.2554 79.2426 57.5052ZM88.678 44.4657C88.5323 44.5923 88.4769 44.3536 88.4189 44.3694C88.3609 44.3852 88.2559 44.4377 88.2919 44.3041C88.328 44.1704 88.7766 44.3757 88.678 44.4657ZM78.3538 48.5766L77.5833 48.3701C77.8541 48.3737 78.1177 48.4444 78.3538 48.5766ZM41.4437 36.3135C41.5246 36.3352 41.6777 36.2732 41.6161 36.4403C41.5902 36.5363 41.4417 36.4742 41.4238 36.4335C41.2468 35.9563 40.9183 36.5309 41.4415 36.3219L41.4437 36.3135ZM29.8741 27.2273L29.3271 27.0807C29.5205 27.0833 29.7362 26.9575 29.8741 27.2273ZM75.4288 56.6668L74.7122 56.4748C74.9638 56.4796 75.2088 56.5452 75.4288 56.6668ZM29.5739 37.0417C29.7832 37.0174 29.9907 37.0729 30.1595 37.1986C29.9653 37.1376 29.7659 37.1111 29.5739 37.0417ZM27.3696 20.9819C27.4217 21.0182 27.5542 20.9866 27.5181 21.1202C27.4821 21.2538 27.3714 21.1436 27.2974 21.173C27.0853 21.2549 27.2279 20.8947 27.3696 20.9819ZM72.606 45.6887L73.0875 45.8178C72.8589 46.0834 72.7776 45.6497 72.606 45.6887ZM49.3341 33.0326C49.234 33.044 49.1337 33.0318 49.0404 32.9967C48.947 32.9616 48.8629 32.9046 48.794 32.8296C48.9895 32.8446 49.1758 32.9146 49.3341 33.0326ZM26.8702 21.0719C26.8385 21.0366 26.7275 21.0651 26.7419 20.9659C26.7844 20.655 27.2575 21.1981 26.8702 21.0719ZM20.3552 31.4464C20.178 31.3989 20.0331 31.4765 19.8967 31.3235C20.0639 31.3012 20.2015 31.2351 20.3552 31.4464ZM46.7511 10.9164L46.777 10.8204C46.9232 10.9983 47.754 11.2568 46.7511 10.9164ZM52.8357 40.942C52.6368 40.9719 52.438 40.9186 52.2809 40.7934C52.4783 40.7788 52.6723 40.8308 52.8357 40.942ZM84.8643 52.2821C85.0613 52.2408 85.1583 52.4325 85.319 52.4801C85.2327 52.4871 85.1468 52.4729 85.068 52.4386C84.9892 52.4043 84.9195 52.3507 84.8643 52.2821ZM86.1731 42.1737C86.0306 42.1355 85.8551 42.1736 85.774 41.9996L86.1731 42.1737ZM35.1979 29.9567C35.1529 30.1237 34.8659 29.9931 34.9013 29.8772C34.9366 29.7613 35.2211 29.8554 35.194 29.9556L35.1979 29.9567ZM31.3169 37.3028C31.091 37.39 31.0243 37.1931 30.8893 37.1882C30.964 37.172 31.0405 37.1737 31.1131 37.1932C31.1857 37.2126 31.2527 37.2494 31.3092 37.3007L31.3169 37.3028ZM80.952 48.8832C81.148 48.8148 81.2873 48.9417 81.4412 49.0143L80.952 48.8832ZM62.7037 43.8996C62.4829 43.8762 62.3717 43.7524 62.2145 43.7685C62.3006 43.7387 62.3917 43.7352 62.4775 43.7581C62.5633 43.7811 62.6404 43.8298 62.6999 43.8985L62.7037 43.8996ZM62.8193 43.9305C63.1383 43.9578 63.1383 43.9578 63.2354 44.042C63.088 44.0399 62.9442 44.0029 62.8143 43.9337L62.8193 43.9305ZM62.4234 42.1051C62.3446 42.138 62.2592 42.1442 62.1791 42.1227C62.099 42.1012 62.0282 42.0532 61.9765 41.9854C62.1314 41.9934 62.2817 42.0352 62.4184 42.1083L62.4234 42.1051ZM21.7889 18.6538C21.9988 18.3653 22.1443 18.561 22.0672 18.6478C21.9901 18.7346 21.9141 18.6336 21.7889 18.6538ZM79.4844 22.217C79.5548 22.189 79.6312 22.1887 79.6996 22.216C79.7681 22.2434 79.824 22.2967 79.8572 22.3661L79.4844 22.217ZM33.0255 36.7264L33.3876 36.8234C33.1349 36.8721 33.1349 36.8721 33.0216 36.7253L33.0255 36.7264ZM66.3122 16.4085C66.0997 16.5531 65.8892 16.3534 66.0117 16.328C66.0644 16.3123 66.1194 16.3114 66.1714 16.3253C66.2234 16.3392 66.2706 16.3676 66.3083 16.4075L66.3122 16.4085ZM50.7964 40.3553C50.666 40.4099 50.5306 40.4676 50.4111 40.252L50.7964 40.3553ZM33.0981 6.41636C33.0042 6.43485 32.9085 6.43179 32.8175 6.4074C32.7265 6.38301 32.6422 6.33786 32.5703 6.27494L33.0981 6.41636ZM24.466 35.7178C24.5965 35.6319 24.7001 35.5388 24.7844 35.7315C24.7322 35.7593 24.6748 35.7725 24.6176 35.7697C24.5605 35.7669 24.5056 35.7484 24.4583 35.7158L24.466 35.7178ZM80.4758 48.6884C80.5458 48.6698 80.6186 48.6732 80.6852 48.6982C80.7518 48.7232 80.8093 48.7687 80.8509 48.8292L80.4758 48.6884ZM36.5839 34.0845C36.5195 34.1132 36.4485 34.1163 36.3841 34.0933C36.3197 34.0703 36.2662 34.0227 36.2335 33.9593C36.3157 34.053 36.462 34.016 36.5762 34.0825L36.5839 34.0845ZM21.5357 40.3502C21.4184 40.3553 21.3047 40.317 21.2138 40.2416C21.3029 40.2789 21.4547 40.145 21.5246 40.3607L21.5357 40.3502ZM50.0543 33.2569C49.9388 33.2259 49.8243 33.2982 49.8027 33.1178C49.9026 33.0998 49.9712 33.1361 50.0543 33.2569ZM21.8705 25.5663C22.039 25.5846 22.1262 25.5676 22.2557 25.6695C22.1873 25.6904 22.1157 25.6919 22.048 25.6738C21.9804 25.6557 21.9192 25.6186 21.8705 25.5663ZM27.73 21.177C28.0667 20.909 27.9151 21.3027 27.7897 21.2467C27.76 21.2343 27.7421 21.1936 27.73 21.177ZM83.0019 54.4247C83.0944 54.4495 83.2262 54.3281 83.3024 54.5052C83.249 54.5199 83.1935 54.5202 83.141 54.5062C83.0886 54.4921 83.0408 54.4641 83.0019 54.4247ZM69.1418 14.5699C68.9808 14.7685 68.8753 14.6238 68.9158 14.5809C68.9562 14.538 69.0405 14.5472 69.1418 14.5699ZM21.7096 26.8216C21.5262 26.9963 21.4027 26.811 21.4785 26.7596C21.5543 26.7083 21.6189 26.7749 21.7096 26.8216ZM61.5797 43.5491C61.5887 43.5157 61.5429 43.5169 61.9705 43.6315C61.9461 43.6607 61.9919 43.6596 61.5797 43.5491ZM49.438 33.0917C49.5095 32.9184 49.7991 33.1617 49.4875 33.199C49.4463 33.1835 49.4238 33.1596 49.438 33.0917ZM29.5964 6.13624L29.3586 5.99193C29.5292 5.92573 29.5778 6.00591 29.602 6.11537L29.5964 6.13624ZM78.5548 21.9724C78.7212 21.8916 78.7897 21.9592 78.9054 22.0663C78.8424 22.0782 78.7782 22.074 78.7183 22.0541C78.6583 22.0341 78.6042 21.999 78.5605 21.9515L78.5548 21.9724ZM20.4195 31.4681C20.5199 31.4637 20.6307 31.359 20.7236 31.5048C20.6196 31.532 20.5115 31.5143 20.4229 31.4556L20.4195 31.4681ZM50.8774 39.1815C50.8741 39.0866 50.8613 39.0116 50.9178 38.9551C50.9743 38.8986 51.1112 39.0651 50.8785 39.1774L50.8774 39.1815ZM50.4574 39.5749C50.5986 39.465 50.7141 39.496 50.6885 39.6369L50.4574 39.5749ZM40.7637 36.185C40.8582 36.1566 40.9224 36.1022 40.9855 36.1594C41.0485 36.2166 40.9676 36.3024 40.7649 36.1809L40.7637 36.185ZM65.4165 16.5133C65.6069 16.4658 65.6871 16.5052 65.741 16.6271L65.4165 16.5133ZM45.5469 32.264C45.4103 32.3573 45.2431 32.3796 45.2606 32.2231L45.5469 32.264ZM65.5657 15.6533C65.5939 15.5489 65.7083 15.6915 65.7158 15.7249C65.7233 15.7582 65.5441 15.764 65.5657 15.6533ZM17.4116 17.3466C17.5031 17.1606 17.5791 17.2616 17.5428 17.3504C17.483 17.4955 17.4657 17.4372 17.4116 17.3466ZM26.8138 36.432C26.652 36.3886 26.5598 36.4087 26.4914 36.2337L26.8138 36.432ZM69.8249 17.2602C69.9328 17.2891 69.8411 17.4302 69.7867 17.4022C69.7322 17.3742 69.7363 17.2365 69.8261 17.256L69.8249 17.2602ZM30.0772 27.1787C30.1474 27.3318 30.1531 27.311 30.0038 27.2978C29.9487 27.2875 29.8922 27.2366 30.0783 27.1745L30.0772 27.1787ZM21.3463 31.5239C21.3835 31.3861 21.5464 31.4253 21.5228 31.513C21.4991 31.6007 21.3333 31.5876 21.3474 31.5197L21.3463 31.5239ZM82.1612 54.7546C82.0123 54.755 81.8561 54.7982 81.93 54.6927C82.0039 54.5871 82.0474 54.7017 82.1612 54.7546ZM60.2559 43.1273C60.2649 43.0939 60.2308 43.0981 60.5274 43.1776C60.515 43.2236 60.5526 43.2068 60.2559 43.1273ZM50.1217 40.1611C50.1506 40.2225 50.2101 40.3235 50.0891 40.2822C50.044 40.2656 49.9832 40.2001 50.1217 40.1611ZM45.9247 10.8562C45.9198 10.8265 45.9253 10.7955 45.94 10.769C45.9548 10.7425 45.9779 10.7222 46.0049 10.712C46.009 10.7416 46.0032 10.7722 45.9885 10.7985C45.9739 10.8249 45.9513 10.8452 45.9247 10.8562ZM37.3201 41.6336C37.3359 41.5751 37.4808 41.5737 37.4588 41.6707C37.4367 41.7678 37.2722 41.7193 37.3201 41.6336ZM70.3243 17.6448C70.4515 17.3878 70.5011 17.8623 70.3684 17.7416C70.3365 17.7376 70.3323 17.6917 70.3243 17.6448ZM71.7613 18.0298C71.7613 18.0298 71.7996 18.0714 71.7951 18.0881C71.69 18.3554 71.5887 18.0417 71.7613 18.0298ZM81.0931 22.6391C81.2164 22.6721 81.3466 22.6488 81.2783 22.7335C81.21 22.8181 81.1657 22.7525 81.0897 22.6516L81.0931 22.6391ZM60.9959 30.686C61.0823 30.6107 61.1384 30.5406 61.2384 30.5988C61.1794 30.6949 61.1339 30.7409 60.9959 30.686ZM86.9741 42.6346C86.8167 42.7894 86.8155 42.4265 86.9437 42.5638C86.9577 42.5851 86.968 42.6091 86.9741 42.6346ZM30.1549 27.4726C29.9662 27.6056 29.8743 27.487 29.9263 27.4472C29.9783 27.4074 30.0498 27.4489 30.1538 27.4768L30.1549 27.4726ZM88.7914 44.5812C88.7897 44.4956 88.9184 44.5391 88.9357 44.5974C88.953 44.6558 88.8035 44.674 88.7914 44.5812ZM17.0268 27.2145C17.1848 27.2568 17.1963 27.2599 17.1416 27.2945C17.1287 27.3004 17.1149 27.3029 17.1012 27.3018C17.0875 27.3006 17.0744 27.2959 17.0631 27.288C17.0518 27.2802 17.0425 27.2693 17.0362 27.2565C17.0299 27.2437 17.0267 27.2292 17.0268 27.2145ZM34.8278 29.8127C34.8021 30.061 34.7548 29.9454 34.7825 29.8274C34.7847 29.8191 34.814 29.818 34.8278 29.8127ZM84.8396 53.2471C84.9881 53.2018 85.0387 53.2288 85.0977 53.3162L84.8396 53.2471ZM85.1075 54.2143C85.0618 54.108 85.0825 54.0464 85.1919 54.0086C85.1721 54.0973 85.1772 54.1703 85.1003 54.2258L85.1075 54.2143ZM45.7244 32.3564C45.7683 32.301 45.7402 32.2979 45.8325 32.354C45.7703 32.4314 45.7984 32.4344 45.7172 32.3679L45.7244 32.3564ZM78.8791 48.6815C78.9784 48.6499 79.0205 48.6164 79.0023 48.7145C78.9841 48.8126 78.9355 48.8398 78.8718 48.6929L78.8791 48.6815ZM78.7481 48.6464C78.641 48.6759 78.5744 48.6625 78.5246 48.5865C78.5642 48.5808 78.604 48.5846 78.6412 48.5976C78.6785 48.6107 78.7121 48.6327 78.7397 48.662L78.7481 48.6464ZM21.7795 31.434C21.7727 31.4591 21.8226 31.5038 21.8159 31.5288C21.7755 31.6479 21.5353 31.4358 21.7711 31.4497L21.7795 31.434ZM22.2176 19.3462C22.0886 19.1505 22.3013 19.1582 22.2799 19.2376C22.2585 19.3169 22.2343 19.3149 22.2093 19.3619L22.2176 19.3462ZM41.9307 36.453C41.8202 36.6024 41.7576 36.5588 41.6703 36.4996L41.9307 36.453ZM22.5672 19.413C22.5549 19.3515 22.5366 19.3735 22.6158 19.3096C22.6578 19.3836 22.6761 19.3616 22.5679 19.3953L22.5672 19.413ZM20.6214 13.792C20.5911 13.6898 20.5782 13.7222 20.6597 13.65C20.6911 13.748 20.6941 13.6906 20.622 13.7742L20.6214 13.792ZM13.2346 28.7012C13.3316 28.6018 13.3477 28.6956 13.3078 28.7208C13.268 28.7459 13.2521 28.7283 13.2353 28.6835L13.2346 28.7012ZM83.2477 23.794C83.2797 23.781 83.3142 23.7786 83.3466 23.7873C83.379 23.796 83.4077 23.8152 83.4288 23.8425C83.3969 23.8568 83.362 23.8599 83.3294 23.8511C83.2967 23.8423 83.268 23.8223 83.2477 23.794ZM80.2362 22.4005C80.1592 22.3799 80.089 22.4103 80.013 22.3093C80.1115 22.3268 80.1822 22.3099 80.2362 22.4005ZM80.8496 22.1171C80.8082 22.1251 80.7661 22.1201 80.7282 22.1028C80.6904 22.0855 80.6585 22.0567 80.6363 22.0197C80.7288 22.0445 80.7946 21.9994 80.8464 22.0984L80.8496 22.1171ZM13.5311 28.7045C13.6197 28.7283 13.594 28.9005 13.4719 28.7558L13.5311 28.7045ZM65.1075 16.3723C65.186 16.3262 65.2096 16.4533 65.138 16.4431C65.0664 16.4329 65.0924 16.413 65.1075 16.3723ZM37.5206 35.1146C37.6186 35.0423 37.7379 34.9982 37.6987 35.113C37.6594 35.2279 37.6047 35.155 37.5206 35.1146ZM74.0596 18.5292L74.0483 18.571C73.9243 18.4795 73.9209 18.492 74.0596 18.5292ZM57.613 42.2668C57.7611 42.2842 57.7615 42.4052 57.641 42.3774C57.5204 42.3495 57.6584 42.2208 57.613 42.2668ZM55.7668 41.8214C55.7062 41.7246 55.8548 41.7555 55.8516 41.8442L55.7668 41.8214ZM60.9104 43.2892C61.0587 43.2752 61.1086 43.4274 60.983 43.4027C60.9472 43.3976 60.9076 43.3914 60.9104 43.2892ZM59.7277 42.9723C59.8539 42.9792 59.93 42.9728 59.9725 43.0603C59.883 43.0856 59.8254 43.0388 59.7299 42.9639L59.7277 42.9723ZM84.0817 62.5225C84.2342 62.738 83.4802 62.93 83.82 63.1866C83.7834 63.1231 83.1598 63.5515 83.1193 63.5944C83.7327 63.7095 83.99 63.4292 84.0774 63.672C81.9316 63.6791 83.0601 64.1203 82.6124 64.0496C81.3409 63.8477 81.1018 64.3209 81.4637 64.2656C81.7268 64.2242 81.9362 64.4281 82.1976 64.4085C82.4589 64.389 82.2469 64.5471 82.2482 64.6191C82.7535 64.5948 83.2582 64.6133 83.7575 64.6743C83.695 65.1053 79.6274 64.3198 79.5694 64.3356C84.3052 67.3463 48.4212 55.5059 48.366 55.5269C48.3468 55.7054 48.651 55.6033 48.4901 55.802C48.4474 55.8532 47.9871 55.7523 48.1285 55.6111C48.8111 54.9791 22.2632 48.0537 3.23467 46.3622C1.81445 46.2369 0.279978 45.0646 14.5547 46.9374C14.7541 46.9639 15.1273 46.7595 13.7526 46.5881C17.3675 44.5793 84.0501 62.4558 84.0817 62.5225ZM53.834 52.8192C53.9198 52.9452 65.918 56.9034 65.9365 56.9575C66.3744 57.6927 82.3259 60.5163 82.8761 60.7891C82.2939 60.3286 76.9672 59.5864 76.9148 59.5813C74.7037 59.356 53.7865 52.8423 53.8385 52.8025L53.834 52.8192ZM66.0429 56.7622C66.5852 56.7732 66.5973 56.866 69.1695 57.6671C68.1011 57.4623 67.0562 57.1538 66.0474 56.7455L66.0429 56.7622ZM43.8182 48.5102C43.707 48.279 40.3232 47.914 40.613 47.6514C40.8136 47.4589 39.9075 47.8474 39.2896 47.458C39.4134 47.3971 39.5402 47.4938 39.7035 47.3629C33.9161 45.8116 28.022 44.6811 22.0608 43.9788C22.219 44.066 36.4551 46.8328 37.8153 47.3495C38.3966 47.5679 37.6856 47.57 38.1341 47.6991C38.2073 47.7187 38.319 47.7486 38.312 47.6214C38.301 47.417 38.3976 47.4876 38.4862 47.5114C48.1153 50.0377 43.82 48.4883 43.8227 48.4935L43.8182 48.5102ZM38.9636 47.3035C38.8531 47.3498 38.7355 47.3701 38.619 47.3628C38.5025 47.3556 38.3899 47.321 38.2892 47.2616C38.2944 47.1197 38.335 47.153 38.9648 47.2993L38.9636 47.3035ZM37.7741 47.1191C37.5311 47.1166 37.3551 47.1411 37.3019 46.8941C37.4944 46.8695 37.6013 46.9788 37.7863 47.1044L37.7741 47.1191ZM36.2507 46.7332C36.421 46.7296 36.421 46.7296 36.4959 46.8348C36.3999 46.8538 36.3359 46.7695 36.2629 46.7186L36.2507 46.7332ZM51.5083 8.28686C39.9234 5.41552 40.2415 4.90976 40.9685 5.21647C41.548 5.45684 51.6127 7.96112 51.5226 8.29517L51.5083 8.28686ZM22.9502 1.67796C22.9333 1.74059 22.8769 1.76579 22.8485 1.71789C22.1561 0.471233 12.8212 0.607106 23.4636 1.52005C24.1699 1.62432 24.8615 1.80513 25.5281 2.05976C25.4122 2.16753 22.9746 1.64869 22.9567 1.6842L22.9502 1.67796ZM75.9088 15.8995C75.7152 15.8208 75.7883 15.6568 75.9549 15.7283C76.1215 15.7998 79.3692 16.7462 79.3962 16.7534C92.2971 20.3355 79.3285 17.2188 75.9088 15.8995ZM30.3011 2.8641C30.426 3.38113 32.7578 2.94477 26.907 2.16956C22.7994 1.62413 30.196 3.13143 30.2972 2.86307L30.3011 2.8641ZM27.016 2.48533C26.8983 2.35527 27.1359 2.34729 27.1117 2.42142C27.0876 2.49555 27.0623 2.49771 27.0122 2.48429L27.016 2.48533ZM54.4462 12.2664C55.1391 12.5461 58.0831 13.2857 58.1815 13.6255C57.9227 13.3905 57.9718 13.7752 57.8428 13.6869C57.6679 13.5653 57.4648 13.4955 57.253 13.4842C57.1473 13.4782 57.2029 13.1797 57.0269 13.3116C56.8509 13.4436 56.7928 13.0922 56.6147 13.2012C56.5914 13.2186 56.5651 13.2305 56.5376 13.2361C56.51 13.2417 56.4819 13.2409 56.4552 13.2338C56.4284 13.2266 56.4037 13.2132 56.3827 13.1946C56.3617 13.176 56.3449 13.1525 56.3335 13.1258C56.1049 12.7019 55.9349 13.3324 55.7054 12.9889C55.4758 12.6453 54.8155 12.7504 54.7585 12.6859C54.6761 12.5935 54.5764 12.5206 54.4654 12.4716C54.3544 12.4226 54.2344 12.3986 54.1125 12.4009C54.1472 12.1191 54.3263 12.2208 54.4423 12.2654L54.4462 12.2664ZM36.0841 4.21217C35.8325 4.25669 31.3806 3.1041 31.1707 3.46874C31.3236 3.14703 30.9757 3.16574 30.9533 2.92693C32.9395 3.55763 36.1772 3.92818 36.0859 4.19026L36.0841 4.21217ZM54.7795 13.0676C56.3868 13.4515 57.9668 13.9407 59.5108 14.5324C58.9233 14.4287 54.9289 13.2644 54.7795 13.0676ZM18.5588 30.786C17.1853 30.6866 17.9077 30.719 17.7308 30.8999C11.332 29.1854 18.5734 30.7317 18.5626 30.787L18.5588 30.786ZM62.165 14.8764C62.2179 14.6802 62.9015 14.9484 63.1933 14.9997C64.0627 15.161 63.8444 15.6488 63.5182 15.4494C63.0518 15.1722 62.1004 15.177 62.165 14.8764ZM92.3922 51.5098C92.706 51.3879 94.4316 52.6786 95.0214 52.9575C94.8413 53.1197 92.3232 51.5361 92.3922 51.5098ZM50.2381 51.6632C51.7223 51.8728 51.5842 52.3238 51.8 52.1668C52.0159 52.0097 52.0745 52.1597 52.1943 52.2366C52.4271 52.3841 51.8893 52.3564 51.8375 52.3649C51.4285 52.4568 51.2194 51.8231 50.7704 52.0789C50.7355 52.1009 50.6343 51.8634 50.583 51.8854C50.3559 51.9768 50.0955 51.625 50.2381 51.6632ZM53.9409 12.3325C53.8485 12.5988 53.211 11.9757 52.5328 12.0089C52.4866 11.9966 52.1566 11.8723 52.1893 11.7512C52.2219 11.6301 54.0284 12.0694 53.9432 12.3241L53.9409 12.3325ZM95.9733 47.1906C95.1602 46.9312 94.3812 46.5722 93.6512 46.1207C94.4971 46.3384 95.2053 46.8371 95.9733 47.1906ZM62.1 15.347C60.5051 14.9197 61.3414 15.1885 61.2212 15.3891C61.1767 15.4623 60.9092 15.3055 60.9543 15.2147C61.1207 14.8428 60.8412 15.1441 60.1861 14.7088C62.3742 15.2952 62.1505 15.1904 62.1077 15.3491L62.1 15.347ZM86.3148 19.834C85.2495 19.4187 84.233 19.0523 83.2059 18.7099C84.1414 18.8711 86.0704 19.576 86.3225 19.8361L86.3148 19.834ZM83.9001 64.023C83.4665 64.0993 81.1501 64.0652 84.9551 63.8176C84.6558 64.2076 84.2643 63.9594 83.9117 64.0261L83.9001 64.023ZM59.4736 14.0881C58.8001 14.2882 57.6206 13.3006 59.0104 13.8297C59.6253 14.0616 60.2382 13.8721 59.7273 14.3576C59.8874 13.9169 59.474 14.3165 59.4852 14.0912L59.4736 14.0881ZM39.3714 4.98106C39.1866 5.00766 39.0592 4.8213 38.8763 4.90213C38.8238 4.92836 38.7543 4.83364 38.8502 4.73845C38.9935 4.94249 39.1948 4.73224 39.3652 4.80478C39.6968 4.9832 40.0634 5.08142 40.44 5.09277C40.7306 5.07214 40.3522 5.41847 39.7897 5.08418C39.6221 4.98556 39.707 5.19185 39.6323 5.239C39.6378 5.2024 39.6351 5.1653 39.6245 5.13073C39.6139 5.09617 39.5957 5.06517 39.5713 5.04026C39.547 5.01536 39.5172 4.99727 39.4844 4.98752C39.4517 4.97776 39.4169 4.97661 39.3829 4.98415L39.3714 4.98106ZM77.3585 60.6628C76.2666 60.4859 75.1918 60.2218 74.143 59.8729C75.2135 60.1463 76.2921 60.4353 77.3585 60.6628ZM79.9574 21.1214C80.7262 21.3079 81.4817 21.5447 82.2198 21.8306C81.4488 21.6524 80.6928 21.4154 79.9574 21.1214ZM38.1007 4.62269C37.4788 4.66199 36.2592 4.23672 36.7823 4.24254C37.1245 4.24471 38.1708 4.51609 38.1019 4.61851L38.1007 4.62269ZM81.6147 18.2075C79.4073 17.616 79.6151 17.703 79.641 17.607C81.8485 18.1985 81.6445 18.1125 81.6147 18.2075ZM37.7463 30.0037C37.3606 29.7795 38.7348 30.0447 38.7572 30.1761C38.8006 30.3982 38.1412 30.2394 37.7463 30.0037ZM54.6275 12.9418C54.6738 12.9542 55.1316 13.2784 53.3272 12.6785C53.8005 12.6083 54.1954 12.844 54.6275 12.9418ZM15.5974 32.2401C15.7479 32.0341 15.8568 32.2738 16.0017 32.2723C17.37 32.2225 17.0228 32.5146 16.9315 32.4856C16.2641 32.2799 15.4513 32.5367 15.6189 32.2369L15.5974 32.2401ZM79.5009 17.6366C76.7775 16.7681 77.2629 16.8981 79.5358 17.5071L79.5009 17.6366ZM84.9575 22.2328C84.2939 22.0874 83.6538 21.8512 83.0527 21.5299C83.6414 21.813 84.314 21.8768 84.9432 22.2245L84.9575 22.2328ZM24.5157 20.8575C24.5618 20.6101 24.874 20.9535 25.5936 20.9045C25.6009 20.957 25.5975 21.0111 25.5835 21.063C25.5695 21.1149 25.5453 21.1634 25.5125 21.2052C25.122 20.9528 24.4852 21.0015 24.5169 20.8533L24.5157 20.8575ZM82.4058 61.9973C82.9283 61.9896 83.4357 62.2374 83.961 61.8364C83.7758 62.2167 82.547 62.362 82.3992 61.9911L82.4058 61.9973ZM60.6151 14.5731C60.3601 14.6301 60.397 14.1564 60.495 14.2678C60.5931 14.3791 60.873 14.1989 60.8803 14.371C60.8587 14.7727 61.0207 14.4937 61.1384 14.4402C61.1211 14.9639 60.6665 14.551 60.6085 14.5668L60.6151 14.5731ZM35.1158 36.0059C34.6976 35.8918 34.2714 35.8089 33.8401 35.7581C34.0566 35.5833 34.8444 35.7407 35.1092 35.9997L35.1158 36.0059ZM17.7875 25.5423C17.9364 25.5419 17.8918 25.7225 17.7459 25.6968C17.3516 25.627 16.8306 25.859 16.8186 25.6274C16.9083 25.5709 16.7121 25.5631 17.7753 25.5569L17.7875 25.5423ZM52.3335 52.3635C52.4162 52.1796 52.4335 52.4216 52.6161 52.4033C52.9304 52.3712 52.9765 52.4149 52.9326 52.7613C52.7369 52.5835 52.2392 52.5755 52.3335 52.3635ZM50.3877 11.2327C50.444 11.0239 50.6833 11.285 50.9582 11.3228C51.233 11.3606 51.1326 11.4726 51.0612 11.6146C50.77 11.362 50.3399 11.3945 50.3877 11.2327ZM71.8955 57.5916C71.4095 57.5369 70.9323 57.4271 70.472 57.264C70.9279 57.3503 71.4429 57.3092 71.8955 57.5916ZM19.519 25.8003C19.7107 26.1158 20.0853 25.952 20.3854 26.0951C20.239 26.1633 19.3215 26.2264 19.519 25.8003ZM21.4416 4.69891L20.1317 4.45538C20.585 4.41877 21.0349 4.50243 21.4416 4.69891ZM80.0097 60.8493L81.326 61.023C80.8761 61.0799 80.4246 61.0203 80.0097 60.8493ZM52.0636 11.6504C52.1911 11.9129 51.6131 11.7893 51.5722 11.7112C51.4925 11.4705 51.4129 11.7044 51.3226 11.7025C51.3586 11.4615 51.9993 11.5212 52.0636 11.6504ZM18.8218 32.522C16.9635 32.5658 17.4621 32.1263 18.8218 32.522V32.522ZM51.5215 8.29935C51.7941 8.22607 52.078 8.2517 52.328 8.37217C52.6116 8.69891 51.4876 8.34847 51.5215 8.29935ZM18.8081 32.496C19.1801 32.4567 19.5525 32.4986 19.9027 32.6191C19.7423 32.6164 18.906 32.746 18.8081 32.496ZM86.4547 51.8531C86.9356 51.9262 87.39 52.1168 87.7832 52.4105C87.3549 52.2062 86.9039 52.0406 86.4547 51.8531ZM20.4194 25.8311C20.4488 25.5077 22.2232 26.2652 20.6026 25.9026C20.5726 25.8453 20.409 26.0074 20.4271 25.8332L20.4194 25.8311ZM53.3536 8.78131C53.1876 8.80824 53.0197 8.792 52.8642 8.73395C52.7086 8.6759 52.5701 8.57779 52.4604 8.44796C52.7763 8.51082 53.0799 8.62384 53.3613 8.78337L53.3536 8.78131ZM82.9903 61.254C82.5365 61.1906 82.0653 61.2837 81.6294 61.0774C83.1748 61.1825 83.0119 61.1434 82.998 61.2561L82.9903 61.254ZM49.2801 7.86444C48.8362 7.79476 48.4514 7.5215 47.9895 7.51863C48.4427 7.54264 48.8836 7.66077 49.2878 7.8665L49.2801 7.86444ZM46.4252 55.1412C46.714 55.25 47.0658 55.1248 47.3594 55.4453C47.0265 55.4419 46.7052 55.3372 46.433 55.1433L46.4252 55.1412ZM19.4357 20.15C19.9356 20.257 19.0496 20.4942 18.8971 20.1713C19.0897 20.2229 19.2718 20.0837 19.449 20.1312L19.4357 20.15ZM23.732 20.8534C23.5971 20.8173 23.5831 20.6703 23.7578 20.6812C24.955 20.7603 24.1447 20.9774 23.7453 20.8346L23.732 20.8534ZM83.8168 63.1679C83.9443 63.0319 83.5684 62.9401 84.7554 63.1642C84.7978 63.1755 84.84 63.2182 84.7892 63.3299C84.4891 63.1799 84.1525 63.1238 83.8168 63.1679ZM53.8308 52.8005C53.6446 52.8938 53.1703 52.6459 53.2071 52.5707C53.2891 52.4046 53.7383 52.5921 53.8209 52.8067L53.8308 52.8005ZM91.1168 31.4992C90.8493 31.2699 90.596 31.0226 90.3582 30.7586C90.3078 30.8078 90.9075 30.8968 91.1168 31.4992ZM45.9254 54.9267C46.0714 55.136 45.5436 54.9946 45.3245 54.9493C45.4153 54.8821 45.5215 54.8443 45.6298 54.8406C45.7381 54.837 45.8436 54.8676 45.9331 54.9288L45.9254 54.9267ZM11.9268 28.7716C11.8032 28.8012 11.4937 28.4631 12.4722 28.7252C12.2533 28.8323 12.0958 28.7274 11.9346 28.7737L11.9268 28.7716ZM18.6466 5.38272C18.9781 5.35611 19.3061 5.4285 19.594 5.59181C19.2681 5.51345 18.9437 5.47576 18.635 5.37962L18.6466 5.38272ZM84.9645 22.8347C86.0547 23.2342 85.9261 23.1595 85.8925 23.2535C84.772 22.8592 84.9126 22.9506 84.953 22.8316L84.9645 22.8347ZM74.9361 15.4777C74.6434 15.4956 74.3561 15.4186 74.1117 15.2568L74.9361 15.4777ZM84.7788 60.596C85.109 60.5524 85.4241 60.4064 85.6851 60.1762C85.5985 60.3491 85.4587 60.4859 85.2906 60.5622C85.1224 60.6386 84.9369 60.6494 84.7672 60.5929L84.7788 60.596ZM61.863 15.4447C61.9593 15.4705 62.1258 15.7569 61.5936 15.5247C61.2982 15.5172 61.1708 15.3309 61.8515 15.4416L61.863 15.4447ZM36.2687 4.50789C37.1653 4.64514 37.1913 4.62524 37.1702 4.74943C37.1491 4.87362 36.2281 4.58207 36.2617 4.4881L36.2687 4.50789ZM78.6193 60.5215L79.6478 60.7972C79.2817 60.8265 78.9213 60.7299 78.6193 60.5215ZM15.027 16.9986C15.0619 16.8692 16.2404 16.9566 15.1828 17.1255C15.1153 17.085 15.0077 17.1009 15.027 16.9986ZM45.7854 49.0732C45.9408 49.079 45.9107 49.2366 45.7393 49.2444C45.699 49.256 44.7638 49.0323 45.7854 49.0732ZM17.1499 32.9471C17.1846 32.9564 17.2409 33.0386 17.1897 33.0294C17.003 33.0017 17.0802 33.2821 17.0717 33.2216C17.0485 33.0319 16.1983 32.7996 17.1499 32.9471ZM75.8646 59.9222C75.5008 59.9281 75.1419 59.8623 74.8058 59.7281L75.8646 59.9222ZM37.3688 4.71758C37.637 4.74235 37.8958 4.82386 38.1303 4.95744C37.8767 4.87157 37.5572 4.93819 37.3688 4.71758ZM53.7529 9.21518C52.5972 8.9055 53.464 9.13774 53.5924 8.8453C53.5997 9.0174 53.5884 9.16661 53.7529 9.21518ZM82.7835 21.4712C82.4865 21.2707 82.1026 21.3156 81.8139 21.0995C82.1607 21.1535 82.4895 21.2874 82.7779 21.4921L82.7835 21.4712ZM86.298 51.5917C85.9792 51.7167 85.3828 51.539 85.7045 51.464C85.8804 51.547 86.0964 51.466 86.2923 51.6126L86.298 51.5917ZM44.8267 54.5741C44.9539 54.6082 45.0238 54.7165 45.1883 54.7651C44.874 54.9808 44.4813 54.5532 44.8267 54.5741ZM86.9155 23.841C87.2136 23.8917 87.4997 23.9956 87.762 24.1484C87.4668 24.1076 87.1844 24.0045 86.9309 23.8451L86.9155 23.841ZM21.2576 26.3378L20.4737 26.1815C20.7537 26.1255 21.0387 26.1827 21.273 26.3419L21.2576 26.3378ZM15.5919 32.2297C15.2927 32.1137 14.9475 32.245 14.6541 32.0769C14.7219 32.0861 15.8255 32.1445 15.6073 32.2338L15.5919 32.2297ZM82.64 21.988C82.8649 22.0885 83.152 22.0043 83.3209 22.251C83.1115 22.1546 82.839 22.1845 82.6577 21.9837L82.64 21.988ZM56.5694 9.90715C56.1024 9.83128 56.0734 9.80111 56.2888 9.52303C56.2426 9.80167 56.5408 9.70695 56.5794 9.90086L56.5694 9.90715ZM28.1337 28.4578C28.0185 28.496 27.8975 28.5033 27.7815 28.4793C27.6654 28.4552 27.558 28.4005 27.4687 28.3199L28.1337 28.4578ZM21.8329 32.9975C21.4713 32.8066 20.3279 32.6659 21.86 32.8973L21.8329 32.9975ZM60.1262 14.7779L59.5195 14.5616C59.877 14.4917 59.9996 14.5425 60.1361 14.7716L60.1262 14.7779ZM13.9216 16.9621C13.6962 17.139 13.5457 16.9465 13.3794 16.9198C13.4688 16.8752 13.5663 16.855 13.6628 16.8613C13.7594 16.8676 13.8518 16.9001 13.9315 16.9558L13.9216 16.9621ZM21.5175 20.5332C21.3062 20.5272 21.099 20.4823 20.9048 20.4003C21.0114 20.3534 21.1271 20.3404 21.2377 20.3629C21.3484 20.3854 21.4491 20.4424 21.5275 20.5269L21.5175 20.5332ZM22.6756 33.1965C22.4683 33.0155 22.2057 33.0705 21.9774 32.9825C22.1047 32.9551 22.235 32.9596 22.3579 32.9957C22.4808 33.0317 22.593 33.0983 22.6856 33.1902L22.6756 33.1965ZM18.1419 33.1592L18.762 33.2492C18.5716 33.2967 18.3513 33.363 18.1711 33.158L18.1419 33.1592ZM87.246 22.1252C87.4871 22.2645 87.7426 22.3749 88.0081 22.4547C87.8695 22.4562 87.7333 22.4281 87.6073 22.3721C87.4813 22.316 87.368 22.2331 87.2741 22.1282L87.246 22.1252ZM38.0677 4.62277C38.3273 4.51772 38.4671 4.84174 38.711 4.79515C38.3471 4.82747 38.0426 4.6698 38.0958 4.62584L38.0677 4.62277ZM61.74 14.5834C62.1252 14.6867 61.4893 15.161 61.6096 14.7455C61.6947 14.7056 61.6448 14.5535 61.7681 14.5865L61.74 14.5834ZM23.5937 33.3305C23.332 33.3372 23.0748 33.2806 22.8412 33.1647C22.9749 33.205 23.5339 33.1846 23.5937 33.3305ZM75.1141 15.5836C75.1817 15.5607 75.2527 15.5554 75.3212 15.5683C75.3897 15.5812 75.4535 15.6119 75.5072 15.6576C75.3595 15.7613 75.2422 15.6448 75.1141 15.5836ZM81.7269 18.251C81.9392 18.2524 82.1421 18.3288 82.3044 18.4684C82.0917 18.4605 81.8904 18.3766 81.7325 18.2301L81.7269 18.251ZM15.191 32.6595C15.0028 32.6986 14.8133 32.7732 14.6269 32.6069C14.8475 32.4779 15.0073 32.6819 15.1944 32.647L15.191 32.6595ZM46.1949 49.1784C46.4492 49.2465 46.3343 49.4889 46.21 49.4287C45.9276 49.2814 46.0569 49.1235 46.1983 49.1659L46.1949 49.1784ZM30.4103 34.951C30.6822 34.9467 30.9477 35.0178 31.1808 35.1575L30.4103 34.951ZM23.2403 20.6545C23.273 20.5334 23.3983 20.6968 23.4995 20.6434C23.6006 20.5899 23.5971 20.9247 23.4059 20.8064C23.3384 20.7659 23.1889 20.784 23.2403 20.6545ZM82.8468 18.663C82.294 18.4611 82.3627 18.4974 82.38 18.4484C82.9502 18.6011 82.881 18.5513 82.8545 18.665L82.8468 18.663ZM88.5462 32.852L88.0916 32.5466C88.1912 32.5372 88.2897 32.5619 88.3729 32.6172C88.456 32.6725 88.5194 32.7554 88.5539 32.8541L88.5462 32.852ZM37.1203 36.5072C36.8448 36.5946 36.683 36.4438 36.5018 36.4266C36.7093 36.2852 36.8661 36.4391 37.1203 36.5072ZM74.3052 59.4551L73.6957 59.3411C73.8027 59.3005 73.9167 59.29 74.0262 59.3107C74.1358 59.3315 74.2372 59.3827 74.3206 59.4593L74.3052 59.4551ZM71.9374 58.861C71.8411 58.8352 71.6586 58.9296 71.6831 58.7929C71.756 58.4766 72.4263 59.0547 71.9573 58.8484L71.9374 58.861ZM10.1504 42.2381C9.94287 42.2681 9.73414 42.234 9.54906 42.1396C9.75659 42.1096 9.96533 42.1437 10.1504 42.2381ZM27.286 5.72762C27.4157 5.69074 27.2273 5.76115 27.5432 5.95323C27.3895 6.14039 27.0723 5.8002 27.3052 5.73278L27.286 5.72762ZM80.9731 48.1769C80.8743 48.1775 80.7774 48.1559 80.6885 48.1136C80.5996 48.0712 80.5207 48.0091 80.4569 47.9312L80.9731 48.1769ZM13.2329 16.9119C13.0972 16.9597 12.9517 16.9496 12.8274 16.8839C12.9486 16.8939 13.0946 16.7047 13.2329 16.9119ZM38.835 36.613C38.9669 36.6752 39.1245 36.489 39.299 36.7149C39.0992 36.6748 38.9466 36.7503 38.835 36.613ZM40.6901 30.591C40.8618 30.6263 41.0218 30.7044 41.1573 30.8192C41.012 30.7758 40.8153 30.8619 40.6901 30.591ZM67.1524 43.3947L66.6193 43.2115C66.852 43.0993 66.972 43.3284 67.1524 43.3947ZM59.1137 52.434C59.1037 52.4333 59.094 52.4303 59.0854 52.425C59.0768 52.4198 59.0695 52.4125 59.064 52.4038C59.0584 52.395 59.0548 52.385 59.0534 52.3744C59.052 52.3638 59.0528 52.3528 59.0558 52.3424C59.0558 52.3424 59.1167 52.3005 59.1205 52.3015C59.477 52.8179 59.8222 52.3955 59.1137 52.434ZM23.6014 33.3326C23.8274 33.2752 24.06 33.2674 24.285 33.3098C23.9155 33.5466 23.5546 33.2305 23.6014 33.3326ZM73.4992 59.6869C73.4154 59.7055 73.3295 59.7015 73.2492 59.6753C73.169 59.6491 73.097 59.6015 73.0398 59.5369C73.2102 59.6095 73.388 59.5631 73.5146 59.691L73.4992 59.6869ZM17.5352 32.3608C17.4304 32.7492 16.7733 32.291 17.5352 32.3608V32.3608ZM45.11 51.2562L44.7701 51.1383C45.0249 51.0051 45.0508 51.0165 45.13 51.2437L45.11 51.2562ZM26.9435 33.852C26.7277 33.8232 26.5169 33.7668 26.3156 33.6837L26.9435 33.852ZM21.0424 30.6903C21.0086 30.8156 20.4516 30.6753 20.6227 30.6226C20.7939 30.57 21.0454 30.6329 21.0589 30.6902L21.0424 30.6903ZM28.2398 28.5086C28.417 28.5561 28.618 28.4846 28.7637 28.649C28.59 28.6484 28.421 28.6016 28.2717 28.5127L28.2398 28.5086ZM71.1334 58.9321C71.3304 59.0744 71.5841 59.0529 71.839 59.2107C71.0311 58.9898 71.1299 59.0521 71.1653 58.9362L71.1334 58.9321ZM50.5845 8.20497L51.0467 8.32884C50.8925 8.34899 50.7391 8.30945 50.6141 8.21741L50.5845 8.20497ZM20.3428 20.3706C20.4002 20.3288 20.4671 20.3056 20.5352 20.3039C20.6032 20.3022 20.6694 20.3222 20.7254 20.3612C20.7011 20.4666 20.774 20.4414 20.3428 20.3706ZM11.0834 42.3627C11.0021 42.3947 10.9152 42.4035 10.8316 42.3882C10.748 42.3728 10.6705 42.3339 10.6071 42.2754C10.772 42.2565 10.937 42.2793 11.089 42.3418L11.0834 42.3627ZM82.7616 21.6444C82.9421 21.6032 83.0544 21.7229 83.19 21.8174C83.1106 21.8206 83.0323 21.8051 82.9606 21.7719C82.8889 21.7388 82.8255 21.6888 82.7749 21.6256L82.7616 21.6444ZM86.3337 52.1027C86.526 52.2931 86.8342 52.1921 87.0159 52.4064C87.1085 52.3238 86.5821 52.3305 86.347 52.0839L86.3337 52.1027ZM72.8262 58.9962C72.9766 59.0095 73.1216 59.056 73.2521 59.1327C73.2143 59.152 73.1737 59.1633 73.1325 59.166C73.0913 59.1687 73.0504 59.1626 73.0121 59.1482C72.9738 59.1338 72.9388 59.1112 72.9092 59.0819C72.8796 59.0526 72.8559 59.0171 72.8396 58.9774L72.8262 58.9962ZM17.9871 20.1603C17.8664 20.1638 18.1684 19.8865 18.3493 20.1499C18.2269 20.2514 18.1174 20.137 18.0005 20.1415L17.9871 20.1603ZM70.5693 58.772L71.0123 58.8907C70.737 58.9468 70.737 58.9468 70.5693 58.772ZM31.3095 35.201C31.4591 35.1515 31.6035 35.0603 31.7731 35.2893L31.3095 35.201ZM44.5236 54.5646C44.5947 54.6687 44.368 54.8049 44.2193 54.483C44.3573 54.5379 44.4415 54.4709 44.5236 54.5646ZM45.6401 51.2819C46.1294 51.413 46.0678 51.3964 46.0515 51.4413C45.5595 51.305 45.625 51.3226 45.6446 51.2652L45.6401 51.2819ZM87.9743 52.8199L88.4451 53.0043C88.3568 53.0194 88.2673 53.0104 88.1849 52.9782C88.1026 52.9459 88.0301 52.8915 87.9743 52.8199ZM37.3962 47.479C37.5233 47.513 37.6793 47.425 37.8152 47.5644C37.7421 47.5799 37.6675 47.5791 37.596 47.5623C37.5245 47.5454 37.4577 47.5128 37.3996 47.4664L37.3962 47.479ZM62.2973 55.8392L62.6487 55.8841C62.4581 56.0703 62.3788 55.9506 62.3007 55.8266L62.2973 55.8392ZM86.1673 59.5979C85.9636 59.6376 85.7562 59.6056 85.5764 59.5068C85.7602 59.5605 85.9646 59.4765 86.1707 59.5854L86.1673 59.5979ZM11.7533 42.4213C11.5953 42.379 11.4111 42.4953 11.241 42.3601C11.4155 42.3081 11.5992 42.33 11.7533 42.4213ZM61.3826 14.622C61.35 14.7431 61.2101 14.8176 61.2224 14.4045C61.2617 14.4732 61.4243 14.4675 61.3826 14.622ZM79.4378 16.5989C79.3232 16.595 79.1935 16.6319 79.109 16.4705C79.1707 16.4579 79.2338 16.4632 79.2917 16.4857C79.3495 16.5083 79.4 16.5474 79.4378 16.5989ZM74.5629 59.4033C75.0486 59.5782 74.9982 59.52 74.9684 59.615C74.464 59.4484 74.5171 59.5119 74.5513 59.4002L74.5629 59.4033ZM10.3199 34.578C10.449 34.5588 10.5811 34.4823 10.7451 34.6248C10.6725 34.6549 10.5948 34.6662 10.5188 34.6575C10.4427 34.6488 10.3705 34.6205 10.3083 34.5749L10.3199 34.578ZM29.2881 28.803C29.2096 28.8491 28.9445 28.5452 29.5979 28.7875C29.4632 28.935 29.3811 28.7339 29.2766 28.7999L29.2881 28.803ZM67.731 56.3996C67.8043 56.3861 67.8787 56.3889 67.9497 56.408C68.0206 56.427 68.0865 56.4617 68.1432 56.5101C67.9371 56.5847 67.8447 56.4525 67.731 56.3996ZM73.2924 59.3047C73.9512 59.4812 73.8857 59.4636 73.8778 59.4929C73.2075 59.3133 73.28 59.3506 73.2924 59.3047ZM14.9078 32.3463C14.7225 32.3594 14.5857 32.4839 14.4604 32.3205C14.5901 32.391 14.733 32.2592 14.9078 32.3463ZM10.2817 29.0517C10.2817 29.0517 10.3024 29.0975 10.2913 29.108C10.188 29.246 10.0765 29.0773 9.9644 29.1099C10.072 29.094 10.1658 28.9758 10.2794 29.06L10.2817 29.0517ZM87.9913 36.2583C88.0375 36.2707 88.576 37.1538 87.9913 36.2583V36.2583ZM45.0448 48.9553C45.1639 48.9424 45.1273 49.1699 44.9426 49.0891C44.8964 49.0767 44.8424 49.0623 44.8638 48.9829C44.8852 48.9036 44.9825 48.9565 45.0459 48.9511L45.0448 48.9553ZM17.6799 20.1049C17.5863 20.1917 17.5075 20.0855 17.4117 20.0733C17.6315 19.8859 17.7471 20.0243 17.6799 20.1049ZM84.6492 63.6193C84.7771 63.4207 84.9858 63.7498 85.316 63.5517C85.1408 63.9256 84.6871 63.4637 84.6492 63.6193ZM19.1254 39.8522C18.9521 39.8057 18.7668 39.8187 18.5853 39.7567C18.6778 39.7263 18.7748 39.7191 18.8685 39.7357C18.9622 39.7523 19.0502 39.7921 19.1254 39.8522ZM55.0783 9.35537C55.0354 9.43789 54.7534 9.30412 54.7088 9.19368C55.0632 9.28864 55.1189 9.28119 55.0783 9.35537ZM45.313 51.239C45.2748 51.1661 45.3807 51.0646 45.5472 51.2435C45.4709 51.2813 45.3855 51.3838 45.313 51.239ZM48.7973 51.2771C48.7545 51.4358 48.9656 51.4342 48.9516 51.5782C48.7428 51.464 48.7428 51.464 48.7973 51.2771ZM69.2802 58.4669C69.4135 58.5698 69.6368 58.3699 69.7463 58.5918L69.2802 58.4669ZM68.6367 58.2184C68.7793 58.2566 68.8909 58.3939 69.0537 58.357C68.8961 58.3595 68.7373 58.3662 68.6335 58.1996L68.6367 58.2184ZM23.5359 41.419C23.7329 41.2703 23.8789 41.4796 24.0587 41.4561C23.8832 41.4585 23.7084 41.4461 23.5359 41.419ZM84.095 63.6678C84.4562 63.4467 85.1663 63.7086 84.095 63.6678V63.6678ZM90.5798 31.6373L90.3409 31.2823C90.5441 31.4173 90.5441 31.4173 90.5682 31.6342L90.5798 31.6373ZM79.4838 47.6794C79.4577 47.6231 79.8149 47.6159 79.8999 47.7909C79.506 47.6585 79.5544 47.8774 79.4723 47.6763L79.4838 47.6794ZM61.5713 55.667C61.4337 55.6651 61.3022 55.6157 61.1962 55.5262C61.2638 55.5166 61.332 55.524 61.3951 55.5479C61.4583 55.5718 61.5147 55.6116 61.5597 55.6639L61.5713 55.667ZM12.6009 32.0013C12.4476 32.202 12.383 32.028 12.2692 31.9751L12.6009 32.0013ZM30.9607 28.2527L30.5799 28.2402C30.7052 28.1126 30.8238 28.1936 30.9492 28.2496L30.9607 28.2527ZM88.2296 26.0602C88.3145 26.159 88.4934 26.1084 88.5292 26.2971C88.4561 26.1701 88.2772 26.2207 88.2296 26.0602ZM29.0013 34.3093C29.1609 34.2536 29.2362 34.3723 29.3403 34.4002C29.2792 34.4188 29.2155 34.422 29.1543 34.4095C29.0931 34.397 29.0361 34.3691 28.9879 34.3282L29.0013 34.3093ZM16.2799 27.3188L15.8678 27.2084C16.167 27.2169 16.167 27.2169 16.2666 27.3376L16.2799 27.3188ZM25.1669 33.5013L24.5944 33.4643C24.6872 33.427 24.7856 33.4112 24.8828 33.418C24.98 33.4247 25.0739 33.4539 25.1581 33.5034L25.1669 33.5013ZM72.902 59.5269L72.495 59.382C72.5703 59.3611 72.6487 59.3637 72.7209 59.3893C72.7931 59.415 72.856 59.4628 72.902 59.5269ZM79.5613 16.6006C79.7182 16.5397 79.7924 16.6625 79.8831 16.7092C79.8246 16.7247 79.764 16.724 79.707 16.7072C79.6501 16.6904 79.5988 16.658 79.5579 16.6131L79.5613 16.6006ZM68.2837 56.8925C68.1643 56.8605 67.993 56.9444 67.8821 56.758L68.2837 56.8925ZM17.4602 33.0526C17.5682 33.0502 17.6866 32.979 17.7722 33.1362C17.6546 33.0823 17.5442 33.2005 17.4452 33.0621L17.4602 33.0526ZM20.1502 20.319C20.0837 20.5654 19.7897 20.1239 20.0624 20.2463C20.1032 20.2482 20.1822 20.2157 20.1502 20.319ZM59.105 54.6569C59.0547 54.6708 59.0023 54.664 58.958 54.6381C58.9137 54.6121 58.8809 54.5688 58.866 54.5168C58.9596 54.5374 59.0861 54.4817 59.105 54.6569ZM35.2091 4.25531C35.2656 4.23514 35.326 4.23609 35.3803 4.25796C35.4345 4.27983 35.4793 4.32131 35.5072 4.37549C35.3727 4.38421 35.2823 4.38237 35.2091 4.25531ZM55.4596 9.27398C55.5109 9.25687 55.565 9.25502 55.6159 9.26868C55.6669 9.28234 55.7128 9.31097 55.7485 9.3514C55.7245 9.36878 55.6974 9.38061 55.6692 9.38612C55.6411 9.39164 55.6123 9.39069 55.585 9.38337C55.5577 9.37604 55.5324 9.36252 55.5107 9.34365C55.4891 9.32479 55.4717 9.30104 55.4596 9.27398ZM60.3655 14.2733C60.3587 14.2984 60.3166 14.3319 60.2884 14.3601C60.0633 13.9999 60.3592 14.2045 60.3655 14.2733ZM78.5054 60.2851C78.5552 60.2604 78.6103 60.2526 78.6631 60.2627C78.7158 60.2728 78.7637 60.3004 78.8 60.3416C78.7505 60.4179 78.8144 60.4261 78.5054 60.2851ZM23.0935 41.2825C23.2532 41.2644 23.4113 41.3068 23.5404 41.4023C23.3652 41.3777 23.224 41.4115 23.0935 41.2825ZM17.5801 26.1583C17.6793 26.1581 17.6269 26.3679 17.4982 26.3244C17.3694 26.281 17.4478 26.1587 17.5801 26.1583ZM32.2054 35.2485C32.286 35.2253 32.1283 35.4427 31.9283 35.3265L32.2054 35.2485ZM19.1335 14.132C19.1853 14.1083 19.2416 14.1002 19.2963 14.1085C19.3509 14.1168 19.4017 14.1413 19.443 14.1792C19.3924 14.2095 19.3345 14.2213 19.2785 14.2127C19.2225 14.2042 19.1714 14.1758 19.1335 14.132ZM82.4783 17.4404C82.3634 17.4238 82.251 17.3937 82.1432 17.3506C82.5254 17.4038 82.4941 17.382 82.4783 17.4404ZM84.283 21.6088C84.4561 21.503 84.4914 21.7094 84.6066 21.6956C84.4905 21.7137 84.3743 21.6826 84.283 21.6088ZM21.0709 30.7069C21.2245 30.551 21.251 30.7283 21.3868 30.7915C21.0538 30.9083 21.0427 30.6277 21.0594 30.7038L21.0709 30.7069ZM78.7749 16.3765C78.6582 16.3872 78.5431 16.3563 78.4475 16.2887C78.5947 16.2789 78.7147 16.217 78.7749 16.3765ZM47.6358 55.4925C47.6586 55.5613 47.4938 55.6515 47.394 55.3784C47.4863 55.4345 47.5978 55.3883 47.6325 55.505L47.6358 55.4925ZM22.3193 20.4704C22.4387 20.5024 22.3685 20.6403 22.2776 20.6249C22.2648 20.6279 22.2517 20.6275 22.2394 20.6235C22.2271 20.6196 22.2161 20.6123 22.2074 20.6023C22.1987 20.5924 22.1926 20.5801 22.1897 20.5667C22.1868 20.5532 22.1872 20.5391 22.1909 20.5255C22.1945 20.512 22.2013 20.4996 22.2106 20.4894C22.2198 20.4792 22.2312 20.4716 22.2438 20.4674C22.2563 20.4631 22.2695 20.4623 22.2821 20.465C22.2947 20.4677 22.3064 20.4739 22.3159 20.4829L22.3193 20.4704ZM22.7045 20.5736C22.895 20.7097 22.6357 20.7522 22.6448 20.6113C22.657 20.5967 22.6898 20.5518 22.7013 20.5549L22.7045 20.5736ZM87.435 52.6754C87.5361 52.7294 87.6737 52.6633 87.8202 52.7786L87.435 52.6754ZM22.9779 20.5708C23.0511 20.5904 23.0252 20.7939 22.9317 20.742C22.8383 20.6901 22.9049 20.5199 22.9709 20.551L22.9779 20.5708ZM81.6344 57.9491C81.762 57.8892 81.8434 57.9245 81.9879 58.0169C81.8291 58.0236 81.734 58.0698 81.6344 57.9491ZM77.8208 60.7867C77.6796 60.7892 77.5705 60.7957 77.5107 60.6499C77.5923 60.7299 77.7306 60.6461 77.8208 60.7867ZM10.7697 29.1108C10.8891 29.1428 10.9479 29.0779 11.0287 29.2071C10.9388 29.2188 10.8657 29.2753 10.7697 29.1108ZM32.3743 35.3116C32.4216 35.3032 32.4695 35.3052 32.5152 35.3175C32.5609 35.3297 32.6034 35.352 32.6401 35.3829C32.5554 35.3602 32.4323 35.4794 32.3743 35.3116ZM77.2046 20.2853C77.1545 20.2971 77.103 20.2932 77.0561 20.2743C77.0092 20.2554 76.9689 20.2222 76.9401 20.1786C76.99 20.1702 77.0405 20.1756 77.0868 20.1943C77.1332 20.213 77.1737 20.2443 77.2046 20.2853ZM44.1393 48.453C44.1902 48.1263 44.4986 48.6523 44.1742 48.5071C44.1654 48.5093 44.1181 48.501 44.1239 48.4489L44.1393 48.453ZM82.6396 62.1719C82.4699 62.4488 82.2045 62.1001 82.2482 62.1834C82.64 62.1855 82.6519 62.2334 82.6242 62.1678L82.6396 62.1719ZM19.514 30.4912C19.426 30.5571 19.3714 30.453 19.2905 30.4313C19.4824 30.3171 19.5986 30.4377 19.514 30.4912ZM86.4568 23.6733C86.0715 23.5701 86.1024 23.5783 86.1152 23.5459C86.512 23.6523 86.4703 23.6232 86.4568 23.6733ZM17.874 13.9468C17.8072 13.8573 17.895 13.7465 18.0853 13.9139C17.9924 13.9517 17.9353 14.0259 17.874 13.9468ZM87.9951 36.2594C87.8794 36.2597 87.8995 36.3994 87.8077 36.4643C87.8319 36.1753 87.8201 36.0199 87.9901 36.2625L87.9951 36.2594ZM20.0708 30.9538C19.9319 31.0554 19.8423 31.0045 19.7742 30.8743C19.7613 30.9067 19.9871 30.8508 20.0731 30.9455L20.0708 30.9538ZM85.1036 59.5905C85.1549 59.5757 85.2084 59.575 85.259 59.5885C85.3096 59.6021 85.3555 59.6294 85.3925 59.668C85.3185 59.5899 85.1748 59.7708 85.1036 59.5905ZM16.2853 32.8139C16.3137 32.8618 16.2053 32.9268 16.0358 32.774C16.1617 32.7361 16.2351 32.7244 16.2853 32.8139ZM85.628 59.9281C85.7196 59.8183 85.8109 59.8472 85.9406 59.9178C85.8059 59.9578 85.7158 60.0008 85.628 59.9281ZM58.3277 13.696C58.3715 13.748 58.1828 13.881 58.1393 13.6903C58.2104 13.6869 58.2758 13.6283 58.3277 13.696ZM21.8141 20.4291C21.9027 20.4528 21.8822 20.5593 21.7758 20.5711C21.6694 20.5828 21.737 20.4084 21.8141 20.4291ZM76.7731 60.1836C76.7099 60.0502 76.5613 60.203 76.4803 60.1051C76.7241 59.9824 76.79 60.121 76.7731 60.1836ZM33.174 35.517C33.2087 35.5263 33.251 35.5376 33.2287 35.5898C33.153 35.8248 33.038 35.485 33.1878 35.5117L33.174 35.517ZM86.6573 24.8598C86.5596 24.7933 86.4914 24.7706 86.4816 24.6381C86.5286 24.6518 86.5703 24.6801 86.6015 24.7194C86.6327 24.7588 86.6521 24.8076 86.6573 24.8598ZM65.3243 55.7503L65.0279 55.6395C65.1705 55.5703 65.1854 55.6683 65.3243 55.7503ZM17.3025 30.221C17.334 30.1041 17.4912 30.1954 17.4489 30.2602C17.4432 30.2813 17.4301 30.2994 17.4124 30.3106C17.3946 30.3218 17.3737 30.3252 17.3543 30.32C17.3349 30.3148 17.3186 30.3014 17.3088 30.2828C17.2991 30.2643 17.2968 30.242 17.3025 30.221ZM80.1324 16.7805C80.2249 16.8053 80.3204 16.7727 80.3828 16.8476C80.294 16.8552 80.1903 16.8721 80.1324 16.7805ZM18.6987 39.1826C18.8249 39.1896 18.7572 39.4714 18.6167 39.2726C18.6292 39.1954 18.6564 39.1713 18.6987 39.1826ZM44.2985 50.3135C44.1122 50.2232 44.3503 50.1214 44.3823 50.309C44.3515 50.3008 44.3239 50.3113 44.3019 50.3009L44.2985 50.3135ZM21.6496 30.8127C21.6158 30.938 21.4449 30.8519 21.3568 30.7342L21.6496 30.8127ZM52.9387 8.95668C52.8518 9.01847 52.8012 8.99148 52.7678 8.87058C52.8488 8.86096 52.9211 8.85346 52.9387 8.95668ZM19.6565 30.5294C19.7658 30.4915 19.8921 30.391 19.9416 30.6058L19.6565 30.5294ZM50.1027 8.10724C50.1295 8.14576 50.2397 7.95144 50.317 8.12438C50.2828 8.14431 50.2442 8.1533 50.2061 8.15025C50.1681 8.14721 50.1321 8.13226 50.1027 8.10724ZM36.4257 4.33951C36.3827 4.35586 36.3362 4.35383 36.2961 4.33387C36.256 4.31392 36.2253 4.27762 36.2108 4.23269C36.2756 4.26797 36.3946 4.17896 36.4257 4.33951ZM31.2832 29.2167C31.237 29.2043 31.277 29.1478 31.286 29.1144C31.334 28.9213 31.5688 29.1992 31.2832 29.2167ZM76.911 19.5664C77.0458 19.5263 77.1127 19.5846 77.2192 19.6489C77.0919 19.6462 76.9975 19.6746 76.911 19.5664ZM14.7185 30.1375C14.7961 30.0643 14.8569 30.1298 14.9539 30.1379C14.7881 30.3084 14.6366 30.1962 14.7185 30.1375ZM62.1297 55.848C62.0848 55.8601 62.038 55.8541 61.9984 55.8311C61.9588 55.8081 61.9292 55.7697 61.9155 55.7234C61.9853 55.7556 62.1025 55.6885 62.1297 55.848ZM91.8497 45.2036C91.948 45.2524 92.0307 45.2521 92.0791 45.3636C91.9704 45.3837 91.9384 45.3035 91.8574 45.2057L91.8497 45.2036ZM15.3129 26.5851C15.3275 26.6383 15.2499 26.7115 15.1203 26.5335C15.2051 26.5562 15.2887 26.4756 15.3206 26.5872L15.3129 26.5851ZM14.4059 16.9889C14.2449 17.1876 14.2082 16.8643 14.382 16.9243C14.3924 16.9316 14.4098 16.9899 14.4059 16.9889ZM75.2053 18.9526C75.2978 18.9774 75.2929 19.0567 75.1496 19.0675C75.0062 19.0783 75.0705 18.9165 75.2053 18.9526ZM67.3582 43.4588C67.3781 43.4459 67.4003 43.438 67.4231 43.4354C67.4459 43.4329 67.4687 43.4358 67.4899 43.4441C67.5111 43.4523 67.5301 43.4657 67.5454 43.4831C67.5608 43.5005 67.5722 43.5216 67.5787 43.5447L67.3582 43.4588ZM15.1536 9.13006L14.8874 9.12143C14.961 9.07845 15.0768 8.97068 15.1536 9.13006ZM16.3524 32.8409L16.545 32.8925C16.4554 32.9491 16.3806 32.9201 16.358 32.82L16.3524 32.8409ZM27.3156 33.9428L27.619 33.9972C27.5682 34.0283 27.509 34.0378 27.4536 34.0238C27.3982 34.0098 27.3509 33.9733 27.3213 33.9219L27.3156 33.9428ZM84.6487 22.8262C84.6991 22.8844 84.7624 22.8029 84.8452 22.8788C84.7619 22.8968 84.6957 22.897 84.6487 22.8262ZM10.9601 28.6648C10.7559 28.6101 11.0781 28.4726 11.0525 28.6135C11.0345 28.6803 10.9948 28.6741 10.9601 28.6648ZM21.7676 30.804C21.7788 30.7623 21.8132 30.7267 21.8484 30.7496C22.0828 30.9064 21.6941 31.0306 21.7676 30.804ZM53.3055 52.803C53.319 52.8603 53.2193 52.9545 53.1322 52.7566C53.1832 52.7971 53.2802 52.6977 53.3055 52.803ZM73.4731 19.2183C73.3922 19.1966 73.4159 19.0015 73.612 19.2241C73.5655 19.2265 73.519 19.2246 73.4731 19.2183ZM15.8176 19.8879C15.908 19.8898 15.8999 20.0577 15.7416 19.9705C15.7375 19.9583 15.7365 19.9449 15.7389 19.9318C15.7413 19.9188 15.7469 19.9065 15.7551 19.8963C15.7634 19.8861 15.774 19.8784 15.7858 19.874C15.7976 19.8696 15.8101 19.8686 15.8221 19.8712L15.8176 19.8879ZM82.2375 21.5353C82.2357 21.5259 82.2361 21.516 82.2386 21.5065C82.2412 21.4971 82.2458 21.4883 82.2521 21.4811C82.3814 21.3232 82.3915 21.6841 82.2375 21.5353ZM14.1709 30.1923L14.4193 30.129C14.326 30.2607 14.2537 30.2682 14.1632 30.1902L14.1709 30.1923ZM93.075 54.1553C93.135 54.2699 93.319 54.1849 93.3443 54.3976C93.2971 54.3581 93.0036 54.2212 93.0673 54.1532L93.075 54.1553ZM88.8059 53.1368C88.92 53.1271 88.9906 53.325 88.7086 53.1913C88.7495 53.162 88.7728 53.1369 88.7982 53.1347L88.8059 53.1368ZM42.4718 37.6635C42.5348 37.7207 42.645 37.6338 42.7005 37.7651C42.655 37.7743 42.6085 37.7694 42.5667 37.751C42.5248 37.7326 42.4891 37.7016 42.464 37.6615L42.4718 37.6635ZM63.0371 56.512C62.9754 56.4955 62.8942 56.5364 62.8483 56.4614C62.9393 56.4455 62.8926 56.4195 63.0294 56.5099L63.0371 56.512ZM72.6564 59.0133C72.465 59.0337 72.5955 58.7642 72.758 58.9734C72.725 58.9895 72.691 59.0028 72.6564 59.0133ZM65.5351 57.2664C65.4791 57.3364 65.421 57.2761 65.3862 57.1907C65.4931 57.1925 65.6012 57.1901 65.5306 57.2831L65.5351 57.2664ZM36.5811 36.0404C36.6366 36.03 36.6931 36.032 36.7468 36.0464C36.8006 36.0608 36.8504 36.0873 36.8932 36.124L36.5811 36.0404ZM58.1883 52.1279C58.0776 52.1251 58.1724 51.9266 58.3296 52.0941C58.2822 52.1193 58.2325 52.139 58.1816 52.1529L58.1883 52.1279ZM43.5096 54.3421C43.4466 54.576 43.2787 54.1415 43.5009 54.2368C43.4939 54.2931 43.5108 54.3379 43.5029 54.3672L43.5096 54.3421ZM22.1731 26.4354C22.1337 26.5815 21.8932 26.3245 22.142 26.3822C22.1407 26.4177 22.1709 26.4437 22.1664 26.4604L22.1731 26.4354ZM43.8227 48.4935C43.8677 48.4339 43.8441 48.3068 43.9647 48.3346L44.0109 48.347C43.9824 48.5139 43.7922 48.4227 43.8227 48.4935ZM75.967 59.8333C75.9259 59.8377 75.8849 59.8291 75.8493 59.8084C75.8137 59.7877 75.7851 59.7559 75.7671 59.717C75.8774 59.7063 75.9539 59.7133 75.967 59.8333ZM76.2243 59.7679C76.2871 59.7559 76.351 59.768 76.4046 59.802C76.4582 59.836 76.498 59.8898 76.517 59.9538L76.2243 59.7679ZM74.3633 58.2439C74.3961 58.199 74.5073 58.2154 74.4789 58.2749C74.4069 58.4347 74.3294 58.293 74.3633 58.2439ZM72.5613 57.788C72.6024 57.7812 72.644 57.7832 72.6836 57.7939C72.7233 57.8045 72.7603 57.8235 72.7925 57.8499C72.7012 57.8971 72.6375 57.8576 72.5613 57.788ZM12.4111 29.8864C12.3678 29.8479 12.4426 29.7695 12.6272 29.8816C12.5074 29.9122 12.4615 29.9447 12.4111 29.8864ZM32.7221 35.5078L32.9898 35.5258C32.9105 35.621 32.84 35.6066 32.7187 35.5203L32.7221 35.5078ZM76.8908 59.1495C76.9987 59.1784 77.0815 59.1469 77.1374 59.2156C77.0462 59.2628 76.9885 59.216 76.8908 59.1495ZM26.559 34.0221C26.5882 33.9135 26.6646 33.9519 26.7447 34.0226L26.559 34.0221ZM61.1074 11.338C61.0647 11.2818 61.2415 11.2083 61.177 11.4015C61.1518 11.3807 61.1292 11.3565 61.1097 11.3297L61.1074 11.338ZM74.8248 58.8914C74.7836 58.8949 74.7426 58.8886 74.7047 58.873C74.6668 58.8574 74.6329 58.8329 74.6054 58.8013C74.6958 58.8031 74.7802 58.781 74.8248 58.8914ZM28.4716 46.5069C28.5411 46.4942 28.5172 46.7206 28.3588 46.5573C28.3942 46.535 28.4322 46.518 28.4716 46.5069ZM76.7648 15.7886C76.7412 15.8763 76.6608 15.7607 76.6146 15.7484C76.7183 15.7314 76.784 15.7176 76.7648 15.7886ZM59.0981 54.8969C59.0207 54.9388 58.9564 54.9171 58.8305 54.8475C58.9237 54.8296 59.0184 54.8471 59.0981 54.8969ZM48.455 51.9645C48.5445 52.0153 48.4178 52.1023 48.3545 52.0002C48.3585 51.9902 48.3644 51.9813 48.372 51.9739C48.3795 51.9665 48.3883 51.9609 48.3979 51.9575C48.4075 51.9541 48.4176 51.9529 48.4274 51.9542C48.4373 51.9554 48.4467 51.9589 48.455 51.9645ZM59.9906 14.2848C60.1879 14.2884 59.9174 14.5562 59.9328 14.2694C59.9299 14.2954 59.9614 14.286 59.9906 14.2848ZM89.1764 54.9643L89.2651 55.2791C89.0541 55.0658 89.2074 54.9413 89.1764 54.9643ZM29.1429 6.11772C29.1928 6.16244 29.0726 6.2556 28.935 6.13812C29.0112 6.10035 29.0744 6.05011 29.1429 6.11772ZM59.4292 14.8195C59.2555 14.8356 59.2999 14.6863 59.3725 14.7237L59.4292 14.8195ZM86.9533 22.1229C87.1536 22.1765 87.1305 22.1703 87.1276 22.1964C86.9321 22.1709 86.9645 22.1885 86.9687 22.127L86.9533 22.1229ZM83.5476 61.7302C83.5113 61.7423 83.4733 61.7462 83.4361 61.7416C83.3989 61.7371 83.3634 61.7241 83.3317 61.7037C83.369 61.6799 83.4121 61.67 83.4541 61.6755C83.4961 61.6811 83.5345 61.7018 83.5631 61.7343L83.5476 61.7302ZM77.5785 60.1531L77.3474 60.0912C77.3689 60.0759 77.3931 60.0655 77.4182 60.0607C77.4433 60.0559 77.4689 60.0568 77.4933 60.0633C77.5176 60.0699 77.5402 60.0819 77.5595 60.0986C77.5789 60.1153 77.5945 60.1363 77.6055 60.1604L77.5785 60.1531ZM76.6809 59.9126C76.7846 59.8956 76.835 59.9539 76.8863 60.0393C76.8448 60.0407 76.8045 60.028 76.7712 60.0029C76.7379 59.9779 76.7132 59.9419 76.7008 59.9001L76.6809 59.9126ZM69.143 17.8744C69.0581 17.883 69.1333 17.6346 69.2385 17.8419C69.214 17.8515 69.1886 17.8582 69.1629 17.8619L69.143 17.8744ZM85.5547 22.4689C85.3004 22.4008 85.3274 22.4081 85.3425 22.3673C85.609 22.4208 85.5777 22.399 85.5746 22.4564L85.5547 22.4689ZM78.4794 20.6895L78.3773 20.7159C78.306 20.6431 78.3671 20.5699 78.4993 20.677L78.4794 20.6895ZM88.8852 58.3114C88.9146 58.3056 88.9446 58.3102 88.9706 58.3244C88.9966 58.3387 89.0171 58.3618 89.0292 58.3903C88.9881 58.3435 88.8845 58.4366 88.8852 58.3114ZM59 55.184C59.0732 55.2036 59.0418 55.3967 58.8755 55.1864C58.917 55.1805 58.9588 55.1797 59 55.184ZM89.9609 30.7462C90.0064 30.8837 90.0441 30.9431 89.9113 30.9299C89.8561 30.8435 89.8311 30.8905 89.9647 30.7472L89.9609 30.7462ZM19.7679 14.2304C19.6672 14.2974 19.63 14.2516 19.6523 14.1994C19.6746 14.1472 19.7286 14.1617 19.7679 14.2304ZM14.6286 16.8829C14.7389 16.8722 14.685 17.0413 14.6134 17.0311C14.5419 17.0209 14.5569 16.904 14.6329 16.8975L14.6286 16.8829ZM25.2404 20.5905C25.183 20.8034 24.9815 20.4629 25.1746 20.5281C25.2136 20.552 25.2566 20.5456 25.2447 20.6051L25.2404 20.5905ZM48.5971 49.0475C48.6104 49.0511 48.6216 49.0602 48.6283 49.0729C48.6349 49.0856 48.6364 49.1008 48.6326 49.1152C48.6287 49.1296 48.6197 49.142 48.6076 49.1497C48.5954 49.1573 48.5811 49.1596 48.5678 49.1561C48.5364 49.1656 48.4711 49.0093 48.6015 49.0621L48.5971 49.0475ZM14.9869 32.3899C14.8998 32.4069 14.9486 32.2409 15.13 32.3342C15.0849 32.3603 15.0385 32.3838 14.9912 32.4045L14.9869 32.3899ZM61.627 56.058C61.365 55.9878 61.3958 55.9961 61.3958 55.9961C61.6578 56.0663 61.627 56.058 61.627 56.058ZM22.0595 20.4993C22.1078 20.5346 22.1096 20.5127 22.0347 20.5912C22.0025 20.5422 22.0007 20.5641 22.0407 20.5077L22.0595 20.4993ZM65.0302 57.0863C65.2883 57.1555 65.2575 57.1472 65.2507 57.1723C64.9761 57.1032 65.0035 57.124 65.0136 57.0864L65.0302 57.0863ZM66.9656 57.7213C66.9315 57.7333 66.8953 57.7347 66.8612 57.7256C66.8271 57.7165 66.7965 57.6971 66.773 57.6697C66.8823 57.6319 66.9888 57.6201 66.9491 57.7214L66.9656 57.7213ZM18.5611 25.5839C18.525 25.6414 18.5454 25.6424 18.4148 25.5447C18.4242 25.5249 18.3746 25.525 18.5446 25.584L18.5611 25.5839ZM68.2176 58.0568C68.4894 58.152 68.4565 58.1208 68.4369 58.1782C68.1717 58.0893 68.2057 58.1163 68.2176 58.0568ZM31.6171 29.3419C31.5096 29.2504 31.5972 29.0635 31.6446 29.1479C31.6921 29.2322 31.5551 29.388 31.6171 29.3419ZM29.8794 28.8316C30.0103 28.8666 29.8868 28.9723 29.7784 28.8537C29.8264 28.8442 29.8562 28.8254 29.8755 28.8305L29.8794 28.8316ZM70.1587 58.6709C70.2831 58.6641 70.4051 58.6967 70.5093 58.7649C70.3839 58.78 70.2596 58.7467 70.1587 58.6709ZM22.6765 27.1881C22.7775 27.1659 22.6916 27.2548 22.604 27.3344C22.5996 27.2436 22.5765 27.2374 22.6881 27.1912L22.6765 27.1881ZM5.21479 23.3779C5.15784 23.3133 5.14546 23.3593 5.24858 23.2526C5.27549 23.3672 5.27294 23.3308 5.22636 23.381L5.21479 23.3779ZM13.4508 26.6279C13.4191 26.6523 13.3806 26.6635 13.3427 26.6592C13.3049 26.6548 13.2705 26.6353 13.2465 26.6045C13.3251 26.6345 13.4085 26.5091 13.4624 26.631L13.4508 26.6279ZM34.5627 35.1772C34.6577 35.131 34.7203 35.1746 34.8208 35.2463C34.7769 35.2581 34.7315 35.2582 34.6885 35.2467C34.6455 35.2352 34.6062 35.2124 34.5742 35.1803L34.5627 35.1772ZM23.2367 32.1424L23.0325 32.0877C23.1092 32.0635 23.186 32.0393 23.2459 32.1538L23.2367 32.1424ZM84.0522 63.3518C84.0668 63.2976 84.1495 63.2973 84.223 63.3618C84.1069 63.4247 83.9987 63.4584 84.0522 63.3518ZM13.1473 35.8729C13.1225 35.9647 13.0587 35.8491 13.0124 35.8367C13.12 35.8208 13.1653 35.806 13.1473 35.8729ZM42.3335 37.4564C42.2872 37.444 42.3189 37.2958 42.3684 37.3269C42.4178 37.3581 42.4954 37.4684 42.3335 37.4564ZM83.6279 64.3127C83.5272 64.3798 83.4564 64.3205 83.3646 64.278C83.4087 64.2602 83.4557 64.254 83.5016 64.2601C83.5475 64.2661 83.5909 64.2842 83.6279 64.3127ZM41.4979 37.3534C41.4109 37.4464 41.377 37.3881 41.3708 37.3193C41.4381 37.3149 41.4084 37.3025 41.4934 37.3701L41.4979 37.3534ZM83.1981 60.2844C83.1621 60.418 83.0746 60.3901 82.9708 60.3309C83.0652 60.3025 83.1251 60.2334 83.2047 60.2906L83.1981 60.2844ZM47.7018 39.1321C47.8804 39.2203 47.8675 39.1765 47.8429 39.237C47.6541 39.1865 47.6804 39.2114 47.7063 39.1154L47.7018 39.1321ZM41.1356 53.7866L41.0855 53.7732C41.2182 53.4953 41.31 53.8289 41.1401 53.7699L41.1356 53.7866ZM92.7784 54.0758C92.9565 53.9668 93.3254 54.3298 92.7784 54.0758V54.0758ZM31.7434 34.8785C31.8157 34.8709 31.8879 34.8634 31.9275 34.977L31.7434 34.8785ZM9.858 29.0143C9.90423 29.0267 9.93891 29.0359 9.80337 29.125C9.6939 29.0867 9.76378 29.0114 9.86251 28.9976L9.858 29.0143ZM28.1626 51.9268C28.1221 51.9697 28.0438 51.9845 28.0625 51.9C28.0811 51.8154 28.22 51.8213 28.1671 51.9101L28.1626 51.9268ZM81.3018 48.3366C81.2666 48.3386 81.2317 48.3319 81.1999 48.3172C81.1681 48.3025 81.1402 48.2801 81.1182 48.2516C81.1965 48.2368 81.2638 48.2325 81.3063 48.32L81.3018 48.3366ZM73.2493 65.0868L73.4864 65.0653C73.4197 65.1593 73.3522 65.1188 73.2538 65.0701L73.2493 65.0868ZM79.473 60.5264C79.552 60.4939 79.6168 60.5292 79.7003 60.5873C79.6038 60.5928 79.5407 60.6431 79.4775 60.5097L79.473 60.5264ZM56.9437 9.98953C56.9914 9.93515 57.04 10.0153 57.1604 10.0745C57.0684 10.0632 56.8845 10.0408 56.9482 9.97284L56.9437 9.98953ZM44.253 38.1811C44.1955 38.2105 44.1427 38.1918 44.0719 38.1326C44.1034 38.1198 44.1372 38.116 44.1697 38.1216C44.2023 38.1271 44.2326 38.1419 44.2575 38.1644L44.253 38.1811ZM30.1802 34.4103C30.1693 34.4238 30.1558 34.4345 30.1406 34.4416C30.1254 34.4487 30.1091 34.4519 30.0929 34.451C30.0766 34.4502 30.061 34.4452 30.0472 34.4366C30.0333 34.428 30.0217 34.4159 30.0132 34.4014C30.1756 34.3509 30.1298 34.352 30.1858 34.3894L30.1802 34.4103ZM20.3972 32.6844C20.4376 32.6721 20.4799 32.6712 20.5198 32.6819C20.5597 32.6926 20.5958 32.7145 20.6245 32.7453C20.5305 32.7112 20.4605 32.7104 20.4085 32.6427L20.3972 32.6844ZM21.7527 26.1257C21.6986 26.1425 21.7167 26.1519 21.6872 26.1082C21.7521 26.036 21.734 26.0266 21.7562 26.0819L21.7527 26.1257ZM21.4646 25.9993C21.4904 26.1181 21.4517 26.139 21.4353 26.1078C21.3379 25.9787 21.4152 25.9681 21.4682 25.9554L21.4646 25.9993ZM12.6447 16.8259C12.7333 16.8497 12.7422 17.0312 12.5267 16.8346C12.5653 16.8121 12.6061 16.7945 12.6483 16.7821L12.6447 16.8259ZM46.0196 38.753C45.9544 38.7803 45.9155 38.7251 45.8616 38.7107C45.8862 38.6934 45.9144 38.6834 45.9432 38.6817C45.972 38.68 46.0004 38.6866 46.0254 38.7008L46.0196 38.753ZM41.2637 37.0578C41.3196 37.019 41.2969 37.0264 41.3486 37.0492C41.2947 37.0347 41.2969 37.0264 41.2695 37.0056L41.2637 37.0578ZM13.8451 30.1139C13.9452 30.1408 13.915 30.3297 13.7792 30.159C13.8111 30.0869 13.847 30.0607 13.847 30.0607L13.8451 30.1139ZM14.8104 17.0973C14.7991 16.9555 14.8302 16.9011 14.939 17.0646L14.8104 17.0973ZM75.363 59.6222C75.4228 59.5845 75.4593 59.648 75.4771 59.7199C75.3636 59.7119 75.2569 59.6788 75.363 59.6222ZM47.5855 48.7854C47.6279 48.7968 47.7035 48.8842 47.638 48.8666C47.5725 48.8491 47.5393 48.773 47.5855 48.7854ZM52.4057 50.3188C52.2782 50.3473 52.2632 50.2806 52.3875 50.2333L52.4057 50.3188ZM57.0332 51.6169C57.0186 51.6712 56.9659 51.7287 56.9446 51.5932C56.9233 51.4576 57.0442 51.5303 57.0332 51.6169ZM70.5056 58.3341C70.5979 58.3902 70.482 58.4218 70.4324 58.4219C70.3828 58.4221 70.4392 58.2894 70.5211 58.3382L70.5056 58.3341ZM67.8682 57.6677C67.8581 57.7052 67.7877 57.767 67.7046 57.7537C67.7862 57.6502 67.8628 57.5498 67.8836 57.6718L67.8682 57.6677ZM27.8089 34.0436C27.7357 34.024 27.9003 33.9651 27.9591 34.0838L27.8089 34.0436ZM58.7206 52.069C58.7822 52.0855 58.8064 52.195 58.7138 52.2015C58.6211 52.208 58.639 52.0651 58.7206 52.069ZM20.9045 5.81758C20.9777 5.83719 20.8606 5.98045 20.8064 5.92114C20.7522 5.86184 20.7629 5.80651 20.9007 5.81655L20.9045 5.81758ZM76.3494 20.0561C76.3472 20.1406 76.2803 20.1899 76.2685 20.0345C76.2567 19.8791 76.3515 19.9716 76.3455 20.0551L76.3494 20.0561ZM77.1968 60.2971C77.2337 60.2839 77.2729 60.2821 77.3098 60.2919C77.3466 60.3018 77.3797 60.323 77.4049 60.3529C77.3683 60.3692 77.3282 60.3726 77.2907 60.3626C77.2532 60.3525 77.2203 60.3296 77.1968 60.2971ZM76.7846 60.1867C77.0436 60.0994 77.1871 60.4557 76.7846 60.1867V60.1867ZM63.892 56.6963L64.0509 56.7657C63.9693 56.7618 63.9051 56.8162 63.8909 56.7005L63.892 56.6963ZM9.38454 42.0911C9.57206 42.0697 9.23948 42.3074 9.28789 42.1278C9.31213 42.1167 9.33684 42.1069 9.36191 42.0984L9.38454 42.0911ZM77.3314 20.3819C77.2543 20.3613 77.262 20.1798 77.4545 20.3388C77.3767 20.3672 77.3495 20.3913 77.3314 20.3819ZM75.4154 19.7208C75.5109 19.6882 75.53 19.7247 75.5117 19.7466C75.4934 19.7686 75.4492 19.7791 75.4154 19.7208ZM66.0499 57.3641C66.1193 57.3826 66.1388 57.5401 65.9895 57.4195C65.9942 57.3715 66.0202 57.3516 66.0499 57.3641ZM67.9471 17.3615C68.0588 17.3914 68.03 17.5135 67.9077 17.4002C67.9249 17.3824 67.9443 17.3563 67.9471 17.3615ZM9.10645 42.1419C9.24455 42.0893 9.21588 42.2876 8.98621 42.1589C9.02658 42.1583 9.06693 42.1525 9.10645 42.1419ZM86.6397 22.3209C86.7137 22.2915 86.7948 22.2819 86.7745 22.357C86.7543 22.4322 86.6769 22.3667 86.6397 22.3209ZM12.771 32.029C12.8267 32.0215 12.8558 32.0517 12.7576 32.1552C12.7297 32.1209 12.6662 32.0502 12.771 32.029ZM63.3317 15.9726C63.3317 15.9726 63.2907 16.0019 63.2746 16.0155C63.0949 15.9315 63.4062 15.8493 63.3317 15.9726ZM85.9873 51.9472C85.9784 52.0568 85.7483 51.9145 85.9469 51.8827C85.9616 51.9045 85.9891 51.9253 85.9873 51.9472ZM58.0103 14.3676C58.0797 14.3862 58.0339 14.4948 57.9445 14.4127C57.9541 14.3615 57.9834 14.3604 58.0103 14.3676ZM56.9628 14.0242C57.0456 14.1002 56.9268 14.1579 56.9385 14.2371C56.9525 14.2006 56.8614 13.9254 56.9628 14.0242ZM30.0257 34.8301C30.1838 34.8411 30.2583 34.8253 30.2925 34.9284L30.0257 34.8301ZM87.2294 52.4726C87.1445 52.4811 87.0745 52.4803 87.0481 52.3792C86.9822 52.4242 87.1621 52.2933 87.2217 52.4705L87.2294 52.4726ZM29.9644 34.8584C29.8656 34.8723 29.9014 34.8774 29.8257 34.8213C29.9246 34.7761 29.9065 34.7668 29.9567 34.8564L29.9644 34.8584ZM35.4442 35.4313C35.3654 35.4325 35.2723 35.4255 35.3365 35.3711C35.4008 35.3167 35.4325 35.352 35.441 35.4125L35.4442 35.4313ZM11.7069 26.6308C11.7069 26.6308 11.6889 26.5901 11.6962 26.5786C11.7515 26.4502 11.9357 26.6249 11.7037 26.612L11.7069 26.6308ZM76.7462 16.7463C76.7586 16.8839 76.5382 16.6905 76.7024 16.6942C76.7053 16.6681 76.7361 16.6764 76.7337 16.716L76.7462 16.7463ZM85.1939 18.2307C85.2559 18.1847 85.302 18.2284 85.3788 18.2803C85.346 18.2908 85.3115 18.2918 85.2789 18.283C85.2464 18.2743 85.217 18.2563 85.1939 18.2307ZM18.2908 34.2154C18.3362 34.2769 18.2762 34.2697 18.2272 34.2521C18.1783 34.2345 18.2576 34.1394 18.3062 34.2196L18.2908 34.2154ZM85.8793 61.4013C85.8624 61.4639 85.8122 61.4818 85.7658 61.5007C85.7514 61.4162 85.8919 61.324 85.8793 61.4013ZM83.1536 17.6169C83.2116 17.6011 83.1858 17.5897 83.2538 17.6437C83.1877 17.6439 83.2096 17.6543 83.1536 17.6169ZM13.5536 46.5751L13.2955 46.506C13.4171 46.4535 13.4676 46.4804 13.5536 46.5751ZM55.5544 9.65758C55.6353 9.67925 55.641 9.84197 55.4666 9.69225C55.4997 9.69216 55.5257 9.67226 55.5544 9.65758ZM18.6496 43.5931C18.5608 43.6006 18.5889 43.6037 18.5378 43.5631C18.6006 43.5755 18.5725 43.5724 18.6451 43.6098L18.6496 43.5931ZM72.6377 64.5513C72.7315 64.5406 72.7687 64.5864 72.7918 64.7C72.6746 64.6597 72.6444 64.6337 72.6377 64.5513ZM69.7426 57.3953L69.6425 57.3685C69.6425 57.3685 69.7069 57.2828 69.7426 57.3953ZM89.0824 53.3675C89.1245 53.3341 89.1733 53.2755 89.2058 53.3693C89.2384 53.4631 89.1549 53.4049 89.0824 53.3675ZM86.0799 36.9282C86.1523 37.073 85.9302 37.3761 86.0799 36.9282V36.9282ZM31.1975 36.3977C31.4119 36.3968 31.621 36.4528 31.8061 36.5608C31.4371 36.5201 31.2934 36.4861 31.1975 36.3977ZM78.4095 47.987C78.4794 47.9117 78.5404 47.8385 78.6547 47.905C78.5728 47.9636 78.5134 48.0462 78.4095 47.987ZM78.0579 47.6824C77.9847 47.6628 78.0554 47.5385 78.1032 47.6677C78.0817 47.6709 78.0772 47.6876 78.0541 47.6814L78.0579 47.6824Z" fill="white"/>
</svg>
