<svg xmlns="http://www.w3.org/2000/svg" width="280" height="65" viewBox="0 0 175.4 42.42"><defs><style>.cls-1{fill:#e1a531;}</style></defs><title>Ресурс 1</title><g id="Слой_2" data-name="Слой 2"><g id="Слой_1-2" data-name="Слой 1"><rect class="cls-1" x="0.02" y="32.53" width="175.34" height="9.89"/><path class="cls-1" d="M0,18.79V0H8.7a6.78,6.78,0,0,1,4.72,1.56,5.11,5.11,0,0,1,1.74,4,5.26,5.26,0,0,1-3.89,5.21l5.8,8H12.59l-5.47-7.6H3.86v7.6ZM3.86,7.94H8.48c1.74,0,2.79-.81,2.79-2.28s-1-2.28-2.79-2.28H3.86Z"/><path class="cls-1" d="M19.92,7.09a7.28,7.28,0,0,1,5.34-2,7.28,7.28,0,0,1,5.34,2,6.73,6.73,0,0,1,2.09,5,6.76,6.76,0,0,1-2.09,5,7.37,7.37,0,0,1-5.34,2,7.37,7.37,0,0,1-5.34-2,6.76,6.76,0,0,1-2.09-5A6.65,6.65,0,0,1,19.92,7.09Zm5.34,8.75a3.52,3.52,0,0,0,2.66-1.07,3.71,3.71,0,0,0,1-2.68,3.6,3.6,0,0,0-1-2.66,3.83,3.83,0,0,0-5.31,0,3.6,3.6,0,0,0-1,2.66,3.71,3.71,0,0,0,1,2.68A3.52,3.52,0,0,0,25.26,15.83Z"/><path class="cls-1" d="M34.71,17.87V14.52A10.68,10.68,0,0,0,40.18,16c1.53,0,2.31-.38,2.31-1.13,0-.35-.16-.62-.67-.83a4.25,4.25,0,0,0-.7-.24l-1-.24c-.46-.13-.83-.22-1.07-.3-3.09-.83-4.35-1.8-4.35-4.16C34.71,6.6,36.93,5,40.61,5a9.27,9.27,0,0,1,5,1.23V9.5a9.5,9.5,0,0,0-4.86-1.4c-1.42,0-2.15.35-2.15,1.07,0,.46.35.65.75.89s.83.24,1.15.35l1.42.3c2.9.67,4.37,1.9,4.37,4.24a3.53,3.53,0,0,1-1.64,3,7.37,7.37,0,0,1-4.35,1.15A10.82,10.82,0,0,1,34.71,17.87Z"/><path class="cls-1" d="M49.06,18.79V5.39h3.78V7a4.86,4.86,0,0,1,4.08-2,4.46,4.46,0,0,1,4.16,2.28A5.67,5.67,0,0,1,65.7,5c2.87,0,4.78,1.85,4.78,5.37v8.37H66.7V11.27c0-1.85-.75-2.76-2.23-2.76a3.25,3.25,0,0,0-2.79,1.82v8.45H57.89V11.27c0-1.85-.75-2.76-2.23-2.76a3.45,3.45,0,0,0-2.82,1.77v8.51Z"/><path class="cls-1" d="M75,7.09a8,8,0,0,1,10.68,0,6.73,6.73,0,0,1,2.09,5,6.76,6.76,0,0,1-2.09,5,8.09,8.09,0,0,1-10.68,0,6.76,6.76,0,0,1-2.09-5A6.65,6.65,0,0,1,75,7.09Zm5.34,8.75A3.52,3.52,0,0,0,83,14.76a3.71,3.71,0,0,0,1-2.68,3.6,3.6,0,0,0-1-2.66,3.83,3.83,0,0,0-5.31,0,3.6,3.6,0,0,0-1,2.66,3.71,3.71,0,0,0,1,2.68A3.52,3.52,0,0,0,80.39,15.83Z"/><path class="cls-1" d="M90.53,15.43V0h3.78V14.44c0,.89.4,1.34,1.21,1.34a1.85,1.85,0,0,0,1-.24v3.11a5.34,5.34,0,0,1-2.39.48C92,19.13,90.53,18.12,90.53,15.43Z"/><path class="cls-1" d="M100.2,7.09a8,8,0,0,1,10.68,0,6.73,6.73,0,0,1,2.09,5,6.76,6.76,0,0,1-2.09,5,8.09,8.09,0,0,1-10.68,0,6.76,6.76,0,0,1-2.09-5A6.65,6.65,0,0,1,100.2,7.09Zm5.34,8.75a3.53,3.53,0,0,0,2.66-1.07,3.71,3.71,0,0,0,1-2.68,3.6,3.6,0,0,0-1-2.66,3.83,3.83,0,0,0-5.31,0,3.61,3.61,0,0,0-1,2.66,3.71,3.71,0,0,0,1,2.68A3.52,3.52,0,0,0,105.54,15.83Z"/><path class="cls-1" d="M116.57,17.12a7.42,7.42,0,0,1-1.77-5,7.28,7.28,0,0,1,1.77-5,5.77,5.77,0,0,1,4.53-2,5.29,5.29,0,0,1,4.4,2V0h3.78V18.79h-3.78V17.15a5.19,5.19,0,0,1-4.4,2A5.83,5.83,0,0,1,116.57,17.12Zm8.94-3.3V10.33a3.76,3.76,0,0,0-3.33-2,3.4,3.4,0,0,0-2.6,1.07,3.78,3.78,0,0,0-1,2.66,3.8,3.8,0,0,0,1,2.68,3.41,3.41,0,0,0,2.6,1.07A3.79,3.79,0,0,0,125.51,13.82Z"/><path class="cls-1" d="M134.18,17.2A6.6,6.6,0,0,1,132,12.08a6.93,6.93,0,0,1,1.93-5,6.61,6.61,0,0,1,5-2,5.75,5.75,0,0,1,4.64,2.07,7.52,7.52,0,0,1,1.74,5v1h-9.61c.4,1.83,2.12,2.79,4.48,2.79a8.55,8.55,0,0,0,4.29-1.18v3a8.28,8.28,0,0,1-5.1,1.37A7.6,7.6,0,0,1,134.18,17.2Zm7.49-6.49A2.72,2.72,0,0,0,138.84,8a2.92,2.92,0,0,0-3.06,2.68Z"/><path class="cls-1" d="M147.22,18.79v-2.5L154,8.56h-6.33V5.39h11.51V8l-6.79,7.65h7.22v3.17Z"/><path class="cls-1" d="M166,18.79h-3.78V0H166V7a5.86,5.86,0,0,1,4.48-2c3.11,0,4.88,2.09,4.88,5.53v8.21h-3.78V11.35c0-2.07-1.15-2.84-2.55-2.84a3.83,3.83,0,0,0-3,1.74Z"/></g></g></svg>