<svg width="307" height="101" viewBox="0 0 307 101" fill="none" xmlns="http://www.w3.org/2000/svg">
<path d="M137.011 17.7955H131.687V26.0498H129.546V5.99121H137.011C140.73 5.99121 143.209 8.35766 143.209 11.8791C143.209 15.4291 140.73 17.7955 137.011 17.7955ZM136.814 7.90743H131.687V15.8793H136.814C139.49 15.8793 141.068 14.3865 141.068 11.8791C141.068 9.37168 139.49 7.90743 136.814 7.90743Z" fill="#313E79"/>
<path d="M149.325 19.6542C149.382 20.9216 149.466 21.4853 149.747 22.1615C150.396 23.7108 151.635 24.4435 153.523 24.4435C154.171 24.4435 154.791 24.302 155.298 24.1052C155.918 23.8518 156.284 23.5978 157.044 22.8651L158.425 24.0766C157.411 25.0632 156.931 25.4011 156.086 25.7389C155.326 26.0493 154.424 26.2182 153.41 26.2182C149.41 26.2182 147.297 23.7388 147.297 19.0345C147.297 14.6673 149.466 12.0195 152.988 12.0195C156.509 12.0195 158.678 14.5834 158.678 18.7246V19.6542H149.325ZM156.396 16.3016C155.918 14.6959 154.621 13.7377 152.988 13.7377C151.523 13.7377 150.311 14.5269 149.747 15.8229C149.466 16.4426 149.382 16.8934 149.325 18.1328H156.65C156.593 17.0623 156.565 16.8084 156.396 16.3016Z" fill="#313E79"/>
<path d="M172.204 25.7954C171.528 26.0773 170.767 26.2182 169.866 26.2182C165.978 26.2182 163.64 23.542 163.64 19.1189C163.64 14.6959 165.978 12.0195 169.866 12.0195C170.767 12.0195 171.528 12.1605 172.204 12.4424C172.965 12.7802 173.415 13.118 174.345 14.0761L172.965 15.3715C172.261 14.6394 171.922 14.3574 171.387 14.132C170.936 13.9352 170.429 13.8222 169.838 13.8222C167.105 13.8222 165.669 15.6254 165.669 19.1189C165.669 22.6124 167.077 24.4156 169.809 24.4156C170.401 24.4156 170.88 24.3305 171.331 24.1337C171.894 23.8797 172.232 23.5978 172.965 22.8372L174.345 24.1617C173.415 25.1192 172.965 25.4576 172.204 25.7954Z" fill="#313E79"/>
<path d="M183.054 29.4008C182.407 31.1755 181.251 31.9926 179.364 31.9926H178.491V30.19H179.111C180.434 30.19 180.885 29.8522 181.392 28.4712L182.378 25.767L177.392 12.188H179.589L183.392 23.3161L187.168 12.188H189.364L183.054 29.4008Z" fill="#313E79"/>
<path d="M199.481 26.2182C198.636 26.2182 197.903 26.0773 197.255 25.7674C196.664 25.4855 196.326 25.2036 195.649 24.4156V32.247H193.621V12.1885H195.649V13.8222C196.297 13.0621 196.635 12.7802 197.227 12.4703C197.847 12.1605 198.579 12.0195 199.453 12.0195C203.031 12.0195 204.636 14.245 204.636 19.1468C204.636 23.9642 203.002 26.2182 199.481 26.2182ZM199.115 13.8222C196.692 13.8222 195.649 15.4286 195.649 19.1189C195.649 22.8372 196.692 24.4156 199.143 24.4156C201.566 24.4156 202.608 22.8372 202.608 19.1468C202.608 15.3715 201.594 13.8222 199.115 13.8222Z" fill="#313E79"/>
<path d="M218.19 25.7954C217.514 26.0773 216.754 26.2182 215.852 26.2182C211.964 26.2182 209.626 23.542 209.626 19.1189C209.626 14.6959 211.964 12.0195 215.852 12.0195C216.754 12.0195 217.514 12.1605 218.19 12.4424C218.951 12.7802 219.401 13.118 220.332 14.0761L218.951 15.3715C218.247 14.6394 217.908 14.3574 217.373 14.132C216.922 13.9352 216.415 13.8222 215.824 13.8222C213.091 13.8222 211.655 15.6254 211.655 19.1189C211.655 22.6124 213.063 24.4156 215.795 24.4156C216.387 24.4156 216.866 24.3305 217.317 24.1337C217.88 23.8797 218.218 23.5978 218.951 22.8372L220.332 24.1617C219.401 25.1192 218.951 25.4576 218.19 25.7954Z" fill="#313E79"/>
<path d="M234.336 26.0488V19.7661H227.631V26.0488H225.631V12.188H227.631V18.0193H234.336V12.188H236.364V26.0488H234.336Z" fill="#313E79"/>
<path d="M249.045 26.0488H242.875V12.188H244.875V17.6816H249.045C251.693 17.6816 253.44 19.3438 253.44 21.8792C253.44 24.386 251.693 26.0488 249.045 26.0488ZM248.819 19.4562H244.875V24.3015H248.819C250.509 24.3015 251.411 23.4285 251.411 21.8792C251.411 20.3293 250.509 19.4562 248.819 19.4562ZM255.665 26.0488V12.188H257.693V26.0488H255.665Z" fill="#313E79"/>
<path d="M273.644 26.0505V15.3167L266.517 26.0505H264.517V12.1896H266.517V22.8662L273.644 12.1896H275.672V26.0505H273.644ZM270.094 9.76725C267.756 9.76725 266.15 8.75264 265.981 6.21729H267.784C267.898 7.62621 268.715 8.33036 270.094 8.33036C271.475 8.33036 272.292 7.62621 272.405 6.21729H274.208C274.038 8.75264 272.433 9.76725 270.094 9.76725Z" fill="#313E79"/>
<path d="M144.589 57.9027V42.6621L139.095 54.7477H137.264L131.686 42.6621V57.9027H129.545V37.8447H131.686L138.222 52.0714L144.589 37.8447H146.73V57.9027H144.589Z" fill="#313E79"/>
<path d="M162.483 56.4934C161.469 57.508 160.088 58.0712 158.511 58.0712C156.933 58.0712 155.553 57.508 154.539 56.4934C153.356 55.2819 152.849 53.6488 152.849 50.9719C152.849 48.2956 153.356 46.6619 154.539 45.451C155.553 44.4364 156.933 43.8726 158.511 43.8726C160.061 43.8726 161.469 44.4364 162.483 45.451C163.666 46.6333 164.174 48.2956 164.174 50.888C164.174 53.6488 163.694 55.254 162.483 56.4934ZM161.046 46.6904C160.426 46.0427 159.497 45.6758 158.511 45.6758C157.553 45.6758 156.624 46.0427 156.004 46.6904C155.187 47.507 154.877 48.7179 154.877 50.9719C154.877 53.226 155.187 54.4089 156.004 55.254C156.624 55.9017 157.525 56.2686 158.511 56.2686C159.497 56.2686 160.426 55.9017 161.046 55.254C161.835 54.4368 162.145 53.2545 162.145 51.0564C162.145 48.6899 161.863 47.507 161.046 46.6904Z" fill="#313E79"/>
<path d="M177.925 57.9018V45.7882H173.023V50.5777C173.023 56.3805 171.164 57.9018 168.628 57.9018H167.698V56.155H168.149C169.389 56.155 171.079 55.7608 171.079 49.9859V44.0415H179.953V57.9018H177.925Z" fill="#313E79"/>
<path d="M195.338 56.4934C194.324 57.508 192.943 58.0712 191.366 58.0712C189.789 58.0712 188.408 57.508 187.394 56.4934C186.211 55.2819 185.704 53.6488 185.704 50.9719C185.704 48.2956 186.211 46.6619 187.394 45.451C188.408 44.4364 189.789 43.8726 191.366 43.8726C192.915 43.8726 194.324 44.4364 195.338 45.451C196.522 46.6333 197.029 48.2956 197.029 50.888C197.029 53.6488 196.55 55.254 195.338 56.4934ZM193.901 46.6904C193.282 46.0427 192.352 45.6758 191.366 45.6758C190.409 45.6758 189.479 46.0427 188.859 46.6904C188.042 47.507 187.732 48.7179 187.732 50.9719C187.732 53.226 188.042 54.4089 188.859 55.254C189.479 55.9017 190.38 56.2686 191.366 56.2686C192.352 56.2686 193.282 55.9017 193.901 55.254C194.69 54.4368 195.001 53.2545 195.001 51.0564C195.001 48.6899 194.719 47.507 193.901 46.6904Z" fill="#313E79"/>
<path d="M212.723 62.0429V57.9018H202.412V62.0429H200.469V56.155H202.103C203.145 53.8451 203.934 51.732 203.934 46.6899V44.0415H212.638V56.155H214.696V62.0429H212.723ZM210.61 45.7882H205.878V48.408C205.849 52.0704 205.201 54.0984 204.3 56.155H210.61V45.7882Z" fill="#313E79"/>
<path d="M220.841 51.5078C220.897 52.7751 220.982 53.3389 221.264 54.0145C221.911 55.5638 223.151 56.2965 225.038 56.2965C225.687 56.2965 226.306 56.1556 226.814 55.9587C227.433 55.7048 227.799 55.4514 228.56 54.7187L229.94 55.9302C228.926 56.9162 228.447 57.2546 227.602 57.5925C226.842 57.9023 225.94 58.0712 224.925 58.0712C220.925 58.0712 218.813 55.5918 218.813 50.888C218.813 46.5209 220.982 43.8726 224.503 43.8726C228.025 43.8726 230.194 46.4365 230.194 50.5782V51.5078H220.841ZM227.912 48.1552C227.433 46.5488 226.137 45.5913 224.503 45.5913C223.038 45.5913 221.827 46.3805 221.264 47.6758C220.982 48.2956 220.897 48.747 220.841 49.9864H228.165C228.109 48.9153 228.081 48.6619 227.912 48.1552Z" fill="#313E79"/>
<path d="M232.987 57.9018L239.495 50.5777L233.55 44.0415H236.03L241.889 50.69V44.0415H243.889V50.69L249.777 44.0415H252.228L246.284 50.5777L252.791 57.9018H250.228L243.889 50.746V57.9018H241.889V50.746L235.55 57.9018H232.987Z" fill="#313E79"/>
<path d="M265.642 57.9018V51.6196H258.937V57.9018H256.938V44.0415H258.937V49.8729H265.642V44.0415H267.671V57.9018H265.642Z" fill="#313E79"/>
<path d="M280.351 57.9018H274.182V44.0415H276.182V49.5351H280.351C283 49.5351 284.746 51.1974 284.746 53.7321C284.746 56.2395 283 57.9018 280.351 57.9018ZM280.126 51.3098H276.182V56.155H280.126C281.816 56.155 282.718 55.2814 282.718 53.7321C282.718 52.1828 281.816 51.3098 280.126 51.3098ZM286.972 57.9018V44.0415H289V57.9018H286.972Z" fill="#313E79"/>
<path d="M304.95 57.9019V47.1682L297.823 57.9019H295.823V44.0417H297.823V54.7184L304.95 44.0417H306.979V57.9019H304.95ZM301.4 41.6187C299.062 41.6187 297.456 40.6041 297.287 38.0693H299.09C299.203 39.4777 300.02 40.1818 301.4 40.1818C302.781 40.1818 303.598 39.4777 303.711 38.0693H305.514C305.344 40.6041 303.739 41.6187 301.4 41.6187Z" fill="#313E79"/>
<path d="M143.603 94.6007V89.7548H129.545V69.6968H131.686V87.8397H141.18V69.6968H143.321V87.8397H145.715V94.6007H143.603Z" fill="#313E79"/>
<path d="M152.087 83.3612C152.143 84.6291 152.228 85.1924 152.509 85.8686C153.157 87.4179 154.397 88.1505 156.284 88.1505C156.932 88.1505 157.552 88.009 158.059 87.8127C158.679 87.5588 159.045 87.3054 159.805 86.5721L161.186 87.7836C160.172 88.7702 159.693 89.1081 158.848 89.4465C158.087 89.7557 157.186 89.9253 156.171 89.9253C152.171 89.9253 150.058 87.4458 150.058 82.7415C150.058 78.3749 152.228 75.7266 155.749 75.7266C159.271 75.7266 161.44 78.2905 161.44 82.4316V83.3612H152.087ZM159.158 80.0092C158.679 78.4029 157.383 77.4447 155.749 77.4447C154.284 77.4447 153.073 78.234 152.509 79.5299C152.228 80.1496 152.143 80.6004 152.087 81.8398H159.411C159.355 80.7693 159.327 80.5153 159.158 80.0092Z" fill="#313E79"/>
<path d="M175.895 89.7553V83.4731H169.19V89.7553H167.19V75.895H169.19V81.7264H175.895V75.895H177.923V89.7553H175.895Z" fill="#313E79"/>
<path d="M188.971 77.6418V89.7553H186.943V77.6418H182.181V75.895H193.507V77.6418H188.971Z" fill="#313E79"/>
<path d="M203.594 89.9253C202.749 89.9253 202.017 89.7843 201.369 89.4745C200.777 89.1925 200.439 88.9106 199.763 88.1226V95.954H197.734V75.8955H199.763V77.5292C200.41 76.7691 200.749 76.4872 201.34 76.1774C201.96 75.8675 202.693 75.7266 203.566 75.7266C207.144 75.7266 208.75 77.952 208.75 82.8539C208.75 87.6712 207.116 89.9253 203.594 89.9253ZM203.228 77.5292C200.805 77.5292 199.763 79.1356 199.763 82.8259C199.763 86.5442 200.805 88.1226 203.256 88.1226C205.679 88.1226 206.721 86.5442 206.721 82.8539C206.721 79.0785 205.707 77.5292 203.228 77.5292Z" fill="#313E79"/>
<path d="M56.2937 45.1506C53.3331 42.19 48.5622 42.19 45.6022 45.1506C42.641 48.1118 42.641 52.8822 45.6016 55.8422C48.5622 58.8034 53.3331 58.8039 56.2943 55.8428C59.2549 52.8822 59.2513 48.1088 56.2937 45.1506Z" fill="#EEA010"/>
<path d="M17.4522 42.754C18.8778 41.3285 18.8653 38.9965 17.4522 37.5835C16.0284 36.1597 13.7066 36.1573 12.281 37.5829C10.8673 38.9966 10.8548 41.3285 12.281 42.7547C13.6941 44.1678 16.0368 44.1695 17.4522 42.754Z" fill="#313E79"/>
<path d="M7.12446 47.9116C5.70066 46.4878 3.36873 46.4956 1.95326 47.9116C0.529465 49.3348 0.527086 51.6573 1.95326 53.0835C3.36635 54.4966 5.69888 54.5084 7.12446 53.0829C8.53755 51.6692 8.53755 49.3247 7.12446 47.9116Z" fill="#313E79"/>
<path d="M43.0104 17.1961C44.4259 15.7806 44.4235 13.4386 43.0104 12.0255C41.5866 10.6017 39.2547 10.6094 37.8392 12.0249C36.4154 13.4487 36.413 15.7711 37.8392 17.1967C39.2523 18.6104 41.5842 18.6223 43.0104 17.1961Z" fill="#313E79"/>
<path d="M30.6917 30.2406C32.1072 28.8245 32.1048 26.4824 30.6917 25.0693C29.2679 23.6455 26.9359 23.6533 25.5205 25.0693C24.0967 26.4925 24.0943 28.815 25.5205 30.2406C26.9335 31.6543 29.2655 31.6661 30.6917 30.2406Z" fill="#313E79"/>
<path d="M33.9631 8.14938C34.6852 7.42678 34.6834 6.2843 33.9631 5.56348C33.2405 4.84147 32.0993 4.84147 31.3772 5.56348C30.6552 6.28608 30.6547 7.42737 31.3767 8.14938C32.0993 8.87198 33.2405 8.87139 33.9631 8.14938Z" fill="#313E79"/>
<path d="M21.2819 20.8309C22.0039 20.1089 22.0021 18.9658 21.2819 18.2456C20.5599 17.5236 19.4186 17.5236 18.6966 18.2456C17.974 18.9676 17.974 20.1095 18.696 20.8315C19.418 21.5535 20.5599 21.5535 21.2819 20.8309Z" fill="#313E79"/>
<path d="M53.3398 6.86657C54.7636 5.44277 54.7535 3.10844 53.3404 1.69476C51.9166 0.271557 49.5947 0.269178 48.1686 1.69476C46.7555 3.10844 46.743 5.44039 48.1691 6.86657C49.5822 8.27965 51.9243 8.28203 53.3398 6.86657Z" fill="#313E79"/>
<path d="M93.7388 67.9209C93.0162 68.6435 93.0186 69.7866 93.7388 70.5068C94.4608 71.2288 95.6021 71.2288 96.3241 70.5068C97.0461 69.7848 97.0461 68.6435 96.3241 67.9209C95.6021 67.1989 94.4608 67.1989 93.7388 67.9209Z" fill="#313E79"/>
<path d="M81.0555 80.6035C80.3329 81.3261 80.3352 82.4692 81.0555 83.1895C81.7775 83.9115 82.9188 83.9115 83.6408 83.1895C84.3628 82.4668 84.3628 81.3261 83.6408 80.6035C82.9188 79.8815 81.7775 79.8815 81.0555 80.6035Z" fill="#313E79"/>
<path d="M84.6889 38.2152C83.2781 39.6307 83.2657 41.9627 84.6895 43.3864C86.1026 44.7995 88.4446 44.8019 89.8601 43.3864C91.2839 41.9627 91.2761 39.6307 89.8607 38.2152C88.4369 36.7914 86.115 36.789 84.6889 38.2152Z" fill="#313E79"/>
<path d="M96.3221 34.3382C97.0441 33.6162 97.0441 32.4749 96.3221 31.7529C95.6001 31.0309 94.4588 31.0309 93.7368 31.7529C93.0142 32.4749 93.016 33.618 93.7368 34.3382C94.4588 35.0608 95.6001 35.0602 96.3221 34.3382Z" fill="#313E79"/>
<path d="M8.40647 33.7049C9.12847 32.9829 9.12492 31.8416 8.40469 31.1213C7.68269 30.3993 6.54139 30.3993 5.82117 31.1195C5.10095 31.8392 5.09916 32.9829 5.82117 33.7049C6.54318 34.4269 7.68446 34.4269 8.40647 33.7049Z" fill="#313E79"/>
<path d="M8.40646 67.2881C7.68445 66.5661 6.54318 66.5661 5.82117 67.2881C5.09916 68.0107 5.09916 69.152 5.82117 69.874C6.54318 70.596 7.68447 70.5966 8.40707 69.874C9.12908 69.152 9.12669 68.0083 8.40646 67.2881Z" fill="#313E79"/>
<path d="M18.7084 80.1499C17.9864 80.8719 17.9864 82.0132 18.7084 82.7353C19.4304 83.4573 20.5717 83.4578 21.2943 82.7358C22.0163 82.0138 22.0139 80.8701 21.2937 80.1499C20.5717 79.4279 19.4304 79.4279 18.7084 80.1499Z" fill="#313E79"/>
<path d="M70.1326 8.14956C70.8546 7.42696 70.8522 6.28389 70.132 5.56307C69.4124 4.84345 68.2687 4.84107 67.5467 5.56307C66.8247 6.28568 66.8247 7.42697 67.5467 8.14898C68.2687 8.87099 69.4106 8.87157 70.1326 8.14956Z" fill="#313E79"/>
<path d="M83.0066 21.0242C83.7292 20.3016 83.7262 19.1585 83.006 18.4383C82.2864 17.7181 81.1433 17.7163 80.4207 18.4383C79.6987 19.1603 79.6987 20.3016 80.4207 21.0236C81.1427 21.7456 82.2846 21.7462 83.0066 21.0242Z" fill="#313E79"/>
<path d="M63.6699 17.1967C65.0937 15.7729 65.0961 13.4511 63.6699 12.0249C62.2568 10.6118 59.9249 10.5993 58.4987 12.0255C57.0856 13.4386 57.0832 15.7806 58.4987 17.1961C59.9225 18.6199 62.2544 18.6122 63.6699 17.1967Z" fill="#313E79"/>
<path d="M71.3737 30.0709C72.7969 31.4953 75.1294 31.4875 76.5449 30.0715C77.9681 28.6483 77.9705 26.3258 76.5449 24.8997C75.1312 23.4866 72.7993 23.4747 71.3737 24.9002C69.96 26.3133 69.9582 28.656 71.3737 30.0709Z" fill="#313E79"/>
<path d="M21.3191 46.6205C19.1703 48.7686 19.1703 52.2294 21.3185 54.377C23.466 56.5252 26.9274 56.5252 29.0756 54.377C31.2232 52.2294 31.2208 48.7663 29.075 46.6205C26.9274 44.4729 23.4666 44.4729 21.3191 46.6205Z" fill="#313E79"/>
<path d="M41.95 67.251C44.0976 65.1034 44.0952 61.6402 41.9494 59.4944C39.8018 57.3463 36.3411 57.3463 34.1935 59.4944C32.0453 61.6426 32.0453 65.1034 34.1929 67.251C36.3405 69.3991 39.8018 69.3991 41.95 67.251Z" fill="#313E79"/>
<path d="M59.1307 84.4327C57.7171 85.8464 57.7147 88.1884 59.1307 89.6039C60.5539 91.0277 62.8865 91.0194 64.3025 89.6039C65.7275 88.1783 65.7252 85.8565 64.302 84.4327C62.8883 83.0196 60.5563 83.0071 59.1307 84.4327Z" fill="#313E79"/>
<path d="M48.8037 94.7599C47.3799 96.1837 47.3876 98.5157 48.8031 99.9312C50.2269 101.355 52.5487 101.357 53.9749 99.9312C55.388 98.5181 55.3981 96.1837 53.9743 94.7599C52.5612 93.3468 50.2191 93.3445 48.8037 94.7599Z" fill="#313E79"/>
<path d="M84.6891 58.8752C83.2653 60.299 83.273 62.6309 84.6885 64.0464C86.1123 65.4702 88.4342 65.4726 89.8604 64.0464C91.2759 62.6309 91.2836 60.299 89.8598 58.8752C88.4467 57.4621 86.1046 57.4597 84.6891 58.8752Z" fill="#313E79"/>
<path d="M72.0078 71.5563C70.5841 72.9801 70.5924 75.3121 72.0073 76.7275C73.4311 78.1513 75.7535 78.1537 77.1791 76.7275C78.5945 75.3121 78.6029 72.9801 77.1785 71.5563C75.7654 70.1432 73.4233 70.1408 72.0078 71.5563Z" fill="#313E79"/>
<path d="M100.191 48.5447C98.7774 47.1316 96.4449 47.1197 95.0193 48.5453C93.6056 49.9584 93.6038 52.3004 95.0193 53.7165C96.4425 55.1397 98.775 55.132 100.191 53.7165C101.614 52.2927 101.614 49.9685 100.191 48.5447Z" fill="#313E79"/>
<path d="M68.1791 93.4805C67.4571 94.2025 67.4571 95.3438 68.1791 96.0658C68.9011 96.7878 70.0442 96.786 70.7662 96.064C71.4882 95.342 71.4864 94.2025 70.7644 93.4805C70.0424 92.7585 68.9017 92.7585 68.1791 93.4805Z" fill="#313E79"/>
<path d="M38.473 84.4307C37.0492 85.8539 37.0468 88.1763 38.473 89.6018C39.8861 91.0155 42.2186 91.0274 43.6442 89.6018C45.0573 88.1882 45.0597 85.8461 43.6442 84.4307C42.2204 83.0069 39.8884 83.0146 38.473 84.4307Z" fill="#313E79"/>
<path d="M32.0113 93.4785C31.2894 94.2005 31.2911 95.3436 32.0113 96.0638C32.7315 96.7841 33.8746 96.7858 34.5971 96.0638C35.3191 95.3418 35.3191 94.2005 34.5971 93.4785C33.8746 92.7565 32.7333 92.7565 32.0113 93.4785Z" fill="#313E79"/>
<path d="M54.6331 28.8195C56.7807 26.6713 56.7789 23.2082 54.6331 21.0623C52.4849 18.9148 49.0242 18.9148 46.8766 21.0623C44.7284 23.2105 44.7284 26.6713 46.876 28.8189C49.0242 30.9671 52.4849 30.9676 54.6331 28.8195Z" fill="#313E79"/>
<path d="M17.4542 58.2406C16.0405 56.8269 13.6985 56.8252 12.283 58.2406C10.8592 59.6644 10.8675 61.9964 12.283 63.4118C13.7068 64.8356 16.0286 64.8374 17.4542 63.4118C18.8655 61.9964 18.878 59.6644 17.4542 58.2406Z" fill="#313E79"/>
<path d="M25.158 71.1154C23.7343 72.5392 23.742 74.8712 25.1574 76.2866C26.5812 77.7104 28.9031 77.7128 30.3293 76.2866C31.74 74.8712 31.7525 72.5392 30.3287 71.1154C28.9156 69.7023 26.5729 69.6999 25.158 71.1154Z" fill="#313E79"/>
<path d="M47.5081 72.8098C45.3599 74.958 45.3599 78.4194 47.5081 80.5669C49.6557 82.7145 53.1171 82.7145 55.2652 80.5664C57.4128 78.4188 57.4128 74.958 55.2652 72.8104C53.1171 70.6622 49.6557 70.6623 47.5081 72.8098Z" fill="#313E79"/>
<path d="M73.0658 47.2527C70.9176 49.4009 70.9176 52.8616 73.0658 55.0098C75.2134 57.1574 78.6741 57.1574 80.8223 55.0092C82.9699 52.8616 82.9699 49.4009 80.8223 47.2533C78.6741 45.1051 75.2134 45.1051 73.0658 47.2527Z" fill="#313E79"/>
<path d="M68.1414 67.6894C70.289 65.5418 70.289 62.0811 68.1414 59.9335C65.9932 57.7853 62.5325 57.7853 60.3849 59.9329C58.2367 62.0811 58.2367 65.5418 60.3849 67.69C62.5325 69.8376 65.9932 69.8376 68.1414 67.6894Z" fill="#313E79"/>
<path d="M41.5107 41.059C43.6583 38.9114 43.6583 35.4507 41.5107 33.3031C39.3625 31.1549 35.9017 31.1549 33.7536 33.3025C31.606 35.4507 31.606 38.9115 33.7542 41.0596C35.9017 43.2072 39.3625 43.2072 41.5107 41.059Z" fill="#313E79"/>
<path d="M67.507 41.6935C69.6546 39.5459 69.6528 36.0828 67.507 33.9364C65.3588 31.7888 61.8981 31.7888 59.7505 33.9364C57.6023 36.0851 57.6023 39.5459 59.7499 41.6935C61.8981 43.8411 65.3588 43.8417 67.507 41.6935Z" fill="#313E79"/>
<path d="M93.0189 9.71794C93.3799 9.35693 93.3787 8.78539 93.0189 8.42558C92.6591 8.06577 92.0876 8.06458 91.726 8.42558C91.3649 8.78658 91.3649 9.35693 91.726 9.71794C92.087 10.0789 92.6579 10.0789 93.0189 9.71794Z" fill="#313E79"/>
<path d="M8.88346 91.2679C8.52249 91.6289 8.52249 92.1998 8.88346 92.5608C9.24443 92.9212 9.81473 92.9218 10.1757 92.5608C10.5367 92.1998 10.5355 91.6283 10.1757 91.2679C9.81592 90.9081 9.24443 90.9069 8.88346 91.2679Z" fill="#313E79"/>
<path d="M91.5264 91.0743C91.1654 91.4353 91.1654 92.0062 91.5264 92.3672C91.8874 92.7282 92.4577 92.7282 92.8193 92.3672C93.1797 92.0062 93.1785 91.4347 92.8187 91.0743C92.4589 90.7151 91.8874 90.7133 91.5264 91.0743Z" fill="#313E79"/>
<path d="M9.51013 9.05839C9.14913 9.4194 9.14913 9.99034 9.51013 10.3507C9.87114 10.7118 10.4421 10.7124 10.8031 10.3514C11.1641 9.99036 11.1629 9.4188 10.8025 9.05839C10.4427 8.69858 9.87114 8.69739 9.51013 9.05839Z" fill="#313E79"/>
</svg>
