<svg width="280" height="65" viewBox="0 0 132 32" fill="none" xmlns="http://www.w3.org/2000/svg">
<path d="M131.15 24.0776H0.708984V31.6261H131.15V24.0776Z" fill="#E5A22F"/>
<path d="M122.402 13.5663V4.11304H125.083V6.86436H127.341C129.739 6.86436 131.221 8.20474 131.221 10.18C131.221 11.1677 130.868 11.9437 130.233 12.5786C129.598 13.2136 128.61 13.4957 127.482 13.4957H122.402V13.5663ZM125.083 11.5204H126.917C127.976 11.5204 128.54 11.0266 128.54 10.18C128.54 9.33349 127.905 8.83967 126.917 8.83967H125.083V11.5204Z" fill="#E5A22F"/>
<path d="M105.117 13.5663L109.209 8.55747L105.54 4.11304H108.574L111.466 7.64037V4.11304H114.077V7.64037L116.969 4.11304H120.003L116.334 8.55747L120.426 13.5663H117.251L114.147 9.54513V13.5663H111.537V9.54513L108.362 13.5663H105.117Z" fill="#E5A22F"/>
<path d="M95.7354 12.4375C94.7477 11.5204 94.2539 10.3211 94.2539 8.83964C94.2539 7.42871 94.6772 6.22941 95.5943 5.3123C96.5114 4.32465 97.7107 3.90137 99.1216 3.90137C100.533 3.90137 101.591 4.39519 102.367 5.38285C103.213 6.3705 103.566 7.49925 103.566 8.91018V9.61565H96.7936C97.0758 10.8855 98.2751 11.591 99.9682 11.591C101.026 11.591 102.014 11.3088 103.002 10.7444V12.8608C102.155 13.4957 100.956 13.8484 99.4038 13.8484C97.9929 13.8484 96.723 13.3546 95.7354 12.4375ZM101.026 7.85198C100.956 6.79378 100.25 5.94722 99.0511 5.94722C97.8518 5.94722 97.0052 6.72323 96.8641 7.85198H101.026Z" fill="#E5A22F"/>
<path d="M91.5032 11.8026L88.0464 4.04248H86.3533L82.7554 11.8026H81.1328V14.0601H93.0552V11.8026H91.5032ZM85.3656 11.8026L87.1998 7.852L88.9635 11.8026H88.893H85.3656Z" fill="#E5A22F"/>
<path d="M74.9949 3.97192C72.2436 3.97192 70.0566 6.22942 70.0566 8.91019C70.0566 11.6615 72.3141 13.8485 74.9949 13.8485C77.7462 13.8485 79.9332 11.591 79.9332 8.91019C79.9332 6.22942 77.7462 3.97192 74.9949 3.97192ZM74.9949 11.7321C73.4429 11.7321 72.2436 10.4622 72.2436 8.98075C72.2436 7.42872 73.5134 6.22942 74.9949 6.22942C76.5469 6.22942 77.7462 7.49926 77.7462 8.98075C77.7462 10.5328 76.5469 11.7321 74.9949 11.7321Z" fill="#E5A22F"/>
<path d="M52.7019 3.97192C49.9506 3.97192 47.7637 6.22942 47.7637 8.91019C47.7637 11.6615 50.0212 13.8485 52.7019 13.8485C55.4533 13.8485 57.6402 11.591 57.6402 8.91019C57.6402 6.22942 55.3827 3.97192 52.7019 3.97192ZM52.7019 11.7321C51.1499 11.7321 49.9506 10.4622 49.9506 8.98075C49.9506 7.42872 51.2205 6.22942 52.7019 6.22942C54.1834 6.22942 55.4533 7.49926 55.4533 8.98075C55.4533 10.5328 54.1834 11.7321 52.7019 11.7321Z" fill="#E5A22F"/>
<path d="M34.7129 13.5663V4.11304H37.3231L40.0744 7.64037L42.8258 4.11304H45.436V13.5663H42.8963V7.71092L40.5683 10.6739H39.5101L37.2526 7.71092V13.5663H34.7129Z" fill="#E5A22F"/>
<path d="M25.1885 12.4375C24.2009 11.5204 23.707 10.3211 23.707 8.76908C23.707 7.2876 24.2009 6.0883 25.1885 5.1712C26.2467 4.25409 27.446 3.83081 28.8569 3.83081C29.9151 3.83081 30.8323 4.04245 31.6788 4.46573V6.72323C30.8323 6.37049 30.0562 6.15885 29.2802 6.15885C28.4337 6.15885 27.7282 6.37049 27.1638 6.86432C26.5994 7.35815 26.3173 7.99306 26.3173 8.76908C26.3173 9.54509 26.5994 10.18 27.1638 10.6738C27.7282 11.1677 28.4337 11.3793 29.2802 11.3793C30.2679 11.3793 31.1144 11.1677 31.8199 10.7444V13.0019C30.9028 13.4957 29.9151 13.7073 28.8569 13.7073C27.3755 13.8484 26.1762 13.3546 25.1885 12.4375Z" fill="#E5A22F"/>
<path d="M16.7937 3.97192C14.0424 3.97192 11.8555 6.22942 11.8555 8.91019C11.8555 11.6615 14.113 13.8485 16.7937 13.8485C19.5451 13.8485 21.732 11.591 21.732 8.91019C21.732 6.22942 19.4745 3.97192 16.7937 3.97192ZM16.7937 11.7321C15.2417 11.7321 14.0424 10.4622 14.0424 8.98075C14.0424 7.42872 15.3123 6.22942 16.7937 6.22942C18.3458 6.22942 19.5451 7.49926 19.5451 8.98075C19.5451 10.5328 18.2752 11.7321 16.7937 11.7321Z" fill="#E5A22F"/>
<path d="M0.779297 13.5663V0.303467H6.56413C7.97507 0.303467 9.10382 0.656199 9.95038 1.43221C10.7969 2.13768 11.2202 3.12533 11.2202 4.32463C11.2202 5.52392 10.7969 6.51158 9.95038 7.21705C9.10382 7.92252 7.97507 8.34579 6.56413 8.34579H3.53062V13.5663H0.779297ZM3.53062 6.01775H6.42304C7.76343 6.01775 8.53944 5.45338 8.53944 4.39518C8.53944 3.33698 7.76343 2.7726 6.42304 2.7726H3.53062V6.01775Z" fill="#E5A22F"/>
<path d="M60.8151 13.9896L63.7075 7.78146L66.4588 13.9896H68.9985L64.5541 4.04248H62.8609L58.2754 13.9896H60.8151Z" fill="#E5A22F"/>
</svg>
