<svg width="280" height="66" viewBox="0 0 280 66" fill="none" xmlns="http://www.w3.org/2000/svg">
<path d="M278.837 65.8513H0.490173V50.0884H278.837V65.8513Z" fill="#F6A508"/>
<path d="M0.627411 28.1891V0.561523H12.7029C15.6638 0.561523 18.0316 1.35156 19.7288 2.89028C21.4656 4.429 22.3326 6.40293 22.3326 8.889C22.3326 11.3751 21.4656 13.3892 19.7288 14.9285C18.0316 16.4666 15.6638 17.2561 12.7029 17.2561H6.31035V28.1891H0.627411ZM6.31035 12.4017H12.3091C15.0323 12.4017 16.6496 11.1793 16.6496 8.96882C16.6496 6.75834 15.0323 5.5354 12.3091 5.5354H6.31035V12.4017Z" fill="#F6A508"/>
<path d="M27.3114 10.9808C29.3646 8.96841 31.969 7.98145 35.1658 7.98145C38.3633 7.98145 40.9682 8.96841 43.0208 10.9808C45.0722 12.9932 46.0982 15.4408 46.0982 18.3213C46.0982 21.2822 45.0722 23.7281 43.0208 25.7428C40.9682 27.715 38.3633 28.702 35.1658 28.702C31.969 28.702 29.3646 27.715 27.3114 25.7428C25.26 23.7281 24.234 21.2822 24.234 18.3213C24.234 15.4012 25.26 12.953 27.3114 10.9808ZM35.1658 23.8481C36.7442 23.8481 38.0475 23.3348 39.0735 22.2698C40.0995 21.2024 40.6134 19.8997 40.6134 18.3213C40.6134 16.7418 40.0995 15.4408 39.0735 14.4142C38.0475 13.3492 36.7442 12.8353 35.1658 12.8353C33.5869 12.8353 32.2853 13.3492 31.2593 14.4142C30.2327 15.4408 29.7206 16.7418 29.7206 18.3213C29.7206 19.8997 30.2327 21.2024 31.2593 22.2698C32.2853 23.3348 33.5869 23.8481 35.1658 23.8481Z" fill="#F6A508"/>
<path d="M53.052 25.8609C50.9609 23.9266 49.8947 21.4009 49.8947 18.2833C49.8947 15.1639 50.9609 12.6778 53.052 10.8239C55.1832 8.92919 57.7095 7.98242 60.6686 7.98242C62.8401 7.98242 64.7733 8.41532 66.5101 9.2846V14.0202C64.8135 13.2313 63.1168 12.8357 61.4977 12.8357C59.7615 12.8357 58.3014 13.349 57.1175 14.3767C55.9727 15.362 55.3813 16.7043 55.3813 18.3211C55.3813 19.9403 55.9727 21.2832 57.1566 22.3075C58.3411 23.3346 59.8011 23.8485 61.4977 23.8485C63.5107 23.8485 65.2871 23.4133 66.8258 22.5056V27.2417C64.9713 28.2293 62.9187 28.703 60.5911 28.703C57.6693 28.703 55.1436 27.7556 53.052 25.8609Z" fill="#F6A508"/>
<path d="M72.5547 28.1886V8.49463H78.0395L83.7626 15.8346L89.5248 8.49463H95.0108V28.1886H89.762V16.0321L84.8679 22.1496H82.658L77.803 16.0321V28.1886H72.5547Z" fill="#F6A508"/>
<path d="M103.028 10.9808C105.08 8.96841 107.685 7.98145 110.882 7.98145C114.079 7.98145 116.684 8.96841 118.737 10.9808C120.789 12.9932 121.815 15.4408 121.815 18.3213C121.815 21.2822 120.789 23.7281 118.737 25.7428C116.684 27.715 114.079 28.702 110.882 28.702C107.685 28.702 105.08 27.715 103.028 25.7428C100.976 23.7281 99.9498 21.2822 99.9498 18.3213C99.9498 15.4012 100.976 12.953 103.028 10.9808ZM110.882 23.8481C112.461 23.8481 113.763 23.3348 114.789 22.2698C115.815 21.2024 116.329 19.8997 116.329 18.3213C116.329 16.7418 115.815 15.4408 114.789 14.4142C113.763 13.3492 112.461 12.8353 110.882 12.8353C109.303 12.8353 108.001 13.3492 106.975 14.4142C105.949 15.4408 105.436 16.7418 105.436 18.3213C105.436 19.8997 105.949 21.2024 106.975 22.2698C108.001 23.3348 109.303 23.8481 110.882 23.8481Z" fill="#F6A508"/>
<path d="M134.214 13.151L134.137 15.9144C134.018 18.6358 133.899 20.453 133.228 22.8208C132.281 26.136 130.387 28.2282 126.479 28.3465C125.531 28.3465 124.822 28.2282 124.388 27.9905V23.4524C124.703 23.5701 125.098 23.6103 125.531 23.6103C126.834 23.6103 127.664 22.861 128.097 21.0846C128.571 19.2295 128.689 17.5708 128.729 14.2964L128.846 8.49463H145.858V28.1886H140.293V13.151H134.214Z" fill="#F6A508"/>
<path d="M154.072 10.9808C156.125 8.96841 158.73 7.98145 161.927 7.98145C165.124 7.98145 167.728 8.96841 169.78 10.9808C171.832 12.9932 172.859 15.4408 172.859 18.3213C172.859 21.2822 171.832 23.7281 169.78 25.7428C167.728 27.715 165.124 28.702 161.927 28.702C158.73 28.702 156.125 27.715 154.072 25.7428C152.021 23.7281 150.994 21.2822 150.994 18.3213C150.994 15.4012 152.021 12.953 154.072 10.9808ZM161.927 23.8481C163.506 23.8481 164.808 23.3348 165.834 22.2698C166.86 21.2024 167.372 19.8997 167.372 18.3213C167.372 16.7418 166.86 15.4408 165.834 14.4142C164.808 13.3492 163.506 12.8353 161.927 12.8353C160.348 12.8353 159.045 13.3492 158.02 14.4142C156.993 15.4408 156.48 16.7418 156.48 18.3213C156.48 19.8997 156.993 21.2024 158.02 22.2698C159.045 23.3348 160.348 23.8481 161.927 23.8481Z" fill="#F6A508"/>
<path d="M175.549 33.1996V23.5321H178.075C179.576 21.2022 180.366 17.4932 180.443 12.3218L180.523 8.49512H197.099V23.5321H200.335V33.1996H195.085V28.1879H180.876V33.1996H175.549ZM191.652 23.5321V13.1503H185.494C185.494 17.2555 184.903 20.7285 183.758 23.5321H191.652Z" fill="#F6A508"/>
<path d="M207.013 25.8605C204.92 23.9664 203.855 21.4401 203.855 18.3207C203.855 15.4012 204.802 12.9536 206.696 10.9814C208.591 8.96841 211.076 7.98145 214.117 7.98145C216.996 7.98145 219.246 9.00804 220.943 11.021C222.642 13.0328 223.508 15.4799 223.508 18.4011V19.8618H209.381C209.972 22.5454 212.498 23.9664 215.971 23.9664C218.181 23.9664 220.274 23.3727 222.286 22.229V26.6902C220.51 28.0302 218.023 28.702 214.786 28.702C211.709 28.702 209.102 27.7552 207.013 25.8605ZM218.023 16.3084C217.905 14.1381 216.365 12.3616 213.878 12.3616C211.353 12.3616 209.656 13.9802 209.381 16.3084H218.023Z" fill="#F6A508"/>
<path d="M225.567 28.1886L234.051 17.6891L226.433 8.49463H232.711L238.709 15.9144V8.49463H244.194V15.9144L250.154 8.49463H256.429L248.813 17.6891L257.338 28.1886H250.707L244.194 19.7813V28.1886H238.709V19.7813L232.157 28.1886H225.567Z" fill="#F6A508"/>
<path d="M261.567 28.1879V8.49512H267.133V14.2561H271.869C276.803 14.2561 280 16.9799 280 21.2022C280 23.2163 279.328 24.8727 277.948 26.214C276.565 27.5167 274.633 28.1879 272.145 28.1879H261.567ZM267.133 23.8864H271.001C273.172 23.8864 274.435 22.9005 274.435 21.162C274.435 19.4275 273.172 18.3998 271.001 18.3998H267.133V23.8864Z" fill="#F6A508"/>
</svg>
