<svg width="150" height="75" viewBox="0 0 150 75" fill="none" xmlns="http://www.w3.org/2000/svg">
<path d="M144.634 51.1843C144.383 51.2943 144.318 50.9254 144.109 50.8801C137.924 49.586 134.624 49.2496 133.408 48.8031C135.061 48.5054 134.889 48.2466 141.193 49.819C141.593 49.916 142.118 49.6637 142.32 50.2719C142.422 49.9613 142.757 49.8513 142.608 49.4761C142.603 49.4409 142.608 49.4048 142.622 49.3727C142.636 49.3405 142.659 49.3139 142.688 49.2963C142.716 49.2787 142.749 49.2709 142.782 49.2742C142.815 49.2774 142.846 49.2914 142.871 49.3143C142.922 49.3622 142.981 49.398 143.045 49.4195C143.11 49.441 143.177 49.4477 143.244 49.4392C143.311 49.4307 143.376 49.4071 143.434 49.37C143.492 49.3329 143.542 49.283 143.581 49.2237C143.689 49.0749 143.927 49.2625 144.041 49.1784C144.254 49.0071 144.505 48.8991 144.769 48.8651C145.033 48.831 145.3 48.8721 145.545 48.9843C144.919 48.3372 143.201 48.3372 143.225 47.8778C143.225 47.7031 143.374 47.9231 143.446 47.8455C143.524 47.6384 143.369 47.619 143.256 47.5478C143.21 47.5229 143.173 47.485 143.146 47.4381C143.12 47.3913 143.106 47.3375 143.106 47.2825C143.106 47.2276 143.12 47.1738 143.147 47.1269C143.173 47.0801 143.211 47.0422 143.256 47.0173C144.737 46.4414 146.506 48.2272 146.705 47.179C146.753 46.9331 146.932 46.9137 147.088 46.8361C143.266 44.9402 142.942 45.8914 143.564 44.6943C143.929 43.989 144.502 44.3514 145.081 44.2802C145.009 44.2349 143.053 43.6914 143.632 43.7302C144.21 43.769 144.408 43.1349 144.892 42.9926C146.173 42.7496 147.491 42.9773 148.638 43.6396C147.799 42.3908 145.578 42.8114 145.621 42.3779C145.651 42.1449 145.961 42.2291 146.558 42.2808C146.498 42.1126 146.229 42.2808 146.278 42.0673C146.326 41.8538 147.369 42.3391 148.694 42.4103C148.647 41.7632 148.987 42.0479 149.572 41.9897C150.455 41.8926 140.898 40.3656 137.862 39.4014C138.727 39.6085 151.702 41.6791 147.157 40.6955C126.571 36.3409 143.47 39.9256 134.183 37.5444C134.184 37.3373 135.061 37.3762 133.236 36.975C132.4 36.7938 131.649 36.2697 130.766 36.3279C130.709 36.3221 130.654 36.3029 130.605 36.2716C130.555 36.2403 130.513 36.1977 130.48 36.1468C131.882 36.3085 131.798 36.3862 131.709 36.1468C131.709 36.0885 131.763 36.0562 131.769 36.0691C131.977 36.5868 132.211 36.0691 132.437 36.0691C134.913 36.5673 136.083 36.3538 139.661 37.8226C140.853 38.3079 141.491 38.8191 141.587 38.6056C141.683 38.3921 140.722 38.2562 140.3 37.6544C141.935 37.4732 145.071 38.8514 145.245 38.735C145.728 38.392 145.752 38.3921 146.349 38.5668C147.607 38.9291 146.844 38.4697 146.946 38.2368C147.543 38.1397 148.7 38.5279 148.832 38.0426C148.964 37.5574 149.834 38.2174 149.924 37.8809C150.597 35.2927 131.709 32.7562 132.337 31.9603C132.677 31.5333 132.69 31.2162 132.856 31.5074C133.16 32.0315 133.64 30.3556 132.764 29.7151C133.45 29.6051 134.118 30.1421 134.87 29.8768C135.622 29.6115 136.469 30.2068 137.209 30.1421C136.791 29.8704 129.949 28.7574 128.036 27.1268C128.073 27.1116 128.114 27.1047 128.154 27.1065C128.194 27.1084 128.233 27.119 128.269 27.1377C128.305 27.1565 128.338 27.1829 128.364 27.2155C128.391 27.2481 128.411 27.2862 128.423 27.3274C129.043 27.0118 129.747 26.9498 130.405 27.1528C129.955 26.9482 129.495 26.7711 129.027 26.6222C129.955 24.681 131.8 27.761 131.588 26.2404C131.517 25.7227 131.946 26.1886 132.441 26.4216C132.709 26.5445 132.183 27.0686 132.01 27.1786C132.534 27.528 132.606 27.5021 133.031 26.9651C133.455 26.428 133.723 27.1333 134.045 27.1075C134.141 26.881 133.449 26.6739 133.277 25.8133C133.141 25.0757 131.417 24.7134 130.702 24.2345C131.46 23.9434 129.016 22.2934 129.405 21.8469C129.471 21.7628 129.466 21.051 129.794 21.2775C130.223 21.5816 130.39 21.1611 130.629 21.0122C130.546 20.8311 130.391 20.8117 130.272 20.734C129.717 20.3652 130.309 20.0869 129.987 19.7958C129.665 19.5046 129.987 19.3946 130.089 19.3946C130.721 19.4334 130.658 18.2363 131.194 18.5922L131.23 18.5922C131.636 18.1846 132.315 18.8381 132.483 18.5922C132.4 18.3787 131.797 18.4564 132.006 18.1199C132.323 17.6087 131.531 17.1299 125.138 14.684C125.293 14.4899 125.454 14.6194 125.591 14.5417C125.556 14.4188 125.323 14.4447 125.383 14.2635C125.443 14.0823 126.081 14.3929 125.933 13.8882C125.725 13.17 127.472 13.8882 126.79 14.9882C127.029 15.1435 128.839 13.7523 125.428 12.4582C125.267 12.3999 125.082 12.387 125.004 12.1606C125.07 12.0829 126.52 12.1605 124.528 11.74C124.557 11.9535 124.784 11.8952 124.909 12.0829C123.877 11.9858 124.36 12.0829 123.777 11.2094C122.84 11.2482 123.324 10.7112 124.26 11.4164C123.909 10.6141 121.874 10.7694 126.648 10.7694C126.309 10.0188 53.3551 6.1818 53.2597 6.17533C53.3373 6.1365 83.8482 5.37944 52.5683 5.63179C10.3208 5.97472 94.2871 3.81359 90.0105 6.45356C89.8014 6.58944 89.5689 6.45356 89.3781 6.41474C88.9963 6.30474 88.6498 6.57003 88.2801 6.41474C88.1489 6.36944 88.1241 6.95176 88.4166 6.91294C89.4322 6.89997 90.4471 6.96701 91.4535 7.11352C91.4528 7.53411 85.7495 6.78352 85.725 7.19117C86.5828 7.32184 87.4479 7.38886 88.3144 7.39175C88.7977 7.39175 88.7367 8.23942 89.0424 7.34649C89.0417 7.78649 89.328 7.87057 89.5965 7.87704C89.865 7.88351 89.6685 7.66352 89.7164 7.52117C89.8646 8.16822 94.4534 8.09706 94.5551 7.90295C93.8872 7.67001 93.1828 7.84471 92.4789 7.69589C93.3338 6.69296 132.079 9.95409 109.563 7.59881C109.867 7.79293 110.237 7.70237 110.654 7.87061C110.32 7.97413 105.159 7.8706 104.521 7.22355C106.968 7.22355 105.947 7.3012 106.311 7.5859C106.496 7.3958 106.729 7.27012 106.98 7.22513C107.231 7.18014 107.489 7.2179 107.719 7.33354C107.719 7.48236 107.499 7.39822 107.504 7.55352C108.178 7.77998 108.776 7.3206 109.45 7.37884C109.521 7.37884 119.73 7.80589 119.999 7.74119C119.97 6.99708 91.7099 7.21707 91.0021 5.80003C90.8177 5.43121 126.134 7.27529 126.289 7.03588C121.651 4.60297 115.55 5.92297 115.188 4.99122C119.812 4.99122 123.743 5.92943 123.78 5.54767C100.138 2.11182 42.713 0.371232 19.1498 3.6712C18.2605 3.79414 19.2384 4.2018 18.9569 4.86179C17.6991 7.85117 19.762 5.18531 19.5509 6.59588C19.4664 7.17176 16.0363 6.59589 20.3912 7.28823C21.5843 7.48882 21.6504 7.17825 22.6948 7.1006C30.6856 6.51826 31.3106 7.49528 31.3651 7.0294C31.486 6.02 33.2042 6.22707 34.3856 6.27884C34.6183 6.27884 34.9808 7.20413 35.4473 6.57002C35.5071 6.49237 39.2242 6.70588 39.2958 6.71235C38.5432 7.17823 18.3439 7.64413 17.7631 8.91882C21.3437 8.64706 22.5388 7.6247 23.8378 8.7441C23.7645 8.8013 23.6803 8.83977 23.5914 8.85658C23.5025 8.87339 23.4112 8.86812 23.3245 8.84118C22.9846 8.71176 22.996 9.08703 22.8585 9.21644C22.7211 9.34585 22.9418 9.39764 23.0073 9.48823C23.96 10.7823 18.0121 9.95407 19.4244 11.1123C19.3584 11.3711 19.0544 11.19 19.0122 11.4229C19.1072 11.7335 23.1883 11.9535 23.2835 12.1217C23.3787 12.2899 23.0318 12.8464 22.8349 12.8464C21.5758 12.8464 21.0978 13.2411 21.1824 12.5617C21.0923 12.7822 20.9472 12.971 20.7636 13.1071C20.5799 13.2431 20.365 13.3209 20.1429 13.3317C19.3134 13.4094 20.2018 13.8364 20.0344 14.0305C19.7236 14.3799 17.9462 13.8364 18.1599 14.5676C18.338 15.1629 18.04 14.8976 16.5597 15.2146C16.0583 15.3182 16.5589 15.7387 16.5587 15.8164C16.7423 16.7028 16.2185 15.9199 15.5791 16.4634C16.6532 16.4634 16.8145 16.334 16.6405 16.9681C16.4664 17.6023 17.1299 16.884 17.2901 17.4534C17.3732 17.7446 17.6664 17.2464 17.7851 17.6022C17.8386 17.7705 17.7845 18.0099 17.683 18.0228C17.3786 18.0811 17.6823 18.5146 17.4018 18.5081C14.7883 18.4499 14.7999 18.6569 17.4015 18.7216C19.108 18.7605 19.6514 18.521 19.3523 18.9999C18.5268 20.294 23.3322 19.0581 23.3071 19.8346C23.3062 20.4428 22.3348 19.6469 21.6775 20.2616C21.5938 20.3393 21.5816 20.5011 21.4206 20.4493C21.1641 20.3716 21.1038 20.7793 21.4677 20.8116C24.3494 21.0575 25.1318 20.6757 24.7431 21.161C24.5757 21.381 24.5038 21.5557 24.8857 21.5557C25.5719 21.5557 24.9919 22.3581 25.4812 22.3128C25.4815 22.1445 25.1832 22.0799 25.3626 21.8534C25.6675 21.4716 30.7324 22.2092 22.4671 22.7981C21.9658 22.8304 22.0982 22.151 22.4679 22.2675C22.9689 22.4099 22.5344 21.6916 22.361 21.9504C22.1875 22.2092 21.8595 22.1251 21.6028 22.1769C21.6024 22.4487 22.0624 22.1187 22.0438 22.5522C22.0252 22.9857 21.5723 22.6428 21.0463 23.154C20.6459 23.5487 20.241 23.0116 19.9473 23.8463C20.1983 23.6198 20.4844 23.7881 20.7531 23.7039C20.9023 23.6586 20.8961 23.814 20.9079 23.924C20.9428 24.4869 20.2511 24.1892 19.5881 24.571C19.6774 24.7587 20.1849 24.5128 19.9634 24.998C19.8856 25.1663 20.4348 24.9981 20.273 25.4122C20.2191 25.5416 17.7779 25.9816 21.0662 25.7034C21.478 25.6645 21.7341 25.9298 21.793 26.4539C21.893 27.3727 19.339 27.3921 19.3623 27.748C19.3856 28.1039 21.1532 27.2692 21.284 27.5669C21.4266 27.9874 22.0355 27.8321 22.0824 28.3562C22.0824 28.3562 22.1838 28.3886 22.1957 28.3562C22.477 27.871 22.8883 28.1427 23.2044 28.2268C23.6637 28.3498 24.4642 27.761 24.3676 28.4533C24.3674 28.5504 24.4987 28.5504 24.5882 28.5439C24.8627 28.5439 24.386 28.1168 24.6965 28.0327C24.784 27.996 24.8782 27.9821 24.9715 27.9922C25.0648 28.0024 25.1545 28.0362 25.2334 28.091C25.9543 28.8221 26.5348 27.7092 27.8465 28.4145C28.1803 28.5957 28.9209 28.1621 28.9563 28.4468C29.0151 29.0163 25.3152 29.1715 25.3208 29.4303C25.3264 29.6892 34.1115 28.6604 34.1891 28.6345C34.8817 28.408 34.4745 29.2815 34.8329 29.0939C35.3883 28.7574 36.1335 29.1716 35.5126 29.3851C33.5245 30.0839 40.2274 28.9321 40.4295 29.4368C40.5008 29.6115 9.88871 33.9662 9.98889 34.7621C10.1362 35.9332 23.681 32.4456 29.6846 32.0056C33.7189 31.7015 30.9976 31.8503 30.5492 32.4198C37.5914 31.7727 19.3875 34.4644 18.2654 34.6909C15.8778 35.1632 15.1901 36.0626 14.4621 36.1079C13.734 36.1532 13.9115 37.1238 13.2668 37.2597C13.1177 37.2597 12.986 37.4926 12.7712 37.4668C12.6579 37.4668 12.5206 37.4668 12.5501 37.6673C12.6269 38.172 12.497 37.292 15.8621 37.4861C16.1844 37.4861 16.1718 37.8679 15.8912 37.9585C15.139 38.2109 13.1456 38.4503 12.0165 39.2526C11.6223 39.5179 10.7047 38.6508 8.47658 40.1908C8.0226 40.5014 7.74265 40.1908 6.88236 40.8379C7.66391 40.9285 9.78934 40.1908 8.95301 40.7797C8.76186 40.9155 8.24883 40.8379 8.26638 41.0579C8.28393 41.2779 34.3851 36.8197 42.2853 36.962C43.2161 36.962 34.7174 37.965 34.6996 37.8809C34.605 37.3309 34.1032 37.7191 34.6577 37.9973C31.7802 38.8256 24.3155 38.7414 52.1062 37.525C64.8169 36.975 59.4449 38.0103 62.6324 37.3826C62.7577 37.3826 62.9786 37.2726 63.0557 37.5509C63.1329 37.8291 63.1337 37.292 63.3424 37.402C63.5511 37.512 71.6959 37.6479 71.7497 37.6414C72.424 37.5961 72.1727 38.0361 71.8685 37.9326C71.457 37.7967 64.6542 38.0038 64.5826 38.0232L64.5049 38.0685C64.225 37.7385 63.9918 38.0685 63.741 38.1267C63.1442 38.2173 63.145 37.7256 63.0609 38.075C63.058 38.0971 63.0489 38.1177 63.0349 38.1341C63.021 38.1505 63.0027 38.1619 62.9827 38.1668C62.9626 38.1717 62.9416 38.1699 62.9225 38.1616C62.9035 38.1533 62.8872 38.1389 62.8758 38.1203C62.8766 37.6609 62.5899 37.8485 62.375 37.8679C62.0528 37.8679 61.6593 37.6609 61.6767 37.9456C61.6942 38.2303 62.3214 37.8291 62.5238 38.1397C61.8762 38.2311 61.2249 38.2872 60.5722 38.3079C60.7518 37.9456 60.1908 38.0038 60.3227 37.6609C60.0362 37.6609 60.322 38.0815 59.9638 38.1526C59.9042 38.1526 59.8326 38.1526 59.8327 38.0685C59.833 37.8744 60.0656 37.9779 60.1135 37.8356C59.947 37.4603 59.4571 37.8873 58.8307 37.7903C58.7531 37.7903 58.6695 37.7903 58.6694 37.9003C58.669 38.1332 59.0214 37.952 59.4209 38.1138C57.708 38.3144 55.9898 38.1138 54.1636 38.3273C55.1969 37.6803 55.7211 38.2238 55.7813 37.8938C55.8837 37.3244 54.4212 37.6738 53.0245 37.8938C45.8983 38.845 31.6432 38.6638 30.9437 39.5309C30.8136 39.6371 30.6592 39.7028 30.4972 39.7211C30.3353 39.7393 30.1719 39.7094 30.0246 39.6344C29.5774 39.4467 29.6305 39.8026 29.5411 39.7185C28.7368 38.942 26.3064 40.1197 25.7094 40.2555C23.7814 40.7085 32.1425 39.9126 32.4048 40.0744C32.6671 40.2361 33.1036 39.6408 32.7036 39.7573C32.6261 39.7573 30.102 39.7573 33.9751 39.4338C41.3752 38.8644 56.27 38.2691 48.4754 39.3108C48.2486 39.3108 46.9075 38.3597 47.1687 39.2655C47.2695 39.615 46.9777 39.2655 46.9358 39.382C46.7568 39.4807 46.5557 39.5223 46.356 39.5016C46.1564 39.481 45.9663 39.3991 45.8082 39.2655C45.6413 39.1426 45.7302 39.5309 45.5392 39.5309C27.8232 39.3238 34.5463 40.4755 36.8386 39.9126C37.1669 39.8349 37.3096 40.165 36.8381 40.2103C15.1806 42.0608 24.6867 41.7632 24.304 42.2226C24.2442 42.3002 24.6557 42.4943 24.6442 42.1838C24.6328 41.8732 24.9012 41.9379 24.8949 42.1385C24.8887 42.339 25.0737 42.2808 25.1811 42.2808C25.6764 42.2808 25.2414 41.8796 25.5517 41.8926C25.6233 41.8926 25.7486 41.8926 25.7306 41.9832C25.5805 42.572 26.1601 42.0673 26.237 42.4749C23.9874 42.5138 -1.10588 47.3084 0.729112 49.1202C0.872091 49.2625 0.895342 49.6507 1.24766 49.489C3.6362 48.4084 18.8985 45.6066 18.9761 45.6066C19.197 45.5225 19.1189 45.8267 19.2202 45.9173C19.4053 45.8784 19.2208 45.5355 19.4952 45.6196C19.4472 45.7814 19.6437 46.0078 19.387 46.1178C13.0217 48.8613 25.2779 45.2443 33.483 45.0178C39.3071 44.8561 60.7429 43.6137 94.0726 45.1214C141.657 47.2631 133.902 49.1784 132.68 48.7837C131.797 48.5055 122.448 47.6384 122.18 47.4184C122.419 47.3343 122.675 47.4637 122.974 47.302C122.358 47.1188 121.706 47.1391 121.1 47.3602C119.905 48.1043 124.211 45.762 86.1891 45.762C84.5337 43.6073 33.8277 45.8849 33.7561 45.8849C32.4672 45.8849 32.9973 46.532 32.711 46.4543C31.9713 46.3184 31.4216 46.7455 31.5179 46.2214C31.6938 46.3008 31.8862 46.3277 32.0752 46.2993C32.2641 46.2708 32.4426 46.1881 32.5922 46.0596C31.3571 46.0596 31.0111 45.9949 31.0522 46.3831C31.0518 46.629 30.3838 46.4543 30.4022 46.1631C30.1513 46.2824 29.8818 46.3483 29.6082 46.3572C29.6735 46.5837 29.9125 46.3961 30.0136 46.5837C29.3331 46.7455 28.3248 46.7002 29.465 46.4025C28.9403 46.1114 28.8022 46.6355 28.4558 46.8619C35.1566 47.0302 62.9601 45.199 65.2262 46.0725C65.179 45.749 64.8744 45.9367 64.8271 45.6649C65.7757 45.762 66.7128 45.5937 67.6494 45.7361C67.9775 45.7878 68.3652 45.9108 68.6164 45.5031C68.5217 45.602 68.3955 45.6572 68.2641 45.6572C68.1328 45.6572 68.0067 45.602 67.9123 45.5031C68.3004 45.3802 70.1137 45.8072 70.1555 45.7814C71.2454 45.7211 72.3375 45.7362 73.4254 45.8267C72.971 46.3831 66.2652 45.6002 65.7097 46.0014C66.1268 46.3443 72.4161 46.3831 73.3825 46.5514C75.7687 46.9719 66.628 46.3572 66.2573 46.8361C66.4362 46.9396 77.1411 46.972 77.4029 47.4249C77.4289 47.4613 77.4664 47.4861 77.5082 47.4944C77.55 47.5028 77.5932 47.4941 77.6296 47.4702C77.8279 46.6161 112.834 48.1172 102.207 48.1755C93.5367 48.2143 85.7631 47.2178 85.1536 47.7937C85.5947 48.059 88.1845 48.0396 82.4978 48.0396C83.7812 47.7484 87.7135 47.7419 81.8541 47.5931C64.5428 47.0715 47.2173 47.9127 30.014 50.1101C30.3779 50.1878 30.6877 50.4919 31.1176 50.3431C31.3862 50.2525 31.6785 50.2849 31.7138 50.6472C31.7135 50.796 31.7674 50.7378 31.8211 50.7184C32.0659 50.6019 32.3163 50.7572 32.561 50.7184C32.1851 50.7184 31.8385 51.0354 31.4332 50.7184C31.2604 50.576 31.4689 50.8154 31.433 50.8672C31.1701 51.0872 30.9381 50.6149 30.8843 50.699C30.8305 50.7831 21.055 51.6372 20.7746 51.6307C22.4709 50.5955 23.2219 51.0937 23.1629 50.6731C23.1632 50.4984 22.9305 50.5048 22.7932 50.5566C20.4944 51.4366 18.3049 51.2036 16.6024 52.4072C16.0966 52.6461 15.5474 52.7567 14.9967 52.7307C15.6764 53.0672 23.9491 51.6113 24.0446 51.5854C24.6416 51.4043 24.6946 51.8507 27.0698 51.6566C27.8277 51.5919 26.3712 51.9348 26.2398 52.0319C28.5375 51.7925 28.2688 51.8701 28.0306 51.6178C27.7614 52.019 27.309 51.346 28.0306 51.6178C28.3769 51.4495 28.2274 51.6695 28.1556 51.8184C28.4777 51.8701 28.6517 51.3007 29.0211 51.5984C28.9374 51.7148 28.7824 51.5984 28.663 51.689C29.3248 52.0319 29.3323 51.0419 29.6839 51.3201C32.0676 53.3519 54.5169 48.8096 20.1871 53.2936C19.7276 53.3583 15.6506 54.2966 14.7566 53.6107C14.5957 53.4878 13.9506 53.876 14.541 54.1283C16.0616 54.7754 18.085 54.4066 15.4769 54.7236C12.7255 55.0601 20.6624 54.6524 24.6661 54.7624C24.1288 54.8582 23.5982 54.9944 23.0782 55.1701C23.1498 55.2283 41.4939 54.4195 50.7604 54.6654C70.5404 55.196 21.4797 54.7301 13.8995 56.0501C13.8993 56.1342 54.4762 55.6942 58.4913 56.1665C1.01879 65.9306 45.8295 55.9789 49.3045 58.373C50.6456 59.2918 19.2955 62.4818 17.0081 63.6982C37.1626 61.4077 70.7954 59.9712 95.6339 61.55C95.7413 61.55 97.3095 62.2683 98.0796 62.0483C98.193 62.0483 98.4792 62.1842 98.7416 62.3071C97.6603 63.0642 75.2752 60.9159 73.9962 62.2035C73.9424 62.2553 73.8828 62.2618 73.8411 62.2035C73.4839 61.6536 70.9583 62.6435 76.0666 62.3524C76.4947 63.2776 116.401 64.0929 121.037 64.6688C121.723 64.7529 124.241 64.5718 124.874 64.7012C128.333 65.4065 133.068 63.7047 133.443 64.1771C134.375 63.3165 136.301 64.4229 136.668 62.76C136.31 62.6824 135.934 62.8765 135.582 62.7018C135.582 62.5142 136.621 62.0547 133.869 62.7406C133.87 62.4689 134.197 62.6436 134.466 62.3395C135.746 60.8448 139.709 60.4824 132.212 61.3753C127.438 61.9383 128.31 61.5759 129.825 61.44C129 61.397 128.173 61.4753 127.367 61.673C127.02 61.8088 125.869 61.4465 126.568 61.4012C136.772 60.7542 133.563 60.4177 135.318 59.583C135.318 59.4083 135.056 59.583 135.068 59.3436C136.674 58.6318 138.152 59.7124 138.44 59.0395C138.5 58.8906 139.305 59.3112 140.111 59.0395C138.75 58.8906 138.512 58.9101 138.518 58.6577C138.524 58.4054 138.649 58.5218 138.769 58.5089C138.888 58.4959 138.769 58.3277 138.817 58.2177C139.585 55.8107 133.956 56.8071 131.773 56.0824C132.12 55.8624 137.311 55.9013 141.522 57.3313C142.225 57.5707 142.084 56.3801 142.174 56.3154C142.52 56.0695 141.374 56.1083 141.291 55.8818C140.537 53.8307 124.332 52.2066 145.821 55.2348C141.855 53.7401 138.812 53.6236 138.425 53.2936C138.604 53.1642 139.552 53.4877 139.022 53.0089C138.694 52.7178 131.978 51.3331 131.268 51.2878C125.433 50.8672 133.315 50.8995 134.354 50.136C134.295 49.9743 134.033 49.9807 134.003 49.7931C134.636 49.5602 139.486 50.2525 140.428 50.8155C140.482 50.6602 140.249 50.7054 140.285 50.4855C140.977 50.7507 141.741 50.6149 142.403 51.0613C142.504 51.139 142.719 50.9319 142.928 50.9901C146 51.7342 144.807 51.1066 144.634 51.1843ZM134.298 52.2066C133.469 51.9284 134.578 52.0513 134.763 52.2066C134.602 52.2907 134.447 52.1548 134.298 52.2066ZM36.2946 29.2427C36.7187 28.9321 36.6224 29.4756 36.2946 29.2427C36.0793 29.5145 35.907 29.0486 36.0324 29.0098C36.1578 28.971 36.1932 29.1715 36.2946 29.2427ZM40.8007 51.2425C40.4429 51.139 40.5017 51.6889 40.1205 51.2425C40.043 51.1584 39.8936 51.2878 39.7686 51.139C40.1325 51.1778 40.4433 50.8672 40.7891 51.0678C41.1475 50.8219 42.1855 50.9902 41.9826 51.0225C41.5767 51.1131 41.0209 51.6307 40.8007 51.2619L40.8007 51.2425ZM37.2559 59.0071C37.5096 58.8696 37.802 58.8418 38.0736 58.9295C38.1214 58.8906 44.3936 58.3536 37.2559 59.0459L37.2559 59.0071ZM118.957 47.6384C118.886 47.4831 118.623 47.6384 118.594 47.3537C119.191 47.3537 119.542 47.4443 118.945 47.6255C118.348 48.1755 117.71 47.7031 117.09 47.6255C119.9 47.4573 115.897 47.3602 114.769 47.5155C114.936 47.1855 117.699 47.0625 118.957 47.6384ZM38.6601 50.2266C39.0304 50.0648 50.8584 49.2431 51.717 49.696C51.6453 49.7348 39.0715 50.4337 38.6602 50.2201L38.6601 50.2266ZM104.429 46.8167C104.387 46.8167 88.7004 46.2861 88.7244 46.2278C87.9904 46.2278 88.6225 46.5126 88.3895 46.6549C84.4834 45.1732 104.25 46.7067 104.429 46.8102L104.429 46.8167ZM132.086 31.9927C131.865 32.3292 131.59 32.1092 131.334 32.0703C130.737 31.9862 130.242 32.0703 130.141 31.4233C130.082 30.9898 128.729 30.5304 128.395 30.2651C128.674 30.8733 131.769 32.5492 128.918 31.5592C127.511 31.0739 128.681 30.6598 127.961 29.5274C127.853 29.3592 127.507 29.3009 127.615 29.068C127.669 28.9774 134.251 28.7121 132.086 31.9862L132.086 31.9927ZM111.242 55.2866C111.164 55.2866 75.3863 54.8077 75.2683 53.9925C75.1541 54.4713 75.1246 54.2836 73.0304 54.0895C68.2037 53.6689 110.813 55.0213 111.242 55.293L111.242 55.2866ZM42.7383 7.0294C42.7376 7.48881 41.1033 7.07471 41.0431 7.36588C40.983 7.65705 41.2579 7.4112 41.3112 7.63119C29.6277 7.63766 26.1425 7.90292 42.7383 7.03588L42.7383 7.0294ZM121.385 48.389C121.027 48.389 120.699 48.0784 120.341 48.1366C119.822 48.1783 119.301 48.1079 118.808 47.9296C119.16 47.6772 119.554 48.0072 119.817 47.6967C119.721 47.5414 119.458 47.7484 119.435 47.4637C119.525 47.4443 130.025 48.7125 121.385 48.389ZM87.5545 46.4478C87.2269 46.0337 79.0454 46.4478 78.8854 45.7361C88.4981 45.9561 87.7523 45.8914 87.5545 46.4349L87.5545 46.4478ZM132.983 49.3531C130.263 49.1719 127.541 49.256 124.821 49.1008C127.535 48.6686 130.296 48.7496 132.983 49.3402L132.983 49.3531ZM30.0446 8.09705C29.9671 8.09705 24.0767 8.64704 24.0772 8.29116C24.0778 7.93528 34.294 7.59235 30.0446 8.09705ZM58.24 45.2896C60.5866 45.0933 62.9438 45.1106 65.2871 45.3414C62.954 45.2961 60.6027 45.4514 58.2519 45.2961L58.24 45.2896ZM119.879 11.9794C117.688 12.0737 115.495 11.9937 113.316 11.74C115.506 11.6876 117.697 11.7675 119.879 11.9794ZM112.174 47.1143C111.887 47.4119 110.336 47.1725 110.127 47.1143C109.125 46.7261 109.47 47.4313 108.677 47.1143C107.735 46.7649 106.153 47.1466 105.861 47.0302C105.324 46.8231 101.029 46.0596 112.174 47.1143ZM127.448 25.2181C127.324 24.6875 129.835 25.4122 129.017 25.8651C128.724 26.0269 129.164 26.7645 128.646 26.5122C128.172 26.1701 127.765 25.7304 127.448 25.2181ZM132.687 51.7472C132.687 51.9284 126.124 51.1002 126.167 50.8478C128.355 51.0176 130.532 51.3244 132.687 51.7666L132.687 51.7472ZM129.1 56.3283C127.294 56.4084 125.486 56.3261 123.694 56.0824C125.49 56.2507 127.31 55.8172 129.094 56.3477L129.1 56.3283ZM75.1795 45.9755C75.1079 45.9755 73.8011 45.9755 73.8134 45.7232C73.814 45.3349 73.6402 45.8331 78.3305 45.6908C78.5096 45.6908 78.599 45.7684 78.5031 46.0208C78.4072 46.2731 78.6826 45.6843 75.1735 46.0014L75.1795 45.9755ZM20.7513 51.2295C20.4407 51.4107 20.2791 51.7731 19.8673 51.8313C18.0051 52.0966 18.1184 52.116 18.0769 51.9543C17.9999 51.6307 19.7961 51.5854 20.7453 51.2554L20.7513 51.2295ZM23.6308 45.3608C24.5809 45.113 25.5545 44.9871 26.5314 44.9855C25.5585 45.1149 24.615 45.5873 23.6248 45.3867L23.6308 45.3608ZM133.783 38.0038C134.624 38.3726 135.573 38.295 136.39 38.6508C135.375 38.7544 133.926 38.3661 133.783 38.0038ZM23.422 45.3155C23.1708 45.6649 21.428 45.9626 20.9569 45.762L23.422 45.3155ZM48.2596 51.2425C49.3635 51.2425 50.4678 50.9901 51.5775 51.1195C51.5832 51.2942 51.9532 51.2425 48.2656 51.2425L48.2596 51.2425ZM21.9203 25.1857C20.4281 25.4769 20.4996 25.5157 20.4641 25.341C20.3575 24.8039 21.4791 24.9204 21.9263 25.1857L21.9203 25.1857ZM41.6052 29.2621C42.769 29.1263 41.2521 29.9739 40.6382 29.4821C40.5071 29.3721 40.8896 29.0292 40.9908 29.1586C41.2112 29.4045 41.4443 29.1586 41.6351 29.2621L41.6052 29.2621ZM23.8029 27.1074C23.964 27.1074 23.9636 27.3662 23.8025 27.3339C23.206 27.198 22.7038 27.7868 22.609 27.3727C22.5142 26.9586 23.5284 27.101 23.8327 27.1074L23.8029 27.1074ZM53.0747 6.16237C52.4063 6.22061 51.7257 6.44705 51.0699 6.09764C51.762 6.15588 52.4365 6.02001 53.1045 6.1559L53.0747 6.16237ZM45.98 51.3201C45.1177 51.4449 44.2464 51.4796 43.3782 51.4237C44.2491 51.2801 45.1321 51.2453 46.0099 51.3201L45.98 51.3201ZM122.345 11.2417C124.093 11.2417 124.068 12.0247 123.74 11.8435C123.259 11.688 122.792 11.4866 122.345 11.2417ZM113.945 9.75999C113.223 9.82777 112.495 9.78199 111.785 9.62409C114.178 9.62409 113.916 9.57881 113.945 9.75999ZM36.118 50.356C36.8878 50.2848 37.6575 50.356 38.4214 50.2784C37.6575 50.3366 36.8992 50.6278 36.118 50.356ZM102.778 7.7541C102.778 7.50822 102.582 7.48881 104.538 7.7541L102.778 7.7541ZM132.31 37.1756C132.887 37.1254 133.467 37.2275 133.999 37.4732C133.424 37.4749 132.854 37.3743 132.31 37.1756ZM33.0324 50.699C33.0326 50.6084 34.4472 50.3625 34.4348 50.5954C34.4225 50.8284 34.3213 50.699 33.0324 50.699ZM81.2987 47.9037C80.8409 47.9943 80.3718 47.9943 79.9143 47.9037C80.37 47.7904 80.8433 47.7904 81.2987 47.9037ZM60.5163 54.8336C60.8594 54.7488 61.219 54.7993 61.5305 54.976C61.2142 54.9695 60.8617 55.2607 60.5223 54.8336L60.5163 54.8336ZM119.98 11.9794C120.38 11.8758 120.69 12.1217 120.983 11.9017C121.276 11.6817 121.095 12.6847 119.98 11.9794ZM124.576 49.146C124.141 48.939 123.657 49.3402 123.228 49.0361C123.677 48.9461 124.14 48.9772 124.576 49.1266L124.576 49.146ZM113.557 47.4573C113.51 46.9978 113.462 47.5866 114.429 47.1855C114.549 47.1208 115.222 47.4378 113.557 47.4378L113.557 47.4573ZM132.667 37.9261C132.9 38.0297 133.12 38.2497 133.407 38.0426C133.449 38.0426 133.598 38.1332 133.693 38.1915C134.051 38.4244 132.499 38.3273 132.631 37.9068L132.667 37.9261ZM99.8068 7.51469C99.6536 7.58154 99.4889 7.61154 99.324 7.6026C99.1592 7.59367 98.9982 7.54603 98.8521 7.46296C99.0014 7.38431 99.1663 7.34723 99.332 7.35514C99.4976 7.36305 99.6588 7.4157 99.8008 7.50826L99.8068 7.51469ZM55.689 54.7495C55.8559 54.6673 56.0371 54.6247 56.2203 54.6247C56.4035 54.6247 56.5845 54.6673 56.7512 54.7495C56.4018 54.8521 56.0342 54.8566 55.683 54.7625L55.689 54.7495ZM34.7514 50.4466C35.0854 50.4984 35.4258 50.3172 35.7837 50.4466C34.8762 50.7249 34.8762 50.7249 34.7514 50.4466ZM111.605 52.3037C111.228 52.4072 111.229 51.7472 111.42 51.9413C111.611 52.1354 111.802 51.9413 111.837 52.1807C111.837 52.3101 111.724 52.3295 111.587 52.3037L111.605 52.3037ZM122.576 12.2382L121.299 12.1153C121.724 11.9839 122.179 12.0277 122.576 12.2382ZM43.1737 37.3697L42.3383 37.3697C42.4676 37.2938 42.6123 37.254 42.7592 37.254C42.9061 37.254 43.0506 37.2938 43.1797 37.3697L43.1737 37.3697ZM126.764 61.6018C126.764 61.7183 126.925 61.6859 125.475 61.6859C125.475 61.5759 125.32 61.6018 126.764 61.6018ZM135.351 39.1038C135.189 39.3432 135.017 39.0197 134.939 39.065C134.861 39.1103 134.73 39.2267 134.73 39.0197C134.73 38.8126 135.458 38.9355 135.351 39.1038ZM122.022 49.0425L120.829 49.0425C121.221 48.943 121.63 48.943 122.022 49.0425ZM63.9321 45.6131C64.0574 45.6131 64.2546 45.4643 64.2303 45.7296C64.23 45.8784 63.9914 45.8461 63.9497 45.7943C63.5091 45.1731 63.257 46.1308 63.9321 45.6261L63.9321 45.6131ZM43.6935 36.962L42.8462 36.962C43.1267 36.8909 43.3897 36.6256 43.6935 36.962ZM120.928 61.8671L119.818 61.8671C120.183 61.7765 120.563 61.7765 120.928 61.8671ZM47.0602 51.2619C47.3532 51.1456 47.6745 51.1456 47.9672 51.2619C47.6629 51.249 47.3645 51.2878 47.0602 51.2619ZM37.6556 28.9062C37.745 28.9386 37.9242 28.8415 37.9239 29.0486C37.9236 29.2557 37.7209 29.1392 37.6253 29.2104C37.3505 29.4109 37.417 28.8351 37.6556 28.9062ZM112.597 47.0949L113.343 47.0949C113.116 47.5673 112.83 46.972 112.597 47.0949ZM74.0646 37.8162C73.9244 37.8715 73.7747 37.8926 73.6262 37.8781C73.4777 37.8635 73.3341 37.8137 73.2055 37.732C73.4938 37.678 73.7901 37.707 74.0646 37.8162ZM36.9688 29.2298C36.9092 29.1909 36.76 29.2751 36.7423 29.1262C36.6834 28.6604 37.5774 29.2621 36.9688 29.2298ZM31.5708 46.7455C31.2963 46.7455 31.117 46.9137 30.8607 46.7455C31.0936 46.6484 31.2668 46.4996 31.5708 46.7455ZM61.7677 6.85472L61.7679 6.70587C62.048 6.90646 63.3488 6.95825 61.7677 6.85472ZM82.1878 47.8908C81.9119 48.011 81.604 48.011 81.3285 47.8908C81.608 47.7933 81.9086 47.7933 82.1878 47.8908ZM132.866 51.8766C133.135 51.7407 133.349 51.9801 133.6 51.9866C133.478 52.0302 133.348 52.043 133.221 52.0239C133.094 52.0049 132.972 51.9545 132.866 51.8766ZM130.843 36.7615C130.622 36.7615 130.383 36.8844 130.199 36.6644L130.843 36.7615ZM52.4442 38.845C52.4438 39.1038 51.9785 39.0262 51.9848 38.845C51.991 38.6638 52.4385 38.6897 52.4382 38.845L52.4442 38.845ZM49.6802 50.9643C49.3875 51.1778 49.2148 50.919 49.0179 50.9643C49.1196 50.9119 49.2307 50.8848 49.3432 50.8848C49.4557 50.8848 49.5667 50.9119 49.6683 50.9643L49.6802 50.9643ZM125.896 48.4796C126.153 48.3049 126.403 48.4343 126.654 48.4796L125.896 48.4796ZM97.5941 48.3437C97.2658 48.3955 97.0572 48.2596 96.8363 48.3437C96.9492 48.2674 97.0795 48.2269 97.2124 48.2269C97.3453 48.2269 97.4755 48.2674 97.5881 48.3437L97.5941 48.3437ZM97.7731 48.3437C98.2446 48.2596 98.2446 48.2596 98.4176 48.3437C98.2037 48.3977 97.9817 48.3999 97.7671 48.3502L97.7731 48.3437ZM96.4941 45.859C96.3929 45.937 96.2719 45.979 96.1478 45.979C96.0238 45.979 95.9029 45.937 95.8019 45.859C96.0288 45.8106 96.2623 45.8128 96.4881 45.8655L96.4941 45.859ZM28.689 27.7027C28.8807 27.2045 29.1668 27.431 29.0889 27.5863C29.0111 27.7415 28.8621 27.6251 28.689 27.7027ZM113.449 10.5105C113.54 10.4428 113.65 10.4128 113.759 10.4259C113.869 10.4389 113.97 10.4943 114.045 10.5818L113.449 10.5105ZM51.9262 49.4696L52.4871 49.4696C52.1407 49.6378 52.1407 49.6378 51.9202 49.4696L51.9262 49.4696ZM92.1634 7.21707C91.9124 7.50825 91.5308 7.30119 91.698 7.21707C91.7681 7.17397 91.8473 7.15132 91.9278 7.15132C92.0084 7.15132 92.0875 7.17397 92.1575 7.21707L92.1634 7.21707ZM79.0134 47.8325C78.8461 47.9619 78.6729 48.0978 78.4167 47.8325L79.0134 47.8325ZM40.294 5.63826C40.1655 5.70134 40.0261 5.73395 39.8851 5.73395C39.7441 5.73395 39.6048 5.70134 39.4765 5.63826L40.294 5.63826ZM39.1656 51.3266C39.321 51.1519 39.4347 50.9772 39.6312 51.2231C39.5665 51.2835 39.4885 51.3247 39.4049 51.3428C39.3212 51.361 39.2347 51.3554 39.1537 51.3266L39.1656 51.3266ZM125.132 48.3825C125.226 48.3285 125.333 48.3053 125.439 48.3156C125.544 48.3259 125.645 48.3694 125.729 48.4407L125.132 48.3825ZM56.0457 44.2737C55.9637 44.3401 55.8623 44.3721 55.7603 44.3638C55.6583 44.3554 55.5626 44.3074 55.4909 44.2285C55.6458 44.332 55.8429 44.222 56.0338 44.2737L56.0457 44.2737ZM36.7246 59.1559C36.5571 59.2087 36.378 59.1973 36.2175 59.1236C36.3607 59.143 36.5281 58.8906 36.7127 59.1753L36.7246 59.1559ZM75.1923 37.8614C75.0133 37.8614 74.8758 38.0103 74.7748 37.7579C74.9121 37.6932 75.0255 37.7191 75.1923 37.8614ZM31.4837 37.6609C31.7344 37.622 31.8538 37.5638 32.0804 37.6609C31.9896 37.7177 31.8867 37.7476 31.7819 37.7476C31.6772 37.7476 31.5743 37.7177 31.4837 37.6609ZM38.2521 29.0486C38.6348 28.531 38.5682 29.1586 38.3653 29.1262C38.3176 29.1198 38.2759 29.068 38.2521 29.0486ZM131.004 55.6942C131.147 55.6942 131.291 55.4677 131.47 55.6942C131.398 55.7361 131.318 55.7581 131.237 55.7581C131.155 55.7581 131.076 55.7361 131.004 55.6942ZM95.5408 3.46418C95.3851 3.81359 95.1765 3.64534 95.2184 3.56769C95.2603 3.49004 95.3856 3.47065 95.5408 3.46418ZM31.7373 39.5373C31.5399 39.8609 31.2896 39.6409 31.3793 39.5373C31.469 39.4338 31.5882 39.505 31.7373 39.5373ZM95.8339 48.2725C95.834 48.2208 95.7683 48.2402 96.4307 48.2402C96.4067 48.2919 96.4724 48.2725 95.8339 48.2725ZM74.2376 37.8614C74.2738 37.5832 74.7866 37.8226 74.3507 37.9973C74.2851 37.9909 74.2434 37.965 74.2376 37.8614ZM35.125 6.58941L34.7254 6.47294C34.9465 6.31118 35.0477 6.40824 35.1251 6.55706L35.125 6.58941ZM112.011 10.517C112.22 10.3359 112.345 10.407 112.554 10.517C112.467 10.5587 112.373 10.5775 112.279 10.5718C112.184 10.5662 112.092 10.5363 112.011 10.4847L112.011 10.517ZM31.6722 46.7519C31.8155 46.7066 31.9352 46.5125 32.1258 46.6872C31.986 46.7668 31.8229 46.7831 31.6723 46.7325L31.6722 46.7519ZM78.676 46.1049C78.6344 45.969 78.5869 45.8655 78.6467 45.762C78.7065 45.6584 78.9688 45.8461 78.676 46.0984L78.676 46.1049ZM78.2213 46.8361C78.3828 46.6225 78.5618 46.6225 78.5794 46.8361L78.2213 46.8361ZM62.8997 45.6908C63.0251 45.6131 63.0969 45.5096 63.2101 45.5678C63.3234 45.6261 63.2396 45.7814 62.8997 45.6843L62.8997 45.6908ZM90.9095 7.71528C91.1664 7.57293 91.2976 7.59881 91.4226 7.7541L90.9095 7.71528ZM68.2939 38.172C68.1325 38.3597 67.8996 38.4567 67.8642 38.2238L68.2939 38.172ZM90.7923 6.41474C90.7925 6.25297 91.013 6.4147 91.0368 6.45999C91.0606 6.50529 90.8039 6.58297 90.7923 6.41474ZM21.857 27.5086C21.9171 27.2045 22.0661 27.321 22.048 27.4633C22.0178 27.6963 21.9702 27.6186 21.857 27.5086ZM42.8352 51.4495C42.5846 51.4495 42.4592 51.5143 42.2924 51.2878L42.8352 51.4495ZM97.5698 7.08766C97.7369 7.08766 97.6589 7.32708 97.5695 7.30767C97.48 7.28826 97.4326 7.08765 97.5698 7.08118L97.5698 7.08766ZM43.9682 36.8132C44.129 37.0073 44.1291 36.975 43.9082 37.0138C43.8247 37.0203 43.7233 36.9685 43.9682 36.8067L43.9682 36.8132ZM33.0331 46.4737C33.0335 46.2602 33.2841 46.2537 33.2839 46.3896C33.2837 46.5255 33.039 46.5708 33.0332 46.4672L33.0331 46.4737ZM129.917 56.4966C129.702 56.5548 129.493 56.6777 129.559 56.4966C129.625 56.3154 129.732 56.4642 129.917 56.4966ZM93.7575 48.1755C93.7576 48.1237 93.7098 48.1431 94.1693 48.1431C94.1692 48.2143 94.217 48.1755 93.7575 48.1755ZM77.9632 47.8131C78.0287 47.8908 78.1538 48.0137 77.9629 48.0008C77.8913 47.9943 77.7781 47.9231 77.9632 47.8131ZM60.55 7.08765C60.5314 7.04671 60.5273 6.99982 60.5384 6.95575C60.5494 6.91168 60.5749 6.87345 60.61 6.84825C60.6274 6.88943 60.6308 6.93592 60.6199 6.97964C60.6089 7.02336 60.5842 7.06156 60.55 7.08765ZM60.0328 54.8983C60.033 54.8078 60.2419 54.7495 60.2476 54.8983C60.2534 55.0472 59.9968 55.0407 60.0328 54.8983ZM98.4404 7.45C98.5246 7.02942 98.7802 7.69589 98.5417 7.57295C98.4939 7.57942 98.4702 7.51471 98.4404 7.45ZM100.666 7.45C100.666 7.45 100.738 7.49529 100.738 7.52117C100.689 7.94823 100.421 7.53412 100.666 7.45ZM115.937 10.4976C116.128 10.4976 116.307 10.4135 116.241 10.5623C116.175 10.7111 116.086 10.6335 115.937 10.517L115.937 10.4976ZM90.0092 29.9092C90.1049 29.7668 90.1588 29.6439 90.3258 29.6892C90.2778 29.8509 90.23 29.9351 90.0092 29.9092ZM132.179 37.1173C132.012 37.402 131.869 36.8779 132.108 37.0268C132.136 37.0522 132.16 37.0828 132.179 37.1173ZM44.1943 37.2079C43.9731 37.4732 43.7943 37.3373 43.8541 37.2597C43.9139 37.182 44.0332 37.2144 44.1943 37.2144L44.1943 37.2079ZM135.559 39.2267C135.524 39.1038 135.726 39.1167 135.774 39.1944C135.822 39.272 135.613 39.3561 135.559 39.2267ZM25.122 41.9185C25.3667 41.9185 25.3846 41.9185 25.3188 41.9896C25.3025 42.0032 25.2835 42.0122 25.2633 42.0158C25.2431 42.0195 25.2224 42.0178 25.2029 42.0107C25.1835 42.0037 25.166 41.9916 25.1519 41.9755C25.1378 41.9595 25.1275 41.9399 25.122 41.9185ZM51.8536 38.7803C51.9127 39.1491 51.7995 39.0002 51.7938 38.8191C51.7939 38.8061 51.8357 38.7932 51.8536 38.7803ZM133.204 53.2807C133.401 53.1578 133.484 53.1772 133.604 53.2807L133.204 53.2807ZM133.966 54.5748C133.858 54.4389 133.865 54.3419 134.008 54.2448C134.014 54.3807 134.049 54.4842 133.96 54.5942L133.966 54.5748ZM68.5862 38.2368C68.6281 38.1397 68.5863 38.1462 68.7414 38.1915C68.6815 38.3273 68.7233 38.3208 68.5802 38.2561L68.5862 38.2368ZM122.822 48.9908C122.953 48.9066 123.001 48.8419 123.013 48.9908C123.025 49.1396 122.965 49.1978 122.816 49.0102L122.822 48.9908ZM122.619 48.9908C122.476 49.0749 122.374 49.0813 122.273 48.9908C122.328 48.9672 122.387 48.9572 122.446 48.9617C122.505 48.9662 122.562 48.985 122.613 49.0166L122.619 48.9908ZM33.6244 46.1761C33.6243 46.2149 33.7137 46.2602 33.7137 46.299C33.7014 46.4866 33.2722 46.2731 33.6184 46.202L33.6244 46.1761ZM29.5767 28.5374C29.3146 28.3045 29.6249 28.2333 29.6247 28.3562C29.6245 28.4792 29.5888 28.4857 29.5707 28.5633L29.5767 28.5374ZM64.6899 45.6261C64.588 45.8849 64.4807 45.8461 64.3316 45.7943L64.6899 45.6261ZM30.1078 28.4986C30.0662 28.4145 30.0483 28.4533 30.138 28.3304C30.2273 28.421 30.2453 28.3821 30.102 28.4727L30.1078 28.4986ZM25.1191 21.1287C25.0358 20.9928 25.0297 21.0446 25.1195 20.9087C25.2028 21.0381 25.185 20.954 25.1132 21.1028L25.1191 21.1287ZM20.2173 45.5355C20.3191 45.3543 20.3785 45.4837 20.3307 45.5355C20.2829 45.5872 20.2531 45.5678 20.2114 45.5096L20.2173 45.5355ZM119.498 11.3323C119.539 11.3011 119.588 11.2844 119.638 11.2844C119.689 11.2844 119.738 11.3011 119.779 11.3323C119.738 11.3654 119.689 11.3833 119.638 11.3833C119.588 11.3833 119.538 11.3654 119.498 11.3323ZM114.606 10.4847C114.487 10.4847 114.397 10.5559 114.248 10.4394C114.398 10.4264 114.493 10.3747 114.606 10.4847ZM115.383 9.83763C115.326 9.86514 115.264 9.87426 115.202 9.86393C115.141 9.8536 115.083 9.82424 115.037 9.77938C115.18 9.77938 115.258 9.68882 115.371 9.81176L115.383 9.83763ZM20.6471 45.4255C20.7844 45.4255 20.8138 45.6843 20.5813 45.5226L20.6471 45.4255ZM90.4084 7.6312C90.5041 7.53414 90.5873 7.70881 90.4799 7.72175C90.3725 7.7347 90.4024 7.6959 90.4084 7.6312ZM57.7983 45.3996C57.9119 45.2573 58.0672 45.1472 58.055 45.3284C58.0428 45.5096 57.9355 45.4255 57.7983 45.3996ZM104.181 7.28176L104.181 7.34649C103.966 7.26238 103.966 7.28176 104.181 7.28176ZM89.6048 47.9555C89.8256 47.9231 89.8731 48.0978 89.6881 48.1043C89.5031 48.1108 89.6527 47.8713 89.6048 47.9555ZM86.7643 48.0267C86.6392 47.9102 86.866 47.8972 86.8956 48.0267L86.7643 48.0267ZM94.766 48.156C94.975 48.0784 95.1059 48.279 94.915 48.2919C94.8612 48.2984 94.8016 48.3049 94.766 48.156ZM92.9341 48.156C93.1191 48.1172 93.2266 48.0784 93.3219 48.1884C93.2024 48.2596 93.1011 48.2143 92.9341 48.1431L92.9341 48.156ZM135.7 66.9788C136.004 67.2312 134.989 67.8006 135.579 68.04C135.502 67.9623 134.767 68.8229 134.725 68.9005C135.656 68.8294 135.919 68.3247 136.139 68.6417C133.041 69.4829 134.843 69.6835 134.168 69.7546C132.253 69.9552 132.09 70.7317 132.592 70.5117C132.956 70.35 133.338 70.5635 133.708 70.4341C134.078 70.3047 133.833 70.6153 133.862 70.7188C134.583 70.488 135.32 70.3192 136.065 70.2141C136.142 70.8611 129.959 71.3011 129.881 71.3464C137.891 73.8634 81.4477 70.6476 81.376 70.6994C81.4174 70.9646 81.8176 70.6993 81.6619 71.0487C81.62 71.1393 80.9158 71.1717 81.0654 70.9129C81.8072 69.7352 40.7591 70.007 12.6046 74.9311C10.5036 75.2999 7.83207 74.1999 29.1868 71.3787C29.4852 71.3399 29.9453 70.8999 27.8922 71.1846C32.3385 66.8817 135.629 66.8947 135.7 66.9788ZM88.2298 64.6688C88.4026 64.8176 107.275 65.8917 107.322 65.9629C108.24 66.8559 132.386 64.7594 133.287 64.9406C132.267 64.5006 124.282 65.4906 124.204 65.5035C120.921 66.0341 88.17 64.7206 88.2298 64.643L88.2298 64.6688ZM107.401 65.6394C108.188 65.4453 108.242 65.5747 112.27 65.7365C110.646 65.8541 109.017 65.813 107.401 65.6135L107.401 65.6394ZM72.0866 62.32C71.8364 62.0288 66.8049 62.8118 67.1219 62.32C67.3373 61.9641 66.1783 62.8765 65.1345 62.5529C65.2899 62.4171 65.5105 62.5077 65.6959 62.2553C56.7313 62.2545 47.7756 62.903 38.8887 64.1965C39.1511 64.2612 60.7962 62.7471 62.9619 62.9671C63.8866 63.0577 62.8598 63.3359 63.558 63.3488C63.6713 63.3488 63.8444 63.3488 63.785 63.1677C63.69 62.8765 63.857 62.9412 63.9942 62.9412C78.8882 62.8636 72.0806 62.2877 72.0866 62.2941L72.0866 62.32ZM64.6036 62.4559C64.4618 62.5657 64.2996 62.6405 64.1285 62.6751C63.9573 62.7098 63.7813 62.7034 63.6128 62.6565C63.5654 62.4494 63.6369 62.4818 64.6036 62.4494L64.6036 62.4559ZM62.8132 62.65C62.461 62.7406 62.2162 62.8442 62.0436 62.5077C62.3123 62.3977 62.5091 62.5142 62.8251 62.6241L62.8132 62.65ZM60.4621 62.6824C60.7069 62.6112 60.7069 62.6112 60.8558 62.7341C60.7245 62.7988 60.5993 62.7018 60.4741 62.6565L60.4621 62.6824ZM67.6243 1.21241C49.7703 1.54888 50.0342 0.694774 51.2035 0.856537C52.1341 0.979477 67.649 0.701245 67.6482 1.21889L67.6243 1.21241ZM23.7937 2.72005C23.7935 2.81711 23.7218 2.87536 23.6622 2.81712C22.1789 1.28361 8.74093 5.09475 24.4746 2.29301C25.5356 2.17022 26.6052 2.1637 27.667 2.27358C27.5414 2.47417 23.8176 2.66829 23.8056 2.72653L23.7937 2.72005ZM105.835 2.76535C105.525 2.72653 105.567 2.46122 105.836 2.50004C106.104 2.53886 111.164 2.64889 111.206 2.64889C131.237 2.83007 111.288 3.3477 105.835 2.76535ZM34.8764 1.58771C35.2571 2.28652 38.4579 0.752998 29.7024 1.89828C23.555 2.70062 34.8279 2.01476 34.8704 1.58771L34.8764 1.58771ZM29.9822 2.3124C29.7616 2.17005 30.1019 2.06652 30.0958 2.18298C30.0896 2.29945 30.0538 2.3124 29.9762 2.3124L29.9822 2.3124ZM73.4111 5.82589C74.5207 5.96178 79.0618 5.89059 79.3356 6.34353C78.8705 6.10412 79.0905 6.64119 78.8698 6.56354C78.57 6.45553 78.2494 6.43326 77.939 6.49885C77.7838 6.53121 77.7487 6.07827 77.5455 6.33709C77.3422 6.59591 77.1221 6.11062 76.907 6.33709C76.88 6.37123 76.8466 6.39862 76.809 6.41742C76.7713 6.43622 76.7304 6.44593 76.689 6.44593C76.6476 6.44593 76.6067 6.43622 76.5691 6.41742C76.5316 6.39862 76.4982 6.37123 76.4714 6.33709C75.9769 5.81298 75.9754 6.78999 75.5106 6.38235C75.0458 5.97471 74.1322 6.38236 74.0249 6.31118C73.87 6.20951 73.6977 6.14278 73.5183 6.11498C73.3389 6.08719 73.1562 6.09891 72.9809 6.14942C72.9219 5.72884 73.2202 5.80648 73.4051 5.82589L73.4111 5.82589ZM43.7558 1.29653C43.4095 1.45829 36.5293 1.51654 36.3673 2.12477C36.4636 1.60066 35.9681 1.76241 35.8433 1.42595C38.9579 1.5683 43.7804 0.850069 43.7499 1.26418L43.7558 1.29653ZM74.2031 6.85472C76.6746 6.78713 79.1474 6.8822 81.6078 7.13943C80.7185 7.21708 74.4951 7.08119 74.2031 6.85472ZM28.7189 46.4867C26.6955 46.8749 27.752 46.642 27.5665 46.972C17.6552 46.972 28.7191 46.4025 28.7249 46.4867L28.7189 46.4867ZM85.5767 6.60884C85.5772 6.30473 86.669 6.42765 87.1106 6.38883C88.4295 6.2853 88.3029 7.0747 87.7542 6.91294C86.9729 6.69294 85.5999 7.06825 85.5767 6.60884ZM143.446 47.8455C143.852 47.5478 146.846 48.7449 147.806 48.9196C147.609 49.2237 143.356 47.9102 143.446 47.8455ZM82.5854 64.3906C84.8115 64.1188 84.7865 64.8241 85.0376 64.5135C85.2887 64.2029 85.4317 64.3971 85.6344 64.4618C86.0281 64.5847 85.2401 64.7529 85.1685 64.7853C84.6131 65.0765 84.0654 64.2418 83.5156 64.7853C83.4738 64.8306 83.2356 64.5265 83.1698 64.5782C82.8771 64.7982 82.3646 64.3906 82.5854 64.3906ZM72.7065 6.11708C72.676 6.53766 71.5134 5.88413 70.5463 6.19472C70.4747 6.19472 69.9496 6.14296 69.9499 5.95531C69.9502 5.76767 72.731 5.70295 72.7065 6.10412L72.7065 6.11708ZM146.949 40.2167C145.673 40.1567 144.408 39.9396 143.179 39.5697C144.485 39.5567 145.702 40.0032 146.949 40.2167ZM85.6651 7.31411C83.1947 7.31411 84.5074 7.37881 84.4114 7.71528C84.3754 7.83822 83.9281 7.71529 83.9581 7.56647C84.0546 6.96471 83.7673 7.50824 82.652 7.13295C86.0413 7.13295 85.6774 7.06823 85.6771 7.31411L85.6651 7.31411ZM122.397 4.42181C120.697 4.23416 119.086 4.09827 117.469 4.00121C118.883 3.8718 121.944 4.14357 122.409 4.42181L122.397 4.42181ZM136.019 69.2176C135.422 69.4959 132.061 70.3435 137.464 68.5123C137.183 69.1917 136.521 68.9847 136.037 69.2176L136.019 69.2176ZM81.382 6.51177C80.4861 7.06176 78.3991 6.09119 80.6126 6.31766C81.591 6.41472 82.4033 5.90355 81.853 6.80295C81.9137 6.10413 81.471 6.84177 81.3999 6.51177L81.382 6.51177ZM48.8043 1.13476C48.5475 1.24476 48.2913 1.02476 48.0582 1.21241C47.9925 1.27064 47.8554 1.16066 47.9572 0.985955C48.2432 1.22536 48.4527 0.843582 48.7271 0.882405C49.2754 1.01185 49.8432 1.01185 50.3919 0.882405C50.8038 0.740054 50.3911 1.3871 49.4487 1.12181C49.1684 1.04416 49.3708 1.30946 49.2812 1.40652C49.275 1.35149 49.2568 1.29889 49.2281 1.25305C49.1993 1.2072 49.161 1.16945 49.1161 1.1429C49.0713 1.11635 49.0212 1.10174 48.9701 1.10033C48.919 1.09892 48.8683 1.11072 48.8222 1.13476L48.8043 1.13476ZM125.264 66.8947C123.617 67.0618 121.962 67.0964 120.311 66.9982C121.964 66.9788 123.635 66.9788 125.264 66.8947ZM113.708 8.74411C114.891 8.71589 116.075 8.76557 117.252 8.89292C116.069 8.93396 114.885 8.88424 113.708 8.74411ZM46.8292 1.1089C45.9456 1.40654 44.0184 1.26419 44.7766 1.07008C45.272 0.940665 46.8891 0.927716 46.8292 1.10242L46.8292 1.1089ZM114.975 3.89122C111.556 3.89122 111.89 3.93653 111.89 3.78771C115.309 3.78771 114.981 3.7424 114.975 3.89122ZM56.1453 37.9261C55.5011 37.7514 57.5898 37.6026 57.6731 37.7838C57.8218 38.0879 56.8073 38.1138 56.1453 37.9261ZM73.9347 6.73178C74.0063 6.73178 74.7935 7.02296 71.9535 6.85472C72.6103 6.57002 73.2723 6.75767 73.9347 6.73178ZM25.0022 49.7348C25.14 49.379 25.3902 49.6831 25.5991 49.6249C27.5573 49.0231 27.1686 49.5795 27.0254 49.5731C25.9812 49.5343 24.906 50.2202 25.0321 49.7219L25.0022 49.7348ZM111.699 3.88474C107.427 3.68416 108.179 3.68416 111.699 3.68416L111.699 3.88474ZM121.364 8.41411C120.349 8.46092 119.333 8.36743 118.34 8.13588C119.3 8.31705 120.297 8.14881 121.341 8.40763L121.364 8.41411ZM33.4831 29.8315C33.4539 29.4563 34.0381 29.8315 35.059 29.4821C35.0899 29.5552 35.1059 29.6346 35.1058 29.715C35.1056 29.7955 35.0894 29.875 35.0583 29.948C34.3963 29.7345 33.4947 30.0515 33.4831 29.8251L33.4831 29.8315ZM133.075 66.8688C133.827 66.6553 134.656 66.817 135.26 66.0341C135.14 66.6553 133.42 67.3412 133.063 66.8623L133.075 66.8688ZM83.2195 6.77061C82.8731 6.95178 82.7429 6.25297 82.9277 6.37591C83.1125 6.49885 83.4472 6.13003 83.5244 6.37591C83.6488 6.96473 83.7748 6.49885 83.9242 6.37591C84.102 7.13944 83.2852 6.71884 83.2075 6.76413L83.2195 6.77061ZM54.668 47.619C54.0195 47.6159 53.3714 47.6613 52.7285 47.7549C52.9737 47.4184 54.1732 47.3408 54.6561 47.6125L54.668 47.619ZM25.5739 39.2073C25.7888 39.1491 25.7943 39.4273 25.5735 39.4467C24.9767 39.4985 24.3135 40.0355 24.2066 39.7055C24.3142 39.5891 24.0277 39.6538 25.5619 39.2332L25.5739 39.2073ZM85.8849 64.5912C85.9331 64.2935 86.0519 64.6365 86.3086 64.5394C86.7504 64.3712 86.8339 64.4165 86.9047 64.9341C86.5529 64.753 85.8306 64.9341 85.8849 64.5912ZM67.1455 5.90354C67.146 5.58001 67.5931 5.8647 68.0049 5.81294C68.4167 5.76118 68.315 5.96178 68.2668 6.19472C67.7481 5.94237 67.1391 6.15589 67.1455 5.90354ZM116.18 64.5718C115.456 64.6809 114.724 64.7069 113.996 64.6494C114.688 64.5977 115.416 64.3388 116.18 64.5718ZM28.176 38.9097C28.5752 39.2914 29.0531 38.9097 29.5423 39.0003C29.3571 39.1556 28.0555 39.602 28.176 38.9097ZM22.7834 7.67001L20.7961 7.8253C21.4369 7.59688 22.1196 7.54355 22.7834 7.67001ZM129.168 66.1376L131.137 65.8788C130.509 66.1353 129.834 66.2241 129.168 66.1376ZM69.7293 5.85824C70.0152 6.18824 69.132 6.23352 69.0427 6.13647C68.8343 5.81941 68.8099 6.18823 68.6785 6.22059C68.6373 5.85824 69.5864 5.69648 69.7293 5.85824ZM29.7713 48.8937C27.1028 49.6766 27.6531 48.8484 29.7713 48.8937V48.8937ZM67.6482 1.22536C68.0139 1.01387 68.4341 0.940984 68.8419 1.0183C69.3784 1.38065 67.6182 1.30948 67.6482 1.22536ZM29.7415 48.8613C30.2639 48.6605 30.8182 48.5769 31.3709 48.6155C31.1381 48.6737 29.9797 49.1849 29.7415 48.8613ZM134.998 50.6407C135.721 50.5601 136.452 50.6597 137.134 50.9319C136.436 50.8025 135.72 50.7378 134.998 50.6407ZM29.4892 38.6056C29.4064 38.1268 32.264 38.5344 29.7816 38.6379C29.716 38.5667 29.5425 38.8644 29.5011 38.6056L29.4892 38.6056ZM70.4826 1.21241C70.2531 1.3156 70.0042 1.35716 69.7569 1.3335C69.5097 1.30983 69.2714 1.22169 69.0626 1.07655C69.5436 1.04505 70.0261 1.09081 70.4945 1.21241L70.4826 1.21241ZM133.632 65.5682C132.952 65.6523 132.307 65.9694 131.597 65.84C133.871 65.3935 133.62 65.4 133.644 65.5682L133.632 65.5682ZM64.2406 1.46477C63.5722 1.53594 62.9102 1.29006 62.2416 1.46477C62.9058 1.32397 63.5887 1.32397 64.2525 1.46477L64.2406 1.46477ZM78.422 70.8935C78.8814 70.9388 79.3414 70.6217 79.8898 70.9711C79.4073 71.0951 78.9024 71.0682 78.4339 70.8935L78.422 70.8935ZM25.8676 30.7762C26.6315 30.7374 25.443 31.4233 25.0975 31.0156C25.3959 31.0156 25.6051 30.7439 25.8796 30.7439L25.8676 30.7762ZM32.3489 30.1292C32.14 30.1292 32.0628 29.9221 32.3195 29.8704C34.0803 29.521 32.9933 30.1486 32.3609 30.0968L32.3489 30.1292ZM135.567 68.0141C135.699 67.7682 135.12 67.7812 136.922 67.6453C136.988 67.6453 137.066 67.6906 137.036 67.8717C136.544 67.7712 136.035 67.8204 135.567 68.0141ZM88.2179 64.643C87.9849 64.85 87.2034 64.6753 87.2275 64.5524C87.2816 64.2806 88.0035 64.3776 88.2059 64.6559L88.2179 64.643ZM133.854 19.4205C133.379 19.1927 132.917 18.9334 132.471 18.644C132.417 18.7346 133.318 18.6311 133.854 19.4205ZM77.6166 70.777C77.9086 71.0229 77.0911 71.0229 76.7569 71.0423C76.8621 70.91 77.001 70.8142 77.156 70.767C77.3111 70.7198 77.4755 70.7233 77.6285 70.777L77.6166 70.777ZM18.3546 46.1437C18.1874 46.2343 17.6092 45.8655 19.1248 45.8655C18.85 46.1049 18.5816 46.0143 18.3666 46.1437L18.3546 46.1437ZM19.0089 9.74055C19.4776 9.57374 19.9797 9.55135 20.459 9.67586C19.9577 9.6888 19.4743 9.75996 18.991 9.74055L19.0089 9.74055ZM121.608 9.28117C123.338 9.43647 123.123 9.37824 123.111 9.52706C121.339 9.39118 121.578 9.46882 121.59 9.28117L121.608 9.28117ZM104.266 2.53242C103.85 2.67157 103.405 2.67157 102.989 2.53242L104.266 2.53242ZM135.962 63.9247C136.422 63.7339 136.821 63.4009 137.109 62.9671C137.051 63.2504 136.902 63.5024 136.688 63.6778C136.475 63.8532 136.211 63.9408 135.944 63.9247L135.962 63.9247ZM85.3604 7.54708C85.5096 7.54708 85.8611 7.89646 85.0021 7.76705C84.5723 7.87058 84.316 7.6506 85.3425 7.54708L85.3604 7.54708ZM44.1372 1.6524C45.486 1.50358 45.5159 1.46475 45.5335 1.6524C45.5511 1.84004 44.1071 1.77535 44.1193 1.62653L44.1372 1.6524ZM127.031 66.2023L128.625 66.2023C128.107 66.3866 127.549 66.3866 127.031 66.2023ZM18.276 27.9292C18.2764 27.7286 20.0133 27.3986 18.5503 28.0522C18.437 28.0198 18.2877 28.0845 18.276 27.9292ZM75.1476 62.3718C75.3744 62.32 75.392 62.5594 75.1472 62.6371C75.0934 62.6694 73.6553 62.7083 75.1476 62.3718ZM27.5197 50.1554C27.5734 50.1554 27.6866 50.2525 27.6091 50.2589C27.3286 50.2913 27.5487 50.6666 27.5131 50.5825C27.4061 50.3172 26.0874 50.3107 27.5197 50.1554ZM122.818 66.4029C122.295 66.5523 121.751 66.5962 121.213 66.5323L122.818 66.4029ZM45.8081 1.52946C46.2053 1.4614 46.6108 1.47901 47.0015 1.58123C46.6017 1.55535 46.1658 1.77534 45.8081 1.52946ZM71.2277 1.68478C69.4376 1.68478 70.7802 1.68476 70.8525 1.21241C70.9297 1.45829 70.9711 1.67831 71.2277 1.68478ZM117.928 8.15531C117.421 7.98061 116.884 8.19413 116.383 7.99355C116.905 7.93733 117.432 8.00352 117.928 8.18765L117.928 8.15531ZM134.67 50.3237C134.258 50.6278 133.327 50.6019 133.763 50.369C134.05 50.4208 134.33 50.2202 134.67 50.356L134.67 50.3237ZM75.8923 70.6929C76.0892 70.6929 76.2322 70.8223 76.4888 70.8288C76.1181 71.2623 75.3849 70.7964 75.8923 70.6929ZM124.817 9.97996C125.267 9.93789 125.721 9.97729 126.159 10.0965C125.717 10.1518 125.269 10.1122 124.841 9.97996L124.817 9.97996ZM30.8968 39.0132L29.7033 39.0909C30.0862 38.9015 30.5204 38.8738 30.9207 39.0132L30.8968 39.0132ZM24.9904 49.7219C24.5131 49.6702 24.065 49.9937 23.5759 49.8643C23.6774 49.8513 25.295 49.5084 25.0142 49.7219L24.9904 49.7219ZM117.921 8.95765C118.284 9.01588 118.667 8.78294 119.006 9.07411C118.666 9.01588 118.284 9.16469 117.944 8.94469L117.921 8.95765ZM75.5659 1.59419C74.8617 1.66536 74.808 1.63301 75.0117 1.14772C75.0528 1.5683 75.447 1.31594 75.5779 1.58123L75.5659 1.59419ZM41.6548 39.4144C41.5031 39.5141 41.3311 39.5716 41.1541 39.5818C40.9771 39.5919 40.8006 39.5544 40.6403 39.4726L41.6548 39.4144ZM34.307 48.4149C33.7105 48.279 32.0036 48.5184 34.3073 48.2596L34.307 48.4149ZM82.5922 7.25589L81.6316 7.17825C82.1213 6.93884 82.3181 6.96471 82.6041 7.24294L82.5922 7.25589ZM16.6643 28.3045C16.4072 28.6474 16.1151 28.4274 15.8645 28.4533C15.9763 28.3542 16.1094 28.2873 16.2513 28.259C16.3933 28.2307 16.5395 28.2419 16.6763 28.2916L16.6643 28.3045ZM29.0246 30.5239C28.7169 30.5971 28.4 30.6124 28.0877 30.5692C28.2236 30.4601 28.3857 30.3965 28.5543 30.3862C28.7229 30.3758 28.8906 30.4192 29.0366 30.5109L29.0246 30.5239ZM35.6019 48.376C35.2323 48.1949 34.874 48.376 34.5101 48.3372C34.6834 48.2484 34.8734 48.2045 35.065 48.209C35.2566 48.2134 35.4445 48.2662 35.6139 48.3631L35.6019 48.376ZM29.0355 50.0778L29.9665 49.9678C29.7097 50.1102 29.417 50.2913 29.0773 50.0648L29.0355 50.0778ZM124.63 7.37236C125.033 7.48028 125.445 7.541 125.859 7.55352C125.659 7.60931 125.452 7.62148 125.248 7.58926C125.044 7.55704 124.848 7.4811 124.672 7.36589L124.63 7.37236ZM46.7814 1.12181C47.116 0.869461 47.4435 1.28357 47.7779 1.12181C47.2645 1.30946 46.7634 1.19949 46.8232 1.11537L46.7814 1.12181ZM84.8491 6.35001C85.4459 6.35001 84.7104 7.28176 84.7234 6.63471C84.8309 6.54412 84.7 6.34353 84.8909 6.34353L84.8491 6.35001ZM36.9806 48.2143C36.605 48.3254 36.2113 48.3431 35.8289 48.2661C36.0377 48.2725 36.8377 48.0266 36.9806 48.2143ZM104.564 2.61654C104.653 2.55726 104.754 2.52215 104.858 2.51426C104.962 2.50637 105.066 2.52593 105.161 2.57125C104.988 2.7783 104.773 2.65537 104.564 2.61654ZM115.154 3.91065C115.461 3.83057 115.784 3.86238 116.073 4.00121C115.762 4.07219 115.439 4.02893 115.154 3.87827L115.154 3.91065ZM24.5774 50.4984C24.3206 50.6278 24.0757 50.809 23.7418 50.6407C24.0107 50.369 24.3206 50.6019 24.5774 50.479L24.5774 50.4984ZM75.7801 62.3653C76.174 62.3653 76.1017 62.76 75.8989 62.7212C75.4336 62.6177 75.5594 62.3395 75.7802 62.3459L75.7801 62.3653ZM47.4593 47.9166C47.8506 47.805 48.2617 47.805 48.6527 47.9166L47.4593 47.9166ZM31.5614 30.0321C31.5617 29.8445 31.806 30.0321 31.9315 29.9156C32.057 29.7992 32.1816 30.2845 31.8595 30.1874C31.7462 30.1551 31.5372 30.2392 31.5614 30.0321ZM116.932 4.07241C116.055 3.99477 116.168 4.02064 116.174 3.94299C117.057 3.94299 116.938 3.89771 116.944 4.07241L116.932 4.07241ZM130.663 22.371L129.888 22.1058C130.028 22.0535 130.18 22.0511 130.322 22.0988C130.463 22.1465 130.587 22.2418 130.675 22.371L130.663 22.371ZM57.759 47.5672C57.3947 47.8002 57.1025 47.6449 56.8339 47.6902C57.079 47.4055 57.3652 47.5672 57.759 47.5672ZM120.384 66.3318L119.459 66.4029C119.598 66.3028 119.758 66.2436 119.925 66.2311C120.091 66.2186 120.258 66.2533 120.408 66.3318L120.384 66.3318ZM116.732 66.39C116.583 66.39 116.356 66.5971 116.338 66.39C116.321 65.9047 117.513 66.4806 116.756 66.3641L116.732 66.39ZM21.002 66.2929C20.7137 66.4167 20.3988 66.4482 20.0949 66.3835C20.3831 66.2597 20.698 66.2283 21.002 66.2929ZM31.6278 6.89354C31.801 6.79001 31.5561 6.9647 32.0869 7.12C31.9372 7.44999 31.3471 7.08119 31.6577 6.89354L31.6278 6.89354ZM125.653 47.4508C125.51 47.4898 125.362 47.4961 125.217 47.4694C125.072 47.4426 124.934 47.3834 124.812 47.2955L125.653 47.4508ZM15.6496 28.4986C15.4721 28.6202 15.2579 28.662 15.0527 28.6151C15.2318 28.5827 15.3695 28.2527 15.6496 28.4986ZM60.278 47.0561C60.4927 47.0949 60.6484 46.7649 60.9881 47.0237C60.6837 47.0431 60.4925 47.2114 60.278 47.0561ZM60.627 37.635C60.8888 37.6194 61.1503 37.6703 61.3906 37.7838C61.1638 37.7773 60.9129 37.9779 60.627 37.635ZM103.828 45.8914L102.986 45.8331C103.279 45.5808 103.541 45.8655 103.828 45.8914ZM95.7107 62.0677C95.6959 62.0705 95.6808 62.0698 95.6663 62.0656C95.6519 62.0614 95.6385 62.0537 95.6271 62.0432C95.6157 62.0327 95.6066 62.0196 95.6004 62.0048C95.5943 61.99 95.5912 61.9739 95.5915 61.9577C95.5915 61.9577 95.6632 61.8735 95.6692 61.8735C96.3843 62.4818 96.7196 61.7377 95.7107 62.0677ZM36.9925 48.2143C37.2969 48.0438 37.6301 47.9425 37.9716 47.9166C37.5293 48.4019 36.8853 48.0849 36.9925 48.2143ZM119.309 66.9788C119.195 67.0381 119.069 67.0656 118.943 67.0588C118.817 67.052 118.694 67.0112 118.587 66.94C118.861 66.9788 119.1 66.8429 119.333 66.9788L119.309 66.9788ZM27.8495 49.159C27.8485 49.7608 26.7214 49.3531 27.8495 49.159V49.159ZM75.0169 65.7882L74.4799 65.7494C74.7966 65.4582 74.8384 65.4647 75.0408 65.7623L75.0169 65.7882ZM42.0237 47.6707C41.7005 47.7128 41.374 47.7128 41.051 47.6707L42.0237 47.6707ZM32.2711 45.3867C32.2708 45.5808 31.4115 45.5937 31.6385 45.4514C31.8655 45.309 32.2533 45.3025 32.295 45.3802L32.2711 45.3867ZM41.8278 39.4467C42.1023 39.4467 42.3651 39.2656 42.6393 39.4467C42.3881 39.5131 42.1256 39.5109 41.8756 39.4403L41.8278 39.4467ZM115.597 66.8041C115.937 66.9335 116.296 66.8041 116.725 66.9335C115.472 66.927 115.639 66.9788 115.645 66.7976L115.597 66.8041ZM66.2575 1.45182L66.9735 1.45182C66.7585 1.54064 66.5214 1.54294 66.3052 1.45829L66.2575 1.45182ZM27.264 30.7439C27.3307 30.6612 27.4185 30.6017 27.5162 30.5729C27.6139 30.5442 27.7172 30.5474 27.8132 30.5821C27.8189 30.7439 27.9145 30.6792 27.264 30.7439ZM22.3986 66.1117C22.2935 66.1895 22.1714 66.2359 22.0446 66.2461C21.9178 66.2563 21.7908 66.2301 21.6765 66.17C21.9074 66.0789 22.1548 66.0479 22.3987 66.0794L22.3986 66.1117ZM117.963 8.41411C118.208 8.2847 118.417 8.41411 118.649 8.49823C118.536 8.53354 118.417 8.54142 118.3 8.52129C118.184 8.50117 118.073 8.45354 117.975 8.38176L117.963 8.41411ZM134.92 51.0484C135.272 51.249 135.678 50.9837 136.024 51.2231C136.125 51.0678 135.367 51.2813 134.932 51.016L134.92 51.0484ZM118.069 66.2412C118.291 66.2022 118.519 66.2132 118.737 66.2735C118.69 66.3161 118.636 66.3482 118.577 66.368C118.519 66.3878 118.457 66.3949 118.396 66.3889C118.335 66.3828 118.276 66.3638 118.222 66.3329C118.168 66.302 118.12 66.2599 118.081 66.2088L118.069 66.2412ZM23.7782 31.3521C23.6051 31.4039 23.9341 30.8862 24.2976 31.1968C24.1601 31.3909 23.9574 31.268 23.7902 31.3198L23.7782 31.3521ZM114.72 66.7912L115.407 66.7912C115.03 66.9788 115.03 66.9788 114.72 66.7912ZM48.8556 47.9296C49.0527 47.8002 49.226 47.6125 49.5598 47.8778L48.8556 47.9296ZM75.4505 70.7964C75.5935 70.9194 75.3186 71.2041 74.9791 70.7964C75.1999 70.8223 75.2956 70.6929 75.4505 70.7964ZM75.7929 65.62C76.5507 65.62 76.4552 65.62 76.4492 65.6912C75.6854 65.6847 75.7868 65.6847 75.7929 65.5941L75.7929 65.62ZM137.569 51.4496L138.32 51.5337C138.199 51.5897 138.066 51.6114 137.934 51.5967C137.803 51.582 137.677 51.5314 137.569 51.4496ZM62.4064 63.3165C62.6033 63.3165 62.7945 63.1289 63.0449 63.2777C62.9454 63.3283 62.8373 63.3562 62.7274 63.3595C62.6175 63.3628 62.5083 63.3416 62.4064 63.2971L62.4064 63.3165ZM101.63 65.7559L102.155 65.6847C101.952 66.0276 101.791 65.8853 101.63 65.7365L101.63 65.7559ZM137.582 61.9447C137.303 62.0809 136.991 62.115 136.693 62.0418C136.979 62.0483 137.242 61.8477 137.582 61.9253L137.582 61.9447ZM23.3894 65.9371C23.1448 65.9371 22.9236 66.1764 22.6254 66.047C22.8574 65.9042 23.1314 65.8648 23.3894 65.9371ZM84.3476 6.54411C84.3473 6.73176 84.174 6.89355 84.0317 6.29179C84.1152 6.37591 84.348 6.3047 84.3476 6.54411ZM111.206 2.40948C111.039 2.44831 110.866 2.55182 110.681 2.35123C110.765 2.30914 110.859 2.29233 110.951 2.30258C111.043 2.31282 111.131 2.34975 111.206 2.40948ZM120.736 66.157C121.506 66.2217 121.41 66.1571 121.404 66.3059C120.611 66.2606 120.712 66.3317 120.718 66.157L120.736 66.157ZM18.2807 55.1571C18.4598 55.0795 18.6212 54.9178 18.9134 55.0601C18.82 55.1319 18.7122 55.1781 18.5989 55.195C18.4857 55.2119 18.3704 55.1989 18.2628 55.1571L18.2807 55.1571ZM43.4568 39.4661C43.3612 39.5632 42.8605 39.2267 43.8986 39.3238C43.7609 39.5891 43.5644 39.3302 43.4389 39.4661L43.4568 39.4661ZM109.7 64.4618C109.8 64.4138 109.909 64.3891 110.019 64.3891C110.129 64.3891 110.238 64.4138 110.338 64.4618C110.069 64.6494 109.885 64.4941 109.7 64.4618ZM118.862 66.5065C119.882 66.5065 119.781 66.5065 119.781 66.5518C118.743 66.5518 118.862 66.5776 118.862 66.5065ZM24.0469 50.1554C23.7842 50.246 23.6346 50.479 23.3903 50.2913C23.605 50.3431 23.7605 50.0972 24.0469 50.1554ZM16.0855 47.1855C16.0855 47.1855 16.1332 47.2437 16.1212 47.2631C16.0253 47.5025 15.7989 47.3019 15.6496 47.3925C15.7988 47.3278 15.8887 47.1208 16.0855 47.1984L16.0855 47.1855ZM131.18 27.5086C131.252 27.5086 132.372 28.5763 131.18 27.5086V27.5086ZM74.0316 62.4883C74.1987 62.4235 74.234 62.7665 73.9357 62.7212C73.8641 62.7212 73.7806 62.7212 73.7808 62.5982C73.781 62.4753 73.942 62.5141 74.0316 62.4818L74.0316 62.4883ZM23.3128 31.3909C23.2111 31.5527 23.0561 31.4298 22.9128 31.4492C23.1581 31.0933 23.3786 31.2486 23.3128 31.3909ZM136.945 68.3441C137.053 68.0076 137.482 68.4023 137.883 67.9882C137.774 68.5964 136.94 68.1047 136.945 68.3441ZM33.0486 59.3695C32.78 59.3695 32.5173 59.46 32.231 59.4406C32.353 59.3609 32.4903 59.313 32.6322 59.3007C32.7741 59.2883 32.9166 59.3119 33.0486 59.3695ZM73.1973 1.37417C73.1673 1.51005 72.7079 1.42593 72.6007 1.28358C73.1497 1.28358 73.2273 1.25123 73.1973 1.37417ZM75.3035 65.6847C75.2201 65.5941 75.3337 65.4065 75.6437 65.6006C75.5481 65.6847 75.4643 65.8659 75.3035 65.6847ZM80.3537 64.3906C80.3533 64.6365 80.6577 64.5524 80.6932 64.7659C80.3472 64.6818 80.3472 64.6818 80.3537 64.3906ZM112.739 66.8494C112.972 66.9464 113.217 66.5712 113.461 66.8494L112.739 66.8494ZM111.713 66.7394C111.934 66.7394 112.148 66.8947 112.369 66.7782C112.142 66.8429 111.916 66.9141 111.701 66.7135L111.713 66.7394ZM40.0292 59.9259C40.2564 59.6347 40.5484 59.8806 40.7992 59.7771C40.5465 59.8486 40.289 59.8983 40.0292 59.9259ZM136.163 68.6288C136.599 68.1694 137.727 68.2729 136.163 68.6288V68.6288ZM133.131 19.8281L132.649 19.4075C132.995 19.524 132.995 19.524 133.114 19.8281L133.131 19.8281ZM123.308 47.3084C123.248 47.2372 123.762 47.0884 123.952 47.3084C123.332 47.2696 123.487 47.5672 123.29 47.3084L123.308 47.3084ZM100.514 65.7882C100.315 65.8387 100.105 65.8183 99.9176 65.73C100.012 65.6899 100.113 65.6742 100.214 65.6843C100.314 65.6945 100.411 65.73 100.496 65.7882L100.514 65.7882ZM20.5794 50.5501C20.4356 50.8995 20.2748 50.6731 20.0899 50.6407L20.5794 50.5501ZM45.6609 38.0232L45.1058 38.1526C45.2374 37.9197 45.4402 37.9909 45.643 38.0232L45.6609 38.0232ZM127.575 12.6782C127.736 12.7882 127.975 12.6458 128.1 12.9047C127.945 12.7494 127.706 12.8917 127.575 12.6782ZM45.1745 47.5349C45.3836 47.3925 45.5385 47.5349 45.6996 47.5349C45.6186 47.5855 45.5278 47.6148 45.4345 47.6204C45.3412 47.626 45.2481 47.6078 45.1625 47.5672L45.1745 47.5349ZM24.083 42.3585L23.4446 42.3585C23.8804 42.2549 23.8804 42.2549 24.0711 42.3908L24.083 42.3585ZM39.3203 47.8519L38.4787 48.0202C38.5983 47.9303 38.7343 47.8694 38.8774 47.8415C39.0206 47.8136 39.1675 47.8193 39.3083 47.8584L39.3203 47.8519ZM118.384 66.9788L117.739 66.927C117.84 66.8676 117.955 66.841 118.069 66.8501C118.183 66.8593 118.292 66.904 118.384 66.9788ZM111.385 2.36419C111.588 2.21536 111.743 2.36418 111.892 2.39653C111.814 2.44161 111.726 2.46408 111.637 2.46181C111.548 2.45955 111.461 2.43261 111.385 2.38358L111.385 2.36419ZM110.689 64.96C110.504 64.96 110.289 65.1476 110.057 64.9212L110.689 64.96ZM28.009 50.1878C28.1642 50.1425 28.3076 49.9937 28.4923 50.1878C28.3014 50.1554 28.1877 50.369 27.991 50.2072L28.009 50.1878ZM26.9656 30.7439C26.965 31.1256 26.3691 30.6015 26.8106 30.6727C26.8703 30.6598 26.9719 30.5821 26.9656 30.7439ZM96.5589 65.2835C96.4916 65.323 96.4132 65.3336 96.3391 65.3132C96.2651 65.2928 96.2009 65.243 96.1593 65.1735C96.3025 65.1671 96.4638 65.0376 96.5589 65.2835ZM42.5081 1.6977C42.5818 1.64668 42.6695 1.62466 42.7564 1.63526C42.8432 1.64586 42.924 1.68845 42.9853 1.75595C42.7943 1.82065 42.663 1.85299 42.5081 1.6977ZM73.7169 1.1089C73.7844 1.06431 73.8618 1.04069 73.9408 1.04069C74.0197 1.04069 74.0971 1.06431 74.1644 1.1089C74.1364 1.14332 74.1019 1.1709 74.0633 1.18978C74.0247 1.20867 73.9828 1.21841 73.9405 1.21841C73.8982 1.21841 73.8563 1.20867 73.8178 1.18978C73.7792 1.1709 73.7448 1.14332 73.7169 1.1089ZM82.7426 6.43413C82.7426 6.47295 82.6947 6.53765 82.6648 6.58941C82.2001 6.15589 82.707 6.33707 82.7426 6.43413ZM126.775 65.9047C126.838 65.8497 126.914 65.8171 126.994 65.8113C127.075 65.8055 127.154 65.8268 127.223 65.8723C127.181 66.0017 127.276 65.9888 126.775 65.9047ZM39.3371 59.9C39.5608 59.812 39.8058 59.812 40.0292 59.9C39.7666 59.9324 39.5755 60.0359 39.3371 59.9ZM25.5126 40.1779C25.6559 40.1391 25.6614 40.4626 25.4585 40.4497C25.2557 40.4367 25.3216 40.2297 25.5126 40.1779ZM50.1688 47.6514C50.2763 47.5866 50.1325 47.9619 49.7985 47.8713L50.1688 47.6514ZM23.1005 22.1963C23.1663 22.142 23.2445 22.1084 23.3266 22.0992C23.4088 22.0901 23.4917 22.1058 23.566 22.1446C23.5046 22.2079 23.4256 22.2474 23.3413 22.2568C23.2571 22.2661 23.1724 22.2449 23.1005 22.1963ZM115.926 2.44831C115.753 2.46877 115.579 2.46877 115.407 2.44831C115.98 2.37713 115.926 2.35772 115.926 2.44831ZM120.148 7.77353C120.357 7.55353 120.488 7.83824 120.649 7.77353C120.489 7.84473 120.309 7.84473 120.148 7.77353ZM32.3188 45.3996C32.4803 45.1149 32.5874 45.3608 32.8081 45.3996C32.372 45.6973 32.2474 45.2961 32.3009 45.3996L32.3188 45.3996ZM110.162 2.34475C109.997 2.4054 109.819 2.4054 109.655 2.34475C109.864 2.27358 110.013 2.1377 110.162 2.34475ZM80.3075 70.9323C80.3671 71.0229 80.1639 71.217 79.9138 70.8611C80.0689 70.9064 80.2123 70.7964 80.3075 70.9517L80.3075 70.9323ZM30.159 30.1227C30.344 30.1227 30.2959 30.3492 30.1586 30.3621C30.1413 30.3715 30.1221 30.3759 30.1028 30.3749C30.0835 30.374 30.0648 30.3677 30.0484 30.3567C30.0319 30.3457 30.0184 30.3303 30.009 30.312C29.9997 30.2937 29.9948 30.2731 29.9948 30.2521C29.9948 30.2312 29.9998 30.2106 30.0092 30.1923C30.0187 30.174 30.0322 30.1586 30.0487 30.1476C30.0651 30.1366 30.0839 30.1302 30.1032 30.1293C30.1225 30.1283 30.1417 30.1328 30.159 30.1421L30.159 30.1227ZM30.7557 30.1227C31.0837 30.2456 30.7254 30.4074 30.684 30.2003C30.696 30.1745 30.7259 30.0968 30.7438 30.0968L30.7557 30.1227ZM136.733 51.4496C136.9 51.4884 137.074 51.3396 137.33 51.4496L136.733 51.4496ZM31.1497 30.0127C31.2631 30.0127 31.3044 30.3168 31.1493 30.278C30.9942 30.2392 31.0245 29.9674 31.1319 29.9868L31.1497 30.0127ZM130.393 61.3171C130.554 61.1812 130.685 61.2006 130.93 61.2783C130.703 61.3495 130.583 61.453 130.393 61.3171ZM125.98 66.8947C125.777 66.9529 125.622 67.0047 125.479 66.817C125.628 66.9012 125.795 66.7265 125.98 66.8947ZM16.8136 47.0819C16.9986 47.0819 17.0585 46.9655 17.2253 47.1208C17.0999 47.1725 17.0162 47.2825 16.8136 47.0819ZM50.4372 47.6772C50.5023 47.6468 50.5724 47.6311 50.6432 47.6311C50.714 47.6311 50.784 47.6468 50.849 47.6772C50.7177 47.6772 50.5861 47.8972 50.4372 47.6772ZM109.406 8.60178C109.338 8.63815 109.262 8.65258 109.187 8.6434C109.112 8.63422 109.041 8.60181 108.983 8.55C109.051 8.51854 109.126 8.50678 109.201 8.51584C109.275 8.5249 109.346 8.5545 109.406 8.60178ZM72.5284 62.113C72.4755 61.6212 73.1249 62.2618 72.5999 62.1777C72.588 62.1842 72.5164 62.1906 72.5046 62.113L72.5284 62.113ZM133.48 67.0306C133.342 67.4965 132.824 67.0953 132.919 67.1988C133.486 67.05 133.522 67.1147 133.457 67.0306L133.48 67.0306ZM29.9852 45.6908C29.8836 45.8202 29.7644 45.6908 29.6391 45.6908C29.8722 45.4514 30.0868 45.5808 29.9852 45.6908ZM124.089 9.91527C123.492 9.91527 123.54 9.91526 123.546 9.8635C124.161 9.8635 124.089 9.83763 124.089 9.91527ZM21.2086 22.4163C21.0775 22.3128 21.1613 22.1187 21.5012 22.2869C21.3817 22.3775 21.3278 22.5069 21.2086 22.4163ZM131.186 27.5086C131.019 27.5539 131.102 27.748 130.994 27.8774C130.918 27.4504 130.84 27.2304 131.18 27.5151L131.186 27.5086ZM30.9691 46.1437C30.8077 46.3443 30.6585 46.3055 30.5096 46.1437C30.5035 46.1955 30.8082 46.0273 30.9691 46.1308L30.9691 46.1437ZM136.042 62.3459C136.11 62.3046 136.187 62.2828 136.266 62.2828C136.344 62.2828 136.421 62.3046 136.489 62.3459C136.352 62.2618 136.214 62.5789 136.042 62.3459ZM26.2187 50.2978C26.2782 50.356 26.1468 50.4919 25.8427 50.3366C26.0099 50.2331 26.1114 50.1878 26.2187 50.2978ZM136.93 62.6306C137.02 62.4365 137.163 62.443 137.378 62.4947C137.199 62.6047 137.085 62.7018 136.93 62.6306ZM79.5742 6.38883C79.6576 6.44706 79.4364 6.71238 79.2996 6.45356C79.4011 6.4212 79.4729 6.31118 79.5742 6.38883ZM29.4129 30.2586C29.5501 30.2586 29.5618 30.4204 29.4126 30.4786C29.2633 30.5368 29.2936 30.2586 29.4129 30.2586ZM124.232 66.4288C124.089 66.2606 123.934 66.5388 123.779 66.4288C124.084 66.1571 124.233 66.3318 124.232 66.4288ZM51.6725 47.6643C51.7262 47.6643 51.7918 47.6643 51.7797 47.7484C51.7612 48.1172 51.4636 47.6708 51.6904 47.6514L51.6725 47.6643ZM124.838 11.5523C124.671 11.4941 124.564 11.4876 124.499 11.3C124.572 11.3016 124.643 11.3263 124.703 11.3711C124.764 11.4159 124.811 11.4789 124.838 11.5523ZM105.97 64.4553L105.499 64.41C105.678 64.2547 105.738 64.3906 105.97 64.4553ZM26.6847 46.1567C26.6849 45.9755 26.9474 46.0467 26.9114 46.1567C26.9114 46.1893 26.8994 46.2205 26.8781 46.2436C26.8568 46.2666 26.8279 46.2796 26.7978 46.2796C26.7678 46.2796 26.739 46.2666 26.7177 46.2436C26.6965 46.2205 26.6846 46.1893 26.6847 46.1567ZM112.28 2.40301C112.423 2.40301 112.549 2.31889 112.668 2.40301C112.543 2.4483 112.399 2.51301 112.28 2.40301ZM32.1727 58.5671C32.3577 58.5283 32.369 58.9618 32.0889 58.7289C32.0771 58.6124 32.107 58.5671 32.1727 58.5671ZM73.479 64.74C73.1748 64.6817 73.4795 64.4423 73.5984 64.7012C73.5507 64.7012 73.5149 64.7271 73.4791 64.7206L73.479 64.74ZM33.1961 45.3284C33.1958 45.5225 32.9154 45.4643 32.7426 45.3284L33.1961 45.3284ZM69.9508 1.62653C69.8492 1.74947 69.7657 1.73004 69.6705 1.56828C69.7839 1.52299 69.8854 1.48418 69.9508 1.62653ZM30.206 45.6908C30.3493 45.5937 30.4929 45.3996 30.6475 45.6908L30.206 45.6908ZM65.5235 1.49711C65.5771 1.54241 65.6611 1.2189 65.8398 1.4389C65.798 1.48097 65.7458 1.50888 65.6896 1.51923C65.6334 1.52958 65.5756 1.52189 65.5235 1.49711ZM44.2988 1.3483C44.243 1.38855 44.1751 1.40362 44.1093 1.39032C44.0436 1.37703 43.9853 1.33643 43.9468 1.27714C44.0542 1.30302 44.1917 1.1283 44.2988 1.3483ZM46.5003 39.2914C46.4287 39.2914 46.4646 39.1944 46.4647 39.1426C46.4592 38.845 46.9063 39.1556 46.5003 39.2914ZM108.703 7.67646C108.883 7.56646 109.002 7.62469 109.181 7.67646C108.996 7.72175 108.87 7.7994 108.703 7.67646ZM22.918 47.0366C23.0018 46.9008 23.1151 46.9719 23.2583 46.946C23.0848 47.2566 22.8224 47.1531 22.918 47.0366ZM101.391 65.8335C101.331 65.8685 101.261 65.8779 101.195 65.86C101.129 65.842 101.071 65.798 101.033 65.7365C101.147 65.7559 101.29 65.6135 101.391 65.8335ZM140.22 38.942C140.381 38.9744 140.5 38.942 140.614 39.0844C140.464 39.1556 140.387 39.052 140.232 38.942L140.22 38.942ZM22.4014 41.6726C22.4431 41.7438 22.3593 41.8797 22.1031 41.6726C22.2344 41.6726 22.3241 41.5238 22.4133 41.6726L22.4014 41.6726ZM17.3746 28.1557C17.2189 28.5051 17.0406 28.0521 17.3151 28.0715C17.333 28.078 17.3806 28.1557 17.3746 28.1557ZM106.001 7.45C106.144 7.45 106.168 7.56646 105.965 7.63764C105.762 7.70881 105.792 7.45 106.001 7.45ZM104.15 45.9043C104.174 45.878 104.203 45.8579 104.235 45.8454C104.267 45.8329 104.301 45.8283 104.335 45.8321C104.368 45.8358 104.401 45.8477 104.43 45.8669C104.459 45.8862 104.483 45.9122 104.502 45.9431L104.15 45.9043ZM15.412 16.5087L15.024 16.5993C15.1136 16.5087 15.2393 16.3081 15.412 16.5087ZM26.326 50.3107L26.6244 50.3107C26.5168 50.4272 26.3975 50.4143 26.3261 50.2784L26.326 50.3107ZM42.5965 47.6578L43.056 47.619C42.9946 47.6836 42.9128 47.7202 42.8273 47.7215C42.7419 47.7227 42.6593 47.6883 42.5966 47.6255L42.5965 47.6578ZM121.148 9.39116C121.243 9.45587 121.303 9.31352 121.452 9.39116C121.339 9.4494 121.243 9.47528 121.148 9.39116ZM16.9162 46.3637C16.6 46.3637 17.0122 46.0402 17.0298 46.2537C17.0296 46.3572 16.9699 46.3637 16.9162 46.3637ZM33.3632 45.2702C33.3633 45.2055 33.3993 45.1408 33.4589 45.1602C33.8585 45.2961 33.3448 45.6261 33.3632 45.2702ZM87.4597 64.85C87.5014 64.9277 87.3937 65.1024 87.1912 64.85C87.2807 64.8888 87.3824 64.7077 87.4597 64.85ZM103.6 8.5047C103.475 8.5047 103.434 8.21352 103.803 8.4594C103.737 8.48085 103.669 8.49601 103.6 8.5047ZM20.5374 31.7986C20.6687 31.7662 20.722 32.0121 20.4596 31.9474C20.4488 31.9313 20.4423 31.9123 20.4406 31.8925C20.439 31.8727 20.4424 31.8528 20.4503 31.8349C20.4583 31.8169 20.4706 31.8017 20.486 31.7908C20.5013 31.7798 20.5191 31.7736 20.5375 31.7727L20.5374 31.7986ZM117.164 8.45941C117.157 8.44643 117.154 8.432 117.154 8.41735C117.154 8.40269 117.157 8.38826 117.164 8.37529C117.289 8.09705 117.444 8.6147 117.164 8.45941ZM22.1478 47.3278L22.4823 47.1402C22.3984 47.3667 22.2969 47.4055 22.1359 47.3278L22.1478 47.3278ZM145.457 51.4043C145.588 51.5466 145.821 51.3525 145.94 51.6501C145.857 51.6113 145.379 51.5272 145.445 51.4043L145.457 51.4043ZM138.893 51.5854C139.054 51.5272 139.233 51.786 138.774 51.7019C138.821 51.6437 138.845 51.5984 138.881 51.5854L138.893 51.5854ZM65.9406 47.1661C66.0538 47.2243 66.1794 47.056 66.3104 47.2243C66.2482 47.2551 66.1792 47.266 66.1116 47.2557C66.0439 47.2454 65.9804 47.2143 65.9286 47.1661L65.9406 47.1661ZM102.96 66.4417C102.864 66.4417 102.763 66.5323 102.667 66.4417C102.793 66.3835 102.715 66.3641 102.948 66.4417L102.96 66.4417ZM117.83 66.3318C117.561 66.4353 117.645 65.9953 117.961 66.2347C117.92 66.2706 117.876 66.3031 117.83 66.3318ZM106.862 66.5647C106.808 66.6876 106.701 66.6229 106.617 66.5129C106.773 66.4741 106.928 66.4288 106.862 66.5906L106.862 66.5647ZM56.7991 47.1014C56.8752 47.0648 56.9576 47.0459 57.0408 47.0459C57.1241 47.0459 57.2064 47.0648 57.2824 47.1014L56.7991 47.1014ZM94.2548 61.9836C94.0937 62.0224 94.1538 61.6989 94.4459 61.88C94.3871 61.9348 94.323 61.9825 94.2548 62.0224L94.2548 61.9836ZM73.899 70.8676C73.8984 71.2299 73.4876 70.667 73.8455 70.7188C73.8573 70.8029 73.899 70.8611 73.8989 70.9064L73.899 70.8676ZM32.2576 38.7997C32.2573 39.0261 31.8102 38.7479 32.1921 38.735C32.2039 38.7867 32.2576 38.8126 32.2576 38.8385L32.2576 38.7997ZM72.0866 62.2941C72.1285 62.1906 72.0453 62.0159 72.2303 62.0094L72.3019 62.0094C72.3253 62.2618 72.0151 62.2036 72.0866 62.2941ZM122.932 66.2347C122.874 66.2571 122.812 66.2604 122.752 66.2443C122.693 66.2282 122.639 66.1933 122.598 66.1441C122.753 66.0859 122.867 66.0664 122.932 66.2347ZM123.278 66.0406C123.365 65.9989 123.462 65.9916 123.552 66.0201C123.643 66.0485 123.721 66.1108 123.773 66.1959L123.278 66.0406ZM119.999 64.5588C120.029 64.4812 120.196 64.4618 120.178 64.5588C120.136 64.8177 119.969 64.6429 119.999 64.5588ZM117.218 64.5977C117.275 64.572 117.336 64.5588 117.397 64.5588C117.459 64.5588 117.519 64.572 117.576 64.5977C117.463 64.7012 117.355 64.6688 117.218 64.5977ZM19.4861 47.5672C19.4086 47.5284 19.4864 47.386 19.7966 47.4766C19.6353 47.5672 19.5815 47.6319 19.4861 47.5672ZM51.0158 47.8261L51.4098 47.7484C51.3319 47.9167 51.2245 47.9231 51.0158 47.8455L51.0158 47.8261ZM124.002 64.8888C124.169 64.8888 124.277 64.8112 124.384 64.8888C124.27 64.9924 124.169 64.9471 124.002 64.8888ZM41.5337 48.0655C41.534 47.8972 41.6593 47.9231 41.8024 47.9943L41.5337 48.0655ZM82.6782 1.90476C82.5947 1.84006 82.8218 1.66538 82.8034 1.96949C82.7589 1.9492 82.7169 1.92309 82.6782 1.89181L82.6782 1.90476ZM120.916 65.3159C120.858 65.3368 120.797 65.3436 120.736 65.3357C120.675 65.3279 120.616 65.3057 120.564 65.2706C120.696 65.2382 120.809 65.1735 120.916 65.3159ZM49.1323 65.3676C49.2279 65.3223 49.281 65.6588 48.9889 65.4841C49.0314 65.4381 49.0797 65.3989 49.1323 65.3676ZM107.029 2.27359C107.029 2.40947 106.868 2.27359 106.797 2.27359C106.94 2.20888 107.029 2.16359 107.029 2.27359ZM96.6419 65.6329C96.5462 65.7235 96.4448 65.717 96.236 65.6653C96.3637 65.6033 96.5074 65.5918 96.6419 65.6329ZM80.1251 65.5165C80.2742 65.5553 80.1248 65.73 79.9937 65.607C79.9957 65.5911 80.0008 65.5758 80.0088 65.5622C80.0168 65.5487 80.0274 65.5371 80.04 65.5285C80.0525 65.5199 80.0666 65.5143 80.0813 65.5122C80.0961 65.5101 80.111 65.5116 80.1251 65.5165ZM82.2053 6.59589C82.4919 6.52471 82.2047 7.01647 82.1158 6.59589C82.1217 6.63471 82.1635 6.60883 82.2053 6.59589ZM140.136 54.0831L140.386 54.5036C139.999 54.2772 140.172 54.0378 140.136 54.0831ZM34.4625 6.73826C34.5519 6.78355 34.4143 6.96471 34.1699 6.84824C34.2655 6.76413 34.3373 6.66708 34.4625 6.73826ZM81.6011 7.5859C81.3563 7.67649 81.3626 7.44355 81.4819 7.46943L81.6011 7.5859ZM124.206 7.48235C124.517 7.48235 124.481 7.48235 124.487 7.52117C124.194 7.56 124.248 7.57294 124.23 7.48235L124.206 7.48235ZM134.622 66.0406C134.574 66.0722 134.52 66.0925 134.465 66.1003C134.409 66.1081 134.353 66.1032 134.299 66.0859C134.344 66.0371 134.402 66.0061 134.465 65.9978C134.528 65.9896 134.592 66.0047 134.646 66.0406L134.622 66.0406ZM125.385 66.0729L125.027 66.0729C125.052 66.0425 125.083 66.0181 125.117 66.0015C125.152 65.9848 125.189 65.9762 125.227 65.9762C125.264 65.9762 125.302 65.9848 125.336 66.0015C125.37 66.0181 125.401 66.0425 125.426 66.0729L125.385 66.0729ZM123.994 66.0729C124.138 66.0082 124.233 66.0729 124.34 66.1765C124.281 66.1945 124.218 66.1917 124.16 66.1685C124.102 66.1452 124.052 66.1027 124.018 66.047L123.994 66.0729ZM96.8221 8.23939C96.7027 8.28468 96.7152 7.89649 96.9475 8.15531C96.9158 8.17877 96.8818 8.19828 96.846 8.21352L96.8221 8.23939ZM122.319 8.5241C121.925 8.5241 121.967 8.52411 121.973 8.45941C122.379 8.43352 122.325 8.41411 122.343 8.49823L122.319 8.5241ZM111.405 8.69233L111.268 8.76998C111.136 8.69233 111.196 8.56294 111.429 8.66647L111.405 8.69233ZM141.012 59.033C141.052 59.0132 141.097 59.0082 141.14 59.0187C141.183 59.0292 141.222 59.0547 141.25 59.0912C141.173 59.0395 141.059 59.2142 141.012 59.033ZM96.6113 66.0859C96.7247 66.0859 96.7541 66.3771 96.4322 66.1376C96.4899 66.113 96.55 66.0956 96.6113 66.0859ZM131.892 18.7799C132.011 18.9611 132.088 19.0322 131.891 19.0646C131.778 18.9611 131.76 19.0387 131.898 18.7799L131.892 18.7799ZM24.0554 22.0928C23.9359 22.2287 23.8644 22.1769 23.8764 22.0928C23.8885 22.0087 23.972 22.0087 24.0554 22.0928ZM17.6555 27.9163C17.8107 27.858 17.7983 28.1233 17.6909 28.1362C17.5835 28.1492 17.5599 27.9745 17.6674 27.9356L17.6555 27.9163ZM34.427 29.1651C34.4265 29.4951 34.0035 29.081 34.3077 29.1004C34.3734 29.1198 34.4331 29.0939 34.4389 29.1845L34.427 29.1651ZM79.201 61.2459C79.2216 61.2459 79.2413 61.2548 79.2559 61.2706C79.2704 61.2863 79.2785 61.3077 79.2785 61.33C79.2784 61.3524 79.2702 61.3737 79.2557 61.3895C79.2411 61.4053 79.2213 61.4142 79.2008 61.4142C79.1589 61.44 79.0041 61.2394 79.2129 61.2653L79.201 61.2459ZM24.1781 50.1878C24.0587 50.246 24.065 49.9872 24.3633 50.0519C24.3082 50.1071 24.2503 50.1589 24.19 50.2072L24.1781 50.1878ZM100.746 66.3318C100.34 66.3318 100.388 66.3318 100.388 66.3318C100.794 66.3318 100.746 66.3318 100.746 66.3318ZM29.7948 30.2651C29.8783 30.2974 29.8724 30.265 29.7946 30.4074C29.729 30.3492 29.7349 30.3815 29.7709 30.2845L29.7948 30.2651ZM106.063 66.5C106.462 66.5 106.415 66.5 106.415 66.5388C105.991 66.5453 106.039 66.5647 106.039 66.5065L106.063 66.5ZM109.105 66.6682C109.061 66.6987 109.009 66.7148 108.956 66.7148C108.903 66.7148 108.852 66.6987 108.807 66.6682C108.95 66.5712 109.1 66.5129 109.082 66.6747L109.105 66.6682ZM26.708 38.9679C26.678 39.065 26.7078 39.0585 26.4812 38.9679C26.4872 38.9356 26.4156 38.9549 26.6841 38.9744L26.708 38.9679ZM111.045 66.6682C111.474 66.7006 111.415 66.6682 111.409 66.7588C110.991 66.7329 111.051 66.7588 111.045 66.6682ZM47.0313 39.3432C46.8405 39.2526 46.8947 38.9485 46.9959 39.052C47.0972 39.1556 46.9595 39.4338 47.0313 39.3432ZM44.3223 39.2785C44.5252 39.2785 44.3876 39.4791 44.185 39.3497C44.2507 39.3173 44.2865 39.2785 44.3164 39.2785L44.3223 39.2785ZM114.088 66.8041C114.265 66.746 114.454 66.746 114.631 66.8041C114.455 66.8744 114.263 66.8744 114.088 66.8041ZM33.2766 39.6926C33.4139 39.6214 33.3242 39.7832 33.2285 39.932C33.1869 39.8026 33.1511 39.8026 33.2945 39.6926L33.2766 39.6926ZM6.56592 40.9479C6.45862 40.8767 6.45851 40.9479 6.56622 40.7537C6.64952 40.909 6.63172 40.8573 6.58383 40.9479L6.56592 40.9479ZM19.7269 42.4555C19.6906 42.5031 19.6392 42.5342 19.5828 42.5425C19.5264 42.5509 19.4692 42.536 19.4225 42.5008C19.5478 42.5137 19.6198 42.3002 19.7448 42.4555L19.7269 42.4555ZM53.5477 46.6355C53.6672 46.5319 53.7746 46.5708 53.9475 46.6355C53.8887 46.6695 53.8231 46.6873 53.7565 46.6873C53.6899 46.6873 53.6244 46.6695 53.5656 46.6355L53.5477 46.6355ZM36.0045 46.6355L35.6882 46.6355C35.7898 46.5708 35.8913 46.5061 36.0224 46.6484L36.0045 46.6355ZM135.979 68.1888C135.979 68.1047 136.098 68.0723 136.23 68.137C136.086 68.2729 135.943 68.3635 135.979 68.1888ZM22.8682 55.9336C22.8679 56.076 22.7309 55.9336 22.6593 55.9336C22.8086 55.8689 22.8683 55.8301 22.8682 55.9336ZM65.6605 46.9202C65.5889 46.9202 65.5773 46.6937 65.6608 46.7196C65.7443 46.7455 65.8992 46.8749 65.6605 46.9202ZM135.738 69.7417C135.618 69.8776 135.493 69.8193 135.344 69.7935C135.401 69.7506 135.466 69.7235 135.535 69.7145C135.604 69.7055 135.673 69.7149 135.738 69.7417ZM64.4131 47.0949C64.3233 47.2631 64.2518 47.192 64.2162 47.0949C64.3117 47.0625 64.264 47.0561 64.4131 47.1208L64.4131 47.0949ZM133.557 64.0865C133.556 64.2936 133.419 64.2871 133.246 64.2418C133.372 64.1641 133.431 64.0412 133.569 64.0929L133.557 64.0865ZM74.0676 47.2631C74.3599 47.3214 74.3242 47.2631 74.3121 47.3602C74.0197 47.3602 74.0674 47.3861 74.0676 47.2372L74.0676 47.2631ZM70.2529 70.9841L70.1753 70.9841C70.2596 70.5311 70.5214 70.9776 70.2529 70.9582L70.2529 70.9841ZM144.998 51.4043C145.213 51.1778 145.887 51.5595 144.998 51.4043V51.4043ZM49.3578 47.2955C49.4593 47.2567 49.5608 47.2178 49.662 47.3666L49.3578 47.2955ZM15.4588 47.2955C15.5304 47.2955 15.5841 47.2955 15.4227 47.4766C15.2496 47.4637 15.3215 47.3278 15.4588 47.2696L15.4588 47.2955ZM50.7846 73.3199C50.7427 73.3975 50.6352 73.4493 50.6294 73.3199C50.6237 73.1905 50.8266 73.1452 50.7846 73.294L50.7846 73.3199ZM126.19 47.5543C126.14 47.5707 126.087 47.5745 126.035 47.5656C125.983 47.5566 125.934 47.5351 125.891 47.5026C125.999 47.4508 126.094 47.4184 126.19 47.5284L126.19 47.5543ZM121.039 74.8793L121.373 74.7564C121.313 74.9181 121.2 74.8858 121.039 74.8534L121.039 74.8793ZM128.267 65.8788C128.369 65.8012 128.476 65.827 128.619 65.8788C128.482 65.9241 128.41 66.0212 128.267 65.8529L128.267 65.8788ZM76.1388 1.56828C76.1867 1.47122 76.288 1.56828 76.4848 1.6071C76.3475 1.62651 76.073 1.66535 76.1388 1.54241L76.1388 1.56828ZM68.7152 47.2243C68.6435 47.289 68.5599 47.2825 68.4347 47.2243C68.4752 47.1935 68.5225 47.175 68.5718 47.1705C68.6211 47.1659 68.6705 47.1755 68.7152 47.1984L68.7152 47.2243ZM46.9174 47.2243C46.9069 47.248 46.8915 47.2687 46.8723 47.2848C46.8531 47.3009 46.8307 47.3119 46.8069 47.317C46.7831 47.322 46.7586 47.3209 46.7353 47.3138C46.712 47.3067 46.6905 47.2938 46.6726 47.2761C46.8877 47.1402 46.822 47.1596 46.9174 47.1919L46.9174 47.2243ZM32.111 48.5184C32.1646 48.4849 32.2253 48.4672 32.2871 48.4672C32.3489 48.4672 32.4096 48.4849 32.463 48.5184C32.3139 48.5054 32.2124 48.5313 32.1111 48.4537L32.111 48.5184ZM31.5301 38.515C31.4584 38.5603 31.4883 38.5667 31.4287 38.515C31.4945 38.3856 31.4647 38.3791 31.5183 38.4502L31.5301 38.515ZM31.0648 38.4438C31.148 38.6056 31.1002 38.6508 31.0645 38.612C30.8738 38.4632 30.9813 38.4179 31.053 38.3791L31.0648 38.4438ZM14.7663 28.6021C14.9036 28.6021 14.9867 28.861 14.5991 28.6604C14.6462 28.6128 14.6984 28.5716 14.7545 28.5374L14.7663 28.6021ZM71.4896 47.3666C71.406 47.4314 71.3285 47.3666 71.245 47.3666C71.2738 47.3323 71.3107 47.3069 71.3516 47.2932C71.3926 47.2796 71.4362 47.2781 71.4778 47.289L71.4896 47.3666ZM63.9601 46.7584C64.0259 46.6808 63.996 46.7002 64.0795 46.7131C63.996 46.7131 63.996 46.7002 63.9483 46.6808L63.9601 46.7584ZM21.6466 47.3408C21.8017 47.3408 21.8311 47.6255 21.5689 47.4313C21.587 47.3149 21.6288 47.2631 21.6288 47.2631L21.6466 47.3408ZM18.0012 28.1557C17.9299 27.9551 17.9539 27.8645 18.1744 28.0586L18.0012 28.1557ZM121.977 66.1635C122.049 66.0859 122.126 66.1635 122.18 66.2606C122.013 66.2929 121.846 66.2864 121.977 66.1635ZM77.6376 61.2588C77.7033 61.2588 77.8463 61.3559 77.7449 61.3559C77.6434 61.3559 77.566 61.2588 77.6376 61.2588ZM85.1974 61.6083C85.0242 61.6989 84.9766 61.6083 85.1379 61.4918L85.1974 61.6083ZM92.3876 61.6924C92.3875 61.7765 92.3336 61.88 92.2504 61.6924C92.1671 61.5047 92.3699 61.563 92.3876 61.6924ZM114.459 66.1829C114.614 66.2282 114.459 66.3188 114.387 66.3382C114.315 66.3576 114.345 66.1441 114.483 66.1829L114.459 66.1829ZM110.389 66.2412C110.389 66.2994 110.311 66.4159 110.186 66.4288C110.264 66.2476 110.336 66.0729 110.413 66.2412L110.389 66.2412ZM43.3485 47.6125C43.2351 47.6125 43.4501 47.4637 43.5812 47.6125L43.3485 47.6125ZM95.0012 61.6924C95.0966 61.6924 95.174 61.8412 95.0426 61.8865C94.9113 61.9318 94.8818 61.7183 95.0012 61.6924ZM22.4404 9.49466C22.5537 9.49466 22.44 9.74704 22.3386 9.68234C22.2373 9.61763 22.2315 9.53349 22.4344 9.49466L22.4404 9.49466ZM108.081 8.60178C108.111 8.72472 108.033 8.82177 107.956 8.60178C107.879 8.38178 108.052 8.47884 108.075 8.60178L108.081 8.60178ZM124.889 66.4288C124.937 66.3954 124.993 66.3776 125.05 66.3776C125.107 66.3776 125.163 66.3954 125.211 66.4288C125.164 66.4666 125.108 66.487 125.05 66.487C124.992 66.487 124.935 66.4666 124.889 66.4288ZM124.25 66.4288C124.591 66.2024 124.936 66.6618 124.25 66.4288V66.4288ZM104.267 66.377L104.523 66.4159C104.404 66.4418 104.332 66.5453 104.267 66.3835L104.267 66.377ZM19.8383 66.377C20.101 66.2735 19.7124 66.7459 19.7129 66.4676C19.7436 66.4422 19.7755 66.4184 19.8084 66.3964L19.8383 66.377ZM109.627 8.69233C109.507 8.69233 109.448 8.42705 109.788 8.58235C109.687 8.65352 109.657 8.6988 109.627 8.69233ZM106.602 8.47884C106.727 8.39472 106.769 8.44001 106.751 8.47884C106.733 8.51766 106.673 8.55001 106.602 8.47884ZM107.644 66.5065C107.751 66.5065 107.84 66.7264 107.578 66.61C107.566 66.5388 107.596 66.5 107.644 66.5065ZM94.8952 7.96116C95.0682 7.96116 95.0739 8.14884 94.8533 8.03237C94.8712 8.00001 94.8892 7.95469 94.8952 7.96116ZM19.4561 66.5582C19.6353 66.4288 19.6707 66.7265 19.2889 66.6294C19.347 66.6128 19.4031 66.5889 19.4561 66.5582ZM123.83 7.89C123.925 7.81882 124.039 7.77353 124.039 7.89C124.038 8.00647 123.901 7.94176 123.83 7.89ZM20.836 50.5243C20.9136 50.4919 20.9672 50.5242 20.8655 50.7119C20.8119 50.6731 20.6927 50.5954 20.836 50.5243ZM87.6873 7.74118C87.6873 7.74118 87.6394 7.79942 87.6215 7.8253C87.3292 7.77354 87.7473 7.53413 87.6873 7.74118ZM134.359 50.9578C134.389 51.1195 134.001 51.0031 134.276 50.8801C134.306 50.906 134.353 50.9254 134.359 50.9578ZM79.3755 7.48235C79.483 7.48235 79.4588 7.65706 79.2978 7.57294C79.292 7.4953 79.3338 7.48235 79.3755 7.48235ZM77.7288 7.39175C77.8778 7.4694 77.7284 7.59884 77.776 7.70884C77.782 7.6506 77.544 7.28822 77.7288 7.39175ZM46.8567 47.8908C47.0894 47.8455 47.191 47.7937 47.2802 47.9296L46.8567 47.8908ZM136.358 51.236C136.238 51.2813 136.137 51.3072 136.059 51.1713C135.982 51.2619 136.191 51.0031 136.346 51.236L136.358 51.236ZM46.779 47.9554C46.6416 48.0137 46.6954 48.0072 46.5642 47.9554C46.6896 47.8519 46.6598 47.8454 46.767 47.9554L46.779 47.9554ZM54.9201 46.6613C54.8067 46.6937 54.6694 46.7196 54.7412 46.6161C54.813 46.5126 54.8726 46.5514 54.9082 46.6355L54.9201 46.6613ZM17.2078 43.1349C17.2078 43.1349 17.1661 43.0831 17.1721 43.0637C17.2022 42.8567 17.5361 43.0379 17.1958 43.109L17.2078 43.1349ZM107.373 3.66477C107.444 3.85888 107.051 3.66475 107.29 3.60651C107.284 3.56769 107.332 3.56771 107.343 3.62594L107.373 3.66477ZM120.156 2.53886C120.228 2.44828 120.312 2.49357 120.443 2.53886C120.4 2.56677 120.35 2.58152 120.3 2.58152C120.249 2.58152 120.2 2.56677 120.156 2.53886ZM29.6597 51.5466C29.7491 51.6178 29.6596 51.6307 29.582 51.6243C29.5045 51.6178 29.5823 51.4496 29.6836 51.5466L29.6597 51.5466ZM137.864 64.6623C137.864 64.7594 137.798 64.8047 137.738 64.85C137.685 64.7335 137.852 64.5459 137.864 64.6623ZM116.97 2.44183C117.048 2.39654 117.006 2.39006 117.125 2.44183C117.03 2.46771 117.066 2.47418 116.97 2.44183ZM27.5998 71.2429L27.2 71.2429C27.3553 71.1199 27.4388 71.1394 27.5998 71.2429ZM74.0025 1.62653C74.1278 1.62653 74.199 1.85947 73.889 1.71065C73.9367 1.69771 73.9666 1.65889 74.0025 1.62653ZM33.8095 64.96C33.6841 65.0053 33.7259 64.9988 33.6364 64.96C33.7319 64.9535 33.6902 64.96 33.8095 64.9859L33.8095 64.96ZM119.947 74.3423C120.079 74.2905 120.15 74.3422 120.228 74.4975C120.043 74.4846 119.989 74.4587 119.947 74.3423ZM112.992 65.1218L112.837 65.1218C112.837 65.1218 112.897 64.9729 112.992 65.1218ZM139.382 51.8119C139.43 51.7472 139.478 51.6437 139.561 51.7666C139.645 51.8895 139.501 51.8378 139.382 51.8119ZM128.677 29.2168C128.838 29.398 128.634 29.9221 128.677 29.2168V29.2168ZM49.1571 49.7025C49.4667 49.6181 49.7906 49.6181 50.0999 49.7025C49.5508 49.7866 49.33 49.7931 49.1571 49.7025ZM121.874 48.169C121.946 48.0331 122.006 47.9037 122.197 47.9555C122.101 48.0719 122.047 48.2143 121.874 48.169ZM121.248 47.8649C121.135 47.8649 121.189 47.6578 121.308 47.8261C121.278 47.839 121.278 47.8649 121.242 47.8649L121.248 47.8649Z" fill="white"/>
</svg>
