<svg width="368" height="99" viewBox="0 0 368 99" fill="none" xmlns="http://www.w3.org/2000/svg">
<path fill-rule="evenodd" clip-rule="evenodd" d="M265.256 83.5669C265.341 83.5042 265.418 83.4455 265.496 83.3876H265.496C274.741 76.0598 281.814 64.875 282.561 63.7924C283.309 63.6969 284.062 63.6084 284.824 63.5283C283.878 65.4142 283.47 69.2285 281.956 70.9279C280.603 72.3996 279.659 73.9871 278.103 75.3739C274.825 78.3019 271.683 80.8794 268.222 83.4936H268.223C267.244 83.5197 266.256 83.5433 265.256 83.5669Z" fill="#FECC00"/>
<path fill-rule="evenodd" clip-rule="evenodd" d="M271.358 83.3951C276.856 79.0282 282.034 74.9434 287.411 70.2241C289.517 68.3827 290.856 64.6544 292.73 62.8348C294.562 62.7179 296.387 62.6233 298.204 62.5586C295.965 64.8929 294.111 69.0768 291.271 71.1185C285.798 75.1263 280.97 79.3257 275.636 83.2451C274.234 83.2996 272.803 83.3479 271.358 83.3951Z" fill="#FECC00"/>
<path fill-rule="evenodd" clip-rule="evenodd" d="M275.637 83.2441C280.971 79.3247 285.798 75.1253 291.271 71.1175C294.112 69.0759 295.965 64.892 298.205 62.5576C299.142 62.5234 300.073 62.4949 301.003 62.4702C298.008 64.8669 295.613 68.972 292.858 71.6755C290.046 74.4799 287.446 77.1247 284.085 79.5476C282.513 80.6771 281.217 81.9143 279.794 83.0719H279.794C278.427 83.1321 277.046 83.1901 275.637 83.2441Z" fill="#FECC00"/>
<path fill-rule="evenodd" clip-rule="evenodd" d="M285.52 81.6598C284.795 82.0951 284.041 82.5059 283.287 82.9046H283.287C282.132 82.9625 280.969 83.0195 279.792 83.0712C281.215 81.9136 282.511 80.6764 284.083 79.5469C287.444 77.124 290.044 74.4792 292.856 71.6748C295.611 68.9712 298.006 64.8665 301 62.4695C302.629 62.4338 304.242 62.4127 305.84 62.4092C305.257 62.9638 304.643 63.5141 304.003 64.0628H304.003C299.598 67.8417 295.709 72.7572 291.482 76.6369H291.482C289.741 78.2761 288.191 79.8506 286.217 81.2041C285.993 81.3586 285.76 81.511 285.52 81.6598H285.52Z" fill="#FECC00"/>
<path fill-rule="evenodd" clip-rule="evenodd" d="M283.291 82.9055C284.045 82.5068 284.799 82.096 285.523 81.6607H285.523C287.842 80.2112 289.548 78.4657 291.485 76.6377H291.485C295.713 72.758 299.602 67.8426 304.006 64.0637H304.006C304.646 63.5145 305.26 62.9647 305.844 62.4101C306.902 62.4067 307.951 62.4135 309.001 62.424C307.155 64.0975 305.796 67.6763 303.808 69.3956H303.808C298.369 74.08 293.246 78.4455 287.63 82.6685C286.2 82.7509 284.756 82.8315 283.29 82.9055H283.291Z" fill="#FECC00"/>
<path fill-rule="evenodd" clip-rule="evenodd" d="M291.131 82.4528C291.18 82.4103 291.229 82.3689 291.279 82.3264C297.108 77.0452 303.272 72.8719 309.578 68.0046H309.579C311.1 66.8317 311.94 63.6816 313.404 62.5142C314.187 62.5367 314.969 62.5651 315.743 62.597C315.371 62.8966 314.99 63.1975 314.603 63.4962C311.827 65.6583 310.29 69.971 307.415 72.0446C302.864 75.3231 299.093 78.9959 294.648 82.213C293.492 82.2945 292.315 82.3761 291.131 82.4528Z" fill="#FECC00"/>
<path fill-rule="evenodd" clip-rule="evenodd" d="M311.591 74.365L311.57 74.3828C311.077 74.7178 310.62 74.994 310.203 75.1923C304.087 78.1665 300.22 80.9106 298.31 81.9479V81.949C297.971 81.9774 297.625 82.0046 297.28 82.0272C297.809 81.6164 298.337 81.196 298.915 80.7829C303.488 77.3958 307.201 73.9306 311.492 70.2545C313.543 68.5206 314.966 65.0733 317.354 63.7337C317.933 63.4091 318.518 63.0831 319.095 62.7563C320.512 62.8297 321.906 62.918 323.26 63.0147C321.893 64.8643 315.622 71.6035 311.591 74.365Z" fill="#FECC00"/>
<path fill-rule="evenodd" clip-rule="evenodd" d="M294.647 82.2185C299.092 79.0014 302.863 75.3286 307.414 72.0501C310.288 69.9765 311.825 65.6638 314.601 63.5017C314.989 63.203 315.37 62.9022 315.742 62.6025C316.87 62.6436 317.99 62.6967 319.095 62.7546C318.519 63.0814 317.934 63.4073 317.355 63.7319C314.967 65.0715 313.544 68.5189 311.493 70.2527C307.203 73.9288 303.489 77.394 298.916 80.7811C298.339 81.1942 297.81 81.6146 297.282 82.0253H297.282C296.409 82.0925 295.534 82.1576 294.646 82.2185H294.647Z" fill="#FECC00"/>
<path fill-rule="evenodd" clip-rule="evenodd" d="M287.624 82.6708C293.24 78.4477 298.364 74.0823 303.803 69.3979H303.803C305.79 67.6785 307.15 64.0998 308.996 62.4263C310.483 62.4417 311.955 62.4726 313.399 62.5172C311.935 63.6847 311.095 66.8347 309.573 68.0076H309.574C303.268 72.8749 297.103 77.0483 291.274 82.3295C291.225 82.3719 291.176 82.4134 291.127 82.4558C289.965 82.5278 288.802 82.6022 287.624 82.6708Z" fill="#FECC00"/>
<path fill-rule="evenodd" clip-rule="evenodd" d="M268.224 83.4939C271.684 80.8797 274.826 78.3022 278.103 75.3742C279.66 73.9874 280.604 72.3999 281.956 70.9282C283.471 69.2288 283.879 65.4145 284.824 63.5286C287.445 63.2356 290.087 63.0092 292.729 62.8394C290.856 64.659 289.517 68.3873 287.41 70.2287C282.034 74.948 276.856 79.0328 271.358 83.3997C270.323 83.434 269.28 83.4635 268.223 83.4939H268.224Z" fill="#FECC00"/>
<path fill-rule="evenodd" clip-rule="evenodd" d="M298.311 81.9509C298.311 81.9498 298.311 81.9498 298.311 81.9509C298.311 81.9509 298.311 81.9498 298.311 81.9509ZM305.329 81.3609C303.002 81.5724 300.671 81.769 298.311 81.9509C298.311 81.9498 298.311 81.9498 298.311 81.9498C300.255 80.9217 307.709 76.9139 312.606 74.7304H312.606C318.413 72.1494 323.226 65.5588 324.768 63.1255C326.769 63.2775 328.678 63.4523 330.49 63.6377C327.742 66.2954 325.142 70.5643 322.104 73.0192C316.623 75.9259 311.331 78.8883 305.329 81.3609Z" fill="#FECC00"/>
<path fill-rule="evenodd" clip-rule="evenodd" d="M312.009 80.7201C309.783 80.9452 307.563 81.1602 305.33 81.3619C311.333 78.8893 316.625 75.9269 322.105 73.0202C325.144 70.5653 327.743 66.2964 330.491 63.6387C332.042 63.7966 333.52 63.9692 334.91 64.1425C332.76 65.8325 329.554 69.2895 327.63 71.1577C322.127 74.5002 317.78 77.5994 312.009 80.7201H312.009Z" fill="#FECC00"/>
<path fill-rule="evenodd" clip-rule="evenodd" d="M340.17 69.9811C333.978 72.7358 327.96 75.5436 322.45 78.8953C322.104 79.0796 321.929 79.4136 321.653 79.6686C319.906 79.8669 318.173 80.0639 316.447 80.2516C317.018 79.8076 317.644 79.4005 318.315 79.0535C324.339 75.7655 330.736 72.8055 336.585 69.3236H336.585C337.903 68.5425 339.1 67.6844 340.227 66.7842C342.038 67.0733 343.603 67.3706 344.864 67.6574C343.364 68.4788 341.791 69.2518 340.17 69.9811Z" fill="#FECC00"/>
<path fill-rule="evenodd" clip-rule="evenodd" d="M345.822 71.1388C341.743 72.7427 337.254 73.7033 333.238 75.3212H333.238C331.307 76.0907 329.539 77.015 327.948 78.0832C327.657 78.2729 327.376 78.4712 327.095 78.6721C326.889 78.8135 326.685 78.9623 326.481 79.104C324.86 79.301 323.254 79.4889 321.654 79.6718C321.929 79.4168 322.104 79.0829 322.45 78.8985C327.961 75.5468 333.978 72.739 340.171 69.9843C341.792 69.255 343.364 68.482 344.864 67.6606H344.865C345.393 67.7798 345.865 67.8956 346.288 68.01C347.57 68.3654 348.803 68.7948 349.966 69.2727C348.662 69.9562 347.288 70.5794 345.822 71.1388Z" fill="#FECC00"/>
<path fill-rule="evenodd" clip-rule="evenodd" d="M345.152 73.731C342.474 75.0218 339.902 76.3876 337.322 77.7494C335.724 77.957 334.138 78.1591 332.58 78.3527C335.421 76.3226 338.33 74.3553 342.256 73.0924C345.503 72.0634 348.575 71.0401 351.661 70.0298C351.944 70.1655 352.211 70.3034 352.478 70.443C349.942 71.4601 347.532 72.5649 345.152 73.731Z" fill="#FECC00"/>
<path fill-rule="evenodd" clip-rule="evenodd" d="M354.821 72.7329C351.009 73.8636 347.788 75.2538 344.702 76.7868C344.414 76.8235 344.117 76.8649 343.821 76.9037C341.61 77.1928 339.447 77.4726 337.324 77.744C339.904 76.3822 342.476 75.0166 345.154 73.7255C347.535 72.5594 349.944 71.4546 352.48 70.4375C353.715 71.077 354.827 71.7615 355.786 72.4532H355.786C355.469 72.545 355.144 72.641 354.821 72.7329Z" fill="#FECC00"/>
<path fill-rule="evenodd" clip-rule="evenodd" d="M344.7 76.7882C347.785 75.2552 351.006 73.865 354.819 72.7343C355.142 72.6424 355.466 72.5464 355.783 72.4546H355.783C356.988 73.3161 357.96 74.1822 358.644 74.9778C355.036 75.4415 350.4 76.0424 344.7 76.7882Z" fill="#FECC00"/>
<path fill-rule="evenodd" clip-rule="evenodd" d="M342.258 73.0895C338.331 74.3524 335.422 76.3197 332.582 78.3498H332.582C330.517 78.6091 328.489 78.8596 326.481 79.1004C326.685 78.9587 326.889 78.8098 327.095 78.6684C327.376 78.4675 327.657 78.2692 327.947 78.0795C329.539 77.0113 331.307 76.0871 333.238 75.3175H333.238C337.254 73.6996 341.743 72.7391 345.821 71.1352C347.288 70.5758 348.662 69.9526 349.966 69.269H349.966C350.557 69.5099 351.121 69.7649 351.663 70.0269C348.576 71.0372 345.505 72.0605 342.258 73.0895Z" fill="#FECC00"/>
<path fill-rule="evenodd" clip-rule="evenodd" d="M336.938 65.5578L336.862 65.6143C333.161 68.1493 321.93 75.4799 316.731 78.3195C316.061 78.6676 315.434 79.0745 314.871 79.5147C313.384 79.6754 311.904 79.83 310.424 79.982C316.194 76.8618 320.274 74.1992 325.777 70.8542H325.777C327.707 68.9863 330.894 65.6094 333.035 63.9194C334.733 64.1329 336.594 64.578 338.003 64.8081C337.855 64.925 337.481 65.1861 336.938 65.5578Z" fill="#FECC00"/>
<path fill-rule="evenodd" clip-rule="evenodd" d="M228.207 83.5663C229.475 81.8925 230.694 80.2286 231.778 78.4123C232.892 76.5405 235.428 70.9674 236.613 69.1099C236.867 68.7036 237.099 68.3015 237.324 67.8977C238.1 67.8493 238.873 67.7986 239.663 67.7432H239.664C239.036 69.778 237.106 75.5596 236.337 77.6051C235.506 79.7599 234.647 81.7806 233.463 83.6972C231.722 83.6595 229.967 83.6157 228.207 83.5663Z" fill="#FECC00"/>
<path fill-rule="evenodd" clip-rule="evenodd" d="M196.703 82.0598C198.908 80.227 201.064 78.6348 203.255 76.6982C204.891 75.2653 207.406 69.9425 208.913 68.564C209.844 68.5817 210.837 68.5958 211.879 68.603C211.795 68.7281 211.717 68.8546 211.633 68.9805C209.406 72.3868 205.651 79.309 202.875 82.4304C200.761 82.3075 198.697 82.1815 196.703 82.0598Z" fill="#FECC00"/>
<path fill-rule="evenodd" clip-rule="evenodd" d="M200.878 68.8238C202.591 68.5712 204.302 68.4496 205.979 68.4968C206.874 68.5215 207.853 68.549 208.917 68.5664C207.409 69.9449 204.894 75.268 203.258 76.7007C201.067 78.6372 198.912 80.2295 196.707 82.0623C195.861 82.0069 195.03 81.9524 194.212 81.8996C195.304 80.4725 195.77 78.7386 196.771 77.2727C197.799 75.7506 199.828 70.3214 200.878 68.8238Z" fill="#FECC00"/>
<path fill-rule="evenodd" clip-rule="evenodd" d="M178.941 80.8196C179.435 80.5257 180.393 79.8179 181.647 78.9077C184.847 76.5932 189.954 72.9678 194.127 71.4902C192.793 73.1247 188.707 78.2692 187.503 80.0101C187.193 80.4575 186.925 80.9247 186.657 81.3897H186.657C183.747 81.1831 181.139 80.9885 178.941 80.8196Z" fill="#FECC00"/>
<path fill-rule="evenodd" clip-rule="evenodd" d="M186.658 81.3849C186.926 80.9199 187.194 80.4527 187.504 80.0054C188.709 78.2644 189.955 76.6252 191.281 74.993C192.14 74.6885 193.246 73.4954 194.374 72.2844C195.607 70.9627 196.869 69.6219 197.884 69.3906C196.876 71.287 194.733 76.9629 193.655 78.8005C193.064 79.7892 192.633 80.8067 191.985 81.7508C190.118 81.6282 188.335 81.5031 186.658 81.3849H186.658Z" fill="#FECC00"/>
<path fill-rule="evenodd" clip-rule="evenodd" d="M200.877 68.8232C199.827 70.3209 197.797 75.7501 196.769 77.2721C195.768 78.738 195.302 80.4719 194.211 81.899C193.456 81.8504 192.71 81.7987 191.984 81.7524C192.631 80.8083 193.062 79.7908 193.653 78.802C194.732 76.9645 199.418 70.7907 200.425 68.8942H200.425L200.877 68.8232Z" fill="#FECC00"/>
<path fill-rule="evenodd" clip-rule="evenodd" d="M202.877 82.4358C205.653 79.3143 209.408 72.3921 211.635 68.9859C211.72 68.8599 211.797 68.7334 211.881 68.6084C212.869 68.6152 213.897 68.6191 214.975 68.6191H214.976C213.087 71.5506 210.466 78.4973 208.507 81.4043C208.267 81.7688 207.914 82.0474 207.675 82.4121C207.626 82.5077 207.591 82.602 207.562 82.6976C205.977 82.6125 204.413 82.5279 202.877 82.4358Z" fill="#FECC00"/>
<path fill-rule="evenodd" clip-rule="evenodd" d="M207.563 82.6942C207.592 82.5986 207.627 82.5043 207.676 82.4087C207.915 82.0439 208.268 81.7653 208.507 81.4009C210.466 78.4938 213.088 71.5471 214.976 68.6156C215.935 68.6132 216.935 68.6083 217.971 68.5977C217.661 69.2281 216.35 73.8049 215.998 74.4373C214.37 77.3455 212.467 80.0142 210.712 82.8572C209.656 82.8041 208.606 82.7496 207.563 82.6942Z" fill="#FECC00"/>
<path fill-rule="evenodd" clip-rule="evenodd" d="M217.97 68.5955C219.126 68.5826 220.316 68.5652 221.558 68.5425C221.452 69.0479 220.33 73.4852 220.105 73.961C218.703 77.0898 217.589 80.3105 215.552 83.0877V83.0873C213.933 83.0143 212.319 82.9362 210.712 82.855C212.467 80.0121 214.369 77.3433 215.998 74.4352C216.35 73.8027 217.653 69.226 217.97 68.5955Z" fill="#FECC00"/>
<path fill-rule="evenodd" clip-rule="evenodd" d="M221.558 68.5456C222.444 68.5259 223.36 68.5103 224.29 68.4819H224.29C224.439 70.3938 222.994 75.993 222.502 77.8208H222.502C221.972 79.8168 221.197 81.6084 220.098 83.2854H220.099C218.583 83.225 217.061 83.159 215.553 83.0907V83.0904C217.59 80.3135 218.703 77.0929 220.106 73.9641C220.33 73.4883 221.452 69.0519 221.558 68.5456Z" fill="#FECC00"/>
<path fill-rule="evenodd" clip-rule="evenodd" d="M220.102 83.2894C221.201 81.6124 221.975 79.8208 222.505 77.8248H222.505C222.997 75.997 224.442 70.3977 224.293 68.4859C225.654 68.4481 227.056 68.4047 228.5 68.3491C227.774 71.0754 225.681 77.6124 224.215 80.1273C223.555 81.1872 223.032 82.2249 222.511 83.3555C222.505 83.3637 222.496 83.3709 222.496 83.3849C221.701 83.3555 220.898 83.3212 220.101 83.2894H220.102Z" fill="#FECC00"/>
<path fill-rule="evenodd" clip-rule="evenodd" d="M228.496 68.3417C230.343 68.2708 232.252 68.1835 234.204 68.0796C233.238 69.7213 231.209 75.2882 230.406 77.0302H230.406C229.342 79.2986 227.905 81.2802 226.812 83.525C225.374 83.4789 223.93 83.4294 222.493 83.3774C222.493 83.3634 222.501 83.3562 222.507 83.348C223.028 82.2174 223.551 81.1797 224.211 80.1198C225.678 77.6049 227.77 71.0679 228.496 68.3417Z" fill="#FECC00"/>
<path fill-rule="evenodd" clip-rule="evenodd" d="M237.323 67.9033C237.098 68.3071 236.866 68.7093 236.612 69.1156C235.428 70.9731 232.891 76.5461 231.777 78.418C230.693 80.2343 229.474 81.8982 228.205 83.572C227.741 83.5577 227.275 83.5436 226.81 83.5296C227.903 81.2848 229.34 79.3031 230.404 77.0347H230.405C231.207 75.2927 236.358 69.5476 237.323 67.9033Z" fill="#FECC00"/>
<path fill-rule="evenodd" clip-rule="evenodd" d="M233.466 83.6985C234.649 81.7818 235.509 79.7612 236.34 77.6064C237.109 75.5609 239.039 69.7792 239.665 67.7444C241.125 67.6467 242.612 67.5356 244.105 67.4126C243.795 68.1951 242.491 72.9196 242.161 73.7103C241.18 75.9881 239.926 77.9295 238.982 80.1874C238.474 81.4976 237.39 82.4701 236.912 83.7589C235.776 83.7448 234.62 83.7221 233.466 83.6985Z" fill="#FECC00"/>
<path fill-rule="evenodd" clip-rule="evenodd" d="M244.106 67.4123C245.296 67.3134 246.487 67.2139 247.692 67.0986C247.573 67.4586 247.439 67.8174 247.282 68.1692C245.387 72.3754 241.992 80.18 238.997 83.7833H238.998C238.307 83.776 237.609 83.7678 236.912 83.7585C237.39 82.4697 238.475 81.4972 238.983 80.1871C239.927 77.9292 241.181 75.9878 242.161 73.71C242.492 72.9216 243.796 68.1962 244.106 67.4123Z" fill="#FECC00"/>
<path fill-rule="evenodd" clip-rule="evenodd" d="M238.996 83.7865C241.99 80.1833 245.385 72.3787 247.281 68.1725C247.437 67.8207 247.571 67.4619 247.69 67.1019C248.239 67.0545 248.782 67.0014 249.332 66.9497H249.333C249.361 67.3166 249.389 67.6873 249.425 68.0577C249.684 70.9306 247.246 77.0712 246.056 79.4552C245.323 81.0636 244.392 82.5579 243.039 83.8043H243.04C243.005 83.8043 242.976 83.8043 242.948 83.8043H242.949C241.644 83.8043 240.326 83.797 238.995 83.7865H238.996Z" fill="#FECC00"/>
<path fill-rule="evenodd" clip-rule="evenodd" d="M249.332 66.9483C250.622 66.8219 251.925 66.6873 253.235 66.542C252.608 67.6054 251.001 72.6203 250.573 73.8498C249.346 77.2585 247.401 79.9944 246.14 83.4181C246.098 83.5455 246.083 83.6705 246.077 83.7991C245.077 83.8028 244.062 83.8028 243.04 83.8028C244.392 82.5565 245.323 81.0621 246.056 79.4538C247.246 77.0697 249.684 70.9291 249.424 68.0562C249.389 67.6859 249.361 67.3152 249.332 66.9483H249.332Z" fill="#FECC00"/>
<path fill-rule="evenodd" clip-rule="evenodd" d="M246.076 83.7975C246.082 83.6689 246.096 83.5439 246.138 83.4165C247.399 79.9928 249.345 77.2569 250.571 73.8482C251 72.6187 252.607 67.6038 253.234 66.5404C253.509 66.5109 253.79 66.4791 254.066 66.4482C254.086 66.596 254.1 66.7435 254.114 66.8922C254.347 68.9176 252.882 74.6499 252.283 76.5852C251.466 79.2267 250.542 81.7392 248.654 83.7896H248.655C247.809 83.794 246.942 83.7939 246.076 83.7975Z" fill="#FECC00"/>
<path fill-rule="evenodd" clip-rule="evenodd" d="M254.069 66.4486C255.956 66.2375 257.851 66.0074 259.761 65.7539C258.767 68.2426 256.161 74.4352 255.012 76.9278C253.885 79.3487 252.553 81.5908 251.052 83.7765C250.264 83.7802 249.468 83.7861 248.657 83.79C250.545 81.7395 251.469 79.227 252.285 76.5855C252.885 74.6502 254.35 68.9179 254.117 66.8925C254.103 66.7438 254.088 66.5963 254.069 66.4486Z" fill="#FECC00"/>
<path fill-rule="evenodd" clip-rule="evenodd" d="M251.051 83.7777C252.553 81.592 253.885 79.35 255.011 76.929C256.161 74.4365 258.767 68.2439 259.76 65.7552C260.791 65.6192 261.818 65.4777 262.854 65.3301C262.389 68.0929 259.979 74.4884 258.562 76.981H258.563C257.259 79.2105 256.301 81.6665 254.681 83.7449C253.489 83.7556 252.279 83.7671 251.051 83.7777Z" fill="#FECC00"/>
<path fill-rule="evenodd" clip-rule="evenodd" d="M262.852 65.3298C264.48 65.0937 266.115 64.8461 267.749 64.5806C264.727 69.6401 261.282 78.6993 258.251 83.6989C257.076 83.7139 255.884 83.7307 254.679 83.7447C256.3 81.6663 257.258 79.2103 258.561 76.9808H258.561C259.977 74.4883 262.388 68.0927 262.852 65.3298Z" fill="#FECC00"/>
<path fill-rule="evenodd" clip-rule="evenodd" d="M258.253 83.7031C261.283 78.7035 264.729 69.6444 267.751 64.5849C269.387 64.318 271.02 64.0369 272.655 63.7373C271.301 65.6196 269.773 67.396 268.321 69.263C266.412 71.7909 264.108 78.3848 262.269 80.9198C261.621 81.811 261.086 82.7433 260.529 83.6649H260.529C259.774 83.6793 259.021 83.6911 258.253 83.7031Z" fill="#FECC00"/>
<path fill-rule="evenodd" clip-rule="evenodd" d="M272.651 63.7338C273.469 63.5816 274.286 63.4293 275.111 63.2686C273.801 65.6066 271.475 71.8468 270.235 74.2708C268.601 77.5023 266.437 80.3947 264.852 83.5747H264.852C263.436 83.6076 261.991 83.6368 260.526 83.6615H260.526C261.083 82.7399 261.617 81.8076 262.266 80.9164C264.105 78.3814 266.408 71.7875 268.318 69.2596C269.77 67.3925 271.298 65.6162 272.651 63.7338Z" fill="#FECC00"/>
<path fill-rule="evenodd" clip-rule="evenodd" d="M297.484 82.3808C297.759 82.2344 298.04 82.0881 298.309 81.9429C298.04 82.0917 297.766 82.2367 297.484 82.3808Z" fill="#FECC00"/>
<path fill-rule="evenodd" clip-rule="evenodd" d="M264.855 83.5776C264.99 83.5763 265.123 83.5703 265.256 83.5679C264.94 83.8193 264.657 84.0742 264.46 84.4059C264.587 84.1273 264.722 83.8513 264.855 83.5776H264.855Z" fill="#FECC00"/>
<path fill-rule="evenodd" clip-rule="evenodd" d="M297.484 82.3797C297.759 82.2333 298.033 82.0871 298.309 81.9429C298.033 82.0906 297.759 82.2357 297.484 82.3797Z" fill="#FECC00"/>
<path fill-rule="evenodd" clip-rule="evenodd" d="M189.131 85.4962V85.4939C187.602 84.1545 186.193 82.7582 184.939 81.2651C185.594 81.3135 186.264 81.3608 186.948 81.4066C187.539 82.0877 188.158 82.7629 188.828 83.4204C190.011 84.5485 191.232 85.6305 192.528 86.6765C191.336 86.2764 190.202 85.8772 189.131 85.4962Z" fill="#FECC00"/>
<path fill-rule="evenodd" clip-rule="evenodd" d="M192.53 86.6728C191.234 85.6268 190.014 84.5447 188.831 83.4166C188.161 82.7591 187.541 82.0839 186.95 81.4028C187.492 81.4419 188.049 81.481 188.612 81.5201C190.057 82.7636 191.6 83.9591 193.1 85.149H193.101C194.453 86.203 195.821 87.2227 197.237 88.2222C195.594 87.7004 194.017 87.1814 192.53 86.6728Z" fill="#FECC00"/>
<path fill-rule="evenodd" clip-rule="evenodd" d="M197.234 88.2256C195.818 87.2261 194.45 86.2064 193.097 85.1524H193.097C191.597 83.9625 190.054 82.767 188.609 81.5234C189.116 81.5588 189.624 81.594 190.145 81.6308C190.984 82.3518 191.857 83.0541 192.731 83.7729H192.731C193.21 84.1893 193.93 84.4785 194.415 84.8965H194.415C196.45 86.5627 198.679 87.9733 201.002 89.3778C199.707 88.9927 198.453 88.6083 197.234 88.2256Z" fill="#FECC00"/>
<path fill-rule="evenodd" clip-rule="evenodd" d="M193.039 81.8213C194.398 81.9121 195.801 82.0017 197.232 82.0926C198.887 83.5725 200.698 84.9921 202.544 86.373H202.544C205.116 88.2781 207.639 90.138 210.429 91.9071C208.66 91.4812 206.92 91.0327 205.221 90.5724C200.713 88.0277 196.653 85.036 193.039 81.8213Z" fill="#FECC00"/>
<path fill-rule="evenodd" clip-rule="evenodd" d="M197.235 82.0972C198.608 82.1821 200.011 82.2669 201.434 82.352C203.548 84.6311 205.88 86.7623 208.537 88.7867H208.537C210.341 90.1531 212.179 91.4516 214.047 92.739C212.827 92.4749 211.622 92.1997 210.432 91.9117C207.642 90.1426 205.118 88.2826 202.547 86.3776H202.547C200.701 84.9966 198.89 83.5771 197.235 82.0972Z" fill="#FECC00"/>
<path fill-rule="evenodd" clip-rule="evenodd" d="M209.798 88.4435C207.161 86.4395 203.541 84.6185 201.433 82.3501C202.709 82.4243 203.998 82.4988 205.308 82.5731C206.02 83.4159 206.802 84.2291 207.662 84.9947C210.804 87.8357 216.541 93.6319 220.169 96.2461C217.569 95.7446 211.933 90.0605 209.798 88.4435Z" fill="#FECC00"/>
<path fill-rule="evenodd" clip-rule="evenodd" d="M205.307 82.5713C205.618 82.5878 205.935 82.6055 206.243 82.621H206.244C209.719 85.8097 213.671 88.6127 217.977 91.4927H217.977C219.4 92.4461 223.628 96.2111 225.044 97.1044C223.417 96.8459 221.789 96.5591 220.168 96.2443C216.539 93.6301 210.803 87.8339 207.661 84.9929C206.801 84.2273 206.019 83.4141 205.307 82.5713Z" fill="#FECC00"/>
<path fill-rule="evenodd" clip-rule="evenodd" d="M206.244 82.6206C207.971 82.7172 209.718 82.8108 211.488 82.8957C214.059 85.3989 216.806 87.7273 220.02 89.9449C220.739 90.4276 221.535 90.7781 222.148 91.2656C223.804 92.5837 228.384 96.645 230.244 97.7967C228.512 97.6055 226.777 97.372 225.044 97.104C223.628 96.2107 219.4 92.4457 217.977 91.4923H217.977C213.671 88.6123 209.718 85.8093 206.244 82.6206H206.244Z" fill="#FECC00"/>
<path fill-rule="evenodd" clip-rule="evenodd" d="M234.2 98.1533C233.995 98.1438 233.79 98.125 233.586 98.112C233.164 97.8242 232.748 97.5289 232.347 97.2223C230.627 95.9226 226.117 91.8215 224.505 90.47C221.721 88.1536 218.839 85.9382 216.506 83.338C216.443 83.2664 216.38 83.1955 216.316 83.127C217.98 83.2012 219.65 83.2722 221.326 83.3358C222.143 84.2492 222.989 85.1415 223.807 86.1114C225.998 88.6406 228.675 90.7735 231.529 92.9109C232.691 93.8092 236.693 97.5317 237.934 98.3884C236.686 98.3185 235.439 98.2407 234.2 98.1533Z" fill="#FECC00"/>
<path fill-rule="evenodd" clip-rule="evenodd" d="M221.324 83.3306C222.128 83.3625 222.931 83.3929 223.735 83.419C224.538 84.7502 225.524 86.0439 226.835 87.2443C229.618 89.804 235.221 95.141 238.272 97.5545C238.679 97.872 239.088 98.1742 239.511 98.4619H239.511C238.989 98.4397 238.461 98.4112 237.933 98.3832C236.692 97.5264 232.69 93.8039 231.527 92.9057C228.674 90.7683 225.997 88.6353 223.806 86.1062C222.988 85.1363 222.142 84.244 221.324 83.3306Z" fill="#FECC00"/>
<path fill-rule="evenodd" clip-rule="evenodd" d="M245 98.6874C244.943 98.6522 244.887 98.6131 244.824 98.5741C240.322 95.6295 234.107 89.515 230.563 86.1584H230.564C229.682 85.3321 228.9 84.4647 228.16 83.5679C229.541 83.6089 230.921 83.6445 232.289 83.6763C232.472 84.0398 232.683 84.3999 232.986 84.7528C234.396 86.4037 235.389 88.0808 237.067 89.5879C239.497 91.7358 244.605 96.7933 247.36 98.7477H247.36C246.571 98.73 245.782 98.7087 245 98.6874Z" fill="#FECC00"/>
<path fill-rule="evenodd" clip-rule="evenodd" d="M232.29 83.6777C232.782 83.687 233.269 83.6991 233.755 83.7073C234.961 85.2948 236.32 86.8347 237.835 88.3324C240.498 90.9398 246.079 96.4216 249.221 98.7868C248.601 98.7739 247.981 98.7632 247.36 98.7492H247.361C244.605 96.7948 239.497 91.7372 237.067 89.5894C235.389 88.0823 234.396 86.4051 232.986 84.7542C232.683 84.4013 232.472 84.0413 232.29 83.6777Z" fill="#FECC00"/>
<path fill-rule="evenodd" clip-rule="evenodd" d="M249.216 98.7802C246.074 96.415 240.493 90.9332 237.83 88.3258C236.315 86.8281 234.956 85.2882 233.75 83.7007C235.138 83.7288 236.505 83.7528 237.858 83.7692C237.894 83.8484 237.928 83.9285 237.957 84.0111H237.957C238.534 85.4273 239.112 86.747 240.211 88.0841C241.86 90.0892 246.673 94.6494 248.906 96.2983C250.005 97.1242 250.97 97.9838 252.062 98.8098C251.111 98.805 250.167 98.7957 249.216 98.7802Z" fill="#FECC00"/>
<path fill-rule="evenodd" clip-rule="evenodd" d="M237.86 83.772C239.585 83.7908 241.276 83.8015 242.946 83.8015H242.947C243.277 83.8015 243.728 83.7942 244.292 83.779H244.292C244.554 84.0834 244.814 84.3831 245.06 84.6949C245.54 85.305 245.955 85.9481 246.568 86.4853C250.253 89.8959 256.954 95.9551 261.682 98.7311C260.681 98.7561 259.688 98.7759 258.687 98.7899H258.688C252.909 95.5917 246.4 87.813 242.136 84.0766C244.863 87.7456 248.471 94.0371 254.233 98.8219H253.963H253.929H253.894H253.861H253.827H253.792C253.216 98.8211 252.642 98.8177 252.064 98.8126C250.972 97.9866 250.006 97.127 248.907 96.3011C246.675 94.6522 241.862 90.0919 240.213 88.0869C239.114 86.7498 238.535 85.4301 237.958 84.0139H237.959C237.93 83.9313 237.895 83.8512 237.86 83.772Z" fill="#FECC00"/>
<path fill-rule="evenodd" clip-rule="evenodd" d="M261.686 98.7283C256.959 95.9524 250.257 89.8932 246.572 86.4826C245.96 85.9454 245.544 85.3022 245.065 84.6922C244.818 84.3804 244.558 84.0806 244.296 83.7762C244.868 83.7597 245.558 83.7375 246.353 83.7056C247.277 84.7333 248.13 85.7507 249.094 86.7431C250.568 88.3118 252.323 89.6856 254.07 91.11C255.859 92.5618 260.742 96.6536 262.672 98.0852H262.672C262.962 98.2962 263.257 98.4912 263.567 98.6776C262.942 98.6989 262.313 98.7143 261.686 98.7283Z" fill="#FECC00"/>
<path fill-rule="evenodd" clip-rule="evenodd" d="M263.562 98.6849C263.253 98.4985 262.957 98.3035 262.667 98.0925H262.668C260.738 96.6609 255.854 92.5691 254.065 91.1173C252.318 89.6929 250.563 88.3191 249.089 86.7504C248.125 85.758 247.272 84.7406 246.348 83.7129C247.44 83.6656 248.73 83.6101 250.189 83.5405H250.19C252.972 85.9588 255.812 88.3511 258.588 90.761C261.069 92.3095 266.226 96.8391 268.601 98.4985C266.924 98.5739 265.246 98.6342 263.562 98.6849Z" fill="#FECC00"/>
<path fill-rule="evenodd" clip-rule="evenodd" d="M268.6 98.4984C266.225 96.839 261.068 92.3094 258.587 90.7609C255.811 88.351 252.972 85.9587 250.189 83.5404C250.978 83.5014 251.816 83.4601 252.697 83.4141H252.697C255.382 86.119 258.524 88.5455 261.448 91.1279C263.929 92.4238 268.656 96.8873 270.953 98.3815C270.171 98.4217 269.389 98.463 268.6 98.4984Z" fill="#FECC00"/>
<path fill-rule="evenodd" clip-rule="evenodd" d="M270.955 98.3786C268.659 96.8843 263.931 92.4209 261.45 91.125C258.526 88.5426 255.384 86.1161 252.699 83.4111C253.453 83.3711 254.242 83.332 255.051 83.2871C257.237 85.6571 259.95 87.8015 262.492 90.0083C264.777 91.9546 269.949 96.5584 272.555 98.2912C272.027 98.3197 271.492 98.3513 270.955 98.3786Z" fill="#FECC00"/>
<path fill-rule="evenodd" clip-rule="evenodd" d="M278.032 97.9364C273.916 95.4863 267.222 89.964 263.544 87.175C261.826 85.864 260.134 84.5126 258.597 83.1035C260.218 83.0138 261.917 82.9183 263.699 82.813C268.139 86.9863 275.776 93.7667 280.54 97.738C279.709 97.8066 278.869 97.8728 278.032 97.9364Z" fill="#FECC00"/>
<path fill-rule="evenodd" clip-rule="evenodd" d="M272.555 98.293C269.949 96.5603 264.777 91.9564 262.492 90.0102C259.95 87.8033 257.237 85.6589 255.051 83.2889C256.181 83.2311 257.364 83.1649 258.596 83.0991C260.134 84.5082 261.824 85.8596 263.543 87.1707C267.221 89.9596 273.914 95.482 278.03 97.9321C276.211 98.0689 274.387 98.1868 272.555 98.293Z" fill="#FECC00"/>
<path fill-rule="evenodd" clip-rule="evenodd" d="M280.536 97.7284C275.773 93.757 268.135 86.9766 263.697 82.8033C264.338 82.7667 264.992 82.7291 265.655 82.6914C268.742 85.5155 272.116 88.1153 275.252 90.9303C276.739 92.2769 281.227 96.3619 283.003 97.5147C282.185 97.5878 281.36 97.6598 280.536 97.7284Z" fill="#FECC00"/>
<path fill-rule="evenodd" clip-rule="evenodd" d="M283.006 97.5205C281.23 96.3677 276.741 92.2827 275.255 90.9362C272.119 88.1212 268.745 85.5214 265.658 82.6972C266.391 82.6557 267.131 82.6085 267.885 82.5649C271.717 86.0181 275.734 89.3572 279.763 92.6887C280.546 93.3108 284.175 96.7414 285.013 97.3331C284.344 97.3955 283.674 97.4568 283.006 97.5205Z" fill="#FECC00"/>
<path fill-rule="evenodd" clip-rule="evenodd" d="M285.012 97.3308C284.174 96.7391 280.546 93.3085 279.763 92.6864C275.733 89.3549 271.717 86.0158 267.884 82.5626C269.047 82.4931 270.237 82.422 271.443 82.3501C272.358 83.1065 273.289 83.8514 274.253 84.5842C278.495 87.7615 285.358 93.8729 289.846 96.8173C288.247 96.9988 286.641 97.171 285.012 97.3308Z" fill="#FECC00"/>
<path fill-rule="evenodd" clip-rule="evenodd" d="M289.847 96.8216C285.359 93.8772 278.496 87.7658 274.254 84.5885C273.29 83.8557 272.359 83.1108 271.444 82.3544C271.717 82.338 271.992 82.3227 272.266 82.3062H272.267C274.445 83.7635 276.656 85.194 279.009 86.6919H279.009C282.666 89.0464 288.692 94.3383 292.207 96.5431C291.424 96.6397 290.643 96.7308 289.847 96.8216Z" fill="#FECC00"/>
<path fill-rule="evenodd" clip-rule="evenodd" d="M292.206 96.542C288.691 94.3372 282.665 89.0453 279.008 86.6908H279.008C276.655 85.193 274.444 83.7625 272.265 82.3051C273.379 82.2365 274.506 82.1671 275.654 82.0972C276.099 82.4525 276.704 82.7217 277.199 83.051H277.199C282.468 86.8501 290.664 92.6294 296.864 95.4125C295.257 95.6393 293.855 96.3403 292.206 96.542Z" fill="#FECC00"/>
<path fill-rule="evenodd" clip-rule="evenodd" d="M297.584 94.9553C291.377 92.1735 282.47 86.8461 277.201 83.047H277.201C276.706 82.7178 276.1 82.4486 275.656 82.0932C277.25 81.9966 278.869 81.8939 280.518 81.7886C281.484 82.4638 282.463 83.1308 283.408 83.8189C283.887 84.1856 284.507 84.4845 285.021 84.8338C286.022 85.5076 286.805 86.192 287.84 86.7978C289.454 87.7677 290.827 88.6716 292.307 89.7137H292.307C292.793 90.0385 293.307 90.3394 293.857 90.6251C295.23 91.2517 298.818 93.7598 300.128 94.462C298.916 94.6531 298.818 94.7795 297.584 94.9553H297.584Z" fill="#FECC00"/>
<path fill-rule="evenodd" clip-rule="evenodd" d="M300.126 94.4673C298.816 93.7651 295.228 91.2571 293.855 90.6305C293.305 90.3448 292.791 90.0439 292.304 89.7191H292.305C290.825 88.677 289.452 87.7731 287.838 86.8032C286.803 86.1974 286.019 85.513 285.019 84.8392C284.505 84.4899 283.885 84.191 283.406 83.8243C282.461 83.1363 281.482 82.4692 280.516 81.794C281.194 81.754 281.877 81.7081 282.566 81.667C285.872 84.5169 289.571 87.162 293.791 89.3253C295.863 90.3873 300.182 93.2645 302.345 94.113C301.613 94.2337 300.872 94.353 300.126 94.4673Z" fill="#FECC00"/>
<path fill-rule="evenodd" clip-rule="evenodd" d="M308.116 93.0823C306.234 93.4399 304.304 93.7797 302.345 94.1065C300.182 93.258 295.863 90.3808 293.791 89.3187C289.57 87.1554 285.871 84.5104 282.566 81.6604C283.335 81.6141 284.103 81.561 284.878 81.5127C289.217 83.7939 293.53 85.9057 298.217 87.7254C301.075 88.8593 305.98 91.667 308.912 92.6704H308.912C309.074 92.7235 309.235 92.7791 309.39 92.8346C308.961 92.9171 308.537 93.0011 308.116 93.0823Z" fill="#FECC00"/>
<path fill-rule="evenodd" clip-rule="evenodd" d="M311.871 92.3481C309.63 91.4523 305.191 88.6373 302.943 87.7028H302.943C298.251 85.7377 293.861 83.4846 289.379 81.2292C291.274 81.1055 293.177 80.978 295.086 80.8516C296.531 81.8735 298.074 82.8282 299.688 83.7217C303.916 86.0009 310.341 89.9062 314.831 91.7438H314.831C313.838 91.9505 312.85 92.1532 311.871 92.3481Z" fill="#FECC00"/>
<path fill-rule="evenodd" clip-rule="evenodd" d="M316.991 91.2802C314.369 90.0575 309.507 87.0017 306.93 85.6621C305.379 84.8512 303.863 84.2083 302.419 83.2926C301.046 82.3862 299.706 81.6082 298.396 80.715C298.361 80.6889 298.319 80.6558 298.283 80.6263C298.558 80.6088 298.832 80.591 299.107 80.5708C304.406 83.5721 312.087 87.8351 317.864 90.0964H317.864C318.449 90.3147 319.027 90.5165 319.604 90.7207C318.731 90.906 317.864 91.0987 316.991 91.2802Z" fill="#FECC00"/>
<path fill-rule="evenodd" clip-rule="evenodd" d="M319.604 90.7236C319.027 90.5194 318.449 90.3176 317.864 90.0993H317.864C312.087 87.838 304.406 83.575 299.107 80.5737C299.79 80.5301 300.475 80.4815 301.151 80.438H301.151C301.962 80.8179 302.764 81.2157 303.568 81.5984C306.084 82.7676 308.486 83.9892 311.072 85.0303C313.842 86.1927 318.801 89.2022 321.543 90.2997C320.9 90.4416 320.253 90.5832 319.604 90.7236Z" fill="#FECC00"/>
<path fill-rule="evenodd" clip-rule="evenodd" d="M321.54 90.3023C318.798 89.2047 313.839 86.1952 311.069 85.0328C308.483 83.9918 306.081 82.7701 303.565 81.6009C302.761 81.2182 301.959 80.8204 301.148 80.4405C303.078 80.3048 304.996 80.1703 306.891 80.0356C307.581 80.4169 308.279 80.7924 308.984 81.1559C312.048 82.7088 314.938 84.3507 318.031 85.7858C319.475 86.4785 323.167 89.0029 324.647 89.6073C323.611 89.8397 322.575 90.0701 321.54 90.3023Z" fill="#FECC00"/>
<path fill-rule="evenodd" clip-rule="evenodd" d="M324.646 89.6025C323.166 88.9981 319.474 86.4737 318.029 85.7811C314.937 84.3459 312.047 82.7041 308.983 81.1511C308.278 80.7876 307.58 80.4122 306.89 80.0309C307.312 80.0014 307.729 79.9733 308.151 79.9424C313.337 82.3124 320.897 86.1446 326.288 88.3233C326.83 88.5343 327.38 88.7021 327.922 88.8532C326.837 89.1033 325.745 89.3547 324.646 89.6025H324.646Z" fill="#FECC00"/>
<path fill-rule="evenodd" clip-rule="evenodd" d="M327.925 88.8513C327.383 88.7002 326.833 88.5324 326.292 88.3214C320.9 86.1427 313.34 82.3105 308.154 79.9405C309.105 79.8731 310.05 79.8059 310.993 79.7388C312.587 80.4845 314.171 81.213 315.954 81.809C316.575 82.007 316.983 82.3199 317.54 82.5573H317.541C320.739 83.7939 325.89 87.0539 329.124 88.2267H329.124C329.321 88.3001 329.517 88.3649 329.715 88.4357C329.124 88.5748 328.524 88.7142 327.925 88.8513Z" fill="#FECC00"/>
<path fill-rule="evenodd" clip-rule="evenodd" d="M329.713 88.4378C329.516 88.367 329.319 88.3021 329.122 88.2288H329.122C325.889 87.0559 320.737 83.796 317.539 82.5593H317.539C316.982 82.3219 316.573 82.0091 315.952 81.811C314.17 81.215 312.586 80.4866 310.992 79.7408C311.443 79.7076 311.901 79.6737 312.352 79.6392C318.059 82.5178 326.261 86.0361 332.61 87.7545C331.652 87.9833 330.687 88.2111 329.713 88.4378Z" fill="#FECC00"/>
<path fill-rule="evenodd" clip-rule="evenodd" d="M332.611 87.7535C326.263 86.0351 318.06 82.5167 312.353 79.6381C313.989 79.5203 315.602 79.401 317.18 79.2808C319.85 80.3925 322.543 81.4675 325.298 82.5617H325.298C327.828 83.558 332.519 86.4057 335.092 87.1607C334.274 87.3582 333.443 87.5565 332.611 87.7535Z" fill="#FECC00"/>
<path fill-rule="evenodd" clip-rule="evenodd" d="M335.091 87.1557C332.519 86.4007 327.827 83.553 325.298 82.5567H325.298C322.543 81.4625 319.849 80.3875 317.18 79.2758C318.738 79.16 320.267 79.0456 321.752 78.9287H321.752C321.88 79.0079 322.006 79.0809 322.14 79.1459C323.106 79.5943 324.072 80.0461 325.036 80.4984H325.036C326.311 81.0742 327.615 81.5831 328.891 82.1614H328.891C329.714 82.5403 330.504 82.8423 331.469 83.1044C332.921 83.4925 336.415 85.8482 337.861 86.2366C338.015 86.2802 338.169 86.3226 338.317 86.3675C337.261 86.6285 336.183 86.8904 335.091 87.1557Z" fill="#FECC00"/>
<path fill-rule="evenodd" clip-rule="evenodd" d="M338.318 86.3724C338.17 86.3275 338.015 86.2851 337.862 86.2415C336.416 85.8531 332.922 83.4974 331.47 83.1093C330.505 82.8472 329.715 82.5452 328.892 82.1663H328.892C327.616 81.588 326.312 81.0791 325.037 80.5033H325.037C324.072 80.051 323.107 79.5992 322.141 79.1508C322.007 79.0858 321.88 79.0128 321.753 78.9336C323.409 78.8049 325.016 78.6764 326.558 78.5537C330.659 80.4666 337.255 83.9897 341.729 85.5252H341.729C340.616 85.8047 339.482 86.087 338.318 86.3724H338.318Z" fill="#FECC00"/>
<path fill-rule="evenodd" clip-rule="evenodd" d="M344.544 84.8128C344.291 84.7044 344.029 84.5993 343.734 84.513C339.556 83.2348 333.573 79.8618 329.825 78.283C330.458 78.2294 331.079 78.1776 331.677 78.1245C334.108 78.9437 336.518 79.647 339.147 80.4377C341.275 81.081 345.39 83.5737 347.412 84.0717C346.489 84.3127 345.53 84.5592 344.544 84.8128Z" fill="#FECC00"/>
<path fill-rule="evenodd" clip-rule="evenodd" d="M347.415 84.0716C345.392 83.5736 341.277 81.0808 339.149 80.4376C336.52 79.6469 334.11 78.9436 331.679 78.1244C333.033 78.01 334.307 77.8943 335.521 77.7822C338.79 78.9437 344.201 81.764 347.71 82.8667C348.443 83.0979 349.141 83.2689 349.837 83.433C349.064 83.6406 348.253 83.8534 347.415 84.0716H347.415Z" fill="#FECC00"/>
<path fill-rule="evenodd" clip-rule="evenodd" d="M349.839 83.4378C349.143 83.2737 348.445 83.1027 347.712 82.8714C344.203 81.7688 338.792 78.9484 335.523 77.787C336.791 77.6703 337.981 77.5557 339.08 77.4458C343.012 78.6414 348.904 81.6817 352.651 82.6775C351.771 82.9219 350.827 83.1746 349.839 83.4378Z" fill="#FECC00"/>
<path fill-rule="evenodd" clip-rule="evenodd" d="M356.383 81.6302C354.376 81.0886 350.705 79.7511 348.379 78.8943C346.829 78.3256 344.948 77.3661 343.419 76.9587H343.419C343.553 76.9399 343.686 76.9221 343.82 76.9056C344.877 76.7652 345.899 76.6333 346.885 76.5044C350.353 77.4414 356.06 80.0744 359.632 80.6459C358.794 80.9185 357.695 81.2527 356.383 81.6302H356.383Z" fill="#FECC00"/>
<path fill-rule="evenodd" clip-rule="evenodd" d="M359.632 80.6415C356.06 80.07 350.352 77.4369 346.884 76.4999C348.822 76.2437 350.633 76.0116 352.304 75.793C354.833 76.3147 357.277 76.6297 359.759 76.9697C360.335 77.7381 361.696 79.2427 359.892 80.476C359.815 80.5328 359.724 80.5859 359.631 80.6415H359.632Z" fill="#FECC00"/>
<path fill-rule="evenodd" clip-rule="evenodd" d="M352.303 75.7971C354.685 75.4892 356.799 75.2141 358.646 74.978C359.293 75.7333 359.681 76.4215 359.759 76.9738H359.759C357.278 76.6339 354.833 76.3189 352.303 75.7971Z" fill="#FECC00"/>
<path fill-rule="evenodd" clip-rule="evenodd" d="M352.65 82.6817C348.903 81.6859 343.012 78.6456 339.079 77.45C340.765 77.2778 342.23 77.1149 343.42 76.9673H343.42C344.949 77.3747 347.401 78.2517 349.028 78.9584C350.981 79.8105 354.377 81.0971 356.384 81.6388H356.384C355.285 81.9539 354.031 82.3043 352.65 82.6817H352.65Z" fill="#FECC00"/>
<path fill-rule="evenodd" clip-rule="evenodd" d="M341.726 85.5335C337.252 83.9981 330.656 80.475 326.555 78.5621C327.683 78.4699 328.776 78.3803 329.826 78.2896C333.573 79.8684 339.557 83.2414 343.734 84.5196C344.03 84.6058 344.291 84.711 344.545 84.8194C343.628 85.0532 342.692 85.2927 341.726 85.5335H341.726Z" fill="#FECC00"/>
<path fill-rule="evenodd" clip-rule="evenodd" d="M314.835 91.7408C310.345 89.9032 303.919 85.9979 299.691 83.7187C298.077 82.8252 296.535 81.8705 295.09 80.8485C296.154 80.7766 297.218 80.7058 298.283 80.6313C298.319 80.6608 298.361 80.694 298.396 80.7201C299.706 81.6133 301.045 82.3912 302.419 83.2977C303.863 84.2134 305.378 84.8563 306.929 85.6672C309.506 87.0068 314.368 90.0626 316.99 91.2853C316.272 91.4398 315.553 91.5922 314.834 91.7408H314.835Z" fill="#FECC00"/>
<path fill-rule="evenodd" clip-rule="evenodd" d="M309.39 92.8412C309.235 92.7858 309.074 92.7301 308.912 92.677H308.912C305.98 91.6737 301.075 88.8663 298.216 87.732C293.53 85.9123 289.217 83.8006 284.877 81.5194C286.37 81.4224 287.872 81.3246 289.379 81.2266C293.861 83.482 298.251 85.7351 302.943 87.7002H302.943C305.191 88.6347 309.63 91.4497 311.871 92.3455C311.039 92.5164 310.215 92.6805 309.39 92.8412Z" fill="#FECC00"/>
<path fill-rule="evenodd" clip-rule="evenodd" d="M239.509 98.4677C239.086 98.1799 238.676 97.8778 238.269 97.5603C235.218 95.1468 229.615 89.8098 226.832 87.2501C225.522 86.0497 224.536 84.7561 223.732 83.4248C225.211 83.4802 226.685 83.5263 228.157 83.5701C228.897 84.467 229.679 85.3344 230.56 86.1607H230.561C234.105 89.5169 240.319 95.6318 244.822 98.5763C244.885 98.6154 244.941 98.6545 244.997 98.6897C243.159 98.6329 241.333 98.5598 239.508 98.4677H239.509Z" fill="#FECC00"/>
<path fill-rule="evenodd" clip-rule="evenodd" d="M230.246 97.7965C228.386 96.6448 223.806 92.5835 222.149 91.2654C221.537 90.7779 220.741 90.4274 220.021 89.9447C216.808 87.7271 214.061 85.3987 211.489 82.8955C213.089 82.9767 214.702 83.0534 216.315 83.1244H216.315C216.379 83.1929 216.442 83.2638 216.505 83.3355C218.838 85.9356 221.72 88.151 224.504 90.4674C226.116 91.8189 230.625 95.92 232.346 97.2197C232.747 97.5263 233.163 97.8216 233.585 98.1094C232.472 98.022 231.359 97.9171 230.246 97.7965Z" fill="#FECC00"/>
<path fill-rule="evenodd" clip-rule="evenodd" d="M190.146 81.6284C191.09 81.6911 192.056 81.7591 193.042 81.8209C196.656 85.0347 200.716 88.0273 205.224 90.572C203.781 90.1776 202.37 89.7776 201.003 89.3755C198.68 87.9709 196.452 86.5603 194.416 84.8941H194.416C193.93 84.4761 193.211 84.187 192.732 83.7705H192.732C191.858 83.0518 190.984 82.3495 190.146 81.6284Z" fill="#FECC00"/>
<path fill-rule="evenodd" clip-rule="evenodd" d="M178.236 81.2451V81.2426C178.25 81.2344 178.497 81.0774 178.941 80.813C180.702 80.949 182.719 81.0988 184.938 81.2604C186.192 82.7535 187.601 84.1521 189.13 85.4892C182.493 83.1145 178.25 81.2513 178.236 81.2451Z" fill="#FECC00"/>
<path fill-rule="evenodd" clip-rule="evenodd" d="M325.643 79.4055C311.156 81.2017 295.521 82.1908 277.764 83.5964C260.009 84.9986 228.358 85.4507 214.624 85.3374C200.898 85.2217 161.447 82.9393 149.152 81.8416C136.856 80.7461 117.317 78.307 117.317 78.307L129.113 75.7919C129.113 75.7919 132.678 76.5671 145.798 77.8784H145.798C158.917 79.1884 157.121 78.7483 175.434 80.4347C193.739 82.1198 230.174 82.8411 242.71 82.6618C255.245 82.4837 298.395 80.5881 311.833 79.5957H311.833C325.262 78.6053 358.428 75.0552 358.428 75.0552C358.428 75.0552 340.121 77.6092 325.643 79.4055Z" fill="#FEFEFE"/>
<path fill-rule="evenodd" clip-rule="evenodd" d="M130.167 79.0355L134.852 77.1886C134.852 77.1886 135.31 77.0338 136.233 76.8296C138.629 77.126 141.757 77.4777 145.795 77.8812H145.795C158.914 79.1912 157.118 78.7511 175.431 80.4375C193.736 82.1226 230.171 82.8439 242.706 82.6646C255.242 82.4865 298.392 80.591 311.83 79.5985H311.83C318.333 79.1144 329.48 78.0371 339.231 77.0504C326.323 78.4595 307.313 80.3324 299.681 80.9994C287.704 82.0463 273.189 82.8902 258.391 83.3906C240.115 84.0066 227.53 84.0664 214.072 83.9747C198.965 83.8719 171.9 82.2917 158.14 81.2968C148.12 80.5722 130.174 79.0355 130.167 79.0355Z" fill="#FECC00"/>
<path fill-rule="evenodd" clip-rule="evenodd" d="M129.383 75.6387L118.984 77.8518L128.461 79.0826L138.403 80.1388C138.403 80.1388 138.416 79.1796 138.085 78.6945C137.452 77.7572 138.826 76.8874 138.826 76.8874L129.383 75.6387Z" fill="#FECC00"/>
<path fill-rule="evenodd" clip-rule="evenodd" d="M122.602 77.7577C122.285 77.6433 126.498 77.4545 127.485 77.6386H127.485C128.781 77.8746 131.374 78.3185 132.615 78.459H132.615C133.854 78.5992 134.446 78.629 134.531 78.7197C134.615 78.808 134.531 79.0794 134.531 79.0794C134.531 79.0794 122.919 77.8687 122.601 77.7577H122.602Z" fill="#FEFEFE"/>
<path fill-rule="evenodd" clip-rule="evenodd" d="M365.95 37.758C365.683 38.0629 365.295 38.59 364.781 39.3341C364.266 40.0806 363.71 40.9202 363.103 41.8597C362.491 42.7956 361.878 43.7811 361.25 44.8125C360.624 45.8431 360.045 46.8389 359.511 47.7945C358.981 48.7499 358.552 49.5913 358.227 50.3183C357.904 51.0449 357.742 51.5806 357.742 51.9239C357.742 52.461 358.066 52.7255 358.715 52.7255C359.588 52.7251 360.736 52.0673 362.159 50.7475C363.582 49.4286 365.133 47.7944 366.803 45.8431C367.149 45.4227 367.36 45.1655 367.431 45.0699C367.508 44.9737 367.585 44.9277 367.662 44.9277C367.775 44.9277 367.859 44.9653 367.916 45.0414C367.973 45.1175 368 45.1957 368 45.27C368 45.309 367.901 45.4529 367.69 45.7006C367.48 45.9493 367.226 46.2449 366.923 46.5905C366.62 46.9345 366.282 47.3168 365.922 47.7379C365.563 48.1572 365.211 48.5402 364.865 48.8841C363.541 50.2617 362.342 51.3603 361.279 52.1832C360.215 53.004 359.298 53.4145 358.545 53.4145C357.784 53.4145 357.171 53.1473 356.721 52.6115C356.262 52.0766 356.036 51.0254 356.036 49.4567C356.037 49.2671 356.043 49.0842 356.065 48.9126C356.078 48.7403 356.093 48.5776 356.093 48.4251C355.67 48.8448 355.17 49.3452 354.577 49.9161C353.993 50.4898 353.372 51.0341 352.724 51.5536C352.084 52.0673 351.435 52.507 350.787 52.8704C350.147 53.2339 349.554 53.4145 349.025 53.4145C348.3 53.4145 347.701 53.2606 347.229 52.9537C346.75 52.6491 346.383 52.2575 346.117 51.7806C345.848 51.3021 345.671 50.7475 345.573 50.1161C345.481 49.4851 345.432 48.8448 345.432 48.1946C345.432 47.738 345.461 47.2871 345.516 46.849C345.573 46.4093 345.644 45.96 345.72 45.5026C345.644 45.5026 345.587 45.529 345.545 45.5855C345.51 45.6441 345.454 45.6725 345.375 45.6725C345.221 45.6725 345.151 45.577 345.151 45.3851C345.151 45.27 345.206 45.1566 345.319 45.0414C345.432 44.9277 345.678 44.6393 346.06 44.1819C346.82 43.2247 347.672 42.3454 348.623 41.5425C349.575 40.7398 350.555 40.0322 351.562 39.4225C352.57 38.8096 353.591 38.331 354.633 37.9888C355.683 37.6429 356.699 37.4712 357.685 37.4712C358.56 37.4712 359.186 37.748 359.568 38.3026C359.947 38.8572 360.137 39.5164 360.137 40.284C360.137 40.9699 360.08 41.4855 359.969 41.8294L360.08 41.9452C360.575 41.1422 360.961 40.4735 361.25 39.9367C361.532 39.4012 361.773 38.9918 361.962 38.7052C362.152 38.4177 362.329 38.207 362.505 38.0741C362.675 37.9408 362.914 37.8716 363.216 37.8716L365.95 37.758ZM347.715 50.8906C347.715 51.4258 347.82 51.8655 348.025 52.2113C348.237 52.5548 348.568 52.7255 349.025 52.7255C349.857 52.7251 350.866 52.2788 352.041 51.3781C353.225 50.4792 354.36 49.3806 355.466 48.0811C356.566 46.7825 357.509 45.4131 358.283 43.9797C359.067 42.5461 359.455 41.2943 359.455 40.2241C359.455 39.6509 359.313 39.1625 359.024 38.7617C358.742 38.3608 358.291 38.159 357.685 38.159C356.543 38.159 355.381 38.6271 354.183 39.5644C352.986 40.5021 351.908 41.6383 350.963 42.9761C350.013 44.3146 349.23 45.7095 348.623 47.1631C348.018 48.6184 347.715 49.8591 347.715 50.8906H347.715Z" fill="white"/>
<path fill-rule="evenodd" clip-rule="evenodd" d="M343.16 39.6516C343.16 40.5308 342.982 41.4189 342.645 42.3175C342.3 43.2165 341.905 44.0763 341.447 44.8982C340.988 45.7206 340.523 46.4565 340.052 47.1067C339.572 47.7574 339.206 48.2345 338.938 48.5407C339.051 48.5781 339.219 48.5977 339.452 48.5977C340.325 48.5977 341.208 48.3585 342.102 47.8817C342.997 47.4031 343.744 46.8198 344.35 46.1323C344.885 45.558 345.188 45.2157 345.266 45.1005C345.343 44.9838 345.414 44.9283 345.491 44.9283C345.681 44.9283 345.78 45.0224 345.78 45.2157C345.78 45.3287 345.703 45.4723 345.548 45.6447C345.4 45.817 345.167 46.0736 344.864 46.4197C344.032 47.373 343.081 48.0907 342.016 48.5692C340.954 49.046 339.924 49.2853 338.938 49.2853C338.748 49.2853 338.608 49.2767 338.509 49.2567C338.416 49.239 338.346 49.2284 338.311 49.2284C337.965 49.5723 337.514 49.9838 336.944 50.4624C336.373 50.9392 335.747 51.3983 335.062 51.8378C334.379 52.2794 333.64 52.6497 332.837 52.9543C332.041 53.2612 331.244 53.4151 330.447 53.4151C329.229 53.4151 328.362 53.0358 327.855 52.2687C327.341 51.5027 327.08 50.5473 327.08 49.4006C327.08 48.3674 327.368 47.2986 327.939 46.1887C328.509 45.0811 329.123 44.039 329.793 43.064C330.455 42.0893 331.075 41.2559 331.646 40.5704C332.208 39.8805 332.498 39.4409 332.498 39.2498C332.498 39.1737 332.456 39.1357 332.385 39.1357C332.307 39.1357 332.055 39.4018 331.617 39.9373C331.173 40.4741 330.461 41.2754 329.475 42.3459C328.714 43.188 328.13 43.8561 327.706 44.3543C327.291 44.851 326.981 45.2226 326.769 45.4723C326.557 45.7207 326.417 45.8735 326.34 45.9303C326.269 45.9886 326.192 46.0171 326.114 46.0171C325.923 46.0171 325.833 45.942 325.833 45.7869C325.833 45.71 326.079 45.3678 326.572 44.7547C327.065 44.1435 327.643 43.4642 328.305 42.7202C328.975 41.9744 329.637 41.2473 330.306 40.5403C330.969 39.8329 331.455 39.3062 331.757 38.9623C332.363 38.3121 333.068 37.3673 333.865 36.1262C334.661 34.8823 335.528 33.5246 336.459 32.0515C337.389 30.5805 338.368 29.0616 339.397 27.4925C340.418 25.9257 341.475 24.5093 342.561 23.2497C343.638 21.9873 344.744 20.9451 345.865 20.1244C346.984 19.3025 348.077 18.8911 349.141 18.8911C351.002 18.8911 351.931 19.8068 351.931 21.6416C351.931 22.4837 351.656 23.3753 351.108 24.3093C350.557 25.2469 349.818 26.2308 348.88 27.2623C347.95 28.2954 346.879 29.3555 345.66 30.4476C344.449 31.5376 343.195 32.6258 341.905 33.7141C340.609 34.8045 339.326 35.9051 338.058 37.0127C336.782 38.122 335.612 39.2124 334.55 40.2847C334.21 40.8165 333.724 41.6108 333.097 42.6597C332.469 43.7145 331.864 44.8032 331.272 45.9303C330.68 47.0591 330.158 48.1298 329.708 49.1418C329.25 50.1562 329.024 50.8543 329.024 51.2365C329.024 51.6573 329.108 52.0097 329.278 52.2972C329.447 52.584 329.8 52.7261 330.335 52.7261C331.279 52.7257 332.329 52.4616 333.462 51.9245C334.606 51.3893 335.669 50.6055 336.656 49.5726C337.649 48.5408 338.466 47.2787 339.108 45.7869C339.756 44.2955 340.079 42.5769 340.079 40.6252C340.079 39.5567 340.185 38.7818 340.39 38.3032C340.602 37.8247 341.065 37.5848 341.785 37.5848C342.277 37.5848 342.63 37.798 342.842 38.2183C343.053 38.6379 343.16 39.1169 343.16 39.6516H343.16ZM335.401 38.5033L335.521 38.6187L342.532 32.5406C343.285 31.8898 344.145 31.1263 345.097 30.2468C346.04 29.366 346.928 28.4196 347.745 27.4076C348.563 26.3935 349.254 25.3514 349.824 24.2823C350.395 23.21 350.676 22.18 350.676 21.1842C350.676 20.8015 350.557 20.4364 350.311 20.0942C350.065 19.7501 349.747 19.5786 349.367 19.5786C348.19 19.5786 347.064 20.0784 345.976 21.0691C344.892 22.0634 343.877 23.2778 342.926 24.7118C341.975 26.1451 341.094 27.6649 340.277 29.2705C339.461 30.8765 338.727 32.2906 338.085 33.514L335.401 38.5033Z" fill="white"/>
<path fill-rule="evenodd" clip-rule="evenodd" d="M323.037 41.429C323.037 42.0022 322.944 42.624 322.753 43.2919C322.564 43.9617 322.303 44.6108 321.986 45.2398C321.661 45.8729 321.296 46.486 320.9 47.078C320.499 47.6697 320.091 48.1775 319.675 48.5971C319.822 48.6732 320.034 48.7102 320.3 48.7102C321.289 48.7102 322.241 48.4536 323.15 47.938C324.064 47.4238 324.881 46.7428 325.601 45.9013C325.982 45.4813 326.221 45.2151 326.312 45.0999C326.41 44.9832 326.496 44.9277 326.573 44.9277C326.763 44.9277 326.855 45.0218 326.855 45.2151C326.855 45.2898 326.777 45.4228 326.629 45.6139C326.474 45.8052 326.08 46.2449 325.432 46.9345C324.705 47.6981 323.859 48.3007 322.895 48.7402C321.922 49.1797 320.887 49.4 319.788 49.4C319.407 49.4 319.16 49.3806 319.047 49.3453C318.174 50.336 317.138 51.2665 315.941 52.1246C314.742 52.9838 313.346 53.4145 311.755 53.4145C310.613 53.4145 309.739 52.9537 309.127 52.039C308.521 51.1209 308.218 49.8788 308.218 48.3121C308.218 47.2781 308.267 46.5711 308.359 46.1881C308.457 45.8051 308.499 45.5183 308.499 45.3281C308.499 45.1 308.442 44.9833 308.331 44.9833C308.105 44.9833 307.894 45.137 307.704 45.4433C307.513 45.7485 307.379 45.9013 307.309 45.9013C307.077 45.9013 306.964 45.8052 306.964 45.6139C306.964 45.538 307.07 45.3671 307.281 45.0999C307.485 44.8304 307.761 44.5259 308.105 44.1819C308.442 43.8366 308.81 43.4748 309.19 43.0918C309.57 42.7089 309.931 42.3453 310.268 42.0021C311.945 40.3936 313.594 39.2419 315.228 38.5308C316.863 37.8241 318.321 37.4712 319.618 37.4712C320.718 37.4712 321.563 37.8435 322.154 38.59C322.74 39.334 323.037 40.2841 323.037 41.429ZM321.782 40.7398C321.782 40.0522 321.634 39.4492 321.331 38.9333C321.02 38.4178 320.514 38.159 319.788 38.159C318.801 38.159 317.758 38.5787 316.652 39.4225C315.553 40.2612 314.544 41.3139 313.63 42.5763C312.721 43.8367 311.974 45.1957 311.382 46.6472C310.79 48.099 310.501 49.4179 310.501 50.6048C310.501 51.4066 310.641 51.9611 310.924 52.2681C311.212 52.5727 311.565 52.7255 311.981 52.7255C313.122 52.7251 314.27 52.3442 315.427 51.5806C316.59 50.8146 317.632 49.8485 318.562 48.6838C319.492 47.5177 320.259 46.2289 320.873 44.8125C321.479 43.3998 321.782 42.0402 321.782 40.7398Z" fill="white"/>
<path fill-rule="evenodd" clip-rule="evenodd" d="M291.573 39.5342L291.46 39.4225C290.889 39.8799 290.184 40.5201 289.353 41.3441C288.515 42.1649 287.415 43.359 286.042 44.9277C285.739 45.2699 285.485 45.568 285.273 45.8164C285.069 46.064 284.922 46.1881 284.852 46.1881C284.696 46.1881 284.617 46.0729 284.617 45.8431C284.617 45.6899 284.774 45.4618 285.076 45.1566C285.379 44.8504 285.929 44.2384 286.732 43.3203C287.832 42.0987 288.866 41.0378 289.832 40.1387C290.805 39.2419 291.552 38.4265 292.087 37.7013L295.673 37.4712L286.499 53.1845L282.624 53.4145L291.573 39.5342Z" fill="white"/>
<path fill-rule="evenodd" clip-rule="evenodd" d="M304.74 40.7979C304.129 40.7979 303.739 40.617 303.571 40.2522C303.395 39.8887 303.296 39.3838 303.254 38.7316C302.613 38.8483 302.127 39.0893 301.802 39.4493C301.478 39.8162 301.09 40.3778 300.632 41.1421C300.14 41.9038 299.449 42.5655 298.555 43.1202C297.66 43.6748 296.758 44.0474 295.849 44.2385V44.3537C296.229 44.4296 296.596 44.5914 296.955 44.8411C297.323 45.0895 297.645 45.385 297.926 45.7307C298.21 46.0729 298.442 46.4365 298.611 46.8192C298.779 47.2005 298.864 47.546 298.864 47.8509C298.864 48.1572 298.801 48.5208 298.667 48.9411C298.533 49.3629 298.393 49.7726 298.238 50.175C298.089 50.5748 297.948 50.9296 297.815 51.2359C297.68 51.5412 297.611 51.7522 297.611 51.8655C297.611 52.0945 297.702 52.2965 297.871 52.4699C298.04 52.6415 298.238 52.7255 298.47 52.7255C298.927 52.7251 299.422 52.5641 299.949 52.2398C300.485 51.9133 301.02 51.5413 301.577 51.121C302.127 50.7012 302.628 50.2617 303.085 49.8009C303.543 49.3452 303.902 48.9605 304.171 48.6536C304.966 47.8139 305.572 47.1541 305.995 46.6756C306.411 46.1987 306.722 45.8263 306.932 45.5574C307.144 45.2898 307.278 45.1179 307.333 45.0414C307.39 44.9653 307.453 44.9277 307.531 44.9277C307.757 44.9277 307.87 45.0218 307.87 45.2151C307.87 45.2522 307.785 45.3852 307.615 45.6139C307.446 45.8432 307.214 46.1227 306.932 46.4453C306.65 46.7718 306.333 47.1364 305.995 47.5354C305.649 47.9376 305.305 48.312 304.966 48.6536C304.473 49.1894 303.93 49.7442 303.338 50.3183C302.754 50.8907 302.155 51.4066 301.549 51.8655C300.937 52.3246 300.351 52.697 299.78 52.9839C299.209 53.2713 298.695 53.4145 298.238 53.4145C297.709 53.4145 297.251 53.2713 296.871 52.9839C296.49 52.697 296.179 52.3336 295.933 51.8936C295.687 51.4559 295.504 50.9862 295.391 50.4901C295.277 49.992 295.221 49.5348 295.221 49.1126C295.222 48.6931 295.277 48.312 295.391 47.9661C295.504 47.6222 295.637 47.3062 295.792 47.0212C295.94 46.7341 296.073 46.4649 296.187 46.2166C296.3 45.9685 296.364 45.7308 296.364 45.5026C296.364 45.27 296.243 45.061 296.018 44.8692C295.792 44.678 295.56 44.5824 295.333 44.5824C295.031 44.5824 294.715 44.717 294.39 44.9833C294.072 45.2522 293.643 45.3851 293.108 45.3851C292.544 45.3851 292.255 45.1566 292.255 44.6975C292.255 44.5062 292.382 44.3073 292.629 44.0949C292.875 43.8838 293.419 43.7811 294.249 43.7811C294.405 43.7811 294.545 43.799 294.679 43.8367C294.813 43.8749 295.031 43.8948 295.333 43.8948C295.56 43.8948 295.876 43.799 296.271 43.6078C296.673 43.4146 297.11 43.1505 297.582 42.8044C298.061 42.4613 298.533 42.0562 299.013 41.5995C299.484 41.1422 299.927 40.6441 300.351 40.1089C301.183 39.0361 301.873 38.331 302.401 37.9888C302.929 37.6429 303.522 37.4712 304.171 37.4712C304.812 37.4712 305.339 37.6346 305.733 37.9587C306.136 38.2848 306.333 38.7137 306.333 39.2492C306.333 39.7473 306.172 40.1282 305.847 40.3937C305.529 40.6654 305.157 40.7983 304.74 40.7983V40.7979Z" fill="white"/>
<path fill-rule="evenodd" clip-rule="evenodd" d="M283.656 37.758C283.388 38.0629 283.001 38.59 282.486 39.3341C281.971 40.0806 281.414 40.9202 280.802 41.8597C280.196 42.7956 279.576 43.7811 278.95 44.8125C278.322 45.8431 277.744 46.8389 277.215 47.7945C276.68 48.7499 276.251 49.5913 275.933 50.3183C275.609 51.0449 275.447 51.5806 275.447 51.9239C275.448 52.461 275.771 52.7255 276.412 52.7255C277.294 52.7251 278.442 52.0673 279.865 50.7475C281.288 49.4286 282.839 47.7944 284.508 45.8431C284.854 45.4227 285.059 45.1655 285.135 45.0699C285.214 44.9737 285.29 44.9277 285.361 44.9277C285.48 44.9277 285.565 44.9653 285.622 45.0414C285.677 45.1175 285.706 45.1957 285.706 45.27C285.706 45.309 285.6 45.4529 285.389 45.7006C285.184 45.9493 284.924 46.2449 284.62 46.5905C284.317 46.9345 283.987 47.3168 283.627 47.7379C283.262 48.1572 282.916 48.5402 282.57 48.8841C281.239 50.2617 280.042 51.3603 278.978 52.1832C277.912 53.004 277.004 53.4145 276.244 53.4145C275.482 53.4145 274.876 53.1473 274.418 52.6115C273.967 52.0766 273.735 51.0254 273.735 49.4567C273.735 49.2671 273.749 49.0842 273.763 48.9126C273.784 48.7403 273.791 48.5776 273.791 48.4251C273.376 48.8448 272.875 49.3452 272.283 49.9161C271.692 50.4898 271.078 51.0341 270.429 51.5536C269.782 52.0673 269.141 52.507 268.492 52.8704C267.845 53.2339 267.259 53.4145 266.724 53.4145C266.005 53.4145 265.405 53.2606 264.935 52.9537C264.454 52.6491 264.089 52.2575 263.821 51.7806C263.552 51.3021 263.369 50.7475 263.278 50.1161C263.18 49.4851 263.138 48.8448 263.138 48.1946C263.138 47.738 263.165 47.2871 263.222 46.849C263.278 46.4093 263.342 45.96 263.419 45.5026C263.342 45.5026 263.285 45.529 263.249 45.5855C263.208 45.6441 263.151 45.6725 263.081 45.6725C262.927 45.6725 262.848 45.577 262.848 45.3851C262.848 45.27 262.905 45.1566 263.025 45.0414C263.138 44.9277 263.384 44.6393 263.765 44.1819C264.525 43.2247 265.378 42.3454 266.329 41.5425C267.273 40.7398 268.252 40.0322 269.26 39.4225C270.267 38.8096 271.298 38.331 272.339 37.9888C273.383 37.6429 274.405 37.4712 275.391 37.4712C276.265 37.4712 276.891 37.748 277.272 38.3026C277.653 38.8572 277.843 39.5164 277.843 40.284C277.843 40.9699 277.786 41.4855 277.666 41.8294L277.786 41.9452C278.28 41.1422 278.667 40.4735 278.95 39.9367C279.238 39.4012 279.477 38.9918 279.661 38.7052C279.852 38.4177 280.033 38.207 280.204 38.0741C280.379 37.9408 280.611 37.8716 280.915 37.8716L283.656 37.758ZM265.413 50.8906C265.413 51.4258 265.518 51.8655 265.731 52.2113C265.935 52.5548 266.273 52.7255 266.724 52.7255C267.563 52.7251 268.57 52.2788 269.747 51.3781C270.923 50.4792 272.064 49.3806 273.163 48.0811C274.27 46.7825 275.206 45.4131 275.989 43.9797C276.764 42.5461 277.159 41.2943 277.159 40.2241C277.159 39.6509 277.01 39.1625 276.729 38.7617C276.441 38.3608 275.997 38.159 275.391 38.159C274.249 38.159 273.079 38.6271 271.881 39.5644C270.691 40.5021 269.612 41.6383 268.661 42.9761C267.71 44.3146 266.935 45.7095 266.329 47.1631C265.717 48.6184 265.413 49.8591 265.413 50.8906Z" fill="white"/>
<path fill-rule="evenodd" clip-rule="evenodd" d="M262.903 44.9277C263.094 44.9277 263.192 45.0218 263.192 45.2151C263.192 45.2522 263.079 45.4132 262.846 45.7006C262.621 45.9881 262.332 46.3227 261.994 46.704C261.648 47.087 261.283 47.4891 260.88 47.9094C260.486 48.3308 260.134 48.7101 259.825 49.0578C258.344 50.6227 257.133 51.7416 256.182 52.4114C255.231 53.081 254.321 53.4145 253.447 53.4145C252.002 53.4145 251.036 53.0907 250.566 52.4398C250.093 51.7896 249.853 51.0448 249.853 50.2031C249.853 49.5523 250.023 48.9322 250.369 48.3402C250.706 47.7462 251.164 47.124 251.734 46.4755C252.037 46.1316 252.468 45.7201 253.017 45.2398C253.567 44.7647 254.131 44.286 254.693 43.8096C255.265 43.331 255.793 42.9089 256.266 42.5461C256.738 42.1843 257.055 41.9452 257.21 41.8294L259.26 40.1672L259.147 40.0521C258.956 40.1671 258.668 40.3197 258.288 40.5108C257.907 40.7023 257.471 40.8833 256.977 41.0566C256.485 41.2289 255.969 41.381 255.441 41.5139C254.905 41.6473 254.391 41.7147 253.897 41.7147C253.181 41.7147 252.581 41.6102 252.102 41.3989C251.63 41.1916 251.263 40.9874 250.995 40.7983C250.234 41.4472 249.481 42.1933 248.74 43.0333C248 43.875 247.401 44.5629 246.943 45.0999C246.761 45.2898 246.634 45.4228 246.578 45.5026C246.522 45.577 246.435 45.6139 246.316 45.6139C246.204 45.6139 246.147 45.4812 246.147 45.2151C246.147 45.1744 246.316 44.9654 246.662 44.5824C247.007 44.1995 247.401 43.7509 247.86 43.2353C248.317 42.7195 248.789 42.2018 249.282 41.6863C249.777 41.1702 250.192 40.7788 250.537 40.5108C250.234 40.284 250.05 39.9966 249.994 39.651C249.938 39.3057 249.91 39.0768 249.91 38.9617C249.91 38.4265 250.072 38.0472 250.396 37.8151C250.721 37.5842 251.129 37.4712 251.623 37.4712C252.037 37.4712 252.37 37.5842 252.616 37.8151C252.862 38.0472 252.988 38.3115 252.988 38.6181C252.988 39.0361 252.862 39.334 252.616 39.5074C252.37 39.679 252.249 39.9367 252.249 40.284C252.25 40.5108 252.454 40.6918 252.877 40.8247C253.292 40.9593 253.764 41.0263 254.3 41.0263C254.603 41.0263 255.018 40.9593 255.554 40.8247C256.083 40.6918 256.625 40.5397 257.175 40.3674C257.731 40.1957 258.232 40.0055 258.689 39.7914C259.147 39.5841 259.464 39.3838 259.654 39.1924C259.923 38.9618 260.31 38.6181 260.824 38.159C261.339 37.7013 261.748 37.4712 262.05 37.4712C262.353 37.4712 262.508 37.7013 262.508 38.159C262.508 38.4652 262.402 38.7226 262.192 38.9333C261.988 39.1447 261.72 39.3448 261.394 39.5342C261.071 39.726 260.746 39.91 260.43 40.0806C260.106 40.2523 259.824 40.4152 259.597 40.5697C259.331 40.7592 258.992 41.0378 258.577 41.3989C258.154 41.7622 257.794 42.1151 257.491 42.4612C256.35 43.7599 255.477 44.8976 254.87 45.8729C254.265 46.8489 253.813 47.6807 253.532 48.3668C253.243 49.0578 253.081 49.609 253.045 50.0308C253.01 50.4528 252.988 50.758 252.988 50.9492C252.988 51.4452 253.052 51.8655 253.185 52.2113C253.321 52.5548 253.595 52.7255 254.018 52.7255C254.391 52.7251 255.034 52.4202 255.927 51.8087C256.815 51.1976 257.929 50.1839 259.26 48.7704C260.091 47.89 260.746 47.1915 261.226 46.6756C261.697 46.1597 262.05 45.7771 262.276 45.529C262.508 45.2806 262.648 45.1179 262.705 45.0414C262.761 44.9653 262.833 44.9277 262.903 44.9277Z" fill="white"/>
<path fill-rule="evenodd" clip-rule="evenodd" d="M239.996 27.377L227.856 48.0796L227.968 48.1931C228.498 47.5833 229.271 46.6741 230.273 45.4702C231.28 44.2653 232.366 43.0708 233.52 41.8865C234.683 40.7008 235.86 39.6676 237.059 38.7885C238.257 37.9091 239.313 37.4696 240.222 37.4696C240.983 37.4696 241.525 37.7659 241.842 38.3592C242.167 38.9529 242.328 39.6494 242.328 40.4507C242.328 41.3687 242.019 42.3349 241.391 43.3468C240.765 44.3613 240.06 45.3835 239.277 46.4175C238.503 47.449 237.798 48.4431 237.172 49.3984C236.544 50.3574 236.234 51.196 236.234 51.9223C236.234 52.4594 236.537 52.724 237.143 52.724C237.446 52.7235 237.798 52.6578 238.2 52.5232C238.594 52.3903 239.067 52.1418 239.594 51.7791C240.124 51.4155 240.737 50.9086 241.42 50.2601C242.103 49.6075 242.878 48.787 243.752 47.7929C244.323 47.1436 244.775 46.626 245.097 46.2433C245.415 45.8628 245.662 45.5665 245.838 45.3551C246.007 45.1444 246.12 45.0118 246.176 44.9532C246.231 44.8961 246.302 44.8677 246.379 44.8677C246.57 44.8677 246.662 44.9638 246.662 45.1551C246.662 45.231 246.641 45.2985 246.606 45.3551C246.57 45.4116 246.493 45.5077 246.379 45.6425C246.26 45.7754 246.091 45.9669 245.866 46.215C245.633 46.4634 245.316 46.8374 244.893 47.3332C242.956 49.6657 241.364 51.2649 240.11 52.123C238.856 52.9822 237.806 53.4129 236.974 53.4129C236.1 53.4129 235.472 53.0798 235.093 52.4098C234.712 51.74 234.521 50.8521 234.521 49.7425C234.521 48.5954 234.838 47.4966 235.466 46.4438C236.086 45.3948 236.79 44.4092 237.572 43.4921C238.348 42.5747 239.052 41.7237 239.678 40.9399C240.306 40.1551 240.624 39.4781 240.624 38.9037C240.624 38.4072 240.376 38.1574 239.876 38.1574C239.348 38.1574 238.453 38.5974 237.199 39.4781C235.944 40.3552 234.466 41.6953 232.753 43.4921C231.048 45.2883 229.18 47.5445 227.172 50.2601C225.158 52.9733 223.107 56.1658 221.014 59.8352L220.373 60.9715L216.914 61.164L232.013 36.4946L231.901 36.3794C231.14 37.2605 230.322 38.2425 229.449 39.3325C228.575 40.4224 227.736 41.4457 226.94 42.4004C226.144 43.3575 225.466 44.1608 224.917 44.811C224.369 45.4602 224.072 45.7847 224.037 45.7847C223.805 45.7847 223.692 45.6884 223.692 45.501C223.693 45.4212 223.72 45.3468 223.776 45.2684C223.833 45.1942 223.966 45.0331 224.178 44.7808C224.389 44.5349 224.72 44.152 225.171 43.6343C225.63 43.1187 226.257 42.3633 227.053 41.3687C227.926 40.2596 228.702 39.3041 229.365 38.5011C230.026 37.6998 230.618 36.9732 231.133 36.323C231.647 35.6722 232.112 35.0695 232.527 34.5165C232.943 33.9619 233.373 33.3682 233.81 32.7385C234.247 32.108 234.719 31.409 235.233 30.6455C235.747 29.8794 236.347 28.9637 237.03 27.8908L239.996 27.377Z" fill="white"/>
<path fill-rule="evenodd" clip-rule="evenodd" d="M220.666 41.429C220.666 42.0022 220.575 42.624 220.384 43.2919C220.194 43.9617 219.94 44.6108 219.615 45.2398C219.292 45.8729 218.933 46.486 218.53 47.078C218.137 47.6697 217.721 48.1775 217.304 48.5971C217.459 48.6732 217.663 48.7102 217.932 48.7102C218.918 48.7102 219.87 48.4536 220.786 47.938C221.696 47.4238 222.512 46.7428 223.23 45.9013C223.611 45.4813 223.851 45.2151 223.95 45.0999C224.041 44.9832 224.125 44.9277 224.203 44.9277C224.394 44.9277 224.485 45.0218 224.485 45.2151C224.486 45.2898 224.413 45.4228 224.258 45.6139C224.111 45.8052 223.709 46.2449 223.061 46.9345C222.343 47.6981 221.497 48.3007 220.524 48.7402C219.559 49.1797 218.523 49.4 217.417 49.4C217.045 49.4 216.79 49.3806 216.677 49.3453C215.803 50.336 214.768 51.2665 213.57 52.1246C212.38 52.9838 210.977 53.4145 209.385 53.4145C208.243 53.4145 207.37 52.9537 206.764 52.039C206.15 51.1209 205.847 49.8788 205.847 48.3121C205.847 47.2781 205.897 46.5711 205.989 46.1881C206.088 45.8051 206.137 45.5183 206.137 45.3281C206.137 45.1 206.08 44.9833 205.967 44.9833C205.735 44.9833 205.524 45.137 205.34 45.4433C205.149 45.7485 205.016 45.9013 204.939 45.9013C204.706 45.9013 204.593 45.8052 204.593 45.6139C204.594 45.538 204.699 45.3671 204.911 45.0999C205.122 44.8304 205.397 44.5259 205.735 44.1819C206.08 43.8366 206.44 43.4748 206.82 43.0918C207.2 42.7089 207.56 42.3453 207.905 42.0021C209.576 40.3936 211.224 39.2419 212.858 38.5308C214.494 37.8241 215.959 37.4712 217.249 37.4712C218.354 37.4712 219.194 37.8435 219.786 38.59C220.377 39.334 220.666 40.2841 220.666 41.429ZM219.418 40.7398C219.418 40.0522 219.263 39.4492 218.961 38.9333C218.656 38.4178 218.144 38.159 217.417 38.159C216.431 38.159 215.388 38.5787 214.29 39.4225C213.183 40.2612 212.175 41.3139 211.266 42.5763C210.35 43.8367 209.603 45.1957 209.011 46.6472C208.427 48.099 208.132 49.4179 208.132 50.6048C208.132 51.4066 208.272 51.9611 208.56 52.2681C208.843 52.5727 209.194 52.7255 209.61 52.7255C210.751 52.7251 211.9 52.3442 213.063 51.5806C214.219 50.8146 215.261 49.8485 216.192 48.6838C217.129 47.5177 217.897 46.2289 218.501 44.8125C219.108 43.3998 219.418 42.0402 219.418 40.7398Z" fill="white"/>
<path fill-rule="evenodd" clip-rule="evenodd" d="M222.52 5.45103C224.973 5.45103 227.023 5.36915 228.665 5.20814C230.314 5.04667 231.695 4.86934 232.816 4.67437C233.928 4.48157 234.844 4.30239 235.556 4.14277C236.269 3.98007 236.945 3.89844 237.585 3.89844C237.762 3.89844 237.867 4.05942 237.911 4.38421C237.931 4.57717 237.698 4.99743 237.22 5.64423C236.74 6.29056 235.986 6.96998 234.958 7.68223C233.928 8.39339 232.575 9.04018 230.884 9.62122C229.202 10.205 227.193 10.4972 224.854 10.4972C223.099 10.4972 221.562 10.4318 220.231 10.3022C218.9 10.173 217.609 10.0115 216.362 9.81683C215.109 9.62125 213.833 9.42839 212.523 9.23373C211.219 9.04016 209.69 8.84657 207.943 8.6516C206.194 8.4588 204.18 8.29783 201.884 8.16631C199.593 8.0368 196.867 7.97299 193.709 7.97299C189.735 7.97299 186.184 8.47487 183.063 9.47794C179.934 10.481 177.313 11.8035 175.192 13.4554C173.078 15.1059 171.493 16.9637 170.451 19.0353C169.401 21.1038 169.005 23.2398 169.26 25.4393C169.548 27.9618 170.569 29.95 172.317 31.4057C174.064 32.8609 176.22 33.5872 178.793 33.5872C181.534 33.5872 183.999 33.1337 186.17 32.2299C188.347 31.3238 190.292 30.193 192.005 28.8333C193.717 27.4763 195.196 26.0187 196.45 24.4679C197.698 22.9153 198.748 21.46 199.587 20.1023C200.418 18.7427 201.031 17.6121 201.426 16.7063C201.82 15.8003 202.044 15.3466 202.101 15.3466C202.453 15.3466 202.644 15.5102 202.68 15.8322C202.708 16.0278 202.532 16.6726 202.165 17.7732C201.791 18.8752 201.228 20.198 200.473 21.7506C199.72 23.3038 198.769 24.9358 197.621 26.6517C196.479 28.3653 195.139 29.95 193.61 31.4057C192.089 32.8609 190.341 34.0731 188.382 35.0442C186.418 36.0141 184.268 36.4996 181.928 36.4996C177.898 36.4996 174.642 35.4804 172.156 33.442C169.667 31.4058 168.252 28.8672 167.899 25.8258C167.659 23.7573 168.02 21.5258 168.971 19.1308C169.922 16.738 171.684 14.5221 174.248 12.4858C176.82 10.4458 180.35 8.76571 184.838 7.4397C189.334 6.11385 194.999 5.45103 201.834 5.45103H222.52ZM219.223 11.8566C219.455 11.8566 219.589 11.9843 219.617 12.2416C219.66 12.567 219.442 12.8566 218.977 13.1171C218.511 13.3738 217.935 13.7144 217.257 14.1343C216.574 14.5563 215.848 15.0881 215.074 15.7349C214.299 16.3817 213.594 17.2236 212.953 18.2569C211.677 20.3272 210.17 23.3353 208.429 27.2845C206.695 31.2282 204.75 36.2406 202.588 42.3203C200.862 47.1078 198.698 51.4098 196.105 55.2254C193.505 59.0422 190.476 62.2747 187.016 64.9265C183.549 67.5784 179.695 69.6169 175.446 71.0403C171.205 72.4637 166.596 73.1766 161.629 73.1766C158.296 73.1766 155.118 72.722 152.095 71.817C149.066 70.9105 146.374 69.6015 144.013 67.8868C141.653 66.173 139.701 64.0865 138.165 61.6302C136.623 59.1695 135.671 56.3574 135.305 53.1878C134.952 50.1482 135.276 47.2848 136.284 44.5997C137.292 41.9159 138.771 39.5711 140.73 37.567C142.688 35.5602 145.007 33.9758 147.677 32.8131C150.347 31.6483 153.201 31.067 156.238 31.067C158.163 31.067 160.171 31.3413 162.249 31.8898C164.327 32.442 166.272 33.3127 168.076 34.5108C169.873 35.704 171.424 37.2264 172.719 39.0695C174.016 40.9128 174.806 43.0969 175.094 45.6189C175.404 48.2729 175.121 50.6154 174.248 52.6544C173.367 54.6906 172.107 56.421 170.464 57.8455C168.816 59.2686 166.921 60.3357 164.785 61.0463C162.644 61.7577 160.466 62.1143 158.246 62.1143C156.845 62.1143 155.471 61.9527 154.117 61.6302C152.765 61.3059 151.553 60.9328 150.482 60.5138C149.41 60.0913 148.559 59.6879 147.932 59.2995C147.304 58.9124 146.972 58.6207 146.952 58.4271C146.91 58.039 146.972 57.8455 147.149 57.8455C147.382 57.8455 147.783 58.0073 148.346 58.3293C148.911 58.6541 149.65 59.0078 150.573 59.3964C151.489 59.7844 152.595 60.1407 153.893 60.4631C155.189 60.7875 156.71 60.9497 158.465 60.9497C160.453 60.9492 162.411 60.6271 164.356 59.9791C166.294 59.3346 168.012 58.3788 169.499 57.1172C170.992 55.8568 172.142 54.2707 172.938 52.3632C173.74 50.4544 174.002 48.273 173.72 45.8139C173.319 42.3857 171.788 39.6194 169.118 37.5149C166.456 35.4149 162.72 34.3658 157.929 34.3658C155.189 34.3655 152.519 34.8831 149.919 35.9182C147.318 36.9513 145.021 38.3908 143.012 40.2343C141.005 42.077 139.455 44.2452 138.37 46.7354C137.284 49.2263 136.918 51.9591 137.257 54.9332C137.552 57.456 138.37 59.7691 139.73 61.8688C141.082 63.9732 142.837 65.7684 144.993 67.2565C147.149 68.7446 149.65 69.9074 152.497 70.7476C155.336 71.5914 158.394 72.0091 161.671 72.0091C167.159 72.0091 171.796 71.1535 175.573 69.4401C179.343 67.7261 182.563 65.4768 185.219 62.6951C187.883 59.9143 190.137 56.7137 191.997 53.0881C193.858 49.4654 195.619 45.7324 197.282 41.8842C198.937 38.0349 200.657 34.2341 202.447 30.4842C204.237 26.7316 206.406 23.3038 208.971 20.198C210.048 18.9044 211.142 17.7413 212.249 16.7063C213.354 15.6711 214.397 14.7973 215.362 14.0868C216.335 13.3739 217.159 12.8246 217.85 12.4362C218.533 12.05 218.991 11.8566 219.223 11.8566Z" fill="white"/>
<path fill-rule="evenodd" clip-rule="evenodd" d="M123.335 38.8539C122.194 38.8539 121.01 39.3113 119.777 40.2298C118.537 41.1478 117.409 42.275 116.381 43.6133C115.36 44.9512 114.514 46.3568 113.844 47.8285C113.181 49.2995 112.85 50.5725 112.85 51.6431C112.851 52.1392 112.97 52.5605 113.217 52.9066C113.464 53.2488 113.837 53.4205 114.33 53.4205C115.014 53.4205 115.768 53.1813 116.585 52.7026C117.403 52.2258 118.205 51.6146 119.002 50.8681C119.805 50.1234 120.567 49.292 121.285 48.3745C122.01 47.4561 122.645 46.538 123.195 45.6199C123.744 44.7035 124.195 43.833 124.533 43.0108C124.879 42.1882 125.048 41.5113 125.048 40.9755C125.048 40.3253 124.935 39.8094 124.702 39.4267C124.476 39.0438 124.018 38.8539 123.335 38.8539H123.335ZM131.714 38.395L122.137 54.3368L122.25 54.4519C123.054 54.1103 123.871 53.6612 124.702 53.1046C125.54 52.55 126.358 51.9299 127.154 51.2416C127.951 50.5523 128.725 49.826 129.465 49.0634C130.205 48.2964 130.881 47.5517 131.488 46.8248C131.945 46.2876 132.228 45.9473 132.341 45.7939C132.453 45.6391 132.572 45.5631 132.685 45.5631C132.833 45.5631 132.911 45.6607 132.911 45.8505C132.911 46.003 132.778 46.2317 132.509 46.538C132.249 46.8446 131.699 47.4561 130.859 48.3745C129.339 50.0932 127.746 51.5739 126.07 52.8178C124.399 54.0608 122.976 54.8913 121.799 55.3117C121.454 56.0386 120.968 56.9568 120.348 58.066C119.72 59.1746 118.995 60.3477 118.177 61.594C117.36 62.8345 116.466 64.0677 115.5 65.2914C114.528 66.5153 113.556 67.6237 112.562 68.6185C111.575 69.6123 110.589 70.4242 109.603 71.057C108.616 71.686 107.679 71.9997 106.805 71.9997C105.974 71.9997 105.29 71.7627 104.755 71.2857C104.226 70.8066 103.958 70.0704 103.958 69.0766C103.958 67.9283 104.304 66.8398 104.988 65.8086C105.671 64.7758 106.657 63.7241 107.947 62.6539C109.243 61.5833 110.815 60.4834 112.682 59.3563C114.542 58.2282 116.67 56.9757 119.065 55.5986C119.481 54.6438 119.981 53.5519 120.572 52.3323C121.159 51.1069 121.99 49.4609 123.054 47.4014L122.941 47.2838C122.518 47.8569 121.99 48.5356 121.341 49.3204C120.694 50.1029 119.981 50.8486 119.206 51.5561C118.424 52.2631 117.621 52.8657 116.782 53.3617C115.944 53.8599 115.127 54.1103 114.33 54.1103C112.999 54.1103 112.083 53.6492 111.568 52.7312C111.054 51.8148 110.801 50.6109 110.801 49.1187C110.801 48.3921 110.864 47.8178 110.997 47.4014C111.132 46.9775 111.195 46.5576 111.195 46.1354C111.195 46.0221 111.118 45.9639 110.969 45.9639C110.779 45.9639 110.645 46.0311 110.568 46.1657C110.49 46.2983 110.42 46.366 110.342 46.366C110.188 46.366 110.117 46.2505 110.117 46.0221C110.117 45.9474 110.216 45.7827 110.427 45.5329C110.639 45.2862 111.138 44.7226 111.935 43.8422C112.583 43.1544 113.351 42.4757 114.246 41.807C115.141 41.1374 116.078 40.5343 117.064 40.0013C118.058 39.4655 119.044 39.0242 120.031 38.6824C121.017 38.3402 121.934 38.165 122.765 38.165C123.681 38.165 124.399 38.3754 124.935 38.7958C125.463 39.2158 125.731 39.9246 125.731 40.919C125.731 41.7591 125.653 42.4274 125.505 42.9252L125.618 43.0393C125.999 42.4274 126.393 41.7471 126.816 41.0039C127.231 40.2579 127.634 39.4816 128.007 38.6824L131.714 38.395ZM105.439 69.1345C105.439 69.7847 105.523 70.3088 105.699 70.7111C105.868 71.1135 106.333 71.3143 107.094 71.3143C107.813 71.3143 108.566 71.0261 109.342 70.4526C110.124 69.8803 110.913 69.1438 111.709 68.2458C112.505 67.3475 113.274 66.3335 114.021 65.2054C114.76 64.0784 115.443 62.9687 116.071 61.8806C116.698 60.7901 117.226 59.7679 117.663 58.8109C118.1 57.855 118.417 57.0914 118.607 56.5166C117.656 57.0914 116.438 57.8183 114.957 58.6977C113.478 59.5758 112.033 60.5697 110.625 61.6789C109.222 62.7882 108.003 63.9722 106.981 65.2338C105.952 66.4966 105.439 67.796 105.439 69.1345H105.439Z" fill="white"/>
<path fill-rule="evenodd" clip-rule="evenodd" d="M108.804 38.165C108.536 38.6241 108.148 39.2352 107.634 40.0013C107.12 40.7648 106.542 41.6052 105.893 42.5234C105.246 43.4411 104.59 44.3972 103.928 45.3907C103.259 46.3869 102.653 47.3321 102.102 48.2311C101.554 49.1292 101.095 49.9518 100.736 50.6976C100.377 51.4407 100.193 52.026 100.193 52.4437C100.193 53.0946 100.517 53.4205 101.166 53.4205C101.582 53.4205 102.244 53.1141 103.16 52.5022C104.068 51.8908 105.189 50.8788 106.521 49.461C107.36 48.5832 108.015 47.885 108.487 47.3705C108.959 46.8549 109.311 46.4708 109.544 46.2222C109.769 45.9744 109.91 45.8128 109.966 45.7353C110.022 45.6607 110.093 45.6199 110.171 45.6199C110.361 45.6199 110.453 45.7155 110.453 45.9073C110.453 45.9474 110.34 46.1092 110.114 46.3945C109.882 46.6813 109.6 47.0165 109.255 47.4014C108.917 47.7802 108.543 48.1831 108.148 48.6027C107.747 49.0227 107.394 49.4056 107.092 49.75C105.647 51.2415 104.442 52.341 103.469 53.0463C102.505 53.7554 101.637 54.1103 100.877 54.1103C100.384 54.1103 99.975 53.9839 99.6505 53.7343C99.3271 53.4876 99.0797 53.1707 98.911 52.7897C98.7421 52.4068 98.629 52.0059 98.5725 51.5846C98.5092 51.1656 98.4809 50.7816 98.4809 50.4373C98.4813 49.7127 98.6148 48.9859 98.8827 48.2596C99.0731 47.7985 99.2847 47.3407 99.5098 46.882C99.7356 46.4229 100.003 45.9834 100.306 45.5631C100.003 45.7542 99.5739 45.9937 99.0236 46.2806C98.4741 46.5681 97.988 46.7096 97.5725 46.7096C97.1141 46.7096 96.7053 46.6532 96.3459 46.538C95.987 46.4228 95.726 46.2132 95.5781 45.9073C95.4655 45.6782 95.3883 45.4394 95.3525 45.1927C95.3103 44.943 95.1975 44.7774 95.0076 44.7034C94.8169 44.6253 94.627 44.636 94.4363 44.7315C94.2464 44.8279 94.0561 44.9513 93.8656 45.104L88.7358 53.8796L84.8605 54.1103L93.8095 40.2298L93.6968 40.1146C93.1261 40.5737 92.4211 41.215 91.59 42.0359C90.7518 42.8587 89.6525 44.0531 88.2849 45.6199C87.9754 45.964 87.7219 46.2618 87.5102 46.5095C87.3059 46.7576 87.1578 46.882 87.0874 46.882C86.9324 46.882 86.8551 46.7682 86.8551 46.538C86.8551 46.3869 87.0099 46.155 87.3132 45.8505C87.6159 45.5453 88.1654 44.9306 88.9688 44.0118C90.0685 42.7909 91.1039 41.731 92.0695 40.832C93.0418 39.9317 93.7884 39.1202 94.3237 38.395L97.9176 38.165L94.2681 44.4164C94.8386 44.1876 95.5002 44.0725 96.2615 44.0725C96.7971 44.0725 97.1706 44.1876 97.4035 44.4164C97.6285 44.645 97.7981 44.9129 97.9176 45.2191C97.988 45.487 98.0864 45.6498 98.199 45.7066C98.3118 45.7639 98.4459 45.7939 98.6008 45.7939C99.2425 45.7939 100.003 45.3908 100.877 44.5884L101.166 44.3009C101.236 44.2249 101.307 44.1379 101.363 44.0423C101.419 43.9468 101.483 43.86 101.56 43.785C102.244 42.8686 102.892 41.9509 103.498 41.0325C104.111 40.1147 104.661 39.2352 105.154 38.395L108.804 38.165Z" fill="white"/>
<path fill-rule="evenodd" clip-rule="evenodd" d="M83.839 42.1227C83.839 42.697 83.7403 43.3172 83.5504 43.9859C83.3597 44.6555 83.1063 45.304 82.7822 45.9354C82.4577 46.5681 82.0989 47.1794 81.6973 47.772C81.3025 48.3635 80.8937 48.8706 80.4709 49.292C80.6265 49.367 80.8374 49.4057 81.0982 49.4057C82.0848 49.4057 83.0363 49.1468 83.9522 48.6312C84.8605 48.1152 85.6782 47.4365 86.4041 46.5928C86.7778 46.1763 87.0168 45.9072 87.1153 45.7939C87.2069 45.6781 87.2918 45.6199 87.3694 45.6199C87.5595 45.6199 87.658 45.7155 87.658 45.9073C87.658 45.9834 87.5802 46.1177 87.4258 46.3096C87.2779 46.499 86.8763 46.9402 86.2277 47.6279C85.509 48.3921 84.6634 48.9946 83.6914 49.4342C82.7258 49.8737 81.6899 50.0933 80.5903 50.0933C80.2103 50.0933 79.9571 50.0761 79.8441 50.0367C78.9701 51.0308 77.9344 51.958 76.737 52.8178C75.5458 53.6794 74.1507 54.1103 72.5515 54.1103C71.4097 54.1103 70.5356 53.6493 69.9306 52.7313C69.3243 51.8148 69.0144 50.5725 69.0144 49.0035C69.0144 47.9721 69.0631 47.2643 69.1621 46.882C69.2536 46.499 69.303 46.2132 69.303 46.0221C69.303 45.7939 69.2465 45.6781 69.1338 45.6781C68.9012 45.6781 68.6971 45.8303 68.5065 46.1354C68.3165 46.4408 68.1831 46.5928 68.1054 46.5928C67.8796 46.5928 67.76 46.499 67.76 46.3096C67.76 46.2318 67.8655 46.0594 68.0774 45.7939C68.2885 45.5256 68.5636 45.2191 68.9013 44.8752C69.2466 44.5316 69.606 44.1679 69.9866 43.785C70.3673 43.4044 70.7263 43.0393 71.0718 42.697C72.7421 41.0893 74.3905 39.9317 76.0251 39.2264C77.6592 38.5196 79.1259 38.165 80.4148 38.165C81.5206 38.165 82.3662 38.5384 82.9512 39.2832C83.5432 40.0298 83.839 40.9755 83.839 42.1227ZM82.5851 41.4329C82.5851 40.7454 82.4295 40.1428 82.1268 39.6266C81.8238 39.111 81.3093 38.8539 80.5903 38.8539C79.5971 38.8539 78.5545 39.2743 77.4554 40.1146C76.3493 40.9561 75.3418 42.0078 74.4327 43.2692C73.5165 44.5316 72.77 45.8889 72.1776 47.3407C71.5931 48.7939 71.2969 50.1128 71.2969 51.2988C71.2969 52.1021 71.4379 52.6568 71.7269 52.9614C72.0087 53.2662 72.3616 53.4205 72.7766 53.4205C73.9184 53.4205 75.0668 53.0381 76.2298 52.2738C77.385 51.5079 78.4278 50.5442 79.3647 49.3776C80.2948 48.2115 81.0633 46.921 81.669 45.5065C82.2751 44.0921 82.5851 42.7341 82.5851 41.4329Z" fill="white"/>
<path fill-rule="evenodd" clip-rule="evenodd" d="M55.3802 30.567C54.6969 32.1709 54.013 33.7392 53.3439 35.2761C52.6746 36.8114 52.0048 38.3568 51.3359 39.915C50.6661 41.4734 49.9688 43.0789 49.2358 44.7309C48.5031 46.3831 47.7352 48.1303 46.9246 49.972C45.1355 53.9388 43.1269 57.372 40.9074 60.2778C38.6945 63.1811 36.2848 65.565 33.6851 67.4306C31.0918 69.2943 28.3434 70.6767 25.4622 71.5745C22.5726 72.4705 19.5645 72.9189 16.4432 72.9189C14.1181 72.9189 11.9691 72.5519 9.99579 71.8212C8.01569 71.0898 6.31105 70.0864 4.86606 68.8116C3.42904 67.5373 2.28028 66.0609 1.42746 64.3849C0.568504 62.7077 0.103319 60.9492 0.0189421 59.1082C0.00666914 58.8191 0.000312112 58.5336 5.28724e-06 58.2517C-0.00168225 55.9571 0.400584 53.9065 1.21628 52.097C2.13246 50.0675 3.38638 48.3558 4.97896 46.9608C6.57138 45.5692 8.38939 44.5076 10.4325 43.7754C12.4827 43.0437 14.5542 42.6765 16.6546 42.6765C18.3454 42.6765 19.9873 42.9138 21.5732 43.3853C23.1584 43.8585 24.5604 44.5432 25.786 45.4393C27.0056 46.3369 28.0058 47.4465 28.7807 48.7682C29.5486 50.0908 29.9716 51.6009 30.0492 53.3008C30.1271 55.0942 29.7956 56.7136 29.0558 58.152C28.3156 59.5933 27.3296 60.8325 26.1034 61.8687C24.877 62.9095 23.4824 63.7005 21.9248 64.2421C20.3606 64.7861 18.7755 65.0577 17.1685 65.0577C16.0061 65.0577 14.8717 64.9617 13.7726 64.7743C12.6665 64.5877 11.6939 64.3483 10.8554 64.0648C10.0168 63.784 9.34748 63.4997 8.84735 63.2163C8.34017 62.933 8.08608 62.722 8.07933 62.5801C8.07212 62.4835 8.11441 62.402 8.19894 62.3326C8.29084 62.2606 8.37511 62.2273 8.4667 62.2273C8.60124 62.2273 8.86859 62.3326 9.28434 62.5459C9.69318 62.7549 10.2426 62.9803 10.9187 63.2163C11.6027 63.4537 12.4266 63.6768 13.3989 63.8882C14.3642 64.1026 15.499 64.2087 16.7951 64.2087C18.268 64.2087 19.762 63.9727 21.2838 63.4997C22.806 63.0266 24.1727 62.3326 25.3845 61.4117C26.5894 60.4901 27.555 59.3453 28.2802 57.9764C28.9992 56.6061 29.3236 55.0233 29.2457 53.2299C29.1823 51.9076 28.8507 50.7273 28.2456 49.6882C27.6461 48.6497 26.8507 47.7668 25.8572 47.0333C24.8631 46.3009 23.7078 45.7464 22.397 45.3691C21.0863 44.9917 19.7122 44.8035 18.2822 44.8035C16.2316 44.8035 14.2026 45.1314 12.2013 45.7942C10.1933 46.4537 8.41066 47.4465 6.83189 48.7682C5.26064 50.0908 4.00684 51.7301 3.06274 53.691C2.12539 55.6489 1.70965 57.929 1.82226 60.5257C1.88562 61.8485 2.24535 63.1952 2.90717 64.562C3.57007 65.932 4.51329 67.169 5.75393 68.2797C6.98 69.3899 8.49491 70.2977 10.2918 71.0058C12.0884 71.715 14.1249 72.0703 16.4012 72.0703C19.0359 72.0703 21.4317 71.7034 23.5879 70.9703C25.7436 70.241 27.7307 69.1895 29.5487 67.8192C31.3668 66.4514 33.0646 64.7861 34.6573 62.8258C36.2428 60.8677 37.7859 58.6361 39.2865 56.1349C40.2876 54.4816 41.2457 52.7461 42.1755 50.9292C43.099 49.1111 44.1625 46.9042 45.3674 44.3053C46.572 41.7107 47.9819 38.5714 49.6093 34.8865C51.2302 31.2049 53.245 26.6712 55.6401 21.2876C56.8737 18.8327 58.3322 16.2486 60.0236 13.5338C61.7144 10.8198 63.5819 8.25703 65.6179 5.84968L66.9569 4.36221C66.2314 5.06968 65.5684 5.74313 64.9699 6.38128C64.371 7.02128 63.7996 7.65541 63.2433 8.29326C62.6935 8.93017 62.1161 9.59085 61.5244 10.2775C60.9255 10.9612 60.2907 11.7273 59.6147 12.5775C58.8534 13.521 58.1772 14.3947 57.5855 15.1977C56.9935 16.001 56.4158 16.8158 55.852 17.6418C55.2813 18.4682 54.7109 19.342 54.1256 20.2611C53.5411 21.1796 52.871 22.2328 52.1176 23.4133C49.8133 26.9548 47.8051 29.8932 46.0722 32.2295C44.3457 34.5689 42.7323 36.4233 41.2241 37.79C39.7233 39.1603 38.2438 40.1292 36.7991 40.6934C35.3478 41.2604 33.7976 41.5442 32.1483 41.5442C30.4016 41.5442 28.9147 41.2373 27.6816 40.6223C26.4482 40.0089 25.4765 39.1472 24.7574 38.0383C24.039 36.9284 23.5669 35.6307 23.3412 34.1439C23.1226 32.6584 23.13 31.0634 23.3693 29.3632C23.5385 28.0874 23.7922 26.8127 24.1375 25.5384C24.4824 24.2643 25.0887 22.7291 25.9488 20.9354C25.4408 20.6514 24.8701 20.3098 24.2291 19.9066C23.5811 19.5065 22.9677 18.9748 22.3829 18.3117C21.7915 17.6525 21.2837 16.8159 20.8612 15.8002C20.4383 14.7866 20.191 13.5214 20.1284 12.0123C20.0645 10.5481 20.3256 9.14244 20.9101 7.79759C21.5018 6.45229 22.3549 5.27139 23.4685 4.25597C24.5886 3.24023 25.934 2.439 27.5196 1.847C29.0733 1.26813 30.7977 0.97169 32.6793 0.962891H32.8427C34.3904 0.971998 36.1904 1.279 38.2366 1.88258C40.3223 2.49757 42.3799 3.63215 44.4163 5.28202C46.2551 4.38577 48.1365 3.7013 50.0602 3.22786C51.9769 2.75828 53.9216 2.52127 55.8874 2.52127C56.7822 2.52096 57.4938 2.63972 58.0151 2.87668C58.537 3.111 58.9452 3.40681 59.227 3.76139C59.5093 4.11412 59.6921 4.50263 59.7836 4.92806C59.868 5.35365 59.9181 5.75168 59.932 6.13297C59.9669 6.88844 59.7907 7.66844 59.403 8.46945C59.0084 9.27247 58.5296 10.0394 57.9588 10.7712C57.3881 11.5018 56.7965 12.1527 56.1693 12.718C55.5491 13.2867 55.0206 13.7105 54.5842 13.9937C54.2384 14.2298 53.3506 14.8308 51.9203 15.8002C50.4828 16.7681 48.5877 17.7961 46.2201 18.8806C43.944 19.9197 41.8022 20.6991 39.7935 21.2191C37.7858 21.7368 35.6862 22.0217 33.5015 22.0694C33.0084 22.0694 32.4377 22.0323 31.7823 21.9613C31.1347 21.8905 30.5843 21.782 30.1336 21.6404C29.5064 22.7292 28.8937 24.181 28.2802 25.9969C27.6674 27.8157 27.4065 29.8595 27.5124 32.1247C27.5196 32.4087 27.59 32.9989 27.7238 33.8958C27.8511 34.7921 28.0831 35.7252 28.4142 36.6931C28.7454 37.6608 29.2251 38.524 29.8383 39.2787C30.4507 40.0342 31.2472 40.4113 32.2265 40.4113C33.7905 40.4113 35.2423 40.1404 36.581 39.5964C37.9193 39.0536 39.308 38.1207 40.7447 36.8026C42.1828 35.4767 43.7401 33.7057 45.4027 31.4868C47.0729 29.2692 49.0175 26.5058 51.2367 23.2036C52.2863 21.6405 53.1961 20.2718 53.9705 19.0934C54.7462 17.9128 55.5002 16.8015 56.2398 15.7646C56.9728 14.7262 57.7405 13.7105 58.5508 12.718C59.3539 11.7273 60.3121 10.6181 61.4189 9.38914C62.6517 8.02269 63.9692 6.68757 65.3645 5.38827C66.7596 4.08958 67.9503 3.04015 68.9438 2.23714C69.9631 1.40124 70.5871 0.975857 70.8217 0.962891H70.8526C71.0582 0.973079 71.1706 1.13829 71.1846 1.45891C71.1913 1.59939 70.9804 1.85925 70.5501 2.23714C69.9447 2.75828 69.2395 3.44275 68.4292 4.2913C67.6185 5.14047 66.858 6.10844 66.1462 7.19472C65.3012 8.37563 64.6248 9.40144 64.1029 10.2775C63.5818 11.149 63.1098 11.9876 62.6728 12.7906C62.2358 13.5919 61.8274 14.4174 61.4393 15.2685C61.0522 16.1195 60.5943 17.1103 60.0658 18.2424C59.3751 19.8023 58.7902 21.2681 58.3183 22.6345C57.8389 24.0031 57.4583 25.0419 57.1771 25.751C58.304 23.9573 59.4101 22.1852 60.4958 20.439C61.5806 18.693 62.7577 17.0393 64.0327 15.481C65.8086 13.2621 67.4923 11.337 69.0706 9.71017C70.6491 8.07914 72.185 6.73385 73.6857 5.67397C75.1796 4.61054 76.6382 3.81817 78.0685 3.30058C79.4988 2.78114 80.9712 2.52127 82.4863 2.52127C84.3182 2.52096 85.9952 3.0759 87.517 4.18517C89.0461 5.29507 90.0404 7.10084 90.5047 9.60405C90.8504 11.3975 90.8292 13.3101 90.4204 15.3394C90.0186 17.3705 89.4339 19.2819 88.6655 21.0769C89.1243 21.3586 89.6456 21.7491 90.2231 22.2437C90.808 22.7415 91.3574 23.3317 91.8787 24.0155C92.4003 24.7 92.844 25.4904 93.2177 26.3892C93.5985 27.2878 93.8095 28.2998 93.8592 29.4358C93.908 30.519 93.8169 31.4996 93.584 32.371C93.3583 33.2467 93.0629 33.9897 92.7105 34.6026C92.3578 35.2175 91.9985 35.7252 91.6388 36.127C91.2798 36.5296 90.9697 36.8221 90.7092 37.0115C90.4906 37.153 90.3641 37.1407 90.3357 36.9763C90.308 36.8114 90.3358 36.6816 90.4204 36.5869C90.5469 36.4464 90.7658 36.234 91.0621 35.95C91.3644 35.6681 91.6672 35.2884 91.9845 34.8156C92.2946 34.3425 92.563 33.7181 92.774 32.9404C92.9854 32.1604 93.0629 31.2049 93.0135 30.0703C92.9853 29.3633 92.9004 28.7005 92.7599 28.0874C92.6189 27.4735 92.358 26.8714 91.978 26.2828C91.5974 25.6908 91.0684 25.1251 90.3923 24.5811C89.723 24.0385 88.8424 23.5067 87.7433 22.9878C87.01 24.5479 86.3409 25.893 85.742 27.0259C85.15 28.158 84.5228 29.195 83.8749 30.1416C83.2192 31.0863 82.4937 31.9832 81.6763 32.8325C80.8657 33.6834 79.9287 34.6027 78.8507 35.5954C76.871 37.3416 74.7284 38.7701 72.4037 39.8814C70.0852 40.9896 67.3231 41.5442 64.1029 41.5442C62.0949 41.5442 60.6294 40.9553 59.7065 39.7734C58.7835 38.5925 58.2828 37.1308 58.2057 35.3829C58.1633 34.3919 58.3956 33.3183 58.903 32.1604C59.4101 31.0031 60.1292 29.8346 61.0594 28.6545C61.9895 27.4736 63.1235 26.3413 64.4625 25.2549C65.7944 24.1686 67.2741 23.2035 68.8872 22.3516C70.593 21.4544 72.5234 20.7453 74.6941 20.226C76.8566 19.7066 79.0335 19.423 81.2182 19.3767C81.7113 19.3767 82.2961 19.4357 82.9727 19.5545C83.6491 19.6697 84.2337 19.7776 84.7271 19.8738C85.199 18.4079 85.6219 16.6865 86.0098 14.7032C86.3904 12.7181 86.5241 10.926 86.4043 9.31967C86.313 8.28171 86.1223 7.39532 85.8197 6.663C85.5234 5.93053 85.1711 5.34226 84.7693 4.89212C84.375 4.44585 83.9806 4.12677 83.5928 3.93674C83.2054 3.74733 82.8524 3.65333 82.5359 3.65333C81.5567 3.65333 80.4571 3.81826 79.2455 4.14984C78.0337 4.4791 76.6807 5.08206 75.2004 5.95593C73.721 6.82779 72.1216 8.05618 70.4099 9.6389C68.6904 11.2202 66.8369 13.262 64.8499 15.7646C62.9406 18.1259 61.2494 20.5101 59.7697 22.9187C58.2901 25.3255 56.8245 27.8744 55.3802 30.567ZM27.5268 18.7388C28.5342 17.3227 29.7109 15.953 31.0639 14.6324C32.4098 13.3101 33.8121 12.0819 35.2563 10.949C36.7009 9.81468 38.1451 8.78863 39.5756 7.86814C41.0059 6.94858 42.3589 6.20254 43.6339 5.63694C42.1542 4.50266 40.4492 3.58445 38.5188 2.87668C36.5879 2.16628 34.7772 1.81179 33.0786 1.81179C31.3389 1.81179 29.7606 2.04953 28.3514 2.52127C26.9415 2.99271 25.7437 3.63215 24.7502 4.433C23.7572 5.23602 23.0026 6.15599 22.4953 7.19472C21.9812 8.23345 21.7488 9.31968 21.7982 10.4526C21.8616 11.8229 22.0447 12.9428 22.3476 13.8167C22.6575 14.6909 23.0595 15.4329 23.5529 16.0485C24.0463 16.6618 24.6379 17.1705 25.3279 17.5711C26.0187 17.9712 26.7442 18.3379 27.5196 18.6683L27.5268 18.7388ZM57.8039 9.53096C58.0929 9.01167 58.4026 8.39841 58.7268 7.69111C59.0581 6.98225 59.192 6.31011 59.1429 5.67397C59.0935 5.03597 58.7902 4.49203 58.2339 4.04359C57.6772 3.59485 56.712 3.37173 55.3237 3.37173C51.7933 3.37173 48.4609 4.2416 45.3181 5.9915C45.6419 6.17891 46.0723 6.54617 46.6079 7.09016C47.1502 7.63245 47.6715 8.19838 48.1931 8.78868C48.7072 9.37867 49.1653 9.91029 49.5671 10.382C49.9687 10.855 50.1728 11.1141 50.1728 11.1621C50.2221 11.2553 50.201 11.3494 50.1165 11.4433C50.0321 11.5396 49.9478 11.5857 49.8555 11.5857C49.6798 11.5854 49.4683 11.3974 49.2286 11.0178C48.9893 10.6419 48.6087 10.1924 48.0946 9.67424C47.6296 9.2028 47.0307 8.61077 46.3116 7.90408C45.5854 7.19461 45.0429 6.70211 44.6701 6.41638C43.4085 7.17169 42.1259 8.05618 40.837 9.0716C39.5402 10.0856 38.3 11.1621 37.1237 12.2944C35.9467 13.4285 34.8477 14.6094 33.826 15.8355C32.8113 17.0643 31.9727 18.2904 31.3105 19.5172C31.8528 19.659 32.48 19.7553 33.1987 19.8023C33.9174 19.8481 34.6506 19.8607 35.4112 19.836C36.1724 19.8135 36.9257 19.7776 37.687 19.7316C38.4408 19.6837 39.1315 19.6127 39.7516 19.5172C40.9493 19.3767 42.2315 19.067 43.5984 18.5972C44.9585 18.1259 46.2977 17.5833 47.6154 16.9684C48.9262 16.3531 50.1165 15.7382 51.1873 15.1288C52.252 14.5132 53.0898 13.9938 53.6963 13.569C53.7385 13.5211 53.9355 13.3809 54.2807 13.1435C54.6263 12.9075 55.0065 12.6135 55.4152 12.2572C55.8241 11.906 56.2538 11.4913 56.6977 11.0178C57.1488 10.5481 57.5152 10.0521 57.8039 9.53096ZM83.8109 21.997C83.1347 21.7132 82.4087 21.5483 81.648 21.5008C80.8868 21.4545 80.105 21.4441 79.3016 21.4671C78.4987 21.4901 77.7236 21.5606 76.9694 21.6774C76.2153 21.7966 75.5458 21.8799 74.9684 21.9262C73.0094 22.1617 71.086 22.7517 69.1835 23.6986C67.2811 24.641 65.5898 25.7617 64.1029 27.0607C62.6233 28.3619 61.4394 29.7517 60.5732 31.2402C59.6992 32.7274 59.2904 34.1065 59.3476 35.3829C59.3608 35.8083 59.4313 36.3021 59.5447 36.8701C59.657 37.4371 59.8822 37.9918 60.2206 38.534C60.5591 39.0763 61.0238 39.5268 61.6227 39.8814C62.2144 40.2343 63.0042 40.4113 63.9905 40.4113C66.5769 40.4113 68.923 39.7965 71.0087 38.5714C73.1012 37.3416 74.9542 35.8313 76.5751 34.0339C77.9769 32.4796 79.2453 30.7547 80.3654 28.8668C81.4862 26.9775 82.6415 24.6873 83.8109 21.997Z" fill="white"/>
</svg>
