<svg width="24" height="24" viewBox="0 0 24 24" fill="none" xmlns="http://www.w3.org/2000/svg">
<path d="M12 24C18.6274 24 24 18.6274 24 12C24 5.37258 18.6274 0 12 0C5.37258 0 0 5.37258 0 12C0 18.6274 5.37258 24 12 24Z" fill="#039BE5"/>
<path d="M5.49091 11.7402L17.0609 7.27921C17.5979 7.08521 18.0669 7.41021 17.8929 8.22221L17.8939 8.22121L15.9239 17.5022C15.7779 18.1602 15.3869 18.3202 14.8399 18.0102L11.8399 15.7992L10.3929 17.1932C10.2329 17.3532 10.0979 17.4882 9.78791 17.4882L10.0009 14.4352L15.5609 9.41221C15.8029 9.19921 15.5069 9.07921 15.1879 9.29121L8.31691 13.6172L5.35491 12.6932C4.71191 12.4892 4.69791 12.0502 5.49091 11.7402Z" fill="white"/>
</svg>
