<svg width="188" height="94" viewBox="0 0 188 94" fill="none" xmlns="http://www.w3.org/2000/svg">
<path d="M180.518 63.3874C180.204 63.5249 180.123 63.0638 179.862 63.0072C172.13 61.3897 168.007 60.9692 166.486 60.4111C168.553 60.0391 168.337 59.7156 176.217 61.6809C176.717 61.8022 177.373 61.4868 177.626 62.247C177.753 61.8588 178.171 61.7213 177.985 61.2523C177.979 61.2083 177.985 61.1632 178.003 61.123C178.021 61.0829 178.049 61.0496 178.085 61.0276C178.121 61.0056 178.162 60.9959 178.203 60.9999C178.244 61.0039 178.283 61.0215 178.314 61.0501C178.377 61.1099 178.452 61.1547 178.532 61.1816C178.612 61.2085 178.697 61.2169 178.781 61.2062C178.864 61.1955 178.945 61.1661 179.017 61.1197C179.09 61.0733 179.153 61.011 179.202 60.9368C179.336 60.7508 179.634 60.9854 179.776 60.8802C180.043 60.6661 180.357 60.5311 180.687 60.4886C181.016 60.446 181.35 60.4974 181.656 60.6376C180.874 59.8289 178.726 59.8288 178.757 59.2546C178.757 59.0363 178.943 59.3112 179.033 59.2142C179.13 58.9554 178.936 58.9311 178.795 58.8422C178.738 58.811 178.691 58.7636 178.658 58.7051C178.625 58.6466 178.608 58.5792 178.608 58.5106C178.608 58.4419 178.625 58.3746 178.659 58.3161C178.692 58.2576 178.739 58.2102 178.796 58.179C180.647 57.4592 182.858 59.6914 183.106 58.3812C183.166 58.0739 183.39 58.0496 183.584 57.9525C178.807 55.5829 178.403 56.7718 179.181 55.2756C179.637 54.3941 180.352 54.8469 181.076 54.758C180.987 54.7014 178.541 54.022 179.265 54.0706C179.988 54.1191 180.235 53.3265 180.84 53.1486C182.441 52.8449 184.089 53.1295 185.522 53.9573C184.473 52.3964 181.698 52.9221 181.751 52.3803C181.789 52.0891 182.176 52.1943 182.922 52.259C182.848 52.0487 182.512 52.259 182.572 51.9921C182.632 51.7252 183.936 52.3318 185.592 52.4207C185.534 51.612 185.958 51.9678 186.689 51.895C187.793 51.7737 175.848 49.8651 172.054 48.66C173.135 48.9188 189.352 51.5068 183.671 50.2775C157.941 44.8346 179.063 49.3151 167.456 46.3389C167.456 46.0801 168.552 46.1286 166.271 45.6272C165.227 45.4008 164.288 44.7457 163.184 44.8185C163.113 44.8112 163.044 44.7872 162.982 44.7481C162.921 44.709 162.868 44.6557 162.827 44.592C164.579 44.7942 164.475 44.8912 164.363 44.592C164.363 44.5192 164.43 44.4788 164.438 44.4949C164.698 45.1419 164.99 44.4949 165.273 44.4949C168.367 45.1177 169.83 44.8508 174.302 46.6867C175.792 47.2932 176.589 47.9322 176.709 47.6653C176.829 47.3984 175.628 47.2285 175.1 46.4764C177.144 46.2499 181.064 47.9726 181.281 47.827C181.886 47.3983 181.915 47.3984 182.661 47.6167C184.234 48.0696 183.28 47.4954 183.407 47.2043C184.153 47.083 185.6 47.5682 185.765 46.9617C185.93 46.3551 187.017 47.18 187.13 46.7595C187.97 43.5245 164.362 40.3542 165.147 39.3594C165.573 38.8256 165.589 38.4293 165.797 38.7933C166.176 39.4483 166.776 37.3537 165.681 36.553C166.539 36.4155 167.373 37.0868 168.314 36.7552C169.254 36.4236 170.312 37.1677 171.237 37.0868C170.715 36.7471 162.163 35.3561 159.772 33.318C159.819 33.2989 159.869 33.2903 159.919 33.2926C159.969 33.295 160.018 33.3082 160.063 33.3316C160.109 33.355 160.149 33.3881 160.182 33.4288C160.215 33.4696 160.24 33.5171 160.256 33.5687C161.031 33.1742 161.91 33.0967 162.733 33.3504C162.171 33.0948 161.596 32.8734 161.011 32.6872C162.171 30.261 164.477 34.1106 164.211 32.21C164.123 31.563 164.659 32.1453 165.277 32.4365C165.613 32.5902 164.955 33.2452 164.739 33.3827C165.395 33.8194 165.484 33.7871 166.015 33.1158C166.545 32.4446 166.88 33.3261 167.282 33.2938C167.402 33.0107 166.537 32.7519 166.323 31.6763C166.153 30.7543 163.998 30.3014 163.104 29.7029C164.052 29.339 160.997 27.2767 161.483 26.7186C161.565 26.6135 161.559 25.7239 161.969 26.0069C162.505 26.387 162.715 25.8614 163.013 25.6754C162.909 25.4489 162.715 25.4247 162.566 25.3276C161.873 24.8666 162.612 24.5188 162.21 24.1549C161.808 23.791 162.211 23.6535 162.338 23.6535C163.128 23.702 163.049 22.2058 163.719 22.6506L163.764 22.6506C164.272 22.1411 165.121 22.9579 165.33 22.6506C165.226 22.3837 164.473 22.4808 164.734 22.0602C165.131 21.4213 164.14 20.8228 156.149 17.7658C156.344 17.5231 156.545 17.6849 156.716 17.5879C156.672 17.4342 156.381 17.4666 156.456 17.2401C156.531 17.0137 157.328 17.4018 157.143 16.771C156.883 15.8733 159.067 16.771 158.215 18.1459C158.513 18.34 160.775 16.6012 156.512 14.9837C156.31 14.9109 156.079 14.8947 155.983 14.6117C156.065 14.5146 157.877 14.6117 155.387 14.086C155.424 14.3529 155.707 14.28 155.864 14.5146C154.573 14.3933 155.177 14.5146 154.448 13.4228C153.277 13.4713 153.882 12.8001 155.052 13.6816C154.613 12.6787 152.07 12.8728 158.037 12.8728C157.613 11.9347 66.4283 7.13882 66.309 7.13073C66.4061 7.0822 104.542 6.13595 65.4449 6.45136C12.6398 6.87999 117.589 4.17879 112.244 7.47849C111.983 7.64833 111.692 7.47849 111.453 7.42997C110.976 7.29248 110.543 7.62407 110.081 7.42997C109.917 7.37335 109.886 8.10119 110.252 8.05267C111.521 8.03646 112.79 8.12025 114.047 8.30338C114.047 8.82907 106.918 7.89091 106.887 8.40043C107.96 8.56376 109.041 8.64752 110.124 8.65114C110.728 8.65114 110.652 9.71064 111.034 8.59457C111.033 9.14452 111.391 9.24961 111.726 9.2577C112.062 9.26579 111.816 8.99082 111.876 8.8129C112.061 9.62165 117.797 9.53271 117.924 9.29008C117.089 8.99893 116.209 9.21729 115.329 9.03127C116.398 7.77771 164.825 11.8538 136.682 8.90994C137.062 9.15257 137.525 9.03938 138.047 9.24966C137.629 9.37905 131.178 9.24965 130.381 8.4409C133.439 8.4409 132.163 8.53795 132.618 8.8938C132.849 8.6562 133.14 8.49911 133.454 8.44288C133.768 8.38665 134.09 8.43384 134.378 8.57838C134.378 8.76439 134.102 8.65923 134.109 8.85333C134.952 9.13639 135.698 8.56221 136.541 8.635C136.631 8.635 149.391 9.16877 149.727 9.0879C149.691 8.15783 114.368 8.43281 113.483 6.66164C113.253 6.20066 157.395 8.50558 157.589 8.20634C151.791 5.16544 144.166 6.81531 143.713 5.65071C149.493 5.65071 154.406 6.82339 154.452 6.34622C124.902 2.05176 53.1268 -0.123804 23.6751 4.00082C22.5636 4.15448 23.7859 4.66401 23.4341 5.48894C21.8619 9.22536 24.4403 5.89331 24.1765 7.65638C24.0709 8.37617 19.7836 7.65639 25.2267 8.52175C26.718 8.77246 26.8006 8.38428 28.106 8.28723C38.0938 7.55936 38.8749 8.78053 38.943 8.19823C39.0942 6.93658 41.2417 7.1954 42.7184 7.2601C43.0092 7.2601 43.4623 8.41663 44.0453 7.62405C44.1201 7.527 48.7661 7.79387 48.8556 7.80195C47.915 8.38425 22.6678 8.96658 21.9419 10.5598C26.4173 10.2201 27.911 8.9423 29.5347 10.3414C29.4431 10.4129 29.3378 10.461 29.2267 10.482C29.1155 10.503 29.0015 10.4964 28.8931 10.4628C28.4683 10.301 28.4825 10.7701 28.3107 10.9318C28.1389 11.0936 28.4147 11.1583 28.4966 11.2715C29.6873 12.889 22.2531 11.8538 24.0184 13.3014C23.9359 13.6249 23.5558 13.3985 23.5032 13.6897C23.6219 14.0779 28.7229 14.3528 28.8419 14.5631C28.9609 14.7734 28.5272 15.4689 28.2811 15.4689C26.7074 15.4689 26.1099 15.9623 26.2157 15.1131C26.103 15.3886 25.9218 15.6247 25.6922 15.7947C25.4627 15.9648 25.194 16.062 24.9165 16.0755C23.8796 16.1725 24.99 16.7063 24.7808 16.9489C24.3923 17.3856 22.1708 16.7063 22.4379 17.6202C22.6604 18.3642 22.288 18.0326 20.4378 18.4289C19.8111 18.5583 20.4367 19.084 20.4366 19.1811C20.666 20.2891 20.0113 19.3105 19.2122 19.9898C20.5547 19.9898 20.7563 19.8281 20.5387 20.6207C20.3212 21.4132 21.1505 20.5155 21.3507 21.2272C21.4546 21.5912 21.821 20.9684 21.9694 21.4132C22.0362 21.6235 21.9687 21.9228 21.8418 21.9389C21.4614 22.0117 21.8409 22.5536 21.4904 22.5455C18.2238 22.4727 18.2383 22.7315 21.4899 22.8123C23.6229 22.8609 24.3021 22.5616 23.9282 23.1601C22.8964 24.7776 28.9028 23.2329 28.8714 24.2034C28.8702 24.9636 27.6561 23.9689 26.8345 24.7372C26.7299 24.8342 26.7147 25.0364 26.5134 24.9717C26.1928 24.8747 26.1174 25.3842 26.5723 25.4246C30.1742 25.732 31.152 25.2548 30.6662 25.8613C30.457 26.1363 30.3671 26.3547 30.8444 26.3547C31.7022 26.3547 30.9771 27.3575 31.5888 27.3009C31.5891 27.0906 31.2163 27.0098 31.4405 26.7267C31.8216 26.2496 38.1523 27.1715 27.8214 27.9075C27.1948 27.9479 27.3603 27.0988 27.8225 27.2443C28.4487 27.4223 27.9056 26.5245 27.6888 26.848C27.472 27.1715 27.062 27.0664 26.7412 27.1311C26.7406 27.4708 27.3156 27.0583 27.2923 27.6002C27.2691 28.142 26.703 27.7134 26.0456 28.3523C25.5452 28.8456 25.039 28.1744 24.6719 29.2177C24.9856 28.9346 25.3433 29.1449 25.6791 29.0397C25.8656 28.9831 25.8579 29.1772 25.8725 29.3147C25.9162 30.0183 25.0516 29.6463 24.223 30.1235C24.3345 30.358 24.969 30.0507 24.692 30.6572C24.5948 30.8675 25.2812 30.6572 25.079 31.1748C25.0116 31.3366 21.9604 31.8865 26.0704 31.5388C26.5851 31.4903 26.9053 31.8218 26.9788 32.4769C27.1038 33.6253 23.9117 33.6496 23.9408 34.0944C23.9699 34.5392 26.1792 33.496 26.3427 33.868C26.5209 34.3937 27.2819 34.1996 27.3406 34.8546C27.3406 34.8546 27.4673 34.8951 27.4823 34.8546C27.8338 34.2481 28.3478 34.5877 28.743 34.6929C29.317 34.8465 30.3175 34.1106 30.1968 34.976C30.1967 35.0973 30.3607 35.0972 30.4726 35.0892C30.8157 35.0892 30.2199 34.5554 30.6079 34.4503C30.7173 34.4044 30.835 34.387 30.9516 34.3997C31.0682 34.4123 31.1804 34.4546 31.279 34.5231C32.18 35.437 32.9057 34.0459 34.5451 34.9275C34.9624 35.1539 35.8881 34.612 35.9323 34.9679C36.0057 35.6796 31.3813 35.8736 31.3883 36.1971C31.3952 36.5206 42.3758 35.2347 42.4728 35.2024C43.3384 34.9193 42.8295 36.0112 43.2774 35.7766C43.9717 35.3561 44.9031 35.8737 44.127 36.1406C41.642 37.014 50.02 35.5744 50.2726 36.2052C50.3617 36.4236 12.0997 41.8665 12.2249 42.8613C12.4091 44.3251 29.3387 39.966 36.8426 39.416C41.885 39.0359 38.4837 39.2219 37.9232 39.9336C46.7252 39.1249 23.9723 42.4892 22.5697 42.7723C19.5854 43.3627 18.726 44.4868 17.8159 44.5434C16.906 44.6001 17.1278 45.8132 16.322 45.983C16.1356 45.983 15.971 46.2742 15.7026 46.2419C15.5609 46.2419 15.3893 46.2418 15.4262 46.4926C15.5222 47.1234 15.3598 46.0235 19.5659 46.2661C19.9687 46.2661 19.953 46.7433 19.6023 46.8565C18.662 47.1719 16.1705 47.4712 14.7593 48.474C14.2665 48.8056 13.1197 47.7218 10.3347 49.6467C9.76726 50.0349 9.41735 49.6467 8.34208 50.4554C9.31894 50.5686 11.9755 49.6467 10.9302 50.3826C10.6913 50.5525 10.05 50.4554 10.072 50.7304C10.0939 51.0054 42.7177 45.4331 52.5921 45.611C53.7556 45.611 43.1331 46.8646 43.1108 46.7595C42.9926 46.072 42.3653 46.5573 43.0584 46.905C39.4619 47.9402 30.1318 47.8351 64.8673 46.3146C80.7545 45.6272 74.04 46.9212 78.0239 46.1367C78.1806 46.1367 78.4567 45.9992 78.5531 46.347C78.6495 46.6948 78.6506 46.0235 78.9114 46.161C79.1723 46.2984 89.3525 46.4683 89.4196 46.4602C90.2625 46.4036 89.9484 46.9535 89.5682 46.8241C89.0539 46.6543 80.5511 46.9131 80.4615 46.9374L80.3645 46.994C80.0146 46.5815 79.7231 46.994 79.4097 47.0667C78.6637 47.18 78.6647 46.5654 78.5596 47.0021C78.5559 47.0297 78.5446 47.0554 78.5271 47.0759C78.5097 47.0964 78.4869 47.1107 78.4618 47.1169C78.4367 47.123 78.4105 47.1207 78.3866 47.1103C78.3628 47.0999 78.3424 47.0819 78.3283 47.0587C78.3292 46.4845 77.9708 46.719 77.7023 46.7433C77.2995 46.7433 76.8077 46.4845 76.8295 46.8403C76.8513 47.1962 77.6352 46.6947 77.8882 47.0829C77.0788 47.1972 76.2647 47.2674 75.449 47.2932C75.6735 46.8403 74.9723 46.9131 75.1371 46.4845C74.7791 46.4845 75.1362 47.0102 74.6886 47.0991C74.614 47.0991 74.5245 47.0991 74.5247 46.994C74.525 46.7514 74.8157 46.8808 74.8757 46.7029C74.6676 46.2338 74.0552 46.7675 73.2722 46.6462C73.1753 46.6462 73.0708 46.6462 73.0706 46.7837C73.0702 47.0749 73.5106 46.8484 74.01 47.0506C71.869 47.3013 69.7215 47.0506 67.4388 47.3175C68.7304 46.5087 69.3856 47.1881 69.4608 46.7756C69.5888 46.0639 67.7608 46.5006 66.0151 46.7756C57.1081 47.9645 39.2907 47.738 38.4164 48.8218C38.2537 48.9546 38.0607 49.0367 37.8583 49.0595C37.6558 49.0823 37.4516 49.0449 37.2676 48.9511C36.7086 48.7166 36.775 49.1614 36.6633 49.0563C35.6579 48.0858 32.6201 49.5577 31.874 49.7276C29.4641 50.2937 39.9147 49.2989 40.2425 49.5011C40.5704 49.7033 41.116 48.9592 40.6161 49.1048C40.5191 49.1048 37.3643 49.1048 42.2053 48.7004C51.4547 47.9887 70.0717 47.2447 60.3291 48.5468C60.0457 48.5468 58.3695 47.3579 58.6959 48.4902C58.822 48.9269 58.4572 48.4901 58.4048 48.6357C58.1811 48.7591 57.9298 48.811 57.6802 48.7852C57.4306 48.7595 57.1931 48.6571 56.9954 48.4902C56.7868 48.3365 56.8979 48.8218 56.6592 48.8218C34.5161 48.563 42.9192 50.0025 45.7843 49.2989C46.1947 49.2019 46.373 49.6143 45.7837 49.6709C18.7141 51.984 30.5957 51.6119 30.1174 52.1861C30.0427 52.2832 30.5569 52.5258 30.5426 52.1376C30.5283 51.7494 30.8638 51.8303 30.856 52.081C30.8481 52.3317 31.0794 52.259 31.2137 52.259C31.8327 52.259 31.2891 51.7575 31.6769 51.7737C31.7664 51.7737 31.923 51.7737 31.9004 51.8869C31.7128 52.6229 32.4373 51.9921 32.5334 52.5016C29.7216 52.5501 -1.64243 58.5429 0.651136 60.8074C0.829856 60.9854 0.858919 61.4706 1.29927 61.2684C4.28471 59.9178 23.361 56.4159 23.458 56.4159C23.7341 56.3108 23.6366 56.6909 23.7632 56.8041C23.9945 56.7556 23.7639 56.3269 24.1068 56.4321C24.0468 56.6343 24.2925 56.9173 23.9716 57.0548C16.0157 60.4839 31.3346 55.963 41.5902 55.68C48.8698 55.4778 75.6623 53.9249 117.321 55.8093C176.796 58.4863 167.104 60.8802 165.576 60.3869C164.473 60.0391 152.788 58.9554 152.452 58.6804C152.751 58.5753 153.071 58.7371 153.445 58.5349C152.675 58.306 151.86 58.3313 151.103 58.6076C149.609 59.5377 154.992 56.61 107.468 56.61C105.398 53.9169 42.0211 56.7637 41.9315 56.7637C40.3206 56.7637 40.9831 57.5725 40.6252 57.4754C39.7007 57.3056 39.0137 57.8393 39.134 57.1842C39.3539 57.2835 39.5944 57.3172 39.8305 57.2816C40.0667 57.2461 40.2898 57.1426 40.4768 56.982C38.933 56.982 38.5005 56.9012 38.5519 57.3864C38.5515 57.6937 37.7165 57.4754 37.7395 57.1115C37.426 57.2605 37.0891 57.3428 36.7471 57.3541C36.8287 57.6371 37.1274 57.4026 37.2538 57.6371C36.4033 57.8393 35.1429 57.7827 36.568 57.4107C35.9123 57.0468 35.7397 57.7018 35.3067 57.9849C43.682 58.1951 78.4336 55.9064 81.266 56.9982C81.207 56.5938 80.8263 56.8284 80.7671 56.4887C81.9528 56.61 83.1241 56.3997 84.2947 56.5777C84.7048 56.6424 85.1894 56.796 85.5034 56.2865C85.3851 56.4101 85.2272 56.4791 85.0631 56.4791C84.899 56.4791 84.7413 56.4101 84.6234 56.2865C85.1084 56.1329 87.3749 56.6666 87.4271 56.6343C88.7893 56.5589 90.1545 56.5778 91.5142 56.6909C90.9462 57.3864 82.5647 56.4078 81.8703 56.9093C82.3917 57.3379 90.2526 57.3864 91.4605 57.5967C94.443 58.1224 83.0182 57.3541 82.5548 57.9525C82.7783 58.0819 96.1584 58.1224 96.4857 58.6885C96.5182 58.7341 96.565 58.765 96.6173 58.7755C96.6695 58.7859 96.7235 58.7751 96.769 58.7451C97.0168 57.6776 140.771 59.5539 127.488 59.6267C116.651 59.6752 106.935 58.4297 106.173 59.1495C106.725 59.4811 109.962 59.4568 102.854 59.4568C104.458 59.0929 109.373 59.0848 102.049 58.8988C80.4118 58.2468 58.7567 59.2983 37.2543 62.0448C37.7091 62.1419 38.0963 62.522 38.6336 62.3359C38.9694 62.2227 39.3348 62.2632 39.3788 62.7161C39.3786 62.9021 39.4458 62.8293 39.513 62.805C39.819 62.6595 40.1319 62.8536 40.4378 62.805C39.9679 62.805 39.5347 63.2013 39.0282 62.805C38.8122 62.6271 39.0727 62.9263 39.0279 62.991C38.6993 63.266 38.4094 62.6757 38.3421 62.7808C38.2748 62.8859 26.0565 63.9535 25.7059 63.9454C27.8261 62.6514 28.7649 63.2741 28.6911 62.7484C28.6915 62.5301 28.4006 62.5381 28.229 62.6028C25.3558 63.7027 22.6191 63.4116 20.4911 64.9159C19.859 65.2145 19.1726 65.3528 18.4842 65.3202C19.3338 65.7408 29.6738 63.9211 29.7931 63.8888C30.5393 63.6623 30.6056 64.2204 33.5743 63.9777C34.5217 63.8969 32.7012 64.3255 32.5369 64.4468C35.4088 64.1476 35.073 64.2446 34.7752 63.9292C34.4388 64.4306 33.8733 63.5895 34.7752 63.9292C35.2081 63.7189 35.0212 63.9939 34.9314 64.1799C35.3341 64.2446 35.5515 63.5329 36.0133 63.9049C35.9087 64.0505 35.715 63.9049 35.5656 64.0182C36.3928 64.4468 36.4023 63.2094 36.8417 63.5572C39.821 66.0966 67.8805 60.4192 24.9717 66.0238C24.3973 66.1047 19.3015 67.2774 18.1841 66.4202C17.983 66.2665 17.1767 66.7517 17.9146 67.0672C19.8152 67.8759 22.3443 67.4149 19.0844 67.8112C15.6454 68.2317 25.5657 67.7222 30.57 67.8597C29.8984 67.9794 29.2352 68.1496 28.5853 68.3692C28.6747 68.442 51.603 67.4311 63.1851 67.7384C87.9082 68.4016 26.5873 67.8193 17.1128 69.4691C17.1126 69.5743 67.8296 69.0243 72.8481 69.6147C1.01321 81.8187 57.022 69.3802 61.3655 72.3726C63.0418 73.521 23.8572 77.5081 20.9983 79.0286C46.1894 76.1656 88.2269 74.3702 119.273 76.3435C119.407 76.3435 121.367 77.2412 122.329 76.9663C122.471 76.9663 122.829 77.1361 123.157 77.2898C121.805 78.236 93.8262 75.5509 92.2276 77.1603C92.1604 77.2251 92.0858 77.2331 92.0337 77.1603C91.5873 76.4729 88.4305 77.7103 94.8153 77.3463C95.3505 78.5029 145.23 79.5219 151.024 80.2417C151.881 80.3468 155.029 80.1204 155.819 80.2821C160.144 81.1637 166.061 79.0366 166.53 79.627C167.696 78.5514 170.102 79.9344 170.561 77.8559C170.113 77.7588 169.643 78.0015 169.203 77.7831C169.204 77.5486 170.502 76.9744 167.063 77.8316C167.063 77.492 167.473 77.7103 167.809 77.3302C169.408 75.462 174.361 75.0091 164.992 76.1252C159.024 76.8288 160.114 76.3759 162.009 76.206C160.977 76.1522 159.943 76.2502 158.935 76.4972C158.502 76.667 157.064 76.2141 157.936 76.1575C170.691 75.3488 166.679 74.9282 168.874 73.8849C168.874 73.6666 168.546 73.8849 168.561 73.5857C170.569 72.6961 172.416 74.0467 172.776 73.2056C172.85 73.0195 173.857 73.5452 174.864 73.2056C173.164 73.0195 172.865 73.0438 172.873 72.7284C172.881 72.413 173.038 72.5586 173.187 72.5424C173.336 72.5262 173.187 72.316 173.247 72.1785C174.207 69.1699 167.171 70.4154 164.443 69.5096C164.876 69.2346 171.365 69.2832 176.627 71.0705C177.507 71.3697 177.33 69.8816 177.442 69.8008C177.875 69.4934 176.443 69.5419 176.339 69.2589C175.396 66.6951 155.143 64.6652 182.002 68.4501C177.045 66.5819 173.241 66.4363 172.757 66.0239C172.981 65.8621 174.166 66.2665 173.504 65.668C173.094 65.3041 164.699 63.5734 163.811 63.5167C156.518 62.9911 166.37 63.0315 167.669 62.0772C167.595 61.875 167.267 61.8831 167.23 61.6485C168.021 61.3574 174.083 62.2228 175.261 62.9264C175.328 62.7323 175.037 62.7889 175.082 62.5139C175.947 62.8455 176.902 62.6757 177.729 63.2337C177.855 63.3308 178.124 63.0719 178.385 63.1447C182.225 64.0748 180.734 63.2903 180.518 63.3874ZM167.598 64.6652C166.562 64.3174 167.949 64.4711 168.18 64.6652C167.978 64.7703 167.785 64.6005 167.598 64.6652ZM45.1044 35.9626C45.6345 35.5744 45.5141 36.2538 45.1044 35.9626C44.8353 36.3023 44.62 35.72 44.7767 35.6715C44.9334 35.623 44.9777 35.8737 45.1044 35.9626ZM50.7366 63.4601C50.2893 63.3307 50.3628 64.0182 49.8864 63.4601C49.7896 63.355 49.6028 63.5168 49.4465 63.3307C49.9014 63.3793 50.2899 62.991 50.722 63.2417C51.17 62.9344 52.4674 63.1447 52.2138 63.1852C51.7064 63.2984 51.0118 63.9454 50.7366 63.4844L50.7366 63.4601ZM46.306 73.1651C46.6231 72.9932 46.9885 72.9585 47.3279 73.0681C47.3877 73.0195 55.2273 72.3483 46.3059 73.2136L46.306 73.1651ZM148.425 58.9554C148.335 58.7613 148.007 58.9554 147.97 58.5995C148.716 58.5995 149.156 58.7128 148.41 58.9392C147.663 59.6267 146.866 59.0363 146.09 58.9392C149.603 58.729 144.599 58.6076 143.189 58.8017C143.399 58.3893 146.852 58.2356 148.425 58.9554ZM48.0611 62.1904C48.5238 61.9882 63.3077 60.9611 64.3808 61.5272C64.2912 61.5757 48.5753 62.4492 48.0611 62.1823L48.0611 62.1904ZM130.265 57.9283C130.213 57.9283 110.606 57.2651 110.636 57.1923C109.719 57.1923 110.509 57.5482 110.218 57.7261C105.336 55.8741 130.042 57.7908 130.265 57.9202L130.265 57.9283ZM164.834 39.3998C164.557 39.8204 164.215 39.5454 163.894 39.4969C163.148 39.3917 162.529 39.4969 162.404 38.6881C162.33 38.1463 160.638 37.5721 160.221 37.2405C160.57 38.0007 164.437 40.0954 160.874 38.858C159.115 38.2514 160.578 37.7338 159.678 36.3185C159.544 36.1082 159.111 36.0354 159.246 35.7443C159.313 35.631 167.54 35.2995 164.834 39.3917L164.834 39.3998ZM138.781 68.5148C138.684 68.5148 93.9651 67.9163 93.8175 66.8973C93.6749 67.4958 93.638 67.2613 91.0205 67.0186C84.9876 66.493 138.244 68.1832 138.781 68.5229L138.781 68.5148ZM53.1584 8.19823C53.1575 8.77245 51.1148 8.25486 51.0396 8.6188C50.9644 8.98274 51.308 8.67544 51.3747 8.95041C36.7714 8.9585 32.4153 9.29005 53.1584 8.20633L53.1584 8.19823ZM151.459 59.8936C151.011 59.8936 150.601 59.5054 150.154 59.5781C149.505 59.6302 148.854 59.5422 148.238 59.3193C148.678 59.0039 149.17 59.4164 149.498 59.0282C149.379 58.8341 149.051 59.0929 149.022 58.7371C149.133 58.7128 162.257 60.2979 151.459 59.8936ZM109.174 57.4673C108.765 56.9497 98.5386 57.4673 98.3387 56.5777C110.353 56.8526 109.421 56.7718 109.174 57.4511L109.174 57.4673ZM165.956 61.0986C162.555 60.8721 159.154 60.9773 155.753 60.7832C159.145 60.2431 162.597 60.3443 165.956 61.0824L165.956 61.0986ZM37.2926 9.53269C37.1956 9.53269 29.8333 10.2201 29.834 9.7753C29.8347 9.33049 42.6039 8.90186 37.2926 9.53269ZM72.534 56.0196C75.4669 55.7742 78.4133 55.7959 81.3421 56.0843C78.426 56.0277 75.4871 56.2218 72.5489 56.0277L72.534 56.0196ZM149.576 14.3852C146.839 14.5031 144.097 14.403 141.373 14.086C144.111 14.0205 146.849 14.1204 149.576 14.3852ZM139.946 58.3003C139.587 58.6723 137.648 58.3731 137.387 58.3003C136.135 57.8151 136.566 58.6966 135.575 58.3003C134.397 57.8636 132.42 58.3407 132.055 58.1952C131.384 57.9364 126.016 56.982 139.946 58.3003ZM159.037 30.9322C158.882 30.2691 162.02 31.1749 160.997 31.741C160.632 31.9432 161.182 32.8651 160.534 32.5497C159.942 32.1222 159.433 31.5726 159.037 30.9322ZM165.585 64.091C165.585 64.3174 157.383 63.2822 157.435 62.9668C160.17 63.1791 162.892 63.5625 165.585 64.1152L165.585 64.091ZM161.101 69.8169C158.845 69.917 156.585 69.8142 154.345 69.5096C156.589 69.7198 158.865 69.178 161.094 69.8412L161.101 69.8169ZM93.7066 56.8769C93.6171 56.8769 91.9837 56.8769 91.9992 56.5615C91.9999 56.0763 91.7826 56.699 97.6451 56.521C97.8689 56.521 97.9806 56.6181 97.8608 56.9335C97.7409 57.2489 98.0852 56.513 93.6991 56.9093L93.7066 56.8769ZM25.6769 63.4439C25.2887 63.6704 25.0866 64.1233 24.5719 64.1961C22.2444 64.5277 22.386 64.552 22.3342 64.3498C22.2378 63.9454 24.4829 63.8888 25.6694 63.4763L25.6769 63.4439ZM29.2759 56.1086C30.4635 55.7989 31.6804 55.6415 32.9014 55.6395C31.6854 55.8013 30.5061 56.3917 29.2684 56.1409L29.2759 56.1086ZM166.955 46.9131C168.006 47.3741 169.192 47.277 170.213 47.7218C168.945 47.8512 167.133 47.366 166.955 46.9131ZM29.015 56.052C28.701 56.4887 26.5226 56.8607 25.9338 56.61L29.015 56.052ZM60.0594 63.4601C61.4392 63.4601 62.8195 63.1447 64.2065 63.3065C64.2136 63.5248 64.6761 63.4601 60.0669 63.4601L60.0594 63.4601ZM27.138 30.8917C25.2728 31.2557 25.3622 31.3043 25.3178 31.0859C25.1847 30.4146 26.5866 30.5602 27.1454 30.8917L27.138 30.8917ZM51.7422 35.9869C53.1968 35.8171 51.3007 36.8765 50.5335 36.2619C50.3696 36.1244 50.8477 35.6957 50.9742 35.8575C51.2497 36.1648 51.541 35.8575 51.7794 35.9869L51.7422 35.9869ZM29.491 33.2938C29.6924 33.2938 29.6919 33.6172 29.4906 33.5768C28.745 33.407 28.1173 34.1429 27.9988 33.6253C27.8803 33.1077 29.1479 33.2857 29.5283 33.2938L29.491 33.2938ZM66.0778 7.11454C65.2424 7.18732 64.3917 7.47036 63.572 7.03363C64.437 7.10642 65.2801 6.9366 66.1152 7.10644L66.0778 7.11454ZM57.2102 63.5572C56.1324 63.7131 55.0434 63.7565 53.9582 63.6866C55.0467 63.5071 56.1504 63.4637 57.2475 63.5572L57.2102 63.5572ZM152.658 13.4632C154.843 13.4632 154.812 14.4418 154.402 14.2153C153.801 14.021 153.218 13.7693 152.658 13.4632ZM142.16 11.6112C141.257 11.6959 140.348 11.6387 139.46 11.4413C142.451 11.4413 142.123 11.3847 142.16 11.6112ZM44.8836 62.3521C45.8459 62.2632 46.8079 62.3521 47.7627 62.2551C46.8079 62.3279 45.8601 62.6918 44.8836 62.3521ZM128.202 9.10404C128.202 8.79671 127.956 8.77245 130.402 9.10404L128.202 9.10404ZM165.114 45.8779C165.835 45.8151 166.56 45.9428 167.225 46.25C166.507 46.252 165.794 46.1264 165.114 45.8779ZM41.027 62.7808C41.0272 62.6676 42.7953 62.3602 42.7799 62.6514C42.7645 62.9425 42.638 62.7808 41.027 62.7808ZM101.355 59.287C100.783 59.4002 100.196 59.4002 99.6246 59.287C100.194 59.1454 100.786 59.1454 101.355 59.287ZM75.3791 67.9487C75.8079 67.8427 76.2574 67.9058 76.6467 68.1266C76.2514 68.1185 75.8108 68.4825 75.3865 67.9487L75.3791 67.9487ZM149.703 14.3852C150.203 14.2558 150.591 14.5631 150.956 14.2882C151.322 14.0132 151.097 15.2667 149.703 14.3852ZM155.447 60.8398C154.903 60.581 154.298 61.0824 153.762 60.7023C154.324 60.5899 154.903 60.6287 155.447 60.8155L155.447 60.8398ZM141.675 58.729C141.616 58.1548 141.556 58.8907 142.765 58.3893C142.914 58.3084 143.756 58.7047 141.675 58.7047L141.675 58.729ZM165.56 46.816C165.851 46.9454 166.127 47.2205 166.485 46.9617C166.537 46.9617 166.724 47.0749 166.843 47.1477C167.29 47.4388 165.351 47.3175 165.516 46.7918L165.56 46.816ZM124.488 8.8048C124.297 8.88836 124.091 8.92585 123.885 8.91468C123.679 8.90351 123.478 8.84397 123.295 8.74014C123.482 8.64183 123.688 8.59549 123.895 8.60538C124.102 8.61526 124.303 8.68107 124.481 8.79676L124.488 8.8048ZM69.3455 67.8435C69.5541 67.7407 69.7805 67.6876 70.0095 67.6876C70.2385 67.6876 70.4648 67.7407 70.6731 67.8435C70.2364 67.9718 69.7769 67.9774 69.338 67.8597L69.3455 67.8435ZM43.1755 62.4654C43.5931 62.5301 44.0185 62.3036 44.4658 62.4654C43.3316 62.8131 43.3316 62.8131 43.1755 62.4654ZM139.234 64.7865C138.764 64.9159 138.765 64.091 139.004 64.3336C139.242 64.5762 139.481 64.3336 139.525 64.6328C139.525 64.7946 139.383 64.8188 139.212 64.7865L139.234 64.7865ZM152.947 14.7087L151.351 14.5551C151.883 14.3909 152.451 14.4456 152.947 14.7087ZM53.7026 46.1205L52.6584 46.1205C52.82 46.0257 53.0008 45.976 53.1845 45.976C53.3681 45.976 53.5488 46.0257 53.7101 46.1205L53.7026 46.1205ZM158.182 76.4082C158.182 76.5538 158.383 76.5134 156.571 76.5134C156.571 76.3759 156.377 76.4082 158.182 76.4082ZM168.914 48.288C168.712 48.5872 168.497 48.1828 168.4 48.2395C168.303 48.2961 168.138 48.4416 168.139 48.1828C168.139 47.924 169.049 48.0777 168.914 48.288ZM152.255 60.7104L150.764 60.7104C151.254 60.586 151.765 60.586 152.255 60.7104ZM79.6485 56.424C79.8051 56.424 80.0515 56.238 80.0212 56.5696C80.0209 56.7556 79.7226 56.7152 79.6705 56.6505C79.1198 55.8741 78.8047 57.071 79.6485 56.4402L79.6485 56.424ZM54.3523 45.611L53.2932 45.611C53.6439 45.522 53.9726 45.1905 54.3523 45.611ZM150.887 76.7398L149.5 76.7398C149.957 76.6265 150.431 76.6265 150.887 76.7398ZM58.5603 63.4844C58.9265 63.3391 59.3282 63.3391 59.6939 63.4844C59.3136 63.4682 58.9406 63.5168 58.5603 63.4844ZM46.8055 35.5421C46.9173 35.5825 47.1413 35.4612 47.1409 35.72C47.1404 35.9788 46.8871 35.8332 46.7676 35.9222C46.4241 36.1729 46.5073 35.4531 46.8055 35.5421ZM140.475 58.2761L141.407 58.2761C141.123 58.8665 140.766 58.1224 140.475 58.2761ZM92.3131 46.6786C92.1379 46.7477 91.9508 46.7741 91.7652 46.756C91.5796 46.7378 91.4 46.6755 91.2393 46.5734C91.5997 46.5059 91.97 46.5422 92.3131 46.6786ZM45.9471 35.9464C45.8726 35.8979 45.6861 36.0031 45.664 35.8171C45.5903 35.2348 46.7078 35.9869 45.9471 35.9464ZM39.2001 57.8393C38.857 57.8393 38.6329 58.0496 38.3126 57.8393C38.6036 57.718 38.8202 57.532 39.2001 57.8393ZM76.9432 7.97991L76.9434 7.79386C77.2936 8.04457 78.9194 8.10931 76.9432 7.97991ZM102.466 59.2708C102.121 59.4211 101.737 59.4211 101.392 59.2708C101.742 59.1489 102.117 59.1489 102.466 59.2708ZM165.809 64.2527C166.145 64.0829 166.413 64.3821 166.726 64.3902C166.573 64.4447 166.411 64.4607 166.253 64.4369C166.094 64.413 165.942 64.35 165.809 64.2527ZM163.281 45.3603C163.005 45.3603 162.706 45.514 162.475 45.239L163.281 45.3603ZM65.2898 47.9645C65.2893 48.288 64.7077 48.1909 64.7155 47.9645C64.7233 47.738 65.2826 47.7704 65.2823 47.9645L65.2898 47.9645ZM61.835 63.1124C61.4692 63.3793 61.2534 63.0558 61.0072 63.1124C61.1343 63.0469 61.2732 63.013 61.4138 63.013C61.5544 63.013 61.6932 63.0469 61.8201 63.1124L61.835 63.1124ZM157.097 60.0068C157.418 59.7884 157.731 59.9501 158.044 60.0068L157.097 60.0068ZM121.723 59.8369C121.312 59.9016 121.052 59.7318 120.775 59.8369C120.916 59.7416 121.079 59.691 121.245 59.691C121.412 59.691 121.574 59.7416 121.715 59.8369L121.723 59.8369ZM121.946 59.8369C122.536 59.7318 122.536 59.7318 122.752 59.8369C122.485 59.9044 122.207 59.9072 121.939 59.845L121.946 59.8369ZM120.348 56.7313C120.221 56.8288 120.07 56.8813 119.915 56.8813C119.76 56.8813 119.609 56.8288 119.483 56.7313C119.766 56.6708 120.058 56.6736 120.34 56.7394L120.348 56.7313ZM35.5981 34.0378C35.8378 33.4151 36.1953 33.6981 36.0981 33.8922C36.0008 34.0863 35.8146 33.9407 35.5981 34.0378ZM141.539 12.5493C141.653 12.4647 141.791 12.4272 141.928 12.4435C142.065 12.4598 142.191 12.529 142.285 12.6383L141.539 12.5493ZM64.6423 61.2442L65.3434 61.2442C64.9105 61.4544 64.9105 61.4544 64.6349 61.2442L64.6423 61.2442ZM114.935 8.43281C114.621 8.79675 114.144 8.53794 114.353 8.43281C114.441 8.37893 114.54 8.35062 114.64 8.35062C114.741 8.35062 114.84 8.37893 114.927 8.43281L114.935 8.43281ZM98.4986 59.198C98.2895 59.3597 98.0729 59.5296 97.7528 59.198L98.4986 59.198ZM50.1033 6.45945C49.9426 6.5383 49.7684 6.57906 49.5922 6.57906C49.416 6.57906 49.2419 6.5383 49.0815 6.45945L50.1033 6.45945ZM48.6929 63.5653C48.8872 63.3469 49.0292 63.1286 49.2748 63.4359C49.1939 63.5113 49.0965 63.5629 48.9919 63.5856C48.8874 63.6082 48.7792 63.6012 48.678 63.5653L48.6929 63.5653ZM156.142 59.8855C156.26 59.818 156.393 59.7889 156.525 59.8018C156.658 59.8147 156.784 59.8691 156.888 59.9582L156.142 59.8855ZM69.7913 54.7499C69.6888 54.8328 69.562 54.8728 69.4346 54.8624C69.3071 54.852 69.1875 54.7919 69.0978 54.6933C69.2915 54.8227 69.5378 54.6852 69.7764 54.7499L69.7913 54.7499ZM45.6419 73.3511C45.4325 73.4171 45.2086 73.4029 45.008 73.3107C45.187 73.335 45.3963 73.0196 45.6269 73.3754L45.6419 73.3511ZM93.7226 46.7352C93.4989 46.7352 93.3271 46.9212 93.2008 46.6058C93.3724 46.5249 93.5141 46.5573 93.7226 46.7352ZM39.0913 46.4845C39.4046 46.4359 39.5539 46.3632 39.8371 46.4845C39.7236 46.5555 39.5949 46.5928 39.464 46.5928C39.3331 46.5928 39.2045 46.5555 39.0913 46.4845ZM47.551 35.72C48.0294 35.073 47.9461 35.8575 47.6926 35.8171C47.633 35.809 47.5808 35.7443 47.551 35.72ZM163.482 69.0243C163.661 69.0243 163.84 68.7413 164.064 69.0243C163.974 69.0767 163.874 69.1042 163.773 69.1042C163.671 69.1042 163.571 69.0767 163.482 69.0243ZM119.156 3.74207C118.962 4.17879 118.701 3.9685 118.753 3.87145C118.806 3.7744 118.962 3.75016 119.156 3.74207ZM39.4083 48.8299C39.1615 49.2342 38.8487 48.9593 38.9608 48.8299C39.0729 48.7005 39.2219 48.7894 39.4083 48.8299ZM119.523 59.748C119.523 59.6833 119.441 59.7075 120.268 59.7075C120.238 59.7722 120.321 59.748 119.523 59.748ZM92.5293 46.7352C92.5746 46.3874 93.2155 46.6867 92.6707 46.905C92.5887 46.897 92.5366 46.8646 92.5293 46.7352ZM43.6426 7.64829L43.1431 7.50272C43.4194 7.30053 43.546 7.42185 43.6426 7.60786L43.6426 7.64829ZM139.742 12.5574C140.003 12.331 140.16 12.4199 140.421 12.5574C140.313 12.6095 140.195 12.633 140.077 12.6259C139.959 12.6189 139.844 12.5816 139.742 12.517L139.742 12.5574ZM39.3269 57.8474C39.506 57.7908 39.6556 57.5482 39.8939 57.7665C39.7191 57.8659 39.5153 57.8863 39.327 57.8232L39.3269 57.8474ZM98.0769 57.0387C98.0249 56.8688 97.9655 56.7394 98.0403 56.61C98.115 56.4806 98.4428 56.7151 98.0769 57.0306L98.0769 57.0387ZM97.5086 57.9525C97.7104 57.6857 97.9341 57.6857 97.9561 57.9525L97.5086 57.9525ZM78.3581 56.521C78.5148 56.424 78.6045 56.2946 78.7461 56.3674C78.8877 56.4402 78.783 56.6343 78.3581 56.513L78.3581 56.521ZM113.368 9.05551C113.689 8.87759 113.853 8.90993 114.009 9.10403L113.368 9.05551ZM85.1003 47.1234C84.8985 47.3579 84.6074 47.4792 84.5632 47.1881L85.1003 47.1234ZM113.221 7.42997C113.221 7.22778 113.497 7.42992 113.527 7.48653C113.556 7.54315 113.236 7.64024 113.221 7.42997ZM27.0588 33.7952C27.134 33.4151 27.3202 33.5606 27.2976 33.7386C27.2598 34.0297 27.2003 33.9327 27.0588 33.7952ZM53.2795 63.7189C52.9662 63.7189 52.8095 63.7998 52.6011 63.5167L53.2795 63.7189ZM121.692 8.27105C121.901 8.27105 121.804 8.57031 121.692 8.54605C121.58 8.52178 121.521 8.27104 121.692 8.26295L121.692 8.27105ZM54.6956 45.425C54.8966 45.6676 54.8967 45.6272 54.6206 45.6757C54.5162 45.6838 54.3895 45.6191 54.6956 45.4169L54.6956 45.425ZM41.0279 57.4996C41.0283 57.2328 41.3416 57.2247 41.3414 57.3945C41.3411 57.5643 41.0352 57.6209 41.0279 57.4915L41.0279 57.4996ZM162.123 70.0272C161.854 70.1 161.593 70.2536 161.675 70.0272C161.758 69.8007 161.892 69.9867 162.123 70.0272ZM116.927 59.6267C116.927 59.562 116.868 59.5862 117.442 59.5862C117.442 59.6752 117.502 59.6267 116.927 59.6267ZM97.186 59.1738C97.2679 59.2708 97.4242 59.4245 97.1856 59.4083C97.0961 59.4002 96.9545 59.3113 97.186 59.1738ZM75.4212 8.27104C75.398 8.21986 75.3929 8.16126 75.4067 8.10617C75.4205 8.05109 75.4523 8.00332 75.4963 7.97181C75.5179 8.02329 75.5222 8.08139 75.5085 8.13604C75.4948 8.19069 75.4639 8.23843 75.4212 8.27104ZM74.7748 68.0296C74.775 67.9164 75.0361 67.8436 75.0433 68.0296C75.0505 68.2156 74.7298 68.2075 74.7748 68.0296ZM122.78 8.72395C122.886 8.19826 123.205 9.03127 122.907 8.87761C122.847 8.8857 122.818 8.80482 122.78 8.72395ZM125.562 8.72395C125.562 8.72395 125.652 8.78055 125.652 8.8129C125.591 9.34667 125.256 8.82908 125.562 8.72395ZM144.649 12.5332C144.888 12.5332 145.112 12.428 145.03 12.614C144.947 12.8 144.836 12.703 144.649 12.5574L144.649 12.5332ZM112.242 36.7957C112.362 36.6177 112.429 36.4641 112.638 36.5207C112.578 36.7229 112.518 36.828 112.242 36.7957ZM164.95 45.8051C164.741 46.161 164.563 45.5059 164.861 45.6919C164.897 45.7237 164.927 45.762 164.95 45.8051ZM54.9783 45.9183C54.7018 46.2499 54.4783 46.0801 54.553 45.983C54.6278 45.886 54.7769 45.9264 54.9783 45.9264L54.9783 45.9183ZM169.175 48.4416C169.131 48.288 169.384 48.3042 169.444 48.4012C169.503 48.4983 169.242 48.6034 169.175 48.4416ZM31.1398 51.8061C31.4456 51.8061 31.468 51.806 31.3858 51.895C31.3654 51.9119 31.3416 51.9231 31.3164 51.9277C31.2911 51.9323 31.2652 51.9301 31.2409 51.9214C31.2167 51.9126 31.1947 51.8975 31.1771 51.8774C31.1595 51.8573 31.1467 51.8328 31.1398 51.8061ZM64.5516 47.8836C64.6254 48.3446 64.484 48.1586 64.4769 47.9321C64.4769 47.9159 64.5292 47.8998 64.5516 47.8836ZM166.231 66.0077C166.478 65.8541 166.582 65.8783 166.731 66.0077L166.231 66.0077ZM167.183 67.6252C167.049 67.4554 167.057 67.3341 167.236 67.2127C167.243 67.3826 167.288 67.512 167.176 67.6494L167.183 67.6252ZM85.4656 47.2043C85.518 47.083 85.4658 47.091 85.6596 47.1477C85.5847 47.3175 85.637 47.3094 85.4581 47.2285L85.4656 47.2043ZM153.255 60.6457C153.419 60.5406 153.479 60.4597 153.493 60.6457C153.508 60.8317 153.433 60.9045 153.247 60.6699L153.255 60.6457ZM153.001 60.6457C152.822 60.7508 152.695 60.7589 152.569 60.6457C152.637 60.6162 152.711 60.6038 152.785 60.6094C152.858 60.615 152.93 60.6384 152.994 60.678L153.001 60.6457ZM41.7669 57.1276C41.7668 57.1761 41.8786 57.2327 41.8785 57.2813C41.8632 57.5158 41.3267 57.2489 41.7594 57.16L41.7669 57.1276ZM36.7078 35.0811C36.3801 34.79 36.768 34.701 36.7678 34.8546C36.7675 35.0083 36.7228 35.0164 36.7002 35.1134L36.7078 35.0811ZM80.5957 56.4402C80.4684 56.7637 80.3342 56.7152 80.1478 56.6505L80.5957 56.4402ZM37.3716 35.0326C37.3196 34.9275 37.2971 34.976 37.4093 34.8223C37.5209 34.9355 37.5434 34.887 37.3642 35.0002L37.3716 35.0326ZM31.1362 25.8209C31.032 25.6511 31.0245 25.7158 31.1366 25.5459C31.2408 25.7077 31.2186 25.6025 31.1288 25.7885L31.1362 25.8209ZM25.0094 56.3269C25.1366 56.1005 25.2109 56.2622 25.1512 56.3269C25.0914 56.3916 25.0541 56.3674 25.002 56.2946L25.0094 56.3269ZM149.1 13.5764C149.152 13.5375 149.213 13.5166 149.276 13.5166C149.338 13.5166 149.4 13.5375 149.451 13.5764C149.4 13.6178 149.339 13.6401 149.276 13.6401C149.212 13.6401 149.151 13.6178 149.1 13.5764ZM142.986 12.517C142.837 12.517 142.725 12.6059 142.539 12.4604C142.725 12.4442 142.845 12.3795 142.986 12.517ZM143.957 11.7082C143.886 11.7426 143.808 11.754 143.731 11.7411C143.654 11.7282 143.583 11.6915 143.525 11.6354C143.704 11.6354 143.801 11.5222 143.942 11.6759L143.957 11.7082ZM25.5466 56.1895C25.7182 56.1895 25.755 56.513 25.4644 56.3108L25.5466 56.1895ZM112.741 8.95042C112.861 8.82911 112.965 9.04743 112.831 9.06361C112.696 9.07978 112.734 9.03129 112.741 8.95042ZM71.9818 56.1571C72.1238 55.9792 72.318 55.8417 72.3027 56.0681C72.2874 56.2946 72.1533 56.1895 71.9818 56.1571ZM129.956 8.51366L129.955 8.59457C129.687 8.48943 129.687 8.51366 129.956 8.51366ZM111.737 59.3517C112.013 59.3112 112.072 59.5296 111.841 59.5377C111.61 59.5458 111.797 59.2465 111.737 59.3517ZM108.186 59.4407C108.03 59.2951 108.314 59.2789 108.351 59.4407L108.186 59.4407ZM118.188 59.6024C118.449 59.5053 118.613 59.7561 118.374 59.7722C118.307 59.7803 118.232 59.7884 118.188 59.6024ZM115.898 59.6024C116.129 59.5539 116.264 59.5054 116.383 59.6429C116.233 59.7318 116.107 59.6752 115.898 59.5862L115.898 59.6024ZM169.351 83.1289C169.731 83.4443 168.462 84.1561 169.2 84.4553C169.103 84.3582 168.184 85.4338 168.132 85.5309C169.296 85.4419 169.625 84.8111 169.9 85.2074C166.028 86.2588 168.28 86.5095 167.437 86.5985C165.042 86.8492 164.839 87.8197 165.466 87.5447C165.921 87.3425 166.398 87.6094 166.861 87.4477C167.324 87.2859 167.017 87.6741 167.054 87.8035C167.956 87.5151 168.876 87.3041 169.808 87.1727C169.903 87.9814 162.176 88.5314 162.079 88.588C172.09 91.734 101.541 87.7145 101.452 87.7792C101.503 88.1108 102.004 87.7792 101.809 88.2159C101.757 88.3292 100.876 88.3696 101.063 88.0461C101.991 86.5742 50.6846 86.9139 15.4943 93.0684C12.8683 93.5294 9.52911 92.1546 36.2203 88.6284C36.5933 88.5799 37.1685 88.0299 34.6023 88.3858C40.1597 83.0076 169.262 83.0238 169.351 83.1289ZM110.018 80.2417C110.234 80.4277 133.822 81.7702 133.882 81.8592C135.029 82.9753 165.209 80.3549 166.335 80.5814C165.06 80.0314 155.079 81.2688 154.982 81.285C150.879 81.9481 109.943 80.3064 110.018 80.2094L110.018 80.2417ZM133.98 81.4548C134.965 81.2122 135.031 81.374 140.065 81.5761C138.036 81.7232 136 81.6718 133.98 81.4225L133.98 81.4548ZM89.8408 77.3059C89.5281 76.942 83.2392 77.9206 83.6355 77.3059C83.9047 76.8611 82.456 78.0014 81.1514 77.5971C81.3456 77.4272 81.6214 77.5405 81.8531 77.2251C70.6482 77.224 59.4545 78.0346 48.3467 79.6513C48.6748 79.7322 75.7289 77.8397 78.4358 78.1147C79.5916 78.2279 78.3083 78.5757 79.1809 78.5919C79.3226 78.5919 79.5389 78.5918 79.4646 78.3654C79.3459 78.0014 79.5546 78.0823 79.7261 78.0823C98.3421 77.9853 89.8334 77.2655 89.8408 77.2736L89.8408 77.3059ZM80.4878 77.4758C80.3106 77.6129 80.1079 77.7065 79.8939 77.7498C79.68 77.7931 79.46 77.7851 79.2494 77.7265C79.1901 77.4677 79.2795 77.5081 80.4878 77.4677L80.4878 77.4758ZM78.25 77.7184C77.8097 77.8316 77.5037 77.961 77.2881 77.5405C77.624 77.403 77.8699 77.5486 78.2649 77.6861L78.25 77.7184ZM75.3113 77.7588C75.6173 77.6699 75.6173 77.6699 75.8035 77.8235C75.6393 77.9044 75.4829 77.7831 75.3263 77.7265L75.3113 77.7588ZM84.2634 0.927583C61.9476 1.34813 62.2775 0.280591 63.739 0.482779C64.9022 0.636442 84.2942 0.288679 84.2932 0.935679L84.2634 0.927583ZM29.4795 2.81198C29.4793 2.93329 29.3897 3.0061 29.3152 2.93331C27.4612 1.01657 10.6651 5.78011 30.3306 2.27823C31.6568 2.12475 32.9936 2.1166 34.3208 2.25394C34.1638 2.50465 29.5095 2.74729 29.4944 2.82007L29.4795 2.81198ZM132.023 2.86861C131.635 2.82008 131.688 2.48847 132.024 2.53699C132.359 2.58552 138.683 2.72304 138.736 2.72304C163.773 2.94949 138.839 3.59648 132.023 2.86861ZM43.3318 1.39667C43.8077 2.27012 47.8083 0.353366 36.8648 1.78485C29.1812 2.7877 43.2712 1.93044 43.3243 1.39667L43.3318 1.39667ZM37.2145 2.30246C36.9389 2.12454 37.3642 1.99513 37.3565 2.1407C37.3488 2.28628 37.304 2.30246 37.2071 2.30246L37.2145 2.30246ZM91.4963 6.69397C92.8832 6.86381 98.5591 6.77484 98.9013 7.34096C98.32 7.04173 98.5949 7.71301 98.3191 7.61596C97.9444 7.48095 97.5437 7.45312 97.1557 7.53511C96.9618 7.57554 96.9179 7.00942 96.6638 7.33292C96.4097 7.65642 96.1347 7.04986 95.8658 7.33292C95.8321 7.37559 95.7903 7.40983 95.7433 7.43332C95.6962 7.45681 95.6451 7.46896 95.5933 7.46896C95.5416 7.46896 95.4905 7.45681 95.4435 7.43332C95.3966 7.40983 95.3549 7.37559 95.3213 7.33292C94.7033 6.67783 94.7014 7.899 94.1205 7.38949C93.5395 6.87997 92.3976 7.3895 92.2635 7.30054C92.0698 7.17346 91.8545 7.09004 91.6303 7.0553C91.4061 7.02057 91.1776 7.03522 90.9586 7.09835C90.8849 6.57266 91.2576 6.66971 91.4888 6.69397L91.4963 6.69397ZM54.4302 1.03272C53.9973 1.23491 45.3978 1.30772 45.1953 2.06794C45.3156 1.41286 44.6963 1.61503 44.5403 1.19448C48.4332 1.37241 54.4609 0.474695 54.4228 0.992295L54.4302 1.03272ZM92.4862 7.97991C95.5753 7.89542 98.6661 8.01425 101.741 8.33576C100.63 8.43281 92.8512 8.26297 92.4862 7.97991ZM35.6356 57.5158C33.1065 58.0011 34.427 57.7099 34.1952 58.1224C21.807 58.1224 35.6358 57.4107 35.643 57.5158L35.6356 57.5158ZM106.702 7.67258C106.703 7.29247 108.067 7.44611 108.619 7.39758C110.268 7.26818 110.11 8.25486 109.424 8.05267C108.447 7.77769 106.731 8.24679 106.702 7.67258ZM179.033 59.2142C179.541 58.8422 183.282 60.3384 184.483 60.5567C184.236 60.9369 178.921 59.2951 179.033 59.2142ZM102.963 79.8939C105.746 79.5543 105.714 80.4358 106.028 80.0476C106.342 79.6594 106.521 79.902 106.774 79.9829C107.266 80.1365 106.281 80.3468 106.192 80.3873C105.498 80.7512 104.813 79.7079 104.126 80.3873C104.074 80.4439 103.776 80.0637 103.694 80.1284C103.328 80.4034 102.687 79.8939 102.963 79.8939ZM90.6156 7.05792C90.5775 7.58361 89.1244 6.76677 87.9156 7.15497C87.826 7.15497 87.1698 7.09027 87.1702 6.85573C87.1706 6.6212 90.6462 6.54031 90.6156 7.04173L90.6156 7.05792ZM183.411 49.6791C181.817 49.604 180.236 49.3327 178.699 48.8703C180.332 48.8541 181.853 49.4122 183.411 49.6791ZM106.813 8.55409C103.725 8.55409 105.366 8.63496 105.246 9.05551C105.201 9.20917 104.641 9.05553 104.679 8.86951C104.8 8.11738 104.44 8.79674 103.047 8.32767C107.283 8.32767 106.828 8.24677 106.827 8.55409L106.813 8.55409ZM152.724 4.93901C150.599 4.70447 148.585 4.53461 146.564 4.4133C148.332 4.25155 152.158 4.59124 152.739 4.93901L152.724 4.93901ZM169.75 85.9272C169.003 86.275 164.803 87.3344 171.556 85.0457C171.204 85.8949 170.377 85.6361 169.772 85.9272L169.75 85.9272ZM101.459 7.55125C100.339 8.23868 97.7308 7.02557 100.497 7.30863C101.72 7.42994 102.736 6.79103 102.048 7.91519C102.124 7.04175 101.57 7.96371 101.481 7.55125L101.459 7.55125ZM60.7402 0.830535C60.4193 0.968023 60.099 0.693044 59.8078 0.927581C59.7256 1.00037 59.5543 0.862901 59.6814 0.644538C60.0389 0.943776 60.3008 0.466586 60.6438 0.515111C61.3291 0.676905 62.0387 0.676905 62.7246 0.515111C63.2395 0.337186 62.7236 1.14593 61.5457 0.814345C61.1953 0.717295 61.4484 1.04888 61.3363 1.1702C61.3285 1.10141 61.3058 1.03568 61.2699 0.978375C61.234 0.921074 61.1861 0.873894 61.13 0.840704C61.074 0.807514 61.0114 0.789255 60.9475 0.787491C60.8836 0.785727 60.8202 0.800484 60.7626 0.830535L60.7402 0.830535ZM156.307 83.0238C154.249 83.2327 152.18 83.276 150.117 83.1532C152.183 83.129 154.271 83.1289 156.307 83.0238ZM141.864 10.3414C143.342 10.3062 144.822 10.3683 146.293 10.5274C144.814 10.5787 143.334 10.5166 141.864 10.3414ZM58.2716 0.798203C57.1671 1.17023 54.7584 0.992304 55.706 0.74968C56.3253 0.58793 58.3465 0.571745 58.2716 0.790107L58.2716 0.798203ZM143.447 4.27582C139.173 4.27582 139.591 4.33246 139.591 4.14645C143.865 4.14645 143.455 4.08981 143.447 4.27582ZM69.9157 46.816C69.1106 46.5977 71.7213 46.4117 71.8253 46.6381C72.0112 47.0182 70.7432 47.0506 69.9157 46.816ZM92.1508 7.82624C92.2403 7.82624 93.2242 8.19018 89.6744 7.97991C90.4954 7.62406 91.3229 7.85859 92.1508 7.82624ZM30.9901 61.5757C31.1624 61.1309 31.475 61.511 31.7362 61.4382C34.1836 60.6861 33.6978 61.3816 33.5188 61.3735C32.2137 61.325 30.8698 62.1823 31.0275 61.5596L30.9901 61.5757ZM139.352 4.26773C134.013 4.01702 134.952 4.01702 139.353 4.01702L139.352 4.26773ZM151.433 9.92898C150.164 9.98748 148.894 9.87063 147.652 9.58122C148.853 9.80767 150.099 9.59738 151.403 9.92088L151.433 9.92898ZM41.5904 36.6986C41.5538 36.2295 42.284 36.6986 43.56 36.2619C43.5987 36.3532 43.6186 36.4525 43.6185 36.553C43.6183 36.6535 43.5981 36.7529 43.5591 36.8442C42.7317 36.5773 41.6048 36.9736 41.5904 36.6905L41.5904 36.6986ZM166.07 82.9915C167.01 82.7246 168.047 82.9267 168.801 81.9481C168.651 82.7245 166.502 83.5818 166.055 82.9834L166.07 82.9915ZM103.756 7.87477C103.323 8.10122 103.16 7.22778 103.391 7.38144C103.622 7.5351 104.04 7.07412 104.137 7.38144C104.292 8.1174 104.45 7.5351 104.637 7.38144C104.859 8.33577 103.838 7.81006 103.741 7.86667L103.756 7.87477ZM68.0693 58.9311C67.2587 58.9273 66.4487 58.984 65.6451 59.101C65.9516 58.6804 67.4508 58.5834 68.0544 58.923L68.0693 58.9311ZM31.7046 48.4174C31.9732 48.3446 31.9801 48.6924 31.7041 48.7166C30.9582 48.7813 30.1292 49.4526 29.9956 49.0401C30.1301 48.8945 29.772 48.9754 31.6896 48.4497L31.7046 48.4174ZM107.087 80.1446C107.147 79.7726 107.296 80.2012 107.617 80.0799C108.169 79.8696 108.273 79.9263 108.362 80.5733C107.922 80.3469 107.019 80.5733 107.087 80.1446ZM83.6649 6.79102C83.6656 6.38664 84.2244 6.74248 84.7391 6.67778C85.2538 6.61308 85.1266 6.86382 85.0665 7.15497C84.4181 6.83955 83.657 7.10643 83.6649 6.79102ZM144.953 80.1204C144.048 80.2568 143.133 80.2893 142.223 80.2175C143.088 80.1527 143.999 79.8293 144.953 80.1204ZM34.9569 48.0453C35.4559 48.5225 36.0533 48.0454 36.6647 48.1586C36.4332 48.3527 34.8064 48.9107 34.9569 48.0453ZM28.2168 8.99893L25.7328 9.19303C26.5338 8.90753 27.387 8.84086 28.2168 8.99893ZM161.186 82.0776L163.648 81.7541C162.863 82.0746 162.019 82.1856 161.186 82.0776ZM86.8944 6.7344C87.2518 7.14686 86.1479 7.20347 86.0362 7.08216C85.7758 6.68587 85.7452 7.14686 85.5811 7.1873C85.5296 6.7344 86.7158 6.53221 86.8944 6.7344ZM36.951 60.5244C33.6156 61.5029 34.3034 60.4677 36.951 60.5244V60.5244ZM84.2932 0.943774C84.7503 0.679435 85.2755 0.588329 85.7853 0.684968C86.4558 1.13787 84.2557 1.04891 84.2932 0.943774ZM36.9137 60.4839C37.5666 60.2329 38.2595 60.1284 38.9503 60.1766C38.6593 60.2494 37.2114 60.8883 36.9137 60.4839ZM168.474 62.708C169.378 62.6072 170.291 62.7317 171.143 63.0719C170.271 62.9102 169.376 62.8293 168.474 62.708ZM36.5984 47.6653C36.4949 47.0668 40.0666 47.5763 36.9638 47.7057C36.8819 47.6167 36.665 47.9888 36.6133 47.6653L36.5984 47.6653ZM87.8359 0.927584C87.5491 1.05656 87.238 1.1085 86.9289 1.07893C86.6199 1.04936 86.3221 0.939179 86.0611 0.757778C86.6623 0.7184 87.2654 0.7756 87.8508 0.927584L87.8359 0.927584ZM166.766 81.3659C165.916 81.471 165.11 81.8673 164.222 81.7055C167.065 81.1475 166.752 81.1556 166.781 81.3659L166.766 81.3659ZM80.0341 1.24301C79.1986 1.33197 78.3712 1.02464 77.5356 1.24301C78.3658 1.06702 79.2193 1.06702 80.049 1.24301L80.0341 1.24301ZM97.7594 88.0219C98.3336 88.0785 98.9085 87.6822 99.594 88.1189C98.9909 88.2739 98.3599 88.2403 97.7743 88.0219L97.7594 88.0219ZM32.0717 37.8794C33.0265 37.8308 31.541 38.6881 31.1092 38.1786C31.4821 38.1786 31.7437 37.8389 32.0867 37.8389L32.0717 37.8794ZM40.1727 37.0706C39.9116 37.0706 39.8151 36.8118 40.1359 36.7471C42.3368 36.3104 40.9781 37.0949 40.1877 37.0302L40.1727 37.0706ZM169.185 84.4229C169.35 84.1156 168.626 84.1318 170.879 83.962C170.961 83.962 171.058 84.0186 171.02 84.245C170.406 84.1193 169.77 84.1809 169.185 84.4229ZM110.003 80.2094C109.712 80.4682 108.735 80.2498 108.765 80.0961C108.833 79.7564 109.735 79.8777 109.988 80.2255L110.003 80.2094ZM167.044 23.6858C166.45 23.4011 165.872 23.077 165.315 22.7153C165.248 22.8285 166.374 22.6991 167.044 23.6858ZM96.7528 87.8763C97.1177 88.1836 96.096 88.1836 95.6783 88.2079C95.8097 88.0425 95.9833 87.9228 96.1771 87.8638C96.3709 87.8048 96.5763 87.8092 96.7677 87.8763L96.7528 87.8763ZM22.6813 57.0872C22.4723 57.2004 21.7495 56.7394 23.6439 56.7394C23.3004 57.0386 22.965 56.9254 22.6962 57.0872L22.6813 57.0872ZM23.499 11.5869C24.0849 11.3784 24.7124 11.3504 25.3115 11.506C24.685 11.5222 24.0807 11.6112 23.4766 11.5869L23.499 11.5869ZM151.737 11.0127C153.9 11.2068 153.631 11.134 153.616 11.3201C151.401 11.1502 151.7 11.2473 151.715 11.0127L151.737 11.0127ZM130.062 2.57747C129.542 2.75138 128.986 2.75138 128.466 2.57747L130.062 2.57747ZM169.678 79.3117C170.254 79.0731 170.752 78.6569 171.112 78.1147C171.04 78.4689 170.853 78.7837 170.586 79.003C170.32 79.2223 169.99 79.3317 169.656 79.3117L169.678 79.3117ZM106.432 8.84528C106.618 8.84528 107.058 9.28197 105.984 9.12022C105.447 9.24962 105.126 8.97468 106.409 8.84528L106.432 8.84528ZM54.9068 1.47752C56.5927 1.29151 56.6301 1.24299 56.6521 1.47752C56.6741 1.71206 54.8693 1.6312 54.8845 1.44519L54.9068 1.47752ZM158.516 82.1584L160.508 82.1584C159.86 82.3887 159.163 82.3887 158.516 82.1584ZM22.583 34.3209C22.5834 34.0702 24.7544 33.6577 22.9258 34.4746C22.7842 34.4341 22.5976 34.515 22.583 34.3209ZM93.6667 77.3706C93.9503 77.3059 93.9722 77.6051 93.6662 77.7022C93.599 77.7426 91.8015 77.7912 93.6667 77.3706ZM34.1367 62.1014C34.2038 62.1014 34.3453 62.2227 34.2484 62.2308C33.8978 62.2712 34.173 62.7403 34.1284 62.6352C33.9947 62.3036 32.3464 62.2955 34.1367 62.1014ZM153.25 82.4091C152.596 82.5959 151.916 82.6507 151.244 82.5709L153.25 82.4091ZM56.9954 1.32386C57.4918 1.2388 57.9987 1.2608 58.4869 1.38857C57.9873 1.35622 57.4424 1.63119 56.9954 1.32386ZM88.7673 1.518C86.5298 1.518 88.2079 1.51797 88.2983 0.927584C88.3948 1.23491 88.4466 1.50992 88.7673 1.518ZM147.138 9.60551C146.504 9.38715 145.832 9.65403 145.206 9.40332C145.859 9.33305 146.518 9.41579 147.138 9.64593L147.138 9.60551ZM168.064 62.3117C167.549 62.6918 166.386 62.6595 166.931 62.3683C167.288 62.433 167.639 62.1823 168.064 62.3522L168.064 62.3117ZM94.5975 87.7711C94.8436 87.7711 95.0224 87.9329 95.343 87.941C94.8798 88.4829 93.9633 87.9005 94.5975 87.7711ZM155.748 11.8861C156.311 11.8336 156.878 11.8828 157.426 12.0318C156.873 12.1009 156.313 12.0514 155.778 11.8861L155.748 11.8861ZM38.3577 48.1748L36.8659 48.2718C37.3446 48.0351 37.8872 48.0005 38.3875 48.1748L38.3577 48.1748ZM30.9752 61.5596C30.3787 61.4949 29.8187 61.8992 29.2074 61.7375C29.3342 61.7213 31.356 61.2927 31.0051 61.5596L30.9752 61.5596ZM147.129 10.6083C147.583 10.6811 148.061 10.39 148.486 10.7539C148.061 10.6811 147.583 10.8671 147.159 10.5922L147.129 10.6083ZM94.1896 1.40477C93.3094 1.49373 93.2423 1.45329 93.4968 0.846729C93.5482 1.37242 94.041 1.05699 94.2045 1.38858L94.1896 1.40477ZM51.8041 48.6762C51.6145 48.8008 51.3995 48.8727 51.1783 48.8854C50.957 48.8981 50.7365 48.8512 50.5362 48.749L51.8041 48.6762ZM42.6202 59.9259C41.8746 59.7561 39.7411 60.0553 42.6205 59.7318L42.6202 59.9259ZM102.972 8.48133L101.771 8.38428C102.383 8.08505 102.629 8.11738 102.987 8.46514L102.972 8.48133ZM20.5686 34.7899C20.2472 35.2186 19.8821 34.9436 19.5688 34.976C19.7085 34.852 19.8749 34.7684 20.0523 34.7331C20.2298 34.6977 20.4125 34.7117 20.5835 34.7738L20.5686 34.7899ZM36.0176 37.5639C35.6331 37.6555 35.237 37.6747 34.8467 37.6206C35.0164 37.4843 35.2191 37.4048 35.4299 37.3919C35.6406 37.3789 35.8501 37.4331 36.0326 37.5478L36.0176 37.5639ZM44.2387 59.8774C43.7766 59.6509 43.3288 59.8774 42.8739 59.8288C43.0906 59.7178 43.3281 59.6629 43.5675 59.6685C43.807 59.6741 44.0419 59.7401 44.2536 59.8612L44.2387 59.8774ZM36.0312 62.0044L37.1949 61.8669C36.8739 62.0448 36.5081 62.2713 36.0835 61.9882L36.0312 62.0044ZM155.515 8.6269C156.018 8.76179 156.533 8.83768 157.051 8.85333C156.801 8.92306 156.542 8.93827 156.287 8.898C156.032 8.85773 155.788 8.76281 155.567 8.61881L155.515 8.6269ZM58.2119 0.814344C58.63 0.498932 59.0394 1.01653 59.4574 0.814344C58.8156 1.04888 58.1894 0.911436 58.2641 0.806298L58.2119 0.814344ZM105.793 7.34906C106.539 7.34906 105.619 8.51366 105.636 7.70491C105.77 7.59169 105.606 7.34097 105.845 7.34097L105.793 7.34906ZM45.9618 59.6752C45.4924 59.814 45.0003 59.8361 44.5223 59.7399C44.7833 59.748 45.7832 59.4406 45.9618 59.6752ZM130.435 2.68261C130.546 2.60851 130.671 2.56462 130.801 2.55476C130.931 2.5449 131.061 2.56936 131.181 2.62599C130.964 2.88479 130.696 2.73113 130.435 2.68261ZM143.671 4.30011C144.055 4.20002 144.458 4.23977 144.819 4.4133C144.431 4.50202 144.027 4.44795 143.671 4.25963L143.671 4.30011ZM30.4591 62.5301C30.1381 62.6918 29.832 62.9183 29.4146 62.708C29.7508 62.3683 30.1382 62.6595 30.4591 62.5058L30.4591 62.5301ZM94.4573 77.3625C94.9496 77.3625 94.8593 77.8559 94.6058 77.8073C94.0242 77.6779 94.1814 77.3302 94.4574 77.3383L94.4573 77.3625ZM59.0592 59.3031C59.5483 59.1636 60.0621 59.1636 60.5508 59.3031L59.0592 59.3031ZM39.1884 36.9493C39.1888 36.7148 39.4942 36.9493 39.651 36.8037C39.8079 36.6581 39.9635 37.2647 39.561 37.1434C39.4193 37.103 39.1581 37.2081 39.1884 36.9493ZM145.893 4.5023C144.797 4.40525 144.938 4.43759 144.946 4.34054C146.05 4.34054 145.901 4.28394 145.908 4.5023L145.893 4.5023ZM163.055 27.3737L162.086 27.0422C162.262 26.9769 162.452 26.9738 162.629 27.0334C162.805 27.093 162.96 27.2122 163.07 27.3737L163.055 27.3737ZM71.9328 58.8664C71.4774 59.1576 71.1122 58.9635 70.7765 59.0201C71.0829 58.6642 71.4405 58.8664 71.9328 58.8664ZM150.207 82.3202L149.051 82.4091C149.225 82.284 149.426 82.21 149.634 82.1944C149.842 82.1788 150.05 82.2221 150.237 82.3202L150.207 82.3202ZM145.643 82.393C145.456 82.393 145.173 82.6518 145.151 82.393C145.129 81.7864 146.62 82.5062 145.673 82.3606L145.643 82.393ZM25.9902 82.2716C25.6299 82.4264 25.2363 82.4657 24.8564 82.3849C25.2167 82.2301 25.6102 82.1908 25.9902 82.2716ZM39.2714 8.02843C39.4879 7.89903 39.1818 8.11737 39.8452 8.31147C39.6581 8.72393 38.9205 8.26296 39.3087 8.02843L39.2714 8.02843ZM156.793 58.7209C156.615 58.7696 156.429 58.7775 156.248 58.7441C156.067 58.7107 155.895 58.6367 155.742 58.5268L156.793 58.7209ZM19.3003 35.0326C19.0784 35.1846 18.8107 35.2368 18.5542 35.1782C18.778 35.1377 18.9502 34.7253 19.3003 35.0326ZM75.0812 58.2275C75.3496 58.2761 75.5442 57.8636 75.9688 58.1871C75.5884 58.2113 75.3494 58.4216 75.0812 58.2275ZM75.5175 46.4521C75.8447 46.4326 76.1715 46.4963 76.4718 46.6381C76.1884 46.63 75.8748 46.8808 75.5175 46.4521ZM129.514 56.7718L128.462 56.699C128.828 56.3836 129.156 56.7394 129.514 56.7718ZM119.368 76.9905C119.35 76.9941 119.331 76.9932 119.313 76.9879C119.295 76.9826 119.278 76.9731 119.264 76.9599C119.25 76.9468 119.238 76.9304 119.231 76.9119C119.223 76.8934 119.219 76.8733 119.22 76.853C119.22 76.853 119.309 76.7479 119.317 76.7479C120.21 77.5081 120.63 76.578 119.368 76.9905ZM45.9768 59.6752C46.3572 59.4621 46.7736 59.3355 47.2005 59.3031C46.6477 59.9097 45.8428 59.5134 45.9768 59.6752ZM148.864 83.1289C148.721 83.203 148.564 83.2374 148.407 83.2289C148.249 83.2204 148.096 83.1694 147.961 83.0804C148.304 83.1289 148.603 82.9591 148.893 83.1289L148.864 83.1289ZM34.5489 60.856C34.5477 61.6081 33.1389 61.0986 34.5489 60.856V60.856ZM93.5034 81.6408L92.8322 81.5923C93.228 81.2283 93.2802 81.2364 93.5332 81.6085L93.5034 81.6408ZM52.2652 58.9958C51.8613 59.0484 51.4532 59.0484 51.0494 58.9958L52.2652 58.9958ZM40.0754 56.1409C40.075 56.3836 39.001 56.3997 39.2847 56.2218C39.5684 56.0439 40.0532 56.0358 40.1053 56.1329L40.0754 56.1409ZM52.0204 48.7166C52.3635 48.7166 52.692 48.4902 53.0347 48.7166C52.7206 48.7996 52.3926 48.7968 52.08 48.7085L52.0204 48.7166ZM144.225 82.9106C144.65 83.0723 145.098 82.9106 145.634 83.0723C144.068 83.0642 144.277 83.1289 144.285 82.9025L144.225 82.9106ZM82.555 1.22682L83.45 1.22682C83.1812 1.33783 82.8848 1.34071 82.6146 1.23491L82.555 1.22682ZM33.8171 37.8389C33.9005 37.7356 34.0101 37.6613 34.1323 37.6253C34.2544 37.5893 34.3836 37.5933 34.5035 37.6367C34.5107 37.8389 34.6301 37.7581 33.8171 37.8389ZM27.7358 82.0452C27.6045 82.1424 27.4518 82.2003 27.2933 82.2131C27.1348 82.2259 26.9761 82.1931 26.8332 82.118C27.1219 82.0042 27.4311 81.9654 27.7359 82.0047L27.7358 82.0452ZM147.182 9.92898C147.488 9.76723 147.749 9.92898 148.039 10.0341C147.898 10.0783 147.749 10.0881 147.603 10.0629C147.458 10.0378 147.319 9.97826 147.197 9.88855L147.182 9.92898ZM168.376 63.2175C168.816 63.4682 169.323 63.1367 169.756 63.4359C169.883 63.2418 168.935 63.5087 168.391 63.1771L168.376 63.2175ZM147.314 82.2069C147.592 82.1583 147.876 82.1721 148.149 82.2474C148.09 82.3006 148.022 82.3407 147.949 82.3654C147.876 82.3902 147.799 82.3991 147.723 82.3916C147.647 82.384 147.573 82.3603 147.505 82.3217C147.438 82.283 147.378 82.2303 147.329 82.1665L147.314 82.2069ZM29.4602 38.5992C29.2438 38.6639 29.655 38.0169 30.1094 38.4051C29.9375 38.6477 29.6841 38.494 29.4752 38.5587L29.4602 38.5992ZM143.129 82.8944L143.986 82.8944C143.516 83.1289 143.516 83.1289 143.129 82.8944ZM60.8044 59.3193C61.0507 59.1576 61.2674 58.923 61.6845 59.2546L60.8044 59.3193ZM94.0454 87.9006C94.2241 88.0542 93.8805 88.4101 93.4562 87.9006C93.7321 87.9329 93.8517 87.7712 94.0454 87.9006ZM94.4733 81.4306C95.4205 81.4306 95.3011 81.4306 95.2935 81.5195C94.3389 81.5114 94.4657 81.5114 94.4733 81.3982L94.4733 81.4306ZM171.687 63.7189L172.626 63.8241C172.474 63.8941 172.308 63.9212 172.144 63.9029C171.98 63.8845 171.822 63.8212 171.687 63.7189ZM77.7415 78.5514C77.9876 78.5514 78.2266 78.3169 78.5396 78.5029C78.4152 78.5662 78.2801 78.601 78.1427 78.6052C78.0054 78.6094 77.8689 78.5828 77.7415 78.5271L77.7415 78.5514ZM126.767 81.6004L127.424 81.5114C127.169 81.9401 126.968 81.7622 126.767 81.5761L126.767 81.6004ZM171.703 76.8368C171.355 77.007 170.964 77.0496 170.592 76.9582C170.95 76.9663 171.278 76.7156 171.703 76.8126L171.703 76.8368ZM28.9742 81.8268C28.6684 81.8268 28.392 82.1261 28.0193 81.9643C28.3093 81.7858 28.6518 81.7365 28.9742 81.8268ZM105.166 7.59168C105.165 7.82621 104.949 8.02844 104.771 7.2763C104.875 7.38144 105.166 7.29244 105.166 7.59168ZM138.736 2.4238C138.527 2.47233 138.311 2.60171 138.08 2.351C138.185 2.29838 138.302 2.27738 138.417 2.29018C138.533 2.30298 138.643 2.34914 138.736 2.4238ZM150.648 82.1018C151.61 82.1827 151.491 82.1018 151.483 82.2878C150.491 82.2312 150.618 82.3202 150.625 82.1018L150.648 82.1018ZM22.5889 68.353C22.8128 68.256 23.0145 68.0538 23.3796 68.2318C23.263 68.3214 23.1282 68.3793 22.9866 68.4004C22.845 68.4215 22.7009 68.4053 22.5665 68.353L22.5889 68.353ZM54.0564 48.7409C53.9369 48.8622 53.3111 48.4417 54.6086 48.563C54.4366 48.8945 54.191 48.571 54.0341 48.7409L54.0564 48.7409ZM136.853 79.9829C136.979 79.923 137.115 79.8921 137.253 79.8921C137.39 79.8921 137.526 79.923 137.651 79.9829C137.315 80.2174 137.085 80.0233 136.853 79.9829ZM148.305 82.5386C149.581 82.5386 149.454 82.5386 149.454 82.5952C148.156 82.5952 148.305 82.6275 148.305 82.5386ZM29.796 62.1014C29.4676 62.2146 29.2807 62.5058 28.9753 62.2713C29.2437 62.336 29.4381 62.0286 29.796 62.1014ZM19.8451 58.3892C19.8451 58.3892 19.9046 58.4621 19.8897 58.4863C19.7699 58.7856 19.4868 58.5348 19.3002 58.648C19.4868 58.5672 19.5991 58.3084 19.8451 58.4054L19.8451 58.3892ZM163.702 33.7952C163.791 33.7952 165.191 35.1296 163.702 33.7952V33.7952ZM92.2718 77.5162C92.4808 77.4353 92.5248 77.864 92.152 77.8073C92.0625 77.8073 91.9581 77.8073 91.9583 77.6537C91.9586 77.5 92.1599 77.5485 92.2718 77.5081L92.2718 77.5162ZM28.8784 38.6477C28.7513 38.8499 28.5576 38.6962 28.3786 38.7205C28.6851 38.2757 28.9607 38.4698 28.8784 38.6477ZM170.908 84.8354C171.042 84.4148 171.579 84.9082 172.079 84.3906C171.944 85.1508 170.901 84.5361 170.908 84.8354ZM41.0472 73.618C40.7116 73.618 40.3832 73.7312 40.0253 73.707C40.1778 73.6074 40.3494 73.5475 40.5268 73.532C40.7041 73.5166 40.8823 73.546 41.0472 73.618ZM91.2291 1.12977C91.1915 1.29961 90.6174 1.19446 90.4834 1.01653C91.1696 1.01653 91.2666 0.976109 91.2291 1.12977ZM93.8616 81.5114C93.7573 81.3982 93.8994 81.1637 94.2869 81.4063C94.1674 81.5114 94.0626 81.7379 93.8616 81.5114ZM100.174 79.8939C100.173 80.2013 100.554 80.0961 100.598 80.363C100.166 80.2579 100.166 80.2579 100.174 79.8939ZM140.652 82.9672C140.943 83.0885 141.25 82.6194 141.555 82.9672L140.652 82.9672ZM139.37 82.8297C139.646 82.8297 139.914 83.0238 140.19 82.8782C139.907 82.9591 139.623 83.0481 139.355 82.7974L139.37 82.8297ZM49.7723 74.3135C50.0562 73.9496 50.4212 74.2569 50.7346 74.1275C50.4188 74.2169 50.097 74.2791 49.7723 74.3135ZM169.93 85.1912C170.475 84.617 171.885 84.7464 169.93 85.1912V85.1912ZM166.141 24.1953L165.537 23.6696C165.97 23.8152 165.97 23.8152 166.118 24.1953L166.141 24.1953ZM153.862 58.5429C153.788 58.454 154.43 58.2679 154.668 58.5429C153.892 58.4944 154.086 58.8664 153.84 58.5429L153.862 58.5429ZM125.372 81.6408C125.123 81.704 124.862 81.6785 124.627 81.5681C124.744 81.5179 124.871 81.4983 124.997 81.511C125.122 81.5236 125.243 81.5681 125.35 81.6408L125.372 81.6408ZM25.462 62.5948C25.2823 63.0315 25.0813 62.7484 24.8502 62.708L25.462 62.5948ZM56.8114 46.9374L56.1175 47.0991C56.2821 46.808 56.5355 46.8969 56.789 46.9374L56.8114 46.9374ZM159.196 15.2587C159.397 15.3961 159.696 15.2182 159.852 15.5417C159.659 15.3476 159.36 15.5255 159.196 15.2587ZM56.2034 58.826C56.4647 58.6481 56.6583 58.826 56.8597 58.826C56.7585 58.8893 56.645 58.9258 56.5284 58.9329C56.4118 58.9399 56.2953 58.9171 56.1884 58.8664L56.2034 58.826ZM29.8412 52.356L29.0432 52.356C29.5879 52.2266 29.5879 52.2266 29.8263 52.3964L29.8412 52.356ZM48.8862 59.2223L47.8343 59.4326C47.9838 59.3203 48.1538 59.2441 48.3327 59.2092C48.5116 59.1743 48.6953 59.1815 48.8713 59.2304L48.8862 59.2223ZM147.708 83.1289L146.902 83.0642C147.028 82.99 147.171 82.9566 147.314 82.9681C147.457 82.9796 147.593 83.0354 147.708 83.1289ZM138.96 2.36719C139.214 2.18117 139.407 2.36718 139.594 2.40761C139.496 2.46396 139.386 2.49204 139.275 2.48921C139.164 2.48638 139.055 2.45271 138.96 2.39142L138.96 2.36719ZM138.09 80.6056C137.859 80.6056 137.59 80.8402 137.3 80.5571L138.09 80.6056ZM34.7482 62.1419C34.9422 62.0852 35.1215 61.8992 35.3523 62.1419C35.1137 62.1014 34.9716 62.3683 34.7258 62.1661L34.7482 62.1419ZM33.4441 37.8389C33.4434 38.3161 32.6986 37.661 33.2504 37.75C33.325 37.7338 33.4519 37.6367 33.4441 37.8389ZM120.429 81.01C120.345 81.0593 120.247 81.0726 120.154 81.0471C120.061 81.0216 119.981 80.9593 119.929 80.8725C120.108 80.8644 120.31 80.7027 120.429 81.01ZM52.8706 1.53414C52.9628 1.47038 53.0724 1.44285 53.181 1.4561C53.2896 1.46935 53.3906 1.52259 53.4672 1.60695C53.2284 1.68783 53.0642 1.72824 52.8706 1.53414ZM91.8785 0.798206C91.9628 0.742475 92.0596 0.712957 92.1583 0.712957C92.257 0.712957 92.3537 0.742475 92.4379 0.798206C92.4028 0.841234 92.3597 0.875695 92.3114 0.899299C92.2632 0.922904 92.2109 0.935087 92.158 0.935087C92.1051 0.935087 92.0528 0.922904 92.0046 0.899299C91.9564 0.875695 91.9134 0.841234 91.8785 0.798206ZM103.16 7.4542C103.16 7.50273 103.1 7.58359 103.062 7.64829C102.482 7.10643 103.115 7.33289 103.16 7.4542ZM158.196 81.7864C158.274 81.7177 158.37 81.6769 158.47 81.6696C158.57 81.6624 158.67 81.689 158.756 81.7459C158.703 81.9077 158.822 81.8916 158.196 81.7864ZM48.9072 74.2812C49.1868 74.1712 49.493 74.1712 49.7723 74.2812C49.4441 74.3216 49.2052 74.451 48.9072 74.2812ZM31.628 49.6305C31.8071 49.582 31.814 49.9864 31.5604 49.9702C31.3068 49.954 31.3893 49.6952 31.628 49.6305ZM62.4457 58.9716C62.5801 58.8907 62.4004 59.3597 61.9829 59.2465L62.4457 58.9716ZM28.6132 27.1553C28.6953 27.0874 28.7931 27.0454 28.8958 27.034C28.9985 27.0226 29.102 27.0422 29.195 27.0907C29.1182 27.1699 29.0195 27.2192 28.9141 27.2309C28.8088 27.2426 28.7029 27.216 28.6132 27.1553ZM144.636 2.47233C144.42 2.49791 144.202 2.49791 143.987 2.47233C144.703 2.38337 144.636 2.3591 144.636 2.47233ZM149.913 9.12832C150.174 8.85335 150.338 9.2092 150.539 9.12832C150.339 9.21732 150.114 9.21732 149.913 9.12832ZM40.135 56.1571C40.337 55.8013 40.4707 56.1086 40.7466 56.1571C40.2016 56.5292 40.0458 56.0277 40.1127 56.1571L40.135 56.1571ZM137.431 2.3429C137.225 2.4187 137.003 2.4187 136.797 2.3429C137.058 2.25394 137.245 2.0841 137.431 2.3429ZM100.116 88.0704C100.191 88.1836 99.9366 88.4262 99.624 87.9814C99.8178 88.038 99.9971 87.9006 100.116 88.0947L100.116 88.0704ZM37.4355 37.0625C37.6667 37.0625 37.6066 37.3456 37.4351 37.3617C37.4134 37.3734 37.3894 37.379 37.3653 37.3778C37.3412 37.3766 37.3177 37.3688 37.2972 37.355C37.2767 37.3412 37.2598 37.322 37.2481 37.2991C37.2364 37.2762 37.2303 37.2505 37.2303 37.2243C37.2303 37.1981 37.2366 37.1724 37.2483 37.1495C37.2601 37.1266 37.2771 37.1074 37.2976 37.0936C37.3182 37.0798 37.3416 37.0719 37.3658 37.0708C37.3899 37.0696 37.4139 37.0751 37.4355 37.0868L37.4355 37.0625ZM38.1814 37.0625C38.5913 37.2162 38.1435 37.4184 38.0917 37.1596C38.1067 37.1272 38.1441 37.0302 38.1665 37.0302L38.1814 37.0625ZM170.643 63.7189C170.851 63.7675 171.068 63.5815 171.388 63.7189L170.643 63.7189ZM38.6738 36.925C38.8155 36.925 38.8671 37.3052 38.6733 37.2567C38.4794 37.2081 38.5173 36.8684 38.6515 36.8927L38.6738 36.925ZM162.717 76.0524C162.919 75.8825 163.083 75.9068 163.389 76.0039C163.105 76.0928 162.956 76.2222 162.717 76.0524ZM157.202 83.0238C156.948 83.0966 156.754 83.1613 156.576 82.9267C156.762 83.0319 156.971 82.8135 157.202 83.0238ZM20.7552 58.2599C20.9864 58.2599 21.0612 58.1143 21.2697 58.3084C21.113 58.3731 21.0084 58.5106 20.7552 58.2599ZM62.7813 59.0039C62.8626 58.9658 62.9502 58.9463 63.0387 58.9463C63.1272 58.9463 63.2147 58.9658 63.2959 59.0039C63.1318 59.0039 62.9673 59.2789 62.7813 59.0039ZM136.486 10.1635C136.402 10.209 136.307 10.227 136.213 10.2156C136.119 10.2041 136.03 10.1636 135.957 10.0988C136.043 10.0595 136.137 10.0448 136.23 10.0561C136.322 10.0675 136.411 10.1045 136.486 10.1635ZM90.3931 77.0471C90.3269 76.4325 91.1386 77.2332 90.4824 77.128C90.4675 77.1361 90.378 77.1442 90.3632 77.0471L90.3931 77.0471ZM166.577 83.1936C166.404 83.7759 165.756 83.2745 165.876 83.4039C166.584 83.2179 166.629 83.2988 166.547 83.1936L166.577 83.1936ZM37.2183 56.521C37.0913 56.6828 36.9423 56.521 36.7857 56.521C37.0771 56.2218 37.3453 56.3835 37.2183 56.521ZM154.839 11.8053C154.093 11.8053 154.152 11.8053 154.16 11.7406C154.928 11.7406 154.839 11.7082 154.839 11.8053ZM26.2484 27.4303C26.0846 27.3009 26.1894 27.0583 26.6141 27.2686C26.4648 27.3818 26.3974 27.5435 26.2484 27.4303ZM163.709 33.7952C163.5 33.8518 163.604 34.0944 163.47 34.2562C163.374 33.7224 163.277 33.4474 163.702 33.8033L163.709 33.7952ZM38.448 57.0872C38.2463 57.3379 38.0599 57.2894 37.8737 57.0872C37.8662 57.1519 38.2469 56.9416 38.4481 57.071L38.448 57.0872ZM169.778 77.3383C169.864 77.2866 169.96 77.2594 170.058 77.2594C170.156 77.2594 170.252 77.2866 170.338 77.3383C170.166 77.2332 169.994 77.6295 169.778 77.3383ZM32.5105 62.2793C32.585 62.3521 32.4206 62.522 32.0406 62.3279C32.2496 62.1985 32.3765 62.1418 32.5105 62.2793ZM170.889 77.6942C171.001 77.4515 171.18 77.4596 171.449 77.5243C171.225 77.6618 171.083 77.7831 170.889 77.6942ZM99.1995 7.39758C99.3038 7.47037 99.0273 7.80199 98.8563 7.47849C98.9832 7.43805 99.0729 7.30053 99.1995 7.39758ZM36.503 37.2324C36.6745 37.2324 36.6891 37.4346 36.5025 37.5074C36.316 37.5802 36.3538 37.2324 36.503 37.2324ZM155.018 82.4415C154.839 82.2312 154.645 82.579 154.451 82.4415C154.832 82.1018 155.018 82.3202 155.018 82.4415ZM64.3252 58.9878C64.3923 58.9878 64.4743 58.9878 64.4593 59.0929C64.4362 59.5539 64.0641 58.9958 64.3476 58.9716L64.3252 58.9878ZM155.775 13.8514C155.566 13.7787 155.432 13.7706 155.35 13.536C155.442 13.538 155.531 13.5689 155.606 13.6249C155.682 13.681 155.74 13.7597 155.775 13.8514ZM132.192 79.9748L131.603 79.9182C131.827 79.7241 131.901 79.8939 132.192 79.9748ZM33.093 57.1034C33.0933 56.8769 33.4213 56.9659 33.3764 57.1034C33.3763 57.1441 33.3613 57.1832 33.3347 57.212C33.3081 57.2408 33.272 57.257 33.2344 57.257C33.1968 57.257 33.1608 57.2408 33.1343 57.212C33.1078 57.1832 33.0929 57.1441 33.093 57.1034ZM140.079 2.41571C140.258 2.41571 140.414 2.31057 140.563 2.41571C140.407 2.47232 140.228 2.5532 140.079 2.41571ZM39.9524 72.6152C40.1837 72.5667 40.1978 73.1085 39.8477 72.8174C39.833 72.6718 39.8704 72.6152 39.9524 72.6152ZM91.5812 80.3306C91.2009 80.2578 91.5818 79.9586 91.7305 80.2821C91.6708 80.2821 91.626 80.3145 91.5812 80.3064L91.5812 80.3306ZM41.2316 56.0681C41.2312 56.3108 40.8808 56.238 40.6647 56.0681L41.2316 56.0681ZM87.1713 1.4452C87.0443 1.59886 86.9399 1.57457 86.8209 1.37239C86.9627 1.31577 87.0895 1.26727 87.1713 1.4452ZM37.4943 56.521C37.6735 56.3997 37.8528 56.1571 38.0462 56.521L37.4943 56.521ZM81.6375 1.28343C81.7046 1.34005 81.8096 0.9357 82.0329 1.21068C81.9807 1.26326 81.9154 1.29815 81.8452 1.31108C81.7749 1.32401 81.7027 1.3144 81.6375 1.28343ZM55.1088 1.09744C55.0391 1.14774 54.9542 1.16658 54.872 1.14996C54.7899 1.13334 54.717 1.08259 54.6689 1.00849C54.8031 1.04084 54.975 0.822461 55.1088 1.09744ZM57.8605 48.5225C57.771 48.5225 57.8159 48.4012 57.816 48.3365C57.8092 47.9645 58.3679 48.3527 57.8605 48.5225ZM135.608 9.00699C135.832 8.8695 135.981 8.94229 136.205 9.00699C135.974 9.0636 135.817 9.16065 135.608 9.00699ZM28.3851 58.2032C28.4897 58.0334 28.6313 58.1224 28.8104 58.09C28.5934 58.4782 28.2655 58.3488 28.3851 58.2032ZM126.469 81.6974C126.394 81.7411 126.306 81.7529 126.223 81.7305C126.141 81.7081 126.069 81.6531 126.021 81.5761C126.163 81.6004 126.342 81.4225 126.469 81.6974ZM175.001 48.0858C175.202 48.1262 175.351 48.0858 175.493 48.2637C175.306 48.3527 175.209 48.2233 175.016 48.0858L175.001 48.0858ZM27.7394 51.4987C27.7914 51.5877 27.6867 51.7575 27.3664 51.4987C27.5305 51.4987 27.6427 51.3127 27.7542 51.4987L27.7394 51.4987ZM21.4564 34.6039C21.2618 35.0407 21.0389 34.4745 21.3819 34.4988C21.4043 34.5069 21.4638 34.6039 21.4564 34.6039ZM132.23 8.72395C132.409 8.72395 132.439 8.8695 132.185 8.95847C131.931 9.04743 131.969 8.72395 132.23 8.72395ZM129.917 56.7879C129.946 56.7551 129.983 56.73 130.023 56.7143C130.063 56.6987 130.105 56.693 130.147 56.6977C130.19 56.7023 130.23 56.7172 130.267 56.7412C130.303 56.7653 130.334 56.7978 130.357 56.8365L129.917 56.7879ZM19.0032 20.0464L18.5183 20.1597C18.6303 20.0464 18.7873 19.7957 19.0032 20.0464ZM32.6447 62.2955L33.0176 62.2955C32.8832 62.4411 32.734 62.4249 32.6448 62.2551L32.6447 62.2955ZM52.9812 58.9797L53.5555 58.9311C53.4788 59.0119 53.3765 59.0577 53.2697 59.0592C53.1629 59.0607 53.0597 59.0178 52.9813 58.9392L52.9812 58.9797ZM151.163 11.1502C151.282 11.2311 151.357 11.0531 151.543 11.1502C151.401 11.223 151.282 11.2553 151.163 11.1502ZM20.8834 57.3622C20.4881 57.3622 21.0034 56.9578 21.0253 57.2246C21.0251 57.354 20.9505 57.3622 20.8834 57.3622ZM41.4405 55.9954C41.4406 55.9145 41.4855 55.8336 41.5601 55.8579C42.0595 56.0277 41.4174 56.4402 41.4405 55.9954ZM109.056 80.4682C109.108 80.5652 108.973 80.7836 108.72 80.4682C108.832 80.5167 108.959 80.2902 109.056 80.4682ZM129.23 10.0422C129.073 10.0422 129.021 9.67827 129.483 9.98559C129.401 10.0124 129.316 10.0313 129.23 10.0422ZM25.4095 39.1572C25.5737 39.1168 25.6403 39.4241 25.3123 39.3432C25.2988 39.3231 25.2906 39.2994 25.2886 39.2746C25.2865 39.2499 25.2907 39.225 25.3007 39.2026C25.3107 39.1801 25.3261 39.1611 25.3452 39.1474C25.3644 39.1337 25.3866 39.1259 25.4096 39.1249L25.4095 39.1572ZM146.182 9.9856C146.175 9.96938 146.171 9.95134 146.171 9.93303C146.171 9.91471 146.175 9.89667 146.183 9.88045C146.34 9.53269 146.533 10.1797 146.182 9.9856ZM27.4224 58.5672L27.8404 58.3327C27.7355 58.6157 27.6087 58.6642 27.4074 58.5672L27.4224 58.5672ZM181.547 63.6623C181.71 63.8402 182.002 63.5976 182.15 63.9697C182.046 63.9211 181.449 63.816 181.532 63.6623L181.547 63.6623ZM173.342 63.8888C173.544 63.816 173.767 64.1395 173.193 64.0344C173.253 63.9616 173.283 63.905 173.327 63.8888L173.342 63.8888ZM82.1589 58.365C82.3005 58.4378 82.4574 58.2275 82.6212 58.4378C82.5434 58.4763 82.4572 58.49 82.3726 58.4771C82.2881 58.4642 82.2087 58.4253 82.1439 58.365L82.1589 58.365ZM128.429 82.4577C128.31 82.4577 128.183 82.5709 128.064 82.4577C128.22 82.3849 128.123 82.3606 128.414 82.4577L128.429 82.4577ZM147.015 82.3202C146.679 82.4496 146.785 81.8996 147.18 82.1989C147.128 82.2438 147.073 82.2844 147.015 82.3202ZM133.307 82.6113C133.239 82.765 133.105 82.6841 133.001 82.5467C133.195 82.4981 133.389 82.4415 133.307 82.6437L133.307 82.6113ZM70.7329 58.2842C70.8281 58.2385 70.9311 58.2148 71.0351 58.2148C71.1391 58.2148 71.242 58.2385 71.337 58.2842L70.7329 58.2842ZM117.549 76.8854C117.347 76.9339 117.423 76.5295 117.788 76.756C117.714 76.8244 117.634 76.8841 117.549 76.9339L117.549 76.8854ZM92.1061 87.9895C92.1054 88.4424 91.5919 87.7388 92.0393 87.8035C92.054 87.9087 92.1061 87.9814 92.106 88.038L92.1061 87.9895ZM40.0586 47.9079C40.0581 48.1909 39.4993 47.8431 39.9767 47.827C39.9915 47.8917 40.0586 47.924 40.0585 47.9564L40.0586 47.9079ZM89.8408 77.2736C89.8932 77.1442 89.7891 76.9258 90.0204 76.9177L90.1099 76.9177C90.1392 77.2331 89.7515 77.1604 89.8408 77.2736ZM153.392 82.1989C153.32 82.2268 153.242 82.231 153.168 82.2109C153.093 82.1907 153.026 82.1472 152.975 82.0857C153.169 82.0129 153.311 81.9886 153.392 82.1989ZM153.825 81.9562C153.933 81.9042 154.054 81.8951 154.168 81.9306C154.281 81.9661 154.379 82.044 154.444 82.1503L153.825 81.9562ZM149.726 80.1042C149.764 80.0072 149.972 79.9829 149.95 80.1042C149.897 80.4277 149.689 80.2094 149.726 80.1042ZM146.251 80.1527C146.321 80.1207 146.398 80.1042 146.474 80.1042C146.551 80.1042 146.627 80.1207 146.698 80.1527C146.556 80.2821 146.422 80.2417 146.251 80.1527ZM24.0955 58.8664C23.9986 58.8179 24.0959 58.64 24.4835 58.7532C24.282 58.8664 24.2147 58.9473 24.0955 58.8664ZM63.5044 59.1899L63.9968 59.0929C63.8996 59.3032 63.7653 59.3112 63.5044 59.2142L63.5044 59.1899ZM154.73 80.5167C154.939 80.5167 155.073 80.4196 155.207 80.5167C155.065 80.6461 154.939 80.5895 154.73 80.5167ZM51.6528 59.4892C51.6531 59.2789 51.8097 59.3112 51.9886 59.4002L51.6528 59.4892ZM103.079 1.79295C102.975 1.71208 103.259 1.49375 103.236 1.87386C103.18 1.8485 103.128 1.81586 103.079 1.77676L103.079 1.79295ZM150.873 81.0504C150.8 81.0766 150.723 81.0851 150.647 81.0753C150.571 81.0655 150.498 81.0377 150.433 80.9938C150.597 80.9534 150.739 80.8725 150.873 81.0504ZM61.1503 81.1151C61.2697 81.0585 61.3361 81.4791 60.971 81.2607C61.0241 81.2032 61.0845 81.1542 61.1503 81.1151ZM133.516 2.25395C133.515 2.42379 133.314 2.25395 133.225 2.25395C133.404 2.17307 133.516 2.11646 133.516 2.25395ZM120.532 81.4467C120.413 81.5599 120.286 81.5518 120.025 81.4871C120.185 81.4097 120.364 81.3954 120.532 81.4467ZM99.8882 81.3011C100.075 81.3497 99.8877 81.568 99.7239 81.4144C99.7263 81.3944 99.7328 81.3753 99.7428 81.3584C99.7528 81.3414 99.766 81.327 99.7817 81.3162C99.7974 81.3054 99.815 81.2985 99.8334 81.2959C99.8518 81.2933 99.8705 81.2951 99.8882 81.3011ZM102.488 7.65639C102.846 7.56743 102.487 8.18208 102.376 7.65639C102.384 7.70491 102.436 7.67256 102.488 7.65639ZM174.896 67.0106L175.209 67.5362C174.724 67.2532 174.941 66.9539 174.896 67.0106ZM42.8144 7.83433C42.9262 7.89095 42.7543 8.11738 42.4487 7.97181C42.5682 7.86667 42.6579 7.74537 42.8144 7.83433ZM101.733 8.8938C101.427 9.00703 101.435 8.71588 101.584 8.74823L101.733 8.8938ZM154.985 8.76438C155.373 8.76438 155.328 8.76438 155.336 8.8129C154.97 8.86142 155.037 8.8776 155.015 8.76438L154.985 8.76438ZM168.003 81.9562C167.944 81.9957 167.877 82.0212 167.807 82.0309C167.738 82.0407 167.668 82.0345 167.601 82.0129C167.656 81.9519 167.729 81.9131 167.808 81.9028C167.886 81.8925 167.966 81.9114 168.033 81.9562L168.003 81.9562ZM156.458 81.9967L156.01 81.9967C156.042 81.9586 156.081 81.9282 156.124 81.9074C156.167 81.8865 156.213 81.8757 156.261 81.8757C156.308 81.8757 156.354 81.8865 156.397 81.9074C156.44 81.9282 156.479 81.9586 156.51 81.9967L156.458 81.9967ZM154.72 81.9967C154.899 81.9158 155.019 81.9967 155.153 82.1261C155.078 82.1487 154.999 82.1452 154.927 82.1161C154.855 82.0871 154.793 82.0339 154.75 81.9643L154.72 81.9967ZM120.758 9.7106C120.608 9.76721 120.624 9.28201 120.914 9.60551C120.875 9.63483 120.832 9.65922 120.788 9.67826L120.758 9.7106ZM152.626 10.0665C152.134 10.0665 152.186 10.0665 152.194 9.9856C152.701 9.95325 152.634 9.92898 152.656 10.0341L152.626 10.0665ZM138.985 10.2767L138.813 10.3738C138.649 10.2767 138.724 10.115 139.015 10.2444L138.985 10.2767ZM175.99 73.1975C176.04 73.1727 176.097 73.1665 176.151 73.1796C176.204 73.1928 176.253 73.2246 176.288 73.2703C176.191 73.2056 176.049 73.4239 175.99 73.1975ZM120.494 82.0129C120.636 82.0129 120.673 82.3768 120.27 82.0776C120.342 82.0467 120.418 82.025 120.494 82.0129ZM164.591 22.8852C164.74 23.1116 164.837 23.2006 164.591 23.241C164.449 23.1116 164.427 23.2087 164.599 22.8852L164.591 22.8852ZM29.8067 27.0259C29.6572 27.1958 29.5679 27.1311 29.5829 27.0259C29.598 26.9208 29.7024 26.9208 29.8067 27.0259ZM21.8074 34.3047C22.0014 34.2319 21.9859 34.5635 21.8517 34.5796C21.7174 34.5958 21.6879 34.3775 21.8223 34.3289L21.8074 34.3047ZM42.7701 35.8656C42.7694 36.278 42.2407 35.7605 42.621 35.7847C42.703 35.809 42.7777 35.7766 42.7849 35.8899L42.7701 35.8656ZM98.7331 75.9634C98.7588 75.9634 98.7835 75.9745 98.8016 75.9942C98.8198 76.0139 98.8299 76.0407 98.8299 76.0686C98.8299 76.0964 98.8196 76.1232 98.8014 76.1429C98.7832 76.1626 98.7585 76.1737 98.7328 76.1737C98.6805 76.206 98.487 75.9553 98.748 75.9876L98.7331 75.9634ZM29.96 62.1419C29.8107 62.2146 29.8187 61.8912 30.1915 61.972C30.1226 62.041 30.0503 62.1058 29.9749 62.1661L29.96 62.1419ZM125.662 82.3202C125.155 82.3202 125.215 82.3202 125.215 82.3202C125.722 82.3202 125.662 82.3202 125.662 82.3202ZM36.9803 37.2405C37.0846 37.2809 37.0773 37.2404 36.98 37.4184C36.8981 37.3456 36.9055 37.386 36.9504 37.2647L36.9803 37.2405ZM132.307 82.5305C132.807 82.5305 132.747 82.5305 132.747 82.579C132.218 82.5871 132.277 82.6113 132.277 82.5386L132.307 82.5305ZM136.111 82.7407C136.055 82.7788 135.99 82.7989 135.924 82.7989C135.858 82.7989 135.794 82.7788 135.738 82.7407C135.917 82.6194 136.103 82.5467 136.081 82.7488L136.111 82.7407ZM33.1221 48.1182C33.0846 48.2395 33.1219 48.2314 32.8387 48.1182C32.8462 48.0777 32.7567 48.1019 33.0923 48.1262L33.1221 48.1182ZM138.535 82.7408C139.072 82.7812 138.997 82.7407 138.989 82.8539C138.467 82.8216 138.542 82.854 138.535 82.7408ZM58.5242 48.5872C58.2857 48.474 58.3534 48.0939 58.48 48.2233C58.6066 48.3527 58.4345 48.7004 58.5242 48.5872ZM55.1383 48.5063C55.3919 48.5063 55.2199 48.757 54.9666 48.5953C55.0487 48.5549 55.0935 48.5063 55.1308 48.5063L55.1383 48.5063ZM142.338 82.9105C142.559 82.8379 142.796 82.8379 143.017 82.9106C142.798 82.9985 142.557 82.9985 142.338 82.9105ZM41.3322 49.024C41.5039 48.935 41.3917 49.1372 41.272 49.3232C41.2201 49.1614 41.1754 49.1614 41.3546 49.024L41.3322 49.024ZM7.94655 50.5929C7.81245 50.504 7.8123 50.5929 7.94694 50.3503C8.05104 50.5444 8.02879 50.4797 7.96895 50.5929L7.94655 50.5929ZM24.3965 52.4773C24.3511 52.5368 24.2868 52.5756 24.2163 52.5861C24.1458 52.5966 24.0743 52.5779 24.016 52.5339C24.1726 52.5501 24.2626 52.2832 24.4189 52.4773L24.3965 52.4773ZM66.6691 57.7018C66.8185 57.5724 66.9526 57.621 67.1688 57.7018C67.0953 57.7443 67.0133 57.7665 66.93 57.7665C66.8468 57.7665 66.7649 57.7443 66.6915 57.7018L66.6691 57.7018ZM44.7418 57.7018L44.3465 57.7018C44.4734 57.621 44.6004 57.5401 44.7642 57.718L44.7418 57.7018ZM169.7 84.6413C169.7 84.5362 169.849 84.4957 170.013 84.5766C169.834 84.7464 169.655 84.8597 169.7 84.6413ZM28.3227 69.3236C28.3224 69.5015 28.1512 69.3236 28.0617 69.3236C28.2483 69.2427 28.3229 69.1942 28.3227 69.3236ZM81.8088 58.0577C81.7193 58.0577 81.7048 57.7746 81.8092 57.807C81.9136 57.8393 82.1072 58.0011 81.8088 58.0577ZM169.398 86.5823C169.249 86.7521 169.092 86.6793 168.906 86.647C168.977 86.5934 169.059 86.5596 169.145 86.5483C169.231 86.537 169.318 86.5487 169.398 86.5823ZM80.2497 58.2761C80.1375 58.4863 80.0481 58.3974 80.0036 58.2761C80.123 58.2356 80.0633 58.2275 80.2496 58.3084L80.2497 58.2761ZM166.672 79.5138C166.672 79.7726 166.5 79.7646 166.284 79.7079C166.441 79.6109 166.516 79.4572 166.687 79.5219L166.672 79.5138ZM92.3168 58.4863C92.6822 58.5591 92.6375 58.4863 92.6224 58.6076C92.257 58.6076 92.3166 58.64 92.3169 58.454L92.3168 58.4863ZM87.5488 88.1351L87.4519 88.1351C87.5572 87.569 87.8845 88.127 87.5489 88.1028L87.5488 88.1351ZM180.972 63.6623C181.241 63.3793 182.083 63.8564 180.972 63.6623V63.6623ZM61.4321 58.5268C61.559 58.4782 61.6858 58.4297 61.8123 58.6157L61.4321 58.5268ZM19.0617 58.5268C19.1512 58.5268 19.2183 58.5267 19.0166 58.7532C18.8003 58.737 18.8901 58.5672 19.0618 58.4944L19.0617 58.5268ZM63.2154 91.0547C63.163 91.1517 63.0287 91.2164 63.0215 91.0547C63.0143 90.8929 63.268 90.8363 63.2154 91.0223L63.2154 91.0547ZM157.464 58.8502C157.401 58.8707 157.335 58.8756 157.271 58.8644C157.206 58.8532 157.145 58.8262 157.091 58.7856C157.226 58.7209 157.345 58.6804 157.464 58.8179L157.464 58.8502ZM151.026 93.0038L151.444 92.8501C151.369 93.0523 151.227 93.0118 151.026 92.9714L151.026 93.0038ZM160.061 81.7541C160.188 81.657 160.322 81.6893 160.501 81.7541C160.329 81.8107 160.239 81.932 160.061 81.7217L160.061 81.7541ZM94.9056 1.37239C94.9655 1.25107 95.0921 1.37238 95.3381 1.42091C95.1666 1.44517 94.8234 1.49372 94.9057 1.34005L94.9056 1.37239ZM85.6268 58.4378C85.5372 58.5186 85.4328 58.5106 85.2763 58.4378C85.327 58.3994 85.3861 58.3762 85.4477 58.3705C85.5092 58.3648 85.5711 58.3769 85.6269 58.4054L85.6268 58.4378ZM58.3818 58.4378C58.3687 58.4674 58.3494 58.4933 58.3254 58.5134C58.3015 58.5336 58.2735 58.5473 58.2437 58.5536C58.214 58.5599 58.1834 58.5586 58.1542 58.5497C58.1251 58.5408 58.0983 58.5246 58.0759 58.5025C58.3447 58.3326 58.2626 58.3569 58.3819 58.3973L58.3818 58.4378ZM39.8753 60.0553C39.9423 60.0134 40.0182 59.9913 40.0954 59.9913C40.1727 59.9913 40.2485 60.0134 40.3153 60.0553C40.1289 60.0391 40.0021 60.0715 39.8754 59.9744L39.8753 60.0553ZM39.1493 47.552C39.0597 47.6086 39.097 47.6167 39.0225 47.552C39.1048 47.3903 39.0675 47.3822 39.1345 47.4711L39.1493 47.552ZM38.5676 47.4631C38.6717 47.6653 38.612 47.7218 38.5673 47.6733C38.3289 47.4873 38.4633 47.4307 38.5529 47.3822L38.5676 47.4631ZM18.1962 35.162C18.3678 35.162 18.4717 35.4855 17.9873 35.2348C18.0461 35.1754 18.1113 35.1238 18.1814 35.0811L18.1962 35.162ZM89.0946 58.6157C88.9901 58.6966 88.8933 58.6157 88.7888 58.6157C88.8249 58.5727 88.871 58.541 88.9222 58.524C88.9734 58.5069 89.0279 58.5051 89.0799 58.5187L89.0946 58.6157ZM79.6835 57.8555C79.7657 57.7584 79.7284 57.7827 79.8328 57.7989C79.7284 57.7989 79.7284 57.7827 79.6688 57.7584L79.6835 57.8555ZM26.7959 58.5834C26.9898 58.5834 27.0265 58.9392 26.6987 58.6966C26.7214 58.551 26.7736 58.4863 26.7736 58.4863L26.7959 58.5834ZM22.2395 34.6039C22.1504 34.3532 22.1804 34.24 22.4559 34.4826L22.2395 34.6039ZM152.199 82.1099C152.289 82.0128 152.386 82.1099 152.452 82.2312C152.244 82.2717 152.035 82.2636 152.199 82.1099ZM96.779 75.9796C96.8611 75.9796 97.0399 76.1009 96.9131 76.1009C96.7863 76.1009 96.6895 75.9796 96.779 75.9796ZM106.228 76.4163C106.011 76.5295 105.952 76.4163 106.154 76.2707L106.228 76.4163ZM115.215 76.5215C115.215 76.6266 115.147 76.756 115.043 76.5215C114.939 76.2869 115.193 76.3597 115.215 76.5215ZM142.802 82.1342C142.995 82.1908 142.801 82.304 142.712 82.3283C142.622 82.3525 142.66 82.0857 142.832 82.1342L142.802 82.1342ZM137.715 82.2069C137.715 82.2797 137.618 82.4253 137.461 82.4415C137.558 82.2151 137.648 81.9967 137.745 82.2069L137.715 82.2069ZM53.921 58.923C53.7793 58.923 54.0481 58.737 54.2119 58.923L53.921 58.923ZM118.482 76.5215C118.601 76.5215 118.698 76.7075 118.534 76.7641C118.369 76.8207 118.332 76.5538 118.482 76.5215ZM27.788 11.2796C27.9297 11.2796 27.7875 11.595 27.6609 11.5141C27.5342 11.4333 27.5269 11.3281 27.7806 11.2796L27.788 11.2796ZM134.831 10.1635C134.868 10.3172 134.771 10.4385 134.674 10.1635C134.578 9.88857 134.794 10.0099 134.823 10.1635L134.831 10.1635ZM155.838 82.4415C155.898 82.3997 155.968 82.3775 156.04 82.3775C156.111 82.3775 156.181 82.3997 156.241 82.4415C156.183 82.4888 156.112 82.5143 156.039 82.5143C155.967 82.5143 155.896 82.4888 155.838 82.4415ZM155.04 82.4415C155.466 82.1585 155.897 82.7327 155.04 82.4415V82.4415ZM130.063 82.3768L130.383 82.4253C130.234 82.4577 130.144 82.5871 130.063 82.3849L130.063 82.3768ZM24.5357 82.3768C24.864 82.2474 24.3783 82.8378 24.3789 82.49C24.4173 82.4582 24.4572 82.4285 24.4983 82.401L24.5357 82.3768ZM136.762 10.2767C136.613 10.2767 136.539 9.94516 136.964 10.1393C136.837 10.2282 136.799 10.2848 136.762 10.2767ZM132.981 10.0099C133.138 9.90474 133.19 9.96136 133.168 10.0099C133.145 10.0584 133.071 10.0988 132.981 10.0099ZM134.284 82.5386C134.418 82.5386 134.529 82.8135 134.201 82.6679C134.187 82.579 134.224 82.5305 134.284 82.5386ZM118.349 9.36284C118.566 9.36284 118.573 9.59742 118.297 9.45184C118.319 9.4114 118.342 9.35475 118.349 9.36284ZM24.058 82.6032C24.282 82.4415 24.3262 82.8135 23.849 82.6922C23.9216 82.6714 23.9917 82.6415 24.058 82.6032ZM154.514 9.27389C154.634 9.18493 154.776 9.12832 154.775 9.27389C154.775 9.41947 154.604 9.33859 154.514 9.27389ZM25.7827 62.5624C25.8797 62.522 25.9468 62.5624 25.8196 62.7969C25.7526 62.7484 25.6036 62.6514 25.7827 62.5624ZM109.34 9.08789C109.34 9.08789 109.28 9.16068 109.258 9.19303C108.893 9.12833 109.415 8.82909 109.34 9.08789ZM167.675 63.1043C167.712 63.3065 167.228 63.1609 167.571 63.0072C167.608 63.0396 167.668 63.0638 167.675 63.1043ZM98.9512 8.76437C99.0855 8.76437 99.0553 8.98275 98.8541 8.87761C98.8468 8.78056 98.899 8.76437 98.9512 8.76437ZM96.8929 8.65113C97.0792 8.74818 96.8925 8.90998 96.952 9.04746C96.9595 8.97468 96.6619 8.52173 96.8929 8.65113ZM58.3059 59.2708C58.5969 59.2142 58.7238 59.1495 58.8354 59.3193L58.3059 59.2708ZM170.173 63.452C170.024 63.5087 169.897 63.541 169.8 63.3712C169.703 63.4844 169.965 63.1609 170.158 63.452L170.173 63.452ZM58.2088 59.3517C58.0372 59.4244 58.1043 59.4164 57.9403 59.3517C58.0972 59.2223 58.0599 59.2142 58.1939 59.3517L58.2088 59.3517ZM68.3845 57.7342C68.2427 57.7746 68.0711 57.807 68.1608 57.6776C68.2505 57.5482 68.325 57.5967 68.3696 57.7018L68.3845 57.7342ZM21.2478 53.3265C21.2478 53.3265 21.1957 53.2618 21.2032 53.2375C21.2409 52.9787 21.6582 53.2052 21.2329 53.2941L21.2478 53.3265ZM133.945 3.99278C134.035 4.23541 133.543 3.99276 133.841 3.91997C133.834 3.87145 133.893 3.87147 133.908 3.94426L133.945 3.99278ZM149.923 2.58552C150.013 2.47229 150.117 2.5289 150.281 2.58552C150.227 2.6204 150.165 2.63883 150.102 2.63883C150.039 2.63883 149.977 2.6204 149.923 2.58552ZM36.8114 63.8403C36.9232 63.9292 36.8113 63.9454 36.7144 63.9373C36.6174 63.9292 36.7147 63.7189 36.8413 63.8403L36.8114 63.8403ZM172.056 80.2336C172.056 80.3549 171.974 80.4116 171.899 80.4682C171.832 80.3226 172.041 80.088 172.056 80.2336ZM145.941 2.46423C146.038 2.40762 145.986 2.39953 146.135 2.46423C146.015 2.49658 146.06 2.50467 145.941 2.46423ZM34.2367 88.4586L33.737 88.4586C33.9312 88.3049 34.0356 88.3292 34.2367 88.4586ZM92.2355 1.4452C92.3921 1.4452 92.4811 1.73635 92.0936 1.55034C92.1533 1.53416 92.1906 1.48563 92.2355 1.4452ZM41.9983 80.6056C41.8416 80.6622 41.8938 80.6542 41.782 80.6056C41.9013 80.5975 41.8491 80.6056 41.9982 80.638L41.9983 80.6056ZM149.662 92.3325C149.826 92.2678 149.916 92.3325 150.012 92.5266C149.781 92.5104 149.714 92.4781 149.662 92.3325ZM140.969 80.8078L140.775 80.8078C140.775 80.8078 140.85 80.6218 140.969 80.8078ZM173.953 64.1718C174.013 64.091 174.073 63.9616 174.177 64.1152C174.281 64.2689 174.102 64.2042 173.953 64.1718ZM160.573 35.9303C160.774 36.1568 160.52 36.8118 160.573 35.9303V35.9303ZM61.1812 61.5353C61.5682 61.4298 61.973 61.4298 62.3596 61.5353C61.6733 61.6404 61.3973 61.6485 61.1812 61.5353ZM152.071 59.6186C152.16 59.4487 152.235 59.287 152.474 59.3517C152.354 59.4972 152.287 59.6752 152.071 59.6186ZM151.288 59.2385C151.146 59.2385 151.214 58.9797 151.363 59.19C151.325 59.2061 151.325 59.2385 151.281 59.2385L151.288 59.2385Z" fill="white"/>
</svg>
