<svg width="463" height="212" viewBox="0 0 463 212" fill="none" xmlns="http://www.w3.org/2000/svg">
<path d="M74.9686 101.152C81.6041 84.9538 87.3613 69.341 92.2403 54.3137C97.3145 39.2864 100.925 28.455 103.072 21.8195C105.414 15.1841 109.024 9.91477 113.903 6.01158C118.977 2.10838 124.149 0.156783 129.418 0.156783C138.591 0.156783 144.738 3.4745 147.861 10.1099C150.008 14.7938 151.081 22.9905 151.081 34.7001C151.081 40.5549 150.593 51.5814 149.617 67.7797C148.837 83.978 148.056 100.664 147.275 117.838C147.275 118.424 147.275 118.912 147.275 119.302C147.861 119.107 148.349 119.009 148.739 119.009C149.91 119.009 157.229 109.154 170.695 89.4425C187.674 64.2668 200.554 46.0194 209.336 34.7001C224.559 14.7938 234.902 4.84061 240.367 4.84061C248.173 4.84061 253.638 8.06075 256.76 14.501C259.102 19.38 260.273 26.1131 260.273 34.7001C260.273 44.0678 258.517 55.7774 255.004 69.8289C251.686 83.6852 248.271 97.5416 244.758 111.398C241.44 125.254 239.781 136.769 239.781 145.941C239.781 152.382 241.147 156.285 243.88 157.651C246.612 159.017 247.978 163.994 247.978 172.581C247.978 180.582 245.831 187.413 241.538 193.072C236.464 199.708 229.633 203.026 221.046 203.026C215.191 203.026 210.117 200.586 205.823 195.707C201.725 190.828 199.676 184.485 199.676 176.679C199.481 175.118 199.383 173.459 199.383 171.702C199.383 169.946 199.383 168.58 199.383 167.604C199.383 157.456 202.018 141.355 207.287 119.302C210.995 103.494 213.63 90.8086 215.191 81.2457C207.385 92.7602 199.578 104.275 191.772 115.789C177.72 136.476 166.401 152.089 157.814 162.627C144.933 178.435 136.054 186.339 131.175 186.339C123.368 186.339 118.001 182.924 115.074 176.093C113.318 171.995 112.439 165.75 112.439 157.358C112.439 145.649 112.439 132.475 112.439 117.838C112.635 103.006 113.22 91.6868 114.196 83.8804C103.852 107.3 94.9725 126.718 87.5565 142.136C73.7001 171.019 63.1615 188.876 55.9405 195.707C48.7196 202.342 41.6939 206.831 34.8633 209.173C29.594 210.93 23.0561 211.808 15.2497 211.808C10.1755 211.808 6.4675 208.88 4.12558 203.026C1.5885 196.976 0.31996 190.145 0.31996 182.534C0.31996 177.46 4.5159 173.752 12.9078 171.41C17.0061 170.239 21.1045 169.068 25.2029 167.897C34.1802 164.969 43.3527 156.675 52.7204 143.014C60.722 131.499 68.138 117.545 74.9686 101.152ZM427.231 71.5853C431.72 67.2918 435.818 64.0717 439.526 61.9249C443.234 59.7781 447.43 58.7048 452.114 58.7048C455.627 58.7048 458.164 60.266 459.725 63.3886C461.481 66.5112 462.36 70.1216 462.36 74.22C462.36 78.7087 459.237 90.711 452.992 110.227C446.942 129.548 443.917 143.404 443.917 151.796C443.917 155.699 446.064 159.7 450.357 163.798C454.846 167.702 457.09 171.41 457.09 174.923C457.09 180.777 454.456 187.998 449.186 196.585C443.917 204.977 439.233 209.173 435.135 209.173C427.524 209.173 420.986 205.66 415.521 198.634C409.471 190.828 406.446 180.485 406.446 167.604C406.446 159.993 407.812 150.137 410.545 138.037C411.716 133.158 414.155 123.791 417.863 109.934C416.692 110.91 409.764 115.594 397.079 123.986C391.029 127.889 386.442 131.207 383.32 133.939C383.32 140.184 382.539 146.234 380.978 152.089C379.612 157.944 377.465 164.481 374.538 171.702C369.854 183.412 361.56 192.585 349.655 199.22C337.75 205.855 323.113 209.173 305.744 209.173C296.181 209.173 286.423 205.075 276.47 196.878C266.712 188.486 261.833 180.094 261.833 171.702C261.833 160.383 263.589 148.576 267.102 136.281C268.273 131.792 274.811 115.106 286.716 86.2223C290.619 77.4401 295.303 70.5119 300.767 65.4378C307.207 59.583 314.331 56.6556 322.137 56.6556C324.674 56.6556 326.821 58.5096 328.577 62.2176C330.334 65.7305 331.212 68.8531 331.212 71.5853C331.212 73.7321 330.139 77.0498 327.992 81.5385C320.381 97.9319 315.599 108.763 313.648 114.033C311.111 120.863 308.769 127.987 306.622 135.403C303.304 146.917 301.645 155.309 301.645 160.578C301.645 165.262 304.182 168.482 309.257 170.239C312.184 171.214 316.478 171.702 322.137 171.702C328.577 171.702 334.432 168.97 339.702 163.506C345.752 157.261 348.777 149.259 348.777 139.501C347.996 139.696 346.923 139.794 345.556 139.794C340.677 139.794 336.579 137.745 333.261 133.646C330.139 129.548 328.577 125.157 328.577 120.473C328.577 114.228 330.627 108.08 334.725 102.03C339.604 94.8094 345.654 91.1989 352.875 91.1989C365.17 91.1989 373.757 95.2973 378.636 103.494C386.052 100.762 394.151 96.4682 402.933 90.6134C411.911 84.7586 420.01 78.4159 427.231 71.5853Z" fill="#01FC99"/>
</svg>
