<svg width="24" height="24" viewBox="0 0 24 24" fill="none" xmlns="http://www.w3.org/2000/svg">
<path d="M12.003 0H11.997C5.3805 0 0 5.382 0 12C0 14.625 0.846 17.058 2.2845 19.0335L0.789 23.4915L5.4015 22.017C7.299 23.274 9.5625 24 12.003 24C18.6195 24 24 18.6165 24 12C24 5.3835 18.6195 0 12.003 0Z" fill="#4CAF50"/>
<path d="M18.9853 16.9453C18.6958 17.7628 17.5468 18.4408 16.6303 18.6388C16.0033 18.7723 15.1843 18.8788 12.4273 17.7358C8.90082 16.2748 6.62982 12.6913 6.45282 12.4588C6.28332 12.2263 5.02782 10.5613 5.02782 8.83928C5.02782 7.11728 5.90232 6.27878 6.25482 5.91878C6.54432 5.62328 7.02282 5.48828 7.48182 5.48828C7.63032 5.48828 7.76382 5.49578 7.88382 5.50178C8.23632 5.51678 8.41332 5.53778 8.64582 6.09428C8.93532 6.79178 9.64032 8.51378 9.72432 8.69078C9.80982 8.86778 9.89532 9.10778 9.77532 9.34028C9.66282 9.58028 9.56382 9.68678 9.38682 9.89078C9.20982 10.0948 9.04182 10.2508 8.86482 10.4698C8.70282 10.6603 8.51982 10.8643 8.72382 11.2168C8.92782 11.5618 9.63282 12.7123 10.6708 13.6363C12.0103 14.8288 13.0963 15.2098 13.4848 15.3718C13.7743 15.4918 14.1193 15.4633 14.3308 15.2383C14.5993 14.9488 14.9308 14.4688 15.2683 13.9963C15.5083 13.6573 15.8113 13.6153 16.1293 13.7353C16.4533 13.8478 18.1678 14.6953 18.5203 14.8708C18.8728 15.0478 19.1053 15.1318 19.1908 15.2803C19.2748 15.4288 19.2748 16.1263 18.9853 16.9453Z" fill="#FAFAFA"/>
</svg>
