<svg width="712" height="167" viewBox="0 0 712 167" fill="none" xmlns="http://www.w3.org/2000/svg">
<path d="M104.808 149.481C104.808 152.398 102.753 155.713 98.6423 159.426C94.532 163.138 91.2835 164.994 88.8969 164.994C83.328 163.006 78.8199 161.547 75.3725 160.619C65.0304 157.702 56.3457 156.243 49.3184 156.243C45.6058 156.243 41.0977 156.774 35.7941 157.835C22.5349 160.486 14.7121 161.812 12.3254 161.812C8.87805 161.812 5.96104 160.818 3.5744 158.829C1.32035 156.707 0.193321 154.056 0.193321 150.873C0.193321 150.343 3.11033 146.233 8.94434 138.542C11.0658 135.758 17.5628 127.14 28.4353 112.687C38.6448 99.1629 45.1417 90.3456 47.9262 86.2352C52.0365 80.5338 55.285 75.4954 57.6716 71.1198C62.1797 63.0318 64.2349 56.9989 63.8371 53.0211C63.8371 50.2367 63.7708 48.7119 63.6382 48.4467C63.1079 47.2534 61.6494 46.6568 59.2627 46.6568C58.0694 46.6568 54.0917 49.176 47.3295 54.2145C40.6999 59.1203 35.8604 61.5733 32.8108 61.5733C32.2804 61.5733 31.0208 60.7777 29.0319 59.1866C27.1756 57.4629 26.2475 56.4022 26.2475 56.0044C26.2475 49.6401 32.1478 42.4138 43.9484 34.3258C55.749 26.2377 65.9586 22.1937 74.577 22.1937C79.8807 22.1937 84.0573 24.2488 87.1069 28.3592C89.7587 31.9391 91.0846 35.9832 91.0846 40.4913C91.0846 47.7838 87.9024 57.5955 81.538 69.9265C76.6322 79.3405 69.87 90.4782 61.2516 103.34C54.8872 112.621 48.5891 121.902 42.3573 131.184C44.6114 130.653 47.3958 130.256 50.7106 129.99C54.158 129.725 57.2076 129.593 59.8594 129.593H66.4226C76.4996 129.593 85.3832 131.515 93.0735 135.36C100.896 139.073 104.808 143.78 104.808 149.481ZM221.679 67.9377C221.679 88.4893 212.662 109.903 194.63 132.178C176.598 154.321 158.764 165.392 141.13 165.392C130.787 165.392 122.567 160.089 116.468 149.481C111.164 140.332 108.512 129.791 108.512 117.858C108.512 109.505 112.49 98.4336 120.445 84.6441C126.942 73.3739 132.047 66.0814 135.76 62.7666C144.113 54.4133 151.604 47.2534 158.234 41.2868C171.228 29.7514 180.575 23.9837 186.277 23.9837C197.547 23.9837 206.364 28.2929 212.729 36.9113C218.695 44.9994 221.679 55.3415 221.679 67.9377ZM195.028 73.1087C195.028 68.0702 193.503 63.5621 190.453 59.5844C187.536 55.6067 183.89 53.6178 179.515 53.6178C177.393 53.6178 173.15 56.0044 166.786 60.7777C158.433 67.0095 151.604 74.2357 146.301 82.4564C139.141 93.5941 135.561 105.395 135.561 117.858C135.561 122.101 136.157 126.013 137.351 129.593C139.207 135.029 141.991 137.747 145.704 137.747C156.179 137.747 166.653 131.913 177.128 120.245C189.061 106.853 195.028 91.1411 195.028 73.1087ZM317.096 149.481C317.096 152.398 315.041 155.713 310.931 159.426C306.82 163.138 303.572 164.994 301.185 164.994C295.616 163.006 291.108 161.547 287.661 160.619C277.319 157.702 268.634 156.243 261.607 156.243C257.894 156.243 253.386 156.774 248.082 157.835C234.823 160.486 227 161.812 224.614 161.812C221.166 161.812 218.249 160.818 215.863 158.829C213.609 156.707 212.482 154.056 212.482 150.873C212.482 150.343 215.399 146.233 221.233 138.542C223.354 135.758 229.851 127.14 240.724 112.687C250.933 99.1629 257.43 90.3456 260.215 86.2352C264.325 80.5338 267.573 75.4954 269.96 71.1198C274.468 63.0318 276.523 56.9989 276.126 53.0211C276.126 50.2367 276.059 48.7119 275.927 48.4467C275.396 47.2534 273.938 46.6568 271.551 46.6568C270.358 46.6568 266.38 49.176 259.618 54.2145C252.988 59.1203 248.149 61.5733 245.099 61.5733C244.569 61.5733 243.309 60.7777 241.32 59.1866C239.464 57.4629 238.536 56.4022 238.536 56.0044C238.536 49.6401 244.436 42.4138 256.237 34.3258C268.037 26.2377 278.247 22.1937 286.865 22.1937C292.169 22.1937 296.346 24.2488 299.395 28.3592C302.047 31.9391 303.373 35.9832 303.373 40.4913C303.373 47.7838 300.191 57.5955 293.826 69.9265C288.921 79.3405 282.158 90.4782 273.54 103.34C267.176 112.621 260.878 121.902 254.646 131.184C256.9 130.653 259.684 130.256 262.999 129.99C266.446 129.725 269.496 129.593 272.148 129.593H278.711C288.788 129.593 297.672 131.515 305.362 135.36C313.185 139.073 317.096 143.78 317.096 149.481ZM393.195 36.7124C393.195 40.0272 390.013 48.6456 383.649 62.5677C377.417 76.4898 371.185 90.2793 364.953 103.936C357.926 120.377 353.948 131.847 353.02 138.344C352.225 144.841 349.506 150.277 344.866 154.652C340.358 159.028 335.12 161.216 329.154 161.216C325.043 161.216 322.392 160.42 321.198 158.829C320.005 157.105 319.408 154.188 319.408 150.078C319.408 148.752 322.789 142.056 329.551 129.99C334.723 120.709 339.96 108.046 345.264 92.003C351.495 75.5616 358.589 60.4462 366.544 46.6568C373.97 33.6628 379.804 27.1658 384.046 27.1658C386.433 27.1658 388.555 28.2929 390.411 30.5469C392.267 32.801 393.195 34.8561 393.195 36.7124ZM487.541 99.7595C485.419 99.7595 483.033 98.1022 480.381 94.7874C478.657 92.5333 477.795 90.4119 477.795 88.423C477.795 82.9868 482.502 76.8213 491.916 69.9265C501.33 63.0318 509.485 59.5844 516.379 59.5844C522.081 59.5844 527.053 60.9766 531.296 63.761C535.671 66.5454 537.859 70.3243 537.859 75.0976C537.859 85.7049 535.207 94.4559 529.904 101.351C527.517 104.4 522.876 109.174 515.981 115.67C511.606 119.648 507.23 123.626 502.855 127.604C499.01 131.449 497.087 134.764 497.087 137.548C497.087 139.139 498.082 139.935 500.071 139.935C505.639 139.935 511.937 137.946 518.965 133.968C526.125 129.99 533.351 125.88 540.643 121.637C542.5 121.637 543.958 122.3 545.019 123.626C546.08 124.952 546.61 126.543 546.61 128.399C546.61 134.498 540.378 142.189 527.915 151.47C515.584 160.619 505.109 165.193 496.491 165.193C489.198 165.193 482.834 163.138 477.397 159.028C471.431 154.52 468.448 148.951 468.448 142.321C468.448 136.487 473.353 129.195 483.165 120.444C485.817 118.057 490.458 114.278 497.087 109.107C504.91 102.875 509.75 98.4999 511.606 95.9807C512.932 94.257 513.595 91.7378 513.595 88.423C513.595 87.4949 512.799 87.0308 511.208 87.0308C507.761 87.0308 503.783 89.1522 499.275 93.3952C494.767 97.6381 490.855 99.7595 487.541 99.7595ZM636.342 79.672C632.895 80.2023 628.652 81.1968 623.613 82.6553C619.901 83.716 617.116 84.2464 615.26 84.2464C616.984 86.633 618.111 88.2904 618.641 89.2185C619.702 90.8096 620.232 93.9918 620.232 98.7651C620.232 110.566 616.984 121.77 610.487 132.377C605.448 140.598 598.09 148.818 588.41 157.039C584.168 160.619 580.124 163.072 576.278 164.398C572.433 165.724 567.063 166.387 560.169 166.387C553.406 166.387 547.838 164.862 543.462 161.812C537.495 157.702 534.512 151.271 534.512 142.52C534.512 133.769 536.435 124.223 540.28 113.881C543.197 105.792 546.445 99.2292 550.025 94.1907C558.511 82.1249 565.538 73.7717 571.107 69.131C575.218 65.6836 578.997 63.9599 582.444 63.9599C584.035 63.9599 585.692 64.7555 587.416 66.3466C589.272 67.8051 590.2 69.4625 590.2 71.3187C590.2 75.0313 587.549 80.7327 582.245 88.423C576.941 96.1133 571.704 103.671 566.533 111.096C560.964 120.112 558.18 127.339 558.18 132.775C558.18 135.427 558.975 137.747 560.566 139.736C562.29 141.592 564.743 142.52 567.925 142.52C575.35 142.52 582.046 137.88 588.013 128.598C593.449 120.112 596.167 111.56 596.167 102.942C596.167 100.555 595.438 96.6437 593.979 91.2074C592.521 85.7712 591.792 81.6608 591.792 78.8764C591.792 72.512 597.758 68.1365 609.691 65.7499C616.851 64.2914 625.735 63.5621 636.342 63.5621C638.994 63.5621 641.314 64.0262 643.303 64.9543C645.292 65.7499 646.287 66.8106 646.287 68.1365C646.287 70.7884 645.226 73.3076 643.104 75.6942C640.983 78.0809 638.729 79.4068 636.342 79.672ZM709.581 96.9751C707.062 109.306 703.216 120.377 698.045 130.189C692.874 139.868 686.178 148.222 677.958 155.249C673.715 158.696 669.538 161.083 665.428 162.409C661.45 163.735 656.146 164.398 649.517 164.398C643.55 164.398 638.18 162.077 633.407 157.437C627.971 152.133 624.855 145.039 624.059 136.156C624.059 127.537 625.783 118.786 629.23 109.903C631.484 104.201 634.468 98.4336 638.18 92.5996C644.147 83.4508 650.18 76.2246 656.279 70.921C663.704 64.424 670.267 61.1755 675.969 61.1755C677.693 61.1755 679.35 61.9047 680.941 63.3633C682.532 64.8218 683.328 66.678 683.328 68.9321C683.328 72.2469 679.681 77.1527 672.389 83.6497C668.013 87.4949 665.03 90.5445 663.439 92.7985C658.401 99.9584 654.555 106.522 651.904 112.488C649.252 118.322 647.926 123.626 647.926 128.399C647.926 131.316 648.788 134.167 650.511 136.951C652.368 139.736 654.821 141.128 657.87 141.128C664.765 141.128 670.732 137.217 675.77 129.394C677.361 126.874 680.477 120.311 685.118 109.704C686.576 106.389 688.035 100.423 689.493 91.8041C691.084 83.1856 691.88 76.2909 691.88 71.1198C691.88 62.2362 690.289 55.3415 687.107 50.4356C685.515 48.049 681.339 43.9386 674.577 38.1046C672.19 35.9832 664.235 31.6076 650.71 24.9781C645.009 22.1937 641.164 19.6744 639.175 17.4204C638.247 16.3597 637.783 14.7686 637.783 12.6471C637.783 9.7301 638.711 7.01198 640.567 4.49274C642.423 1.97351 644.81 0.713896 647.727 0.713896C650.114 0.713896 654.887 2.30499 662.047 5.48718C669.339 8.66937 675.836 12.183 681.538 16.0282C689.758 21.8622 696.52 29.221 701.824 38.1046C707.923 48.4467 710.973 59.5181 710.973 71.3187C710.973 72.512 710.973 73.838 710.973 75.2965C710.973 76.6224 711.039 78.0809 711.172 79.672C711.172 83.7823 711.039 86.7656 710.774 88.6219C710.641 90.3456 710.244 93.13 709.581 96.9751Z" fill="#01FC99"/>
</svg>
