<svg width="25" height="24" viewBox="0 0 25 24" fill="none" xmlns="http://www.w3.org/2000/svg">
<g clip-path="url(#clip0)">
<path d="M21.8822 21.4292C22.4217 21.4292 22.8891 21.2511 23.2865 20.8993L16.4869 14.0995C16.3238 14.2163 16.1657 14.3299 16.0163 14.4379C15.5074 14.8128 15.0944 15.1054 14.7773 15.315C14.4602 15.5251 14.0384 15.7393 13.5117 15.9579C12.9848 16.1768 12.4938 16.286 12.0384 16.286H12.025H12.0117C11.5562 16.286 11.0653 16.1769 10.5384 15.9579C10.0114 15.7393 9.58956 15.5251 9.27278 15.315C8.9557 15.1054 8.54293 14.8129 8.03381 14.4379C7.89194 14.3339 7.7346 14.2198 7.56449 14.0977L0.763596 20.8993C1.16094 21.2511 1.6287 21.4292 2.16814 21.4292H21.8822Z" fill="black"/>
<path d="M1.37802 9.8167C0.869209 9.47748 0.418006 9.08898 0.0251923 8.65137V18.9968L6.01832 13.0037C4.81935 12.1666 3.27455 11.1055 1.37802 9.8167Z" fill="black"/>
<path d="M22.686 9.81669C20.8618 11.0514 19.3113 12.1143 18.0345 13.006L24.0252 18.997V8.65137C23.6411 9.08017 23.1948 9.46841 22.686 9.81669Z" fill="black"/>
<path d="M21.8822 2.57129H2.16819C1.48043 2.57129 0.951663 2.80353 0.581245 3.26755C0.210523 3.73178 0.0254669 4.31235 0.0254669 5.00861C0.0254669 5.57101 0.271046 6.18039 0.761988 6.83691C1.25293 7.49316 1.77533 8.00864 2.32893 8.38359C2.63242 8.59801 3.54763 9.23427 5.07458 10.2921C5.89885 10.8633 6.61568 11.3612 7.23168 11.7908C7.75674 12.1567 8.20955 12.4735 8.58341 12.7364C8.62633 12.7665 8.69382 12.8148 8.78341 12.8789C8.87993 12.9482 9.00206 13.0362 9.15274 13.145C9.4429 13.3548 9.68394 13.5245 9.87593 13.654C10.0677 13.7837 10.2999 13.9285 10.5724 14.0893C10.8447 14.2498 11.1016 14.3706 11.3426 14.4509C11.5837 14.5311 11.8069 14.5714 12.0122 14.5714H12.0255H12.0389C12.2441 14.5714 12.4674 14.5311 12.7085 14.4509C12.9495 14.3706 13.2061 14.2501 13.4786 14.0893C13.7509 13.9285 13.9828 13.7834 14.1752 13.654C14.3672 13.5245 14.6082 13.3549 14.8984 13.145C15.0488 13.0362 15.1709 12.9482 15.2674 12.8791C15.3571 12.8148 15.4245 12.7668 15.4677 12.7364C15.7589 12.5338 16.2128 12.2183 16.823 11.7946C17.9333 11.0231 19.5686 9.88761 21.7356 8.38359C22.3873 7.92837 22.9318 7.37905 23.3694 6.73638C23.8062 6.09372 24.0252 5.41959 24.0252 4.71423C24.0252 4.1249 23.8129 3.62062 23.3891 3.20062C22.9649 2.78114 22.4625 2.57129 21.8822 2.57129Z" fill="black"/>
</g>
<defs>
<clipPath id="clip0">
<rect width="24" height="24" fill="white" transform="translate(0.0251923)"/>
</clipPath>
</defs>
</svg>
